<?xml version="1.0" encoding="UTF-8" standalone="no"?>
<!-- Created with Inkscape (http://www.inkscape.org/) -->

<svg
   xmlns:dc="http://purl.org/dc/elements/1.1/"
   xmlns:cc="http://creativecommons.org/ns#"
   xmlns:rdf="http://www.w3.org/1999/02/22-rdf-syntax-ns#"
   xmlns:svg="http://www.w3.org/2000/svg"
   xmlns="http://www.w3.org/2000/svg"
   xmlns:sodipodi="http://sodipodi.sourceforge.net/DTD/sodipodi-0.dtd"
   xmlns:inkscape="http://www.inkscape.org/namespaces/inkscape"
   width="556.15076"
   height="99.158569"
   id="svg83213"
   version="1.1"
   inkscape:version="0.48.1 r9760"
   sodipodi:docname="RoboPaint_Graphic.svg">
  <defs
     id="defs83215" />
  <sodipodi:namedview
     id="base"
     pagecolor="#ffffff"
     bordercolor="#666666"
     borderopacity="1.0"
     inkscape:pageopacity="0.0"
     inkscape:pageshadow="2"
     inkscape:zoom="0.78395063"
     inkscape:cx="278.26381"
     inkscape:cy="-45.89305"
     inkscape:document-units="px"
     inkscape:current-layer="layer1"
     showgrid="false"
     inkscape:window-width="1676"
     inkscape:window-height="1006"
     inkscape:window-x="0"
     inkscape:window-y="0"
     inkscape:window-maximized="1"
     fit-margin-top="0"
     fit-margin-left="0"
     fit-margin-right="0"
     fit-margin-bottom="0" />
  <metadata
     id="metadata83218">
    <rdf:RDF>
      <cc:Work
         rdf:about="">
        <dc:format>image/svg+xml</dc:format>
        <dc:type
           rdf:resource="http://purl.org/dc/dcmitype/StillImage" />
        <dc:title></dc:title>
      </cc:Work>
    </rdf:RDF>
  </metadata>
  <g
     inkscape:label="Layer 1"
     inkscape:groupmode="layer"
     id="layer1"
     transform="translate(-93.783432,-381.12947)">
    <g
       id="g11692"
       transform="matrix(1.4582021,0,0,1.4582021,-85.753339,-299.25891)">
      <path
         d="m 178.95142,531.41654 c -6.00434,-0.88299 -17.92475,-20.04394 -21.01522,-27.54936 17.30664,-3.62027 35.9378,-12.18531 36.55589,-24.5472 0.79469,-16.68854 -42.03045,-12.18529 -45.82731,-10.50761 -1.41279,0.6181 0.97129,3.70857 0.79469,3.97347 -4.67985,7.06393 -11.30231,17.48326 -17.13005,28.16746 -3.62027,6.71074 -6.44585,12.3619 -8.47673,17.48325 -2.47237,7.06393 1.94259,10.86081 4.15007,12.62679 2.64897,1.94259 3.35537,0.97129 3.97346,-0.17659 1.76599,-3.53197 8.47674,-15.45238 12.97999,-23.8408 3.35537,8.91821 10.24273,25.95998 27.01957,27.46106 7.59373,0.6181 12.00869,-2.20748 6.97564,-3.09047 m -16.42366,-58.3658 c 0.4415,-0.88299 17.39495,-1.58938 16.60026,4.94476 -1.05959,8.91821 -17.21837,19.51413 -31.25793,23.1344 8.21182,-15.18746 11.03741,-20.92693 14.65767,-28.07916"
         style="font-size:88.29924774px;font-style:normal;font-variant:normal;font-weight:normal;font-stretch:normal;text-align:start;line-height:125%;letter-spacing:0px;word-spacing:0px;writing-mode:lr-tb;text-anchor:start;fill:#000000;fill-opacity:1;stroke:none;font-family:Zar2 casual;-inkscape-font-specification:Zar2 casual"
         id="path11665"
         inkscape:connector-curvature="0" />
      <path
         d="m 216.56552,491.24038 c -28.25573,-12.53848 -55.8051,33.99522 -31.69943,40.44106 23.04608,6.53414 49.09437,-32.22923 31.69943,-40.44106 m -26.84297,36.0261 c -5.82774,-0.3532 -4.41495,-11.39062 2.82558,-20.57373 5.56284,-7.68203 13.50979,-16.42366 18.89604,-13.86298 3.97346,1.94258 1.14788,11.47891 -4.76816,21.10352 -1.05959,1.76598 -2.56068,3.62027 -4.41497,5.65115 -1.85428,1.94258 -3.44367,3.44367 -4.85645,4.41496 -2.82558,1.85429 -5.47456,3.17878 -7.68204,3.26708"
         style="font-size:88.29924774px;font-style:normal;font-variant:normal;font-weight:normal;font-stretch:normal;text-align:start;line-height:125%;letter-spacing:0px;word-spacing:0px;writing-mode:lr-tb;text-anchor:start;fill:#000000;fill-opacity:1;stroke:none;font-family:Zar2 casual;-inkscape-font-specification:Zar2 casual"
         id="path11667"
         inkscape:connector-curvature="0" />
      <path
         d="m 262.28798,493.09467 c -6.71074,-4.94476 -13.95129,-0.97129 -20.66202,5.20965 -0.1766,0.1766 -0.4415,0.3532 -0.6181,0.5298 3.44367,-4.94475 9.80122,-15.98217 11.30231,-19.07264 1.50108,-3.09047 0.61809,-5.20966 -0.1766,-5.91605 -0.88299,-0.70639 -6.35755,-4.15006 -7.85864,-4.59156 -1.50108,-0.4415 -1.58938,0.1766 -1.50108,0.5298 0,0.35319 0,0.52979 0,0.88299 -0.3532,2.64897 -3.00218,9.18313 -6.71075,14.92257 -2.47237,3.79687 -9.18312,15.45238 -11.92039,21.28012 -2.73728,6.00434 -7.59373,19.07264 1.50108,23.8408 6.71074,3.53196 16.24707,1.32448 26.40148,-6.44585 10.1544,-7.68202 18.45453,-25.25359 10.24271,-31.16963 m -16.86516,23.7525 c -5.56284,6.26924 -14.74597,12.45019 -17.13005,10.33101 -3.35537,-3.09047 4.50327,-13.50979 7.85863,-18.27795 3.35537,-4.67985 14.03959,-14.56937 17.83645,-12.80339 4.23836,2.20748 -3.09048,14.56938 -8.56503,20.75033"
         style="font-size:88.29924774px;font-style:normal;font-variant:normal;font-weight:normal;font-stretch:normal;text-align:start;line-height:125%;letter-spacing:0px;word-spacing:0px;writing-mode:lr-tb;text-anchor:start;fill:#000000;fill-opacity:1;stroke:none;font-family:Zar2 casual;-inkscape-font-specification:Zar2 casual"
         id="path11669"
         inkscape:connector-curvature="0" />
      <path
         d="m 304.51569,491.24038 c -28.25573,-12.53848 -55.8051,33.99522 -31.69943,40.44106 23.04608,6.53414 49.09436,-32.22923 31.69943,-40.44106 m -26.84297,36.0261 c -5.82775,-0.3532 -4.41496,-11.39062 2.82558,-20.57373 5.56284,-7.68203 13.50979,-16.42366 18.89603,-13.86298 3.97347,1.94258 1.14789,11.47891 -4.76816,21.10352 -1.05959,1.76598 -2.56068,3.62027 -4.41496,5.65115 -1.85428,1.94258 -3.44367,3.44367 -4.85646,4.41496 -2.82557,1.85429 -5.47455,3.17878 -7.68203,3.26708"
         style="font-size:88.29924774px;font-style:normal;font-variant:normal;font-weight:normal;font-stretch:normal;text-align:start;line-height:125%;letter-spacing:0px;word-spacing:0px;writing-mode:lr-tb;text-anchor:start;fill:#000000;fill-opacity:1;stroke:none;font-family:Zar2 casual;-inkscape-font-specification:Zar2 casual"
         id="path11671"
         inkscape:connector-curvature="0" />
      <path
         d="m 378.31731,478.87849 c 1.41278,-15.89385 -43.97303,-12.71509 -47.2401,-10.24271 -0.70639,0.52979 3.17877,3.26707 2.73728,3.97346 -4.50326,7.24053 -11.30231,17.48326 -17.13006,28.16746 -3.62026,6.71074 -6.44585,12.3619 -8.47673,17.48325 -2.47237,7.06394 1.94259,10.86081 4.15007,12.6268 2.64897,1.94258 3.35537,0.97129 3.97346,-0.1766 1.76599,-3.53197 6.26926,-11.83211 10.77251,-20.22053 20.13221,-1.14789 49.71248,-14.74599 51.21357,-31.61113 m -30.99304,-5.56285 c 0.4415,-0.883 16.95345,-0.88299 16.07046,6.44584 -1.05959,8.91822 -19.24925,21.89822 -33.28881,25.51848 8.21182,-15.18745 13.59808,-24.81209 17.21835,-31.96432"
         style="font-size:88.29924774px;font-style:normal;font-variant:normal;font-weight:normal;font-stretch:normal;text-align:start;line-height:125%;letter-spacing:0px;word-spacing:0px;writing-mode:lr-tb;text-anchor:start;fill:#000000;fill-opacity:1;stroke:none;font-family:Zar2 casual;-inkscape-font-specification:Zar2 casual"
         id="path11673"
         inkscape:connector-curvature="0" />
      <path
         d="m 401.89444,501.3065 c -0.44149,-1.05959 -2.29578,-3.17878 -4.76816,-4.41496 1.32449,-2.03089 0.883,-4.32667 -0.70639,-5.91605 -2.64897,-2.64898 -13.6864,-3.53196 -27.99086,8.30012 -11.30229,9.44802 -19.69073,23.75251 -14.74598,30.19835 6.71074,8.38842 22.60462,-6.35755 26.40148,-10.06612 -1.58938,5.12135 -1.32449,9.44803 2.47238,12.097 3.26707,2.38408 5.20965,2.29578 5.03306,0.3532 -0.1766,-1.85428 1.05959,-5.56286 2.11918,-7.41714 1.50108,-2.73727 7.77034,-15.18747 11.4789,-19.95563 0.88299,-1.14789 1.23619,-2.11918 0.70639,-3.17877 m -10.7725,-5.56285 c 1.85428,1.50108 0.70639,3.79686 0.17659,4.67986 -0.52979,0.97129 -5.47455,6.97564 -8.65332,10.50761 -4.15006,4.59155 -13.50979,12.62679 -15.80557,10.8608 -2.20748,-1.85428 -0.52978,-7.32884 7.32884,-17.21835 7.85863,-9.88951 14.21618,-11.1257 16.95346,-8.82992"
         style="font-size:88.29924774px;font-style:normal;font-variant:normal;font-weight:normal;font-stretch:normal;text-align:start;line-height:125%;letter-spacing:0px;word-spacing:0px;writing-mode:lr-tb;text-anchor:start;fill:#000000;fill-opacity:1;stroke:none;font-family:Zar2 casual;-inkscape-font-specification:Zar2 casual"
         id="path11675"
         inkscape:connector-curvature="0" />
      <path
         d="m 400.95355,531.41654 c -2.64898,-1.76598 -3.62027,-7.06394 -1.94258,-11.7438 1.76598,-4.85645 12.09699,-24.81209 12.89169,-28.78555 0,-0.4415 0,-0.6181 0,-0.9713 -0.0883,-0.26489 0,-0.97129 1.67768,-0.44149 1.58939,0.52979 6.44585,2.82558 7.32884,4.15006 0.61809,0.97129 2.20748,2.20749 0,6.00435 -4.94475,9.09482 -11.7438,21.63333 -14.39278,30.46324 -0.97129,3.17877 -0.883,4.41496 -5.56285,1.32449 m 29.13875,-58.9839 c -3.70856,-0.97129 -7.06394,1.3245 -8.47673,4.06177 -1.41278,2.73727 -2.73727,8.03523 0.0883,9.18312 2.64898,1.23619 7.85864,-2.47238 8.74163,-4.67986 0.88299,-1.85428 3.62026,-7.24054 -0.3532,-8.56503"
         style="font-size:88.29924774px;font-style:normal;font-variant:normal;font-weight:normal;font-stretch:normal;text-align:start;line-height:125%;letter-spacing:0px;word-spacing:0px;writing-mode:lr-tb;text-anchor:start;fill:#000000;fill-opacity:1;stroke:none;font-family:Zar2 casual;-inkscape-font-specification:Zar2 casual"
         id="path11677"
         inkscape:connector-curvature="0" />
      <path
         d="m 430.32561,488.50311 c 0,0.26489 0,0.52979 0,0.88299 -1.14789,6.09264 -14.21618,30.63984 -14.92258,36.55589 0,3.79686 2.38409,7.68203 3.44368,7.94693 1.23618,0.5298 2.03088,0 2.56067,-1.41279 1.85429,-4.41496 10.41932,-17.13006 12.97999,-20.75032 3.97347,-5.56285 16.15877,-15.89386 18.18965,-15.09917 2.03088,0.52979 -0.9713,4.23836 -2.47238,6.62244 -4.23836,7.32883 -11.74379,21.89822 -3.62027,27.63767 4.06176,2.91387 5.29795,2.47237 5.20966,0.0883 -0.0883,-1.23618 0.26489,-3.00217 0.97129,-5.56285 2.11918,-7.06393 10.94911,-20.04393 12.62679,-25.07698 1.14789,-3.26707 0.61809,-6.53415 -3.17877,-8.56503 -9.27141,-5.12135 -24.2823,10.94911 -24.54719,10.94911 -0.3532,0.26489 4.59156,-9.27143 2.73727,-10.77251 -0.79469,-0.4415 -7.06394,-3.44367 -8.47672,-3.97347 -1.50109,-0.3532 -1.50109,0.2649 -1.50109,0.5298"
         style="font-size:88.29924774px;font-style:normal;font-variant:normal;font-weight:normal;font-stretch:normal;text-align:start;line-height:125%;letter-spacing:0px;word-spacing:0px;writing-mode:lr-tb;text-anchor:start;fill:#000000;fill-opacity:1;stroke:none;font-family:Zar2 casual;-inkscape-font-specification:Zar2 casual"
         id="path11679"
         inkscape:connector-curvature="0" />
      <path
         d="m 503.82098,488.06161 c -1.67769,-1.67768 -3.44368,-1.76598 -9.53632,-1.67769 1.32449,-2.20747 4.76816,-7.85863 3.26707,-10.15441 -1.14789,-1.76598 -6.09265,-6.26925 -6.71074,-6.79904 -0.70639,-0.2649 -1.23619,-0.4415 -1.23619,0.3532 0,0.79469 -0.0883,1.14789 -0.3532,2.03088 -0.52979,1.76598 -4.50326,8.03524 -9.00652,15.45237 -4.94475,0.0883 -14.48107,0.4415 -11.6555,2.29578 3.35537,1.85428 4.76816,1.32449 9.62462,1.67768 -5.56285,8.65332 -21.28011,33.81862 -10.77251,40.08786 4.85645,2.91387 3.97347,0.61809 4.76816,-2.29578 3.09047,-11.21399 12.097,-25.87169 19.95563,-38.85167 0,0 10.41931,-0.52979 12.18529,-0.52979 0.4415,0.1766 -0.0883,-0.9713 -0.52979,-1.58939"
         style="font-size:88.29924774px;font-style:normal;font-variant:normal;font-weight:normal;font-stretch:normal;text-align:start;line-height:125%;letter-spacing:0px;word-spacing:0px;writing-mode:lr-tb;text-anchor:start;fill:#000000;fill-opacity:1;stroke:none;font-family:Zar2 casual;-inkscape-font-specification:Zar2 casual"
         id="path11681"
         inkscape:connector-curvature="0" />
    </g>
  </g>
</svg>
