<?xml version="1.0" encoding="utf-8"?>
<!-- Generator: Adobe Illustrator 18.0.0, SVG Export Plug-In . SVG Version: 6.00 Build 0)  -->
<!DOCTYPE svg PUBLIC "-//W3C//DTD SVG 1.1//EN" "http://www.w3.org/Graphics/SVG/1.1/DTD/svg11.dtd">
<svg version="1.1" id="Layer_1" xmlns="http://www.w3.org/2000/svg" xmlns:xlink="http://www.w3.org/1999/xlink" x="0px" y="0px"
	 viewBox="0 0 300 300" enable-background="new 0 0 300 300" xml:space="preserve">
<rect x="8.8" y="7.1" fill="none" stroke="#4254A4" stroke-width="4" stroke-miterlimit="10" width="32.3" height="214.1"/>
<path fill="none" stroke="#000000" stroke-width="4" stroke-miterlimit="10" d="M98.5,200c0,0,11-84-89.7-157
	C133.4,56.8,181,187.1,181,187.1"/>
<circle fill="#21B24B" cx="181" cy="200" r="61.4"/>
<circle fill="#DC1F26" stroke="#000000" stroke-width="3" stroke-miterlimit="10" cx="98.5" cy="220.1" r="61.4"/>
<path fill="#549CD5" fill-opacity="0.5" stroke="#4254A4" stroke-width="3" stroke-miterlimit="10" d="M263.4,230.1v13.6
	c0,27.1-31.8,49.2-70.8,49.2H84.1c-38.9,0-70.8-22.1-70.8-49.2v-13.6"/>
<polygon fill="none" stroke="#9A3C96" stroke-width="3" stroke-miterlimit="10" points="260,130.5 222.1,108.5 182.5,127.2 
	191.7,84.4 161.6,52.5 205.3,48 226.3,9.5 244,49.6 287.1,57.8 254.4,87 "/>
<rect x="22" y="70" fill="#4254A4" width="260.5" height="34.5"/>
</svg>
