<?xml version="1.0" encoding="utf-8"?>
<!-- Generator: Adobe Illustrator 18.0.0, SVG Export Plug-In . SVG Version: 6.00 Build 0)  -->
<!DOCTYPE svg PUBLIC "-//W3C//DTD SVG 1.1//EN" "http://www.w3.org/Graphics/SVG/1.1/DTD/svg11.dtd">
<svg version="1.1" id="Layer_1" xmlns="http://www.w3.org/2000/svg" xmlns:xlink="http://www.w3.org/1999/xlink" x="0px" y="0px"
	 viewBox="0 0 256 256" enable-background="new 0 0 256 256" xml:space="preserve">
<g>
	<g>
		<path fill="#35C4EE" d="M253.2,48c0,0-44.9,12-55.3,60.1c-8.4,39.2,7.4,68.5-18.4,90.7c0,0,45.4-15.3,40.6-76.6
			C220.1,122.2,214.5,86.2,253.2,48z"/>
		<path fill="#333333" d="M152.2,85.7l-4.6-2.3c-2-1-4.3-0.7-5,0.8l-5.8,11.2l-17.5,8c-2.1,0.9-3,3.4-2,5.5l2.1,4.7
			c0.9,2.1,3.4,3,5.5,2l20.4-9.3c0.2-0.1,0.4-0.2,0.6-0.4c0.5-0.2,0.8-0.6,1.1-1l7.5-14.6C155.2,88.8,154.2,86.8,152.2,85.7z"/>
		<path fill="#F8DB01" d="M166.9,156.7c0.5,1-0.3,2.3-1.6,3l-10.7,5.2c-1.4,0.7-2.9,0.4-3.3-0.6L108,75.6c-0.5-1,0.3-2.3,1.6-3
			l10.7-5.2c1.4-0.7,2.9-0.4,3.3,0.6L166.9,156.7z"/>
		<path fill="#333333" d="M128.3,115.7l-10.6-5.9l1.4-0.3c2.2-0.5,3.6-2.7,3.2-4.9l-4.1-18.9l5.7-11.2c0.8-1.5-0.3-3.5-2.3-4.6
			l-4.6-2.3c-2-1-4.3-0.7-5,0.8l-7.5,14.6c-0.3,0.5-0.3,1.2-0.2,1.8c0,0.2,0,0.5,0.1,0.7l4.1,19.2l-1-0.6c-0.9-0.5-1.9-0.4-2.3,0.1
			l-27.8,49.9L45.8,83c1.7-2.9,2.7-6.3,3-9.9c0.9-12.9-8.8-24.1-21.7-25C14.2,47.2,3,56.9,2.1,69.7C1.2,81.6,9.3,92,20.6,94.4
			l33.9,76.3c-1.2,2.8-1.8,5.8-1.8,9c0,12.9,10.5,23.4,23.4,23.4c12.9,0,23.4-10.5,23.4-23.4c0-2.4-0.4-4.6-1-6.8l30.7-55.1
			C129.7,117.1,129.2,116.2,128.3,115.7z M38.4,72.4c0,0.3-0.1,0.6-0.1,0.9c-1,6.7-7,11.7-13.8,11.2c-2.4-0.2-4.5-1-6.4-2.2
			c-3.7-2.5-6.1-6.9-5.7-11.7c0.5-7.2,6.8-12.6,13.9-12C33.6,59,39,65.2,38.4,72.4z M76.2,192.7c-7,0-12.8-5.6-13-12.6
			c0-0.2,0-0.3,0-0.5c0-5,2.8-9.3,6.9-11.5c1.8-1,3.9-1.5,6.2-1.5c3,0,5.7,1,7.9,2.7c3.1,2.3,5.1,6,5.2,10.2c0,0.1,0,0.1,0,0.2
			C89.2,186.8,83.4,192.7,76.2,192.7z"/>
		<path fill="#333333" d="M186.3,174c-2.4-10.5-15.9-10.7-15.9-10.7l-15.5,7.7c-4.5,17.7,8.7,26.9,8.7,26.9
			c28.7,19.4,42.4-19.6,42.4-19.6C202.5,179.6,188.7,184.4,186.3,174z"/>
	</g>
	<path fill="#FFFFFF" d="M175.5,181.2c0,0-2.6-7.1-9-7.3l4.7-2.5c0,0,6.7,1.3,9.3,8.9c0,0,3.1,7.6,10.5,6.4
		C190.9,186.7,181.3,192.8,175.5,181.2z"/>
</g>
</svg>
