<?xml version="1.0" encoding="UTF-8" standalone="no"?>
<!-- Created with Inkscape (http://www.inkscape.org/) -->

<svg
   xmlns:dc="http://purl.org/dc/elements/1.1/"
   xmlns:cc="http://creativecommons.org/ns#"
   xmlns:rdf="http://www.w3.org/1999/02/22-rdf-syntax-ns#"
   xmlns:svg="http://www.w3.org/2000/svg"
   xmlns="http://www.w3.org/2000/svg"
   version="1.1"
   width="464.10001"
   height="43.360001"
   id="svg3035">
  <defs
     id="defs3037" />
  <metadata
     id="metadata3040">
    <rdf:RDF>
      <cc:Work
         rdf:about="">
        <dc:format>image/svg+xml</dc:format>
        <dc:type
           rdf:resource="http://purl.org/dc/dcmitype/StillImage" />
        <dc:title></dc:title>
      </cc:Work>
    </rdf:RDF>
  </metadata>
  <g
     transform="matrix(0.85521851,0,0,0.73015958,-9.21485,-271.01085)"
     id="layer1-9">
    <g
       transform="translate(-91.440151,-32.422114)"
       id="text4743"
       style="font-size:61.01567078px;font-style:normal;font-variant:normal;font-weight:normal;font-stretch:normal;text-align:start;line-height:125%;letter-spacing:0px;word-spacing:0px;writing-mode:lr-tb;text-anchor:start;fill:#000000;fill-opacity:1;stroke:none;display:inline;font-family:Zar2 casual;-inkscape-font-specification:Zar2 casual">
      <path
         d="m 233.58214,408.87929 c -3.78297,-6.28461 -2.13556,-3.90499 -6.04056,4.88126 -5.43038,12.38616 -16.29118,29.04346 -21.23345,34.83994 0.24406,-4.14906 2.62368,-13.91158 5.30836,-25.62658 0.67118,-2.92875 1.1593,-5.0643 0.061,-5.55242 -3.05078,-1.58641 -5.85751,-1.9525 -6.83375,-1.83047 -1.03727,0.12203 -2.80673,4.45414 -3.78298,6.58969 -4.27109,9.27437 -11.77603,22.27072 -16.3522,27.6401 -0.73218,-5.18633 5.91852,-22.69784 6.16259,-32.33831 0.12203,-3.84398 -4.21009,-6.04055 -9.64048,-5.61344 2.31859,-0.18305 -6.95578,37.03652 -5.0643,44.54144 0.73219,2.50164 4.02704,5.24734 6.71172,2.13555 4.57617,-4.94227 9.51846,-13.42346 17.26744,-25.93166 -1.70844,8.84726 -3.96602,21.29447 -3.05079,24.89439 0.67118,2.50164 3.90501,5.24735 6.65071,2.13555 5.61344,-6.10156 12.50823,-16.10815 23.36901,-34.16878 5.06429,-8.35913 7.56594,-14.8268 6.46766,-16.59626"
         id="path83235" />
      <path
         d="m 251.78292,437.80072 c -0.30508,-0.73219 -1.58641,-2.19656 -3.29485,-3.05078 0.91524,-1.40336 0.61016,-2.98977 -0.48812,-4.08805 -1.83047,-1.83047 -9.45744,-2.44062 -19.34197,5.73547 -7.81,6.52867 -13.60649,16.41322 -10.18962,20.86736 4.63719,5.79648 15.62002,-4.39313 18.24369,-6.95579 -1.09828,3.53891 -0.91523,6.52868 1.70844,8.35915 2.25757,1.64742 3.59992,1.58641 3.47789,0.24406 -0.12203,-1.28133 0.73219,-3.84399 1.46438,-5.12531 1.03726,-1.89149 5.36938,-10.4947 7.93203,-13.78955 0.61016,-0.7932 0.85422,-1.46437 0.48813,-2.19656 m -7.44391,-3.84399 c 1.28132,1.03727 0.48812,2.62368 0.12203,3.23383 -0.3661,0.67118 -3.78298,4.82024 -5.97954,7.26087 -2.86773,3.17281 -9.3354,8.72524 -10.9218,7.50493 -1.52539,-1.28133 -0.36609,-5.06431 5.0643,-11.89806 5.43039,-6.83375 9.82352,-7.68797 11.71501,-6.10157"
         id="path83237" />
      <path
         d="m 278.6832,428.64837 c -1.15929,-1.1593 -2.37961,-1.22031 -6.58969,-1.1593 0.91524,-1.52539 3.29485,-5.43039 2.25758,-7.0168 -0.7932,-1.22031 -4.21008,-4.33211 -4.63719,-4.69821 -0.48812,-0.18304 -0.85422,-0.30507 -0.85422,0.24407 0,0.54914 -0.061,0.7932 -0.24406,1.40336 -0.3661,1.22031 -3.1118,5.55243 -6.2236,10.67774 -3.41687,0.061 -10.00657,0.30508 -8.05407,1.58641 2.31859,1.28132 3.29485,0.91523 6.65071,1.15929 -3.84398,5.97953 -14.70477,23.36901 -7.44391,27.70112 3.35586,2.01351 2.7457,0.42711 3.29484,-1.58641 2.13555,-7.74898 8.35916,-17.8776 13.78955,-26.84689 0,0 7.19985,-0.3661 8.42016,-0.3661 0.30508,0.12203 -0.061,-0.67117 -0.3661,-1.09828"
         id="path83239" />
      <path
         d="m 278.9368,446.83104 c 8.72524,1.83047 23.24696,-12.38619 14.70478,-16.53525 -5.24734,-2.56265 -11.04384,-1.5864 -17.99962,4.33212 -6.58969,5.61343 -12.26415,19.464 -5.4304,23.30798 4.94227,2.80672 13.36244,0.54914 17.87759,-3.96602 2.13555,-2.13554 0.73219,-3.5389 -1.34234,-1.46437 -0.54914,0.54914 -6.04056,4.51515 -10.00657,1.70844 -2.13555,-1.46438 -1.46438,-5.06431 -0.12203,-8.48118 0.54914,0.48812 1.34234,0.91523 2.31859,1.09828 m 11.83704,-15.13189 c 1.03727,0.30508 0.42711,3.05079 -2.01351,6.10157 -2.98977,3.72195 -7.87103,7.19985 -10.86079,6.46766 -0.24407,-0.061 -0.42711,-0.061 -0.61016,-0.12203 1.09828,-2.25758 2.37961,-4.2711 3.17281,-5.30836 3.41688,-4.2711 7.13884,-8.1761 10.31165,-7.13884"
         id="path83241" />
      <path
         d="m 301.19989,429.68564 c 0.061,0.54914 0.30508,2.56266 -0.42711,4.57617 -0.12203,0.3661 -0.36609,0.97625 -0.7932,1.83047 l -3.35586,7.74899 -2.92876,6.83376 c -0.73218,1.64742 -1.83046,5.61344 0.3661,7.07781 2.25758,1.40336 3.17281,1.64743 3.53891,1.76946 0.36609,0.12203 0.54914,-0.061 0.67117,-0.36609 0.12203,-0.42711 3.84399,-8.9083 7.93204,-15.37595 3.905,-6.2236 6.46766,-7.32188 7.68797,-7.93204 1.09828,-0.54914 2.25758,0.18305 1.9525,1.64742 -0.12203,0.97625 0.48813,1.34235 1.52539,0.85422 3.84399,-1.9525 4.69821,-9.21336 0.48813,-8.84727 -3.96601,0.12203 -7.93204,6.34563 -8.9693,7.56594 0.48812,-2.31859 1.70843,-4.82024 -0.42711,-6.04055 -1.89149,-1.1593 -5.49141,-2.19656 -6.28462,-2.07453 -0.7932,0.061 -0.97625,0.30508 -0.97625,0.73219"
         id="path83243" />
      <path
         d="m 357.85423,412.4182 c -7.56594,-0.24406 -23.67409,3.78299 -33.92472,21.84361 -10.12859,17.87758 -1.58639,26.78588 7.68798,27.09096 13.85054,0.42711 20.13517,-8.72525 22.75884,-13.17939 1.64743,-3.23382 -0.36609,-2.44062 -1.03726,-1.70843 -4.33211,4.82023 -10.61674,9.33539 -16.29119,8.90828 -6.77273,-0.48812 -7.38289,-8.35915 -3.35586,-18.12165 5.00328,-11.89804 17.0844,-22.94189 23.91814,-21.7826 4.57617,0.79321 2.62368,7.13884 -0.18304,9.03032 1.40336,0 5.55243,1.1593 8.05407,-1.89148 1.40335,-1.58641 4.27108,-9.94556 -7.62696,-10.18962"
         id="path83245" />
      <path
         d="m 385.41615,430.84493 c -19.52499,-8.66421 -38.56189,23.49104 -21.90463,27.94518 15.92508,4.51516 33.92471,-22.27072 21.90463,-27.94518 m -18.54876,24.8944 c -4.02703,-0.24406 -3.05078,-7.87103 1.9525,-14.21665 3.84398,-5.30836 9.3354,-11.34892 13.05735,-9.57946 2.7457,1.34234 0.7932,7.93204 -3.29484,14.58274 -0.73219,1.22031 -1.76946,2.50165 -3.05079,3.905 -1.28133,1.34235 -2.37961,2.37962 -3.35586,3.05079 -1.9525,1.28133 -3.78297,2.19656 -5.30836,2.25758"
         id="path83247" />
      <path
         d="m 405.99273,412.47922 c -0.42711,2.92875 -10.43369,19.34197 -13.36244,27.45705 -4.27109,10.31164 -6.89476,15.74205 -1.34234,19.58603 1.70844,1.1593 2.13555,-0.61016 2.62367,-2.86774 1.34235,-5.73546 16.41322,-34.41284 18.73181,-39.3551 0.67118,-1.89149 -0.61015,-2.92876 -1.15929,-3.78298 -0.73219,-1.03726 -3.90501,-2.56266 -4.2711,-2.92875 -0.48813,-0.24406 -0.91524,-0.24406 -1.03727,0.42711 0.12203,0.48813 0.061,0.73219 -0.18304,1.46438"
         id="path83249" />
      <path
         d="m 429.62868,430.84493 c -19.525,-8.66421 -38.56189,23.49104 -21.90463,27.94518 15.92507,4.51516 33.9247,-22.27072 21.90463,-27.94518 m -18.54877,24.8944 c -4.02703,-0.24406 -3.05078,-7.87103 1.9525,-14.21665 3.84399,-5.30836 9.3354,-11.34892 13.05736,-9.57946 2.7457,1.34234 0.7932,7.93204 -3.29485,14.58274 -0.73219,1.22031 -1.76946,2.50165 -3.05078,3.905 -1.28133,1.34235 -2.37962,2.37962 -3.35587,3.05079 -1.95249,1.28133 -3.78297,2.19656 -5.30836,2.25758"
         id="path83251" />
      <path
         d="m 440.29498,429.68564 c 0.061,0.54914 0.30508,2.56266 -0.42711,4.57617 -0.12203,0.3661 -0.36609,0.97625 -0.7932,1.83047 l -3.35586,7.74899 -2.92875,6.83376 c -0.73219,1.64742 -1.83047,5.61344 0.36609,7.07781 2.25758,1.40336 3.17282,1.64743 3.53891,1.76946 0.36609,0.12203 0.54914,-0.061 0.67117,-0.36609 0.12203,-0.42711 3.84399,-8.9083 7.93204,-15.37595 3.905,-6.2236 6.46766,-7.32188 7.68797,-7.93204 1.09828,-0.54914 2.25758,0.18305 1.95251,1.64742 -0.12204,0.97625 0.48812,1.34235 1.52539,0.85422 3.84398,-1.9525 4.6982,-9.21336 0.48812,-8.84727 -3.96601,0.12203 -7.93204,6.34563 -8.9693,7.56594 0.48812,-2.31859 1.70844,-4.82024 -0.42711,-6.04055 -1.89148,-1.1593 -5.49141,-2.19656 -6.28461,-2.07453 -0.79321,0.061 -0.97626,0.30508 -0.97626,0.73219"
         id="path83253" />
      <path
         d="m 480.8472,412.96734 c -3.96601,0.18305 -7.62695,0.12203 -8.42016,1.28133 -0.30508,0.42711 2.44063,2.3186 2.13555,2.80672 -5.4914,9.51844 -18.42673,27.39605 -19.34197,35.45011 -0.36609,3.29484 2.50165,5.49141 5.91852,7.19985 3.53891,1.76945 13.9726,1.64742 22.39275,-1.58641 8.48117,-3.29484 11.95908,-7.99306 11.83704,-11.34892 -0.12203,-3.41687 -4.51516,-8.60321 -9.7625,-9.09133 7.07781,-1.58641 19.95212,-7.07783 19.76907,-14.70478 -0.18304,-6.83375 -9.27439,-10.73875 -24.5283,-10.00657 m -17.1454,43.50418 c -1.5864,-0.061 -1.70844,-0.61016 -1.58641,-0.79321 0.54914,-1.09828 4.69822,-8.78626 9.21337,-16.90134 0.12203,0.24406 0.36609,0.30508 0.42711,0.42711 0.061,0.30508 0.36609,0.48813 1.09828,0.42711 0.67117,0 10.98282,1.34235 11.53196,5.61344 0.67118,5.24734 -11.89806,11.83704 -20.68431,11.22689 m 31.66713,-34.59589 c -0.54914,6.22359 -11.59298,12.32517 -22.69783,15.25392 -0.18304,0.061 -0.36609,0.12203 -0.54914,0.18305 5.30836,-9.51844 10.86079,-19.21994 11.22689,-19.28096 7.99304,-0.91523 12.26415,0.91524 12.02008,3.84399"
         id="path83255" />
      <path
         d="m 525.21513,430.84493 c -19.52499,-8.66421 -38.56189,23.49104 -21.90462,27.94518 15.92507,4.51516 33.9247,-22.27072 21.90462,-27.94518 m -18.54876,24.8944 c -4.02703,-0.24406 -3.05078,-7.87103 1.9525,-14.21665 3.84398,-5.30836 9.3354,-11.34892 13.05735,-9.57946 2.74571,1.34234 0.7932,7.93204 -3.29484,14.58274 -0.73219,1.22031 -1.76946,2.50165 -3.05079,3.905 -1.28132,1.34235 -2.37961,2.37962 -3.35586,3.05079 -1.9525,1.28133 -3.78297,2.19656 -5.30836,2.25758"
         id="path83257" />
      <path
         d="m 556.50474,428.64837 c -1.1593,-1.1593 -2.37962,-1.22031 -6.5897,-1.1593 0.91524,-1.52539 3.29485,-5.43039 2.25758,-7.0168 -0.7932,-1.22031 -4.21008,-4.33211 -4.63719,-4.69821 -0.48812,-0.18304 -0.85422,-0.30507 -0.85422,0.24407 0,0.54914 -0.061,0.7932 -0.24406,1.40336 -0.36609,1.22031 -3.1118,5.55243 -6.2236,10.67774 -3.41687,0.061 -10.00656,0.30508 -8.05407,1.58641 2.3186,1.28132 3.29485,0.91523 6.65071,1.15929 -3.84398,5.97953 -14.70477,23.36901 -7.44391,27.70112 3.35586,2.01351 2.74571,0.42711 3.29485,-1.58641 2.13554,-7.74898 8.35915,-17.8776 13.78954,-26.84689 0,0 7.19985,-0.3661 8.42016,-0.3661 0.30508,0.12203 -0.061,-0.67117 -0.36609,-1.09828"
         id="path83259" />
      <path
         d="m 565.63229,411.93008 c -2.92875,7.19984 -7.26087,16.84033 -10.61673,27.45705 -0.91523,3.17281 -1.40336,7.13883 0.61016,8.72524 1.15929,0.91523 1.70844,-0.42711 2.19656,-1.58641 4.57617,-9.94554 13.05735,-24.40627 13.66751,-25.44353 1.34234,-2.25758 1.40336,-4.21009 0.91524,-4.88126 -1.22032,-1.70843 -5.24735,-3.96602 -6.77274,-4.27109 m -14.21665,47.40917 c -5.0643,-1.22031 -3.59992,-10.18961 2.62367,-8.42016 6.10156,1.89148 2.50164,9.45743 -2.62367,8.42016"
         id="path83261" />
    </g>
  </g>
</svg>
