<svg width="10.999462in" height="7.998003in" xmlns="http://www.w3.org/2000/svg">
 <!-- Created with Method Draw - http://github.com/duopixel/Method-Draw/ -->
 <g>
  <title>Layer 1</title>
  <ellipse ry="322.039" rx="322.039" id="svg_1" cy="384" cx="528" stroke-width="15" stroke="#000" fill="rgba(0, 0, 0, 0)"/>
  <line stroke-linecap="undefined" stroke-linejoin="undefined" id="svg_2" y2="367.05058" x2="369.522997" y1="233.150235" x1="367.828056" stroke-width="15" stroke="#000" fill="none"/>
  <line stroke-linecap="undefined" stroke-linejoin="undefined" id="svg_3" y2="372.135403" x2="652.578156" y1="245.014822" x1="649.188274" stroke-width="15" stroke="#000" fill="none"/>
  <path id="svg_4" d="m377.997711,492.476227c-5.084839,0 288.139984,-3.389862 288.114166,-0.943298c0.045776,0.943298 44.094299,148.403107 -106.755493,148.403168c-150.849762,0.000061 -176.273865,-147.459869 -181.358673,-147.459869z" stroke-width="15" stroke="#000" fill="rgba(0, 0, 0, 0)"/>
  <line stroke-linecap="null" stroke-linejoin="null" id="svg_5" y2="560.273862" x2="671.222508" y1="622.986681" x1="479.694167" fill-opacity="null" stroke-opacity="null" stroke-width="15" stroke="#000" fill="none"/>
 </g>
</svg>="svg_8"/>
  <path fill="#ffffff" stroke="#000000" stroke-width="15" stroke-linejoin="null" stroke-linecap="null" d="m684.779602,412.813995c0,-23.410431 18.583191,-42.372894 41.525391,-42.372894c22.9422,0 41.525391,18.962463 41.525391,42.372894c0,23.410461 -18.583191,42.372894 -41.525391,42.372894c-22.9422,0 -41.525391,-18.962433 -41.525391,-42.372894z" id="svg_9"/>
  <path fill="#ff0000" stroke="#000000" stroke-width="15" stroke-opacity="null" d="m624.996399,489.710754l-83.896912,116.949158l-83.899719,-116.949158l167.796631,0z" id="svg_10"/>
  <line fill="none" stroke-width="15" stroke-opacity="null" x1="535.627" y1="699.254" x2="539.377" y2="599.254" id="svg_16" stroke-linejoin="null" stroke-linecap="null" stroke="#000000"/>
  <line fill="none" stroke="#000000" stroke-width="15" stroke-opacity="null" x1="696.64409" y1="570.44069" x2="942.40681" y2="460.27119" id="svg_18" stroke-linejoin="null" stroke-linecap="null"/>
  <line fill="none" stroke="#000000" stroke-width="15" stroke-opacity="null" x1="708.508" y1="617.898" x2="994.949" y2="616.203" id="svg_19" stroke-linejoin="null" stroke-linecap="null"/>
  <line fill="none" stroke="#000000" stroke-width="15" stroke-opacity="null" x1="698.339" y1="670.44069" x2="974.6102" y2="702.64408" id="svg_20" stroke-linejoin="null" stroke-linecap="null"/>
  <line fill="none" stroke="#000000" stroke-width="15" stroke-opacity="null" x1="364.44068" y1="524.67797" x2="101.72881" y2="445.01695" id="svg_21" stroke-linejoin="null" stroke-linecap="null"/>
  <line fill="none" stroke="#000000" stroke-width="15" stroke-opacity="null" x1="333.932" y1="575.526" x2="44.1017" y2="589.085" id="svg_22" stroke-linejoin="null" stroke-linecap="null"/>
  <line fill="none" stroke="#000000" stroke-width="15" stroke-opacity="null" x1="311.898" y1="633.153" x2="81.3898" y2="682.305" id="svg_23" stroke-linejoin="null" stroke-linecap="null"/>
  <path fill="rgba(0, 0, 0, 0)" stroke="#000000" stroke-width="15" d="m664.440735,694.169495c-69.491516,30.508484 -120.33905,22.033875 -128.813599,-6.779663" id="svg_24"/>
  <path fill="rgba(0, 0, 0, 0)" stroke="#000000" stroke-width="15" d="m544.101746,689.084717c-69.491547,30.508484 -120.33905,22.033875 -128.813629,-6.779663" id="svg_25"/>
 </g>
</svg>