<svg width="1150.007265745905" height="835.4219448625144" xmlns="http://www.w3.org/2000/svg">
 <g>
  <path fill="#ffffff" stroke-width="15" d="m153.41965,270.26394c60.38705,479.66997 -55.94988,559.54381 -53.98039,559.54381c1.96953,0 935.51822,-16.84054 935.47868,-1.17886c0.1722,1.17886 -120.04947,-218.06127 31.93027,-806.51824c5.58052,-16.50556 -171.7834,145.51235 -191.46064,172.88548c0.3856,2.10512 -525.68451,-23.48941 -573.12795,0l-225.55104,-189.80032l76.71108,265.06809l0,0.00003l-0.00001,0l0,0.00001z" id="svg_17" stroke="#000000"/>
  <path d="m342.73047,324.81657c0,-47.89632 38.02067,-86.69012 84.95542,-86.69012c46.93606,0 82.15517,38.7938 82.15517,86.69012c0,47.8936 -35.21911,85.3201 -82.15517,85.3201c-46.93475,0 -84.95542,-37.4265 -84.95542,-85.3201z" stroke-width="15" fill="none" id="svg_9_2_" stroke="#000000"/>
  <path d="m384.59761,330.96188c0,-23.3683 18.55069,-42.29603 41.45051,-42.29603c22.90115,0 40.08459,18.92773 40.08459,42.29603c0,23.36702 -17.18344,42.29467 -40.08459,42.29467c-22.89983,0 -41.45051,-18.92765 -41.45051,-42.29467z" stroke-width="15" fill="#000000" id="svg_9" stroke="#000000"/>
  <path d="m671.44287,335.05966c0,-23.3683 17.18479,-43.66193 40.08462,-43.66193c22.90121,0 41.45059,18.92769 41.45059,42.29599c0,23.36702 -18.54938,42.29467 -41.45059,42.29467c-22.89983,0 -40.08462,-17.56172 -40.08462,-40.9287l0,-0.00003z" stroke-width="15" fill="#000000" id="svg_9_1_" stroke="#000000"/>
  <path d="m665.04079,529.28534l-83.74377,116.73643l-83.74656,-116.73643l167.49033,0z" stroke-width="15" fill="#000000" id="svg_10" stroke="#000000"/>
  <path fill="none" fill-opacity="null" stroke-width="15" stroke-linejoin="null" stroke-linecap="null" stroke-opacity="null" opacity="null" d="m575.83466,738.44605l3.74263,-99.81666" id="svg_16" stroke="#000000"/>
  <path fill="none" fill-opacity="null" stroke-width="15" stroke-linejoin="null" stroke-linecap="null" opacity="null" d="m775.45271,568.89047l245.31559,-109.96689" id="svg_18" stroke="#000000"/>
  <path fill="none" fill-opacity="null" stroke-width="15" stroke-linejoin="null" stroke-linecap="null" opacity="null" d="m787.29399,616.26225l285.91915,-1.69227" id="svg_19" stroke="#000000"/>
  <path fill="none" fill-opacity="null" stroke-width="15" stroke-linejoin="null" stroke-linecap="null" opacity="null" d="m779.22704,668.70722l275.76763,32.14714" id="svg_20" stroke="#000000"/>
  <path fill="none" fill-opacity="null" stroke-width="15" stroke-linejoin="null" stroke-linecap="null" opacity="null" d="m376.27502,553.26156l-262.23126,-79.51622" id="svg_21" stroke="#000000"/>
  <path fill="none" fill-opacity="null" stroke-width="15" stroke-linejoin="null" stroke-linecap="null" opacity="null" d="m374.50749,614.94415l-289.30126,13.53505" id="svg_22" stroke="#000000"/>
  <path fill="none" fill-opacity="null" stroke-width="15" stroke-linejoin="null" stroke-linecap="null" opacity="null" d="m352.51332,672.46623l-230.08684,49.06276" id="svg_23" stroke="#000000"/>
  <path d="m704.41367,733.37164c-69.36461,30.45206 -120.1199,21.99418 -128.57903,-6.76818" stroke-width="15" fill="#FFFFFF" id="svg_24" stroke="#000000"/>
  <path d="m584.29252,728.29585c-69.36332,30.45204 -120.11853,21.99425 -128.57766,-6.76687" stroke-width="15" fill="#FFFFFF" id="svg_25" stroke="#000000"/>
  <path id="svg_3" d="m342.51745,313.30723c0,0 -72.39439,61.46689 -5.46371,120.20186s109.27436,77.85797 91.51728,113.37221s-47.80765,114.73804 -28.68456,142.05665s25.95269,51.90529 -5.46382,80.58981" stroke-width="15" fill="none" stroke="#000000"/>
 </g>
</svg>