<svg width="11.995273in" height="8.691364in" xmlns="http://www.w3.org/2000/svg">
 <g>
  <g transform="matrix(1.13668 0 0 1.13668 -24.1645 -2.50149)" id="svg_1">
   <path stroke="#000000" id="svg_17" d="m156.23056,239.966766c53.125809,421.992096 -49.222191,492.261505 -47.489517,492.261505c1.732697,0 823.026901,-14.815552 822.992111,-1.037109c0.151489,1.037109 -105.614136,-191.840515 28.09082,-709.538511c4.909485,-14.520851 -151.127319,128.015226 -168.438477,152.096876c0.339233,1.85199 -462.473602,-20.664932 -504.212219,0l-198.429672,-166.977787l67.486969,233.194996l0,0.000031l-0.000015,0z" stroke-opacity="null" stroke-width="15" fill="#ffffff"/>
   <path stroke="#000000" id="svg_9_2_" fill="none" stroke-width="15" d="m322.77771,287.959717c0,-42.137024 33.448883,-76.266068 74.73996,-76.266068c41.292236,0 72.276428,34.129044 72.276428,76.266068c0,42.134644 -30.984192,75.060791 -72.276428,75.060791c-41.291077,0 -74.73996,-32.926147 -74.73996,-75.060791z"/>
   <path stroke="#000000" id="svg_9" fill="#000000" stroke-width="15" d="m359.610535,293.366089c0,-20.55838 16.320068,-37.210144 36.466309,-37.210144c20.1474,0 35.264618,16.651764 35.264618,37.210144c0,20.557251 -15.117218,37.208954 -35.264618,37.208954c-20.14624,0 -36.466309,-16.651703 -36.466309,-37.208954z"/>
   <path stroke="#000000" id="svg_9_1_" fill="#000000" stroke-width="15" d="m611.964111,296.97113c0,-20.55838 15.118408,-38.411804 35.264648,-38.411804c20.147461,0 36.46637,16.651733 36.46637,37.210114c0,20.557251 -16.318909,37.208954 -36.46637,37.208954c-20.14624,0 -35.264648,-15.450012 -35.264648,-36.007233l0,-0.000031z"/>
   <path stroke="#000000" id="svg_10" fill="#000000" stroke-width="15" d="m606.331848,467.842163l-73.674011,102.699463l-73.676453,-102.699463l147.350464,0z"/>
   <path stroke="#000000" id="svg_16" d="m527.852295,651.852356l3.292603,-87.814209" opacity="null" stroke-opacity="null" stroke-linecap="null" stroke-linejoin="null" stroke-width="15" fill-opacity="null" fill="none"/>
   <path stroke="#000000" id="svg_18" d="m705.300171,502.684967l215.817627,-96.743927" opacity="null" stroke-opacity="null" stroke-linecap="null" stroke-linejoin="null" stroke-width="15" fill-opacity="null" fill="none"/>
   <path stroke="#000000" id="svg_19" d="m715.71759,544.360535l251.538818,-1.48877" opacity="null" stroke-opacity="null" stroke-linecap="null" stroke-linejoin="null" stroke-width="15" fill-opacity="null" fill="none"/>
   <path stroke="#000000" id="svg_20" d="m706.787781,590.499268l242.607971,28.281616" opacity="null" stroke-opacity="null" stroke-linecap="null" stroke-linejoin="null" stroke-width="15" fill-opacity="null" fill="none"/>
   <path stroke="#000000" id="svg_21" d="m352.288696,488.935364l-230.69928,-69.954803" opacity="null" stroke-opacity="null" stroke-linecap="null" stroke-linejoin="null" stroke-width="15" fill-opacity="null" fill="none"/>
   <path stroke="#000000" id="svg_22" d="m350.733704,543.200928l-254.514252,11.907532" opacity="null" stroke-opacity="null" stroke-linecap="null" stroke-linejoin="null" stroke-width="15" fill-opacity="null" fill="none"/>
   <path stroke="#000000" id="svg_23" d="m331.384216,593.806274l-202.420059,43.163208" opacity="null" stroke-opacity="null" stroke-linecap="null" stroke-linejoin="null" stroke-width="15" fill-opacity="null" fill="none"/>
   <path stroke="#000000" id="svg_24" fill="#FFFFFF" stroke-width="15" d="m640.970337,647.388123c-61.023865,26.790344 -105.676086,19.349487 -113.118042,-5.954346"/>
   <path stroke="#000000" id="svg_25" fill="#FFFFFF" stroke-width="15" d="m535.293152,642.922668c-61.022736,26.790344 -105.674896,19.349548 -113.116852,-5.953186"/>
   <path stroke="#000000" fill="none" stroke-width="15" d="m322.590302,277.83432c0,0 -63.689331,54.075806 -4.806732,105.748199s96.134674,68.495941 80.512787,99.739777s-42.059021,100.941376 -25.235382,124.975067s22.832001,45.66394 -4.806824,70.899292" id="svg_3"/>
  </g>
 </g>
</svg>