<svg width="11.997318in" height="8.692846in" xmlns="http://www.w3.org/2000/svg">
 <g>
  <path fill-rule="evenodd" clip-rule="evenodd" fill="#0000FF" d="m443.068298,5.186564c1.504181,0 3.005798,0 4.51001,0c-18.582397,14.492708 -27.707886,42.449205 -35.329376,65.398527c69.805573,-2.77356 126.618317,22.248657 166.123688,54.121689c17.772888,14.340279 32.23822,33.888237 46.607422,51.867455c15.092896,18.887146 30.949585,37.716705 44.348816,54.874405c-16.515991,-9.245026 -31.554199,-18.535507 -57.879944,-16.536819c-35.653503,2.70491 -69.085571,30.728668 -80.432617,58.633041c-18.132935,44.59082 -9.052734,104.634583 10.524292,142.82254c23.285522,45.424591 68.426025,85.104309 116.512878,108.24472c52.124329,25.079895 133.589966,43.55365 196.194092,14.281067c-52.418091,57.832153 -121.85791,98.643982 -221.752197,108.997498c-1.695007,0.082581 -10.647461,-0.641479 -13.531067,0.752869c-7.516846,0 -15.033691,0 -22.55072,0c-1.28717,-1.721313 -5.739441,-0.277466 -8.268433,-0.752869c-14.297729,0.262451 -25.412537,-2.653931 -38.336365,-3.75708c-4.275024,-0.486206 -7.95105,-1.572815 -12.028198,-2.255554c-85.872345,-18.741699 -150.681641,-62.826965 -197.697052,-121.025879c-46.762726,-57.884186 -82.741669,-131.663788 -90.203568,-227.764801c0,-3.257172 0,-6.514282 0,-9.771271c-0.479446,-2.777771 0.972565,-7.488129 -0.751495,-9.019806c0,-0.250031 0,-0.501465 0,-0.751434c4.882172,-20.174408 6.610229,-43.504288 9.772659,-65.39856c14.304413,-55.602509 47.703674,-92.113213 89.452118,-120.271568c6.86734,-0.149803 8.589905,-5.441322 15.033997,-6.012833c-12.772736,-15.540848 -16.836273,-39.79097 -33.074921,-51.867308c29.723145,-3.162296 40.286865,12.834597 50.364655,29.316423c8.887756,-29.952557 28.736603,-48.940047 62.391296,-54.124451l0.000031,0l0,-0.000001z" id="svg_5"/>
  <path fill-rule="evenodd" clip-rule="evenodd" d="m361.132965,198.372269c19.028839,-2.619614 36.082184,11.695892 36.082184,31.570816c0,43.453308 -62.361328,40.167511 -63.89444,1.504181c-0.748535,-18.86113 8.585663,-30.427841 27.812256,-33.074997z" id="svg_6" fill="#191919"/>
  <path fill-rule="evenodd" clip-rule="evenodd" fill="#0500DF" stroke-width="5.51" stroke-miterlimit="10" d="m669.328857,232.876221c24.670654,12.143768 41.879517,33.610748 62.391724,51.867432c39.532715,35.187744 81.917419,68.67334 141.319763,86.44519c36.579163,10.943085 90.814941,19.984924 128.539673,3.007172c0,0.251221 0,0.501282 0,0.751282c-25.82843,41.071472 -50.350769,83.449219 -83.437927,117.264557c-2.821472,2.191223 -5.327332,4.696716 -7.518433,7.51709c-16.46521,15.858093 -33.559692,31.085754 -56.376099,40.59198c-62.604126,29.273804 -144.06958,10.798706 -196.19397,-14.28125c-48.088196,-23.141663 -93.227234,-62.82016 -116.513,-108.24469c-19.5755,-38.187958 -28.657227,-98.231781 -10.524048,-142.822601c11.346802,-27.904266 44.77887,-55.928085 80.432373,-58.632996c26.325745,-1.998688 41.363953,7.291779 57.879944,16.536835z" id="svg_7" stroke="#000000"/>
  <path fill-rule="evenodd" clip-rule="evenodd" fill="#FF0024" d="m644.270935,645.555481c-7.231262,24.285767 -11.093872,51.936096 -14.470459,80.069824c17.921387,18.064331 36.169739,35.136963 55.951172,52.096619c5.929016,5.081543 17.205811,10.077698 14.469604,21.221191c-5.985535,9.084229 -17.604492,-1.282837 -25.082764,-7.717529c-13.47345,-11.598206 -24.372498,-25.242126 -37.621948,-36.656067c-1.756958,-1.518127 -5.878113,-3.7146 -7.717651,-2.895935c0.13739,19.247131 4.251709,37.395508 8.682068,54.986938c2.373779,9.422546 8.431641,17.006775 0.964417,23.152954c-3.216248,0 -6.431702,0 -9.646484,0c-10.364685,-19.218323 -13.25769,-45.90979 -17.363586,-71.387939c-3.004456,8.574768 -8.252136,14.903381 -12.543396,22.186951c-5.539063,9.8302 -4.49762,41.370605 -18.328308,38.587585c-7.784851,-1.564819 -6.658508,-13.135681 -3.860168,-21.221252c-20.003967,-16.333374 -38.770264,-33.904663 -57.88147,-51.1297c-1.510986,1.413574 -1.675964,17.587708 0,22.185608c1.229492,12.124451 2.207764,23.475464 5.788818,35.696045c2.140381,7.303894 10.932068,21.009583 -1.928711,22.186829c-10.743835,0.984802 -12.835815,-15.681152 -15.436462,-25.082764c-3.424652,-12.386841 -4.799591,-21.836426 -4.824463,-34.727356c-0.578247,-3.970215 1.5578,-18.593262 -1.928741,-13.50647c-6.970123,12.417053 -14.386841,23.271912 -19.293732,39.552002c-2.85199,9.456665 -1.317352,21.237671 -9.647675,22.186829c-20.347473,2.322815 -0.250061,-43.159424 2.89444,-50.162659c7.911285,-17.623352 19.844849,-29.571838 29.905945,-42.447632c3.467194,-30.618958 8.857605,-59.314575 17.36499,-84.893066c5.232483,0.875183 9.949768,2.269409 15.434998,2.891663c-6.564819,27.202393 -14.247925,53.281006 -16.399353,84.892944c19.736267,19.172974 39.845886,37.972107 61.740356,54.988464c6.876831,-19.490112 18.122192,-34.613403 29.90564,-49.198303c0.696594,-32.10376 7.743835,-57.858032 13.505188,-84.894287c3.704956,-1.781677 15.191833,-0.855713 17.367737,-0.961487z" id="svg_9"/>
  <path fill-rule="evenodd" clip-rule="evenodd" fill="#FD8C00" d="m150.420044,235.259262c38.387146,-14.901917 74.576279,-31.269836 113.633789,-45.724091c-3.625122,31.651825 -4.465912,65.165009 -11.427841,94.584427c-34.559967,-15.467896 -68.003082,-31.936157 -102.130386,-47.788788c-0.024765,-0.357208 -0.050797,-0.714203 -0.075562,-1.071548z" id="svg_10"/>
 </g>
</svg>