<svg width="11in" height="8in" xmlns="http://www.w3.org/2000/svg">
 <!-- Created with SVG-edit - http://svg-edit.googlecode.com/ -->
 <g>
  <path id="svg_5" d="m417.284821,12.490829c1.354645,0 2.70697,0 4.061615,0c-16.734863,13.051786 -24.953064,38.228741 -31.816803,58.896362c62.865234,-2.497803 114.029449,20.036613 149.607025,48.740707c16.00592,12.91452 29.03302,30.518936 41.973572,46.710602c13.592224,17.009308 27.872498,33.966766 39.939514,49.418579c-14.873901,-8.325851 -28.416992,-16.692642 -52.125305,-14.89267c-32.108704,2.435989 -62.216858,27.673523 -72.43573,52.803513c-16.330109,40.157455 -8.152679,94.23143 9.477936,128.622604c20.970367,40.908325 61.622894,76.642944 104.92868,97.482605c46.941956,22.586395 120.307983,39.223389 176.687805,12.861206c-47.206482,52.082275 -109.742371,88.836426 -199.704773,98.160583c-1.526489,0.074341 -9.588867,-0.577759 -12.18573,0.677979c-6.769531,0 -13.539063,0 -20.308716,0c-1.15918,-1.55011 -5.168762,-0.249878 -7.446289,-0.677979c-12.876221,0.236389 -22.885925,-2.390076 -34.524841,-3.383545c-3.850037,-0.437866 -7.160522,-1.416443 -10.832336,-2.031311c-77.334595,-16.878296 -135.700287,-56.580505 -178.04129,-108.993011c-42.113342,-52.12915 -74.515137,-118.573303 -81.235153,-205.119598c0,-2.933319 0,-5.866608 0,-8.799774c-0.431778,-2.501587 0.875854,-6.743622 -0.676773,-8.123032c0,-0.225174 0,-0.451584 0,-0.676727c4.396774,-18.168579 5.953018,-39.178909 8.800995,-58.896378c12.882233,-50.07428 42.960815,-82.954964 80.558472,-108.313721c6.18457,-0.134903 7.73584,-4.900322 13.539246,-5.415001c-11.502808,-13.99572 -15.162354,-35.834808 -29.786469,-46.710472c26.767944,-2.847889 36.281403,11.558533 45.357178,26.401676c8.00412,-26.974564 25.879547,-44.074251 56.188141,-48.743198l0.000031,0z" fill="#0000FF" clip-rule="evenodd" fill-rule="evenodd"/>
  <path fill="#191919" id="svg_6" d="m343.495789,186.469284c17.136963,-2.359161 32.494781,10.533035 32.494781,28.431931c0,39.133026 -56.161133,36.173904 -57.541809,1.35463c-0.674133,-16.985886 7.732025,-27.402588 25.047028,-29.78656z" clip-rule="evenodd" fill-rule="evenodd"/>
  <path stroke="#000000" id="svg_7" d="m621.049744,216.255844c22.217773,10.936386 37.715698,30.269058 56.188477,46.710587c35.602234,31.68924 73.772888,61.845581 127.269226,77.850494c32.942322,9.855072 81.785828,17.997925 115.759766,2.70816c0,0.226257 0,0.451477 0,0.676605c-23.260437,36.987976 -45.344727,75.152374 -75.142212,105.605682c-2.540955,1.973328 -4.797668,4.229736 -6.770935,6.769684c-14.828186,14.281464 -30.223083,27.995087 -50.770935,36.556152c-56.379822,26.363312 -129.745667,9.725098 -176.687622,-12.861328c-43.307129,-20.84082 -83.958252,-56.574341 -104.928864,-97.482605c-17.629242,-34.391144 -25.808044,-88.46521 -9.477692,-128.62262c10.218628,-25.129929 40.326782,-50.367523 72.435486,-52.803482c23.708313,-1.799973 37.251404,6.566788 52.125305,14.89267z" stroke-miterlimit="10" stroke-width="5.51" fill="#0500DF" clip-rule="evenodd" fill-rule="evenodd"/>
  <path id="svg_8" d="m838.355164,456.577057c1.973267,-2.539948 4.230042,-4.796356 6.770935,-6.769684c-1.974304,2.539795 -4.231079,4.797607 -6.770935,6.769684z" fill="#434F53" clip-rule="evenodd" fill-rule="evenodd"/>
  <path id="svg_9" d="m598.483154,589.191833c-6.512329,21.871216 -9.990906,46.772461 -13.031738,72.109009c16.139526,16.268311 32.573547,31.643494 50.388306,46.917053c5.339478,4.576233 15.495117,9.075745 13.030945,19.111267c-5.390442,8.18103 -15.854187,-1.155396 -22.588928,-6.950256c-12.133911,-10.445068 -21.949341,-22.732422 -33.881409,-33.011597c-1.582275,-1.367126 -5.293701,-3.345215 -6.950317,-2.607971c0.123718,17.333496 3.828979,33.67749 7.818787,49.519958c2.137817,8.485718 7.593384,15.315857 0.86853,20.850891c-2.896423,0 -5.792236,0 -8.687317,0c-9.334229,-17.307556 -11.939575,-41.345215 -15.637329,-64.290222c-2.705627,7.722229 -7.431641,13.421631 -11.296204,19.981018c-4.988342,8.852844 -4.050476,37.257446 -16.506104,34.751099c-7.010803,-1.409241 -5.996399,-11.829651 -3.476318,-19.111328c-18.015137,-14.709473 -34.915619,-30.533813 -52.126709,-46.046265c-1.360748,1.273071 -1.509338,15.839111 0,19.979858c1.107269,10.919006 1.988281,21.141479 5.213287,32.147034c1.927551,6.577698 9.845154,18.920715 -1.736938,19.980896c-9.675659,0.886963 -11.559662,-14.12207 -13.901764,-22.588928c-3.084137,-11.155273 -4.322357,-19.665405 -4.344757,-31.274658c-0.520752,-3.5755 1.402924,-16.744568 -1.736969,-12.163574c-6.277161,11.182556 -12.956482,20.958191 -17.375519,35.619568c-2.56839,8.516418 -1.18634,19.12616 -8.688446,19.980957c-18.324432,2.091919 -0.225189,-38.868347 2.606659,-45.175293c7.124725,-15.871216 17.871796,-26.631714 26.932617,-38.227356c3.122437,-27.574646 7.976898,-53.417236 15.638458,-76.452698c4.71225,0.788147 8.960571,2.043762 13.900391,2.604248c-5.912109,24.497742 -12.83136,47.983521 -14.76886,76.452576c17.773987,17.266663 35.884277,34.196716 55.601868,49.52124c6.193176,-17.552368 16.320435,-31.171997 26.932373,-44.306824c0.627319,-28.911926 6.973877,-52.105591 12.162476,-76.453796c3.336548,-1.604492 13.681335,-0.77063 15.64093,-0.865906z" fill="#FF0024" clip-rule="evenodd" fill-rule="evenodd"/>
  <path id="svg_10" d="m153.732758,219.688843c34.570557,-13.420319 67.161621,-28.160873 102.335907,-41.178024c-3.264725,28.504883 -4.021912,58.68605 -10.291656,85.180466c-31.123886,-13.930023 -61.241959,-28.760925 -91.976196,-43.03743c-0.022308,-0.321686 -0.045746,-0.643204 -0.068054,-0.965012z" fill="#FD8C00" clip-rule="evenodd" fill-rule="evenodd"/>
 </g>
</svg>