<svg width="12in" height="9in" xmlns="http://www.w3.org/2000/svg">
 <!-- Created with SVG-edit - http://svg-edit.googlecode.com/ -->
 <g>
  <path fill-rule="evenodd" clip-rule="evenodd" fill="#0000FF" d="m476.63562,17.795179c1.526062,0 3.04953,0 4.575592,0c-18.85257,14.703402 -28.110718,43.066351 -35.843018,66.349314c70.820404,-2.813873 128.459137,22.572121 168.538849,54.908531c18.031372,14.548767 32.70697,34.38089 47.285034,52.621506c15.312256,19.161758 31.399597,38.26506 44.993652,55.672211c-16.756104,-9.379456 -32.013,-18.804977 -58.721436,-16.777237c-36.171936,2.744217 -70.090027,31.17543 -81.602051,59.485428c-18.396545,45.239166 -9.184326,106.155853 10.677307,144.898987c23.624084,46.084991 69.420898,86.341614 118.206726,109.818359c52.882202,25.44458 135.532227,44.18689 199.046509,14.488708c-53.180176,58.672974 -123.629578,100.078125 -224.976074,110.582153c-1.719727,0.083801 -10.802307,-0.650818 -13.727783,0.763855c-7.62616,0 -15.25238,0 -22.878723,0c-1.305847,-1.746277 -5.822754,-0.281555 -8.388489,-0.763855c-14.505615,0.266357 -25.782043,-2.692505 -38.893799,-3.811646c-4.337219,-0.493286 -8.066589,-1.595703 -12.203064,-2.288391c-87.120789,-19.014099 -152.872284,-63.740417 -200.571259,-122.785339c-47.442535,-58.7258 -83.94455,-133.578003 -91.514954,-231.076172c0,-3.304504 0,-6.608978 0,-9.91333c-0.486389,-2.818115 0.986694,-7.596954 -0.76239,-9.15094c0,-0.253662 0,-0.508728 0,-0.76239c4.953156,-20.467682 6.706329,-44.136749 9.914703,-66.349319c14.51239,-56.410843 48.397217,-93.452377 90.752594,-122.020111c6.967224,-0.15197 8.714783,-5.520439 15.252563,-6.100243c-12.958405,-15.766777 -17.081024,-40.369469 -33.555756,-52.621368c30.155273,-3.208279 40.872589,13.021179 51.096863,29.742638c9.016968,-30.38802 29.154419,-49.651577 63.29837,-54.911348l0.000031,0z" id="svg_5"/>
  <path fill-rule="evenodd" clip-rule="evenodd" d="m393.509064,213.78949c19.305542,-2.6577 36.606812,11.865921 36.606812,32.029816c0,44.085052 -63.267975,40.751465 -64.823364,1.526031c-0.75946,-19.13533 8.710449,-30.870209 28.216553,-33.555847z" id="svg_6" fill="black"/>
  <path fill-rule="evenodd" clip-rule="evenodd" fill="#0500DF" stroke-width="5.51" stroke-miterlimit="10" d="m706.18573,247.345337c25.029297,12.320313 42.488281,34.099426 63.298706,52.621521c40.107483,35.69931 83.108337,69.671722 143.374329,87.701965c37.110962,11.102142 92.135254,20.275421 130.408447,3.050873c0,0.254883 0,0.508575 0,0.762238c-26.203918,41.668549 -51.082825,84.662415 -84.651001,118.969391c-2.862488,2.222992 -5.404785,4.764984 -7.627747,7.626312c-16.70459,16.088684 -34.047668,31.537659 -57.195679,41.182129c-63.514282,29.699402 -146.164124,10.95575 -199.046265,-14.488831c-48.787354,-23.478149 -94.582642,-63.733459 -118.20697,-109.81842c-19.860107,-38.743134 -29.073853,-99.659943 -10.677002,-144.898987c11.511719,-28.309967 45.42981,-56.741211 81.601746,-59.485428c26.708435,-2.02774 41.965332,7.397766 58.721436,16.777237z" id="svg_7" stroke="#000000"/>
  <path fill-rule="evenodd" clip-rule="evenodd" fill="#434F53" d="m950.989685,518.077637c2.223022,-2.861328 4.76532,-5.40332 7.627808,-7.626312c-2.224243,2.861176 -4.766541,5.404694 -7.627808,7.626312z" id="svg_8"/>
  <path fill-rule="evenodd" clip-rule="evenodd" fill="#FF0024" d="m680.763489,667.473999c-7.336487,24.638916 -11.255188,52.691162 -14.680908,81.233887c18.181946,18.326965 36.695557,35.647766 56.764648,52.854126c6.015137,5.155334 17.455933,10.224182 14.679932,21.529724c-6.072571,9.216248 -17.860413,-1.301636 -25.447449,-7.829773c-13.669373,-11.766846 -24.726868,-25.60907 -38.168823,-37.189087c-1.782532,-1.5401 -5.963623,-3.768433 -7.829834,-2.937927c0.139343,19.526855 4.313477,37.939087 8.808228,55.786377c2.408264,9.559509 8.55426,17.254028 0.978394,23.489441c-3.262939,0 -6.525208,0 -9.786621,0c-10.515442,-19.497742 -13.450439,-46.577209 -17.61615,-72.425781c-3.048035,8.699463 -8.37207,15.120056 -12.725647,22.50946c-5.619629,9.973145 -4.563049,41.972168 -18.594849,39.148682c-7.897949,-1.587524 -6.755188,-13.326599 -3.916199,-21.529724c-20.294922,-16.570923 -39.333984,-34.397644 -58.723022,-51.873108c-1.532959,1.434143 -1.700378,17.843445 0,22.508118c1.247375,12.300781 2.239868,23.816833 5.872986,36.215088c2.171448,7.410034 11.090942,21.314941 -1.956787,22.509277c-10.900024,0.999268 -13.022461,-15.909058 -15.660889,-25.447327c-3.474426,-12.566895 -4.869324,-22.153931 -4.894592,-35.2323c-0.58667,-4.027954 1.580444,-18.863525 -1.956787,-13.70282c-7.071472,12.597656 -14.596008,23.610352 -19.57428,40.127014c-2.893372,9.594177 -1.336426,21.546509 -9.787872,22.509399c-20.64328,2.356689 -0.253693,-43.786865 2.936493,-50.891968c8.026306,-17.879517 20.133362,-30.00177 30.340759,-43.064758c3.517578,-31.063965 8.986328,-60.176819 17.617432,-86.127258c5.308533,0.887817 10.094421,2.302368 15.659424,2.933777c-6.660278,27.597839 -14.455139,54.055603 -16.637817,86.127197c20.023193,19.45166 40.425232,38.524109 62.637939,55.787842c6.976929,-19.77356 18.38562,-35.116699 30.340515,-49.913574c0.706665,-32.570557 7.856384,-58.69928 13.701538,-86.12854c3.758789,-1.807556 15.412659,-0.868164 17.620239,-0.975464z" id="svg_9"/>
  <path fill-rule="evenodd" clip-rule="evenodd" fill="#FD8C00" d="m179.732742,251.212784c38.945251,-15.118607 75.660507,-31.724472 115.285873,-46.38884c-3.677856,32.111969 -4.530853,66.112366 -11.594025,95.959503c-35.062408,-15.69278 -68.991714,-32.400452 -103.615173,-48.483551c-0.025131,-0.362396 -0.051544,-0.724609 -0.076675,-1.087112z" id="svg_10"/>
 </g>
</svg>