<svg width="10.990919in" height="7.692308in" xmlns="http://www.w3.org/2000/svg">
 <g>
  <path id="svg_5" d="m410.320221,4.493243c1.331604,0 2.660919,0 3.992554,0c-16.450348,12.829889 -24.528839,37.578805 -31.275879,57.895044c61.796448,-2.455338 112.09079,19.695965 147.063507,47.912052c15.733765,12.694954 28.539429,30.000076 41.259949,45.916458c13.361206,16.720123 27.398621,33.389282 39.260498,48.5784c-14.621033,-8.184296 -27.933838,-16.408844 -51.239136,-14.639465c-31.562805,2.394562 -61.159058,27.203018 -71.204193,51.905777c-16.05246,39.474716 -8.014069,92.629379 9.316803,126.435837c20.613831,40.21283 60.575195,75.339905 103.144775,95.825287c46.14386,22.202362 118.262573,38.556549 173.683838,12.642548c-46.403931,51.196808 -107.876587,87.32608 -196.309509,96.491669c-1.500549,0.07312 -9.425842,-0.567871 -11.978577,0.666504c-6.654419,0 -13.308838,0 -19.963379,0c-1.139526,-1.523804 -5.080933,-0.245605 -7.319763,-0.666504c-12.657288,0.232361 -22.496826,-2.349426 -33.937836,-3.325989c-3.784576,-0.43042 -7.038788,-1.392334 -10.648193,-1.996765c-76.019775,-16.59137 -133.393188,-55.61853 -175.014313,-107.139984c-41.3974,-51.242889 -73.248306,-116.557404 -79.85408,-201.632294c0,-2.883453 0,-5.766861 0,-8.650162c-0.424438,-2.459061 0.860977,-6.628983 -0.665268,-7.984924c0,-0.221344 0,-0.443909 0,-0.665222c4.322021,-17.859695 5.851807,-38.512817 8.651382,-57.895065c12.663223,-49.222961 42.230423,-81.544624 79.188858,-106.472237c6.079437,-0.132614 7.60434,-4.817017 13.309082,-5.322952c-11.307251,-13.757771 -14.904572,-35.225563 -29.28009,-45.916325c26.312866,-2.799471 35.664581,11.362022 44.58609,25.952812c7.868011,-26.515959 25.439514,-43.324926 55.232849,-47.914497l0.000031,0l0,-0.000001z" fill="#0000FF" clip-rule="evenodd" fill-rule="evenodd"/>
  <path fill="#191919" id="svg_6" d="m337.785706,175.51384c16.845581,-2.319061 31.942322,10.353958 31.942322,27.948547c0,38.467697 -55.206329,35.558899 -56.563538,1.331589c-0.662659,-16.697098 7.600586,-26.936707 24.621216,-29.280136z" clip-rule="evenodd" fill-rule="evenodd"/>
  <path stroke="#000000" id="svg_7" d="m610.62085,204.793976c21.840027,10.750458 37.074463,29.75444 55.233215,45.916443c34.996948,31.150482 72.518616,60.794128 125.105469,76.526917c32.382263,9.687531 80.395325,17.691956 113.791687,2.66214c0,0.222412 0,0.443787 0,0.6651c-22.86499,36.359131 -44.573792,73.874695 -73.864685,103.810242c-2.497742,1.939789 -4.716125,4.157837 -6.655823,6.654602c-14.57605,14.038635 -29.709229,27.519135 -49.907776,35.934662c-55.421265,25.9151 -127.539795,9.559723 -173.683716,-12.64267c-42.570801,-20.486511 -82.530823,-55.612518 -103.144897,-95.825287c-17.329529,-33.806458 -25.369263,-86.961182 -9.316559,-126.435867c10.044891,-24.702682 39.641144,-49.5112 71.203949,-51.905762c23.305298,-1.769363 36.618103,6.455154 51.239136,14.639481z" stroke-miterlimit="10" stroke-width="5.51" fill="#0500DF" clip-rule="evenodd" fill-rule="evenodd"/>
  <path id="svg_8" d="m824.231812,441.029419c1.939758,-2.496765 4.158142,-4.714813 6.655762,-6.654602c-1.940674,2.496643 -4.159119,4.716034 -6.655762,6.654602z" fill="#434F53" clip-rule="evenodd" fill-rule="evenodd"/>
  <path id="svg_9" d="m588.437927,571.389587c-6.401611,21.499329 -9.821045,45.977234 -12.810181,70.883057c15.865173,15.991699 32.019775,31.10553 49.531616,46.119324c5.248718,4.498474 15.231689,8.921448 12.809448,18.786377c-5.298828,8.041931 -15.584656,-1.135681 -22.204895,-6.832092c-11.927612,-10.267456 -21.576172,-22.345947 -33.30542,-32.450317c-1.555359,-1.343933 -5.203674,-3.288391 -6.832153,-2.56366c0.121582,17.038818 3.763855,33.104919 7.685913,48.67804c2.10144,8.341431 7.464233,15.055481 0.85376,20.49646c-2.847229,0 -5.693787,0 -8.539673,0c-9.175537,-17.013306 -11.736572,-40.642334 -15.371399,-63.197266c-2.659729,7.590942 -7.305359,13.193481 -11.104248,19.641357c-4.903503,8.702332 -3.981567,36.623962 -16.225403,34.160278c-6.891663,-1.385315 -5.894531,-11.628601 -3.417297,-18.786438c-17.708801,-14.459412 -34.32196,-30.014648 -51.240448,-45.263367c-1.337585,1.251404 -1.483673,15.569763 0,19.640137c1.08844,10.733337 1.954498,20.782043 5.124664,31.600464c1.894775,6.465881 9.677765,18.59906 -1.707428,19.641235c-9.511139,0.871826 -11.363098,-13.881958 -13.665375,-22.204895c-3.031708,-10.965637 -4.248901,-19.331055 -4.270905,-30.74292c-0.511902,-3.514709 1.379059,-16.459961 -1.707458,-11.956787c-6.17041,10.992371 -12.736176,20.601807 -17.080078,35.013977c-2.52475,8.371643 -1.166199,18.800964 -8.540741,19.641235c-18.012909,2.056335 -0.221375,-38.20752 2.562347,-44.407227c7.003571,-15.601379 17.567963,-26.178955 26.474701,-37.577454c3.069366,-27.105896 7.841309,-52.509094 15.372589,-75.152893c4.632141,0.77478 8.808228,2.009033 13.664063,2.559937c-5.811584,24.081299 -12.61319,47.167786 -14.517761,75.152771c17.471832,16.973145 35.2742,33.615356 54.656586,48.679382c6.08783,-17.253967 16.042969,-30.64209 26.474426,-43.553589c0.616699,-28.420349 6.855347,-51.219666 11.955688,-75.153931c3.279846,-1.577271 13.448792,-0.757568 15.375061,-0.851196z" fill="#FF0024" clip-rule="evenodd" fill-rule="evenodd"/>
  <path id="svg_10" d="m151.248886,208.16861c33.982803,-13.192154 66.019791,-27.682098 100.596054,-40.477951c-3.209213,28.020264 -3.953522,57.688324 -10.116684,83.7323c-30.594742,-13.693192 -60.20076,-28.271957 -90.412476,-42.30574c-0.021927,-0.316223 -0.044968,-0.632263 -0.066895,-0.948608z" fill="#FD8C00" clip-rule="evenodd" fill-rule="evenodd"/>
 </g>
</svg>