<svg width="12in" height="9in" xmlns="http://www.w3.org/2000/svg">
 <!-- Created with SVG-edit - http://svg-edit.googlecode.com/ -->

 <g>
  <title>Layer 1</title>
  <path stroke="#000000" id="svg_5" d="m410.184479,701.104797c0,0 -9.696533,85.116333 33.400421,96.967468c23.703827,7.542419 33.40033,-100.19989 33.40033,-100.19989l-66.800751,3.232422z" stroke-miterlimit="10" stroke-width="5" fill="#2E3192"/>
  <path stroke="#000000" id="svg_6" d="m567.488281,732.349304c0,0 -9.694946,88.346924 30.168274,96.967407c34.476868,0 36.630981,-114.205078 36.630981,-114.205078l-66.799255,17.237671z" stroke-miterlimit="10" stroke-width="5" fill="#2E3192"/>
  <path stroke="#000000" id="svg_7" d="m372.475372,429.595856c0,0 -67.877289,-50.638062 -77.573822,-53.870483s-29.090118,45.251526 -29.090118,45.251526s82.960632,61.41272 99.121521,63.567047s7.542419,-54.94809 7.542419,-54.94809z" stroke-miterlimit="10" stroke-width="5" fill="#2E3192"/>
  <path stroke="#000000" id="svg_8" d="m455.437561,109.60321c0,0 -32.322327,-78.65192 -51.715881,-78.65192c-19.393585,0 -47.40567,93.735256 -32.322327,120.671009s84.038208,-42.019089 84.038208,-42.019089z" stroke-miterlimit="10" stroke-width="5" fill="#2E3192"/>
  <path stroke="#000000" id="svg_9" d="m624.051208,106.910828c0,0 -40.401489,-21.011459 -109.356873,-21.011459s-136.832153,18.315765 -172.387146,61.412933s-45.453552,70.362793 -44.713257,111.514023c1.617859,89.963257 51.715912,121.20929 51.715912,121.20929s-121.209045,198.783356 59.79657,344.234528c181.006134,96.967407 326.457306,0 326.457306,0l-1.616333,-324.840942c0,0 40.403442,-75.957764 33.938599,-114.744934s-11.312866,-103.431778 -58.180237,-132.522156c11.312866,-56.564171 11.312866,-80.806023 -1.616333,-87.270638s-32.322266,-1.616085 -84.038208,42.019356z" stroke-miterlimit="10" stroke-width="5" fill="#2E3192"/>
  <path stroke="#000000" id="svg_10" d="m325.483521,216.042679c0,0 18.700226,-34.525131 48.911774,-25.893402s33.087128,50.350311 33.087128,50.350311" stroke-miterlimit="10" stroke-width="6.6761" fill="none"/>
  <path stroke="#000000" id="svg_11" d="m623.275208,247.693039c0,0 18.700195,-34.526932 48.910767,-25.895187c30.210022,8.631744 33.090149,50.350311 33.090149,50.350311" stroke-miterlimit="10" stroke-width="6.6761" fill="none"/>
  <path id="svg_12" d="m591.192139,225.964233c0,0 19.393616,-24.781662 35.554504,-14.007065" fill="none"/>
  <path stroke="#000000" id="svg_13" d="m437.692444,235.967911c0,0 15.8237,27.331955 33.088623,28.771744c17.263489,1.440094 33.088684,-33.086838 33.088684,-33.086838s-1.440369,38.842026 28.771729,40.280289c30.210083,1.438293 53.230225,-18.700195 53.230225,-18.700195" stroke-miterlimit="10" stroke-width="6.6761" fill="none"/>
  <path stroke="#000000" id="svg_14" d="m466.464203,264.739655c0,0 -1.438263,87.754089 27.333984,94.94751c28.771759,7.193207 44.59848,-86.315765 44.59848,-86.315765s-28.775299,5.755157 -35.967285,-31.648315c-20.138458,12.946564 -20.138458,23.016571 -35.965179,23.016571z" stroke-miterlimit="10" stroke-width="6.6761" fill="#ED1C24"/>
  <path stroke="#000000" id="svg_15" d="m317.527313,353.099854c0,0 -9.697052,82.960388 -104.509842,123.903442c-107.742058,-70.031647 -192.85705,-185.314606 -140.064873,-254.26973s91.581154,-47.405899 99.122047,-44.173462c22.625763,8.618729 82.960129,101.277451 82.960129,101.277451s-32.322311,-48.483719 2.154617,-52.793716s15.083344,67.877029 15.083344,67.877029l45.254578,58.178986z" stroke-miterlimit="10" stroke-width="5" fill="#F15A29"/>
  <path stroke="#000000" id="svg_16" d="m747.416382,204.416275c0,0 29.091675,72.187546 18.317017,106.66423s-45.251526,152.993805 -75.419678,234.87616s-5.386292,187.471985 6.464844,207.942139c132.521912,-10.774841 305.985657,-220.871094 226.257141,-414.806c-31.375305,-76.318237 -84.653992,-99.420776 -114.206848,-116.361023c-45.543884,-26.106659 -61.412476,-18.315506 -61.412476,-18.315506z" stroke-miterlimit="10" stroke-width="5" fill="#ED1C24"/>
  <path stroke="#000000" id="svg_17" d="m844.38385,619.220459c-8.619019,28.013855 -45.046448,71.400574 -70.031433,63.568604c-24.983948,-7.831482 -30.168213,-51.715942 -17.239502,-84.038208c19.114014,-47.789063 59.25885,-63.567322 74.341675,-60.334839c25.602844,5.484985 22.755371,48.865051 12.92926,80.804443z" stroke-miterlimit="10" stroke-width="5"/>
  <path stroke="#000000" id="svg_18" d="m932.732239,517.94458c0,0 -37.708557,-75.419708 -29.090088,-109.896667s37.709045,15.083344 37.709045,15.083344s2.156189,43.097168 -8.618958,94.813324z" stroke-miterlimit="10" stroke-width="5"/>
  <path stroke="#000000" id="svg_19" d="m748.494507,370.33728c0,0 16.160889,-79.72818 42.018799,-71.109467s47.407715,31.246246 30.168213,98.045471s-56.026123,106.664246 -107.742004,82.960693c32.322754,-95.889648 35.554993,-109.896698 35.554993,-109.896698z" stroke-miterlimit="10" stroke-width="5"/>
  <path stroke="#000000" id="svg_20" d="m703.24292,399.427643c0,0 58.180237,-9.696747 74.341675,-31.24472l9.696533,60.334869c-17.80127,25.263306 -81.882568,36.632813 -81.882568,36.632813" stroke-miterlimit="10" stroke-width="5" fill="#2E3192"/>
  <path stroke="#000000" id="svg_21" d="m868.087646,276.60202c32.322388,-26.935745 123.903503,-96.967407 177.773438,-18.315491c80.80603,164.844727 -161.612549,228.411804 -219.792786,244.573181c-85.116272,-98.045502 -56.026184,-169.154968 -56.026184,-169.154968s32.322388,-26.936005 71.109497,-45.251556c7.542419,-31.244476 19.393616,-66.799225 39.864746,-63.567047s10.774658,38.786926 10.774658,38.786926" stroke-miterlimit="10" stroke-width="5" fill="#F15A29"/>
  <path stroke="#ED1C24" id="svg_22" d="m207.090851,262.058777c0,0 -35.554474,-98.583786 -101.815437,-48.483994s14.545059,143.835312 14.545059,143.835312s60.604256,-41.211182 87.270378,-95.351318z" stroke-miterlimit="10" stroke-width="5" fill="#FFF200"/>
  <path stroke="#ED1C24" id="svg_23" d="m224.868622,274.179565l60.604248,66.26123c0,0 -0.807648,25.857941 -24.241608,55.756226s-53.33223,47.675537 -53.33223,47.675537s-59.7966,-50.099792 -68.685471,-68.685211c18.585419,-15.353241 71.917648,-74.341644 85.65506,-101.007782z" stroke-miterlimit="10" stroke-width="5" fill="#FFF200"/>
  <path stroke="#ED1C24" id="svg_24" d="m879.398499,283.876343c0,0 8.080688,55.756287 16.161377,75.957764s37.170837,75.958008 37.170837,75.958008s-29.090088,29.090088 -96.967407,42.019073c-54.139893,-64.644836 -45.251526,-142.218933 -45.251526,-142.218933l88.886719,-51.715912z" stroke-miterlimit="10" stroke-width="5" fill="#FFF200"/>
  <path stroke="#ED1C24" id="svg_25" d="m899.600281,270.947388c0,0 17.777161,104.23996 54.14032,155.956116c88.078613,-54.140411 92.927124,-96.159515 75.149902,-145.451416s-65.453308,-53.331985 -129.290222,-10.5047z" stroke-miterlimit="10" stroke-width="5" fill="#FFF200"/>
 </g>
</svg>