<?xml version="1.0" encoding="UTF-8" standalone="no"?>
<!-- Created with Inkscape (http://www.inkscape.org/) -->
<svg xmlns:dc="http://purl.org/dc/elements/1.1/" xmlns:cc="http://creativecommons.org/ns#" xmlns:rdf="http://www.w3.org/1999/02/22-rdf-syntax-ns#" xmlns:svg="http://www.w3.org/2000/svg" xmlns="http://www.w3.org/2000/svg" xmlns:sodipodi="http://sodipodi.sourceforge.net/DTD/sodipodi-0.dtd" xmlns:inkscape="http://www.inkscape.org/namespaces/inkscape" width="990px" height="720px" id="svg2" version="1.1" inkscape:version="0.48.4 r9939" sodipodi:docname="WaterColorBot - Cherry Blossom.svg">
  <sodipodi:namedview inkscape:document-units="in" pagecolor="#ffffff" bordercolor="#666666" borderopacity="1.0" inkscape:pageopacity="0.0" inkscape:pageshadow="2" inkscape:zoom="1.0694444" inkscape:cx="495" inkscape:cy="360" inkscape:current-layer="layer2" id="namedview6" showgrid="false" inkscape:window-width="1680" inkscape:window-height="987" inkscape:window-x="-8" inkscape:window-y="-8" inkscape:window-maximized="1"/>
  <defs id="defs4"/>
  <metadata id="metadata8">
    <rdf:RDF>
      <cc:Work rdf:about="">
        <dc:format>image/svg+xml</dc:format>
        <dc:type rdf:resource="http://purl.org/dc/dcmitype/StillImage"/>
        <dc:title/>
      </cc:Work>
    </rdf:RDF>
  </metadata>
  <g inkscape:groupmode="layer" id="layer2" inkscape:label="2-Red" sodipodi:insensitive="true">
    <path sodipodi:type="arc" style="opacity:0.84185839;fill:none;stroke:#ff0000;stroke-width:1;stroke-miterlimit:4;stroke-dasharray:none" id="path3134" sodipodi:cx="430.71429" sodipodi:cy="242.29871" sodipodi:rx="9.7012987" sodipodi:ry="9" d="m 440.41559,242.29871 a 9.7012987,9 0 1 1 -19.40259,0 9.7012987,9 0 1 1 19.40259,0 z" transform="translate(0.46753246,1.1688312)"/>
    <path sodipodi:type="arc" style="opacity:0.84185839;fill:none;stroke:#ff0000;stroke-width:1;stroke-miterlimit:4;stroke-dasharray:none" id="path3134-1" sodipodi:cx="430.71429" sodipodi:cy="242.29871" sodipodi:rx="9.7012987" sodipodi:ry="9" d="m 440.41559,242.29871 a 9.7012987,9 0 1 1 -19.40259,0 9.7012987,9 0 1 1 19.40259,0 z" transform="matrix(1.4191749,0,0,1.5069371,-272.39866,40.970783)"/>
    <path sodipodi:type="arc" style="opacity:0.84185839;fill:none;stroke:#ff0000;stroke-width:1;stroke-miterlimit:4;stroke-dasharray:none" id="path3134-7" sodipodi:cx="430.71429" sodipodi:cy="242.29871" sodipodi:rx="9.7012987" sodipodi:ry="9" d="m 440.41559,242.29871 a 9.7012987,9 0 1 1 -19.40259,0 9.7012987,9 0 1 1 19.40259,0 z" transform="translate(-57.141517,193.38926)"/>
    <path sodipodi:type="arc" style="opacity:0.84185839;fill:none;stroke:#ff0000;stroke-width:1;stroke-miterlimit:4;stroke-dasharray:none" id="path3134-11" sodipodi:cx="430.71429" sodipodi:cy="242.29871" sodipodi:rx="9.7012987" sodipodi:ry="9" d="m 440.41559,242.29871 a 9.7012987,9 0 1 1 -19.40259,0 9.7012987,9 0 1 1 19.40259,0 z" transform="translate(102.86665,135.20448)"/>
    <path sodipodi:type="arc" style="opacity:0.84185839;fill:none;stroke:#ff0000;stroke-width:1;stroke-miterlimit:4;stroke-dasharray:none" id="path3134-2" sodipodi:cx="430.71429" sodipodi:cy="242.29871" sodipodi:rx="9.7012987" sodipodi:ry="9" d="m 440.41559,242.29871 a 9.7012987,9 0 1 1 -19.40259,0 9.7012987,9 0 1 1 19.40259,0 z" transform="matrix(0.9973749,0,0,1.1073688,196.56402,191.838)"/>
    <path sodipodi:type="arc" style="opacity:0.84185839;fill:none;stroke:#ff0000;stroke-width:1;stroke-miterlimit:4;stroke-dasharray:none" id="path3134-76" sodipodi:cx="430.71429" sodipodi:cy="242.29871" sodipodi:rx="9.7012987" sodipodi:ry="9" d="m 440.41559,242.29871 a 9.7012987,9 0 1 1 -19.40259,0 9.7012987,9 0 1 1 19.40259,0 z" transform="translate(295.93435,291.90669)"/>
    <path sodipodi:type="arc" style="opacity:0.84185839;fill:none;stroke:#ff0000;stroke-width:1;stroke-miterlimit:4;stroke-dasharray:none" id="path3134-23" sodipodi:cx="430.71429" sodipodi:cy="242.29871" sodipodi:rx="9.7012987" sodipodi:ry="9" d="m 440.41559,242.29871 a 9.7012987,9 0 1 1 -19.40259,0 9.7012987,9 0 1 1 19.40259,0 z" transform="translate(454.62013,238.01965)"/>
    <path sodipodi:type="arc" style="opacity:0.84185839;fill:none;stroke:#ff0000;stroke-width:1;stroke-miterlimit:4;stroke-dasharray:none" id="path3134-22" sodipodi:cx="430.71429" sodipodi:cy="242.29871" sodipodi:rx="9.7012987" sodipodi:ry="9" d="m 440.41559,242.29871 a 9.7012987,9 0 1 1 -19.40259,0 9.7012987,9 0 1 1 19.40259,0 z" transform="translate(349.4908,121.31948)"/>
    <path sodipodi:type="arc" style="opacity:0.84185839;fill:none;stroke:#ff0000;stroke-width:1;stroke-miterlimit:4;stroke-dasharray:none" id="path3134-16" sodipodi:cx="430.71429" sodipodi:cy="242.29871" sodipodi:rx="9.7012987" sodipodi:ry="9" d="m 440.41559,242.29871 a 9.7012987,9 0 1 1 -19.40259,0 9.7012987,9 0 1 1 19.40259,0 z" transform="translate(405.36142,71.399574)"/>
    <path sodipodi:type="arc" style="opacity:0.84185839;fill:none;stroke:#ff0000;stroke-width:1;stroke-miterlimit:4;stroke-dasharray:none" id="path3134-57" sodipodi:cx="430.71429" sodipodi:cy="242.29871" sodipodi:rx="9.7012987" sodipodi:ry="9" d="m 440.41559,242.29871 a 9.7012987,9 0 1 1 -19.40259,0 9.7012987,9 0 1 1 19.40259,0 z" transform="translate(231.79884,73.052551)"/>
    <path sodipodi:type="arc" style="opacity:0.84185839;fill:none;stroke:#ff0000;stroke-width:1;stroke-miterlimit:4;stroke-dasharray:none" id="path3134-18" sodipodi:cx="430.71429" sodipodi:cy="242.29871" sodipodi:rx="9.7012987" sodipodi:ry="9" d="m 440.41559,242.29871 a 9.7012987,9 0 1 1 -19.40259,0 9.7012987,9 0 1 1 19.40259,0 z" transform="matrix(1.1931875,0,0,1.2449739,103.95986,-110.60816)"/>
    <path sodipodi:type="arc" style="opacity:0.84185839;fill:none;stroke:#ff0000;stroke-width:1;stroke-miterlimit:4;stroke-dasharray:none" id="path3134-9" sodipodi:cx="430.71429" sodipodi:cy="242.29871" sodipodi:rx="9.7012987" sodipodi:ry="9" d="m 440.41559,242.29871 a 9.7012987,9 0 1 1 -19.40259,0 9.7012987,9 0 1 1 19.40259,0 z" transform="translate(246.34504,-139.52027)"/>
    <path sodipodi:type="arc" style="opacity:0.84185839;fill:none;stroke:#ff0000;stroke-width:1;stroke-miterlimit:4;stroke-dasharray:none" id="path3134-27" sodipodi:cx="430.71429" sodipodi:cy="242.29871" sodipodi:rx="9.7012987" sodipodi:ry="9" d="m 440.41559,242.29871 a 9.7012987,9 0 1 1 -19.40259,0 9.7012987,9 0 1 1 19.40259,0 z" transform="translate(266.84195,-111.41967)"/>
    <path sodipodi:type="arc" style="opacity:0.84185839;fill:none;stroke:#ff0000;stroke-width:1;stroke-miterlimit:4;stroke-dasharray:none" id="path3134-1-9" sodipodi:cx="430.71429" sodipodi:cy="242.29871" sodipodi:rx="9.7012987" sodipodi:ry="9" d="m 440.41559,242.29871 a 9.7012987,9 0 1 1 -19.40259,0 9.7012987,9 0 1 1 19.40259,0 z" transform="matrix(1.4191749,0,0,1.5069371,33.732667,46.425602)"/>
    <path sodipodi:type="arc" style="opacity:0.84185839;fill:none;stroke:#ff0000;stroke-width:1;stroke-miterlimit:4;stroke-dasharray:none" id="path3134-1-5" sodipodi:cx="430.71429" sodipodi:cy="242.29871" sodipodi:rx="9.7012987" sodipodi:ry="9" d="m 440.41559,242.29871 a 9.7012987,9 0 1 1 -19.40259,0 9.7012987,9 0 1 1 19.40259,0 z" transform="matrix(1.4191749,0,0,1.5069371,37.369217,-98.044578)"/>
    <path sodipodi:type="arc" style="opacity:0.84185839;fill:none;stroke:#ff0000;stroke-width:1;stroke-miterlimit:4;stroke-dasharray:none" id="path3134-1-4" sodipodi:cx="430.71429" sodipodi:cy="242.29871" sodipodi:rx="9.7012987" sodipodi:ry="9" d="m 440.41559,242.29871 a 9.7012987,9 0 1 1 -19.40259,0 9.7012987,9 0 1 1 19.40259,0 z" transform="matrix(1.4191749,0,0,1.5069371,190.10428,-96.391601)"/>
    <path sodipodi:type="arc" style="opacity:0.84185839;fill:none;stroke:#ff0000;stroke-width:1;stroke-miterlimit:4;stroke-dasharray:none" id="path3134-1-3" sodipodi:cx="430.71429" sodipodi:cy="242.29871" sodipodi:rx="9.7012987" sodipodi:ry="9" d="m 440.41559,242.29871 a 9.7012987,9 0 1 1 -19.40259,0 9.7012987,9 0 1 1 19.40259,0 z" transform="matrix(1.4191749,0,0,1.5069371,221.18025,123.45433)"/>
  </g>
  <g inkscape:groupmode="layer" id="layer0" inkscape:label="0-Water Wash" sodipodi:insensitive="true">
    <path transform="matrix(1.199434,0,0,1.1845192,-59.302018,-11.189764)" style="opacity:0.84185839;fill:none;stroke:#e9afaf;stroke-width:1;stroke-miterlimit:4" d="m 408.55168,209.29385 c -3.1408,-1.81747 -5.22533,-5.01637 -5.22533,-8.65919 -1.71383,-6.18824 2.75696,-13.38574 11.44696,-12.62078 7.22882,-0.3521 16.32189,5.72197 12.27384,13.24875 0,5.66007 -6.27275,9.62049 -12.48056,9.62049" id="path3379" inkscape:connector-curvature="0" sodipodi:nodetypes="ccccc"/>
    <path transform="matrix(1.199434,0,0,1.1845192,-46.076431,7.3314069)" style="opacity:0.84185839;fill:none;stroke:#e9afaf;stroke-width:1;stroke-miterlimit:4" d="m 404.20532,196.65486 c 1.70393,-3.68331 5.70146,-6.26866 10.36127,-6.26866 10.114,-0.61803 14.76489,4.23351 12.9629,10.17869 1.48621,8.41982 -6.74516,10.33667 -12.9629,10.31823 -6.20782,0 -11.24024,-4.58839 -11.24024,-10.24846" id="path3379-1" inkscape:connector-curvature="0" sodipodi:nodetypes="ccccc"/>
    <path transform="matrix(1.199434,0,0,1.1845192,-59.634872,24.630108)" style="opacity:0.84185839;fill:none;stroke:#e9afaf;stroke-width:1;stroke-miterlimit:4" d="m 414.56659,190.3862 c 8.10369,-1.27984 11.31169,4.54016 11.24024,10.24846 0.93122,6.46831 -4.75522,10.48906 -11.24024,10.24846 -6.26397,-1.02645 -14.13749,-2.88397 -11.24024,-10.24846 0,-4.01884 2.53708,-7.49739 6.23058,-9.17681" id="path3379-2" inkscape:connector-curvature="0" sodipodi:nodetypes="ccccc"/>
    <path transform="matrix(1.199434,0,0,1.1845192,-82.543963,13.409329)" style="opacity:0.84185839;fill:none;stroke:#e9afaf;stroke-width:1;stroke-miterlimit:4" d="m 425.67597,199.06588 c 0.0862,0.51145 0.13086,1.03536 0.13086,1.56878 0,5.66007 -4.61899,11.15552 -10.8268,11.15552 -3.67223,-0.17091 -8.2241,-1.99871 -7.83666,-5.9769 -3.41475,0.63507 -3.9183,-3.06159 -3.81702,-5.17862 0,-5.66007 5.03242,-10.24846 11.24024,-10.24846 3.02107,0 5.76377,1.08669 7.78355,2.85474" id="path3379-3" inkscape:connector-curvature="0" sodipodi:nodetypes="ccccccc"/>
    <path transform="matrix(1.199434,0,0,1.1845192,-80.9076,-7.1620996)" style="opacity:0.84185839;fill:none;stroke:#e9afaf;stroke-width:1;stroke-miterlimit:4" d="m 420.89003,209.10877 c -1.80156,1.11973 -3.97865,1.77435 -6.32344,1.77435 -6.60154,0 -13.66992,-4.58839 -11.24024,-10.24846 -1.09394,-5.66007 3.74102,-10.24846 11.24024,-10.24846 6.20781,0 11.24024,4.58839 11.24024,10.24846 0,2.06282 -0.66843,3.9833 -1.81859,5.59119" id="path3379-34" inkscape:connector-curvature="0" sodipodi:nodetypes="cccccc"/>
    <path style="opacity:0.84185839;fill:none;stroke:#e9afaf;stroke-width:1.5412699;stroke-miterlimit:4" d="m 340.84658,398.36489 c 5.09288,-1.97432 9.03513,-6.42179 10.06274,-12.15685 4.24494,-9.25842 -0.24439,-21.85238 -13.13269,-23.10223 -10.44236,-2.59583 -25.41613,4.39884 -21.63617,17.39182 -1.59668,8.91089 6.43358,16.91747 15.48633,18.67063" id="path3379-31" inkscape:connector-curvature="0" sodipodi:nodetypes="ccccc"/>
    <path style="opacity:0.84185839;fill:none;stroke:#e9afaf;stroke-width:1.5412699;stroke-miterlimit:4" d="m 330.25954,401.1967 c -1.44579,-6.28002 -6.54599,-11.4792 -13.34135,-12.79519 -14.57475,-3.82931 -22.72568,2.49522 -21.77498,12.36389 -4.54251,12.83597 6.92046,18.1784 15.9929,19.90533 9.05278,1.75317 17.68586,-4.04932 19.28253,-12.96023" id="path3379-1-9" inkscape:connector-curvature="0" sodipodi:nodetypes="ccccc"/>
    <path style="opacity:0.84185839;fill:none;stroke:#e9afaf;stroke-width:1.5412699;stroke-miterlimit:4" d="m 329.283,414.58561 c -11.45647,-4.30348 -17.77644,3.95323 -19.28254,12.96024 -3.18266,9.92036 3.97557,17.85633 13.50046,19.309 9.42421,0.15302 21.43005,-0.54778 19.28252,-12.96024 1.13369,-6.32704 -1.58481,-12.51999 -6.49724,-16.20705" id="path3379-2-8" inkscape:connector-curvature="0" sodipodi:nodetypes="ccccc"/>
    <path style="opacity:0.84185839;fill:none;stroke:#e9afaf;stroke-width:1.5412699;stroke-miterlimit:4" d="m 348.21507,405.02932 c 2.31131,2.27162 5.30147,3.91704 8.72085,4.57924 9.62692,1.86435 21.22902,-3.36316 19.28253,-12.96023 3.19197,-8.60196 -2.56444,-17.19112 -13.50045,-19.30899 -9.05276,-1.75317 -17.68584,4.04933 -19.28252,12.96023 -0.58191,3.2476 -0.14892,6.45988 1.07476,9.31606" id="path3379-34-5" inkscape:connector-curvature="0" sodipodi:nodetypes="cccccc"/>
    <path style="opacity:0.84185839;fill:none;stroke:#e9afaf;stroke-width:0.99653608;stroke-miterlimit:4" d="m 370.0138,429.35771 c -3.46135,-1.00829 -6.31071,-3.6339 -7.31997,-7.21048 -3.32846,-5.6522 -1.1122,-13.82364 7.28347,-15.22002 6.71015,-2.13204 16.95632,1.58454 15.22942,9.9748 1.56813,5.55715 -3.24194,10.99565 -9.0881,12.52969" id="path3379-0" inkscape:connector-curvature="0" sodipodi:nodetypes="ccccc"/>
    <path style="opacity:0.84185839;fill:none;stroke:#e9afaf;stroke-width:0.99653608;stroke-miterlimit:4" d="m 377.13514,430.64948 c 0.5842,-4.0374 3.63257,-7.5636 8.02091,-8.71511 9.35357,-3.10612 15.07763,0.5079 15.02777,6.79028 3.73236,7.89945 -3.4884,11.81557 -9.34904,13.33395 -5.84618,1.53405 -11.85665,-1.72732 -13.42478,-7.28447" id="path3379-1-2" inkscape:connector-curvature="0" sodipodi:nodetypes="ccccc"/>
    <path style="opacity:0.84185839;fill:none;stroke:#e9afaf;stroke-width:0.99653608;stroke-miterlimit:4" d="m 378.55663,439.06622 c 7.27701,-3.25912 11.91058,1.66231 13.4248,7.28447 2.66903,6.12059 -1.57217,11.47343 -7.74606,12.83976 -6.18344,0.54014 -14.1129,0.66205 -13.42479,-7.28448 -1.11344,-3.94578 0.3121,-7.98801 3.32515,-10.54962" id="path3379-2-86" inkscape:connector-curvature="0" sodipodi:nodetypes="ccccc"/>
    <path style="opacity:0.84185839;fill:none;stroke:#e9afaf;stroke-width:0.99653608;stroke-miterlimit:4" d="m 370.81184,440.26205 c 0.22287,0.48085 0.41008,0.9842 0.55787,1.50792 1.56814,5.55715 -1.25922,12.0941 -7.10539,13.62815 -3.50566,0.73966 -8.29875,0.0699 -9.03605,-3.93166 -3.03986,1.46735 -4.53825,-2.03766 -5.0294,-4.14123 -1.56813,-5.55714 1.89989,-11.30569 7.74605,-12.83974 2.84508,-0.74655 5.72907,-0.35738 8.12102,0.87939" id="path3379-3-0" inkscape:connector-curvature="0" sodipodi:nodetypes="ccccccc"/>
    <path style="opacity:0.84185839;fill:none;stroke:#e9afaf;stroke-width:0.99653608;stroke-miterlimit:4" d="m 365.56037,433.91676 c -1.38638,1.54456 -3.25527,2.72526 -5.46347,3.3047 -6.21695,1.63134 -14.14478,-1.12691 -13.42479,-7.28447 -2.59834,-5.28684 0.68373,-10.98659 7.74605,-12.83975 5.84618,-1.53405 11.85666,1.72731 13.4248,7.28447 0.57151,2.02531 0.4741,4.07605 -0.16359,5.93893" id="path3379-34-2" inkscape:connector-curvature="0" sodipodi:nodetypes="cccccc"/>
    <path style="opacity:0.84185839;fill:none;stroke:#e9afaf;stroke-width:0.87529624;stroke-miterlimit:4" d="m 533.75207,373.53464 c -3.32272,-1.3162 -5.52799,-3.63284 -5.52799,-6.27095 -1.8131,-4.4815 2.91665,-9.6939 12.11001,-9.13992 7.64753,-0.25499 17.26731,4.14383 12.98478,9.59469 0,4.099 -6.6361,6.96711 -13.20348,6.96711" id="path3379-4" inkscape:connector-curvature="0" sodipodi:nodetypes="ccccc"/>
    <path style="opacity:0.84185839;fill:none;stroke:#e9afaf;stroke-width:0.87529624;stroke-miterlimit:4" d="m 540.81918,375.70508 c 1.80262,-2.66744 6.0317,-4.53974 10.96143,-4.53974 10.69982,-0.44758 15.62012,3.06588 13.71375,7.37136 1.5723,6.0976 -7.13587,7.48577 -13.71375,7.47243 -6.5674,0 -11.89131,-3.32291 -11.89131,-7.4219" id="path3379-1-8" inkscape:connector-curvature="0" sodipodi:nodetypes="ccccc"/>
    <path style="opacity:0.84185839;fill:none;stroke:#e9afaf;stroke-width:0.87529624;stroke-miterlimit:4" d="m 539.8218,381.74148 c 8.57309,-0.92685 11.9669,3.28796 11.89132,7.4219 0.98516,4.68432 -5.03066,7.59612 -11.89132,7.42189 -6.62679,-0.74336 -14.95638,-2.08856 -11.8913,-7.42189 0,-2.91043 2.68403,-5.42959 6.59148,-6.64582" id="path3379-2-6" inkscape:connector-curvature="0" sodipodi:nodetypes="ccccc"/>
    <path style="opacity:0.84185839;fill:none;stroke:#e9afaf;stroke-width:0.87529624;stroke-miterlimit:4" d="m 531.36842,381.16707 c 0.0912,0.37039 0.13845,0.7498 0.13845,1.1361 0,4.099 -4.88654,8.07878 -11.45392,8.07878 -3.88494,-0.12377 -8.70047,-1.44746 -8.29059,-4.32845 -3.61255,0.45992 -4.14526,-2.21719 -4.03811,-3.75033 0,-4.099 5.32391,-7.42189 11.8913,-7.42189 3.19607,0 6.09764,0.78698 8.2344,2.06739" id="path3379-3-5" inkscape:connector-curvature="0" sodipodi:nodetypes="ccccccc"/>
    <path style="opacity:0.84185839;fill:none;stroke:#e9afaf;stroke-width:0.87529624;stroke-miterlimit:4" d="m 527.74857,375.86305 c -1.90591,0.8109 -4.2091,1.28498 -6.6897,1.28498 -6.98393,0 -14.46174,-3.3229 -11.89132,-7.42189 -1.1573,-4.099 3.95772,-7.42189 11.89132,-7.42189 6.56737,0 11.8913,3.32289 11.8913,7.42189 0,1.49388 -0.70715,2.88468 -1.92393,4.04911" id="path3379-34-0" inkscape:connector-curvature="0" sodipodi:nodetypes="cccccc"/>
    <path style="opacity:0.84185839;fill:none;stroke:#e9afaf;stroke-width:1.1919533;stroke-miterlimit:4" d="m 629.74697,454.75293 c -0.62201,-4.29411 0.82541,-8.5969 4.22618,-11.2528 4.51183,-6.13182 14.53171,-7.1531 20.23306,1.61938 5.66545,6.57678 6.70802,19.60105 -3.30717,21.262 -5.284,4.12665 -13.61219,1.08441 -18.19517,-4.78391" id="path3379-9" inkscape:connector-curvature="0" sodipodi:nodetypes="ccccc"/>
    <path style="opacity:0.84185839;fill:none;stroke:#e9afaf;stroke-width:1.1919533;stroke-miterlimit:4" d="m 631.88077,463.25285 c 4.69652,-1.07468 10.0613,0.8193 13.50146,5.22427 8.04373,9.11028 6.94811,17.04399 0.0676,19.67506 -6.76317,7.54365 -14.62956,1.15998 -19.20264,-4.73117 -4.58299,-5.86832 -4.01471,-13.97083 1.26929,-18.09747" id="path3379-1-0" inkscape:connector-curvature="0" sodipodi:nodetypes="ccccc"/>
    <path style="opacity:0.84185839;fill:none;stroke:#e9afaf;stroke-width:1.1919533;stroke-miterlimit:4" d="m 623.40326,468.43876 c 7.17744,6.72741 4.11247,14.00321 -1.2693,18.09748 -5.35105,5.59621 -13.30271,3.1522 -17.86574,-3.15358 -3.66619,-6.66977 -7.74479,-15.46698 1.2693,-18.09748 3.75182,-2.93006 8.87226,-3.06786 13.16687,-0.80079" id="path3379-2-0" inkscape:connector-curvature="0" sodipodi:nodetypes="ccccc"/>
    <path style="opacity:0.84185839;fill:none;stroke:#e9afaf;stroke-width:1.1919533;stroke-miterlimit:4" d="m 618.24464,460.30692 c -0.41383,0.45438 -0.86996,0.87857 -1.36794,1.26748 -5.28399,4.12664 -13.82432,3.76688 -18.4073,-2.10143 -2.55151,-3.59602 -4.20562,-9.23156 -0.20572,-11.76573 -3.11385,-2.76499 -0.0346,-5.93616 2.01658,-7.3839 5.284,-4.12664 13.28275,-2.71475 17.86574,3.15358 2.23034,2.85585 3.24068,6.24085 3.08122,9.43922" id="path3379-3-6" inkscape:connector-curvature="0" sodipodi:nodetypes="ccccccc"/>
    <path style="opacity:0.84185839;fill:none;stroke:#e9afaf;stroke-width:1.1919533;stroke-miterlimit:4" d="m 622.55594,451.73261 c -2.37535,-0.88667 -4.59373,-2.46743 -6.3248,-4.68398 -4.87365,-6.24051 -5.80843,-16.26764 1.2693,-18.09748 4.47638,-5.16076 12.32937,-3.93552 17.86574,3.15358 4.58298,5.86831 4.0147,13.97083 -1.2693,18.09747 -1.92576,1.50396 -4.21211,2.27227 -6.56228,2.35729" id="path3379-34-1" inkscape:connector-curvature="0" sodipodi:nodetypes="cccccc"/>
    <path style="opacity:0.84185839;fill:none;stroke:#e9afaf;stroke-width:1.95609176;stroke-miterlimit:4" d="m 652.9949,420.43715 c 6.17072,-2.85416 13.05734,-2.15869 18.15986,2.5757 10.64596,5.19622 15.56752,21.97551 4.46638,35.41365 -5.4342,8.62765 -16.21294,14.73675 -24.28009,12.20446" id="path3379-38" inkscape:connector-curvature="0" sodipodi:nodetypes="cccc"/>
    <path style="opacity:0.84185839;fill:none;stroke:#e9afaf;stroke-width:1.95609176;stroke-miterlimit:4" d="m 635.17502,413.83511 c -7.56031,15.12192 -24.0903,14.2884 -32.00349,6.75094 -10.13501,-6.85996 -9.20381,-21.52954 -1.38204,-31.98716 8.6674,-9.06914 20.35656,-19.73131 27.32816,-5.34831 5.62921,5.22308 7.57345,13.95754 5.66293,22.27436" id="path3379-2-4" inkscape:connector-curvature="0" sodipodi:nodetypes="ccccc"/>
    <path style="opacity:0.84185839;fill:none;stroke:#e9afaf;stroke-width:1.95609176;stroke-miterlimit:4" d="m 640.83306,402.9979 c -0.81589,-0.52154 -1.60128,-1.12825 -2.34842,-1.82151 -7.92812,-7.35611 -10.29457,-22.16948 -3.12977,-32.47937 4.47776,-5.8767 12.29157,-11.06094 17.41668,-5.24722 3.05164,-6.49658 8.81073,-2.52852 11.65919,0.3911 7.9281,7.35609 8.54685,21.6772 1.38202,31.98713 -3.48681,5.01738 -8.17444,8.16013 -12.98213,9.21673" id="path3379-3-4" inkscape:connector-curvature="0" sodipodi:nodetypes="ccccccc"/>
    <path style="opacity:0.84185839;fill:none;stroke:#e9afaf;stroke-width:1.95609176;stroke-miterlimit:4" d="m 655.04102,406.83387 c 0.51087,-4.44727 2.10666,-8.91375 4.81294,-12.80796 7.61923,-10.96382 22.20427,-16.73967 27.32814,-5.34835 9.19069,5.5393 10.03734,19.53248 1.38203,31.98714 -7.16482,10.30989 -19.40004,12.70444 -27.32815,5.34835 -2.8894,-2.68095 -4.80796,-6.28702 -5.73268,-10.28691" id="path3379-34-6" inkscape:connector-curvature="0" sodipodi:nodetypes="cccccc"/>
    <path style="opacity:0.84185839;fill:none;stroke:#e9afaf;stroke-width:0.78796905;stroke-miterlimit:4" d="m 725.09275,529.67003 c -2.40857,-1.47153 -4.00712,-4.06153 -4.00712,-7.01096 -1.31427,-5.01033 2.11422,-10.83781 8.77827,-10.21846 5.54353,-0.28508 12.51668,4.63281 9.41237,10.72691 0,4.5827 -4.81035,7.78927 -9.5709,7.78927" id="path3379-06" inkscape:connector-curvature="0" sodipodi:nodetypes="ccccc"/>
    <path style="opacity:0.84185839;fill:none;stroke:#e9afaf;stroke-width:0.78796905;stroke-miterlimit:4" d="m 730.21553,532.09659 c 1.30669,-2.98221 4.37225,-5.07545 7.9457,-5.07545 7.75606,-0.50039 11.32267,3.42768 9.94078,8.24122 1.13972,6.81714 -5.17262,8.36913 -9.94078,8.3542 -4.76056,0 -8.61975,-3.71501 -8.61975,-8.29771" id="path3379-1-6" inkscape:connector-curvature="0" sodipodi:nodetypes="ccccc"/>
    <path style="opacity:0.84185839;fill:none;stroke:#e9afaf;stroke-width:0.78796905;stroke-miterlimit:4" d="m 729.49256,538.84532 c 6.21444,-1.03623 8.67453,3.67596 8.61974,8.29771 0.71412,5.23709 -3.64661,8.49251 -8.61974,8.29771 -4.80361,-0.83107 -10.84154,-2.33502 -8.61974,-8.29771 0,-3.25387 1.9456,-6.0703 4.77801,-7.43004" id="path3379-2-1" inkscape:connector-curvature="0" sodipodi:nodetypes="ccccc"/>
    <path style="opacity:0.84185839;fill:none;stroke:#e9afaf;stroke-width:0.78796905;stroke-miterlimit:4" d="m 723.3649,538.20312 c 0.0661,0.4141 0.10035,0.83829 0.10035,1.27017 0,4.5827 -3.54214,9.03211 -8.30269,9.03211 -2.8161,-0.13837 -6.30677,-1.61826 -6.00966,-4.83922 -2.61864,0.51419 -3.0048,-2.47883 -2.92713,-4.19289 0,-4.58269 3.85919,-8.29771 8.61974,-8.29771 2.31675,0 4.42003,0.87984 5.96893,2.31135" id="path3379-3-8" inkscape:connector-curvature="0" sodipodi:nodetypes="ccccccc"/>
    <path style="opacity:0.84185839;fill:none;stroke:#e9afaf;stroke-width:0.78796905;stroke-miterlimit:4" d="m 720.74095,532.2732 c -1.38155,0.9066 -3.05108,1.43662 -4.84922,1.43662 -5.06249,0 -10.48298,-3.71501 -8.61975,-8.29771 -0.8389,-4.5827 2.86886,-8.29771 8.61975,-8.29771 4.76055,0 8.61974,3.71501 8.61974,8.29771 0,1.67017 -0.51259,3.22509 -1.39461,4.52693" id="path3379-34-4" inkscape:connector-curvature="0" sodipodi:nodetypes="cccccc"/>
    <path style="opacity:0.84185839;fill:none;stroke:#e9afaf;stroke-width:0.88171333;stroke-miterlimit:4" d="m 780.16017,359.57107 c -2.83708,-1.5642 -4.72002,-4.31732 -4.72002,-7.45249 -1.54811,-5.32588 2.49035,-11.52036 10.34,-10.862 6.52979,-0.30303 14.74353,4.92458 11.08694,11.40247 0,4.87131 -5.66617,8.27981 -11.27366,8.27981" id="path3379-96" inkscape:connector-curvature="0" sodipodi:nodetypes="ccccc"/>
    <path style="opacity:0.84185839;fill:none;stroke:#e9afaf;stroke-width:0.88171333;stroke-miterlimit:4" d="m 786.19435,362.15046 c 1.53915,-3.17003 5.15012,-5.3951 9.3593,-5.3951 9.13596,-0.5319 13.33709,3.64355 11.70937,8.76023 1.34249,7.24649 -6.09289,8.89621 -11.70937,8.88034 -5.6075,0 -10.15327,-3.94897 -10.15327,-8.82029" id="path3379-1-3" inkscape:connector-curvature="0" sodipodi:nodetypes="ccccc"/>
    <path style="opacity:0.84185839;fill:none;stroke:#e9afaf;stroke-width:0.88171333;stroke-miterlimit:4" d="m 785.34275,369.32421 c 7.32004,-1.10149 10.21783,3.90746 10.15328,8.82028 0.84117,5.56692 -4.29537,9.02735 -10.15328,8.82028 -5.65823,-0.88341 -12.77035,-2.48207 -10.15328,-8.82028 0,-3.45879 2.29174,-6.4526 5.62808,-7.89797" id="path3379-2-7" inkscape:connector-curvature="0" sodipodi:nodetypes="ccccc"/>
    <path style="opacity:0.84185839;fill:none;stroke:#e9afaf;stroke-width:0.88171333;stroke-miterlimit:4" d="m 778.12492,368.64156 c 0.0779,0.44018 0.11821,0.89108 0.11821,1.35017 0,4.8713 -4.17233,9.60094 -9.77983,9.60094 -3.31711,-0.14709 -7.42881,-1.72018 -7.07883,-5.14399 -3.08454,0.54657 -3.53939,-2.63494 -3.44791,-4.45695 0,-4.87131 4.54578,-8.82028 10.15328,-8.82028 2.72893,0 5.2064,0.93524 7.03087,2.45691" id="path3379-3-88" inkscape:connector-curvature="0" sodipodi:nodetypes="ccccccc"/>
    <path style="opacity:0.84185839;fill:none;stroke:#e9afaf;stroke-width:0.88171333;stroke-miterlimit:4" d="m 775.03414,362.33819 c -1.62734,0.9637 -3.59391,1.52709 -5.71195,1.52709 -5.96315,0 -12.348,-3.94897 -10.15327,-8.82028 -0.98816,-4.87131 3.37924,-8.82029 10.15327,-8.82029 5.6075,0 10.15329,3.94898 10.15329,8.82029 0,1.77535 -0.6038,3.42819 -1.64274,4.81202" id="path3379-34-29" inkscape:connector-curvature="0" sodipodi:nodetypes="cccccc"/>
    <path style="opacity:0.84185839;fill:none;stroke:#e9afaf;stroke-width:1.1919533;stroke-miterlimit:4" d="m 878.62373,478.45055 c -3.65964,2.33095 -8.17723,2.77864 -11.99562,0.76891 -7.44392,-1.59498 -12.49074,-10.31109 -6.83431,-19.11259 3.66927,-7.86689 15.11587,-14.16718 20.744,-5.71811 5.93287,3.12264 6.57994,11.96546 3.112,18.55439" id="path3379-13" inkscape:connector-curvature="0" sodipodi:nodetypes="ccccc"/>
    <path style="opacity:0.84185839;fill:none;stroke:#e9afaf;stroke-width:1.1919533;stroke-miterlimit:4" d="m 885.49704,473.01372 c -2.90894,-3.84061 -3.3857,-9.5099 -0.78254,-14.4558 5.0023,-11.07592 12.68585,-13.33577 17.91091,-8.14322 9.65589,3.06773 7.06673,12.86199 3.57391,19.4513 -3.46796,6.58895 -11.08882,9.39893 -17.02169,6.27629" id="path3379-1-5" inkscape:connector-curvature="0" sodipodi:nodetypes="ccccc"/>
    <path style="opacity:0.84185839;fill:none;stroke:#e9afaf;stroke-width:1.1919533;stroke-miterlimit:4" d="m 893.70744,478.61293 c 3.18555,-9.3073 11.07818,-9.50139 17.02169,-6.2763 7.30028,2.58016 8.33813,10.83394 4.46312,17.58438 -4.57524,6.08226 -10.92078,13.41438 -17.02168,6.27629 -4.21254,-2.21718 -6.44142,-6.82912 -6.13844,-11.67592" id="path3379-2-9" inkscape:connector-curvature="0" sodipodi:nodetypes="ccccc"/>
    <path style="opacity:0.84185839;fill:none;stroke:#e9afaf;stroke-width:1.1919533;stroke-miterlimit:4" d="m 888.41218,486.65646 c 0.58425,0.19067 1.15836,0.4323 1.71749,0.72659 5.93287,3.12264 9.11282,11.05704 5.64487,17.64598 -2.23061,3.80339 -6.68938,7.62634 -10.64286,5.02036 -1.24195,3.97476 -5.39808,2.46979 -7.56057,1.19434 -5.93287,-3.12264 -7.93108,-10.99543 -4.46313,-17.58438 1.6877,-3.20654 4.35896,-5.51811 7.34057,-6.68647" id="path3379-3-84" inkscape:connector-curvature="0" sodipodi:nodetypes="ccccccc"/>
    <path style="opacity:0.84185839;fill:none;stroke:#e9afaf;stroke-width:1.1919533;stroke-miterlimit:4" d="m 878.82369,486.24756 c 0.16726,2.52992 -0.36278,5.20183 -1.67268,7.69058 -3.68791,7.00684 -12.44615,11.97778 -17.02169,6.27629 -6.54399,-1.96154 -8.65251,-9.62473 -4.46313,-17.58437 3.46795,-6.58894 11.08883,-9.39894 17.02169,-6.2763 2.16224,1.13805 3.80187,2.90704 4.84473,5.01488" id="path3379-34-07" inkscape:connector-curvature="0" sodipodi:nodetypes="cccccc"/>
    <path style="opacity:0.84185839;fill:none;stroke:#e9afaf;stroke-width:1.82084107;stroke-miterlimit:4" d="m 833.05412,478.21031 c -4.9931,-4.19016 -7.57632,-10.51366 -6.24052,-16.98986 -0.81904,-11.52472 9.87635,-22.95519 25.25477,-18.94169 5.38797,0.6477 10.94416,3.30734 14.93615,7.05662" id="path3379-6" inkscape:connector-curvature="0" sodipodi:nodetypes="cccc"/>
    <path style="opacity:0.84185839;fill:none;stroke:#e9afaf;stroke-width:1.82084107;stroke-miterlimit:4" d="m 876.74678,512.65234 c -5.55729,2.65761 -13.09553,2.45511 -19.30128,1.38469 -11.18616,-1.8956 -18.57178,-11.5895 -16.49629,-21.65193" id="path3379-1-36" inkscape:connector-curvature="0" sodipodi:nodetypes="ccc"/>
    <path style="opacity:0.84185839;fill:none;stroke:#e9afaf;stroke-width:1.82084107;stroke-miterlimit:4" d="m 839.23712,500.10884 c 15.07173,0.19923 18.71823,11.52556 16.4963,21.65194 -0.69388,11.78365 -12.41493,17.19532 -24.01236,14.78735 -10.91097,-3.73758 -24.41749,-9.44408 -16.4963,-21.65192 1.47369,-7.14468 7.32092,-12.55411 14.59226,-14.41193" id="path3379-2-15" inkscape:connector-curvature="0" sodipodi:nodetypes="ccccc"/>
    <path style="opacity:0.84185839;fill:none;stroke:#e9afaf;stroke-width:1.82084107;stroke-miterlimit:4" d="m 825.12943,496.25878 c -0.0322,0.93557 -0.14384,1.88061 -0.33943,2.82893 -2.07552,10.06242 -12.41385,18.42174 -23.6,16.52615 -6.55448,-1.42518 -14.08649,-6.06459 -11.92955,-13.01868 -6.3861,0.0863 -5.93793,-6.63933 -4.97912,-10.37205 2.07551,-10.06242 12.82619,-16.68295 24.01235,-14.78735 5.44383,0.9225 9.98754,3.69191 12.97875,7.45189" id="path3379-3-42" inkscape:connector-curvature="0" sodipodi:nodetypes="ccccccc"/>
    <path style="opacity:0.84185839;fill:none;stroke:#e9afaf;stroke-width:1.82084107;stroke-miterlimit:4" d="m 821.64945,482.19337 c -3.65693,1.44054 -7.81996,1.93954 -12.04515,1.22353 -11.89566,-2.01583 -22.94995,-12.33141 -16.49631,-21.65193 0.10429,-10.39647 10.49917,-17.07729 24.01238,-14.78736 11.18614,1.89561 18.57179,11.58951 16.49628,21.65194 -0.75641,3.66725 -2.66513,6.87736 -5.32724,9.38466" id="path3379-34-09" inkscape:connector-curvature="0" sodipodi:nodetypes="cccccc"/>
    <path style="opacity:0.84185839;fill:none;stroke:#e9afaf;stroke-width:1.84367061;stroke-miterlimit:4" d="m 800.1997,257.47064 c -5.84259,-3.38328 -9.58656,-9.19247 -9.34218,-15.70737 -2.83947,-11.13969 6.13362,-23.82268 22.58496,-22.0869 13.75145,-0.3238 30.61202,10.92398 22.41965,24.21372 -0.37974,10.1226 -12.55764,16.94006 -24.34648,16.6774" id="path3379-13-3" inkscape:connector-curvature="0" sodipodi:nodetypes="ccccc"/>
    <path style="opacity:0.84185839;fill:none;stroke:#e9afaf;stroke-width:1.84367061;stroke-miterlimit:4" d="m 812.6845,263.11328 c 3.48295,-6.5152 11.24787,-10.96973 20.09703,-10.77255 19.24836,-0.67734 27.75508,8.19606 23.93418,18.7523 2.25747,15.12108 -13.50281,18.20091 -25.30932,17.90484 -11.78891,-0.26271 -21.03782,-8.68161 -20.65807,-18.8042" id="path3379-1-5-7" inkscape:connector-curvature="0" sodipodi:nodetypes="ccccc"/>
    <path style="opacity:0.84185839;fill:none;stroke:#e9afaf;stroke-width:1.84367061;stroke-miterlimit:4" d="m 808.9598,314.63762 c -11.82667,-2.1008 -26.65416,-5.75601 -20.65806,-18.8042 0.26961,-7.18739 5.32099,-13.30114 12.44777,-16.14837" id="path3379-2-9-2" inkscape:connector-curvature="0" sodipodi:nodetypes="ccc"/>
    <path style="opacity:0.84185839;fill:none;stroke:#e9afaf;stroke-width:1.84367061;stroke-miterlimit:4" d="m 795.2138,276.22384 c 0.12943,0.91831 0.1791,1.85715 0.14337,2.81114 -0.37972,10.12259 -9.52005,19.75532 -21.30893,19.49264 -6.96226,-0.46106 -15.48382,-3.92252 -14.48114,-11.02081 -6.52736,0.99127 -7.2356,-5.64123 -6.90124,-9.42309 0.37973,-10.12258 10.24435,-18.11561 22.03323,-17.85292 5.73713,0.12782 10.87273,2.18735 14.58974,5.43485" id="path3379-3-84-6" inkscape:connector-curvature="0" sodipodi:nodetypes="ccccccc"/>
    <path style="opacity:0.84185839;fill:none;stroke:#e9afaf;stroke-width:1.84367061;stroke-miterlimit:4" d="m 789.20732,262.98062 c -3.49637,1.92631 -7.67468,3.00493 -12.12753,2.90571 -12.53658,-0.27934 -25.65187,-8.78443 -20.65808,-18.8042 -1.69769,-10.16888 7.79192,-18.17027 22.03323,-17.85293 11.78889,0.26268 21.03784,8.68161 20.65809,18.8042 -0.13837,3.68918 -1.53662,7.09553 -3.82868,9.92246" id="path3379-34-07-0" inkscape:connector-curvature="0" sodipodi:nodetypes="cccccc"/>
    <path style="opacity:0.84185839;fill:none;stroke:#e9afaf;stroke-width:1.1919533;stroke-miterlimit:4" d="m 833.79284,307.55069 c -3.98107,-1.72552 -6.88283,-5.21677 -7.35731,-9.50559 -2.84918,-7.05961 1.54324,-16.12314 12.00275,-16.36866 8.57206,-1.36795 20.2036,4.58398 16.35805,13.97943 0.73723,6.6638 -6.22505,12.15387 -13.62574,12.97262" id="path3379-13-1" inkscape:connector-curvature="0" sodipodi:nodetypes="ccccc"/>
    <path style="opacity:0.84185839;fill:none;stroke:#e9afaf;stroke-width:1.1919533;stroke-miterlimit:4" d="m 842.14702,310.19816 c 1.55161,-4.56122 5.98057,-8.13229 11.5358,-8.74688 11.97702,-2.06158 18.15354,3.03691 16.77965,10.27405 2.86849,9.71694 -6.69496,13.05936 -14.1099,13.85773 -7.40072,0.81875 -13.99781,-3.9196 -14.73504,-10.58341" id="path3379-1-5-6" inkscape:connector-curvature="0" sodipodi:nodetypes="ccccc"/>
    <path style="opacity:0.84185839;fill:none;stroke:#e9afaf;stroke-width:1.1919533;stroke-miterlimit:4" d="m 842.10879,320.13598 c 9.4942,-2.5756 14.07671,3.85339 14.73504,10.5834 1.95266,7.49256 -4.30277,12.97632 -12.0653,13.54837 -7.60135,-0.38231 -17.22979,-1.5308 -14.73503,-10.5834 -0.52346,-4.73153 2.04806,-9.16156 6.23256,-11.62595" id="path3379-2-9-5" inkscape:connector-curvature="0" sodipodi:nodetypes="ccccc"/>
    <path style="opacity:0.84185839;fill:none;stroke:#e9afaf;stroke-width:1.1919533;stroke-miterlimit:4" d="m 832.47947,320.25603 c 0.16938,0.59077 0.29087,1.2017 0.36035,1.82972 0.73723,6.6638 -4.05357,13.743 -11.45427,14.56176 -4.40015,0.28311 -10.06479,-1.26847 -10.12106,-6.00324 -3.9882,1.19807 -5.07001,-3.08773 -5.22502,-5.59355 -0.73723,-6.6638 4.66459,-12.72961 12.0653,-13.54837 3.60159,-0.39845 7.01288,0.51921 9.65108,2.33442" id="path3379-3-84-7" inkscape:connector-curvature="0" sodipodi:nodetypes="ccccccc"/>
    <path style="opacity:0.84185839;fill:none;stroke:#e9afaf;stroke-width:1.1919533;stroke-miterlimit:4" d="m 827.44635,312.08449 c -2.00191,1.55591 -4.51209,2.61376 -7.30745,2.92302 -7.8701,0.87067 -16.89438,-3.59915 -14.73504,-10.58341 -2.04138,-6.51952 3.12502,-12.55928 12.06529,-13.54837 7.40071,-0.81875 13.99782,3.9196 14.73504,10.5834 0.26869,2.42863 -0.27804,4.77784 -1.43979,6.82257" id="path3379-34-07-5" inkscape:connector-curvature="0" sodipodi:nodetypes="cccccc"/>
    <path style="opacity:0.84185839;fill:none;stroke:#e9afaf;stroke-width:1.80563807;stroke-miterlimit:4" d="m 649.17327,256.50242 c -4.41016,-4.98307 -6.33329,-11.78283 -4.49808,-18.16755 0.21146,-11.82697 11.41846,-21.88307 25.7685,-15.56863 12.43511,3.52031 24.79395,19.37066 14.13789,30.24585 -2.85147,9.92033 -15.48322,13.2715 -26.00963,9.71848" id="path3379-13-4" inkscape:connector-curvature="0" sodipodi:nodetypes="ccccc"/>
    <path style="opacity:0.84185839;fill:none;stroke:#e9afaf;stroke-width:1.80563807;stroke-miterlimit:4" d="m 658.99078,265.57868 c 4.7449,-5.48045 12.82589,-7.72376 20.7274,-5.05674 17.46141,4.70553 22.90366,15.87069 16.85298,25.25938 -1.72167,15.60794 -16.64509,14.25635 -27.17906,10.66532 -10.52644,-3.55305 -16.7482,-14.47536 -13.89673,-24.39569" id="path3379-1-5-1" inkscape:connector-curvature="0" sodipodi:nodetypes="ccccc"/>
    <path style="opacity:0.84185839;fill:none;stroke:#e9afaf;stroke-width:1.80563807;stroke-miterlimit:4" d="m 631.26465,308.02408 c -5.02312,-4.50098 -7.51634,-10.03444 -2.29453,-16.84677 2.02463,-7.04377 8.07913,-11.68848 15.18819,-12.51801" id="path3379-2-9-20" inkscape:connector-curvature="0" sodipodi:nodetypes="ccc"/>
    <path style="opacity:0.84185839;fill:none;stroke:#e9afaf;stroke-width:1.80563807;stroke-miterlimit:4" d="m 640.04317,273.68474 c -0.11149,0.94574 -0.29969,1.88955 -0.56843,2.82447 -2.85147,9.92034 -13.45231,16.90847 -23.97874,13.35544 -6.1408,-2.40136 -12.93847,-8.21018 -10.27734,-14.96095 -6.11023,-0.84135 -5.10176,-7.60865 -3.8635,-11.26117 2.85147,-9.92034 13.6964,-15.08204 24.22283,-11.52901 5.12274,1.72911 9.22602,5.20352 11.76018,9.4584" id="path3379-3-84-0" inkscape:connector-curvature="0" sodipodi:nodetypes="ccccccc"/>
    <path style="opacity:0.84185839;fill:none;stroke:#e9afaf;stroke-width:1.80563807;stroke-miterlimit:4" d="m 637.9309,258.88966 c -3.61898,0.9314 -7.6404,0.8327 -11.61641,-0.50934 -11.19406,-3.7784 -20.86815,-15.866 -13.89674,-24.3957 0.99651,-10.54645 11.50658,-15.82116 24.22282,-11.529 10.52643,3.55304 16.74822,14.47538 13.89675,24.3957 -1.03922,3.61547 -3.14017,6.59889 -5.9005,8.75874" id="path3379-34-07-1" inkscape:connector-curvature="0" sodipodi:nodetypes="cccccc"/>
    <path style="opacity:0.84185839;fill:none;stroke:#e9afaf;stroke-width:1.1919533;stroke-miterlimit:4" d="m 663.37848,308.31468 c -2.97897,-3.15469 -4.27014,-7.50693 -3.01614,-11.63568 0.16331,-7.61113 7.77194,-14.21035 17.48184,-10.31427 8.41749,2.1207 16.76238,12.17461 9.52557,19.2944 -1.9484,6.4151 -10.51076,8.71732 -17.63525,6.55346" id="path3379-13-46" inkscape:connector-curvature="0" sodipodi:nodetypes="ccccc"/>
    <path style="opacity:0.84185839;fill:none;stroke:#e9afaf;stroke-width:1.1919533;stroke-miterlimit:4" d="m 670.01338,314.04002 c 3.22347,-3.5807 8.70128,-5.1175 14.04919,-3.49323 11.82026,2.82498 15.48785,9.94486 11.37322,16.05499 -1.19274,10.06104 -11.29947,9.36437 -18.42902,7.17615 -7.12451,-2.16387 -11.32055,-9.11849 -9.37214,-15.5336" id="path3379-1-5-0" inkscape:connector-curvature="0" sodipodi:nodetypes="ccccc"/>
    <path style="opacity:0.84185839;fill:none;stroke:#e9afaf;stroke-width:1.1919533;stroke-miterlimit:4" d="m 666.06208,323.15863 c 9.7409,1.37416 11.41917,9.08873 9.37215,15.5336 -1.15791,7.65575 -9.06812,10.23072 -16.42795,7.69753 -6.83561,-3.34681 -15.23236,-8.19661 -9.37215,-15.53358 1.38343,-4.55495 5.4926,-7.61316 10.30963,-8.22917" id="path3379-2-9-7" inkscape:connector-curvature="0" sodipodi:nodetypes="ccccc"/>
    <path style="opacity:0.84185839;fill:none;stroke:#e9afaf;stroke-width:1.1919533;stroke-miterlimit:4" d="m 657.16464,319.47438 c -0.0771,0.60972 -0.20622,1.21908 -0.38985,1.82366 -1.9484,6.4151 -9.14121,11.03358 -16.26571,8.86971 -4.15565,-1.47374 -8.7505,-5.13202 -6.9364,-9.50582 -4.13761,-0.47051 -3.44299,-4.83581 -2.598,-7.19994 1.94841,-6.4151 9.30345,-9.86141 16.42796,-7.69755 3.46717,1.05306 6.2408,3.24075 7.95021,5.94869" id="path3379-3-84-1" inkscape:connector-curvature="0" sodipodi:nodetypes="ccccccc"/>
    <path style="opacity:0.84185839;fill:none;stroke:#e9afaf;stroke-width:1.1919533;stroke-miterlimit:4" d="m 655.75891,309.98068 c -2.45305,0.64112 -5.17697,0.6242 -7.86801,-0.19313 -7.57637,-2.30111 -14.10902,-9.96541 -9.37215,-15.53359 0.69293,-6.79642 7.82134,-10.31155 16.42795,-7.69755 7.1245,2.16387 11.32056,9.11851 9.37216,15.5336 -0.7101,2.33799 -2.13834,4.28166 -4.01183,5.70313" id="path3379-34-07-7" inkscape:connector-curvature="0" sodipodi:nodetypes="cccccc"/>
    <path style="opacity:0.84185839;fill:none;stroke:#e9afaf;stroke-width:1.38665509;stroke-miterlimit:4" d="m 610.88486,185.81339 c -5.10528,0.63323 -10.3348,-1.07531 -13.70069,-4.96701 -7.58724,-5.20603 -9.36082,-16.56049 0.82503,-22.86741 7.55988,-6.30242 23.09088,-7.26792 25.62985,4.09174 5.22977,6.04678 2.04679,15.42026 -4.72467,20.50947" id="path3379-13-7" inkscape:connector-curvature="0" sodipodi:nodetypes="ccccc"/>
    <path style="opacity:0.84185839;fill:none;stroke:#e9afaf;stroke-width:1.38665509;stroke-miterlimit:4" d="m 620.94076,183.53875 c -1.54464,-5.33186 0.42707,-11.37106 5.50997,-15.19123 10.46131,-8.95181 20.0172,-7.58163 23.54482,0.24703 9.40087,7.77669 2.19322,16.57266 -4.60612,21.65032 -6.7715,5.08924 -16.50042,4.31297 -21.7302,-1.73382" id="path3379-1-5-77" inkscape:connector-curvature="0" sodipodi:nodetypes="ccccc"/>
    <path style="opacity:0.84185839;fill:none;stroke:#e9afaf;stroke-width:1.38665509;stroke-miterlimit:4" d="m 627.61405,193.21646 c 7.65697,-8.01076 16.53381,-4.42308 21.7302,1.73382 6.99234,6.14683 4.50466,15.10408 -2.79152,20.16352 -7.78115,4.03868 -18.08589,8.50903 -21.73017,-1.73381 -3.71332,-4.29343 -4.15998,-10.08956 -1.68286,-14.9117" id="path3379-2-9-3" inkscape:connector-curvature="0" sodipodi:nodetypes="ccccc"/>
    <path style="opacity:0.84185839;fill:none;stroke:#e9afaf;stroke-width:1.38665509;stroke-miterlimit:4" d="m 618.1651,198.91981 c 0.56659,0.47573 1.09939,0.99881 1.59225,1.56868 5.22978,6.04679 5.26905,15.70441 -1.50242,20.79363 -4.16358,2.82793 -10.81761,4.60692 -14.07074,0.0393 -3.13802,3.4779 -7.10292,-0.0585 -8.94854,-2.40321 -5.22977,-6.04679 -3.97998,-15.0743 2.79151,-20.16354 3.29538,-2.47668 7.29119,-3.56424 11.12802,-3.33123" id="path3379-3-84-3" inkscape:connector-curvature="0" sodipodi:nodetypes="ccccccc"/>
    <path style="opacity:0.84185839;fill:none;stroke:#e9afaf;stroke-width:1.38665509;stroke-miterlimit:4" d="m 607.66554,193.9005 c -0.93055,2.67318 -2.70046,5.15732 -5.25816,7.07962 -7.20096,5.41199 -19.15071,6.30482 -21.73019,-1.73384 -6.42304,-5.14996 -5.38864,-14.01558 2.7915,-20.16352 6.77148,-5.08922 16.50044,-4.31297 21.73019,1.73382 1.90601,2.20375 2.95136,4.80343 3.18243,7.4641" id="path3379-34-07-59" inkscape:connector-curvature="0" sodipodi:nodetypes="cccccc"/>
    <path style="opacity:0.84185839;fill:none;stroke:#e9afaf;stroke-width:1.1919533;stroke-miterlimit:4" d="m 674.3546,108.27549 c 2.08199,3.80678 2.22774,8.34416 -0.0319,12.02018 -2.08732,7.32114 -11.12026,11.77614 -19.52541,5.54595 -7.60498,-4.18517 -13.12877,-16.02603 -4.32355,-21.07882 3.51092,-5.711684 12.37721,-5.768251 18.72048,-1.8691" id="path3379-13-9" inkscape:connector-curvature="0" sodipodi:nodetypes="ccccc"/>
    <path style="opacity:0.84185839;fill:none;stroke:#e9afaf;stroke-width:1.1919533;stroke-miterlimit:4" d="m 669.38771,101.05527 c -4.02586,2.64664 -9.71431,2.74467 -14.47582,-0.18217 -10.71809,-5.729017 -12.46108,-13.546029 -6.932,-18.413585 3.70415,-9.430087 13.30417,-6.194233 19.64617,-2.270232 6.3433,3.899183 8.63937,11.690305 5.12845,17.401984" id="path3379-1-5-8" inkscape:connector-curvature="0" sodipodi:nodetypes="ccccc"/>
    <path style="opacity:0.84185839;fill:none;stroke:#e9afaf;stroke-width:1.1919533;stroke-miterlimit:4" d="m 675.52142,93.236093 c -9.07442,-3.798473 -8.74231,-11.686507 -5.12846,-17.401974 3.06073,-7.112189 11.36531,-7.597902 17.84263,-3.281829 5.76397,4.970252 12.6571,11.790123 5.12845,17.401973 -2.49287,4.055485 -7.24305,5.972187 -12.0589,5.347013" id="path3379-2-9-1" inkscape:connector-curvature="0" sodipodi:nodetypes="ccccc"/>
    <path style="opacity:0.84185839;fill:none;stroke:#e9afaf;stroke-width:1.1919533;stroke-miterlimit:4" d="m 683.19434,99.055412 c 0.22916,-0.570247 0.5085,-1.126991 0.83938,-1.665273 3.51093,-5.711679 11.63954,-8.356012 17.98282,-4.456849 3.64635,2.479016 7.16379,7.18255 4.30023,10.95365 3.88321,1.50397 2.10472,5.55062 0.68805,7.62334" id="path3379-3-84-8" inkscape:connector-curvature="0" sodipodi:nodetypes="ccccc"/>
    <path style="opacity:0.84185839;fill:none;stroke:#e9afaf;stroke-width:1.1919533;stroke-miterlimit:4" d="m 676.99551,131.46045 c -6.34328,-3.89917 -8.63938,-11.69032 -5.12846,-17.40197 1.27956,-2.08163 3.15384,-3.59978 5.32647,-4.49991" id="path3379-34-07-2" inkscape:connector-curvature="0" sodipodi:nodetypes="ccc"/>
    <path style="opacity:0.84185839;fill:none;stroke:#e9afaf;stroke-width:0.82824528;stroke-miterlimit:4" d="m 693.32788,130.65226 c -2.29144,1.95957 -5.42826,2.76847 -8.38251,1.86963 -5.46465,-0.21293 -10.13796,-5.41652 -7.2557,-11.89026 1.59603,-5.62911 8.88883,-11.10191 13.93922,-6.14119 4.5902,1.39657 6.16932,7.18301 4.55347,11.94243" id="path3379-13-6" inkscape:connector-curvature="0" sodipodi:nodetypes="ccccc"/>
    <path style="opacity:0.84185839;fill:none;stroke:#e9afaf;stroke-width:0.82824528;stroke-miterlimit:4" d="m 697.4972,126.27018 c -2.54357,-2.21519 -3.59973,-5.91795 -2.38683,-9.49055 2.13135,-7.90675 7.27643,-10.27544 11.62882,-7.42696 7.21515,0.93805 6.62714,7.72188 4.99378,12.48437 -1.61584,4.75944 -6.64682,7.48559 -11.237,6.08902" id="path3379-1-5-60" inkscape:connector-curvature="0" sodipodi:nodetypes="ccccc"/>
    <path style="opacity:0.84185839;fill:none;stroke:#e9afaf;stroke-width:0.82824528;stroke-miterlimit:4" d="m 704.01159,129.04965 c 1.07139,-6.52876 6.62629,-7.55227 11.23701,-6.08902 5.48807,0.88205 7.2687,6.23384 5.3856,11.14645 -2.46288,4.54923 -6.01869,10.12739 -11.23702,6.089 -3.25919,-0.99161 -5.41987,-3.79505 -5.82046,-7.04119" id="path3379-2-9-38" inkscape:connector-curvature="0" sodipodi:nodetypes="ccccc"/>
    <path style="opacity:0.84185839;fill:none;stroke:#e9afaf;stroke-width:0.82824528;stroke-miterlimit:4" d="m 701.28849,134.98017 c 0.43722,0.0601 0.87373,0.15512 1.30632,0.28674 4.59021,1.39658 7.84464,6.29384 6.22882,11.05327 -1.09447,2.77328 -3.76156,5.81214 -6.88695,4.53351 -0.37381,2.77472 -3.50278,2.24866 -5.1933,1.64867 -4.59021,-1.39657 -7.0014,-6.38699 -5.38559,-11.14644 0.78634,-2.31619 2.38153,-4.15086 4.34113,-5.26314" id="path3379-3-84-01" inkscape:connector-curvature="0" sodipodi:nodetypes="ccccccc"/>
    <path style="opacity:0.84185839;fill:none;stroke:#e9afaf;stroke-width:0.82824528;stroke-miterlimit:4" d="m 694.45824,135.79638 c 0.43919,1.6575 0.40337,3.48815 -0.20694,5.28589 -1.71832,5.06131 -7.27925,9.34837 -11.23704,6.089 -4.87493,-0.55786 -7.33754,-5.39689 -5.38557,-11.14643 1.61581,-4.75943 6.64682,-7.48557 11.23701,-6.089 1.6729,0.50897 3.0564,1.4953 4.06097,2.77383" id="path3379-34-07-25" inkscape:connector-curvature="0" sodipodi:nodetypes="cccccc"/>
  </g>
  <g inkscape:groupmode="layer" id="layer13" inkscape:label="2-Red" sodipodi:insensitive="true">
    <path style="fill:none;stroke:#ff0000;stroke-width:1px;stroke-linecap:butt;stroke-linejoin:miter;stroke-opacity:1" d="m 338.69497,404.28141 c 3.9008,-5.59187 5.60797,-11.04663 2.47946,-16.19917" id="path3766" inkscape:connector-curvature="0" sodipodi:nodetypes="cc"/>
    <path style="fill:none;stroke:#ff0000;stroke-width:1px;stroke-linecap:butt;stroke-linejoin:miter;stroke-opacity:1" d="m 340.51324,409.07505 c -0.72976,7.00601 -3.42786,13.09346 -10.74435,17.02566" id="path3768" inkscape:connector-curvature="0" sodipodi:nodetypes="cc"/>
    <path style="fill:none;stroke:#ff0000;stroke-width:1px;stroke-linecap:butt;stroke-linejoin:miter;stroke-opacity:1" d="m 333.07484,405.4385 c -3.63631,-3.10432 -7.20932,-6.31414 -14.71149,-2.97536" id="path3770" inkscape:connector-curvature="0" sodipodi:nodetypes="cc"/>
    <path style="fill:none;stroke:#ff0000;stroke-width:1px;stroke-linecap:butt;stroke-linejoin:miter;stroke-opacity:1" d="m 534.90332,376.5114 c 0.84793,-6.23959 3.89571,-8.90441 8.26489,-9.42197" id="path3778" inkscape:connector-curvature="0" sodipodi:nodetypes="cc"/>
    <path style="fill:none;stroke:#ff0000;stroke-width:1px;stroke-linecap:butt;stroke-linejoin:miter;stroke-opacity:1" d="m 537.38279,380.31325 c 3.98668,2.59791 7.68494,5.30362 7.60369,9.42197" id="path3780" inkscape:connector-curvature="0" sodipodi:nodetypes="cc"/>
    <path style="fill:none;stroke:#ff0000;stroke-width:1px;stroke-linecap:butt;stroke-linejoin:miter;stroke-opacity:1" d="m 531.76267,378.49497 c -2.88053,3.53356 -7.15109,3.73101 -12.23203,1.98358" id="path3782" inkscape:connector-curvature="0" sodipodi:nodetypes="cc"/>
    <path style="fill:none;stroke:#ff0000;stroke-width:1px;stroke-linecap:butt;stroke-linejoin:miter;stroke-opacity:1" d="m 433.41054,242.12438 c 0.52254,-6.62487 4.25838,-9.11836 7.76899,-11.90143" id="path3784" inkscape:connector-curvature="0" sodipodi:nodetypes="cc"/>
    <path style="fill:none;stroke:#ff0000;stroke-width:1px;stroke-linecap:butt;stroke-linejoin:miter;stroke-opacity:1" d="m 433.41054,246.58742 c 3.79375,1.09833 5.6828,4.57754 5.95072,10.08316" id="path3788" inkscape:connector-curvature="0" sodipodi:nodetypes="cc"/>
    <path style="fill:none;stroke:#ff0000;stroke-width:1px;stroke-linecap:butt;stroke-linejoin:miter;stroke-opacity:1" d="m 427.45982,245.26504 c -0.33876,2.86751 -0.83082,5.69965 -6.7772,7.27309" id="path3790" inkscape:connector-curvature="0" sodipodi:nodetypes="cc"/>
    <path style="fill:none;stroke:#ff0000;stroke-width:1px;stroke-linecap:butt;stroke-linejoin:miter;stroke-opacity:1" d="m 650.1039,266.96104 c 3.83207,-10.22851 11.00344,-14.7325 19.16883,-17.53247" id="path3792" inkscape:connector-curvature="0" sodipodi:nodetypes="cc"/>
    <path style="fill:none;stroke:#ff0000;stroke-width:1px;stroke-linecap:butt;stroke-linejoin:miter;stroke-opacity:1" d="m 645.42857,269.53247 c -6.66147,-3.03201 -12.58429,-0.15483 -18,6.77922" id="path3798" inkscape:connector-curvature="0" sodipodi:nodetypes="cc"/>
    <path style="fill:none;stroke:#ff0000;stroke-width:1px;stroke-linecap:butt;stroke-linejoin:miter;stroke-opacity:1" d="m 616.67533,188.64935 c 1.32607,-7.0775 -4.79507,-10.90045 -12.15585,-12.38961" id="path3800" inkscape:connector-curvature="0" sodipodi:nodetypes="cc"/>
    <path style="fill:none;stroke:#ff0000;stroke-width:1px;stroke-linecap:butt;stroke-linejoin:miter;stroke-opacity:1" d="m 614.8052,194.02597 c -8.40621,5.17368 -3.08527,9.63437 -0.93507,14.25974" id="path3802" inkscape:connector-curvature="0" sodipodi:nodetypes="cc"/>
    <path style="fill:none;stroke:#ff0000;stroke-width:1px;stroke-linecap:butt;stroke-linejoin:miter;stroke-opacity:1" d="m 675.35065,101.68831 c -6.69965,1.90662 -10.19997,-0.98577 -11.92208,-6.545454" id="path3804" inkscape:connector-curvature="0" sodipodi:nodetypes="cc"/>
    <path style="fill:none;stroke:#ff0000;stroke-width:1px;stroke-linecap:butt;stroke-linejoin:miter;stroke-opacity:1" d="m 676.51948,105.66234 c 6.53714,-2.94752 13.01183,-5.20809 18.93506,-1.4026" id="path3806" inkscape:connector-curvature="0" sodipodi:nodetypes="cc"/>
    <path style="fill:none;stroke:#ff0000;stroke-width:1px;stroke-linecap:butt;stroke-linejoin:miter;stroke-opacity:1" d="m 801.11688,266.96104 c 1.44746,-13.8397 8.7882,-14.58323 15.66234,-16.36364" id="path3808" inkscape:connector-curvature="0" sodipodi:nodetypes="cc"/>
    <path style="fill:none;stroke:#ff0000;stroke-width:1px;stroke-linecap:butt;stroke-linejoin:miter;stroke-opacity:1" d="m 796.20779,272.80519 c -7.07405,2.9621 -12.31216,5.3113 -11.92207,14.49352" id="path3810" inkscape:connector-curvature="0" sodipodi:nodetypes="cc"/>
    <path style="fill:none;stroke:#ff0000;stroke-width:1px;stroke-linecap:butt;stroke-linejoin:miter;stroke-opacity:1" d="m 795.03896,266.49351 c -9.05659,-6.7139 -11.4611,-13.1929 -11.68831,-19.63637" id="path3814" inkscape:connector-curvature="0" sodipodi:nodetypes="cc"/>
    <path style="fill:none;stroke:#ff0000;stroke-width:1px;stroke-linecap:butt;stroke-linejoin:miter;stroke-opacity:1" d="m 648.46753,411.42857 c 6.31562,0.23928 13.07721,-3.3121 18.23377,6.77922" id="path3816" inkscape:connector-curvature="0" sodipodi:nodetypes="cc"/>
    <path style="fill:none;stroke:#ff0000;stroke-width:1px;stroke-linecap:butt;stroke-linejoin:miter;stroke-opacity:1" d="m 637.71429,412.36364 c -10.1405,-8.67061 -13.62013,-4.01949 -19.16883,-3.5065" id="path3818" inkscape:connector-curvature="0" sodipodi:nodetypes="cc"/>
    <path style="fill:none;stroke:#ff0000;stroke-width:1px;stroke-linecap:butt;stroke-linejoin:miter;stroke-opacity:1" d="m 831.5065,483.89611 c -6.73789,-6.00262 -12.17356,-11.91222 -10.28572,-17.29871" id="path3820" inkscape:connector-curvature="0" sodipodi:nodetypes="cc"/>
    <path style="fill:none;stroke:#ff0000;stroke-width:1px;stroke-linecap:butt;stroke-linejoin:miter;stroke-opacity:1" d="m 828,489.50649 c -8.63759,7.38876 -11.87665,2.39376 -17.06494,1.87013" id="path3822" inkscape:connector-curvature="0" sodipodi:nodetypes="cc"/>
    <path style="fill:none;stroke:#ff0000;stroke-width:1px;stroke-linecap:butt;stroke-linejoin:miter;stroke-opacity:1" d="m 835.48052,494.18182 c 0.0693,5.67484 -0.55384,9.38914 8.18182,15.42857" id="path3824" inkscape:connector-curvature="0" sodipodi:nodetypes="cc"/>
  </g>
  <g inkscape:groupmode="layer" id="layer8" inkscape:label="8-Brown" sodipodi:insensitive="true">
    <path style="fill:none;stroke:#552200;stroke-width:1px;stroke-linecap:butt;stroke-linejoin:miter;stroke-opacity:1" d="m 103.79221,196.36364 c 62.44473,17.92883 116.81394,62.77604 172.05195,104.72727 54.06565,31.21507 77.29697,13.74436 109.40259,10.28571 22.00761,-4.57368 44.43534,-5.92644 70.12987,17.76624 25.14456,16.95316 49.61968,35.30099 89.2987,21.97402 10.94924,-5.8716 5.71861,-32.82842 -25.71428,-52.83117 111.96353,6.87352 114.32039,51.61116 165.50649,79.48052" id="path3061" inkscape:connector-curvature="0" sodipodi:nodetypes="ccccccc"/>
    <path style="fill:none;stroke:#552200;stroke-width:1px;stroke-linecap:butt;stroke-linejoin:miter;stroke-opacity:1" d="m 551.22078,286.5974 c 23.89315,-20.72727 41.49662,-40.98701 55.63636,-61.71428" id="path3063" inkscape:connector-curvature="0" sodipodi:nodetypes="cc"/>
    <path style="fill:none;stroke:#552200;stroke-width:1px;stroke-linecap:butt;stroke-linejoin:miter;stroke-opacity:1" d="m 759.74026,399.27273 16.83117,28.98701" id="path3065" inkscape:connector-curvature="0" sodipodi:nodetypes="cc"/>
    <path style="fill:none;stroke:#552200;stroke-width:1px;stroke-linecap:butt;stroke-linejoin:miter;stroke-opacity:1" d="m 748.05195,340.83117 c 10.55264,-4.14147 18.1259,-23.12482 25.24675,-34.12987" id="path3069" inkscape:connector-curvature="0" sodipodi:nodetypes="cc"/>
    <path style="fill:none;stroke:#552200;stroke-width:1px;stroke-linecap:butt;stroke-linejoin:miter;stroke-opacity:1" d="m 587.68831,379.63636 c -14.93264,0.39159 -10.61538,16.53311 -13.09091,27.11689" id="path3071" inkscape:connector-curvature="0" sodipodi:nodetypes="cc"/>
    <path style="fill:none;stroke:#552200;stroke-width:1px;stroke-linecap:butt;stroke-linejoin:miter;stroke-opacity:1" d="m 382.44156,370.75325 c -10.75317,4.47498 -16.38949,11.1429 -21.03896,18.23376" id="path3073" inkscape:connector-curvature="0" sodipodi:nodetypes="cc"/>
  </g>
  <g inkscape:groupmode="layer" id="layer1" inkscape:label="1-Black" sodipodi:insensitive="true">
    <path style="fill:none;stroke:#000000;stroke-width:1px;stroke-linecap:butt;stroke-linejoin:miter;stroke-opacity:1" d="m 97.714286,197.2987 c 36.129414,-2.3238 57.672664,-9.793 122.025974,48.62338 63.37153,66.85265 107.5347,71.1486 141.19481,61.24675 33.82904,-8.69846 65.67117,-18.44709 101.92207,14.02598 16.07416,14.6494 33.3214,28.35917 65.45455,25.71428 33.66336,-5.26222 -1.62927,-30.48581 -20.1039,-43.94805 -11.97513,-7.58856 -14.86426,-19.548 2.8052,-15.42857 118.36099,20.52118 116.2757,32.79756 140.25974,61.24675 29.27529,29.2793 66.00542,39.9215 105.1948,44.41559 32.25974,16.67532 76.67721,33.35065 96.77922,50.02597 -2.04493,-6.92173 14.9297,-1.16375 22.90909,-1.4026" id="path3075" inkscape:connector-curvature="0" sodipodi:nodetypes="ccccccccccc"/>
    <path style="fill:none;stroke:#000000;stroke-width:1px;stroke-linecap:butt;stroke-linejoin:miter;stroke-opacity:1" d="m 676.51948,345.03896 c 25.0279,13.42575 47.14229,-3.90287 72,3.27273" id="path3077" inkscape:connector-curvature="0" sodipodi:nodetypes="cc"/>
    <path style="fill:none;stroke:#000000;stroke-width:1px;stroke-linecap:butt;stroke-linejoin:miter;stroke-opacity:1" d="M 745.71429,341.2987 774.7013,302.02597" id="path3079" inkscape:connector-curvature="0"/>
    <path style="fill:none;stroke:#000000;stroke-width:1px;stroke-linecap:butt;stroke-linejoin:miter;stroke-opacity:1" d="m 752.72727,345.97403 62.64935,-10.75325" id="path3081" inkscape:connector-curvature="0"/>
    <path style="fill:none;stroke:#000000;stroke-width:1px;stroke-linecap:butt;stroke-linejoin:miter;stroke-opacity:1" d="m 764.88312,401.61039 14.02597,25.71429" id="path3083" inkscape:connector-curvature="0"/>
    <path style="fill:none;stroke:#000000;stroke-width:1px;stroke-linecap:butt;stroke-linejoin:miter;stroke-opacity:1" d="m 767.68831,423.11688 23.84416,16.83117" id="path3085" inkscape:connector-curvature="0"/>
    <path style="fill:none;stroke:#000000;stroke-width:1px;stroke-linecap:butt;stroke-linejoin:miter;stroke-opacity:1" d="m 795.74026,441.35065 24.31169,16.83117" id="path3087" inkscape:connector-curvature="0"/>
    <path style="fill:none;stroke:#000000;stroke-width:1px;stroke-linecap:butt;stroke-linejoin:miter;stroke-opacity:1" d="m 793.4026,442.28571 2.80519,13.09091" id="path3089" inkscape:connector-curvature="0"/>
    <path style="fill:none;stroke:#000000;stroke-width:1px;stroke-linecap:butt;stroke-linejoin:miter;stroke-opacity:1" d="m 547.48052,285.1948 c 24.64503,-20.9448 43.71705,-46.06936 63.58442,-70.5974" id="path3093" inkscape:connector-curvature="0" sodipodi:nodetypes="cc"/>
    <path style="fill:none;stroke:#000000;stroke-width:1px;stroke-linecap:butt;stroke-linejoin:miter;stroke-opacity:1" d="m 593.2987,249.1948 c 27.81067,-5.11201 42.6508,4.59946 62.64935,8.41559" id="path3095" inkscape:connector-curvature="0" sodipodi:nodetypes="cc"/>
    <path style="fill:none;stroke:#000000;stroke-width:1px;stroke-linecap:butt;stroke-linejoin:miter;stroke-opacity:1" d="m 647.53247,190.28571 34.5974,-15.42857" id="path3097" inkscape:connector-curvature="0"/>
    <path style="fill:none;stroke:#000000;stroke-width:1px;stroke-linecap:butt;stroke-linejoin:miter;stroke-opacity:1" d="m 663.8961,178.5974 c -3.53931,-11.93436 2.24188,-42.50972 4.2078,-65.45454" id="path3099" inkscape:connector-curvature="0" sodipodi:nodetypes="cc"/>
    <path style="fill:none;stroke:#000000;stroke-width:1px;stroke-linecap:butt;stroke-linejoin:miter;stroke-opacity:1" d="m 665.76623,153.81818 c 7.6315,-4.51948 11.18622,-9.03896 14.02598,-13.55844" id="path3101" inkscape:connector-curvature="0" sodipodi:nodetypes="cc"/>
    <path style="fill:none;stroke:#000000;stroke-width:1px;stroke-linecap:butt;stroke-linejoin:miter;stroke-opacity:1" d="m 541.4026,290.80519 c -1.36112,-12.64827 9.1474,-32.41831 -4.20779,-37.87013 l -15.42858,1e-5 c -13.41278,-2.51041 -22.06843,-12.14835 -29.92207,-22.44156" id="path3107" inkscape:connector-curvature="0" sodipodi:nodetypes="cccc"/>
    <path style="fill:none;stroke:#000000;stroke-width:1px;stroke-linecap:butt;stroke-linejoin:miter;stroke-opacity:1" d="m 411.42858,297.81818 c -2.21565,-14.14696 6.70812,-25.11122 12.62337,-36.93506" id="path3109" inkscape:connector-curvature="0" sodipodi:nodetypes="cc"/>
    <path style="fill:none;stroke:#000000;stroke-width:1px;stroke-linecap:butt;stroke-linejoin:miter;stroke-opacity:1" d="m 648.46754,450.70129 26.64935,30.85714" id="path3113" inkscape:connector-curvature="0"/>
    <path style="fill:none;stroke:#000000;stroke-width:1px;stroke-linecap:butt;stroke-linejoin:miter;stroke-opacity:1" d="m 652.2078,461.92207 c 21.1948,21.01943 42.38961,39.7342 63.58441,53.2987" id="path3115" inkscape:connector-curvature="0" sodipodi:nodetypes="cc"/>
    <path style="fill:none;stroke:#000000;stroke-width:1px;stroke-linecap:butt;stroke-linejoin:miter;stroke-opacity:1" d="m 671.84416,466.12986 c 13.70226,11.56253 29.66502,17.47381 45.81818,22.90909" id="path3117" inkscape:connector-curvature="0" sodipodi:nodetypes="cc"/>
    <path style="fill:none;stroke:#000000;stroke-width:1px;stroke-linecap:butt;stroke-linejoin:miter;stroke-opacity:1" d="m 725.14286,493.71428 54.23377,11.22078" id="path3119" inkscape:connector-curvature="0"/>
    <path style="fill:none;stroke:#000000;stroke-width:1px;stroke-linecap:butt;stroke-linejoin:miter;stroke-opacity:1" d="m 546.48154,347.65646 41.32442,32.89424" id="path3121" inkscape:connector-curvature="0"/>
    <path style="fill:none;stroke:#000000;stroke-width:1px;stroke-linecap:butt;stroke-linejoin:miter;stroke-opacity:1" d="m 591.11191,378.56712 29.75359,40.49794" id="path3123" inkscape:connector-curvature="0"/>
    <path style="fill:none;stroke:#000000;stroke-width:1px;stroke-linecap:butt;stroke-linejoin:miter;stroke-opacity:1" d="m 587.22078,380.1039 c -5.6011,5.60272 -8.0941,16.0896 -9.35065,28.51948" id="path3125" inkscape:connector-curvature="0" sodipodi:nodetypes="cc"/>
    <path style="fill:none;stroke:#000000;stroke-width:1px;stroke-linecap:butt;stroke-linejoin:miter;stroke-opacity:1" d="m 355.79221,318.38961 30.85714,34.12987" id="path3127" inkscape:connector-curvature="0"/>
    <path style="fill:none;stroke:#000000;stroke-width:1px;stroke-linecap:butt;stroke-linejoin:miter;stroke-opacity:1" d="m 394.12987,354.85714 33.66234,22.44156" id="path3129" inkscape:connector-curvature="0"/>
    <path style="fill:none;stroke:#000000;stroke-width:1px;stroke-linecap:butt;stroke-linejoin:miter;stroke-opacity:1" d="m 384.31169,355.32468 -0.46753,36" id="path3131" inkscape:connector-curvature="0"/>
  </g>
  <WCB serialport="COM3" layer="0" node="0" lastpath="0" lastpathnc="0" lastknownposx="0" lastknownposy="0" pausedposx="0" pausedposy="0" id="WCB4019"/>
</svg>