<svg width="11.99433in" height="8.690681in" xmlns="http://www.w3.org/2000/svg">
 <g>
  <g transform="matrix(1.38904 0 0 1.38904 -130.173 -15.7899)" id="layer2">
   <path opacity="0.841858" fill="none" stroke="#ff0000" stroke-miterlimit="4" d="m440.883118,243.467545a9.701299,9 0 1 1 -19.402588,0a9.701299,9 0 1 1 19.402588,0z" id="path3134"/>
   <path opacity="0.841858" fill="none" stroke="#ff0000" stroke-miterlimit="4" d="m352.628113,406.09967a13.767839,13.562433 0 1 1 -27.535675,0a13.767839,13.562433 0 1 1 27.535675,0z" id="path3134-1"/>
   <path opacity="0.841858" fill="none" stroke="#ff0000" stroke-miterlimit="4" d="m383.274078,435.687958a9.701299,9 0 1 1 -19.402588,0a9.701299,9 0 1 1 19.402588,0z" id="path3134-7"/>
   <path opacity="0.841858" fill="none" stroke="#ff0000" stroke-miterlimit="4" d="m543.282227,377.503174a9.701299,9 0 1 1 -19.402588,0a9.701299,9 0 1 1 19.402588,0z" id="path3134-11"/>
   <path opacity="0.841858" fill="none" stroke="#ff0000" stroke-miterlimit="4" d="m635.823486,460.152039a9.675832,9.966319 0 1 1 -19.351685,0a9.675832,9.966319 0 1 1 19.351685,0z" id="path3134-2"/>
   <path opacity="0.841858" fill="none" stroke="#ff0000" stroke-miterlimit="4" d="m736.349976,534.205383a9.701299,9 0 1 1 -19.402588,0a9.701299,9 0 1 1 19.402588,0z" id="path3134-76"/>
   <path opacity="0.841858" fill="none" stroke="#ff0000" stroke-miterlimit="4" d="m895.035706,480.318359a9.701299,9 0 1 1 -19.402588,0a9.701299,9 0 1 1 19.402588,0z" id="path3134-23"/>
   <path opacity="0.841858" fill="none" stroke="#ff0000" stroke-miterlimit="4" d="m789.906372,363.618195a9.701299,9 0 1 1 -19.402527,0a9.701299,9 0 1 1 19.402527,0z" id="path3134-22"/>
   <path opacity="0.841858" fill="none" stroke="#ff0000" stroke-miterlimit="4" d="m845.776978,313.698273a9.701299,9 0 1 1 -19.402588,0a9.701299,9 0 1 1 19.402588,0z" id="path3134-16"/>
   <path opacity="0.841858" fill="none" stroke="#ff0000" stroke-miterlimit="4" d="m672.214417,315.351257a9.701299,9 0 1 1 -19.402588,0a9.701299,9 0 1 1 19.402588,0z" id="path3134-57"/>
   <path opacity="0.841858" fill="none" stroke="#ff0000" stroke-miterlimit="4" d="m629.458252,191.047409a11.575468,11.204765 0 1 1 -23.15094,0a11.575468,11.204765 0 1 1 23.15094,0z" id="path3134-18"/>
   <path opacity="0.841858" fill="none" stroke="#ff0000" stroke-miterlimit="4" d="m686.76062,102.778442a9.701299,9 0 1 1 -19.402588,0a9.701299,9 0 1 1 19.402588,0z" id="path3134-9"/>
   <path opacity="0.841858" fill="none" stroke="#ff0000" stroke-miterlimit="4" d="m707.257568,130.879028a9.701299,9 0 1 1 -19.402588,0a9.701299,9 0 1 1 19.402588,0z" id="path3134-27"/>
   <path opacity="0.841858" fill="none" stroke="#ff0000" stroke-miterlimit="4" d="m658.759399,411.554504a13.767839,13.562433 0 1 1 -27.535645,0a13.767839,13.562433 0 1 1 27.535645,0z" id="path3134-1-9"/>
   <path opacity="0.841858" fill="none" stroke="#ff0000" stroke-miterlimit="4" d="m662.395996,267.08432a13.767839,13.562433 0 1 1 -27.535706,0a13.767839,13.562433 0 1 1 27.535706,0z" id="path3134-1-5"/>
   <path opacity="0.841858" fill="none" stroke="#ff0000" stroke-miterlimit="4" d="m815.131042,268.737305a13.767839,13.562433 0 1 1 -27.535706,0a13.767839,13.562433 0 1 1 27.535706,0z" id="path3134-1-4"/>
   <path opacity="0.841858" fill="none" stroke="#ff0000" stroke-miterlimit="4" d="m846.207031,488.583221a13.767839,13.562433 0 1 1 -27.535706,0a13.767839,13.562433 0 1 1 27.535706,0z" id="path3134-1-3"/>
  </g>
  <g transform="matrix(1.38904 0 0 1.38904 -130.173 -15.7899)" id="layer0">
   <path opacity="0.841858" fill="none" stroke="#e9afaf" stroke-miterlimit="4" id="path3379" d="m430.72876,236.722824c-3.767181,-2.152832 -6.267456,-5.942001 -6.267456,-10.256989c-2.055603,-7.330078 3.306793,-15.855667 13.729889,-14.949554c8.670471,-0.417053 19.577026,6.777786 14.72168,15.693405c0,6.704453 -7.523773,11.395645 -14.969604,11.395645"/>
   <path opacity="0.841858" fill="none" stroke="#e9afaf" stroke-miterlimit="4" id="path3379-1" d="m438.74118,240.272858c2.043762,-4.362946 6.838531,-7.425354 12.427673,-7.425354c12.131073,-0.732056 17.709503,5.014679 15.548126,12.05687c1.782654,9.973434 -8.090363,12.243973 -15.548126,12.222122c-7.445892,0 -13.481934,-5.435028 -13.481934,-12.139496"/>
   <path opacity="0.841858" fill="none" stroke="#e9afaf" stroke-miterlimit="4" id="path3379-2" d="m437.610413,250.14621c9.719849,-1.516006 13.567596,5.377914 13.481903,12.139496c1.116943,7.661835 -5.703552,12.4245 -13.481903,12.139496c-7.513245,-1.215851 -16.95697,-3.416107 -13.481934,-12.139496c0,-4.760406 3.04306,-8.880798 7.473145,-10.870102"/>
   <path opacity="0.841858" fill="none" stroke="#e9afaf" stroke-miterlimit="4" id="path3379-3" d="m428.026276,249.206696c0.103424,0.605804 0.156952,1.226395 0.156952,1.858246c0,6.704468 -5.540161,13.213928 -12.986023,13.213928c-4.404602,-0.202454 -9.864258,-2.367523 -9.399536,-7.079742c-4.095795,0.752258 -4.699768,-3.626526 -4.578278,-6.134186c0,-6.704468 6.036041,-12.139496 13.481934,-12.139496c3.623566,0 6.913239,1.287201 9.335846,3.3815"/>
   <path opacity="0.841858" fill="none" stroke="#e9afaf" stroke-miterlimit="4" id="path3379-34" d="m423.922241,240.531235c-2.160858,1.326355 -4.772095,2.101761 -7.584534,2.101761c-7.918121,0 -16.396149,-5.435043 -13.481934,-12.139496c-1.312103,-6.704468 4.487091,-12.139496 13.481934,-12.139496c7.445862,0 13.481934,5.435028 13.481934,12.139496c0,2.443451 -0.801727,4.718292 -2.181305,6.622864"/>
   <path opacity="0.841858" fill="none" stroke="#e9afaf" stroke-width="1.54127" stroke-miterlimit="4" id="path3379-31" d="m340.846588,398.364899c5.092865,-1.974335 9.035126,-6.421783 10.062744,-12.15686c4.244934,-9.258423 -0.244385,-21.852356 -13.13269,-23.102234c-10.442352,-2.595825 -25.416138,4.398865 -21.636169,17.391846c-1.59668,8.910889 6.433563,16.91745 15.486328,18.670624"/>
   <path opacity="0.841858" fill="none" stroke="#e9afaf" stroke-width="1.54127" stroke-miterlimit="4" id="path3379-1-9" d="m330.259552,401.196686c-1.445801,-6.280029 -6.54599,-11.479187 -13.341339,-12.795197c-14.574768,-3.829315 -22.725677,2.495239 -21.774994,12.363892c-4.542511,12.835968 6.920471,18.178406 15.992889,19.905334c9.052795,1.753174 17.685883,-4.049316 19.282532,-12.960236"/>
   <path opacity="0.841858" fill="none" stroke="#e9afaf" stroke-width="1.54127" stroke-miterlimit="4" id="path3379-2-8" d="m329.28299,414.585602c-11.456482,-4.303467 -17.776428,3.953217 -19.282532,12.960236c-3.182678,9.92038 3.975555,17.856323 13.500458,19.30899c9.424194,0.153046 21.430054,-0.54776 19.282501,-12.960236c1.133698,-6.327026 -1.584808,-12.519989 -6.497223,-16.207031"/>
   <path opacity="0.841858" fill="none" stroke="#e9afaf" stroke-width="1.54127" stroke-miterlimit="4" id="path3379-34-5" d="m348.215057,405.029327c2.31131,2.271606 5.301483,3.917053 8.720856,4.579254c9.626923,1.864349 21.229004,-3.36319 19.282532,-12.960236c3.191956,-8.601959 -2.564453,-17.191132 -13.500458,-19.30899c-9.052765,-1.753174 -17.685852,4.049316 -19.282532,12.960236c-0.581909,3.247589 -0.148895,6.459869 1.074768,9.31604"/>
   <path opacity="0.841858" fill="none" stroke="#e9afaf" stroke-width="0.996536" stroke-miterlimit="4" id="path3379-0" d="m370.013794,429.357697c-3.461365,-1.008301 -6.310699,-3.633911 -7.319977,-7.21048c-3.328461,-5.652191 -1.112183,-13.823639 7.283478,-15.220032c6.710144,-2.132019 16.956329,1.584564 15.229431,9.974823c1.568115,5.557129 -3.241943,10.995636 -9.088104,12.529663"/>
   <path opacity="0.841858" fill="none" stroke="#e9afaf" stroke-width="0.996536" stroke-miterlimit="4" id="path3379-1-2" d="m377.135132,430.649475c0.584198,-4.037415 3.632568,-7.563599 8.020905,-8.715118c9.353577,-3.10611 15.077637,0.507904 15.027771,6.790283c3.732361,7.899445 -3.488403,11.815582 -9.34903,13.333954c-5.846191,1.534058 -11.856659,-1.727325 -13.424774,-7.284454"/>
   <path opacity="0.841858" fill="none" stroke="#e9afaf" stroke-width="0.996536" stroke-miterlimit="4" id="path3379-2-86" d="m378.556641,439.066223c7.277008,-3.259125 11.910583,1.662323 13.424805,7.284485c2.669037,6.120575 -1.572174,11.473419 -7.746063,12.839752c-6.183441,0.540131 -14.112915,0.662048 -13.424805,-7.284485c-1.113434,-3.94577 0.312103,-7.988007 3.325165,-10.549622"/>
   <path opacity="0.841858" fill="none" stroke="#e9afaf" stroke-width="0.996536" stroke-miterlimit="4" id="path3379-3-0" d="m370.811829,440.262054c0.22287,0.480835 0.410095,0.984192 0.557861,1.507935c1.568146,5.557129 -1.259216,12.094086 -7.105377,13.628143c-3.505676,0.739655 -8.298767,0.069885 -9.036041,-3.931671c-3.039886,1.467346 -4.538269,-2.037659 -5.029419,-4.141235c-1.568115,-5.557129 1.899902,-11.305695 7.746063,-12.839722c2.845062,-0.746552 5.729065,-0.357391 8.121002,0.879395"/>
   <path opacity="0.841858" fill="none" stroke="#e9afaf" stroke-width="0.996536" stroke-miterlimit="4" id="path3379-34-2" d="m365.560364,433.916748c-1.386383,1.544556 -3.25528,2.72525 -5.46347,3.304688c-6.216949,1.631348 -14.144775,-1.126892 -13.424805,-7.284454c-2.598328,-5.286835 0.683746,-10.986603 7.746063,-12.839752c5.846191,-1.534058 11.856659,1.727295 13.424805,7.284454c0.571503,2.02533 0.474091,4.07605 -0.163605,5.938934"/>
   <path opacity="0.841858" fill="none" stroke="#e9afaf" stroke-width="0.875296" stroke-miterlimit="4" id="path3379-4" d="m533.752075,373.534637c-3.322693,-1.316193 -5.528015,-3.632843 -5.528015,-6.270935c-1.813049,-4.481506 2.916687,-9.693909 12.110046,-9.139923c7.647522,-0.255005 17.267273,4.143829 12.984741,9.594666c0,4.098999 -6.636047,6.967133 -13.20343,6.967133"/>
   <path opacity="0.841858" fill="none" stroke="#e9afaf" stroke-width="0.875296" stroke-miterlimit="4" id="path3379-1-8" d="m540.819153,375.705078c1.802612,-2.66745 6.031677,-4.539734 10.961426,-4.539734c10.699829,-0.447601 15.620117,3.065887 13.713745,7.371368c1.572327,6.097595 -7.135864,7.485748 -13.713745,7.472412c-6.567383,0 -11.891296,-3.322906 -11.891296,-7.421906"/>
   <path opacity="0.841858" fill="none" stroke="#e9afaf" stroke-width="0.875296" stroke-miterlimit="4" id="path3379-2-6" d="m539.821777,381.741486c8.57312,-0.926849 11.966919,3.287964 11.891296,7.421906c0.985168,4.684326 -5.03064,7.5961 -11.891296,7.421875c-6.62677,-0.743347 -14.95636,-2.088562 -11.891296,-7.421875c0,-2.910431 2.684021,-5.429596 6.591492,-6.645813"/>
   <path opacity="0.841858" fill="none" stroke="#e9afaf" stroke-width="0.875296" stroke-miterlimit="4" id="path3379-3-5" d="m531.368408,381.167084c0.091187,0.370392 0.138428,0.749786 0.138428,1.136108c0,4.098999 -4.886536,8.078766 -11.453918,8.078766c-3.884949,-0.123779 -8.700439,-1.447449 -8.290558,-4.32843c-3.612549,0.4599 -4.145264,-2.217194 -4.038116,-3.750336c0,-4.098999 5.323914,-7.421906 11.891296,-7.421906c3.196045,0 6.097656,0.786987 8.234375,2.067383"/>
   <path opacity="0.841858" fill="none" stroke="#e9afaf" stroke-width="0.875296" stroke-miterlimit="4" id="path3379-34-0" d="m527.748596,375.863037c-1.905884,0.810913 -4.209106,1.284973 -6.689697,1.284973c-6.983948,0 -14.461731,-3.322906 -11.891327,-7.421875c-1.157288,-4.098999 3.957733,-7.421906 11.891327,-7.421906c6.567383,0 11.891296,3.322906 11.891296,7.421906c0,1.493866 -0.707153,2.884674 -1.92395,4.049103"/>
   <path opacity="0.841858" fill="none" stroke="#e9afaf" stroke-width="1.191953" stroke-miterlimit="4" id="path3379-9" d="m629.746948,454.75293c-0.622009,-4.294098 0.825439,-8.596893 4.226196,-11.252808c4.511841,-6.131805 14.531677,-7.153107 20.233032,1.619385c5.665466,6.576782 6.708008,19.601044 -3.307129,21.261993c-5.284058,4.126648 -13.612244,1.084412 -18.19519,-4.783905"/>
   <path opacity="0.841858" fill="none" stroke="#e9afaf" stroke-width="1.191953" stroke-miterlimit="4" id="path3379-1-0" d="m631.880798,463.252838c4.696533,-1.074677 10.061279,0.819305 13.501465,5.224274c8.043701,9.110291 6.94812,17.043976 0.067566,19.675049c-6.763123,7.543671 -14.629517,1.159973 -19.202637,-4.731171c-4.582947,-5.868317 -4.014709,-13.970825 1.269287,-18.097473"/>
   <path opacity="0.841858" fill="none" stroke="#e9afaf" stroke-width="1.191953" stroke-miterlimit="4" id="path3379-2-0" d="m623.403259,468.438751c7.177429,6.727417 4.112488,14.003204 -1.269287,18.097473c-5.351074,5.596222 -13.302734,3.152222 -17.865784,-3.153564c-3.666138,-6.669769 -7.744751,-15.46698 1.269348,-18.097504c3.751831,-2.930054 8.872253,-3.067841 13.16687,-0.800781"/>
   <path opacity="0.841858" fill="none" stroke="#e9afaf" stroke-width="1.191953" stroke-miterlimit="4" id="path3379-3-6" d="m618.244629,460.306915c-0.413818,0.454376 -0.869934,0.878571 -1.36792,1.267487c-5.283997,4.126648 -13.824341,3.766876 -18.407349,-2.10144c-2.551453,-3.596008 -4.205566,-9.231567 -0.205688,-11.765717c-3.113831,-2.764984 -0.034607,-5.936157 2.016602,-7.383911c5.283997,-4.126648 13.282715,-2.714752 17.865723,3.153595c2.230347,2.855835 3.240662,6.240845 3.081238,9.439209"/>
   <path opacity="0.841858" fill="none" stroke="#e9afaf" stroke-width="1.191953" stroke-miterlimit="4" id="path3379-34-1" d="m622.555969,451.732605c-2.375366,-0.886658 -4.59375,-2.467438 -6.324829,-4.68399c-4.873596,-6.240509 -5.808411,-16.267639 1.269348,-18.097473c4.476379,-5.160767 12.329346,-3.935516 17.865723,3.153595c4.583008,5.868286 4.014709,13.970825 -1.269287,18.097443c-1.925781,1.503967 -4.212097,2.272278 -6.562317,2.3573"/>
   <path opacity="0.841858" fill="none" stroke="#e9afaf" stroke-width="1.956092" stroke-miterlimit="4" id="path3379-38" d="m652.994873,420.437164c6.170715,-2.854156 13.057312,-2.158691 18.159851,2.575714c10.645996,5.196198 15.567505,21.975494 4.46637,35.413635c-5.434204,8.627655 -16.212891,14.736755 -24.28009,12.204468"/>
   <path opacity="0.841858" fill="none" stroke="#e9afaf" stroke-width="1.956092" stroke-miterlimit="4" id="path3379-2-4" d="m635.175049,413.835114c-7.560303,15.121918 -24.090271,14.288391 -32.003479,6.750946c-10.13501,-6.859955 -9.203796,-21.529541 -1.38208,-31.987152c8.667419,-9.069153 20.356567,-19.731323 27.328186,-5.348328c5.629211,5.223083 7.573425,13.95755 5.662903,22.274353"/>
   <path opacity="0.841858" fill="none" stroke="#e9afaf" stroke-width="1.956092" stroke-miterlimit="4" id="path3379-3-4" d="m640.833069,402.997894c-0.815918,-0.521545 -1.601257,-1.128265 -2.34845,-1.821503c-7.928101,-7.35611 -10.294556,-22.169495 -3.129761,-32.47937c4.477783,-5.876709 12.291565,-11.060944 17.416687,-5.247223c3.051636,-6.496582 8.81073,-2.528534 11.65918,0.391083c7.928101,7.35611 8.546875,21.677216 1.382019,31.987152c-3.486816,5.017365 -8.174438,8.160126 -12.982117,9.216705"/>
   <path opacity="0.841858" fill="none" stroke="#e9afaf" stroke-width="1.956092" stroke-miterlimit="4" id="path3379-34-6" d="m655.041016,406.833862c0.510864,-4.447266 2.106689,-8.913757 4.812927,-12.807953c7.619263,-10.963837 22.204285,-16.739685 27.328125,-5.348358c9.190735,5.539307 10.037354,19.532471 1.38208,31.987152c-7.164856,10.309875 -19.400085,12.704437 -27.328186,5.348328c-2.889404,-2.680939 -4.807922,-6.287018 -5.732666,-10.286896"/>
   <path opacity="0.841858" fill="none" stroke="#e9afaf" stroke-width="0.787969" stroke-miterlimit="4" id="path3379-06" d="m725.092773,529.670044c-2.408569,-1.471558 -4.007141,-4.061523 -4.007141,-7.010986c-1.31427,-5.010315 2.114258,-10.837799 8.77832,-10.218445c5.543518,-0.285095 12.516663,4.632813 9.412354,10.726929c0,4.582703 -4.810364,7.789246 -9.570923,7.789246"/>
   <path opacity="0.841858" fill="none" stroke="#e9afaf" stroke-width="0.787969" stroke-miterlimit="4" id="path3379-1-6" d="m730.215515,532.096619c1.306702,-2.982239 4.372253,-5.075439 7.945679,-5.075439c7.756104,-0.500427 11.322693,3.427673 9.940796,8.241211c1.139709,6.817139 -5.172607,8.369141 -9.940796,8.354187c-4.760559,0 -8.619751,-3.715027 -8.619751,-8.297668"/>
   <path opacity="0.841858" fill="none" stroke="#e9afaf" stroke-width="0.787969" stroke-miterlimit="4" id="path3379-2-1" d="m729.492554,538.845337c6.214417,-1.036255 8.674561,3.675964 8.619751,8.297729c0.714111,5.237061 -3.646606,8.492493 -8.619751,8.297668c-4.803589,-0.831055 -10.841553,-2.335022 -8.619751,-8.297668c0,-3.253906 1.945618,-6.070313 4.778015,-7.430054"/>
   <path opacity="0.841858" fill="none" stroke="#e9afaf" stroke-width="0.787969" stroke-miterlimit="4" id="path3379-3-8" d="m723.364929,538.203125c0.066101,0.414124 0.100342,0.838318 0.100342,1.270142c0,4.582703 -3.542114,9.032166 -8.302673,9.032166c-2.816101,-0.138367 -6.306763,-1.618286 -6.009644,-4.839233c-2.618652,0.51416 -3.004822,-2.478821 -2.927185,-4.192932c0,-4.582642 3.859192,-8.297668 8.619751,-8.297668c2.316772,0 4.420044,0.879822 5.968933,2.31134"/>
   <path opacity="0.841858" fill="none" stroke="#e9afaf" stroke-width="0.787969" stroke-miterlimit="4" id="path3379-34-4" d="m720.740967,532.273193c-1.381531,0.906616 -3.051086,1.436646 -4.849243,1.436646c-5.062439,0 -10.482971,-3.715027 -8.619751,-8.297729c-0.838867,-4.582703 2.868896,-8.297729 8.619751,-8.297729c4.760559,0 8.619751,3.715027 8.619751,8.297729c0,1.670166 -0.512573,3.225098 -1.394592,4.526917"/>
   <path opacity="0.841858" fill="none" stroke="#e9afaf" stroke-width="0.881713" stroke-miterlimit="4" id="path3379-96" d="m780.160156,359.571075c-2.837097,-1.564209 -4.720032,-4.317322 -4.720032,-7.452484c-1.548096,-5.325897 2.490356,-11.520355 10.340027,-10.862c6.529785,-0.30304 14.74353,4.924561 11.086914,11.402466c0,4.871307 -5.666138,8.279816 -11.273621,8.279816"/>
   <path opacity="0.841858" fill="none" stroke="#e9afaf" stroke-width="0.881713" stroke-miterlimit="4" id="path3379-1-3" d="m786.194336,362.150452c1.539124,-3.170044 5.150146,-5.395111 9.359314,-5.395111c9.135925,-0.531891 13.337097,3.643555 11.709351,8.760254c1.342468,7.24649 -6.092896,8.89621 -11.709351,8.880341c-5.607544,0 -10.153259,-3.948975 -10.153259,-8.820313"/>
   <path opacity="0.841858" fill="none" stroke="#e9afaf" stroke-width="0.881713" stroke-miterlimit="4" id="path3379-2-7" d="m785.342773,369.324219c7.320068,-1.101501 10.217834,3.907471 10.153259,8.820282c0.841187,5.566925 -4.295349,9.027344 -10.153259,8.820282c-5.658203,-0.883423 -12.770325,-2.482086 -10.153259,-8.820282c0,-3.458801 2.291748,-6.452606 5.628052,-7.89798"/>
   <path opacity="0.841858" fill="none" stroke="#e9afaf" stroke-width="0.881713" stroke-miterlimit="4" id="path3379-3-88" d="m778.124939,368.641571c0.077881,0.440186 0.118225,0.891083 0.118225,1.350159c0,4.871307 -4.172363,9.600952 -9.779846,9.600952c-3.317139,-0.147095 -7.428833,-1.720184 -7.078857,-5.143982c-3.084534,0.54657 -3.539368,-2.634949 -3.447876,-4.45697c0,-4.871307 4.545776,-8.820282 10.153259,-8.820282c2.728943,0 5.206421,0.935242 7.030884,2.456909"/>
   <path opacity="0.841858" fill="none" stroke="#e9afaf" stroke-width="0.881713" stroke-miterlimit="4" id="path3379-34-29" d="m775.034119,362.338196c-1.627319,0.963715 -3.593933,1.5271 -5.711975,1.5271c-5.963135,0 -12.347961,-3.948975 -10.153259,-8.820282c-0.988159,-4.871307 3.379272,-8.820313 10.153259,-8.820313c5.607544,0 10.15332,3.949005 10.15332,8.820313c0,1.77533 -0.603821,3.428192 -1.642761,4.812012"/>
   <path opacity="0.841858" fill="none" stroke="#e9afaf" stroke-width="1.191953" stroke-miterlimit="4" id="path3379-13" d="m878.623718,478.450562c-3.659668,2.330963 -8.177246,2.778625 -11.995605,0.768921c-7.443909,-1.595001 -12.490784,-10.311096 -6.834351,-19.11261c3.669312,-7.866882 15.115906,-14.167175 20.744019,-5.718109c5.932861,3.12265 6.579956,11.965454 3.112,18.554413"/>
   <path opacity="0.841858" fill="none" stroke="#e9afaf" stroke-width="1.191953" stroke-miterlimit="4" id="path3379-1-5" d="m885.49707,473.013733c-2.908936,-3.840607 -3.385681,-9.509888 -0.782532,-14.455811c5.002319,-11.075897 12.685852,-13.335754 17.910889,-8.143219c9.655884,3.067749 7.066772,12.862 3.573914,19.451324c-3.467957,6.588928 -11.088806,9.398926 -17.021667,6.276276"/>
   <path opacity="0.841858" fill="none" stroke="#e9afaf" stroke-width="1.191953" stroke-miterlimit="4" id="path3379-2-9" d="m893.707458,478.612915c3.185547,-9.307312 11.078186,-9.501404 17.021667,-6.276306c7.300293,2.58017 8.338135,10.833954 4.463135,17.584381c-4.575256,6.082275 -10.920776,13.414398 -17.021667,6.276306c-4.212524,-2.217194 -6.441406,-6.829132 -6.138428,-11.675934"/>
   <path opacity="0.841858" fill="none" stroke="#e9afaf" stroke-width="1.191953" stroke-miterlimit="4" id="path3379-3-84" d="m888.41217,486.656464c0.584229,0.190674 1.158386,0.432312 1.717468,0.726593c5.932861,3.12265 9.112854,11.057037 5.644897,17.645966c-2.230591,3.803406 -6.689392,7.626373 -10.642883,5.020386c-1.241943,3.974762 -5.398071,2.469757 -7.560547,1.194336c-5.932861,-3.12265 -7.931091,-10.995453 -4.463135,-17.584381c1.687683,-3.206543 4.358948,-5.518127 7.340576,-6.686493"/>
   <path opacity="0.841858" fill="none" stroke="#e9afaf" stroke-width="1.191953" stroke-miterlimit="4" id="path3379-34-07" d="m878.823669,486.247559c0.167236,2.529907 -0.362793,5.201843 -1.672668,7.690582c-3.687927,7.006836 -12.446167,11.977783 -17.021729,6.276276c-6.543945,-1.961517 -8.652466,-9.624725 -4.463074,-17.584351c3.467896,-6.588959 11.088806,-9.398956 17.021667,-6.276306c2.162231,1.138062 3.80188,2.907043 4.844727,5.014893"/>
   <path opacity="0.841858" fill="none" stroke="#e9afaf" stroke-width="1.820841" stroke-miterlimit="4" id="path3379-6" d="m833.054138,478.210297c-4.993103,-4.190155 -7.576294,-10.513672 -6.24054,-16.989868c-0.819031,-11.524719 9.876343,-22.95517 25.254761,-18.941681c5.388,0.647705 10.944214,3.307343 14.936157,7.05661"/>
   <path opacity="0.841858" fill="none" stroke="#e9afaf" stroke-width="1.820841" stroke-miterlimit="4" id="path3379-1-36" d="m876.746765,512.652344c-5.557312,2.657593 -13.09552,2.455139 -19.30127,1.384705c-11.186157,-1.89563 -18.571777,-11.589508 -16.496277,-21.651947"/>
   <path opacity="0.841858" fill="none" stroke="#e9afaf" stroke-width="1.820841" stroke-miterlimit="4" id="path3379-2-15" d="m839.237122,500.108826c15.071716,0.199219 18.718201,11.525574 16.496277,21.651917c-0.693848,11.783691 -12.414917,17.195313 -24.012329,14.787354c-10.91095,-3.737549 -24.41748,-9.444092 -16.496277,-21.651917c1.473633,-7.144653 7.320862,-12.554108 14.592224,-14.411926"/>
   <path opacity="0.841858" fill="none" stroke="#e9afaf" stroke-width="1.820841" stroke-miterlimit="4" id="path3379-3-42" d="m825.129456,496.258789c-0.032227,0.935577 -0.14386,1.880615 -0.339417,2.828918c-2.075562,10.062439 -12.413879,18.421753 -23.600037,16.526184c-6.554443,-1.425232 -14.086487,-6.064606 -11.929504,-13.018707c-6.386108,0.086304 -5.937927,-6.639313 -4.979126,-10.37204c2.0755,-10.062439 12.826172,-16.682953 24.012329,-14.787354c5.443848,0.922485 9.987549,3.691895 12.97876,7.451874"/>
   <path opacity="0.841858" fill="none" stroke="#e9afaf" stroke-width="1.820841" stroke-miterlimit="4" id="path3379-34-09" d="m821.649475,482.193359c-3.656921,1.440552 -7.819946,1.939545 -12.045166,1.223541c-11.89563,-2.015839 -22.949951,-12.331421 -16.496277,-21.651947c0.104248,-10.396454 10.499146,-17.077271 24.01239,-14.787354c11.186096,1.895599 18.571777,11.589508 16.496277,21.651947c-0.756409,3.667236 -2.665161,6.87735 -5.327271,9.384644"/>
   <path opacity="0.841858" fill="none" stroke="#e9afaf" stroke-width="1.843671" stroke-miterlimit="4" id="path3379-13-3" d="m800.199707,257.470642c-5.84259,-3.383286 -9.586548,-9.192474 -9.342163,-15.707367c-2.839478,-11.139694 6.133606,-23.822678 22.584961,-22.086899c13.751404,-0.323807 30.612,10.923981 22.419617,24.213715c-0.3797,10.122604 -12.557617,16.940048 -24.346436,16.677414"/>
   <path opacity="0.841858" fill="none" stroke="#e9afaf" stroke-width="1.843671" stroke-miterlimit="4" id="path3379-1-5-7" d="m812.684509,263.113281c3.482971,-6.515198 11.247864,-10.969727 20.097046,-10.772552c19.248352,-0.677338 27.755066,8.196075 23.934143,18.752289c2.257507,15.121094 -13.502808,18.200928 -25.309326,17.904846c-11.788879,-0.262695 -21.037781,-8.68161 -20.65802,-18.804199"/>
   <path opacity="0.841858" fill="none" stroke="#e9afaf" stroke-width="1.843671" stroke-miterlimit="4" id="path3379-2-9-2" d="m808.959778,314.637634c-11.82666,-2.1008 -26.654175,-5.756012 -20.658081,-18.804199c0.269653,-7.187378 5.320984,-13.301147 12.447815,-16.148376"/>
   <path opacity="0.841858" fill="none" stroke="#e9afaf" stroke-width="1.843671" stroke-miterlimit="4" id="path3379-3-84-6" d="m795.213806,276.223846c0.129456,0.918304 0.179077,1.857147 0.143372,2.811127c-0.3797,10.122589 -9.520081,19.755341 -21.30896,19.492645c-6.962219,-0.46106 -15.483765,-3.922516 -14.48114,-11.020813c-6.527344,0.991272 -7.235596,-5.641205 -6.901184,-9.423065c0.3797,-10.122589 10.244324,-18.115631 22.033203,-17.852936c5.737122,0.127808 10.872742,2.187347 14.589722,5.434845"/>
   <path opacity="0.841858" fill="none" stroke="#e9afaf" stroke-width="1.843671" stroke-miterlimit="4" id="path3379-34-07-0" d="m789.207336,262.980621c-3.496399,1.9263 -7.674683,3.004944 -12.127502,2.905701c-12.536621,-0.279327 -25.651917,-8.784424 -20.658081,-18.804184c-1.697693,-10.168884 7.79187,-18.170273 22.033203,-17.852936c11.788879,0.26268 21.037842,8.68161 20.658081,18.804199c-0.138367,3.689178 -1.536621,7.095535 -3.828674,9.92247"/>
   <path opacity="0.841858" fill="none" stroke="#e9afaf" stroke-width="1.191953" stroke-miterlimit="4" id="path3379-13-1" d="m833.792847,307.55069c-3.981079,-1.725525 -6.882813,-5.216766 -7.3573,-9.505585c-2.849182,-7.059601 1.543213,-16.123138 12.002747,-16.368652c8.572083,-1.36795 20.203613,4.583954 16.358032,13.979431c0.737244,6.663788 -6.225037,12.15387 -13.625732,12.972595"/>
   <path opacity="0.841858" fill="none" stroke="#e9afaf" stroke-width="1.191953" stroke-miterlimit="4" id="path3379-1-5-6" d="m842.147034,310.198151c1.551636,-4.561218 5.980591,-8.132294 11.535828,-8.746887c11.97699,-2.061584 18.153503,3.036926 16.779602,10.274048c2.86853,9.716949 -6.694946,13.059357 -14.109863,13.857727c-7.400757,0.818756 -13.997803,-3.919586 -14.735046,-10.583405"/>
   <path opacity="0.841858" fill="none" stroke="#e9afaf" stroke-width="1.191953" stroke-miterlimit="4" id="path3379-2-9-5" d="m842.108765,320.135986c9.494202,-2.575592 14.076721,3.853394 14.735046,10.583405c1.952637,7.492554 -4.302795,12.976318 -12.065308,13.54837c-7.601318,-0.382324 -17.229797,-1.530792 -14.735046,-10.583405c-0.523438,-4.731537 2.048096,-9.16156 6.232605,-11.625946"/>
   <path opacity="0.841858" fill="none" stroke="#e9afaf" stroke-width="1.191953" stroke-miterlimit="4" id="path3379-3-84-7" d="m832.479492,320.256042c0.169373,0.590759 0.290894,1.201691 0.360352,1.829712c0.737244,6.663818 -4.053589,13.743011 -11.454285,14.561768c-4.400146,0.283112 -10.064758,-1.268463 -10.121033,-6.003235c-3.98822,1.198059 -5.070007,-3.087738 -5.225037,-5.593567c-0.737244,-6.663788 4.664612,-12.729584 12.065308,-13.54837c3.601563,-0.398438 7.012878,0.519226 9.651062,2.334442"/>
   <path opacity="0.841858" fill="none" stroke="#e9afaf" stroke-width="1.191953" stroke-miterlimit="4" id="path3379-34-07-5" d="m827.44635,312.084503c-2.001892,1.555908 -4.512085,2.61377 -7.307434,2.923035c-7.870117,0.870667 -16.894409,-3.599152 -14.735046,-10.583435c-2.041382,-6.519501 3.125,-12.559265 12.065308,-13.54837c7.400696,-0.818726 13.997803,3.919617 14.734985,10.583405c0.268738,2.42865 -0.278015,4.777832 -1.439758,6.822571"/>
   <path opacity="0.841858" fill="none" stroke="#e9afaf" stroke-width="1.805638" stroke-miterlimit="4" id="path3379-13-4" d="m649.173279,256.502411c-4.410156,-4.983063 -6.333313,-11.782837 -4.498108,-18.167542c0.211487,-11.826981 11.418518,-21.883072 25.768555,-15.568634c12.435059,3.520309 24.793945,19.370651 14.137878,30.24585c-2.851501,9.920319 -15.483215,13.271484 -26.009644,9.718475"/>
   <path opacity="0.841858" fill="none" stroke="#e9afaf" stroke-width="1.805638" stroke-miterlimit="4" id="path3379-1-5-1" d="m658.990784,265.578674c4.744873,-5.480438 12.825867,-7.723755 20.727417,-5.056732c17.461365,4.705536 22.903625,15.870697 16.852966,25.259369c-1.72168,15.607941 -16.645081,14.256348 -27.179077,10.665314c-10.526428,-3.55304 -16.748169,-14.475342 -13.896729,-24.395691"/>
   <path opacity="0.841858" fill="none" stroke="#e9afaf" stroke-width="1.805638" stroke-miterlimit="4" id="path3379-2-9-20" d="m631.264648,308.024078c-5.023132,-4.500977 -7.516357,-10.034454 -2.294556,-16.846771c2.024658,-7.043762 8.079163,-11.688477 15.188232,-12.518005"/>
   <path opacity="0.841858" fill="none" stroke="#e9afaf" stroke-width="1.805638" stroke-miterlimit="4" id="path3379-3-84-0" d="m640.043152,273.684753c-0.111511,0.94574 -0.299683,1.889557 -0.56842,2.824463c-2.851501,9.920349 -13.452332,16.908478 -23.97876,13.355438c-6.140808,-2.401337 -12.938477,-8.210175 -10.277344,-14.960938c-6.110229,-0.841339 -5.101746,-7.608643 -3.863464,-11.261169c2.85144,-9.920349 13.69635,-15.082047 24.222778,-11.529022c5.122742,1.729111 9.226074,5.203522 11.760193,9.458405"/>
   <path opacity="0.841858" fill="none" stroke="#e9afaf" stroke-width="1.805638" stroke-miterlimit="4" id="path3379-34-07-1" d="m637.930908,258.889648c-3.618958,0.931396 -7.640381,0.832703 -11.616394,-0.509338c-11.194092,-3.778397 -20.868164,-15.865997 -13.896729,-24.395706c0.99646,-10.546448 11.506531,-15.821152 24.222778,-11.528992c10.526428,3.55304 16.74823,14.475372 13.89679,24.395691c-1.039246,3.615479 -3.140198,6.598892 -5.900513,8.758743"/>
   <path opacity="0.841858" fill="none" stroke="#e9afaf" stroke-width="1.191953" stroke-miterlimit="4" id="path3379-13-46" d="m663.378479,308.314667c-2.978943,-3.154694 -4.270142,-7.506927 -3.016113,-11.635681c0.163269,-7.611115 7.771912,-14.210358 17.481812,-10.31427c8.41748,2.120697 16.76239,12.174622 9.525574,19.294403c-1.948425,6.4151 -10.510742,8.717316 -17.635254,6.553467"/>
   <path opacity="0.841858" fill="none" stroke="#e9afaf" stroke-width="1.191953" stroke-miterlimit="4" id="path3379-1-5-0" d="m670.013367,314.040009c3.22345,-3.580688 8.701294,-5.117493 14.049194,-3.493225c11.820251,2.824982 15.487854,9.944855 11.37323,16.054993c-1.192749,10.061035 -11.2995,9.364349 -18.429016,7.176147c-7.124512,-2.163879 -11.320557,-9.1185 -9.372131,-15.5336"/>
   <path opacity="0.841858" fill="none" stroke="#e9afaf" stroke-width="1.191953" stroke-miterlimit="4" id="path3379-2-9-7" d="m666.062073,323.15863c9.740906,1.374146 11.419189,9.088715 9.372131,15.5336c-1.157898,7.655762 -9.068115,10.230713 -16.427917,7.69754c-6.835632,-3.346832 -15.232361,-8.196625 -9.372192,-15.5336c1.383484,-4.554932 5.492615,-7.613159 10.309631,-8.229156"/>
   <path opacity="0.841858" fill="none" stroke="#e9afaf" stroke-width="1.191953" stroke-miterlimit="4" id="path3379-3-84-1" d="m657.164612,319.474365c-0.077087,0.609711 -0.206238,1.219086 -0.389832,1.823669c-1.948425,6.4151 -9.141235,11.033569 -16.265747,8.86969c-4.15564,-1.473724 -8.750488,-5.132019 -6.936401,-9.505798c-4.137573,-0.47052 -3.442993,-4.835815 -2.597961,-7.199951c1.948364,-6.4151 9.303406,-9.86142 16.427917,-7.69754c3.467163,1.05304 6.240845,3.240753 7.950256,5.948669"/>
   <path opacity="0.841858" fill="none" stroke="#e9afaf" stroke-width="1.191953" stroke-miterlimit="4" id="path3379-34-07-7" d="m655.758911,309.980682c-2.453064,0.641113 -5.176941,0.624207 -7.867981,-0.193115c-7.576416,-2.301117 -14.10907,-9.965424 -9.372192,-15.5336c0.692932,-6.796417 7.82135,-10.311554 16.427979,-7.69754c7.124512,2.163849 11.320557,9.1185 9.372131,15.5336c-0.710083,2.337982 -2.138306,4.281647 -4.011841,5.703125"/>
   <path opacity="0.841858" fill="none" stroke="#e9afaf" stroke-width="1.386655" stroke-miterlimit="4" id="path3379-13-7" d="m610.884888,185.813385c-5.105286,0.633224 -10.334778,-1.075317 -13.700684,-4.96701c-7.587219,-5.206024 -9.36084,-16.560486 0.825012,-22.867416c7.559875,-6.302414 23.090881,-7.267914 25.629883,4.091751c5.229736,6.046768 2.046753,15.420258 -4.72467,20.50946"/>
   <path opacity="0.841858" fill="none" stroke="#e9afaf" stroke-width="1.386655" stroke-miterlimit="4" id="path3379-1-5-77" d="m620.940735,183.538757c-1.544617,-5.331863 0.427063,-11.371063 5.509949,-15.191223c10.461304,-8.951813 20.017212,-7.581635 23.544861,0.247025c9.400879,7.776688 2.193176,16.572662 -4.60614,21.650314c-6.771484,5.089249 -16.500427,4.312973 -21.730225,-1.73381"/>
   <path opacity="0.841858" fill="none" stroke="#e9afaf" stroke-width="1.386655" stroke-miterlimit="4" id="path3379-2-9-3" d="m627.614075,193.216461c7.656982,-8.010757 16.533813,-4.42308 21.730225,1.733826c6.99231,6.14682 4.504639,15.10408 -2.791565,20.163513c-7.781128,4.038681 -18.085876,8.509033 -21.730164,-1.73381c-3.713318,-4.293427 -4.159973,-10.089554 -1.682861,-14.911697"/>
   <path opacity="0.841858" fill="none" stroke="#e9afaf" stroke-width="1.386655" stroke-miterlimit="4" id="path3379-3-84-3" d="m618.1651,198.919815c0.566589,0.475723 1.099365,0.99881 1.592224,1.56868c5.229797,6.046783 5.269104,15.704407 -1.50238,20.793625c-4.163574,2.827942 -10.817627,4.606934 -14.07074,0.039307c-3.138062,3.477905 -7.102905,-0.058502 -8.948547,-2.403214c-5.229797,-6.046783 -3.97998,-15.074295 2.791504,-20.163544c3.29541,-2.476669 7.291199,-3.56424 11.127991,-3.331223"/>
   <path opacity="0.841858" fill="none" stroke="#e9afaf" stroke-width="1.386655" stroke-miterlimit="4" id="path3379-34-07-59" d="m607.665527,193.900497c-0.930542,2.673187 -2.700439,5.157318 -5.258179,7.07962c-7.200928,5.411987 -19.150696,6.304825 -21.730164,-1.733841c-6.423035,-5.149963 -5.388672,-14.015579 2.791504,-20.163513c6.771484,-5.089233 16.500427,-4.312973 21.730164,1.73381c1.906006,2.203751 2.951355,4.803436 3.182434,7.464096"/>
   <path opacity="0.841858" fill="none" stroke="#e9afaf" stroke-width="1.191953" stroke-miterlimit="4" id="path3379-13-9" d="m674.354614,108.27549c2.08197,3.806778 2.227722,8.344162 -0.031921,12.02018c-2.08728,7.321136 -11.120239,11.776138 -19.525391,5.545952c-7.60498,-4.185173 -13.128784,-16.026031 -4.323547,-21.078819c3.510925,-5.711685 12.377197,-5.76825 18.720459,-1.869102"/>
   <path opacity="0.841858" fill="none" stroke="#e9afaf" stroke-width="1.191953" stroke-miterlimit="4" id="path3379-1-5-8" d="m669.387695,101.055267c-4.025879,2.646637 -9.714294,2.744667 -14.47583,-0.182167c-10.718079,-5.729019 -12.46106,-13.546036 -6.932007,-18.413589c3.704163,-9.430084 13.304199,-6.194229 19.646179,-2.270233c6.343323,3.899185 8.639404,11.690308 5.128479,17.401985"/>
   <path opacity="0.841858" fill="none" stroke="#e9afaf" stroke-width="1.191953" stroke-miterlimit="4" id="path3379-2-9-1" d="m675.521423,93.236092c-9.074402,-3.79847 -8.74231,-11.686508 -5.128479,-17.40197c3.06073,-7.11219 11.365356,-7.597908 17.842651,-3.28183c5.763977,4.970245 12.657104,11.790123 5.128418,17.40197c-2.492859,4.055489 -7.243042,5.972191 -12.058899,5.347015"/>
   <path opacity="0.841858" fill="none" stroke="#e9afaf" stroke-width="1.191953" stroke-miterlimit="4" id="path3379-3-84-8" d="m683.194336,99.055412c0.229187,-0.570244 0.508484,-1.126991 0.839355,-1.665276c3.510925,-5.711678 11.639587,-8.35601 17.982849,-4.456848c3.646362,2.479019 7.163757,7.182549 4.300232,10.953651c3.883179,1.503967 2.104736,5.550621 0.688049,7.623344"/>
   <path opacity="0.841858" fill="none" stroke="#e9afaf" stroke-width="1.191953" stroke-miterlimit="4" id="path3379-34-07-2" d="m676.995483,131.460449c-6.343262,-3.89917 -8.639404,-11.690323 -5.128479,-17.40197c1.279602,-2.081627 3.15387,-3.599777 5.326477,-4.499908"/>
   <path opacity="0.841858" fill="none" stroke="#e9afaf" stroke-width="0.828245" stroke-miterlimit="4" id="path3379-13-6" d="m693.327881,130.652267c-2.291443,1.959564 -5.428284,2.768463 -8.382507,1.869629c-5.464661,-0.212936 -10.137939,-5.416519 -7.255676,-11.890259c1.596008,-5.629112 8.888794,-11.101906 13.939209,-6.14119c4.59021,1.396568 6.169312,7.183006 4.553467,11.942429"/>
   <path opacity="0.841858" fill="none" stroke="#e9afaf" stroke-width="0.828245" stroke-miterlimit="4" id="path3379-1-5-60" d="m697.497192,126.27018c-2.543579,-2.215187 -3.599731,-5.917953 -2.386841,-9.490547c2.131348,-7.906754 7.276428,-10.275444 11.628845,-7.426964c7.215149,0.938049 6.627136,7.721878 4.993774,12.484375c-1.615845,4.759438 -6.646851,7.485588 -11.237,6.08902"/>
   <path opacity="0.841858" fill="none" stroke="#e9afaf" stroke-width="0.828245" stroke-miterlimit="4" id="path3379-2-9-38" d="m704.011597,129.049652c1.071411,-6.528763 6.626282,-7.552269 11.237,-6.08902c5.488098,0.88205 7.268738,6.233841 5.38562,11.146454c-2.462891,4.549225 -6.018677,10.12738 -11.237,6.088989c-3.259216,-0.991608 -5.419922,-3.795044 -5.820496,-7.041183"/>
   <path opacity="0.841858" fill="none" stroke="#e9afaf" stroke-width="0.828245" stroke-miterlimit="4" id="path3379-3-84-01" d="m701.288513,134.980164c0.437195,0.060104 0.873718,0.155121 1.306335,0.286743c4.59021,1.396576 7.844604,6.293839 6.228821,11.053268c-1.094482,2.773285 -3.761597,5.812134 -6.886963,4.533508c-0.37384,2.774719 -3.502808,2.248657 -5.193298,1.648666c-4.59021,-1.396561 -7.001404,-6.386993 -5.38562,-11.146439c0.786377,-2.316193 2.381531,-4.150864 4.341125,-5.263138"/>
   <path opacity="0.841858" fill="none" stroke="#e9afaf" stroke-width="0.828245" stroke-miterlimit="4" id="path3379-34-07-25" d="m694.458252,135.796387c0.439209,1.657501 0.403381,3.488144 -0.20697,5.285889c-1.718262,5.06131 -7.279236,9.348373 -11.237,6.089005c-4.874939,-0.557861 -7.337524,-5.396896 -5.385559,-11.146439c1.615784,-4.75943 6.64679,-7.485565 11.237,-6.088989c1.672913,0.508972 3.056396,1.4953 4.060974,2.773819"/>
  </g>
  <g transform="matrix(1.38904 0 0 1.38904 -130.173 -15.7899)" id="layer13">
   <path fill="none" stroke="#ff0000" stroke-width="1px" id="path3766" d="m338.694977,404.281403c3.900787,-5.591858 5.607971,-11.046631 2.479462,-16.199158"/>
   <path fill="none" stroke="#ff0000" stroke-width="1px" id="path3768" d="m340.513245,409.075043c-0.729767,7.006012 -3.427856,13.093475 -10.744354,17.025665"/>
   <path fill="none" stroke="#ff0000" stroke-width="1px" id="path3770" d="m333.074829,405.438507c-3.636322,-3.104309 -7.20932,-6.314148 -14.711487,-2.975372"/>
   <path fill="none" stroke="#ff0000" stroke-width="1px" id="path3778" d="m534.90332,376.511414c0.8479,-6.239594 3.895691,-8.904419 8.264893,-9.421967"/>
   <path fill="none" stroke="#ff0000" stroke-width="1px" id="path3780" d="m537.382813,380.313263c3.986694,2.5979 7.684937,5.303619 7.603699,9.421967"/>
   <path fill="none" stroke="#ff0000" stroke-width="1px" id="path3782" d="m531.762695,378.494965c-2.880554,3.533569 -7.151062,3.731018 -12.232056,1.983582"/>
   <path fill="none" stroke="#ff0000" stroke-width="1px" id="path3784" d="m433.410553,242.124374c0.522552,-6.624863 4.258392,-9.118362 7.768982,-11.901428"/>
   <path fill="none" stroke="#ff0000" stroke-width="1px" id="path3788" d="m433.410553,246.587418c3.793762,1.098328 5.6828,4.577545 5.950714,10.083176"/>
   <path fill="none" stroke="#ff0000" stroke-width="1px" id="path3790" d="m427.459808,245.265045c-0.338745,2.867508 -0.830811,5.699646 -6.777191,7.273087"/>
   <path fill="none" stroke="#ff0000" stroke-width="1px" id="path3792" d="m650.103882,266.961029c3.832092,-10.228516 11.003418,-14.732498 19.168823,-17.532471"/>
   <path fill="none" stroke="#ff0000" stroke-width="1px" id="path3798" d="m645.428589,269.532471c-6.661499,-3.032013 -12.58429,-0.154816 -18,6.779205"/>
   <path fill="none" stroke="#ff0000" stroke-width="1px" id="path3800" d="m616.675354,188.649353c1.32605,-7.077499 -4.795044,-10.900452 -12.155823,-12.389603"/>
   <path fill="none" stroke="#ff0000" stroke-width="1px" id="path3802" d="m614.805176,194.02597c-8.406189,5.173676 -3.085266,9.634369 -0.935059,14.259735"/>
   <path fill="none" stroke="#ff0000" stroke-width="1px" id="path3804" d="m675.350647,101.688309c-6.699646,1.906624 -10.199951,-0.985771 -11.922058,-6.545456"/>
   <path fill="none" stroke="#ff0000" stroke-width="1px" id="path3806" d="m676.51947,105.662338c6.537109,-2.947517 13.011841,-5.208092 18.935059,-1.402603"/>
   <path fill="none" stroke="#ff0000" stroke-width="1px" id="path3808" d="m801.116882,266.961029c1.447449,-13.839706 8.788208,-14.583237 15.662354,-16.363647"/>
   <path fill="none" stroke="#ff0000" stroke-width="1px" id="path3810" d="m796.207764,272.805176c-7.074036,2.962097 -12.312134,5.31131 -11.922058,14.49353"/>
   <path fill="none" stroke="#ff0000" stroke-width="1px" id="path3814" d="m795.03894,266.4935c-9.05658,-6.713898 -11.461121,-13.192902 -11.688293,-19.636368"/>
   <path fill="none" stroke="#ff0000" stroke-width="1px" id="path3816" d="m648.467529,411.428558c6.315613,0.239288 13.077209,-3.312103 18.233765,6.779205"/>
   <path fill="none" stroke="#ff0000" stroke-width="1px" id="path3818" d="m637.714294,412.363647c-10.140503,-8.670624 -13.620117,-4.019501 -19.168823,-3.5065"/>
   <path fill="none" stroke="#ff0000" stroke-width="1px" id="path3820" d="m831.50647,483.896118c-6.737915,-6.002625 -12.173584,-11.912231 -10.285706,-17.298706"/>
   <path fill="none" stroke="#ff0000" stroke-width="1px" id="path3822" d="m828,489.5065c-8.637573,7.388763 -11.876648,2.393768 -17.064941,1.870117"/>
   <path fill="none" stroke="#ff0000" stroke-width="1px" id="path3824" d="m835.48053,494.181824c0.069275,5.674835 -0.553833,9.38913 8.181824,15.428558"/>
  </g>
  <g transform="matrix(1.38904 0 0 1.38904 -130.173 -15.7899)" id="layer8">
   <path fill="none" stroke="#552200" stroke-width="1px" id="path3061" d="m103.792213,196.363647c62.444725,17.928833 116.813942,62.776031 172.051964,104.727264c54.065643,31.215088 77.296967,13.744354 109.402588,10.285706c22.007599,-4.573669 44.435333,-5.926422 70.129852,17.766266c25.144562,16.953156 49.61969,35.300964 89.298676,21.973999c10.94928,-5.871582 5.718628,-32.8284 -25.714233,-52.831177c111.963501,6.873535 114.320374,51.611176 165.50647,79.48053"/>
   <path fill="none" stroke="#552200" stroke-width="1px" id="path3063" d="m551.220764,286.597412c23.893127,-20.727264 41.496643,-40.987015 55.636353,-61.714279"/>
   <path fill="none" stroke="#552200" stroke-width="1px" id="path3065" d="m759.740234,399.272736l16.831177,28.987"/>
   <path fill="none" stroke="#552200" stroke-width="1px" id="path3069" d="m748.051941,340.831177c10.552612,-4.141479 18.125916,-23.124817 25.246765,-34.129883"/>
   <path fill="none" stroke="#552200" stroke-width="1px" id="path3071" d="m587.688293,379.636353c-14.932617,0.391602 -10.615356,16.533112 -13.090881,27.116882"/>
   <path fill="none" stroke="#552200" stroke-width="1px" id="path3073" d="m382.441559,370.753235c-10.753174,4.474976 -16.389496,11.142914 -21.038971,18.233765"/>
  </g>
  <g transform="matrix(1.38904 0 0 1.38904 -130.173 -15.7899)" id="layer1">
   <path fill="none" stroke="#000000" stroke-width="1px" id="path3075" d="m97.714287,197.298706c36.129417,-2.323807 57.672661,-9.792999 122.025963,48.623383c63.371536,66.852661 107.534714,71.14859 141.194809,61.246735c33.829041,-8.698456 65.671173,-18.447083 101.922089,14.026001c16.074158,14.649384 33.321381,28.359161 65.454559,25.714264c33.66333,-5.262207 -1.629272,-30.485809 -20.103912,-43.948059c-11.975128,-7.588562 -14.864258,-19.547974 2.805206,-15.428558c118.360962,20.521179 116.275696,32.797577 140.259705,61.246765c29.27533,29.279297 66.005432,39.921478 105.194824,44.415588c32.259766,16.675293 76.677185,33.350647 96.779236,50.02597c-2.044922,-6.921753 14.929688,-1.163757 22.909058,-1.402618"/>
   <path fill="none" stroke="#000000" stroke-width="1px" id="path3077" d="m676.51947,345.038971c25.027893,13.425751 47.142273,-3.902863 72,3.272736"/>
   <path fill="none" stroke="#000000" stroke-width="1px" id="path3079" d="m745.714294,341.298706l28.987,-39.272736"/>
   <path fill="none" stroke="#000000" stroke-width="1px" id="path3081" d="m752.727295,345.97403l62.649353,-10.753265"/>
   <path fill="none" stroke="#000000" stroke-width="1px" id="path3083" d="m764.883118,401.610382l14.02594,25.714294"/>
   <path fill="none" stroke="#000000" stroke-width="1px" id="path3085" d="m767.688293,423.116882l23.844177,16.831177"/>
   <path fill="none" stroke="#000000" stroke-width="1px" id="path3087" d="m795.740234,441.350647l24.311707,16.831177"/>
   <path fill="none" stroke="#000000" stroke-width="1px" id="path3089" d="m793.402588,442.285706l2.805176,13.090912"/>
   <path fill="none" stroke="#000000" stroke-width="1px" id="path3093" d="m547.48053,285.194794c24.64502,-20.944794 43.717041,-46.069351 63.584412,-70.597397"/>
   <path fill="none" stroke="#000000" stroke-width="1px" id="path3095" d="m593.298706,249.194794c27.810669,-5.112015 42.650818,4.599457 62.649353,8.415588"/>
   <path fill="none" stroke="#000000" stroke-width="1px" id="path3097" d="m647.532471,190.285706l34.597412,-15.428574"/>
   <path fill="none" stroke="#000000" stroke-width="1px" id="path3099" d="m663.896118,178.597397c-3.539307,-11.934357 2.241882,-42.50972 4.207825,-65.454536"/>
   <path fill="none" stroke="#000000" stroke-width="1px" id="path3101" d="m665.766235,153.818176c7.631531,-4.519485 11.186218,-9.038956 14.026001,-13.558441"/>
   <path fill="none" stroke="#000000" stroke-width="1px" id="path3107" d="m541.402588,290.805176c-1.361145,-12.648285 9.1474,-32.418304 -4.207764,-37.870132l-15.428589,0.000015c-13.412811,-2.510406 -22.068451,-12.148346 -29.922089,-22.441559"/>
   <path fill="none" stroke="#000000" stroke-width="1px" id="path3109" d="m411.428589,297.818176c-2.215637,-14.146973 6.70813,-25.111206 12.623383,-36.935059"/>
   <path fill="none" stroke="#000000" stroke-width="1px" id="path3113" d="m648.467529,450.701294l26.649353,30.857147"/>
   <path fill="none" stroke="#000000" stroke-width="1px" id="path3115" d="m652.207825,461.922058c21.194824,21.01944 42.389587,39.734192 63.584412,53.298706"/>
   <path fill="none" stroke="#000000" stroke-width="1px" id="path3117" d="m671.844177,466.129852c13.702271,11.562531 29.665039,17.473816 45.818176,22.909088"/>
   <path fill="none" stroke="#000000" stroke-width="1px" id="path3119" d="m725.142883,493.714294l54.233765,11.220795"/>
   <path fill="none" stroke="#000000" stroke-width="1px" id="path3121" d="m546.481567,347.656464l41.324402,32.894257"/>
   <path fill="none" stroke="#000000" stroke-width="1px" id="path3123" d="m591.111938,378.567108l29.753601,40.497925"/>
   <path fill="none" stroke="#000000" stroke-width="1px" id="path3125" d="m587.220764,380.103912c-5.601074,5.602722 -8.094116,16.0896 -9.350647,28.51947"/>
   <path fill="none" stroke="#000000" stroke-width="1px" id="path3127" d="m355.792206,318.389618l30.857147,34.129883"/>
   <path fill="none" stroke="#000000" stroke-width="1px" id="path3129" d="m394.129883,354.857147l33.662323,22.441559"/>
   <path fill="none" stroke="#000000" stroke-width="1px" id="path3131" d="m384.311676,355.324677l-0.467529,36"/>
  </g>
 </g>
</svg>