<svg width="11in" height="8in" xmlns="http://www.w3.org/2000/svg">
 <!-- Created with SVG-edit - http://svg-edit.googlecode.com/ -->
 <g>
  <path id="svg_2" d="m138.999985,383.154449c0,-208.372604 168.488937,-377.154449 376.500015,-377.154449c208.011047,0 376.5,168.781845 376.5,377.154449c0,208.37265 -168.488953,377.154449 -376.5,377.154449c-208.011078,0 -376.500015,-168.781799 -376.500015,-377.154449z" stroke-linecap="null" stroke-linejoin="null" stroke-dasharray="null" stroke-width="1px" fill="#007fff"/>
  <path d="m216.954834,477.870239c1.432877,8.256042 5.426361,17.411682 11.41301,23.041809c9.057129,8.517944 22.527893,12.851563 33.718338,19.402161c7.635468,4.469727 19.106018,6.335327 22.759064,13.65863c7.479858,14.99469 7.041992,35.540771 10.639618,53.295593c5.548584,27.381653 8.345459,55.867676 16.799408,82.114258c3.937836,12.225525 10.97345,25.940125 20.376007,33.302185c7.310486,5.723816 20.954529,8.023804 29.763092,5.95575c7.591125,-1.782043 12.385712,-12.534363 19.435669,-17.506104c4.716248,-3.325806 11.206238,-4.005615 15.862976,-7.386658c6.385925,-4.636658 20.090637,-12.715454 17.264709,-16.666077c-5.331848,-7.453796 -33.90799,-9.138306 -41.737457,-17.547119c-3.561096,-3.824646 8.43042,-13.451599 7.565399,-19.153076c-0.744598,-4.90863 -0.927826,-14.459534 -2.716553,-19.744995c-12.702972,-37.468201 5.903992,-61.413208 6.07309,-65.486511c0.238892,-5.75592 -3.708374,-25.702759 6.9711,-37.500732c7.296906,-8.061127 21.100159,-9.133331 20.116425,-27.588562c-0.412201,-7.734833 -9.147644,-17.587463 -9.125214,-25.520203c0.02597,-9.143341 13.743683,-10.261078 9.270477,-25.708282c-1.38208,-4.772705 -3.332733,-11.275848 -9.118256,-12.525208c-11.465332,-2.475769 -19.434601,3.907654 -31.660065,2.57486c-12.098938,-1.319122 -30.803589,-17.234009 -42.546539,-20.692963c-6.569733,-1.935333 -22.988251,-9.263062 -28.479523,-12.810059c-4.302124,-2.779144 -11.324432,2.681305 -15.108948,2.375824c-8.669312,-0.699493 -10.693054,9.171814 -19.448975,8.933502c-9.32399,-0.253693 -17.195496,3.078247 -25.84407,6.424957c-7.272797,2.814423 -14.793243,8.045654 -19.610352,13.829376c-2.852371,3.424683 -3.194763,9.092285 -3.398102,13.796082c-0.674149,15.605377 -1.860962,31.996643 0.765671,47.131561z" id="svg_14" stroke-width="1px" fill-rule="evenodd" fill="#00a415"/>
  <path d="m758.983215,469.763245c7.475098,-8.198425 21.642395,-24.377502 17.750732,-28.517548c-5.226074,-5.559814 -35.16803,8.229034 -45.104492,-0.582153c-20.036133,-17.766663 -22.348328,-61.716675 -44.813599,-79.151093c-27.780151,-21.559052 -70.171631,-31.783478 -105.922913,-37.82962c-17.016113,-2.877808 -38.074646,2.850311 -52.379272,11.057892c-9.36322,5.372253 -17.741058,16.638428 -24.443909,26.189758c-8.817169,12.564423 -26.943024,18.210876 -32.591492,30.845703c-1.723419,3.855072 9.89386,16.626129 9.89386,20.951752c0,4.986267 -3.300354,11.035217 -4.074005,16.295746c-1.166473,7.931366 1.051849,18.373718 4.655853,24.443848c3.767853,6.345795 15.009552,8.133942 22.115784,12.803864c6.473633,4.254059 12.242615,13.087524 18.623779,13.967743c4.870483,0.671844 10.109863,-9.102631 15.131897,-9.31189c4.289734,-0.17868 8.45343,8.470276 12.803955,8.147949c6.125244,-0.453705 12.746155,-11.044708 18.62384,-10.475891c6.150085,0.595123 14.580261,8.003448 17.459534,13.967957c2.552795,5.287384 -3.440308,13.954376 -1.16394,19.787628c3.931824,10.074493 17.762451,17.807953 19.787903,27.93576c1.854492,9.272095 -6.721741,20.043579 -8.147827,30.263672c-0.901794,6.463745 -0.448181,13.569946 1.164001,19.787781c1.103821,4.257996 6.009949,7.311218 6.983826,11.639893c2.518066,11.190979 -0.68927,24.466675 3.492188,34.919495c4.354431,10.886902 13.944641,25.633301 22.115723,29.099792c4.632874,1.965576 10.240662,-10.337036 16.295593,-12.803833c4.421204,-1.80127 11.107422,2.359253 15.131897,0c7.227417,-4.236694 14.000366,-12.205444 18.623779,-19.787903c5.076355,-8.325195 6.611023,-18.782104 10.475769,-27.935669c3.507141,-8.306213 6.878662,-16.868835 11.639954,-24.443665c3.774597,-6.005066 11.666321,-9.88446 13.967957,-16.295898c3.130432,-8.720398 3.076416,-19.620361 2.327942,-29.099548c-0.41571,-5.264587 -8.590149,-11.221252 -5.819824,-15.131958c10.421814,-14.713074 31.821716,-25.852356 45.395508,-40.739563z" id="svg_13" stroke-width="1px" fill-rule="evenodd" fill="#00a415"/>
  <path d="m361.194,38.5634c-132.011993,58.304802 -224.209,190.420593 -224.209,343.931595c0,4.252991 0.072006,8.5 0.212006,12.718994c10.121994,9.269012 20.403992,16.171997 30.36499,18.88501c23.122009,6.298004 53.341003,-26.966003 78.018997,-43.368011c18.386993,-12.218994 35.458008,-27.140991 51.162994,-42.481995c5.279999,-5.156982 6.215027,-14.619995 11.799011,-19.026001c7.265991,-5.734985 24.040009,-4.542999 26.751007,-11.408997c3.281006,-8.312988 -5.615997,-22.816986 -8.787018,-34.119995c-2.980988,-10.623001 8.914001,-17.600998 6.058014,-22.358002c-8.269012,-13.770004 -12.768005,-18.097992 -8.609009,-25.190994c2.002014,-3.417007 13.186005,-11.165009 16.617004,-13.889008c5.845001,-4.64299 12.919006,-12.936996 18.175995,-18.707993c11.364014,-12.475998 17.614014,-17.721008 29.054016,-24.518005c8.324982,-4.947998 14.958984,-5.940994 21.860992,-6.520004c10.126007,-0.848999 19.925995,-5.350998 20.265991,-13.781998c0.013,-0.321991 -0.095001,-0.612 -0.247986,-0.850998c-0.080017,-0.117996 -0.203003,-0.253998 -0.319,-0.354004c-2.389008,-1.981995 -11.651001,-0.687988 -14.136993,-4.074997c-7.400024,-10.082001 -8.019012,-28.087997 -16.156006,-36.741898c-4.408997,-4.688698 -15.53302,-0.167503 -21.507019,-3.259697c-4.442993,-2.299507 -8.05899,-7.930504 -9.743988,-12.896904c-3.154999,-9.301796 -2.964996,-19.968498 -4.747009,-29.903999c-0.714996,-3.9856 -1.315002,-8.034901 -1.877991,-12.0821l0,0z" id="svg_12" stroke-width="1px" fill-rule="evenodd" fill="#00a415"/>
  <path d="m583.337524,10.820765c-4.41095,1.998544 -8.695679,4.135348 -12.790771,6.271327c-24.766724,12.91802 -58.902496,26.254568 -69.090912,49.497454c-13.53775,30.883041 -4.852722,75.766823 -2.090424,112.883965c1.080383,14.51976 6.297638,30.946579 13.641052,42.021469c3.004211,4.530624 14.126526,1.458771 17.396729,4.783234c0.016541,0.016724 0.055359,0.053253 0.070801,0.070862c0.029907,0.035675 0.080566,0.103088 0.106384,0.141708c0.043396,0.068527 0.110168,0.171463 0.141663,0.248032c0.915161,2.372208 -3.476135,8.336716 -2.267578,10.558502c0.052795,0.091888 0.138611,0.205261 0.212585,0.283463c0.126953,0.127594 0.304749,0.233887 0.496033,0.318848c26.115295,11.596146 60.349365,16.753586 89.393005,27.530121c7.317932,2.71521 15.324402,6.644714 19.699829,12.967834c14.796692,21.383423 24.533875,47.230682 37.840576,70.15387c2.761963,4.757874 5.374146,12.377533 10.345947,12.896973c15.187195,1.586639 38.456482,3.574677 50.099731,-6.59024c23.139587,-20.201355 29.84198,-75.132263 54.245239,-84.53894c21.916748,-8.448273 66.43866,13.109558 84.716125,30.966919c11.360718,11.099518 -2.793274,40.236908 4.21637,55.910492c2.569519,5.745544 7.677185,11.610474 13.60553,16.333801c-3.490723,-181.730042 -136.189087,-332.019588 -309.987915,-362.709707l0,0.000016z" id="svg_11" stroke-width="1px" fill-rule="evenodd" fill="#00a415"/>
 </g>
</svg>