<svg width="12in" height="9in" xmlns="http://www.w3.org/2000/svg">
 <!-- Created with SVG-edit - http://svg-edit.googlecode.com/ -->

 <g>
  <path stroke="#091187" fill="#000a9f" stroke-width="4.6" stroke-linecap="round" stroke-linejoin="round" stroke-miterlimit="4" stroke-dashoffset="0" d="m964.436218,433.767822a398.131104,398.131104 0 1 1 -796.262268,0a398.131104,398.131104 0 1 1 796.262268,0z" id="svg_15"/>
  <path fill="#00a415" fill-rule="evenodd" stroke-width="1px" id="svg_14" d="m241.236877,541.076233c1.518143,8.747253 5.749222,18.447632 12.092056,24.41272c9.595993,9.024719 23.86824,13.616211 35.724503,20.55658c8.089722,4.735535 20.242767,6.712219 24.113129,14.471252c7.924896,15.88678 7.460938,37.655334 11.272644,56.466492c5.878723,29.010803 8.84198,59.19165 17.79892,86.999817c4.17215,12.952942 11.626343,27.483459 21.588318,35.283569c7.745422,6.064331 22.201263,8.50116 31.533905,6.31012c8.042786,-1.888123 13.12262,-13.280151 20.592072,-18.547668c4.996826,-3.523682 11.872955,-4.243958 16.806732,-7.826172c6.765869,-4.912537 21.28598,-13.471924 18.291901,-17.657593c-5.649078,-7.897339 -35.925385,-9.682068 -44.220703,-18.591187c-3.77298,-4.052185 8.932007,-14.251892 8.015533,-20.292603c-0.78891,-5.200684 -0.983063,-15.319885 -2.878204,-20.9198c-13.45874,-39.697388 6.25528,-65.067078 6.434448,-69.382751c0.253113,-6.098389 -3.929016,-27.231995 7.385864,-39.731873c7.731049,-8.540771 22.35553,-9.676758 21.313232,-29.230042c-0.436676,-8.195007 -9.691895,-18.63385 -9.668121,-27.038574c0.027557,-9.687317 14.561432,-10.871582 9.822083,-27.237823c-1.464325,-5.056671 -3.531036,-11.946747 -9.660797,-13.270447c-12.147461,-2.623047 -20.590881,4.140167 -33.543701,2.728058c-12.818787,-1.397614 -32.636322,-18.259369 -45.077942,-21.924133c-6.960632,-2.050446 -24.355988,-9.814178 -30.173981,-13.572205c-4.558105,-2.944489 -11.998199,2.84082 -16.007874,2.517181c-9.18512,-0.741119 -11.329254,9.717529 -20.60614,9.465027c-9.878723,-0.268768 -18.218597,3.261383 -27.381714,6.80722c-7.705505,2.981903 -15.673386,8.524353 -20.777115,14.652222c-3.022064,3.628387 -3.384842,9.633209 -3.60025,14.616852c-0.714279,16.533875 -1.971695,33.90036 0.811203,49.93576z"/>
  <path fill="#00a415" fill-rule="evenodd" stroke-width="1px" id="svg_13" d="m823.990234,525.070435c7.919922,-8.686218 22.930054,-25.827911 18.806885,-30.214294c-5.536987,-5.890594 -37.260376,8.718658 -47.788086,-0.61676c-21.22821,-18.823761 -23.677917,-65.388641 -47.479858,-83.860321c-29.432922,-22.841766 -74.346619,-33.6745 -112.224976,-40.080383c-18.028503,-3.049042 -40.340027,3.019867 -55.495667,11.71579c-9.920349,5.691895 -18.796631,17.628357 -25.898315,27.747986c-9.341736,13.311951 -28.546021,19.294342 -34.530579,32.680908c-1.825928,4.084442 10.482544,17.615326 10.482544,22.198334c0,5.282928 -3.496704,11.691742 -4.316406,17.265289c-1.235901,8.403229 1.114441,19.466919 4.932861,25.898163c3.992065,6.723358 15.902588,8.617889 23.43158,13.565643c6.858826,4.507202 12.971008,13.866211 19.731873,14.798828c5.160217,0.711792 10.711365,-9.644226 16.032227,-9.865967c4.544922,-0.18927 8.95636,8.974243 13.565796,8.632751c6.489563,-0.480713 13.504456,-11.701843 19.731873,-11.099182c6.515991,0.630554 15.447693,8.479614 18.498352,14.799011c2.70459,5.60199 -3.645081,14.784607 -1.233215,20.964966c4.16571,10.673889 18.819214,18.867432 20.965149,29.597778c1.964905,9.82373 -7.121643,21.236145 -8.632629,32.064331c-0.955444,6.848267 -0.474792,14.377258 1.233276,20.965088c1.169556,4.511292 6.367554,7.746155 7.399353,12.332397c2.667908,11.856873 -0.730286,25.922363 3.699951,36.997192c4.613525,11.534546 14.774353,27.158325 23.43158,30.831055c4.908508,2.08252 10.849976,-10.952087 17.265137,-13.565613c4.684204,-1.908386 11.76825,2.499573 16.032166,0c7.657471,-4.48877 14.833313,-12.93158 19.731934,-20.965149c5.378357,-8.820557 7.004272,-19.899597 11.098999,-29.597839c3.71582,-8.800415 7.287903,-17.872498 12.33252,-25.89801c3.999146,-6.362305 12.360413,-10.472534 14.799011,-17.265442c3.31665,-9.239197 3.25946,-20.787659 2.466431,-30.830872c-0.440491,-5.57782 -9.101196,-11.888855 -6.166077,-16.032227c11.041809,-15.588501 33.714966,-27.390503 48.096313,-43.163452z"/>
  <path fill="#00a415" fill-rule="evenodd" stroke-width="1px" id="svg_12" d="m402.533569,68.215515c-139.866455,61.773712 -237.548843,201.749695 -237.548843,364.394012c0,4.506775 0.076401,9.005768 0.225235,13.476593c10.724365,9.820496 21.61795,17.134064 32.171188,20.008453c24.498199,6.672607 56.514832,-28.57077 82.661392,-45.94809c19.48056,-12.946808 37.567749,-28.756714 54.207031,-45.009644c5.593658,-5.463867 6.58493,-15.490082 12.500305,-20.1586c7.699066,-6.075928 25.470428,-4.812805 28.342468,-12.087646c3.476501,-8.80722 -5.949982,-24.174286 -9.309753,-36.15036c-3.157684,-11.255035 9.445251,-18.647797 6.41922,-23.687286c-8.761322,-14.590179 -13.528503,-19.17511 -9.12204,-26.69046c2.122131,-3.619888 13.971375,-11.828827 17.605621,-14.715393c6.192841,-4.918671 13.68866,-13.706833 19.257965,-19.820755c12.040161,-13.218079 18.662018,-18.774933 30.782227,-25.977188c8.821167,-5.242172 15.849518,-6.293991 23.161743,-6.907242c10.728638,-0.899765 21.111755,-5.669464 21.472504,-14.602783c0.013489,-0.34079 -0.101196,-0.647995 -0.262787,-0.90094c-0.084747,-0.124786 -0.215271,-0.269379 -0.338135,-0.375397c-2.530975,-2.100143 -12.344269,-0.728943 -14.977905,-4.317017c-7.841003,-10.682571 -8.49707,-29.75943 -17.11792,-38.928253c-4.670715,-4.967659 -16.456573,-0.177444 -22.786346,-3.453621c-4.707367,-2.436394 -8.538452,-8.402351 -10.323303,-13.664307c-3.343658,-9.85524 -3.142181,-21.156479 -5.030273,-31.683174c-0.757538,-4.222733 -1.393066,-8.512917 -1.989594,-12.800903z"/>
  <path fill="#00a415" fill-rule="evenodd" stroke-width="1px" id="svg_11" d="m637.894165,38.822247c-4.67334,2.117451 -9.213013,4.381393 -13.551697,6.644455c-26.240295,13.686596 -62.407043,27.816624 -73.20166,52.442402c-14.343201,32.72049 -5.141418,80.274719 -2.214783,119.60022c1.144653,15.383636 6.672302,32.787796 14.452637,44.521622c3.182922,4.800171 14.96698,1.545563 18.431763,5.06781c0.017578,0.017731 0.058655,0.056427 0.075073,0.075073c0.031677,0.037811 0.085327,0.109222 0.11261,0.150146c0.046082,0.072601 0.11676,0.181671 0.150146,0.262787c0.969604,2.513367 -3.682922,8.832733 -2.402466,11.186707c0.055969,0.097351 0.146912,0.217468 0.22522,0.300323c0.134583,0.135193 0.322876,0.247803 0.525574,0.33783c27.669067,12.286072 63.939941,17.750366 94.711609,29.16806c7.753357,2.87674 16.236084,7.04007 20.871887,13.73938c15.677063,22.655701 25.993591,50.040771 40.09198,74.32782c2.92627,5.040955 5.693909,13.113953 10.961487,13.664307c16.09082,1.681061 40.744507,3.787354 53.080566,-6.98233c24.516357,-21.403259 31.617432,-79.602386 57.472656,-89.568756c23.220703,-8.950928 70.391479,13.889526 89.75647,32.809326c12.036621,11.759949 -2.959473,42.63089 4.467163,59.23703c2.722473,6.087372 8.134033,12.3013 14.4151,17.305634c-3.698486,-192.542465 -144.291992,-351.773773 -328.431335,-384.289845z"/>
 </g>
</svg>