<svg width="11.995967in" height="8.691867in" xmlns="http://www.w3.org/2000/svg">
 <g>
  <g transform="matrix(1.13484 0 0 1.13484 -23.1978 -1.82499)" id="svg_1">
   <path id="svg_2" d="m165.647064,369.500061c0,-200.726807 162.30658,-363.315552 362.685089,-363.315552c200.37854,0 362.68512,162.588746 362.68512,363.315552c0,200.726807 -162.30658,363.315491 -362.68512,363.315491c-200.37851,0 -362.685089,-162.588684 -362.685089,-363.315491z" stroke-linecap="null" stroke-linejoin="null" stroke-width="1px" fill="#007fff"/>
   <path d="m240.741516,460.740417c1.380295,7.953125 5.227249,16.772797 10.994232,22.19635c8.724792,8.205383 21.701263,12.380005 32.48111,18.690247c7.355316,4.305725 18.404968,6.102844 21.923981,13.157471c7.205383,14.444458 6.7836,34.236633 10.249207,51.339966c5.345001,26.376953 8.039246,53.817749 16.182983,79.101257c3.793335,11.776917 10.570801,24.988342 19.628357,32.080261c7.042236,5.513794 20.185638,7.72937 28.67099,5.737183c7.312592,-1.716614 11.931244,-12.074402 18.722534,-16.86377c4.543182,-3.203735 10.795044,-3.858582 15.280914,-7.115601c6.151581,-4.466492 19.353424,-12.248901 16.631195,-16.054565c-5.1362,-7.180237 -32.663788,-8.802979 -40.205963,-16.903259c-3.43045,-3.684265 8.121063,-12.958008 7.287781,-18.450256c-0.717285,-4.728516 -0.893768,-13.928955 -2.616882,-19.020508c-12.236847,-36.093384 5.687378,-59.15979 5.85025,-63.083618c0.230133,-5.544739 -3.572296,-24.759644 6.715332,-36.124725c7.029144,-7.76532 20.325928,-8.798187 19.378296,-26.576233c-0.397095,-7.451019 -8.812012,-16.942139 -8.790405,-24.583801c0.025024,-8.807831 13.23941,-9.884583 8.930328,-24.764984c-1.33136,-4.597565 -3.210449,-10.862091 -8.783691,-12.065613c-11.044617,-2.384918 -18.721466,3.764282 -30.498352,2.480377c-11.654999,-1.270721 -29.673309,-16.601624 -40.985382,-19.933655c-6.328674,-1.864319 -22.144745,-8.923187 -27.434509,-12.340027c-4.144287,-2.677185 -10.908905,2.582916 -14.554565,2.288635c-8.351196,-0.673828 -10.30069,8.835297 -18.735352,8.605713c-8.981842,-0.244385 -16.564514,2.965302 -24.895752,6.189209c-7.005951,2.711151 -14.250443,7.750427 -18.890793,13.32193c-2.747711,3.299011 -3.077545,8.758667 -3.273422,13.289856c-0.649414,15.032776 -1.792679,30.822601 0.737579,45.402161z" id="svg_14" stroke-width="1px" fill-rule="evenodd" fill="#00a415"/>
   <path d="m762.881287,452.930908c7.200806,-7.897614 20.848267,-23.483032 17.099365,-27.471161c-5.034302,-5.355804 -33.877625,7.927094 -43.449463,-0.560791c-19.300964,-17.114746 -21.52832,-59.452087 -43.16925,-76.246796c-26.760803,-20.767975 -67.596802,-30.617249 -102.036255,-36.441528c-16.391785,-2.772217 -36.677612,2.745697 -50.457336,10.65213c-9.019653,5.17514 -17.090088,16.027924 -23.546997,25.22879c-8.493652,12.103394 -25.954407,17.542664 -31.39563,29.713867c-1.660187,3.713623 9.530823,16.016083 9.530823,20.182983c0,4.803284 -3.17923,10.63028 -3.9245,15.697784c-1.123688,7.64035 1.013245,17.699554 4.485016,23.546936c3.629608,6.112946 14.458801,7.83548 21.304291,12.334045c6.236084,4.097992 11.793396,12.60733 17.94043,13.455231c4.691772,0.647186 9.738892,-8.768616 14.57666,-8.970215c4.132324,-0.172119 8.14325,8.159485 12.334106,7.848999c5.900513,-0.437073 12.278503,-10.639465 17.940491,-10.091522c5.924438,0.573303 14.045288,7.709778 16.818909,13.455444c2.459106,5.093384 -3.314087,13.442352 -1.121277,19.061554c3.787598,9.704834 17.110718,17.154541 19.061829,26.910706c1.786499,8.931885 -6.475098,19.308105 -7.848816,29.153198c-0.868713,6.226624 -0.431763,13.072021 1.121277,19.061707c1.063293,4.101807 5.789429,7.042969 6.727539,11.21283c2.42572,10.780334 -0.66394,23.568909 3.364075,33.638184c4.194641,10.487427 13.432983,24.692749 21.30426,28.032043c4.46283,1.893433 9.864868,-9.957764 15.697632,-12.334045c4.258972,-1.735168 10.699829,2.272705 14.57666,0c6.962219,-4.081238 13.486633,-11.757568 17.94043,-19.061829c4.890076,-8.019714 6.368408,-18.092896 10.09137,-26.910583c3.378479,-8.001465 6.626282,-16.249878 11.21283,-23.546753c3.636108,-5.784729 11.238281,-9.52179 13.455444,-15.697998c3.015564,-8.400391 2.963562,-18.900391 2.242554,-28.031769c-0.400452,-5.071442 -8.274963,-10.80954 -5.606323,-14.576721c10.039429,-14.173218 30.654114,-24.903778 43.729858,-39.24472z" id="svg_13" stroke-width="1px" fill-rule="evenodd" fill="#00a415"/>
   <path d="m379.68811,37.55307c-127.168076,56.165421 -215.982101,183.433487 -215.982101,331.311707c0,4.096954 0.069366,8.18811 0.204224,12.252319c9.750595,8.928955 19.655319,15.578583 29.250809,18.192047c22.273605,6.066986 51.383774,-25.976532 75.15625,-41.776703c17.712311,-11.770599 34.156952,-26.145111 49.285675,-40.923157c5.086273,-4.967743 5.986969,-14.083588 11.366058,-18.327881c6.99939,-5.524597 23.157928,-4.376282 25.76944,-10.990417c3.160614,-8.007965 -5.409912,-21.979767 -8.4646,-32.867966c-2.871582,-10.233246 8.586945,-16.9552 5.835724,-21.537659c-7.965576,-13.26474 -12.2995,-17.433914 -8.293091,-24.266663c1.928528,-3.291626 12.702148,-10.755325 16.007263,-13.379379c5.630524,-4.472626 12.444977,-12.462296 17.509064,-18.02153c10.947021,-12.018219 16.967712,-17.07077 27.987946,-23.618378c8.019501,-4.766434 14.410095,-5.722992 21.058838,-6.280762c9.754456,-0.817841 19.194855,-5.154648 19.522369,-13.276291c0.012543,-0.310181 -0.091522,-0.589539 -0.238892,-0.819778c-0.077057,-0.113663 -0.195557,-0.244675 -0.307281,-0.341003c-2.301361,-1.909271 -11.223511,-0.66275 -13.618256,-3.925476c-7.12851,-9.712067 -7.724792,-27.057358 -15.563202,-35.393723c-4.247223,-4.516663 -14.963074,-0.161369 -20.717865,-3.140106c-4.279968,-2.215126 -7.763275,-7.639496 -9.386444,-12.42366c-3.039246,-8.960503 -2.856201,-19.235798 -4.572845,-28.806744c-0.688751,-3.839355 -1.266754,-7.740074 -1.809082,-11.638771l0,0l0,-0.000011l0,-0.000015z" id="svg_12" stroke-width="1px" fill-rule="evenodd" fill="#00a415"/>
   <path d="m593.680542,10.828388c-4.249084,1.925218 -8.376587,3.983611 -12.321472,6.041216c-23.85791,12.444021 -56.74115,25.291212 -66.555725,47.681253c-13.041016,29.749847 -4.674683,72.98671 -2.013733,108.741913c1.040771,13.986984 6.066589,29.81105 13.140503,40.479568c2.893982,4.36438 13.608215,1.405243 16.758423,4.607727c0.01593,0.016113 0.053345,0.0513 0.068176,0.068268c0.028809,0.034363 0.077637,0.099304 0.102478,0.136505c0.041809,0.06601 0.10614,0.165176 0.136475,0.238922c0.881592,2.285172 -3.348572,8.030823 -2.184387,10.171082c0.050903,0.088516 0.133545,0.197739 0.204834,0.273071c0.122253,0.12291 0.293518,0.225296 0.477783,0.307144c25.157043,11.170639 58.13501,16.13884 86.112915,26.519943c7.049438,2.615601 14.762146,6.400909 18.97699,12.492035c14.253784,20.598785 23.633667,45.49762 36.452087,67.579712c2.660645,4.583282 5.176941,11.92334 9.966309,12.423737c14.629944,1.528412 37.04541,3.443512 48.261475,-6.348419c22.290527,-19.460114 28.746948,-72.375458 52.254822,-81.436951c21.112549,-8.13829 64.000793,12.62851 81.607605,29.830627c10.943848,10.692261 -2.690796,38.760498 4.061646,53.858978c2.475281,5.534729 7.395508,11.184448 13.106323,15.734467c-3.36261,-175.061829 -131.191895,-319.836796 -298.613525,-349.40082l0,0.00002l0,0.000001z" id="svg_11" stroke-width="1px" fill-rule="evenodd" fill="#00a415"/>
  </g>
 </g>
</svg>