<svg width="10.993304in" height="7.682292in" xmlns="http://www.w3.org/2000/svg">
 <g>
  <path fill=" #0000ff" stroke="#0000ff" stroke-width="1.03436" id="path4009" d="m882.29718,353.722382c0,-187.992981 -152.398499,-340.391512 -340.391541,-340.391512c-187.993134,0 -340.391602,152.398561 -340.391602,340.391512c0,187.99295 152.398499,340.39151 340.391602,340.39151c187.993042,0 340.391541,-152.39856 340.391541,-340.39151z"/>
  <path fill="#ff6600" id="path4011" d="m305.585663,149.303711l-26.864075,-75.555244l-58.765137,144.394417c0,0 -89.578156,149.78952 19.308548,335.80072c108.886673,186.011292 325.988174,171.361145 396.245071,156.1474c70.256897,-15.213806 154.500916,-81.052551 193.924988,-135.999329c39.424133,-54.94696 96.186707,-172.860321 56.246704,-295.5047c-39.940063,-122.644363 -90.66626,-154.468384 -90.66626,-154.468384l-33.580139,-35.259102c0,0 45.333191,50.370171 62.962708,162.863365c-47.012085,-75.55513 -70.518188,-119.209229 -168.739929,-162.863365c30.222107,28.543083 137.678345,141.036415 102.41925,277.035683c-22.875061,-74.529877 -38.115112,-69.780823 -62.123169,-97.382233c105.377869,176.535797 -97.117065,336.667786 -209.87558,274.51709c29.486664,-9.530762 72.822113,-14.389893 101.579803,-76.394592c30.599121,-65.975128 -0.41687,-65.452301 -21.827087,-73.876221c-9.788513,-3.851257 -26.024536,20.987579 -26.024536,20.987579c5.036987,36.098633 -65.7883,106.683075 -120.888367,45.33313c-45.11731,-50.234955 10.913544,-99.900787 10.913544,-99.900787l71.357697,-39.456604l-37.777618,-33.580078l72.197174,-72.197083l-96.542755,-20.148056l-13.431976,-100.740311l-39.456665,60.444199c0,0 -33.580078,-18.46907 -80.592194,-4.19751l0,0.000015z"/>
  <path fill=" #e6e6e6" id="path4013" d="m460.893616,235.772461c0,0 7.555481,26.863953 5.037018,49.530518c61.2836,-47.851532 71.357635,-62.962585 71.357635,-62.962585l-76.394653,13.432053l0,0.000015z"/>
  <path fill=" #ececec" id="path4015" d="m599.673523,412.613464c0,0 -0.451294,-30.243622 -29.382324,-29.403229c-28.942017,0.840698 -29.382324,29.403229 -29.382324,29.403229l58.764648,0z"/>
  <path fill="#000000" id="path4018" d="m497.621796,206.389847l12.59256,42.814545l38.617126,-33.580002l-51.209686,-9.234543z"/>
 </g>
</svg>