<svg width="11.997318in" height="8.692846in" xmlns="http://www.w3.org/2000/svg">
 <g>
  <g id="svg_4">
   <path d="m978.262756,401.479218c0,-213.443863 -173.030579,-386.474463 -386.474548,-386.474463c-213.444092,0 -386.474594,173.03063 -386.474594,386.474463c0,213.443939 173.030563,386.474579 386.474594,386.474579c213.44397,0 386.474548,-173.03064 386.474548,-386.474579z" id="path4009" stroke-width="1.03436" stroke="#0000ff" fill=" #0000ff"/>
   <path d="m323.474701,169.38591l-30.500977,-85.784096l-66.720917,163.942894c0,0 -101.705452,170.068359 21.922577,381.262238c123.627991,211.193909 370.121185,194.560364 449.889679,177.286926c79.768372,-17.273499 175.417542,-92.025635 220.178955,-154.411194c44.761475,-62.385803 109.208618,-196.262604 63.861511,-335.510834c-45.347229,-139.248245 -102.940918,-175.380661 -102.940918,-175.380661l-38.126221,-40.03257c0,0 51.470459,57.189415 71.486694,184.912163c-53.376648,-85.783936 -80.065063,-135.348038 -191.584351,-184.912163c34.31366,32.40731 156.317627,160.130241 116.285095,314.541374c-25.971985,-84.619873 -43.275269,-79.227905 -70.53363,-110.56604c119.644226,200.435638 -110.264954,382.246643 -238.289001,311.681885c33.478699,-10.821106 82.680969,-16.338074 115.331909,-86.737122c34.741699,-74.906982 -0.473267,-74.313354 -24.782104,-83.877747c-11.113708,-4.37265 -29.547729,23.828918 -29.547729,23.828918c5.718872,40.985779 -74.694885,121.126099 -137.254547,51.470459c-51.225403,-57.035889 12.391022,-113.425598 12.391022,-113.425598l81.018311,-44.79834l-42.892059,-38.12619l81.971405,-81.971298l-109.612946,-22.875748l-15.250458,-114.378777l-44.798401,68.627281c0,0 -38.12619,-20.969452 -91.502899,-4.765778l0,0.000015z" id="path4011" fill="#ff6600"/>
   <path d="m499.808594,267.560974c0,0 8.578339,30.500854 5.718933,56.236084c69.580322,-54.329773 81.018188,-71.486588 81.018188,-71.486588l-86.737122,15.250504l0,0z" id="path4013" fill=" #e6e6e6"/>
   <path d="m657.376831,468.34314c0,0 -0.512329,-34.338074 -33.360168,-33.383911c-32.860229,0.954529 -33.360168,33.383911 -33.360168,33.383911l66.720337,0z" id="path4015" fill=" #ececec"/>
   <path d="m541.509094,234.2005l14.297424,48.61087l43.845154,-38.126129l-58.142578,-10.484741z" id="path4018" fill="#000000"/>
  </g>
 </g>
</svg>