<svg width="12in" height="9in" xmlns="http://www.w3.org/2000/svg">
 <!-- Created with SVG-edit - http://svg-edit.googlecode.com/ -->
 <g>
  <path stroke="#000000" fill="#FF0000" stroke-width="5" stroke-miterlimit="10" d="m355.5513,260.815613c0,0 -43.297516,33.936523 -32.765137,100.636505c10.530457,66.700104 29.254181,118.192017 52.658325,124.040741s-19.893188,-224.677246 -19.893188,-224.677246z" id="svg_24"/>
  <path stroke="#000000" fill="#FF0000" stroke-width="5" stroke-miterlimit="10" d="m784.448425,258.474579c0,0 43.297791,33.936523 32.76709,100.636505c-10.532349,66.700195 -29.256104,118.193604 -52.660217,124.042328s19.893127,-224.678833 19.893127,-224.678833z" id="svg_23"/>
  <path stroke="#000000" fill="#FF0000" stroke-width="5" stroke-miterlimit="10" d="m568.527588,24.43486c0,0 -125.211517,-10.53069 -210.636932,99.466827c-5.85199,87.764633 -17.552368,187.231461 -5.85199,358.080338c4.680634,18.723633 12.873413,35.106293 12.873413,35.106293s0,118.190369 14.041412,155.635864s73.721893,127.550171 86.593628,136.912659c12.873199,9.362671 112.338562,29.254395 200.103333,2.341003c65.531738,-92.445251 95.957581,-124.039063 95.957581,-173.188354s16.38269,-162.657776 24.5755,-161.487976c2.341003,-115.849396 11.703491,-308.932739 -5.850342,-352.230156s-124.040833,-106.486797 -211.805603,-100.636497z" id="svg_22"/>
  <path stroke="#000000" fill="#FEFF5F" stroke-width="5" stroke-miterlimit="10" d="m513.702698,333.367371l-23.403656,-201.272766c0,0 -69.04126,8.191589 -117.019684,46.808029c14.043579,76.062439 1.169434,224.677231 1.169434,224.677231s-22.234222,56.169159 -19.892456,77.233948c2.34082,38.617401 91.275238,160.316498 94.785461,193.082123l-4.680389,37.445068l30.425812,54.999695c0,0 18.723999,-9.360962 74.893005,-9.360962c11.70282,-11.701843 32.765625,-10.53241 37.446045,-8.190674s4.680359,2.34082 4.680359,2.34082s54.997925,12.872986 71.38208,12.872986s28.085022,-55.000732 28.085022,-55.000732s-11.70282,-37.446045 3.510193,-57.339417s86.593872,-142.762939 91.275269,-172.018341c-10.530457,-43.297913 -18.723022,-77.232849 -18.723022,-77.232849l0,-217.660034c0,0 -64.360596,-50.317139 -115.849304,-51.488541c-11.702759,66.701431 -24.573792,198.933029 -24.573792,198.933029l-56.170227,11.702789l-57.340149,-10.531403z" id="svg_21" stroke-opacity="0"/>
  <path fill="#1F42FF" d="m520.548218,472.621002c0,0 -101.807648,-32.765137 -119.360016,-51.48877c-5.850311,11.701965 -7.021667,33.934937 -7.021667,33.934937l29.676239,38.709137l85.003357,18.629822l11.702087,-19.89328l0,-19.891846z" id="svg_20"/>
  <path fill="#1F42FF" d="m622.063049,470.945221c0,0 103.176758,-28.156189 121.553528,-46.071442c5.320129,11.951843 8.210327,39.696075 8.210327,39.696075l-32.303772,27.158295l-89.708069,17.934326l-8.646179,-18.844482l0.894165,-19.872772z" id="svg_19"/>
  <path id="svg_18" d="m659.802979,41.9888l-15.213989,132.232193l-140.423981,2.339005l-22.231995,-136.912216" stroke-width="5" stroke="#000000" fill="none"/>
  <polyline stroke="#000000" fill="none" stroke-width="5" stroke-miterlimit="10" points="450.337 680.915 484.272 724.213 501.827 703.15 644.589 701.98 662.143 724.213 686.717 690.276" id="svg_17"/>
  <line stroke="#000000" fill="none" stroke-width="5" stroke-miterlimit="10" x1="711.2905" y1="102.83861" x2="706.60999" y2="149.64688" id="svg_16"/>
  <line stroke="#000000" fill="none" stroke-width="5" stroke-miterlimit="10" x1="428.10301" y1="102.83861" x2="435.12457" y2="148.47556" id="svg_15"/>
  <path stroke="#000000" fill="none" stroke-width="5" stroke-miterlimit="10" d="m394.168213,455.067169l29.254456,39.786591l85.425171,17.552368l11.702026,-19.89328l93.616577,2.340912l11.702026,14.041656l91.277161,-14.041656l36.272705,-30.423981l-9.362671,-40.958069c0,0 -77.232361,47.978058 -172.018555,52.658447s-173.188751,-59.680115 -173.188751,-59.680115l-4.680145,38.617126z" id="svg_14"/>
 </g>
</svg>