<svg width="12in" height="9in" xmlns="http://www.w3.org/2000/svg">
 <g>
  <path fill="#0000ff" id="svg_5" d="m223.159927,213.646622c0.050797,15.412048 0.973099,30.809814 1.40947,46.212814c91.220459,-70.760544 219.669098,-123.571411 367.73468,-136.710175c280.650391,-24.9048 415.263306,110.982071 414.752502,113.027344c0,0 60.344177,-0.957458 97.701477,-2.873779c-113.027405,-161.877945 -339.080933,-163.794296 -372.606873,-165.710526c-98.410095,1.757347 -323.653137,7.048866 -510.786285,137.771866c1.137299,2.549408 1.78595,5.350067 1.795135,8.28244l-0.000031,0.000031l-0.000031,-0.000031l-0.000015,0l-0.000015,0l0.000015,0l-0.000015,0l-0.000015,0l0,0.000015z"/>
  <path fill="#0000ff" id="svg_6" d="m918.932556,602.077271c-25.15332,14.995117 -130.557495,88.836487 -266.283997,121.647156c-119.160706,28.803711 -263.927887,20.101746 -367.816986,-7.662354c-222.222294,-59.38678 -203.064972,-238.507141 -203.064972,-238.507141c7.623268,-62.893616 43.955139,-126.581879 101.942825,-182.44104c-0.557556,-1.879761 -0.828537,-3.863708 -0.73085,-5.911469c0.858459,-18.042206 -0.135483,-36.06485 -0.801102,-54.094055c-3.474289,2.864609 -6.935471,5.765732 -10.371948,8.730621c-69.001976,59.518311 -138.922195,138.122406 -143.678328,244.253326c-8.942909,199.55954 209.770018,299.807526 500.000181,297.892609c290.230164,-1.914917 479.886597,-181.033997 479.886597,-181.033997c0,0 -73.755188,-3.832397 -89.081421,-2.873657z"/>
  <path fill="#050105" id="svg_7" d="m1054.947144,381.768555l0.345337,14.980774l63.831665,0.345306c0,0 0.69165,-26.724548 -14.367554,-53.639435c-17.321655,-30.960785 -57.764771,-65.948334 -113.102722,-54.674866c-103.44873,21.073547 -97.74054,123.869568 -97.624573,137.050232c0.115967,13.180664 15.327332,117.817383 123.564819,118.774841c76.627808,0 96.744019,-87.165253 96.744019,-87.165253l-13.410034,0.957489c0,0 -15.325928,68.964111 -84.291382,71.83783c-31.953613,1.91748 -52.377136,-35.707886 -57.471863,-50.765656c-5.094727,-15.05777 -6.629456,-128.507141 0,-139.848358c6.629456,-11.341217 14.442932,-34.786926 50.764465,-36.397003c37.357056,3.831268 42.144165,21.072235 45.017822,78.544098z" stroke="#ffffff"/>
  <path fill="#020202" stroke-width="0" id="svg_9" d="m812.067139,299.189331l54.278748,0l-0.977051,232.311829l-53.301697,3.908325l0,-236.220154z"/>
  <path fill="#ff0000" id="svg_10" d="m874.525513,237.134079c0,19.0439 -14.136719,34.483414 -33.180542,34.483414c-19.043823,0 -34.483521,-15.439514 -34.483521,-34.483414c0,-19.0439 15.439575,-34.483398 34.483521,-34.483398c19.043945,0 33.180542,15.439499 33.180542,34.483398z"/>
  <path fill="none" stroke="#000000" stroke-width="8" stroke-miterlimit="10" id="svg_11" d="m785.790588,531.194214l110.153625,2.931213"/>
  <path fill="#050105" stroke="#ffffff" stroke-miterlimit="10" id="svg_12" d="m710.120117,199.775696c0,0 -17.241028,61.302979 -88.122498,106.322449l41.186951,-0.420776c0,0 -1.376953,79.410431 -2.872559,134.521698c-1.672546,61.600067 -0.482117,104.858307 63.218018,105.363739c0,0 58.430481,3.83252 66.091553,-49.806793c-4.789917,-6.704956 -13.411011,-3.831268 -13.411011,-3.831268c0,0 1.917542,37.357056 -35.439453,33.524658c-41.188416,-13.409851 -26.820923,-28.737244 -25.863403,-127.394714c0.958618,-98.661346 -4.787598,-198.278992 -4.787598,-198.278992z"/>
  <path fill="none" stroke="#000000" stroke-width="5" id="svg_13" d="m709.162781,304.181915l104.404907,0"/>
  <path fill="#050105" stroke="#ffffff" stroke-miterlimit="10" id="svg_14" d="m468.740662,326.212891c0,0 40.229523,37.357117 -7.662506,51.724396c-47.892029,14.367279 -48.850494,-75.6716 54.598297,-88.122681c103.448792,-0.957458 99.614929,45.976898 97.701172,123.563568c-1.913757,77.58667 -10.534607,137.930847 29.694702,104.406189c8.619934,1.916199 8.619934,9.579956 8.619934,9.579956c0,0 -73.754028,50.765564 -94.827576,-28.737244c-28.736084,59.388184 -136.01593,61.304382 -142.720886,-6.703461c-6.704956,-68.007904 76.628906,-89.081604 144.637207,-86.207794c-0.960327,12.452393 -0.960327,12.452393 -0.960327,12.452393c0,0 -92.912537,-17.242371 -87.165283,70.881622c29.693481,62.260529 86.207825,9.578827 85.249207,-24.904572c0,0 14.36731,-108.236328 -0.957458,-143.677155c-25.862244,-22.991089 -52.682098,-25.864777 -86.206604,5.744812l0.000031,0l0.000031,0l0.000031,0l0.000031,0l0,-0.000031z"/>
  <path fill="none" stroke="#000000" stroke-width="5" id="svg_17" d="m246.799713,410.931702l109.296509,-108.09024"/>
  <path fill="none" stroke="#000000" stroke-width="5" id="svg_18" d="m280.042908,304.183228l126.435944,0"/>
  <path fill="#050105" stroke-width="0" id="svg_19" d="m165.28653,129.18959l63.179977,0l0,407.738815l-63.179977,0l0,-407.738815z"/>
  <path fill="none" stroke="#000000" stroke-width="5" id="svg_20" d="m137.322128,534.151672l133.142136,0"/>
  <path fill="none" stroke="#000000" stroke-width="8" stroke-miterlimit="10" id="svg_21" d="m137.322128,133.684006l90.996399,0"/>
  <path fill="#000000" stroke="#000000" stroke-width="1px" id="path3056" d="m244.270203,409.396851l28.335327,-24.427032l119.203857,146.562164l-52.76236,2.931213l-94.776825,-125.066345z"/>
  <path fill="none" stroke="#000000" stroke-width="5" id="path3058" d="m308.311279,532.151672l133.14212,0"/>
  <path stroke="#000000" fill="none" stroke-width="8" stroke-miterlimit="10" id="svg_8" d="m952.113403,391.1604l109.179077,0.229279"/>
 </g>
</svg>