<svg width="12in" height="9in" xmlns="http://www.w3.org/2000/svg">
 <!-- Created with SVG-edit - http://svg-edit.googlecode.com/ -->

 <g>
  <path fill="#0000FF" fill-rule="nonzero" id="svg_40" d="m1114.938477,306.994171l-1087.939253,0l0,250.23941l1099.001631,0l0,-250.23941l-11.062378,0"/>
  <path fill="#ffffff" fill-rule="nonzero" id="svg_39" d="m1103.875977,329.118744c0,19.013306 0,186.979401 0,205.990082c-21.448364,0 -1033.305359,0 -1054.752056,0c0,-19.010681 0,-186.976776 0,-205.990082c21.446697,0 1033.303692,0 1054.752056,0"/>
  <path fill="#ed1e24" fill-rule="nonzero" id="svg_38" d="m1067.101807,453.205566c0,-43.094757 -24.043579,-52.885498 -43.626892,-52.885498c-19.592834,0 -47.729248,12.636292 -47.729248,49.502625c0,36.678619 23.686035,49.323761 48.440613,49.323761c16.561768,0 30.272827,-4.805145 41.312866,-14.247681l-11.040039,-17.093506c-6.416382,5.876678 -16.922363,11.399261 -28.139404,11.399261c-11.931641,0 -20.654968,-6.059631 -22.074097,-21.721039l62.856201,0l0,-4.277924z"/>
  <path fill="#ed1e24" fill-rule="nonzero" id="svg_37" d="m842.643921,437.53183c0,-24.392426 -10.679932,-37.211761 -36.682922,-37.211761c-23.682678,0 -37.924744,8.370667 -47.368713,16.91214l12.108459,16.383514c8.733093,-6.76947 19.058777,-11.753815 31.167358,-11.753815c9.25769,0 12.822754,4.457184 12.822754,11.398254l0,2.318726c-41.670166,3.382874 -60.19165,15.490662 -60.19165,37.393188c0,16.204742 12.465698,25.643433 27.071106,25.643433c14.065002,0 24.390686,-5.51886 33.120544,-15.315613c0,5.339874 0.891418,9.969574 2.136719,13.889557l28.490173,0c-1.962646,-4.811218 -2.673828,-11.753601 -2.673828,-23.149414l0,-36.508209z"/>
  <path fill="#ed1e24" fill-rule="nonzero" id="svg_36" d="m485.801544,400.320068c-19.593079,0 -47.729279,12.636292 -47.729279,49.502625c0,36.678619 23.686035,49.323761 48.437073,49.323761c16.565063,0 30.273071,-4.805145 41.316406,-14.247681l-11.043335,-17.093414c-6.413086,5.876587 -16.919067,11.39917 -28.133118,11.39917c-11.934875,0 -20.658203,-6.05954 -22.080536,-21.721039l62.856354,0l0,-4.277924c0,-43.094757 -24.040253,-52.885498 -43.623566,-52.885498z"/>
  <path fill="#ed1e24" fill-rule="nonzero" id="svg_35" d="m326.399658,437.53183c0,-24.392426 -10.680878,-37.211761 -36.686188,-37.211761c-23.677826,0 -37.924179,8.370667 -47.364166,16.91214l12.106659,16.383514c8.731232,-6.76947 19.05658,-11.753815 31.163452,-11.753815c9.259827,0 12.825317,4.457184 12.825317,11.398254l0,2.318726c-41.668915,3.382874 -60.189484,15.490662 -60.189484,37.393188c0,16.204742 12.460907,25.643433 27.070496,25.643433c14.0625,0 24.387726,-5.51886 33.118988,-15.315613c0,5.339874 0.891663,9.969574 2.137268,13.889557l28.490509,0c-1.962952,-4.811218 -2.672852,-11.753601 -2.672852,-23.149414l0,-36.508209z"/>
  <path fill="#ffffff" fill-rule="nonzero" id="svg_34" d="m1004.599426,440.562866c2.136658,-13.889557 9.788635,-19.76651 18.692261,-19.76651c10.68927,0 16.738953,6.414032 18.164246,19.76651l-36.856506,0z"/>
  <path fill="#ed1e24" fill-rule="nonzero" id="svg_33" d="m938.342346,418.123413l-0.170654,0l0,-15.846558l-28.673462,0l0,94.912598l28.673462,0l0,-58.943909c5.33844,-6.942505 13.887939,-12.998291 25.288635,-12.998291c1.773071,0 6.403564,0.351776 7.474854,0.534821l0.354065,-25.462006l-0.891357,0c-17.800842,0 -26.887756,9.790741 -32.055542,17.803345z"/>
  <path fill="#ed1e24" fill-rule="nonzero" id="svg_32" d="m861.386475,497.189453l28.487122,0l0,-94.912598l-28.487122,0l0,94.912598z"/>
  <path fill="#ed1e24" fill-rule="nonzero" id="svg_31" d="m861.203247,389.276428l28.844116,0l0,-22.976837l-28.844116,0l0,22.976837z"/>
  <path fill="#ffffff" fill-rule="nonzero" id="svg_30" d="m814.690857,468.873352c-4.810486,4.808594 -11.751343,8.191467 -21.729553,8.191467c-6.229553,0 -10.505981,-3.02478 -10.505981,-9.076874c0,-8.732513 9.620911,-14.424286 32.235535,-16.745422l0,17.630829z"/>
  <path fill="#ed1e24" fill-rule="nonzero" id="svg_29" d="m700.903687,389.634186l58.052002,0l0,-24.217377l-87.076477,0l0,131.772644l29.024475,0l0,-52.533813l41.309875,0l0,-22.966644l-41.309875,0l0,-32.05481z"/>
  <path fill="#ed1e24" fill-rule="nonzero" id="svg_28" d="m574.828552,418.123505l-0.174438,0l0,-15.846558l-28.671143,0l0,94.912506l28.671143,0l0,-58.943909c5.337769,-6.942261 13.891785,-12.998199 25.287903,-12.998199c1.775024,0 6.404724,0.351776 7.47937,0.534882l0.354065,-25.462158l-0.892517,0c-17.803467,0 -26.891052,9.790741 -32.054382,17.803436l0,0z"/>
  <path fill="#ffffff" fill-rule="nonzero" id="svg_27" d="m466.926025,440.562866c2.136475,-13.889557 9.788391,-19.76651 18.69223,-19.76651c10.689301,0 16.738831,6.414032 18.16748,19.76651l-36.859711,0z"/>
  <path fill="#ed1e24" fill-rule="nonzero" id="svg_26" d="m436.264465,402.276855l-30.800842,0l-29.561554,35.440125l0,-72.300171l-28.670471,0l0,131.772644l28.670471,0l0,-25.643158l11.571075,-13.000732l21.012207,38.64389l29.561554,0l-32.763336,-59.472473l30.980896,-35.440125z"/>
  <path fill="#ffffff" fill-rule="nonzero" id="svg_25" d="m298.444733,468.873352c-4.81015,4.808594 -11.752289,8.191467 -21.729584,8.191467c-6.232483,0 -10.506683,-3.02478 -10.506683,-9.076874c0,-8.732513 9.621399,-14.424286 32.236267,-16.745422l0,17.630829z"/>
  <path fill="#ed1e24" fill-rule="nonzero" id="svg_24" d="m153.493835,462.286499l-0.35437,0l-29.381859,-96.86969l-38.286034,0l0,131.772644l25.998993,0l0,-91.356903l0.354248,0c2.847183,15.136719 4.629745,20.840759 7.657074,30.810486l19.586365,60.546417l25.642166,0l19.766388,-60.546417c2.847183,-9.614075 5.339996,-17.982544 7.304337,-29.380554l0.355515,0l0,89.926971l27.953323,0l0,-131.772644l-39.170135,0l-27.42601,96.86969"/>
 </g>
</svg>
