<svg width="12in" height="9in" xmlns="http://www.w3.org/2000/svg">
 <!-- Created with SVG-edit - http://svg-edit.googlecode.com/ -->
 <g>
  <path fill="#0000FF" fill-rule="nonzero" id="svg_43" d="m1117.858032,589.083374l-1095.858795,0l0,252.060974l1107.001617,0l0,-252.060974l-11.142822,0"/>
  <path fill="#ffffff" fill-rule="nonzero" id="svg_42" d="m1106.714966,611.368958c0,19.151794 0,188.340515 0,207.489624c-21.604614,0 -1040.827156,0 -1062.429974,0c0,-19.149109 0,-188.33783 0,-207.489624c21.602818,0 1040.825359,0 1062.429974,0"/>
  <path fill="#ed1e24" fill-rule="nonzero" id="svg_41" d="m1069.672974,736.359131c0,-43.408508 -24.218384,-53.270508 -43.944336,-53.270508c-19.735474,0 -48.07666,12.728271 -48.07666,49.862976c0,36.945618 23.858337,49.6828 48.793091,49.6828c16.682129,0 30.493286,-4.840088 41.613647,-14.35144l-11.120361,-17.217896c-6.463135,5.919434 -17.045654,11.4823 -28.344116,11.4823c-12.018616,0 -20.805481,-6.103821 -22.235168,-21.87915l63.313904,0l0,-4.309082z"/>
  <path fill="#ed1e24" fill-rule="nonzero" id="svg_40" d="m843.58136,720.571228c0,-24.569885 -10.757751,-37.482605 -36.950012,-37.482605c-23.855103,0 -38.200867,8.431641 -47.713501,17.035095l12.196533,16.502869c8.796692,-6.818665 19.197571,-11.839355 31.394226,-11.839355c9.325073,0 12.916199,4.489685 12.916199,11.481262l0,2.335632c-41.973511,3.407532 -60.629883,15.603394 -60.629883,37.665344c0,16.322693 12.556458,25.8302 27.268188,25.8302c14.167358,0 24.568237,-5.559143 33.361694,-15.427185c0,5.378723 0.897766,10.042175 2.152161,13.990662l28.697571,0c-1.97699,-4.846313 -2.693176,-11.839172 -2.693176,-23.317932l0,-36.773987z"/>
  <path fill="#ed1e24" fill-rule="nonzero" id="svg_39" d="m484.141388,683.088623c-19.735809,0 -48.076752,12.728271 -48.076752,49.862976c0,36.945618 23.858429,49.6828 48.789612,49.6828c16.68573,0 30.49353,-4.840088 41.617126,-14.35144l-11.123596,-17.217773c-6.459808,5.919312 -17.042267,11.482178 -28.337952,11.482178c-12.021759,0 -20.808594,-6.103699 -22.241272,-21.87915l63.313965,0l0,-4.309082c0,-43.408508 -24.215302,-53.270508 -43.941132,-53.270508z"/>
  <path fill="#ed1e24" fill-rule="nonzero" id="svg_38" d="m323.579132,720.571228c0,-24.569885 -10.758636,-37.482605 -36.953217,-37.482605c-23.85022,0 -38.200302,8.431641 -47.708984,17.035095l12.194763,16.502869c8.7948,-6.818665 19.195343,-11.839355 31.390381,-11.839355c9.327179,0 12.91861,4.489685 12.91861,11.481262l0,2.335632c-41.972214,3.407532 -60.627594,15.603394 -60.627594,37.665344c0,16.322693 12.55159,25.8302 27.267517,25.8302c14.164886,0 24.565308,-5.559143 33.360077,-15.427185c0,5.378723 0.898193,10.042175 2.152863,13.990662l28.697876,0c-1.977325,-4.846313 -2.692291,-11.839172 -2.692291,-23.317932l0,-36.773987z"/>
  <path fill="#ffffff" fill-rule="nonzero" id="svg_37" d="m1006.715759,723.62439c2.152222,-13.990723 9.859863,-19.910278 18.828186,-19.910278c10.76709,0 16.860962,6.460449 18.296631,19.910278l-37.124817,0z"/>
  <path fill="#ed1e24" fill-rule="nonzero" id="svg_36" d="m939.976379,701.021606l-0.171997,0l0,-15.961975l-28.882202,0l0,95.603516l28.882202,0l0,-59.372986c5.37738,-6.993042 13.989197,-13.092957 25.472656,-13.092957c1.786133,0 6.450256,0.354431 7.529358,0.538818l0.356628,-25.6474l-0.897766,0c-17.930481,0 -27.083496,9.862 -32.288879,17.932983z"/>
  <path fill="#ed1e24" fill-rule="nonzero" id="svg_35" d="m862.460327,780.663147l28.694397,0l0,-95.603516l-28.694397,0l0,95.603516z"/>
  <path fill="#ed1e24" fill-rule="nonzero" id="svg_34" d="m862.275635,671.9646l29.054138,0l0,-23.144043l-29.054138,0l0,23.144043z"/>
  <path fill="#ffffff" fill-rule="nonzero" id="svg_33" d="m815.424805,752.140869c-4.84552,4.843628 -11.836914,8.25116 -21.887756,8.25116c-6.274963,0 -10.582458,-3.046814 -10.582458,-9.142944c0,-8.796082 9.690979,-14.529297 32.470215,-16.867371l0,17.759155z"/>
  <path fill="#ed1e24" fill-rule="nonzero" id="svg_32" d="m700.809265,672.324951l58.474548,0l0,-24.393677l-87.710266,0l0,132.731873l29.235718,0l0,-52.91626l41.610596,0l0,-23.133728l-41.610596,0l0,-32.288208z"/>
  <path fill="#ed1e24" fill-rule="nonzero" id="svg_31" d="m573.816406,701.021667l-0.17572,0l0,-15.962097l-28.879883,0l0,95.603577l28.879883,0l0,-59.372986c5.376648,-6.993103 13.99292,-13.093018 25.471985,-13.093018c1.787903,0 6.451355,0.354614 7.533813,0.53894l0.356689,-25.647461l-0.899048,0c-17.933044,0 -27.086792,9.862 -32.28772,17.933044l0,0z"/>
  <path fill="#ffffff" fill-rule="nonzero" id="svg_30" d="m465.128418,723.62439c2.151978,-13.990723 9.85965,-19.910278 18.828308,-19.910278c10.76709,0 16.860626,6.460449 18.299744,19.910278l-37.128052,0z"/>
  <path fill="#ed1e24" fill-rule="nonzero" id="svg_29" d="m434.243652,685.059631l-31.025055,0l-29.776733,35.698181l0,-72.826538l-28.87915,0l0,132.731873l28.87915,0l0,-25.829773l11.655304,-13.095459l21.165192,38.925232l29.776733,0l-33.001831,-59.905334l31.20639,-35.698181z"/>
  <path fill="#ffffff" fill-rule="nonzero" id="svg_28" d="m295.420685,752.140869c-4.845123,4.843628 -11.83783,8.25116 -21.887726,8.25116c-6.277893,0 -10.583191,-3.046814 -10.583191,-9.142944c0,-8.796082 9.691437,-14.529297 32.470917,-16.867371l0,17.759155z"/>
  <path fill="#ed1e24" fill-rule="nonzero" id="svg_27" d="m149.414642,745.506104l-0.356934,0l-29.595757,-97.574829l-38.564713,0l0,132.731873l26.18824,0l0,-92.021912l0.356842,0c2.867905,15.246948 4.663429,20.992432 7.712799,31.034729l19.728928,60.987183l25.828842,0l19.910294,-60.987183c2.867889,-9.684021 5.37883,-18.113342 7.357468,-29.594421l0.358154,0l0,90.581604l28.156799,0l0,-132.731873l-39.455292,0l-27.625671,97.574829"/>

  <path fill="#ff0000" id="svg_86" d="m396.455444,576.175964l0,-9.414673l11.842529,-8.92572l11.842712,-8.916931l68.505768,0l68.506012,0l0,18.340454l0,18.340393l-80.348511,0l-80.348511,0l0,-9.423523z"/>
  <path fill="#ff0000" id="svg_85" d="m593.833313,567.259094l0,-18.340454l68.514526,0l68.505737,0l10.620117,8.078552c5.842712,4.445313 11.170227,8.515137 11.842529,9.047913c0.908325,0.724915 1.21405,3.362366 1.21405,10.261902l0,9.29248l-80.34845,0l-80.348511,0l0,-18.340393z"/>
  <path fill="#ff0000" id="svg_84" d="m424.402771,540.74408c0,-0.174622 1.187622,-6.951843 2.628784,-15.065369c1.449707,-8.113464 4.803467,-26.934174 7.458252,-41.82489c2.655029,-14.890594 5.231384,-29.13504 5.729279,-31.659058l0.908295,-4.585083l50.104401,0c33.397003,0 50.287506,0.296906 50.65451,0.899567c0.305542,0.497772 1.877625,19.650452 3.493408,42.575958c1.624268,22.925537 3.108948,43.54541 3.301086,45.824829l0.358215,4.148438l-62.313873,0c-34.279114,0 -62.322357,-0.139771 -62.322357,-0.314392z"/>
  <path fill="#ff0000" id="svg_83" d="m602.30481,536.910034c0.200806,-2.279419 1.694214,-22.916748 3.318787,-45.851044c1.633057,-22.942993 3.205139,-42.10434 3.502136,-42.575958c0.340515,-0.55896 18.375366,-0.873352 50.628235,-0.873352l50.095642,0l0.873352,4.148407c0.488953,2.279449 1.109009,5.52829 1.388489,7.20517c0.279541,1.685608 2.47168,14.060974 4.864685,27.51062c2.392944,13.449677 5.353516,30.156921 6.576355,37.117554c1.222595,6.969299 2.436707,13.746521 2.698547,15.065308l0.471619,2.401733l-62.383545,0l-62.383606,0l0.349304,-4.148438z"/>
  <path fill="#ff0000" id="svg_82" d="m393.398712,510.77063c-7.257599,-0.925812 -21.947479,-4.017517 -22.90802,-4.820923c-0.611542,-0.497864 -1.109192,-0.681244 -1.109192,-0.410553c0,0.654999 -10.462738,-3.222626 -16.384125,-6.069763c-2.69873,-1.3013 -4.349274,-2.60257 -4.008759,-3.152802c0.358002,-0.585175 0.165894,-0.681244 -0.51535,-0.270782c-0.637543,0.401825 -2.13092,-0.087311 -3.589355,-1.170258c-1.379974,-1.021759 -2.812195,-1.851501 -3.187866,-1.851501c-0.384247,-0.008759 -1.877625,-1.091705 -3.318573,-2.41922c-1.441162,-1.327515 -4.454193,-3.912598 -6.70752,-5.737885c-4.235626,-3.423584 -11.720337,-11.938782 -9.432037,-10.724792c0.716003,0.384338 0.471436,-0.026245 -0.541595,-0.908325c-4.026245,-3.519531 -10.960602,-16.480164 -12.244415,-22.890564l-0.55011,-2.733582l51.20459,0l51.196075,0l0,31.87738l0,31.87738l-7.641846,-0.131012c-4.200867,-0.069824 -8.820953,-0.279419 -10.261902,-0.462799z"/>
  <path fill="#ff0000" id="svg_81" d="m739.683289,479.618073l0,-32.008392l51.527832,0c28.340271,0 51.527832,0.18335 51.527832,0.401703c0,0.227081 -0.847107,2.681244 -1.877808,5.458435c-2.558838,6.855927 -6.462708,13.834015 -7.598145,13.580688c-0.515137,-0.113525 -0.733459,0.323151 -0.480347,0.978149c0.550293,1.441071 -8.829529,13.423462 -13.187561,16.838287c-1.746704,1.362366 -4.157166,3.371124 -5.35376,4.46283c-1.205078,1.082947 -2.611267,1.711731 -3.135193,1.388611c-0.524109,-0.323151 -0.69873,-0.18338 -0.392944,0.305634c1.152649,1.877747 -14.401611,9.999969 -27.231323,14.235718c-10.218201,3.362366 -20.864319,5.222626 -33.536682,5.85141l-10.261902,0.51535l0,-32.008423z"/>
  <path fill="#ff0000" id="svg_80" d="m308.840607,438.22113c-0.340729,-0.585205 1.510864,-17.353546 7.213898,-65.283173c0.969299,-8.165833 2.436676,-20.838196 3.24884,-28.165649l1.475922,-13.318634l4.655029,0l4.646301,0l0,-14.846985l0,-14.847015l-15.283661,0l-15.283691,0l0,-16.934326c0,-18.200653 1.021759,-26.156891 4.724762,-36.872955c4.78595,-13.868866 11.126526,-25.073944 20.689697,-36.584793c11.38855,-13.694122 26.558807,-23.458252 44.890472,-28.899231c7.135223,-2.113541 9.589417,-2.366745 26.418945,-2.759827l18.558746,-0.427933l0,61.239532l0,61.239532l-12.663605,0l-12.663635,0l0,14.847015l0,14.846985l4.724762,0l4.724762,0l0.51535,4.148438c0.2883,2.279449 2.296844,19.47583 4.462952,38.209198c2.165894,18.73349 4.716003,40.549835 5.676788,48.4711c0.951813,7.930023 1.729218,14.899475 1.729218,15.502045c0,0.864594 -10.78598,1.091675 -51.03891,1.091675c-28.069489,0 -51.213348,-0.296906 -51.422943,-0.654999l0,0z"/>
  <path fill="#ff0000" id="svg_79" d="m454.970123,407.872101l0,-31.004059l42.357635,0l42.357666,0l0,31.004059l0,31.004028l-42.357666,0l-42.357635,0l0,-31.004028z"/>
  <path fill="#ff0000" id="svg_78" d="m611.300354,407.872101l0,-31.004059l42.357666,0l42.357605,0l0,31.004059l0,31.004028l-42.357605,0l-42.357666,0l0,-31.004028z"/>
  <path fill="#ff0000" id="svg_77" d="m739.683289,438.535522c0,-0.192108 2.750977,-23.728943 6.113464,-52.313904c3.362305,-28.57608 6.113464,-52.593292 6.113464,-53.361847c0,-1.11792 0.978088,-1.406097 4.803467,-1.406097l4.803467,0l0,-14.846985l0,-14.847015l-12.663635,0l-12.663635,0l0,-61.239532l0,-61.239532l18.558777,0.462906c14.855713,0.366745 19.781372,0.803421 24.672241,2.192123c7.921326,2.25322 13.528198,4.323059 14.995361,5.537033c0.637573,0.53273 1.161621,0.733582 1.161621,0.454163c0,-0.978149 10.916931,5.825195 17.580505,10.943146c9.423523,7.248764 24.130859,24.794403 23.082886,27.536743c-0.262024,0.681244 -0.078674,0.969406 0.427979,0.655014c1.004211,-0.620041 7.964844,13.729187 10.602356,21.842575c3.362549,10.375443 4.200928,17.475815 4.200928,35.466873l0,17.388489l-15.283691,0l-15.283691,0l0,14.847015l0,14.846985l4.803467,0c3.641785,0 4.803406,0.314392 4.803406,1.275055c0,1.414825 11.039124,96.496918 11.894958,102.435638l0.532837,3.711761l-51.623962,0c-28.392761,0 -51.632568,-0.157135 -51.632568,-0.340607z"/>
  <path fill="#ff0000" id="svg_76" d="m455.066071,366.754669c-11.00412,-2.960693 -21.763885,-11.80777 -26.375214,-21.676697c-3.676788,-7.868927 -4.244598,-14.375366 -4.270599,-48.776764l-0.017487,-31.222382l35.370789,0l35.370819,0l0,2.017487c0,8.637482 8.148254,28.628448 15.659149,38.427551c2.384277,3.1091 4.061035,5.956238 3.729248,6.32309c-0.33197,0.375458 -0.174622,0.427917 0.349243,0.131012c0.524109,-0.297028 2.28833,0.847137 3.930115,2.55011c10.812195,11.222595 27.667969,19.493317 45.327148,22.244293c7.28363,1.135406 27.624084,0.393066 30.148193,-1.100433c0.471619,-0.279419 3.152649,-1.170258 5.947571,-1.973663c5.117737,-1.467285 14.812012,-5.869019 18.995422,-8.628754c1.240112,-0.812256 2.585083,-1.187836 2.978088,-0.821014c0.401672,0.358124 0.471619,0.200867 0.148376,-0.358093c-0.340515,-0.593811 0.602539,-1.755463 2.279541,-2.794678c4.523926,-2.794708 14.855774,-13.93869 19.178833,-20.707184c5.161438,-8.052399 10.052307,-20.40152 11.371033,-28.689728l1.056763,-6.619995l35.169922,0l35.169983,0l-0.026245,30.785706c-0.008728,16.934326 -0.392944,33.615356 -0.838379,37.073914c-2.113464,16.279205 -14.034851,29.659027 -30.165649,33.859802c-7.528442,1.956329 -233.185333,1.921448 -240.486664,-0.043579l0,0z"/>
  <path fill="#ff0000" id="svg_75" d="m522.218323,256.32782l0,-52.427322l15.030396,0.244461l15.030334,0.235825l2.000061,6.55014c1.100403,3.606964 1.807861,7.065399 1.580811,7.685562c-0.23584,0.628784 -0.104919,0.934433 0.305542,0.689865c0.401672,-0.253189 1.519592,2.384354 2.497864,5.851532c1.729248,6.165817 7.790283,26.156891 13.912476,45.912125c1.694275,5.458466 3.380005,9.580688 3.746704,9.170227c0.36676,-0.410461 4.689819,-15.091583 9.606873,-32.628464c4.916931,-17.528152 9.729309,-34.532425 10.68988,-37.772537l1.755432,-5.895126l15.196289,0l15.196472,0l0,52.401199l0,52.401184l-10.916931,0l-10.916931,0l-0.113647,-36.025818c-0.069702,-19.81633 -0.288086,-35.038925 -0.497681,-33.842438c-1.152832,6.567627 -4.78595,18.960449 -12.620117,43.038879l-8.750977,26.881836l-10.157043,-0.244568l-10.157166,-0.244568l-8.113281,-24.890564c-4.454224,-13.685486 -9.380005,-29.999664 -10.943176,-36.244156l-2.838379,-11.353592l-0.227051,36.462494l-0.227112,36.462494l-10.03479,0l-10.034851,0l0,-52.418671z"/>
  <path fill="#ff0000" id="svg_74" d="m424.752014,254.23175c-0.262054,-0.681137 -0.323029,-18.069641 -0.139648,-38.645889c0.296783,-32.645844 0.541351,-37.999496 1.868866,-42.060623c4.130951,-12.593781 12.978119,-21.772736 25.659241,-26.611038l5.013031,-1.921448l118.339355,0l118.339417,0l5.021729,1.921448c7.414795,2.829651 13.868774,7.475845 18.270508,13.143906c8.934387,11.510834 9.615601,15.999878 9.275085,61.353058l-0.253296,33.6241l-34.541138,0.227081l-34.541199,0.227081l-1.091675,-8.794617c-2.060974,-16.488922 -7.842712,-29.816299 -18.593689,-42.846756c-1.825195,-2.20961 -3.039307,-4.305679 -2.689819,-4.654938c0.349243,-0.349365 0.227112,-0.497879 -0.270752,-0.340622c-0.506653,0.157135 -3.056763,-1.510895 -5.676819,-3.72049c-21.318481,-17.903748 -47.824829,-23.894943 -74.724182,-16.890625c-12.628662,3.283707 -25.205078,10.593781 -35.213623,20.462601c-14.017395,13.816513 -21.370941,28.820663 -23.790161,48.514816l-1.021759,8.253143l-34.384003,0c-28.881653,0 -34.453766,-0.200851 -34.855469,-1.240189l0,0z"/>
  <path fill="#ff0000" id="svg_73" d="m451.913391,127.30735c1.755463,-22.72467 9.187683,-44.025764 21.589264,-61.87706c6.986816,-10.069786 22.645996,-25.589291 32.375061,-32.09573c6.725006,-4.497791 7.825409,-4.978071 9.152924,-3.93009c1.33606,1.039238 1.388489,1.013119 0.427917,-0.218338c-0.943237,-1.196491 -0.576538,-1.624426 2.6026,-3.056738c2.026001,-0.908321 3.991089,-1.563335 4.358032,-1.441053c0.375488,0.122282 0.672485,-0.139767 0.672485,-0.576443c0,-1.886368 20.279236,-8.392913 33.187439,-10.66361c8.427795,-1.475916 30.977783,-1.467174 38.864197,0.017485c14.567505,2.751083 33.274658,9.021702 32.174438,10.794634c-0.366943,0.593927 -0.05249,0.742329 0.847107,0.392965c0.794678,-0.296909 2.995544,0.340622 4.934387,1.441055c2.864624,1.633165 3.30127,2.20961 2.427917,3.196503c-0.908325,1.021862 -0.847107,1.030603 0.427979,0.06983c1.318726,-0.995636 2.497864,-0.48028 9.013062,3.895229c8.881897,5.973705 22.742126,19.196285 29.641541,28.279182c6.532654,8.602509 12.052307,18.148201 11.274902,19.493195c-0.349243,0.593933 -0.305542,0.794785 0.078674,0.445419c0.384216,-0.349358 1.598328,1.283806 2.681274,3.633179c5.196411,11.205086 9.33606,27.956047 10.436523,42.200386l0.585083,7.641838l-124.17334,0l-124.173492,0l0.594025,-7.641838l0,0z"/>
  <path fill="#ffffff" id="svg_72" d="m516.925781,117.94503c17.859985,-6.305588 23.746399,-29.737724 11.021606,-43.894745c-5.161438,-5.737885 -10.716064,-8.401657 -18.410156,-8.812103c-7.781708,-0.419197 -11.991119,0.724846 -17.868774,4.855789c-3.432434,2.410461 -5.510925,4.794701 -7.807953,8.960609c-2.890625,5.257607 -3.126465,6.227013 -3.126465,13.100304c0,5.912613 0.401703,8.209541 1.930084,11.28376c1.056732,2.122192 1.72049,4.192032 1.467163,4.602592c-0.253296,0.410446 -0.122162,0.646271 0.305786,0.515244c0.419189,-0.139763 1.729218,0.759811 2.899353,1.991272c3.022003,3.152794 7.196442,5.93 11.048065,7.344826c4.41922,1.615791 14.008636,1.641907 18.54129,0.052452z"/>
  <path fill="#ffffff" id="svg_71" d="m651.710449,118.023598c2.209595,-0.66375 5.161438,-2.026131 6.567627,-3.03051c1.414734,-1.004372 2.847107,-1.545853 3.196411,-1.196487c0.349243,0.349365 0.506592,0.235825 0.357971,-0.24456c-0.148376,-0.480286 0.786133,-1.991272 2.078674,-3.362389c4.532654,-4.82093 6.314331,-9.886421 6.331848,-18.034767c0.008728,-6.829582 -0.227112,-7.868927 -3.013062,-13.012985c-5.275085,-9.720428 -14.130981,-14.523872 -25.641724,-13.91246c-14.584961,0.786041 -25.335999,12.209465 -25.327271,26.925446c0,18.689781 17.318665,31.327179 35.449524,25.868713l0,0z"/>
 </g>
</svg>
