<svg width="12in" height="9in" xmlns="http://www.w3.org/2000/svg">
 <!-- Created with SVG-edit - http://svg-edit.googlecode.com/ -->

 <g>
  <title>Layer 1</title>

  <metadata id="svg_39">image/svg+xml</metadata>
  <path fill="#ff0000" id="svg_38" d="m312.202972,838.992798l0,-13.822754l17.371918,-13.08905l17.371918,-13.088867l100.527252,0l100.527222,0l0,26.911743l0,26.911804l-117.899139,0l-117.89917,0l0,-13.822876z"/>
  <path fill="#ff0000" id="svg_37" d="m601.824829,825.90387l0,-26.911743l100.52771,0l100.528076,0l15.58429,11.854004c8.571411,6.519714 16.388428,12.494263 17.37146,13.276733c1.326904,1.056702 1.786804,4.931274 1.786804,15.0578l0,13.63501l-117.89917,0l-117.89917,0l0,-26.911804z"/>
  <path fill="#ff0000" id="svg_36" d="m353.211395,786.992615c0,-0.256226 1.735931,-10.204041 3.857666,-22.106079c2.121735,-11.902161 7.04364,-39.517273 10.937592,-61.367126c3.893982,-21.84967 7.677521,-42.754333 8.407593,-46.454651l1.327667,-6.728088l73.520355,0c49.009247,0 73.792236,0.439575 74.335388,1.318726c0.448364,0.725098 2.756409,28.838257 5.129211,62.473755c2.373108,33.635315 4.550659,63.894287 4.839478,67.24231l0.525269,6.087036l-91.440125,0c-50.291992,0 -91.440094,-0.209595 -91.440094,-0.465881z"/>
  <path fill="#ff0000" id="svg_35" d="m614.254211,781.371338c0.285645,-3.348022 2.476013,-33.627075 4.867004,-67.286926c2.39093,-33.659912 4.701782,-61.773071 5.134766,-62.473755c0.507202,-0.820374 26.960266,-1.273987 74.292419,-1.273987l73.505188,0l1.287476,6.087158c0.708008,3.348022 1.622803,8.105652 2.03302,10.57251c0.410156,2.466797 3.622681,20.632324 7.139038,40.367615c3.516663,19.735352 7.860229,44.244263 9.652344,54.464294c1.792419,10.220032 3.572632,20.167847 3.955872,22.106079l0.697083,3.52417l-91.541809,0l-91.541748,0l0.519348,-6.087158z"/>
  <path fill="#ff0000" id="svg_34" d="m307.717682,743.012146c-10.656647,-1.360352 -32.205994,-5.890259 -33.625641,-7.068359c-0.888702,-0.73761 -1.615967,-1.008057 -1.615967,-0.600891c0,0.958679 -15.35672,-4.737122 -24.041641,-8.917236c-3.967667,-1.909424 -6.390671,-3.811646 -5.889145,-4.623108c0.528748,-0.855652 0.244507,-1.003174 -0.749329,-0.389221c-0.935471,0.578186 -3.127594,-0.13855 -5.272156,-1.72406c-2.018951,-1.492676 -4.126587,-2.716614 -4.683807,-2.71991c-0.55722,-0.003906 -2.743088,-1.600647 -4.857605,-3.549805c-2.114532,-1.949341 -6.545547,-5.733337 -9.846786,-8.408813c-6.213272,-5.035828 -17.197174,-17.525391 -13.84024,-15.737366c1.045761,0.556763 0.687683,-0.046753 -0.795776,-1.341431c-5.914017,-5.161377 -16.084152,-24.174927 -17.967316,-33.590698l-0.800934,-4.004578l75.128677,0l75.128662,0l0,46.775208l0,46.775208l-11.213226,-0.192139c-6.167267,-0.105591 -12.943237,-0.412781 -15.05777,-0.6828z"/>
  <path fill="#ff0000" id="svg_33" d="m815.837463,697.300537l0,-46.963867l75.609253,0c41.585022,0 75.609253,0.266724 75.609253,0.592529c0,0.326172 -1.244324,3.930298 -2.764832,8.009644c-3.750671,10.060913 -9.480286,20.299133 -11.151611,19.926819c-0.753113,-0.167725 -1.070007,0.47522 -0.703979,1.429016c0.814087,2.121887 -12.948364,19.698425 -19.34906,24.71106c-2.556458,2.001892 -6.090637,4.946594 -7.854309,6.544128c-1.763611,1.597168 -3.832336,2.517334 -4.59729,2.044556c-0.764954,-0.472717 -1.027466,-0.271545 -0.582886,0.447449c1.698608,2.748718 -21.121765,14.67572 -39.953064,20.88147c-14.998657,4.942749 -30.618958,7.670776 -49.203735,8.593323l-15.057739,0.747559l0,-46.963684z"/>
  <path fill="#ff0000" id="svg_32" d="m183.637787,636.560364c-0.50325,-0.855835 2.21637,-25.465637 10.585938,-95.79303c1.426056,-11.982117 3.568741,-30.58017 4.761703,-41.328796l2.168808,-19.54306l6.826965,0l6.826813,0l0,-21.785736l0,-21.785706l-22.426468,0l-22.426468,0l0,-24.847931c0,-26.709808 1.493317,-38.378876 6.924255,-54.106201c7.029556,-20.3573 16.327713,-36.794983 30.365692,-53.682434c16.706131,-20.097137 38.965363,-34.426239 65.871826,-42.404114c10.462341,-3.102081 14.062988,-3.478485 38.765747,-4.052429l27.232147,-0.632782l0,89.862946l0,89.862946l-18.58194,0l-18.58194,0l0,21.785706l0,21.785736l6.928192,0l6.928009,0l0.761688,6.087189c0.418762,3.347992 3.362885,28.577759 6.542267,56.066162c3.179535,27.488403 6.927704,59.494141 8.329346,71.123962c1.401825,11.629822 2.548645,21.865784 2.548492,22.746826c-0.000183,1.263367 -15.833069,1.601929 -74.892944,1.601929c-41.191116,0 -75.147293,-0.432434 -75.45813,-0.961182z"/>
  <path fill="#ff0000" id="svg_31" d="m398.064331,592.027832l0,-45.493713l62.153351,0l62.153351,0l0,45.493713l0,45.493713l-62.153351,0l-62.153351,0l0,-45.493713z"/>
  <path fill="#ff0000" id="svg_30" d="m627.455078,592.027832l0,-45.493713l62.153381,0l62.153381,0l0,45.493713l0,45.493713l-62.153381,0l-62.153381,0l0,-45.493713z"/>
  <path fill="#ff0000" id="svg_29" d="m815.837463,637.017822c0,-0.277222 4.036621,-34.816895 8.970581,-76.75531c4.93396,-41.938232 8.970581,-77.177338 8.970581,-78.309143c0,-1.640076 1.431091,-2.057892 7.04834,-2.057892l7.048279,0l0,-21.785736l0,-21.785706l-18.581909,0l-18.581909,0l0,-89.862946l0,-89.863098l27.232117,0.680634c21.796021,0.544556 29.022705,1.188446 36.202759,3.225525c11.613708,3.294983 19.847473,6.333099 21.9953,8.115845c0.942078,0.781708 1.712646,1.080322 1.712646,0.663757c0,-1.426392 16.013306,8.55072 25.788879,16.068024c13.833191,10.637238 35.414307,36.380585 33.870605,40.403168c-0.38385,1.000702 -0.111084,1.421509 0.626709,0.965668c1.475464,-0.911865 11.694397,20.137054 15.557739,32.046112c4.937378,15.219666 6.172913,25.636017 6.172913,52.039703l0,25.517609l-22.426514,0l-22.426453,0l0,21.785706l0,21.785736l7.04834,0c5.332825,0 7.048279,0.456451 7.048279,1.875488c0,2.069305 16.197876,141.591034 17.449707,150.304108l0.782471,5.446472l-75.754761,0c-41.6651,0 -75.7547,-0.226868 -75.7547,-0.503723z"/>
  <path fill="#ff0000" id="svg_28" d="m398.197754,531.691467c-16.141846,-4.341858 -31.933929,-17.319702 -38.701599,-31.807251c-5.397797,-11.551453 -6.232056,-21.089722 -6.258972,-71.569946l-0.025482,-45.814087l51.901093,0l51.901428,0l0,2.960388c0,12.672913 11.948792,42.001587 22.971008,56.381378c3.497253,4.563507 5.959076,8.741272 5.469604,9.283295c-0.488403,0.543457 -0.258911,0.629181 0.509979,0.19101c0.770111,-0.437073 3.365204,1.244293 5.766785,3.736755c15.874207,16.471313 40.605927,28.607208 66.522125,32.644165c10.680115,1.663361 40.526611,0.571472 44.233765,-1.618622c0.693298,-0.408783 4.620178,-1.708282 8.727173,-2.887329c7.509827,-2.155334 21.728149,-8.614227 27.876648,-12.661346c1.818726,-1.196869 3.784485,-1.742828 4.370178,-1.210968c0.585693,0.530487 0.680481,0.293488 0.209961,-0.526703c-0.499695,-0.873993 0.891968,-2.57193 3.351135,-4.091858c6.637207,-4.102203 21.791016,-20.464478 28.142273,-30.385864c7.567383,-11.820831 14.744873,-29.940033 16.679993,-42.105499l1.545593,-9.708801l51.611511,0l51.613098,0l-0.039734,45.17334c-0.021851,24.846039 -0.579407,49.324158 -1.237976,54.396393c-3.104004,23.890076 -20.589966,43.51889 -44.261047,49.684235c-11.041443,2.875793 -342.168854,2.816772 -352.87854,-0.062683l0,0z"/>
  <path fill="#ff0000" id="svg_27" d="m496.740814,369.655029l0,-76.920959l22.052887,0.350739l22.052612,0.350555l2.935974,9.611359c1.614685,5.286224 2.654358,10.362061 2.310486,11.279877c-0.343811,0.91748 -0.142334,1.369904 0.448059,1.005249c0.590088,-0.364807 2.240479,3.497711 3.667114,8.583557c2.539612,9.052734 11.430725,38.387817 20.420715,67.376251c2.483215,8.007111 4.95459,14.062225 5.49176,13.456055c0.537231,-0.606201 6.880615,-22.151154 14.096313,-47.877472c7.215759,-25.72644 14.277161,-50.667755 15.692322,-55.425415l2.572998,-8.650208l22.301636,0l22.301636,0l0,76.890747l0,76.890778l-16.018921,0l-16.01886,0l-0.174622,-52.862396c-0.095703,-29.07431 -0.426392,-51.420685 -0.734253,-49.65863c-1.684814,9.639984 -7.015503,27.823334 -18.513733,63.154236l-12.838013,39.446259l-14.903198,-0.360107l-14.902893,-0.360107l-11.902161,-36.523132c-6.545898,-20.087769 -13.773804,-44.019928 -16.062134,-53.18277l-4.160217,-16.659668l-0.334412,53.503174l-0.334473,53.503143l-14.723328,0l-14.723297,0l0,-76.921112z"/>
  <path fill="#ff0000" id="svg_26" d="m353.71463,366.58548c-0.383728,-1.000244 -0.472595,-26.518341 -0.197418,-56.70694c0.436615,-47.904846 0.785309,-55.757858 2.741058,-61.721298c6.061218,-18.482437 19.038391,-31.945053 37.642853,-39.050934l7.366974,-2.813797l173.644989,0l173.644958,0l7.367126,2.813797c10.873169,4.15303 20.352478,10.97467 26.80542,19.290421c13.110474,16.895569 14.104736,23.473022 13.610107,90.028137l-0.366699,49.338257l-50.685425,0.334747l-50.685486,0.33493l-1.610352,-12.90506c-3.020752,-24.205139 -11.501648,-43.751038 -27.279968,-62.872345c-2.680359,-3.248199 -4.455566,-6.323883 -3.944702,-6.834625c0.51062,-0.510925 0.329773,-0.736511 -0.402649,-0.501709c-0.731812,0.234985 -4.480286,-2.219025 -8.329834,-5.453461c-31.270935,-26.275223 -70.170654,-35.070923 -109.638794,-24.790665c-18.529053,4.826157 -36.980804,15.550247 -51.671143,30.030594c-20.56427,20.270508 -31.364349,42.289612 -34.915405,71.184509l-1.488647,12.113831l-50.454559,0c-42.385651,0 -50.566071,-0.290802 -51.152405,-1.81839z"/>
  <path fill="#ff0000" id="svg_25" d="m393.575439,180.341568c2.575836,-33.344818 13.478882,-64.598434 31.672546,-90.797638c10.262421,-14.778381 33.232178,-37.550888 47.509491,-47.100597c9.865082,-6.598885 11.486237,-7.294861 13.436646,-5.766808c1.958252,1.534935 2.03006,1.498642 0.617767,-0.311619c-1.375061,-1.763176 -0.840668,-2.390007 3.818878,-4.485294c2.979462,-1.339706 5.861603,-2.291611 6.403809,-2.115465c0.543304,0.176302 0.988037,-0.205868 0.988037,-0.84897c0,-2.760447 29.750153,-12.318604 48.697479,-15.64503c12.366516,-2.171313 45.4552,-2.153636 57.027344,0.030504c21.365173,4.03226 48.814148,13.238908 47.210693,15.834315c-0.540649,0.874001 -0.083191,1.088316 1.24054,0.58053c1.162292,-0.445995 4.386719,0.495897 7.234192,2.113432c4.207153,2.390165 4.851929,3.238665 3.56012,4.689909c-1.331604,1.495674 -1.233032,1.510689 0.639526,0.095894c1.926025,-1.456093 3.659912,-0.706299 13.218689,5.719566c13.0354,8.76347 33.366882,28.16246 43.493225,41.496635c9.586914,12.625526 17.681213,26.623459 16.540466,28.607208c-0.502136,0.871498 -0.447083,1.164963 0.121704,0.649673c0.569092,-0.513893 2.341492,1.886444 3.939331,5.333794c7.613708,16.432671 13.690552,41.017326 15.305237,61.91996l0.866333,11.213242l-182.204102,0l-182.205536,0l0.867584,-11.213242l0,0z"/>
  <path fill="#ffffff" id="svg_24" d="m488.96225,166.597382c26.215912,-9.249832 34.849579,-43.632912 16.172821,-64.40493c-7.573914,-8.424629 -15.719177,-12.322983 -27.013123,-12.927917c-11.409393,-0.60994 -17.587494,1.067513 -26.212036,7.122627c-5.044067,3.540901 -8.086426,7.034241 -11.454285,13.150833c-4.248169,7.714729 -4.586517,9.134689 -4.586517,19.222687c0,8.669464 0.576782,12.04892 2.827087,16.552048c1.555725,3.112885 2.522034,6.153824 2.147858,6.76001c-0.374207,0.604935 -0.173035,0.941895 0.447235,0.748383c0.62027,-0.193512 2.537354,1.121323 4.260956,2.920624c4.435394,4.636581 10.555908,8.705276 16.212433,10.781326c6.481873,2.379837 20.555511,2.416916 27.197571,0.07431l0,0z"/>
  <path fill="#ffffff" id="svg_23" d="m686.74823,166.719238c3.233459,-0.972702 7.571411,-2.974442 9.639771,-4.448212c2.069641,-1.472519 4.177429,-2.263138 4.685242,-1.754425c0.507446,0.507477 0.745544,0.346039 0.527832,-0.358856c-0.217773,-0.704742 1.153503,-2.926895 3.047302,-4.93895c6.650085,-7.064911 9.259094,-14.500244 9.284729,-26.458115c0.021606,-10.022606 -0.330688,-11.547691 -4.421143,-19.093155c-7.73291,-14.264496 -20.727295,-21.315475 -37.621582,-20.411911c-21.402466,1.144325 -37.173889,17.90786 -37.167664,39.505066c0.007813,27.425812 25.418762,45.965347 52.025513,37.958557l0,0z"/>
 </g>
</svg>
