<svg width="10.993304in" height="7.682292in" xmlns="http://www.w3.org/2000/svg">
 <g>
  <path stroke-width="3" d="m574.07135,671.504089c40.521484,0 66.635864,23.144836 119.860352,23.144836c48.630371,0 87.190491,-21.284119 114.413818,-17.162903c27.223267,4.121338 41.950012,38.148682 41.950012,38.148682l72.485962,-62.927002c0,0 -53.391113,-27.233948 -53.391113,-61.589966c0,-28.559448 29.587219,-51.045044 33.982849,-80.333862c5.896362,-39.207703 -28.268982,-96.460876 -28.268982,-96.460876c0,0 57.466064,83.387207 76.286499,45.753418c15.248779,-30.502869 -73.593018,-72.463654 -73.593018,-72.463654c0,0 102.184448,19.125977 102.184448,-15.312897c0,-34.45755 -100.69519,-7.573608 -100.69519,-7.573608c0,0 87.36145,-43.831238 70.206604,-74.375092c-16.344299,-29.01181 -74.697571,57.212219 -74.697571,57.212219c0,0 33.974792,-74.99054 32.505188,-109.253937c-2.066406,-47.74678 -28.373291,-40.605164 -28.373291,-84.282333c0,-29.392136 57.499084,-41.395195 57.499084,-41.395195l-89.902649,-99.727662c0,0 -19.362,45.537038 -43.893555,53.491342c-49.565613,16.094215 -68.762817,-23.955582 -106.80896,-23.955582c-64.848206,0 -91.947632,30.522888 -125.851257,30.522888c-35.558472,0 -62.936768,-66.770134 -62.936768,-66.770134c0,0 -20.624817,73.922432 -51.507141,73.922432c-43.852631,0 -60.685944,-35.753334 -108.699951,-35.753334c-59.112976,0 -55.280273,40.039368 -99.14183,32.763252c-26.545471,-4.399155 -70.571793,-61.38433 -70.571793,-61.38433l-89.13282,89.28723c0,0 43.214622,29.051903 43.214622,59.462135c0,30.522446 -26.545456,54.293396 -26.545456,83.900269c0,34.295425 26.679092,53.584396 26.679092,80.10939c0,34.273163 -55.310684,55.310577 -55.310684,55.310577c0,0 56.667191,14.182587 56.667191,64.838348c0,15.63089 -24.21183,38.137054 -24.21183,70.551331c0,32.424072 27.213493,49.977112 27.213493,78.197937c0,24.76593 -47.706429,50.572998 -47.706429,50.572998l81.517326,84.836243c0,0 22.876678,-55.321228 51.477005,-55.321228c31.899506,0 45.773926,19.073486 108.699951,19.073486c74.374176,0 82.739655,-22.094666 134.648651,-22.094666c23.236542,0 42.577972,52.454163 42.577972,52.454163c0,0 8.375244,-55.414856 67.170288,-55.414856l-0.000061,-0.000061l-0.000061,0z" id="svg_63" fill="#ff0000"/>
  <path id="svg_62" d="m838.104553,646.499512l12.589172,-545.31752l-681.188248,8.426926l8.395706,536.890656" stroke-linecap="null" stroke-linejoin="null" stroke-dasharray="null" stroke-width="3" fill="#ffffff"/>
  <path fill="#ff7f00" stroke-width="3" stroke-dasharray="null" stroke-linejoin="null" stroke-linecap="null" d="m828.027466,635.983887l11.886292,-523.674522l-657.692276,7.881783l7.899445,515.79274" id="svg_61"/>
  <path fill="#007f3f" stroke-width="null" stroke-dasharray="null" stroke-linejoin="null" stroke-linecap="null" d="m538.008606,638.801575l0,-524.907707l-361.594803,4.348045l7.922684,520.559601" id="svg_60"/>
  <path d="m538.00885,113.894012l0,524.907867l48.743591,0c0,0 -32.85498,-24.346619 -32.85498,-41.703735c0,-23.863464 50.675354,-42.135376 50.675354,-67.550598c0,-25.435364 -60.593018,-53.645782 -60.593018,-53.645782l7.954163,-196.73288c0,0 95.349976,-37.74704 95.349976,-59.605713c0,-11.931717 -47.685242,-33.760269 -47.685242,-33.760269c0,0 83.459717,-31.79689 83.459717,-47.706024c0,-8.776505 -21.869385,-18.519043 -41.437378,-25.476669l-103.612183,1.273994l0,-0.000008l0,-0.000031l0,-0.000053l0,-0.000038l0,-0.000031l0,-0.000031z" id="svg_59" fill="#800080"/>
  <path d="m534.299438,169.012497c0,0 -2.260681,-50.388824 -18.13916,-50.388824c-15.887878,0 -8.427124,61.343246 -24.356445,61.343246c-15.877625,0 -14.38736,-45.577789 -28.302368,-45.464874c-27.562866,0.245865 -10.914246,105.307632 -10.914246,105.307632c0,0 6.946838,-79.482178 16.87439,-79.482178c9.948303,0 12.671906,42.948303 24.603424,42.948303c13.421631,0 11.663971,-71.73381 22.095245,-71.73381c11.448608,-0.020645 18.13916,37.47052 18.13916,37.47052l0,-0.000015z" id="svg_58" fill="#0000ff"/>
  <path d="m528.184265,584.201538c0,0 -1.161133,-26.24707 -9.434021,-26.24707c-8.293671,0 -4.399048,31.930054 -12.681946,31.930054c-8.262726,0 -7.492004,-23.729309 -14.716553,-23.657715c-14.336609,0.124146 -5.683533,54.807129 -5.683533,54.807129c0,0 3.607208,-41.343628 8.76651,-41.343628c5.18988,0 6.618103,22.341614 12.794586,22.341614c6.988403,0 6.083801,-37.345703 11.520935,-37.345703c5.919495,0.010071 9.434021,19.51532 9.434021,19.51532z" id="svg_57" fill="#0000ff"/>
  <path d="m418.662659,239.674133c0,0 27.830017,68.280701 102.204651,25.343719c53.193787,-30.698044 130.137512,0 130.137512,0c0,0 58.917786,-3.679443 88.689819,15.712799c32.886353,21.479767 51.508545,48.651306 51.508545,88.155884c0,90.93103 -48.312134,123.539551 -173.526978,123.539551c-126.962006,0 -165.469879,25.76532 -165.469879,25.76532l-33.543671,-278.517273z" id="svg_56" fill="#7f3f00"/>
  <path d="m195.271881,553.923645l50.285263,0c48.682083,78.34198 123.676743,-15.616516 157.539261,-43.096649c63.460083,-51.447632 84.905151,-109.927704 144.942963,-109.927704c54.910095,0 94.414612,45.763489 165.932068,17.173004c25.661865,-10.277008 47.192383,-77.241577 47.192383,-77.241577l-22.897461,-41.488129c-10.009827,-15.714081 -94.373352,-22.630157 -133.024841,4.29541c-31.468262,21.921417 -33.380005,41.49942 -33.380005,41.49942l-53.84082,0c0,0 -30.039795,-61.508911 -97.611145,-119.192719c-60.161591,-51.323395 -195.04686,-74.035172 -234.941681,-76.59436l9.804016,404.573303l0,0l0,0z" id="svg_55" fill="#f7e4b4"/>
  <path d="m184.152756,626.337708c20.419876,-1.509766 89.563919,-6.628784 139.32518,-23.225952c62.576294,-20.842163 141.026154,-95.619659 142.962067,-101.427368c1.935883,-5.807709 -74.291504,-60.198608 -74.291504,-163.174347c0,-44.756042 50.048645,-75.793274 88.679504,-58.660889c-8.179871,-9.19751 -50.234009,-45.752411 -60.428802,-54.785965c-53.717194,-47.305405 -149.848297,-77.509247 -243.594803,-77.509247l7.348358,478.783768l0,0l0,0l0,0l0,0z" id="svg_54" fill="#7f3f00"/>
  <path d="m412.650391,234.496872l-144.988098,0.112823c0,0 13.124176,49.062851 2.137756,103.315506c0,0 -17.881836,-23.863251 -43.22493,-41.745148c-21.674271,-15.302582 -44.714661,-22.352966 -44.714661,-22.352966" id="svg_53" stroke-width="2.5567" fill="none" stroke="#000000"/>
  <path d="m421.776245,513.858398c0,0 -21.869232,-7.923553 -78.485382,-17.881927c-40.583527,-7.121765 -88.566895,-8.447754 -88.566895,-8.447754" id="svg_52" stroke-width="2.5567" fill="none" stroke="#000000"/>
  <path d="m618.231262,324.913452c0,0 -8.252197,8.499298 -7.93335,17.881775c0.338623,12.014496 7.88208,18.303406 7.88208,18.303406" id="svg_51" stroke-linecap="round" stroke-width="2.4134" fill="none" stroke="#000000"/>
  <path d="m687.066528,360.582916c4.151978,5.324188 6.526001,12.014526 6.012329,18.817749c-0.524475,6.587433 -3.586853,11.921661 -8.211548,15.332642" id="svg_50" stroke-linecap="round" stroke-width="2.2849" fill="none" stroke="#000000"/>
  <path d="m217.120529,561.448242c0,0 23.647537,-28.970459 29.032501,-70.725647c4.306229,-33.101532 2.897964,-82.287323 -3.566498,-113.591309c-7.707809,-37.531219 -19.885956,-49.678772 -19.885956,-49.678772" id="svg_49" stroke-width="2.4182" fill="none" stroke="#000000"/>
  <path d="m257.149597,496.335297c0,0 3.853821,17.964813 3.874512,36.648163c0.071472,17.450317 -4.584015,35.033508 -4.584015,35.033508" id="svg_48" stroke-width="2.5567" fill="none" stroke="#000000"/>
  <path d="m236.276947,410.943024c0,0 25.610229,-7.63623 29.053223,-38.035645c3.524567,-31.108185 -50.429535,-85.422333 -64.077347,-64.476959c-23.883484,36.492676 35.024124,102.512604 35.024124,102.512604z" id="svg_47" fill="#f2daa9"/>
  <line d="" points="null" x1="226.706253" y1="372.627971" x2="201.38389" y2="331.653652" id="svg_46" stroke-linecap="round" stroke-width="3.29" fill="none" stroke="#000000"/>
  <path fill="none" stroke="#000000" stroke-width="null" stroke-dasharray="null" stroke-linejoin="null" stroke-linecap="null" d="m242.976807,345.805267l-28.343903,-37.994232" id="svg_45"/>
  <line d="" points="null" x1="238.474979" y1="363.534722" x2="204.211625" y2="315.119865" id="svg_44" stroke-linecap="round" stroke-width="3.29" fill="none" stroke="#000000"/>
  <path d="m249.935425,325.890656c0,0 19.865326,7.553406 20.615479,43.461487c0.637268,31.333984 -52.66951,89.306305 -66.327469,68.372314c-23.852722,-36.493866 45.71199,-111.833801 45.71199,-111.833801z" id="svg_43" fill="#f4e6b2"/>
  <line d="" points="null" x1="245.054321" y1="401.230994" x2="216.751828" y2="439.245335" id="svg_42" stroke-linecap="round" stroke-width="3.3505" fill="none" stroke="#000000"/>
  <line d="" points="null" x1="237.949013" y1="364.982303" x2="203.68505" y2="413.397054" id="svg_41" stroke-linecap="round" stroke-width="3.3505" fill="none" stroke="#000000"/>
  <line d="" points="null" x1="203.955108" y1="386.031344" x2="183.647693" y2="400.819508" id="svg_40" stroke-linecap="round" stroke-width="3.3505" fill="none" stroke="#8a4d4a"/>
  <path d="m686.295532,298.623749c0,0 7.635559,13.586365 3.915588,26.462708c-4.542053,15.754242 -17.7276,13.843628 -25.856873,13.843628c-13.802185,0 -27.881714,-10.277008 -27.881714,-10.277008c0,0 -1.407593,4.172485 -1.407593,12.106018c0,7.923523 0.935486,12.013367 0.935486,12.013367" id="svg_39" stroke-linecap="round" stroke-width="2.2849" fill="none" stroke="#000000"/>
  <line d="" points="null" x1="683.540163" y1="319.958443" x2="673.787613" y2="319.958443" id="svg_38" stroke-linecap="round" stroke-width="2.5567" fill="none" stroke="#000000"/>
  <line d="" points="null" x1="683.540163" y1="378.978944" x2="673.787613" y2="378.978944" id="svg_37" stroke-linecap="round" stroke-width="2.5567" fill="none" stroke="#000000"/>
  <path d="m452.206329,517.309509c0,0 -4.306061,-38.117126 -46.256256,-91.536957c-46.925201,-59.709747 -114.414246,-91.538116 -114.414246,-91.538116" id="svg_35" stroke-linecap="round" stroke-width="2.5567" fill="none" stroke="#000000"/>
  <line d="" points="null" x1="239.712689" y1="382.619072" x2="205.448726" y2="431.033832" stroke-linecap="round" stroke-width="3.3505" fill="none" id="svg_34" stroke="#000000"/>
 </g>
</svg>