<svg width="11in" height="8in" xmlns="http://www.w3.org/2000/svg">
 <!-- Created with SVG-edit - http://svg-edit.googlecode.com/ -->
 <g>
  <path fill="#ff0000" id="svg_63" d="m589.269714,696.050293c41.863159,0 68.842163,23.911133 123.828857,23.911133c50.240479,0 90.077332,-21.988831 118.201965,-17.73114c28.124634,4.257751 43.338989,39.411743 43.338989,39.411743l74.885925,-65.010437c0,0 -55.158875,-28.135681 -55.158875,-63.629211c0,-29.505005 30.566833,-52.735107 35.107971,-82.993652c6.091614,-40.505829 -29.204956,-99.654633 -29.204956,-99.654633c0,0 59.368774,86.148102 78.812317,47.26828c15.753662,-31.512787 -76.029602,-74.862854 -76.029602,-74.862854c0,0 105.567688,19.759216 105.567688,-15.819916c0,-35.598419 -104.029175,-7.824371 -104.029175,-7.824371c0,0 90.253967,-45.28244 72.531128,-76.837585c-16.885437,-29.972382 -77.170776,59.106476 -77.170776,59.106476c0,0 35.09967,-77.473419 33.581421,-112.871262c-2.134827,-49.327637 -29.312683,-41.94957 -29.312683,-87.072861c0,-30.365295 59.402832,-42.765762 59.402832,-42.765762l-92.879272,-103.02958c0,0 -20.003052,47.04474 -45.346863,55.262406c-51.206665,16.627083 -71.03949,-24.748737 -110.345337,-24.748737c-66.995239,0 -94.991943,31.533482 -130.018066,31.533482c-36.735779,0 -65.020569,-68.98085 -65.020569,-68.98085c0,0 -21.307709,76.369957 -53.212524,76.369957c-45.304565,0 -62.695221,-36.937107 -112.29892,-36.937107c-61.07016,0 -57.110565,41.365047 -102.424347,33.848026c-27.424377,-4.544815 -72.908386,-63.416727 -72.908386,-63.416727l-92.083946,92.243471c0,0 44.645424,30.013786 44.645424,61.430885c0,31.53302 -27.424355,56.091019 -27.424355,86.678146c0,35.430939 27.562416,55.358551 27.562416,82.761749c0,35.407928 -57.141975,57.141876 -57.141975,57.141876c0,0 58.543404,14.652161 58.543404,66.985107c0,16.148407 -25.013474,39.39975 -25.013474,72.887268c0,33.497559 28.114517,51.631775 28.114517,80.786987c0,25.585938 -49.285957,52.247437 -49.285957,52.247437l84.216316,87.645142c0,0 23.634109,-57.152893 53.181366,-57.152893c32.955673,0 47.289474,19.704956 112.298935,19.704956c76.83667,0 85.479095,-22.826172 139.106781,-22.826172c24.00589,0 43.987701,54.190857 43.987701,54.190857c0,0 8.652527,-57.249573 69.394226,-57.249573l-0.000061,-0.000061l-0.000061,0z" stroke-width="3"/>
  <path fill="#ffffff" stroke-width="3" stroke-dasharray="null" stroke-linejoin="null" stroke-linecap="null" d="m862.044922,670.217834l13.005981,-563.372627l-703.741943,8.705933l8.673676,554.666756" id="svg_62"/>
  <path id="svg_61" d="m851.634155,659.354004l12.279846,-541.013l-679.468018,8.142738l8.16098,532.870262" stroke-linecap="null" stroke-linejoin="null" stroke-dasharray="null" stroke-width="3" fill="#ff7f00"/>
  <path id="svg_60" d="m552.013,662.265015l0,-542.287048l-373.566986,4.492004l8.184998,537.794983" stroke-linecap="null" stroke-linejoin="null" stroke-dasharray="null" stroke-width="null" fill="#007f3f"/>
  <path fill="#aaaaff" id="svg_59" d="m552.013245,119.978119l0,542.287201l50.357422,0c0,0 -33.942749,-25.15271 -33.942749,-43.084595c0,-24.653503 52.353149,-43.530396 52.353149,-69.787109c0,-26.277466 -62.599182,-55.421936 -62.599182,-55.421936l8.217529,-203.246582c0,0 98.506897,-38.996826 98.506897,-61.579224c0,-12.326767 -49.264038,-34.878036 -49.264038,-34.878036c0,0 86.223022,-32.84967 86.223022,-49.285553c0,-9.067078 -22.593506,-19.132187 -42.809387,-26.320175l-107.042664,1.316177l0,-0.000015l0,-0.000031l0,-0.000053l0,-0.000038l0,-0.000031z"/>
  <path fill="#0000ff" id="svg_58" d="m548.180969,176.921539c0,0 -2.33551,-52.057167 -18.739685,-52.057167c-16.41394,0 -8.706177,63.374275 -25.162903,63.374275c-16.40332,0 -14.863708,-47.086838 -29.239441,-46.970184c-28.475433,0.254013 -11.275604,108.794296 -11.275604,108.794296c0,0 7.176849,-82.11377 17.433105,-82.11377c10.277679,0 13.091461,44.370285 25.41803,44.370285c13.865997,0 12.05014,-74.108871 22.826813,-74.108871c11.827637,-0.021317 18.739685,38.711151 18.739685,38.711151l0,-0.000015z"/>
  <path fill="#0000ff" id="svg_57" d="m541.863342,605.857178c0,0 -1.199585,-27.116089 -9.746338,-27.116089c-8.568298,0 -4.544739,32.987244 -13.101868,32.987244c-8.536285,0 -7.740051,-24.514954 -15.203796,-24.440979c-14.811279,0.128235 -5.871704,56.621765 -5.871704,56.621765c0,0 3.726624,-42.712524 9.056763,-42.712524c5.361694,0 6.837219,23.08136 13.218201,23.08136c7.219788,0 6.285217,-38.582214 11.902405,-38.582214c6.115479,0.010437 9.746338,20.161438 9.746338,20.161438z"/>
  <path fill="#7f3f00" id="svg_56" d="m428.715576,249.922729c0,0 28.751434,70.541443 105.588562,26.182831c54.955017,-31.714432 134.446289,0 134.446289,0c0,0 60.86853,-3.80127 91.626282,16.233032c33.975159,22.190948 53.213928,50.262115 53.213928,91.074677c0,93.941681 -49.911682,127.629852 -179.272339,127.629852c-131.165619,0 -170.948456,26.618378 -170.948456,26.618378l-34.654266,-287.73877z"/>
  <path fill="#f7e4b4" id="svg_55" d="m197.928467,574.576843l51.95018,0c50.2939,80.935791 127.771591,-16.133606 162.755264,-44.52356c65.561218,-53.151031 87.716309,-113.567352 149.741943,-113.567352c56.728149,0 97.540588,47.278687 171.425964,17.741608c26.511475,-10.617279 48.754883,-79.799011 48.754883,-79.799011l-23.655579,-42.861755c-10.341248,-16.234375 -97.497986,-23.379425 -137.429199,4.437622c-32.510132,22.647217 -34.485229,42.873444 -34.485229,42.873444l-55.623413,0c0,0 -31.034393,-63.545441 -100.842987,-123.139114c-62.153503,-53.022675 -201.50473,-76.48642 -242.720444,-79.130341l10.128616,417.96846l0,0l0,0z"/>
  <path fill="#7f3f00" id="svg_54" d="m186.441193,649.388489c21.095963,-1.559753 92.529327,-6.848267 143.938141,-23.994934c64.648163,-21.532288 145.695435,-98.785583 147.695435,-104.785583c2,-6 -76.751221,-62.191742 -76.751221,-168.576935c0,-46.237885 51.705719,-78.302734 91.615601,-60.603119c-8.450684,-9.502045 -51.897217,-47.267242 -62.429535,-56.599884c-55.495758,-48.871658 -154.809692,-80.075531 -251.66008,-80.075531l7.59166,494.635986l0,0l0,0l0,0l0,0z"/>
  <path stroke="#000000" fill="none" stroke-width="2.5567" id="svg_53" d="m422.504242,244.574051l-149.788574,0.116562c0,0 13.558716,50.687286 2.208557,106.736206c0,0 -18.473907,-24.653351 -44.656097,-43.127289c-22.391891,-15.809235 -46.195129,-23.093048 -46.195129,-23.093048"/>
  <path stroke="#000000" fill="none" stroke-width="2.5567" id="svg_52" d="m431.932251,533.185059c0,0 -22.593323,-8.185913 -81.083984,-18.473999c-41.927216,-7.357544 -91.499298,-8.727448 -91.499298,-8.727448"/>
  <path stroke="#000000" fill="none" stroke-width="2.4134" stroke-linecap="round" id="svg_51" d="m634.891724,337.984253c0,0 -8.525391,8.780731 -8.195984,18.473846c0.349854,12.412292 8.143066,18.909424 8.143066,18.909424"/>
  <path stroke="#000000" fill="none" stroke-width="2.2849" stroke-linecap="round" id="svg_50" d="m706.006104,374.834717c4.289429,5.500488 6.742065,12.412323 6.211365,19.440796c-0.541809,6.805542 -3.705566,12.316376 -8.483398,15.840302"/>
  <path stroke="#000000" fill="none" stroke-width="2.4182" id="svg_49" d="m220.500504,582.350586c0,0 24.430496,-29.929688 29.993759,-73.067352c4.448792,-34.19751 2.993912,-85.01181 -3.684586,-117.352234c-7.963013,-38.773865 -20.544373,-51.323608 -20.544373,-51.323608"/>
  <path stroke="#000000" fill="none" stroke-width="2.5567" id="svg_48" d="m261.854919,515.081787c0,0 3.981415,18.55957 4.002777,37.861572c0.073853,18.028076 -4.735779,36.19342 -4.735779,36.19342"/>
  <path fill="#f2daa9" id="svg_47" d="m240.291183,426.862213c0,0 26.458176,-7.889069 30.015152,-39.294983c3.641266,-32.138153 -52.099213,-88.25061 -66.198898,-66.611725c-24.674255,37.700897 36.183746,105.906708 36.183746,105.906708z"/>
  <line stroke="#000000" fill="none" stroke-width="3.29" stroke-linecap="round" id="svg_46" y2="344.94763" x2="204.24284" y1="387.27858" x1="230.40361"/>
  <path id="svg_45" d="m247.212875,359.56778l-29.282349,-39.252167" stroke-linecap="null" stroke-linejoin="null" stroke-dasharray="null" stroke-width="null" stroke="#000000" fill="none"/>
  <line stroke="#000000" fill="none" stroke-width="3.29" stroke-linecap="round" id="svg_44" y2="327.86642" x2="207.1642" y1="377.88426" x1="242.56199"/>
  <path fill="#f4e6b2" id="svg_43" d="m254.401886,338.993835c0,0 20.523041,7.803497 21.298035,44.900452c0.658386,32.371429 -54.413361,92.263184 -68.523514,70.636078c-24.642471,-37.702148 47.225479,-115.53653 47.225479,-115.53653z"/>
  <line stroke="#000000" fill="none" stroke-width="3.3505" stroke-linecap="round" id="svg_42" y2="456.1016" x2="220.1196" y1="416.82863" x1="249.35917"/>
  <line stroke="#000000" fill="none" stroke-width="3.3505" stroke-linecap="round" id="svg_41" y2="429.3975" x2="206.62019" y1="379.37977" x1="242.01861"/>
  <line stroke="#8a4d4a" fill="none" stroke-width="3.3505" stroke-linecap="round" id="svg_40" y2="416.40352" x2="185.91941" y1="401.12573" x1="206.89919"/>
  <path stroke="#000000" fill="none" stroke-width="2.2849" stroke-linecap="round" id="svg_39" d="m705.209595,310.824127c0,0 7.888367,14.036194 4.045227,27.338867c-4.692444,16.275848 -18.314575,14.301971 -26.713013,14.301971c-14.259155,0 -28.80481,-10.617249 -28.80481,-10.617249c0,0 -1.454224,4.310608 -1.454224,12.506836c0,8.185852 0.966431,12.411102 0.966431,12.411102"/>
  <line stroke="#000000" fill="none" stroke-width="2.5567" stroke-linecap="round" id="svg_38" y2="332.8652" x2="692.28753" y1="332.8652" x1="702.36298"/>
  <line stroke="#000000" fill="none" stroke-width="2.5567" stroke-linecap="round" id="svg_37" y2="393.83983" x2="692.28753" y1="393.83983" x1="702.36298"/>
  <path stroke="#000000" fill="none" stroke-width="2.5567" stroke-linecap="round" id="svg_35" d="m463.369843,536.750427c0,0 -4.448639,-39.37915 -47.787781,-94.567688c-48.478851,-61.686707 -118.202423,-94.568878 -118.202423,-94.568878"/>
  <line stroke="#000000" id="svg_34" fill="none" stroke-width="3.3505" stroke-linecap="round" y2="447.61822" x2="208.44226" y1="397.60048" x1="243.84068"/>
 </g>
</svg>