<svg width="12in" height="9in" xmlns="http://www.w3.org/2000/svg">
 <!-- Created with SVG-edit - http://svg-edit.googlecode.com/ -->

 <g>
  <title>Layer 1</title>
  <!-- Created with SVG-edit - http://svg-edit.googlecode.com/ -->
  <metadata id="svg_64">image/svg+xml</metadata>
  <path stroke-width="3" d="m632.897888,775.222168c45.494568,0 74.813049,25.984802 134.569153,25.984802c54.59845,0 97.889587,-23.895935 128.453857,-19.269287c30.56427,4.626831 47.098328,42.829956 47.098328,42.829956l81.378723,-70.648376c0,0 -59.940491,-30.576355 -59.940491,-69.148438c0,-32.063599 33.217773,-57.308899 38.156677,-90.192139c6.611328,-44.018677 -31.741882,-108.298096 -31.741882,-108.298096c0,0 64.521423,93.620483 85.647766,51.367981c17.121948,-34.245422 -82.624451,-81.355499 -82.624451,-81.355499c0,0 114.72345,21.473328 114.72345,-17.191681c0,-38.686279 -113.051025,-8.50296 -113.051025,-8.50296c0,0 98.08606,-49.210175 78.817505,-83.502136c-18.345947,-32.57193 -83.859131,64.232971 -83.859131,64.232971c0,0 38.144592,-84.193573 36.49469,-122.661469c-2.319031,-53.606079 -31.856506,-45.587769 -31.856506,-94.624771c0,-32.998795 64.55603,-46.474976 64.55603,-46.474976l-100.935852,-111.965698c0,0 -21.737427,51.125038 -49.279358,60.055458c-55.648193,18.069199 -77.201172,-26.895317 -119.916321,-26.895317c-72.805664,0 -103.231201,34.268631 -141.295532,34.268631c-39.921448,0 -70.659058,-74.963909 -70.659058,-74.963909c0,0 -23.156494,82.993587 -57.828644,82.993587c-49.233398,0 -68.132904,-40.140549 -122.038818,-40.140549c-66.367432,0 -62.063843,44.953156 -111.307892,36.783409c-29.803116,-4.938789 -79.2323,-68.916752 -79.2323,-68.916752l-100.070549,100.24374c0,0 48.518044,32.617859 48.518044,66.759705c0,34.267181 -29.803116,60.955353 -29.803116,94.19574c0,38.503784 29.95311,60.16037 29.95311,89.940155c0,38.479126 -62.098419,62.097687 -62.098419,62.097687c0,0 63.620956,15.922668 63.620956,72.794922c0,17.5495 -27.183319,42.817383 -27.183319,79.209229c0,36.402893 30.553024,56.109497 30.553024,87.793579c0,27.805725 -53.56028,56.779175 -53.56028,56.779175l91.52047,95.247192c0,0 25.683975,-62.110352 57.794113,-62.110352c35.814377,0 51.391159,21.41449 122.038925,21.41449c83.501434,0 92.893646,-24.805969 151.172394,-24.805969c26.087494,0 47.80246,58.890503 47.80246,58.890503c0,0 9.403564,-62.214539 75.413269,-62.214539z" id="svg_63" fill="#665440"/>
  <path id="svg_62" d="m924.984985,747.148987l14.134033,-612.235992l-764.780014,9.460999l9.425995,602.774994" stroke-linecap="null" stroke-linejoin="null" stroke-dasharray="null" stroke-width="3" fill="#ffeb8c"/>
  <polygon points="913.632 737.516 927.016 144.146 186.442 153.076 195.337 737.516" id="svg_61" fill="#c7a941"/>
  <polygon points="592.41 738.506 592.41 149.185 186.442 154.066 195.337 738.506" id="svg_60" fill="#824830"/>
  <path d="m592.410095,149.184967l0,589.321503l54.725098,0c0,0 -36.886719,-27.334167 -36.886719,-46.821594c0,-26.791748 56.893982,-47.305969 56.893982,-75.840027c0,-28.55658 -68.028687,-60.228638 -68.028687,-60.228638l8.930298,-220.874939c0,0 107.05072,-42.37915 107.05072,-66.920197c0,-13.395935 -53.536865,-37.903137 -53.536865,-37.903137c0,0 93.701477,-35.698837 93.701477,-53.560287c0,-9.853516 -24.553162,-20.791595 -46.5224,-28.603012l-116.326904,1.430328z" id="svg_59" fill="#596b30"/>
  <path d="m588.245422,211.067291c0,0 -2.538025,-56.572266 -20.36499,-56.572266c-17.837646,0 -9.461365,68.870941 -27.345398,68.870941c-17.82605,0 -16.152893,-51.170837 -31.775482,-51.044067c-30.945221,0.276047 -12.253601,118.230408 -12.253601,118.230408c0,0 7.799316,-89.235809 18.94516,-89.235809c11.169067,0 14.226929,48.218689 27.62262,48.218689c15.068604,0 13.095276,-80.536591 24.806702,-80.536591c12.853516,-0.023193 20.36499,42.068695 20.36499,42.068695z" id="svg_58" fill="#433225"/>
  <path d="m581.379822,677.206055c0,0 -1.303589,-29.467957 -10.591614,-29.467957c-9.311462,0 -4.938904,35.848328 -14.238281,35.848328c-9.276672,0 -8.411377,-26.641174 -16.522461,-26.560791c-16.095886,0.139343 -6.380981,61.532776 -6.380981,61.532776c0,0 4.049866,-46.417175 9.842285,-46.417175c5.826721,0 7.430237,25.083313 14.364685,25.083313c7.846008,0 6.830322,-41.928589 12.934753,-41.928589c6.645874,0.011353 10.591614,21.910095 10.591614,21.910095z" id="svg_57" fill="#433225"/>
  <path d="m458.418396,290.400146c0,0 31.245148,76.65976 114.746582,28.453766c59.721558,-34.465149 146.1073,0 146.1073,0c0,0 66.147949,-4.130981 99.573364,17.640991c36.921997,24.115631 57.829407,54.621521 57.829407,98.973907c0,102.0896 -54.240723,138.699646 -194.821289,138.699646c-142.542053,0 -185.775391,28.927063 -185.775391,28.927063l-37.659973,-312.695374z" id="svg_56" fill="#433225"/>
  <path d="m207.614273,643.212708l56.456009,0c54.656067,87.955627 148.634277,15.069092 186.652222,-15.783203c71.247589,-57.761108 85.543671,-156.019531 152.949005,-156.019531c61.648438,0 106.000671,51.379333 186.294373,19.280426c28.810852,-11.538147 52.983521,-86.720306 52.983521,-86.720306l-25.707275,-46.579285c-11.238159,-17.642456 -105.954346,-25.407227 -149.348938,4.82251c-35.329834,24.611511 -37.476257,46.59198 -37.476257,46.59198l-60.447876,0c0,0 -33.726074,-69.056946 -109.589417,-133.819397c-67.544312,-57.621521 -218.981979,-83.120361 -263.772461,-85.993591l11.007095,454.220398l0,0l0,0z" id="svg_55" fill="#f4d37e"/>
  <path d="m195.130676,724.513c22.92569,-1.695007 100.554718,-7.4422 156.422394,-26.07605c70.255341,-23.399902 112.427582,-55.959717 167.026031,-123.654663c0,0 -89.928558,-57.805237 -89.928558,-173.417633c0,-50.24823 56.190369,-85.094177 99.561737,-65.859436c-9.183594,-10.326202 -56.398438,-51.366882 -67.844238,-61.509003c-60.309143,-53.110458 -168.236908,-87.020752 -273.487488,-87.020752l8.250122,537.537537l0,0l0,0l0,0l0,0z" id="svg_54" fill="#433225"/>
  <path stroke="#000000" d="m451.668335,284.587555l-162.780273,0.126678c0,0 14.73468,55.083557 2.400085,115.993835c0,0 -20.076233,-26.791626 -48.529282,-46.867889c-24.334015,-17.18042 -50.201813,-25.096008 -50.201813,-25.096008" id="svg_53" stroke-width="2.5567" fill="none"/>
  <path stroke="#000000" d="m461.914032,598.230835c0,0 -24.552887,-8.895874 -88.116669,-20.076294c-45.563721,-7.995728 -99.435364,-9.484436 -99.435364,-9.484436" id="svg_52" stroke-width="2.5567" fill="none"/>
  <path stroke="#000000" d="m682.476929,386.099579c0,0 -9.264832,9.542297 -8.90686,20.076141c0.380188,13.488861 8.849304,20.5495 8.849304,20.5495" id="svg_51" stroke-linecap="round" stroke-width="2.4134" fill="none"/>
  <path stroke="#000000" d="m759.759338,426.14621c4.661438,5.977539 7.326782,13.488861 6.750061,21.126984c-0.588806,7.395782 -4.026917,13.384583 -9.219177,17.214142" id="svg_50" stroke-linecap="round" stroke-width="2.2849" fill="none"/>
  <path stroke="#000000" d="m232.144073,651.660706c0,0 26.549438,-32.525635 32.595245,-79.404785c4.834625,-37.163574 3.253571,-92.385193 -4.004181,-127.530609c-8.653671,-42.136871 -22.326248,-55.775116 -22.326248,-55.775116" id="svg_49" stroke-width="2.4182" fill="none"/>
  <path stroke="#000000" d="m277.085266,578.557373c0,0 4.326782,20.169312 4.349976,41.145447c0.080261,19.591736 -5.146545,39.332642 -5.146545,39.332642" id="svg_48" stroke-width="2.5567" fill="none"/>
  <path d="m253.65126,482.686218c0,0 28.753006,-8.573303 32.618454,-42.703186c3.957092,-34.925598 -56.617935,-95.904877 -71.940552,-72.389191c-26.814346,40.970703 39.322098,115.092377 39.322098,115.092377z" id="svg_47" fill="#f5c14c"/>
  <line d="" points="null" stroke="#000000" x1="242.906107" y1="439.66937" x2="214.47631" y2="393.6669" id="svg_46" stroke-linecap="round" stroke-width="3.29" fill="none"/>
  <line d="" points="null" stroke="#000000" x1="261.173293" y1="409.555117" x2="229.351168" y2="366.898463" id="svg_45" stroke-linecap="round" stroke-width="3.29" fill="none"/>
  <line d="" points="null" stroke="#000000" x1="256.119021" y1="429.460247" x2="217.651055" y2="375.104173" id="svg_44" stroke-linecap="round" stroke-width="3.29" fill="none"/>
  <path d="m268.98584,387.196716c0,0 22.30304,8.480347 23.145294,48.7948c0.715454,35.179169 -59.132843,100.265503 -74.466827,76.762634c-26.779785,-40.972198 51.321533,-125.557434 51.321533,-125.557434z" id="svg_43" fill="#f5df88"/>
  <line d="" points="null" stroke="#000000" x1="263.505749" y1="471.782402" x2="231.730128" y2="514.461659" id="svg_42" stroke-linecap="round" stroke-width="3.3505" fill="none"/>
  <line d="" points="null" stroke="#000000" x1="255.528514" y1="431.08546" x2="217.059855" y2="485.441415" id="svg_41" stroke-linecap="round" stroke-width="3.3505" fill="none"/>
  <line d="" points="null" stroke="#8a4d4a" x1="217.363058" y1="454.717527" x2="194.563626" y2="471.320413" id="svg_40" stroke-linecap="round" stroke-width="3.3505" fill="none"/>
  <path stroke="#000000" d="m758.893738,356.58374c0,0 8.572571,15.253601 4.396057,29.710052c-5.099426,17.687531 -19.903076,15.54245 -29.029907,15.54245c-15.495911,0 -31.303162,-11.538116 -31.303162,-11.538116c0,0 -1.580322,4.684479 -1.580322,13.591583c0,8.895844 1.050232,13.487549 1.050232,13.487549" id="svg_39" stroke-linecap="round" stroke-width="2.2849" fill="none"/>
  <line d="" points="null" stroke="#000000" x1="755.800214" y1="380.536517" x2="744.850888" y2="380.536517" id="svg_38" stroke-linecap="round" stroke-width="2.5567" fill="none"/>
  <line d="" points="null" stroke="#000000" x1="755.800214" y1="446.799694" x2="744.850888" y2="446.799694" id="svg_37" stroke-linecap="round" stroke-width="2.5567" fill="none"/>
  <path d="m493.413727,593.520935l-49.267975,-94.198029c67.971436,62.641388 103.312622,8.019775 103.312622,8.019775l43.371399,59.408844l-97.416046,26.769409z" id="svg_36" fill="#433225"/>
  <path stroke="#000000" d="m496.078369,602.105469c0,0 -4.834503,-42.794678 -51.932617,-102.769897c-52.683594,-67.037048 -128.454559,-102.771179 -128.454559,-102.771179" id="svg_35" stroke-linecap="round" stroke-width="2.5567" fill="none"/>
  <line d="" points="null" stroke="#000000" x1="257.50862" y1="450.886525" x2="219.039961" y2="505.242481" stroke-linecap="round" stroke-width="3.3505" fill="none" id="svg_34"/>
 </g>
</svg>