<svg width="11in" height="8in" xmlns="http://www.w3.org/2000/svg">
 <!-- Created with SVG-edit - http://svg-edit.googlecode.com/ -->
 <g>
  <path stroke="#000000" id="svg_5" d="m605.848816,617.976135c-48.867432,44.82251 -86.394104,56.747253 -132.867249,8.729736c-73.085419,-75.515442 -166.645691,-189.835663 -222.722519,-266.048737c-56.389282,-76.639618 -34.395874,-141.582352 45.058517,-183.174911c5.938873,18.62709 17.151367,38.457031 40.062225,36.785721c-16.306213,69.661346 78.867554,100.917114 88.787231,31.076202c28.643005,2.194031 32.279053,-28.442703 43.039215,-46.352753c12.012756,3.538193 17.247711,13.751389 21.188507,19.552429c32.647614,48.059265 102.594513,131.843964 150.692169,187.423492c27.407898,31.672791 78.091187,82.47937 56.695618,124.06369c-10.681519,20.756897 -35.937317,30.447449 -47.873108,52.574036l-42.060608,35.371094z" stroke-linecap="round" stroke-width="9.1046" fill="#800080" clip-rule="evenodd" fill-rule="evenodd"/>
  <path stroke="#000000" id="svg_6" d="m613.059631,611.24646c46.622009,46.549927 79.896851,118.333069 141.529297,142.331421c27.541321,-10.707275 15.496643,-40.23877 -1.825073,-62.139221c-27.578003,-34.872314 -83.322937,-96.992615 -97.643616,-115.56012l-42.060608,35.36792z" stroke-linecap="round" stroke-width="8.629" fill="#F6FF3F" clip-rule="evenodd" fill-rule="evenodd"/>
  <path stroke="#000000" id="svg_7" d="m505.671143,564.63385c-74.681213,-77.834473 -140.394012,-163.280823 -213.675354,-242.770416" stroke-linecap="round" stroke-width="5.2975" fill="none" clip-rule="evenodd" fill-rule="evenodd"/>
  <path stroke="#000000" id="svg_8" d="m625.936829,503.426422c-63.152832,-67.893829 -118.050751,-142.543091 -179.601654,-211.076965" stroke-linecap="round" stroke-width="7.3878" fill="none" clip-rule="evenodd" fill-rule="evenodd"/>
  <path stroke="#000000" id="svg_9" d="m330.537964,102.355003c9.375854,4.495567 15.225159,16.546837 26.788849,16.182846c-3.972778,-34.370407 -14.832275,-85.306759 -51.449738,-99.22496c-47.480072,17.09853 -1.093628,67.391861 24.660889,83.042122" stroke-linecap="round" stroke-width="5.8885" fill="#800080" clip-rule="evenodd" fill-rule="evenodd"/>
  <path stroke="#000000" id="svg_10" d="m407.305786,117.678146c29.010223,-25.351875 94.43576,-66.528927 55.019897,-108.743786c-45.234741,1.615029 -77.436798,82.841656 -55.019897,108.743786" stroke-linecap="round" stroke-width="8.148" fill="#800080" clip-rule="evenodd" fill-rule="evenodd"/>
 </g>
</svg>