<svg width="12in" height="9in" xmlns="http://www.w3.org/2000/svg">
 <!-- Created with SVG-edit - http://svg-edit.googlecode.com/ -->
 <g>
  <g id="svg_11">
   <path fill-rule="evenodd" clip-rule="evenodd" fill="#DE7FFF" stroke-width="9.1046" stroke-linecap="round" d="m716.764526,696.215088c-52.77179,48.403687 -93.296692,61.281128 -143.48291,9.427185c-78.924683,-81.548828 -179.960114,-205.002808 -240.517273,-287.305054c-60.894592,-82.762848 -37.143982,-152.894318 48.658508,-197.809998c6.413422,20.115311 18.521729,41.529602 43.263092,39.724762c-17.609009,75.227081 85.168793,108.980072 95.881012,33.559052c30.931519,2.369324 34.858093,-30.715118 46.477905,-50.056137c12.972473,3.820862 18.625732,14.850082 22.881348,21.114609c35.256104,51.899017 110.791565,142.377808 162.732056,202.39801c29.597717,34.203308 84.330383,89.069153 61.225342,133.975952c-11.534851,22.415283 -38.808533,32.880066 -51.697937,56.774475l-45.421143,38.197144z" id="svg_5" stroke="#000000"/>
   <path fill-rule="evenodd" clip-rule="evenodd" fill="#F6FF3F" stroke-width="8.629" stroke-linecap="round" d="m724.551453,688.947754c50.346924,50.269043 86.280396,127.787476 152.837097,153.703186c29.741699,-11.562744 16.734619,-43.453674 -1.971008,-67.103882c-29.781311,-37.658569 -89.980103,-104.742004 -105.444946,-124.793091l-45.421143,38.193787z" id="svg_6" stroke="#000000"/>
   <path fill-rule="evenodd" clip-rule="evenodd" fill="none" stroke-width="5.2975" stroke-linecap="round" d="m608.583008,638.610962c-80.64801,-84.053162 -151.611023,-176.326447 -230.747314,-262.166931" id="svg_7" stroke="#000000"/>
   <path fill-rule="evenodd" clip-rule="evenodd" fill="none" stroke-width="7.3878" stroke-linecap="round" d="m738.45752,572.513245c-68.198547,-73.318359 -127.482666,-153.931793 -193.951233,-227.941254" id="svg_8" stroke="#000000"/>
   <path fill-rule="evenodd" clip-rule="evenodd" fill="#DE7FFF" stroke-width="5.8885" stroke-linecap="round" d="m419.457275,139.397598c10.124908,4.854736 16.44162,17.868881 28.929199,17.4758c-4.290222,-37.116508 -16.017303,-92.122505 -55.560394,-107.152699c-51.27359,18.464619 -1.181,72.776249 26.631195,89.676899" id="svg_9" stroke="#000000"/>
   <path fill-rule="evenodd" clip-rule="evenodd" fill="#DE7FFF" stroke-width="8.148" stroke-linecap="round" d="m502.358582,155.944977c31.328003,-27.377411 101.980835,-71.844337 59.415771,-117.432026c-48.848816,1.744087 -83.623718,89.460461 -59.415771,117.432026" id="svg_10" stroke="#000000"/>
  </g>
 </g>
</svg>