<svg width="11.985637in" height="8.695171in" xmlns="http://www.w3.org/2000/svg">
 <g>
  <g transform="matrix(1.13491 0 0 1.13491 -23.2314 -1.84855)" id="svg_1">
   <path stroke="#000000" id="svg_5" d="m642.991211,600.479858c-47.682434,43.735657 -84.299133,55.371216 -129.645325,8.518066c-71.313202,-73.684265 -162.604736,-185.23233 -217.321747,-259.597321c-55.021912,-74.781189 -33.561829,-138.149124 43.965881,-178.733109c5.794861,18.1754 16.735474,37.52449 39.090759,35.893707c-15.910797,67.972122 76.955109,98.469986 86.634247,30.322632c27.948425,2.140823 31.496307,-27.752991 41.995544,-45.228745c11.721436,3.452393 16.829468,13.417938 20.674683,19.078308c31.855957,46.89386 100.10675,128.646881 147.038086,182.878662c26.743286,30.904755 76.19751,80.47934 55.320801,121.055298c-10.422485,20.25354 -35.065857,29.709106 -46.712219,51.299133l-41.04071,34.513367z" stroke-linecap="round" stroke-width="9.1046" fill="#800080" clip-rule="evenodd" fill-rule="evenodd"/>
   <path stroke="#000000" id="svg_6" d="m650.027161,593.913391c45.491516,45.421143 77.959473,115.463623 138.097351,138.880066c26.873474,-10.447632 15.120911,-39.263062 -1.780823,-60.632446c-26.909241,-34.026672 -81.302429,-94.640625 -95.275818,-112.757874l-41.04071,34.510254z" stroke-linecap="round" stroke-width="8.629" fill="#F6FF3F" clip-rule="evenodd" fill-rule="evenodd"/>
   <path stroke="#000000" id="svg_7" d="m545.242737,548.431091c-72.87027,-75.947052 -136.989594,-159.321411 -208.493958,-236.883484" stroke-linecap="round" stroke-width="5.2975" fill="none" clip-rule="evenodd" fill-rule="evenodd"/>
   <path stroke="#000000" id="svg_8" d="m662.592102,488.707886c-61.62146,-66.247467 -115.18811,-139.086578 -175.24649,-205.958557" stroke-linecap="round" stroke-width="7.3878" fill="none" clip-rule="evenodd" fill-rule="evenodd"/>
   <path stroke="#000000" id="svg_9" d="m374.356354,97.36203c9.148499,4.386559 14.855988,16.145592 26.139252,15.790428c-3.876434,-33.536957 -14.472595,-83.238159 -50.202118,-96.818855c-46.328735,16.683907 -1.067108,65.757675 24.062866,81.028435" stroke-linecap="round" stroke-width="5.8885" fill="#800080" clip-rule="evenodd" fill-rule="evenodd"/>
   <path stroke="#000000" id="svg_10" d="m449.262634,112.313606c28.306763,-24.737122 92.145813,-64.915672 53.68573,-106.106865c-44.137848,1.575866 -75.559021,80.832833 -53.68573,106.106865" stroke-linecap="round" stroke-width="8.148" fill="#800080" clip-rule="evenodd" fill-rule="evenodd"/>
  </g>
 </g>
</svg>