<svg width="10.990927in" height="7.692314in" xmlns="http://www.w3.org/2000/svg">
 <g>
  <path fill="none" stroke="#f1ff01" stroke-width="8.092011" stroke-linecap="round" stroke-linejoin="bevel" stroke-miterlimit="4" stroke-dashoffset="0" id="path4437" d="m127.243126,478.100372a420.195557,420.195557 0 1 1 840.391151,0"/>
  <path fill="none" stroke="#f99600" stroke-width="8.452018" stroke-linecap="round" stroke-linejoin="bevel" stroke-miterlimit="4" stroke-dashoffset="0" id="path4435" d="m108.549118,477.898987a438.88974,438.88974 0 1 1 877.779495,0"/>
  <path fill="none" stroke="#f90000" stroke-width="8.843016" stroke-linecap="round" stroke-linejoin="bevel" stroke-miterlimit="4" stroke-dashoffset="0" id="path3665" d="m88.245705,477.680328a459.193176,459.193176 0 1 1 918.386314,0"/>
  <path fill="none" stroke="#3c9a3c" stroke-width="7.784055" stroke-linecap="round" stroke-linejoin="bevel" stroke-miterlimit="4" stroke-dashoffset="0" id="path4439" d="m143.234558,478.272675a404.204315,404.204315 0 1 1 808.40863,0"/>
  <path fill="none" stroke="#218100" stroke-width="6.231574" stroke-miterlimit="4" id="path4558-1" d="m1051.360474,560.182922c-133.910583,119.17865 -424.093872,-92.905914 -564.787811,-126.374786c-96.810455,-23.029663 -195.3349,109.653717 -291.718216,144.868622c-33.162262,12.116272 -70.24501,3.480652 -103.140907,18.278198c-23.004059,10.3479 -64.295761,43.180115 -87.073982,71.23114c22.778221,3.016724 64.069908,-29.81543 87.073982,-40.163269c32.895897,-14.797607 69.978645,-6.161987 103.140907,-18.278259c96.383316,-35.214905 194.907761,-167.898315 291.718216,-144.868622c140.693939,33.468903 430.877228,245.553375 564.787811,126.374725"/>
  <path fill="none" stroke="#218100" stroke-width="5.271095" stroke-miterlimit="4" id="path4596" d="m1051.360474,524.228516c-133.910583,85.271667 -424.093811,-66.473602 -564.787811,-90.42041c-96.810455,-16.47757 -195.3349,78.456604 -291.718216,103.65271c-33.162262,8.669128 -70.24501,2.490356 -103.140907,13.077942c-23.004059,7.40387 -64.295761,30.895081 -87.073982,50.965454c22.778221,2.158447 64.069908,-21.332764 87.073982,-28.736633c32.895897,-10.587585 69.978645,-4.408813 103.140907,-13.077942c96.383316,-25.196045 194.907761,-120.13028 291.718216,-103.65271c140.693939,23.946808 430.877228,175.692078 564.787811,90.420471"/>
  <path fill="none" stroke="#0200d6" stroke-width="7.551992" stroke-linecap="round" stroke-linejoin="bevel" stroke-miterlimit="4" stroke-dashoffset="0" id="path4441" d="m155.284912,478.402496a392.153961,392.153961 0 1 1 784.307861,0"/>
  <path fill="none" stroke="#9d00d6" stroke-width="7.250565" stroke-linecap="round" stroke-linejoin="bevel" stroke-miterlimit="4" stroke-dashoffset="0" id="path4443" d="m170.93718,478.571167a376.501648,376.501648 0 1 1 753.003311,0"/>
  <path fill="none" stroke="#814400" stroke-width="9" stroke-miterlimit="4" id="path4555" d="m1051.360474,473.771118c-133.910583,51.504089 -424.093811,-40.150055 -564.787811,-54.613922c-96.810455,-9.952484 -195.3349,47.387756 -291.718216,62.606201c-33.162262,5.236176 -70.24501,1.504211 -103.140907,7.899109c-23.004059,4.471924 -64.295761,18.660583 -87.073982,30.783173c22.778221,1.303589 64.069908,-12.88504 87.073982,-17.356964c32.895897,-6.394867 69.978645,-2.662933 103.140907,-7.899078c96.383316,-15.218475 194.907761,-72.558716 291.718216,-62.606232c140.693939,14.463867 430.877228,106.118011 564.787811,54.613922"/>
  <path fill="none" stroke="#000000" stroke-width="5.430708" stroke-miterlimit="4" id="path4598" d="m1003.625061,592.468811c-119.337524,101.5672 -395.461243,-80.524567 -520.843933,-109.047607c-86.274933,-19.626526 -156.55722,94.797485 -242.451462,124.808594c-29.55336,10.325806 -62.600479,2.966309 -91.916443,15.577148c-20.500603,8.818726 -57.298683,36.799194 -77.598022,60.705078c20.299339,2.570923 57.09742,-25.409485 77.598022,-34.228271c29.315964,-12.61084 62.363083,-5.251343 91.916443,-15.577209c85.894241,-30.010986 192.564346,-151.173553 278.839279,-131.547028c125.38269,28.523163 365.118591,217.353363 484.456116,115.786163"/>
  <g transform="matrix(1.11885 0 0 1.11885 -22.2691 -110.682)" display="inline" id="layer0"/>
 </g>
</svg>