<svg width="12in" height="9in" xmlns="http://www.w3.org/2000/svg">
 <!-- Created with SVG-edit - http://svg-edit.googlecode.com/ -->
 <g>
  <title>Layer 1</title>
  <metadata id="svg_39">image/svg+xml</metadata>
  <path stroke-width="5" stroke="#000000" fill="#ffffff" id="svg_38" d="m312.202972,838.992798l0,-13.822754l17.371918,-13.08905l17.371918,-13.088867l100.527252,0l100.527222,0l0,26.911743l0,26.911804l-117.899139,0l-117.89917,0l0,-13.822876z"/>
  <path stroke-width="5" stroke="#000000" fill="#ffffff" id="svg_37" d="m601.824829,825.90387l0,-26.911743l100.52771,0l100.528076,0l15.58429,11.854004c8.571411,6.519714 16.388428,12.494263 17.37146,13.276733c1.326904,1.056702 1.786804,4.931274 1.786804,15.0578l0,13.63501l-117.89917,0l-117.89917,0l0,-26.911804z"/>
  <path stroke-width="5" stroke="#000000" fill="#ffffff" id="svg_36" d="m353.211395,786.992615c0,-0.256226 1.735931,-10.204041 3.857666,-22.106079c2.121735,-11.902161 7.04364,-39.517273 10.937592,-61.367126c3.893982,-21.84967 7.677521,-42.754333 8.407593,-46.454651l1.327667,-6.728088l73.520355,0c49.009247,0 73.792236,0.439575 74.335388,1.318726c0.448364,0.725098 2.756409,28.838257 5.129211,62.473755c2.373108,33.635315 4.550659,63.894287 4.839478,67.24231l0.525269,6.087036l-91.440094,0c-50.291992,0 -91.440094,-0.209595 -91.440094,-0.465881l-0.000031,0z"/>
  <path stroke-width="5" stroke="#000000" fill="#ffffff" id="svg_35" d="m614.254211,781.371338c0.285645,-3.348022 2.476013,-33.627075 4.867004,-67.286926c2.39093,-33.659912 4.701782,-61.773071 5.134766,-62.473755c0.507202,-0.820374 26.960266,-1.273987 74.292419,-1.273987l73.505188,0l1.287476,6.087158c0.708008,3.348022 1.622803,8.105652 2.03302,10.57251c0.410156,2.466797 3.622681,20.632324 7.139038,40.367615c3.516663,19.735352 7.860229,44.244263 9.652344,54.464294c1.792419,10.220032 3.572632,20.167847 3.955872,22.106079l0.697083,3.52417l-91.541809,0l-91.541748,0l0.519348,-6.087158z"/>
  <path stroke-width="5" stroke="#000000" fill="#0000ff" id="svg_34" d="m307.717682,743.012146c-10.656647,-1.360352 -32.205994,-5.890259 -33.625641,-7.068359c-0.888702,-0.73761 -1.615967,-1.008057 -1.615967,-0.600891c0,0.958679 -15.35672,-4.737122 -24.041641,-8.917236c-3.967667,-1.909424 -6.390671,-3.811646 -5.889145,-4.623108c0.528748,-0.855652 0.244507,-1.003174 -0.749329,-0.389221c-0.935471,0.578186 -3.127594,-0.13855 -5.272156,-1.72406c-2.018951,-1.492676 -4.126587,-2.716614 -4.683807,-2.71991c-0.55722,-0.003906 -2.743103,-1.600647 -4.857605,-3.549805c-2.114532,-1.949341 -6.545547,-5.733337 -9.846786,-8.408813c-6.213272,-5.035828 -17.197174,-17.525391 -13.84024,-15.737366c1.045761,0.556763 0.687683,-0.046753 -0.795792,-1.341431c-5.914017,-5.161377 -16.084137,-24.174927 -17.967316,-33.590698l-0.800934,-4.004578l75.128693,0l75.128662,0l0,46.775208l0,46.775208l-11.213226,-0.192139c-6.167267,-0.105591 -12.943237,-0.412781 -15.05777,-0.6828z"/>
  <path stroke="#000000" stroke-width="5" fill="#0000ff" id="svg_33" d="m815.837463,697.300537l0,-46.963867l75.609253,0c41.585022,0 75.609253,0.266724 75.609253,0.592529c0,0.326172 -1.244324,3.930298 -2.764832,8.009644c-3.750671,10.060913 -9.480286,20.299133 -11.151611,19.926819c-0.753113,-0.167725 -1.070007,0.47522 -0.703979,1.429016c0.814087,2.121887 -12.948364,19.698425 -19.34906,24.71106c-2.556458,2.001892 -6.090637,4.946594 -7.854309,6.544128c-1.763611,1.597168 -3.832336,2.517334 -4.59729,2.044556c-0.764954,-0.472717 -1.027466,-0.271545 -0.582886,0.447449c1.698608,2.748718 -21.121765,14.67572 -39.953064,20.88147c-14.998657,4.942749 -30.618958,7.670776 -49.203735,8.593323l-15.057739,0.747559l0,-46.963684z"/>
  <path stroke-width="5" stroke="#000000" fill="#0000ff" id="svg_32" d="m183.637787,636.560364c-0.50325,-0.855835 2.21637,-25.465637 10.585938,-95.79303c1.426071,-11.982117 3.568741,-30.58017 4.761703,-41.328796l2.168808,-19.54306l6.826981,0l6.826797,0l0,-21.785736l0,-21.785736l-22.426468,0l-22.426468,0l0,-24.8479c0,-26.709839 1.493317,-38.378906 6.924255,-54.106201c7.029572,-20.3573 16.327713,-36.794983 30.365692,-53.682434c16.706131,-20.097137 38.965363,-34.426239 65.871826,-42.404114c10.462341,-3.102081 14.062988,-3.478485 38.765747,-4.052429l27.232147,-0.632782l0,89.862946l0,89.862946l-18.58194,0l-18.58194,0l0,21.785736l0,21.785736l6.928192,0l6.928009,0l0.761688,6.087189c0.418762,3.347992 3.362885,28.577728 6.542267,56.066132c3.179535,27.488403 6.927704,59.494141 8.329376,71.123962c1.401825,11.629822 2.548645,21.865784 2.548492,22.746826c-0.000183,1.263367 -15.833069,1.601929 -74.892944,1.601929c-41.191132,0 -75.147293,-0.432434 -75.45813,-0.961182l-0.000031,0z"/>
  <path stroke-width="5" stroke="#000000" fill="#ffffff" id="svg_31" d="m398.064331,592.027832l0,-45.493713l62.153351,0l62.153351,0l0,45.493713l0,45.493713l-62.153351,0l-62.153351,0l0,-45.493713z"/>
  <path stroke-width="5" stroke="#000000" fill="#ffffff" id="svg_30" d="m627.455078,592.027832l0,-45.493713l62.153381,0l62.153381,0l0,45.493713l0,45.493713l-62.153381,0l-62.153381,0l0,-45.493713z"/>
  <path stroke-width="5" stroke="#000000" fill="#0000ff" id="svg_29" d="m815.837463,637.017822c0,-0.277222 4.036621,-34.816895 8.970581,-76.75531c4.93396,-41.938232 8.970581,-77.177338 8.970581,-78.309143c0,-1.640076 1.431091,-2.057892 7.04834,-2.057892l7.048279,0l0,-21.785736l0,-21.785706l-18.581909,0l-18.581909,0l0,-89.862946l0,-89.863098l27.232117,0.680603c21.796021,0.544586 29.022705,1.188477 36.202759,3.225525c11.613708,3.294983 19.847473,6.333099 21.9953,8.115845c0.942078,0.781708 1.712646,1.080322 1.712646,0.663757c0,-1.426392 16.013306,8.55072 25.788879,16.068024c13.833191,10.637238 35.414307,36.380585 33.870605,40.403168c-0.38385,1.000702 -0.111084,1.421509 0.626709,0.965668c1.475464,-0.911865 11.694397,20.137054 15.557739,32.046112c4.937378,15.219666 6.172913,25.636017 6.172913,52.039703l0,25.517609l-22.426514,0l-22.426453,0l0,21.785706l0,21.785736l7.04834,0c5.332825,0 7.048279,0.456451 7.048279,1.875488c0,2.069336 16.197876,141.591064 17.449707,150.304138l0.782471,5.446472l-75.754761,0c-41.6651,0 -75.7547,-0.226868 -75.7547,-0.503723z"/>
  <path fill="#007f00" id="svg_28" d="m398.197754,531.691467c-16.141846,-4.341858 -31.933929,-17.319702 -38.701599,-31.807251c-5.397797,-11.551453 -6.232056,-21.089722 -6.258972,-71.569946l-0.025482,-45.814087l51.901093,0l51.901428,0l0,2.960388c0,12.672913 11.948792,42.001587 22.971008,56.381378c3.497253,4.563507 5.959076,8.741272 5.469604,9.283295c-0.488403,0.543457 -0.258911,0.629181 0.509979,0.19101c0.770111,-0.437073 3.365204,1.244293 5.766785,3.736755c15.874207,16.471313 40.605927,28.607208 66.522125,32.644165c10.680115,1.663361 40.526611,0.571472 44.233765,-1.618622c0.693298,-0.408783 4.620178,-1.708282 8.727173,-2.887329c7.509827,-2.155334 21.728149,-8.614227 27.876648,-12.661346c1.818726,-1.196869 3.784485,-1.742828 4.370178,-1.210968c0.585693,0.530487 0.680481,0.293488 0.209961,-0.526703c-0.499695,-0.873993 0.891968,-2.57193 3.351135,-4.091858c6.637207,-4.102203 21.791016,-20.464478 28.142273,-30.385864c7.567383,-11.820831 14.744873,-29.940033 16.679993,-42.105499l1.545593,-9.708801l51.611511,0l51.613098,0l-0.039734,45.17334c-0.021851,24.846039 -0.579407,49.324158 -1.237976,54.396393c-3.104004,23.890076 -20.589966,43.51889 -44.261047,49.684235c-11.041443,2.875793 -342.168854,2.816772 -352.87854,-0.062683l0,0z"/>
  <path fill="#007f00" id="svg_26" d="m353.71463,366.58548c-0.383728,-1.000244 -0.472595,-26.518341 -0.197418,-56.70694c0.436615,-47.904846 0.785309,-55.757858 2.741058,-61.721298c6.061218,-18.482437 19.038391,-31.945053 37.642853,-39.050934l7.366974,-2.813797l173.644989,0l173.644958,0l7.367126,2.813797c10.873169,4.15303 20.352478,10.97467 26.80542,19.290421c13.110474,16.895569 14.104736,23.473022 13.610107,90.028137l-0.366699,49.338257l-50.685425,0.334747l-50.685486,0.33493l-1.610352,-12.90506c-3.020752,-24.205139 -11.501648,-43.751038 -27.279968,-62.872345c-2.680359,-3.248199 -4.455566,-6.323853 -3.944702,-6.834625c0.51062,-0.510925 0.329773,-0.736511 -0.402649,-0.501709c-0.731812,0.234985 -4.480286,-2.219025 -8.329834,-5.453461c-31.270935,-26.275208 -70.170654,-35.070908 -109.638794,-24.790649c-18.529053,4.826172 -36.980804,15.550262 -51.671143,30.030579c-20.56427,20.270508 -31.364349,42.289612 -34.915405,71.184509l-1.488647,12.113831l-50.454559,0c-42.385651,0 -50.566071,-0.290802 -51.152405,-1.81839z"/>
  <path fill="#000000" id="svg_25" d="m393.575439,180.341568c2.575836,-33.344818 13.478882,-64.598427 31.672546,-90.797638c10.262421,-14.778381 33.232178,-37.550892 47.509491,-47.100601c9.865082,-6.598877 11.486237,-7.294857 13.436646,-5.766808c1.958252,1.534939 2.03006,1.49865 0.617767,-0.311611c-1.375061,-1.76318 -0.840668,-2.390011 3.818878,-4.4853c2.979462,-1.339701 5.861603,-2.291611 6.403809,-2.115459c0.543304,0.1763 0.988068,-0.20587 0.988068,-0.84897c0,-2.76045 29.750122,-12.318611 48.697449,-15.64503c12.366516,-2.17132 45.4552,-2.15364 57.027344,0.030499c21.365173,4.032261 48.814148,13.238911 47.210693,15.83432c-0.540649,0.874001 -0.083191,1.08831 1.24054,0.58053c1.162292,-0.445999 4.386719,0.49589 7.234192,2.11343c4.207153,2.39016 4.851929,3.238659 3.56012,4.689911c-1.331604,1.49567 -1.233032,1.510689 0.639526,0.09589c1.926025,-1.456089 3.659912,-0.706303 13.218689,5.71957c13.0354,8.76347 33.366882,28.162457 43.493225,41.496632c9.586914,12.625526 17.681213,26.623459 16.540466,28.607208c-0.502136,0.871498 -0.447083,1.164963 0.121704,0.649666c0.569092,-0.513885 2.341492,1.886452 3.939331,5.333801c7.613708,16.432671 13.690552,41.017326 15.305237,61.91996l0.866333,11.213242l-182.204102,0l-182.205536,0l0.867584,-11.213242l0,0z"/>
  <path fill="#ffffff" id="svg_24" d="m488.96225,166.597382c26.215912,-9.249832 34.849579,-43.632912 16.172821,-64.40493c-7.573914,-8.424629 -15.719177,-12.322983 -27.013123,-12.927933c-11.409393,-0.60994 -17.587494,1.06752 -26.212036,7.122635c-5.044067,3.540894 -8.086426,7.034233 -11.454285,13.150826c-4.248169,7.714745 -4.586517,9.134705 -4.586517,19.222687c0,8.669464 0.576782,12.04892 2.827087,16.552048c1.555725,3.112885 2.522034,6.153824 2.147858,6.76001c-0.374207,0.604935 -0.173035,0.941895 0.447235,0.748383c0.62027,-0.193512 2.537354,1.121323 4.260956,2.920624c4.435394,4.636581 10.555939,8.705276 16.212433,10.781326c6.481873,2.379837 20.555511,2.416931 27.197571,0.07431l0,0l0,0.000015z"/>
  <path fill="#ffffff" id="svg_23" d="m686.74823,166.719238c3.233459,-0.972702 7.571411,-2.974442 9.639771,-4.448212c2.069641,-1.472519 4.177429,-2.263138 4.685242,-1.754425c0.507446,0.507477 0.745544,0.346039 0.527832,-0.358856c-0.217773,-0.704742 1.153503,-2.92691 3.047302,-4.93895c6.650085,-7.064911 9.259094,-14.500244 9.284729,-26.458115c0.021606,-10.022614 -0.330688,-11.547691 -4.421143,-19.093155c-7.73291,-14.264496 -20.727295,-21.315475 -37.621582,-20.411919c-21.402466,1.144333 -37.173889,17.90786 -37.167664,39.505074c0.007813,27.425812 25.418762,45.965347 52.025513,37.958557l0,0z"/>
  <path stroke="#000000" d="m583.408508,354.802307c0,-0.946869 0,-1.893707 0,-2.840576c0,-0.946869 0,-1.893707 0,-2.840576c0,-0.946869 0,-1.893707 0,-2.840576c0,-0.946838 -0.960999,-2.840576 -0.960999,-4.734283c0,-0.946838 0,-1.893707 0,-2.840576c0,-0.946838 -0.960938,-2.840546 -0.960938,-3.787415c0,-0.946869 0.201904,-1.967987 -0.960999,-4.734283c-0.822327,-1.956085 -0.960938,-2.840576 -0.960938,-3.787445c0,-0.946838 -0.281494,-3.117889 -0.960999,-3.787415c-0.679504,-0.669525 -0.281494,-1.224213 -0.960999,-1.893707c-0.679443,-0.669525 -1.428223,-0.779999 -1.921936,-2.840576c-0.220764,-0.921509 -0.281433,-2.171051 -0.960938,-2.840576c-0.679504,-0.669525 -0.666382,-1.381287 -1.921997,-1.893707c-0.887817,-0.362366 -1.995056,-0.584503 -2.882874,-0.946869c-1.255615,-0.512421 -2.377686,-2.035126 -2.882935,-2.840576c-1.1297,-1.800995 -2.588318,-1.381256 -3.843933,-1.893707c-0.887817,-0.362335 -2.741394,-1.110748 -3.843872,-1.893707c-1.743164,-1.237976 -2.956055,-0.584503 -3.843872,-0.946869c-1.255615,-0.512421 -1.995117,-0.584503 -2.882935,-0.946838c-1.255615,-0.512451 -1.752563,-1.407288 -3.843933,-1.893707c-0.935242,-0.21756 -1.995056,0.362335 -2.882874,0c-1.255615,-0.512451 -1.921997,-0.946869 -3.843933,-0.946869c-1.921936,0 -2.882935,0 -3.843872,0c-0.960999,0 -2.882935,0 -3.843933,0c-0.960938,0 -3.164368,-0.669525 -3.843872,0c-0.679504,0.669525 -0.960999,0.946869 -2.882935,0.946869c-0.960938,0 -1.921936,0 -3.843872,0c-0.960999,0 -2.882935,0.946838 -3.843933,0.946838c-0.960938,0 -1.921936,0.946869 -4.804871,0.946869c-0.960938,0 -3.549286,0.434418 -4.80484,0.946838c-2.663483,1.087036 -3.549316,0.434418 -4.804871,0.946869c-1.775665,0.724701 -2.956085,-0.362366 -3.843903,0c-1.255554,0.512451 -1.554199,1.018921 -1.921967,1.893707c-0.520081,1.237122 -0.281464,2.171051 -0.960968,2.840576c-0.679504,0.669525 -0.593201,1.018921 -0.960968,1.893707c-0.520081,1.237122 -0.593231,1.96579 -0.960968,2.840576c-0.520081,1.237122 -0.960999,1.893707 -0.960999,2.840576c0,0.946869 -1.181763,2.865906 -0.960968,3.787415c0.493683,2.060608 0.960968,2.840576 0.960968,4.734283c0,1.893738 0.499176,3.824097 0.960999,6.628021c0.486755,2.955536 0.843536,4.741394 0.960968,5.681122c0.484131,3.874756 1.435181,4.619324 1.921936,7.57486c0.307892,1.869263 0.474213,3.672455 0.960999,6.628021c0.307861,1.869263 0.474182,4.619293 0.960968,7.574829c0.153931,0.934662 0.960968,3.787445 0.960968,5.681152c0,1.893707 0.653107,4.758728 0.960968,6.627991c0.486755,2.955566 0.960968,4.734283 0.960968,5.681152c0,2.840576 1.439117,4.664001 1.921967,9.468567c0.189392,1.884491 0.440887,3.497162 0.960968,4.734283c0.735504,1.749573 1.186432,4.878448 1.921936,6.627991c0.520081,1.237122 1.720001,3.861694 2.882904,6.628021c0.822327,1.956055 1.285339,5.027802 2.882935,7.57486c0.714478,1.139069 1.14386,1.781525 2.882935,4.734283c1.078491,1.831207 0.686218,3.040985 2.882935,5.681122c0.861633,1.035553 2.254639,2.561707 3.843872,4.734283c1.256409,1.717621 1.647217,3.041016 3.843933,5.681152c0.861572,1.035553 2.608154,3.987854 4.804871,6.627991c0.861572,1.035553 1.627319,4.221863 2.882935,4.734283c0.887817,0.362366 1.626465,2.069855 2.882874,3.787445c1.589294,2.172577 2.515198,2.912628 2.882935,3.787415c1.040161,2.474274 3.323853,2.550323 3.843933,3.787445c0.367737,0.874786 0.960938,1.893707 1.921936,2.840576c0.960938,0.946838 1.034119,1.531342 1.921936,1.893707c2.511108,1.024872 2.515137,1.96579 2.882935,2.840576c0.520081,1.237091 2.293762,3.709412 4.804871,4.734283c0.887817,0.362335 0.960938,0.946838 1.921936,1.893707c0.960999,0.946869 1.554199,1.018921 1.921936,1.893707c1.040161,2.474274 2.882935,2.840576 3.843933,2.840576c0.960938,0 1.242432,-0.277344 1.921936,-0.946869c0.679504,-0.669495 1.995056,-0.584503 2.882935,-0.946838c1.255554,-0.512451 1.242432,-1.224213 1.921936,-1.893707c0.679504,-0.669525 0.960938,-0.946869 2.882935,-2.840576c0.960938,-0.946869 2.587463,-3.016693 3.843872,-4.734283c0.794617,-1.086304 1.416687,-2.035126 1.921936,-2.840576c1.129761,-1.801025 1.921936,-1.893707 3.843933,-3.787445c0.960938,-0.946838 1.921936,-1.893707 2.882874,-2.840546c1.921997,-1.893738 3.065857,-2.728424 4.804871,-5.681152c1.078552,-1.831207 4.176636,-4.455414 5.765869,-6.627991c1.256409,-1.717621 3.569153,-6.82843 5.765869,-9.468597c1.723206,-2.071075 4.509399,-6.804108 5.765808,-8.521698c1.589294,-2.172577 2.608215,-3.987854 4.804871,-6.627991c1.723267,-2.071106 2.990662,-3.710083 5.765869,-7.57486c2.00116,-2.786957 3.410522,-4.361633 6.726807,-9.468567c1.158142,-1.783417 2.97699,-6.461761 4.804871,-7.57486c0.817444,-0.497803 4.357971,-4.081665 5.765869,-5.681152c1.991028,-2.261993 2.608154,-3.987854 4.804871,-6.627991c1.723206,-2.071106 3.843872,-4.734283 6.726807,-7.57486c1.921936,-1.893707 2.587463,-3.963562 3.843872,-5.681152c1.589294,-2.172577 3.726379,-4.796783 4.804871,-6.627991c1.739075,-2.952759 2.68103,-2.914825 3.843933,-5.681152c1.644653,-3.91214 1.891724,-5.124451 3.843872,-8.521698c0.669617,-1.165253 0.960999,-1.893707 0.960999,-2.840576c0,-1.893707 0.960938,-4.734283 0.960938,-7.57486c0,-0.946838 0.735535,-3.93158 0,-5.681152c-0.52002,-1.237091 -0.653076,-2.86499 -0.960938,-4.734283c-0.486755,-2.955536 -1.401855,-4.444 -1.921936,-5.681122c-0.735535,-1.749573 -1.20752,-3.595215 -1.921997,-4.734283c-1.597656,-2.547058 -1.364929,-4.815552 -1.921936,-6.628021c-1.004089,-3.267426 -2.803711,-3.206879 -3.843872,-5.681122c-0.367737,-0.874786 0.294617,-2.328156 -0.960999,-2.840576c-0.887817,-0.362366 -1.242432,-1.224213 -1.921936,-1.893707c-0.679504,-0.669525 -1.242432,-0.277344 -1.921936,-0.946869c-0.679504,-0.669525 -1.921936,0.946869 -2.882935,0.946869c-0.960999,0 -1.921936,0 -2.882935,0c-1.921936,0 -1.921936,0.946838 -2.882935,0.946838c-1.921936,0 -2.741394,0.16391 -3.843872,0.946869c-1.743164,1.237976 -2.956055,0.584503 -3.843872,0.946869c-1.255615,0.512421 -1.242493,1.224182 -1.921997,1.893707c-0.679443,0.669495 -2.956055,0.584503 -3.843872,0.946838c-2.511108,1.024872 -2.956055,2.478241 -3.843872,2.840576c-1.255615,0.512451 -2.599915,3.168365 -4.804871,4.734283c-1.743225,1.237976 -2.882935,1.893707 -3.843933,2.840576c-1.921936,1.893707 -2.515137,1.96579 -2.882935,2.840576c-0.520081,1.237122 -2.20343,2.171051 -2.882874,2.840576c-0.679504,0.669495 -1.242493,0.277344 -1.921997,0.946838c-0.679504,0.669525 -0.281433,1.224213 -0.960938,1.893738c-0.679504,0.669495 -2.515198,1.965759 -2.882935,2.840546c-0.520081,1.237122 -1.647217,1.147278 -3.843872,3.787445c-0.861633,1.035522 -2.882935,2.840576 -3.843933,3.787415c-0.960938,0.946869 -1.921936,1.893738 -2.882935,2.840576c-0.960938,0.946869 -2.362854,1.603455 -2.882935,2.840576c-0.367737,0.874786 -1.554138,1.96579 -1.921936,2.840576c-1.040161,2.474243 -3.215576,2.561707 -4.804871,4.734283c-1.256409,1.71759 -1.242432,2.171051 -1.921936,2.840576c-0.679504,0.669495 -1.242432,0.277344 -1.921936,0.946838c-0.679504,0.669525 0,1.893738 -0.960999,1.893738l0,0.946838l0,0.946869l0,0.946838" id="svg_1" stroke-width="5" fill="#ff0000"/>
 </g>
</svg>
