<svg width="10.991183in" height="7.692493in" xmlns="http://www.w3.org/2000/svg">
 <g>
  <rect transform="matrix(1.09925 0 0 1.09925 87.106 6.10153)" fill="#fff" stroke="#000" stroke-width="1.5" x="291.55865" y="506.03425" width="1.69492" height="0" id="svg_2"/>
  <path fill="#ffffff" stroke-width="11" d="m244.083725,469.918884c-14.568237,16.979156 -17.496826,40.152283 -9.573151,59.645203l29.2491,-34.576691l28.84079,5.679596l9.552612,28.158447l-29.178741,34.499756c20.066956,5.115356 42.180878,-1.060303 56.686279,-17.976624c15.29715,-17.833618 17.803375,-42.527405 8.332031,-62.56073l76.246338,-88.886749c8.114258,-9.450806 7.12326,-23.780762 -2.196472,-32.005493c-9.322968,-8.21286 -23.457977,-7.219696 -31.567902,2.231079l-76.154327,88.793579c-20.965881,-6.848175 -44.86792,-0.916229 -60.236557,16.998627l0,0z" id="svg_21" stroke="#000000"/>
  <path fill="#ffffff" stroke-width="11" d="m765.864136,286.360809c14.568237,-16.978027 17.496887,-40.152298 9.573242,-59.645203l-29.250305,34.577759l-28.839722,-5.680649l-9.552612,-28.158463l29.178772,-34.498703c-20.066895,-5.116379 -42.181946,1.059219 -56.686279,17.976624c-15.297119,17.833664 -17.803345,42.526352 -8.33197,62.560776l-76.246338,88.885681c-8.114319,9.450775 -7.12323,23.780731 2.196472,32.005493c9.322937,8.213928 23.458008,7.219696 31.567993,-2.23111l76.154175,-88.793579c20.965942,6.848206 44.86792,0.917358 60.236572,-16.998627l0,0z" id="svg_31" stroke="#000000"/>
  <path fill="#ffffff" stroke-width="11" stroke-opacity="null" d="m396.08252,218.90242l46.420013,-106.501648l123.773163,0l46.419983,106.501648l-46.419983,106.501602l-123.773163,0l-46.420013,-106.501602z" id="svg_12" stroke="#000"/>
  <g id="svg_8" transform="matrix(1.08306 0 0 1.08306 89.134 6.26238)">
   <rect fill="#fff" stroke-width="11" stroke-opacity="null" fill-opacity="null" x="442.612614" y="497.189634" width="46.4755" height="168.779" id="svg_6" stroke="#000"/>
   <rect fill="#fff" stroke-width="11" stroke-opacity="null" fill-opacity="null" x="275.057614" y="497.189634" width="46.4755" height="168.779" id="svg_7" stroke="#000"/>
   <rect fill="#fff" stroke-width="11" x="274.446614" y="266.646634" width="215.255" height="267.846" id="svg_1" stroke="#000"/>
  </g>
  <path fill="#0000ff" stroke="#000000" stroke-width="11" stroke-linejoin="null" stroke-linecap="null" stroke-opacity="null" d="m424.128418,388.442474c0,-13.905396 10.965942,-25.168182 24.505249,-25.168182c13.539398,0 24.505371,11.262787 24.505371,25.168182c0,13.905396 -10.965973,25.168152 -24.505371,25.168152c-13.539307,0 -24.505249,-11.262756 -24.505249,-25.168152z" id="svg_9"/>
  <path stroke="#000000" fill="#008000" stroke-width="11" stroke-linejoin="null" stroke-linecap="null" stroke-opacity="null" d="m427.372528,475.485596c0,-13.693268 11.091248,-24.784515 24.784607,-24.784515c13.693268,0 24.784576,11.091248 24.784576,24.784515c0,13.693359 -11.091309,24.784546 -24.784576,24.784546c-13.693359,0 -24.784607,-11.091187 -24.784607,-24.784546z" id="svg_10"/>
  <path stroke="#000" id="svg_11" d="m498.307587,411.301849l101.825836,0l0,34.871918l-101.825836,0l0,-34.871918z" opacity="null" stroke-opacity="null" stroke-linecap="null" stroke-linejoin="null" stroke-width="11" fill-opacity="null" fill="#ff0000"/>
  <path stroke="#000000" fill="#ffa500" stroke-width="11" stroke-linejoin="null" stroke-linecap="null" stroke-opacity="null" d="m446.035431,182.147446c0,-11.147873 9.030426,-20.178253 20.178345,-20.178253c11.147827,0 20.178223,9.03038 20.178223,20.178253c0,11.147903 -9.030396,20.178284 -20.178223,20.178284c-11.147919,0 -20.178345,-9.03038 -20.178345,-20.178284z" id="svg_22"/>
  <path fill="#ffa500" stroke="#000000" stroke-width="11" stroke-linejoin="null" stroke-linecap="null" stroke-opacity="null" d="m526.806824,179.407547c0,-9.634903 7.804504,-17.439438 17.439453,-17.439438c9.634888,0 17.439392,7.804535 17.439392,17.439438c0,9.634903 -7.804504,17.439438 -17.439392,17.439438c-9.634949,0 -17.439453,-7.804535 -17.439453,-17.439438z" id="svg_23"/>
  <path fill="none" stroke="#000" stroke-width="11" stroke-opacity="null" fill-opacity="null" d="m482.3992,232.770996l43.576874,0l0,0c5.709961,0 10.335693,6.575256 10.335693,14.685211c0,8.10994 -4.625732,14.685211 -10.335693,14.685211l-43.576874,0l0,0c-5.708862,0 -10.3367,-6.575272 -10.3367,-14.685211c0,-8.109955 4.627838,-14.685211 10.3367,-14.685211z" id="svg_29"/>
  <path fill="#800080" stroke-width="11" d="m806.748535,291.625549c4.492615,-3.294647 12.742188,-6.696564 13.331482,-12.365265c0.402832,-3.701904 -5.479248,-9.067413 -8.069946,-12.85379c-19.482056,-28.477966 -42.022766,-60.14447 -62.345215,-85.238983c-1.172974,-0.611923 -1.741638,-1.737228 -3.83844,-1.59642c-6.551392,-11.521591 -15.132446,-21.507416 -22.481018,-34.194382c-2.340515,-4.026825 -6.015381,-8.793365 -5.79541,-12.613312l0.711548,-6.895844c2.007996,-8.18251 4.839111,-13.445114 12.116211,-16.0867c3.698547,-1.33107 8.21283,-0.481956 11.852966,-1.738297c2.474792,-0.832886 9.759399,-5.17379 10.384399,-7.864098c0.494934,-2.0979 -0.479797,-4.54995 -2.053467,-7.012833l-5.57782,-8.648224c-1.595337,-2.445984 -3.391052,-4.29509 -5.438049,-4.613403c-2.625244,-0.409508 -9.20929,5.017601 -10.885864,7.109528c-2.487732,3.057381 -3.400818,7.735542 -5.97522,10.8255c-5.078491,6.067322 -10.808899,6.835213 -18.830017,5.693649c-18.281006,11.961311 -36.302124,31.492134 -42.194946,62.120003c-1.603027,8.310318 -3.56543,16.046616 -1.653931,23.055115c2.049255,2.276581 3.528687,0.663895 4.527222,-1.319183c0.528625,2.233276 0.006592,5.117462 3.87854,5.322159c1.375366,-19.855743 15.314331,-52.517578 30.901855,-47.10228c3.457092,1.222778 6.316284,6.566605 9.007813,10.335648c8.500916,11.900665 14.139282,23.956207 21.890686,34.61026c-0.908569,1.994995 -0.129944,2.955673 -0.009644,4.330063c14.638672,29.106171 34.259277,62.817474 52.213196,92.37851c2.387085,3.939117 4.933289,11.629913 8.368835,12.631775c5.241943,1.550903 11.462036,-4.973419 15.964233,-8.269196l0,0z" id="svg_20" stroke="#000000"/>
  <path transform="rotate(26.8987 546.652 82.1794)" id="svg_30" d="m545.733887,116.140083l1.835815,-67.92141" opacity="null" stroke-opacity="null" stroke-linecap="null" stroke-linejoin="null" stroke-width="11" stroke="#000" fill="#ff0000"/>
  <path transform="rotate(26.8987 568.221 43.72)" fill="#ff0000" stroke="#000000" stroke-width="11" stroke-linejoin="null" stroke-linecap="null" stroke-opacity="null" d="m554.453491,43.71999c0,-7.606426 6.16156,-13.767744 13.767883,-13.767744c7.606323,0 13.767883,6.161318 13.767883,13.767744c0,7.606564 -6.16156,13.767754 -13.767883,13.767754c-7.606323,0 -13.767883,-6.16119 -13.767883,-13.767754z" id="svg_32"/>
  <path transform="rotate(-26.5848 465.075 80.0153)" id="svg_5" d="m464.15741,113.975975l1.835815,-67.921413" opacity="null" stroke-opacity="null" stroke-linecap="null" stroke-linejoin="null" stroke-width="11" stroke="#000" fill="#ff0000"/>
  <path transform="rotate(-26.5848 447.001 39.7947)" fill="#ff0000" stroke="#000000" stroke-width="11" stroke-linejoin="null" stroke-linecap="null" stroke-opacity="null" d="m433.233246,39.79467c0,-7.606419 6.16156,-13.76774 13.767883,-13.76774c7.606354,0 13.767914,6.161322 13.767914,13.76774c0,7.60656 -6.16156,13.76775 -13.767914,13.76775c-7.606323,0 -13.767883,-6.16119 -13.767883,-13.76775z" id="svg_13"/>
 </g>
</svg>