<svg width="10.983639in" height="7.999339in" xmlns="http://www.w3.org/2000/svg">
 <!-- Created with Method Draw - http://github.com/duopixel/Method-Draw/ -->

 <g>
  <title>background</title>
  <rect fill="transparent" id="canvas_background" height="770" width="1058" y="-1" x="-1"/>
 </g>
 <g>
  <title>Layer 1</title>
  <rect transform="matrix(1.09925 0 0 1.09925 87.106 6.10153)" fill="#fff" stroke="#000" stroke-width="1.5" x="291.55865" y="506.03425" width="1.69492" height="0" id="svg_2"/>
  <g transform="matrix(1.09925 0 0 1.09925 87.106 6.10153)" id="svg_3">
   <path fill="#ffffff" stroke-width="11" d="m143.066605,428.098633c-13.450989,15.677002 -16.154991,37.072998 -8.838989,55.071014l27.005981,-31.925018l26.628998,5.244019l8.820007,25.998993l-26.94101,31.853973c18.528015,4.723022 38.946014,-0.979004 52.338989,-16.597992c14.124023,-16.465973 16.438049,-39.265991 7.693054,-57.76297l70.399002,-82.070007c7.491974,-8.726013 6.576965,-21.957001 -2.028015,-29.550995c-8.608002,-7.583008 -21.658997,-6.666016 -29.146973,2.059998l-70.314041,81.983978c-19.358002,-6.322998 -41.427002,-0.845978 -55.617004,15.695007l0,0z" id="svg_21" stroke="#000000"/>
   <path fill="#ffffff" stroke-width="11" d="m624.831604,258.617645c13.450989,-15.675995 16.155029,-37.073013 8.83905,-55.071014l-27.00708,31.925995l-26.627991,-5.244995l-8.820007,-25.998993l26.94104,-31.852997c-18.527954,-4.723999 -38.947021,0.977997 -52.338989,16.597992c-14.124023,16.466003 -16.438049,39.264999 -7.692993,57.763l-70.399017,82.069c-7.492004,8.726013 -6.576965,21.957001 2.028015,29.550995c8.607971,7.584015 21.658997,6.666016 29.147034,-2.059998l70.313934,-81.983978c19.358032,6.322998 41.427002,0.846985 55.617004,-15.695007l0,0z" id="svg_31" stroke="#000000"/>
   <path fill="#ffffff" stroke-width="11" stroke-opacity="null" d="m283.4086,196.332642l42.860046,-98.334015l114.281006,0l42.860016,98.334015l-42.860016,98.333984l-114.281006,0l-42.860046,-98.333984z" id="svg_12" stroke="#000"/>
   <g id="svg_8">
    <rect fill="#fff" stroke-width="11" stroke-opacity="null" fill-opacity="null" x="442.612614" y="497.189634" width="46.4755" height="168.779" id="svg_6" stroke="#000"/>
    <rect fill="#fff" stroke-width="11" stroke-opacity="null" fill-opacity="null" x="275.057614" y="497.189634" width="46.4755" height="168.779" id="svg_7" stroke="#000"/>
    <rect fill="#fff" stroke-width="11" x="274.446614" y="266.646634" width="215.255" height="267.846" id="svg_1" stroke="#000"/>
   </g>
   <path fill="#0000ff" stroke="#000000" stroke-width="11" stroke-linejoin="null" stroke-linecap="null" stroke-opacity="null" d="m309.30365,352.870636c0,-12.838989 10.124969,-23.238007 22.625946,-23.238007c12.501038,0 22.626038,10.399017 22.626038,23.238007c0,12.838989 -10.125,23.238007 -22.626038,23.238007c-12.500977,0 -22.625946,-10.399017 -22.625946,-23.238007z" id="svg_9"/>
   <path fill="#008000" stroke="#000000" stroke-width="11" stroke-linejoin="null" stroke-linecap="null" stroke-opacity="null" d="m328.871613,422.584625c0,-6.756989 5.472992,-12.22998 12.230011,-12.22998c6.756989,0 12.230011,5.472992 12.230011,12.22998c0,6.757019 -5.473022,12.230011 -12.230011,12.230011c-6.757019,0 -12.230011,-5.472992 -12.230011,-12.230011z" id="svg_10"/>
   <rect fill="#ff0000" stroke-width="11" stroke-opacity="null" x="377.793614" y="383.446634" width="89.2817" height="30.576" id="svg_11" stroke="#000"/>
   <path fill="#ffa500" stroke="#000000" stroke-width="11" stroke-linejoin="null" stroke-linecap="null" stroke-opacity="null" d="m329.530609,156.477631c0,-7.022995 5.689026,-12.71199 12.712036,-12.71199c7.02298,0 12.711975,5.688995 12.711975,12.71199c0,7.02301 -5.688995,12.712006 -12.711975,12.712006c-7.02301,0 -12.712036,-5.688995 -12.712036,-12.712006z" id="svg_22"/>
   <path fill="#ffa500" stroke="#000000" stroke-width="11" stroke-linejoin="null" stroke-linecap="null" stroke-opacity="null" d="m404.107635,159.866638c0,-8.895996 7.205994,-16.102005 16.10199,-16.102005c8.895996,0 16.10199,7.206009 16.10199,16.102005c0,8.895996 -7.205994,16.102005 -16.10199,16.102005c-8.895996,0 -16.10199,-7.206009 -16.10199,-16.102005z" id="svg_23"/>
   <path fill="none" stroke="#000" stroke-width="11" stroke-opacity="null" fill-opacity="null" d="m363.105621,209.137634l40.234985,0l0,0c5.272034,0 9.54303,6.070999 9.54303,13.559006c0,7.487991 -4.270996,13.559006 -9.54303,13.559006l-40.234985,0l0,0c-5.271027,0 -9.543976,-6.071014 -9.543976,-13.559006c0,-7.488007 4.272949,-13.559006 9.543976,-13.559006z" id="svg_29"/>
   <line fill="none" stroke="#000" stroke-width="11" stroke-opacity="null" fill-opacity="null" x1="383.768614" y1="96.307634" x2="385.463614" y2="33.595134" id="svg_30" stroke-linejoin="null" stroke-linecap="null"/>
   <path fill="#800080" stroke-width="11" d="m662.580566,263.478638c4.148071,-3.041992 11.765015,-6.183014 12.309082,-11.416992c0.371948,-3.417999 -5.059021,-8.372009 -7.45105,-11.868011c-17.987976,-26.293991 -38.800049,-55.531998 -57.563965,-78.701996c-1.083008,-0.565002 -1.608032,-1.604004 -3.544067,-1.473999c-6.04895,-10.638 -13.971924,-19.858002 -20.756958,-31.572006c-2.161011,-3.718002 -5.554016,-8.118988 -5.350952,-11.646004l0.656982,-6.366997c1.854004,-7.554993 4.468018,-12.414001 11.187012,-14.853004c3.414917,-1.228989 7.583008,-0.445 10.94397,-1.604988c2.285034,-0.769012 9.010986,-4.777008 9.588013,-7.261002c0.45697,-1.937012 -0.442993,-4.201012 -1.895996,-6.475006l-5.150024,-7.985001c-1.473022,-2.258392 -3.130981,-3.965698 -5.020996,-4.259598c-2.42395,-0.378098 -8.503052,4.632797 -10.051025,6.564301c-2.296936,2.822906 -3.140015,7.142296 -5.516968,9.995293c-4.689026,5.602013 -9.97998,6.311012 -17.385986,5.257004c-16.879028,11.043999 -33.518066,29.077003 -38.958984,57.35601c-1.480103,7.672989 -3.291992,14.815994 -1.5271,21.287003c1.89209,2.10199 3.258057,0.612991 4.180054,-1.218002c0.488037,2.061996 0.006042,4.724991 3.581055,4.914001c1.269897,-18.333008 14.139893,-48.490005 28.531982,-43.490005c3.192017,1.128998 5.831909,6.063004 8.317017,9.542999c7.848999,10.988007 13.054932,22.119003 20.211914,31.955994c-0.838928,1.84201 -0.119995,2.729004 -0.008911,3.998001c13.515991,26.874008 31.631897,58 48.208923,85.293991c2.204041,3.637024 4.554993,10.738007 7.727051,11.663025c4.839966,1.431976 10.583008,-4.59201 14.739929,-7.63501l0,0z" id="svg_20" stroke="#000000"/>
   <path fill="#800080" stroke="#000000" stroke-width="11" stroke-linejoin="null" stroke-linecap="null" stroke-opacity="null" d="m373.599609,24.273335c0,-7.023102 5.689026,-12.711903 12.712006,-12.711903c7.02301,0 12.712036,5.688801 12.712036,12.711903c0,7.023201 -5.689026,12.711899 -12.712036,12.711899c-7.02298,0 -12.712006,-5.688698 -12.712006,-12.711899z" id="svg_32"/>
  </g>
 </g>
</svg>