<svg width="11in" height="8in" xmlns="http://www.w3.org/2000/svg">
 <!-- Created with SVG-edit - http://svg-edit.googlecode.com/ -->
 <g>
  <path fill="#000000" d="m414.080841,583.924744c-0.62027,-21.252686 -2.159515,-42.460449 -2.163269,-63.731262c-0.005188,-23.269897 -0.148804,-46.5401 -0.433289,-69.807617c-0.564117,-46.317169 -1.791748,-92.624146 -3.847565,-138.897858c-1.02536,-23.072632 -2.445618,-46.118378 -3.759155,-69.177124c-1.299713,-22.80484 -1.655914,-45.651917 -3.469543,-68.428528c-2.289032,-28.777557 -0.161407,-59.578735 -12.29895,-86.433708c-9.901001,-21.905106 -35.672852,-27.949455 -57.467712,-29.419498c-25.737396,-1.73547 -51.964264,3.657871 -77.43129,6.640324c-31.335663,3.669487 -62.844284,5.644447 -94.279938,8.224518c-30.292374,2.486473 -61.37941,7.091507 -91.664169,2.090317c-5.19973,-0.858696 -10.387962,0.249931 -14.01897,3.445251c-8.688381,-5.712517 -23.648201,-1.781601 -23.634109,11.818222c0.05127,46.487679 2.541599,92.913872 4.647408,139.340004c2.11343,46.583786 3.388813,93.194412 4.28717,139.817978c0.901051,46.708038 1.71106,93.425079 4.116791,140.085724c1.18679,23.007416 3.070942,45.935333 4.999779,68.886322c1.358582,16.168274 1.967342,32.65564 7.012074,48.207703c12.827019,39.544678 53.544571,45.69165 89.921127,46.614502c20.491348,0.520203 40.919922,1.716125 61.381866,2.93634c22.45636,1.340454 44.89975,1.602051 67.31488,3.688477c16.782379,1.565002 32.722443,4.851257 50.473724,7.779968c17.924164,2.956726 36.182892,5.179138 54.15976,1.428955c19.962006,-4.165405 29.029877,-22.173035 32.522461,-40.543213c4.038635,-21.252808 4.260406,-43.016968 3.630951,-64.565796l-0.000031,0z" fill-opacity="0" stroke-width="5" id="svg_2" stroke="#000000"/>
  <path fill="#000000" d="m403.091553,571.936462c-0.6203,-21.252808 -2.159485,-42.46051 -2.163269,-63.731293c-0.005188,-23.269897 -0.148804,-46.54007 -0.433289,-69.807617c-0.564117,-46.317139 -1.791779,-92.624207 -3.847565,-138.897858c-1.02533,-23.072662 -2.445618,-46.118408 -3.759186,-69.177078c-1.299683,-22.804871 -1.655853,-45.651993 -3.469482,-68.428604c-2.289093,-28.777496 -0.161469,-59.578712 -12.299011,-86.433701c-9.901001,-21.905083 -35.672821,-27.949451 -57.467712,-29.419502c-25.737366,-1.735481 -51.964264,3.657871 -77.431229,6.640339c-31.335663,3.669502 -62.844299,5.644463 -94.279968,8.224541c-30.292381,2.48645 -61.37941,7.091503 -91.664173,2.090332c-5.19973,-0.858711 -10.387959,0.249939 -14.018967,3.44524c-8.688393,-5.712513 -23.648191,-1.781601 -23.634111,11.81823c0.05127,46.487686 2.541599,92.913879 4.6474,139.339966c2.11343,46.583801 3.388809,93.194458 4.28718,139.817993c0.90107,46.708038 1.711069,93.425049 4.116789,140.085693c1.186781,23.007416 3.070921,45.935272 4.999769,68.886383c1.35857,16.168274 1.96735,32.65564 7.012062,48.207703c12.82703,39.544678 53.544601,45.69165 89.92112,46.614441c20.491364,0.520264 40.919968,1.716125 61.381866,2.936401c22.45639,1.340454 44.899734,1.602051 67.314941,3.688477c16.782349,1.565063 32.722443,4.851196 50.473755,7.779907c17.924072,2.956665 36.18277,5.179199 54.159698,1.429016c19.962036,-4.165405 29.029877,-22.173035 32.522491,-40.543213c4.038605,-21.252869 4.260376,-43.017029 3.630951,-64.565796l-0.000031,0l-0.000031,0z" id="svg_5" fill-opacity="0" stroke-width="5" stroke="#000000"/>
  <path fill="#FFFFFF" d="m371.243347,628.192932c-0.999786,6.238098 -2.462311,15.10083 -6.012299,19.214966c-3.697693,4.284668 -11.564667,3.893799 -16.99527,4.004028c-16.980865,0.34729 -33.87207,-3.490112 -50.47348,-6.543091c-41.722351,-7.673462 -84.548294,-7.393921 -126.782181,-9.870056c-18.808578,-1.100952 -37.726089,-0.889465 -56.500046,-2.422424c-13.604973,-1.109802 -30.953705,-4.798645 -38.267014,-15.855591c-7.73101,-11.691467 -8.292358,-27.559814 -9.31897,-41.416138c-1.595718,-21.541016 -3.631001,-43.029602 -4.903797,-64.597656c-2.751751,-46.644043 -3.630871,-93.375183 -4.521713,-140.084534c-0.924068,-48.499908 -2.116009,-96.987 -4.252567,-145.451004c-1.931553,-43.831879 -4.325649,-87.654999 -4.794792,-131.530571c44.738251,7.376038 90.767014,-0.374344 135.564178,-3.877052c23.149628,-1.811058 46.285126,-3.811707 69.323212,-6.737846c17.701187,-2.248024 35.451004,-4.856285 53.306076,-5.450974c7.936279,-0.264008 15.94809,-0.022987 23.750763,1.512428c3.285187,0.64595 6.868439,1.470062 9.947296,2.783783c1.821106,0.777977 3.550018,1.749458 5.271393,2.723602c0.478058,0.317757 0.786926,0.51136 0.953522,0.604889c0.376892,0.34346 0.767639,0.672836 1.121521,1.042c0.25769,0.253815 0.443329,0.425575 0.59845,0.565247c0.11145,0.173073 0.246216,0.375473 0.432037,0.643372c0.807312,1.168938 1.471222,2.431419 2.137726,3.682274c0.533173,0.999733 1.432953,3.349014 2.378723,6.453293c2.134216,6.999146 2.991516,13.373024 3.61319,19.576233c1.285492,12.809036 1.10611,25.698975 2.151978,38.519516c1.858246,22.795822 2.745361,45.585342 3.796234,68.42868c2.125122,46.154373 5.061432,92.224228 6.42749,138.418259c1.37149,46.413361 1.932831,92.84845 2.023926,139.281036c0.042236,21.493622 1.016357,42.888763 1.895569,64.360565c0.844666,20.587708 1.399628,41.607056 -1.871216,62.022766l0,0l0.000031,0l0.000031,0z" id="svg_6"/>
  <path fill="#d4aaff" d="m384.734253,295.575226c1.07016,-22.758789 0.458801,-45.950623 -8.788635,-67.067551c-4.671509,-10.667358 -13.956055,-20.587479 -24.486176,-25.623138c-15.501953,-7.413284 -29.842651,-6.954483 -46.364807,-4.68074c-4.082001,0.561325 -8.118073,1.47908 -12.157867,2.280029c-1.703339,0.337112 -3.414429,0.623001 -5.129242,0.893311c-9.565155,1.22023 -19.156036,2.260941 -28.74292,3.310699c-21.397614,2.347961 -42.791321,4.803711 -64.058197,8.162949c-18.963608,2.995209 -37.75679,7.122223 -56.000198,13.1474c-20.713158,6.841599 -41.849274,15.703033 -58.9161,29.502853c-2.596634,2.099335 -5.058678,4.687073 -7.337547,7.582489c-1.516174,0.957336 -2.96064,2.015991 -4.31028,3.187378c-13.511364,4.752533 -23.464924,17.747406 -23.420113,32.716095c0.009041,3.292603 0.061607,6.58017 0.135887,9.866302c-0.097397,1.099701 -0.151257,2.209625 -0.135887,3.332458c0.05257,3.873169 0.316589,7.733643 0.678009,11.586334c0.663921,13.449921 1.766201,26.861267 3.078678,40.257324c-0.023109,2.251923 0.203693,4.457825 0.661331,6.591644c2.246719,21.86676 4.95108,43.700043 7.129982,65.59491c4.48196,45.050873 2.724777,90.458099 6.756958,135.537201c0.900959,10.080444 1.349552,20.294006 3.778393,30.159119c3.629715,14.749573 13.179398,26.114136 25.505356,34.453979c10.717354,7.247803 24.995163,8.056702 37.499275,8.628235c10.135452,0.462646 20.132523,1.197083 30.247421,2.022461c22.856171,1.868713 45.834091,1.779053 68.746613,2.109741c22.299835,0.322876 44.571533,1.194214 66.879211,1.270081c22.747009,0.078186 48.212524,3.751404 66.277954,-13.311584c11.268494,-10.64563 14.936493,-24.154358 16.83609,-38.938477c1.12381,-8.756531 -0.790924,-17.823059 -0.798615,-26.617859c-0.033386,-46.113464 -1.750793,-92.206299 -1.66745,-138.323639c0.041046,-22.994476 0.420288,-46.056885 2.040527,-69.001495c1.618652,-22.915039 4.983032,-45.667419 6.062317,-68.628479l0,-0.000031l0,-0.000031l0.000031,0l0,0.000031z" id="svg_7"/>
  <path fill="#FF0000" d="m662.282349,377.092346c-2.462097,-39.925537 -16.063293,-80.90448 -47.190125,-107.703064c-28.508179,-24.54538 -65.003784,-32.614807 -101.734192,-34.278336c-33.573334,-1.52002 -66.215302,-3.878342 -97.791656,10.06752c-3.36438,1.486786 -6.522491,3.286209 -9.503693,5.324066c-27.780182,-16.993637 -63.469971,-23.346985 -94.687592,-23.867371c-21.858978,-0.365295 -43.980774,1.166351 -65.077118,7.244034c-20.995132,6.048218 -40.44072,16.793869 -58.211243,29.315781c-4.499863,3.170898 -8.054047,7.290131 -10.29686,11.902802c-16.959183,15.467316 -20.12236,37.273743 -18.527939,59.089172c1.490601,20.376038 4.052612,40.684235 7.210754,60.865448c6.016129,38.454102 15.579926,76.407104 28.98494,112.958008c13.603821,37.08786 31.020508,73.023285 54.15477,105.135773c8.14502,11.308167 14.673859,23.523865 22.102478,35.298645c8.770416,13.903625 19.836395,29.514465 35.169128,36.741821c21.739746,10.246887 42.172333,1.320068 60.846222,-11.025024c9.344818,-6.175171 18.379333,-12.152954 27.193268,-19.195618c0.326904,-0.260193 0.656219,-0.517883 0.984283,-0.779358c2.148285,2.435364 4.154083,5.012634 6.212463,7.511963c7.998901,9.707336 17.347504,16.184998 29.105621,20.683716c21.658966,8.284729 39.889587,-6.281494 52.948456,-21.633484c24.291595,-28.550659 56.728088,-48.410034 84.027771,-73.745056c6.693115,-6.209595 12.953979,-12.856262 18.780396,-19.882629c2.398254,-2.8927 4.691223,-5.922485 6.962158,-8.903687c-3.602661,4.730652 0.736816,-0.893372 1.238159,-1.526428c3.169556,-3.993835 6.371033,-7.961792 9.555969,-11.944153c12.728516,-15.913147 25.416931,-32.014832 35.583191,-49.726288c5.17804,-9.017944 9.362854,-18.662628 12.933594,-28.413544c1.502075,-4.098724 2.640259,-8.316772 3.618103,-12.566742c0.489624,-2.118683 0.828064,-4.264221 1.165039,-6.40976c1.045959,-7.833618 1.242126,-9.27301 0.587219,-4.32309c0.409912,-3.045258 0.82135,-6.091888 1.229004,-9.137207c2.442688,-18.937958 3.603943,-37.995239 2.42749,-57.078033l0,0.000031l-0.000061,0.000031l0,0.000031l0,0l0,0.000031z" id="svg_8"/>
  <path fill="#00A637" d="m422.511536,198.544662c-2.075134,-12.260498 -9.029449,-23.990356 -16.009369,-34.092484c-13.99707,-20.259491 -32.38916,-36.764915 -50.849274,-52.826797c-6.970917,-6.066208 -17.123047,-6.877579 -23.999237,0c-6.199615,6.198166 -6.982483,17.924194 0,24.000565c11.154449,9.706116 22.662537,19.527649 32.824951,30.448807c-30.273285,-8.641098 -66.48938,-3.944977 -76.786499,29.406723c-2.07251,6.710831 1.130432,16.090149 7.79895,19.164917c5.101257,2.350632 6.419952,4.207764 9.019257,8.1091c3.891052,5.839371 7.352844,11.791473 11.692596,17.334671c7.621033,9.736938 18.270416,15.860748 30.401398,17.811569c11.818329,1.900696 23.884125,2.7005 35.834564,1.863495c7.833405,-0.548584 16.398926,-1.781586 23.279022,-5.684265c8.789612,0.426834 17.976715,-5.022888 18.074036,-16.375946c0.111481,-13.256393 0.948303,-25.997513 -1.280396,-39.160355l0,-0.000015l0,0.000015z" id="svg_9"/>
  <path fill="#FCEE21" d="m312.055603,278.980072c-5.13205,-8.761536 -17.298889,-12.386047 -26.120544,-6.849213c-19.416199,12.182281 -36.441925,26.567719 -50.1008,45.032867c-13.935654,18.838135 -20.370972,41.754456 -22.522873,64.789948c-0.9702,10.379028 9.419098,19.091858 19.091843,19.091858c11.139069,0 18.12413,-8.733337 19.091873,-19.091858c1.509811,-16.156647 6.79155,-30.775635 17.310257,-45.517365c0.202576,-0.285736 0.369141,-0.517914 0.513977,-0.724121c0.212677,-0.242188 0.548523,-0.639526 1.089355,-1.298431c1.58551,-1.932648 3.281189,-3.775757 4.984558,-5.604584c3.02594,-3.246643 6.291687,-6.26239 9.621429,-9.19101c6.184113,-5.439453 11.735199,-9.208893 20.191498,-14.516266c8.797577,-5.522766 12.233521,-16.930908 6.849487,-26.121826l-0.000031,0l-0.000031,0z" id="svg_10"/>
  <path stroke-width="5" fill-opacity="0" fill="#000000" d="m426.937012,249.372482c25.648621,-24.834595 22.263428,-66.268692 23.454346,-98.910202c0.400635,-10.967621 -15.964722,-20.67308 -12.229553,7.541321c3.735229,28.214371 5.700745,64.124176 -16.168549,85.299713c-7.862,7.613739 -2.919434,13.683228 4.943756,6.069168z" id="svg_11" stroke="#7f0000"/>
  <path fill="#F7931E" d="m972.938599,328.719391c-46.151733,-44.926636 -108.056702,-71.450867 -172.498108,-71.450867c-64.440063,0 -126.955139,25.907715 -172.498291,71.450867s-71.450684,108.058044 -71.450684,172.498016c0,64.442627 25.907837,126.955078 71.450684,172.499512c45.543396,45.541565 108.058228,71.450806 172.498291,71.450806c64.441406,0 126.955017,-25.909241 172.498108,-71.450806c45.543152,-45.544434 71.451904,-108.056702 71.451904,-172.499512c0,-64.439972 -31.829163,-133.926086 -71.451904,-172.498016z" id="svg_12"/>
  <path fill="#009245" d="m815.997375,245.482269c-19.150696,0 -19.150696,29.697662 0,29.697662s19.151001,-29.697662 0,-29.697662z" id="svg_13"/>
  <path fill="#FFFF00" d="m716.060059,289.559021c-10.944275,0 -10.944275,16.970703 0,16.970703c10.942871,-0.001282 10.942871,-16.970703 0,-16.970703z" id="svg_14"/>
  <path fill="#FFFF00" d="m698.146118,311.243683c-10.942871,0 -10.942871,16.970642 0,16.970642c10.944153,-0.001221 10.944153,-16.970642 0,-16.970642z" id="svg_15"/>
  <path fill="#FFFF00" d="m732.087585,312.18576c-10.944519,0 -10.944519,16.970673 0,16.970673c10.942749,0 10.942749,-16.970673 0,-16.970673z" id="svg_16"/>
  <path fill="#FFFF00" d="m684.004028,346.125702c-10.944275,0 -10.944275,16.970673 0,16.970673c10.942993,0.001282 10.942993,-16.970673 0,-16.970673z" id="svg_17"/>
  <path fill="#FFFF00" d="m666.091492,317.841736c-10.942993,0 -10.942993,16.970703 0,16.970703c10.944092,0 10.944092,-16.970703 0,-16.970703z" id="svg_18"/>
  <path fill="#FFFF00" d="m671.27832,429.564087c-10.944336,0 -10.944336,16.970703 0,16.970703c10.943115,0 10.943115,-16.970703 0,-16.970703z" id="svg_19"/>
  <path fill="#FFFF00" d="m668.450928,486.133392c-10.942993,0 -10.942993,16.969391 0,16.969391s10.942993,-16.969391 0,-16.969391z" id="svg_20"/>
  <path fill="#FFFF00" d="m694.848511,393.738678c-10.944275,0 -10.944275,16.970764 0,16.970764c10.942627,0 10.942627,-16.970764 0,-16.970764z" id="svg_21"/>
  <path fill="#FFFF00" d="m684.476929,505.93277c-10.942749,0 -10.942749,16.970673 0,16.970673s10.942932,-16.970673 0,-16.970673z" id="svg_22"/>
  <path fill="#FFFF00" d="m653.364441,530.446167c-10.944275,0 -10.944275,16.97052 0,16.97052c10.942688,0 10.942688,-16.97052 0,-16.97052z" id="svg_23"/>
  <path fill="#FFFF00" d="m620.365051,527.618713c-10.942932,0 -10.942932,16.96936 0,16.96936s10.942993,-16.96936 0,-16.96936z" id="svg_24"/>
  <path fill="#FFFF00" d="m640.16449,499.33078c-10.943176,0 -10.943176,16.969513 0,16.969513c10.944031,0.00116 10.944031,-16.969513 0,-16.969513z" id="svg_25"/>
  <path fill="#FFFF00" d="m694.848511,464.4487c-10.944275,0 -10.944275,16.970703 0,16.970703c10.942627,0 10.942627,-16.970703 0,-16.970703z" id="svg_26"/>
  <path fill="#FFFF00" d="m750.943481,286.730255c-10.943237,0 -10.943237,16.970886 0,16.970886c10.944214,0 10.944214,-16.970886 0,-16.970886z" id="svg_27"/>
  <path fill="#FFFF00" d="m712.760986,416.36673c-10.944153,0 -10.944153,16.969421 0,16.969421c10.943054,0 10.943054,-16.969421 0,-16.969421z" id="svg_28"/>
  <path fill="#FFFF00" d="m601.979431,587.484375c-10.942749,0 -10.942749,16.969421 0,16.969421c10.944275,0 10.944275,-16.969421 0,-16.969421z" id="svg_29"/>
  <path fill="#FFFF00" d="m627.436096,566.743042c-10.943054,0 -10.943054,16.970764 0,16.970764c10.944092,0 10.944092,-16.970764 0,-16.970764z" id="svg_30"/>
  <path fill="#FFFF00" d="m726.901733,371.112061c-10.942871,0 -10.942871,16.970551 0,16.970551c10.944214,0 10.944214,-16.970551 0,-16.970551z" id="svg_31"/>
  <path fill="#FFFF00" d="m665.147949,565.799866c-10.942932,0 -10.942932,16.970581 0,16.970581s10.944519,-16.970581 0,-16.970581z" id="svg_32"/>
  <path fill="#FFFF00" d="m650.062927,595.969177c-10.943176,0 -10.943176,16.97052 0,16.97052c10.944092,0 10.944092,-16.97052 0,-16.97052z" id="svg_33"/>
  <path fill="#FFFF00" d="m641.579407,347.069031c-10.943054,0 -10.943054,16.970703 0,16.970703c10.944153,0 10.944153,-16.970703 0,-16.970703z" id="svg_34"/>
  <path fill="#FFFF00" d="m624.610046,396.094452c-10.944153,0 -10.944153,16.970673 0,16.970673c10.942932,0 10.942932,-16.970673 0,-16.970673z" id="svg_35"/>
  <path fill="#FFFF00" d="m658.548706,381.952423c-10.944336,0 -10.944336,16.970642 0,16.970642c10.943054,0 10.943054,-16.970642 0,-16.970642z" id="svg_36"/>
  <path fill="#FFFF00" d="m618.008118,439.463806c-10.943054,0 -10.943054,16.970642 0,16.970642c10.944214,0 10.944214,-16.970642 0,-16.970642z" id="svg_37"/>
  <path fill="#FFFF00" d="m617.067322,487.545837c-10.943054,0 -10.943054,16.970581 0,16.970581s10.942993,-16.970581 0,-16.970581z" id="svg_38"/>
  <path fill="#FFFF00" d="m583.124878,464.919128c-10.944458,0 -10.944458,16.970703 0,16.970703c10.942688,0 10.942688,-16.970703 0,-16.970703z" id="svg_39"/>
  <path fill="#FFFF00" d="m644.406616,421.549835c-10.943054,0 -10.943054,16.970642 0,16.970642s10.943237,-16.970642 0,-16.970642z" id="svg_40"/>
  <path fill="#FFFF00" d="m576.525269,499.803833c-10.944092,0 -10.944092,16.970642 0,16.970642c10.943054,0 10.943054,-16.970642 0,-16.970642z" id="svg_41"/>
  <path fill="#FFFF00" d="m601.038818,546.942566c0,-2.24054 -0.901245,-4.414185 -2.485291,-5.999573c-1.494507,-1.495605 -3.833679,-2.63385 -5.999512,-2.485107c-1.743103,0.11908 -3.224731,0.334351 -4.742371,1.256104c-1.516052,0.920105 -2.361877,1.810913 -3.324524,3.278442c-0.9151,1.395691 -1.322632,3.251526 -1.362244,4.893372c-0.107727,4.624329 3.940979,8.48468 8.484375,8.48468c2.489014,0 4.683289,-1.086792 6.221375,-2.788818c0.246216,-0.196106 0.48822,-0.406311 0.721497,-0.639587c1.585449,-1.584106 2.486694,-3.757996 2.486694,-5.999512z" id="svg_42"/>
  <path fill="#FFFF00" d="m648.176086,463.978333c-10.943054,0 -10.943054,16.96936 0,16.96936s10.942993,-16.96936 0,-16.96936z" id="svg_43"/>
  <path fill="#FFFF00" d="m587.838684,420.6091c-10.944153,0 -10.944153,16.969269 0,16.969269c10.942871,0 10.942871,-16.969269 0,-16.969269z" id="svg_44"/>
  <path fill="#FFFF00" d="m609.523438,371.582428c-10.942871,0 -10.942871,16.970642 0,16.970642s10.942749,-16.970642 0,-16.970642z" id="svg_45"/>
  <path fill="#d4aaff" d="m515.24469,631.087036c-28.909576,0 -53.032104,24.123779 -53.032104,53.033203c0,28.910522 24.122528,51.751465 53.032104,51.751465c28.909546,0 53.032959,-22.840942 53.032959,-51.751465c-0.00116,-28.908386 -24.124817,-53.033203 -53.032959,-53.033203z" id="svg_46"/>
  <path fill="#d4aaff" d="m643.438904,635.475586c-28.911865,0 -53.031738,24.122375 -53.031738,53.03186c0,28.910645 24.119873,51.751465 53.031738,51.751465c28.908386,0 53.033325,-22.84082 53.033325,-51.751465c0,-28.909485 -24.124939,-53.03186 -53.033325,-53.03186z" id="svg_47"/>
  <path fill="#000000" d="m649.018738,631.874573c0.114868,-2.911987 0.045349,-9.111755 -0.50708,-10.312683c-1.692932,-3.670715 -1.664734,-9.762634 -3.161682,-13.807495c-3.041626,-8.202637 -4.083435,-13.503235 -6.838745,-21.805969c-3.606812,-10.86731 -6.149658,-22.295471 -10.072876,-33.072998c-4.841064,-13.310303 -10.191956,-26.248718 -18.955872,-37.474854c-4.333435,-5.54718 -13.462891,-3.15564 -16.658081,2.147888c-11.456909,19.004761 -16.804077,40.934326 -29.592651,59.226318c-13.169189,18.839355 -33.777405,32.875 -50.774902,47.989746c-10.241791,9.108887 0.990234,25.020935 15.999634,3.01239c15.00946,-22.008606 27.117798,-25.698425 41.58136,-45.235046c10.136963,-13.695923 26.727112,-41.857483 33.676331,-57.162109c3.229675,7.262207 11.677002,31.222107 14.236694,38.408508c3.641052,10.202209 8.531372,18.415833 11.840576,28.279602c3.146606,9.389587 13.137573,18.256531 7.80426,31.457764c-5.333313,13.201111 -5.618469,19.029785 2.712463,20.854919c11.937439,2.613281 8.595703,-9.593994 8.710571,-12.505981z" id="svg_48" fill-opacity="0" stroke-width="5" stroke="#3f7f00"/>
  <path fill="#FFFFFF" d="m506.541931,650.61084c-2.122467,-3.623169 -7.920685,-5.854675 -11.609283,-3.043945c-5.331696,4.065491 -9.874176,8.605103 -13.41391,14.3573c-2.424988,3.941284 -0.87558,9.312622 3.043823,11.609497c4.059082,2.377441 9.189697,0.888062 11.609497,-3.042664c0.543304,-0.884521 1.112366,-1.744446 1.712311,-2.590454c0.58429,-0.790649 0.607513,-0.822693 0.069153,-0.091003c0.467743,-0.582947 0.970154,-1.138062 1.471222,-1.693054c0.813873,-0.90094 1.690704,-1.741699 2.580109,-2.565796c0.366516,-0.341003 3.122223,-2.569763 1.493073,-1.329163c3.670898,-2.799255 5.597137,-7.253052 3.044006,-11.610718z" id="svg_49"/>
  <path fill="#FFFFFF" d="m635.705444,651.554199c-2.303284,-3.93219 -7.656616,-5.454895 -11.609436,-3.043945c-6.062317,3.696167 -11.508057,8.289734 -15.299377,14.357239c-2.453186,3.925842 -0.856018,9.324158 3.044128,11.609314c4.079407,2.38916 9.161194,0.871582 11.609131,-3.043945c0.270691,-0.451233 0.555115,-0.890747 0.856384,-1.321472c-0.544922,0.653687 -0.499756,0.597351 0.133362,-0.166504c0.853455,-1.038269 1.822266,-1.973694 2.80426,-2.886414c0.401001,-0.365234 0.808655,-0.720215 1.222595,-1.065063c0.119263,-0.099854 0.212646,-0.183167 0.298767,-0.253784c0.115173,-0.08075 0.294739,-0.20636 0.55481,-0.395996c1.07782,-0.779419 2.208374,-1.487976 3.342529,-2.180237c3.941345,-2.403076 5.412781,-7.563049 3.042847,-11.609192z" id="svg_50"/>
 </g>
</svg>