<svg width="12in" height="9in" xmlns="http://www.w3.org/2000/svg">
 <!-- Created with SVG-edit - http://svg-edit.googlecode.com/ -->
 <g>
  <path fill="#000000" d="m440.456177,631.156372c-0.654724,-22.433777 -2.27951,-44.819946 -2.283478,-67.272705c-0.005463,-24.562988 -0.157074,-49.126221 -0.457336,-73.686676c-0.59549,-48.8909 -1.891327,-97.771057 -4.061371,-146.616028c-1.082336,-24.354736 -2.581543,-48.681061 -3.968048,-73.021088c-1.371887,-24.072067 -1.747925,-48.188736 -3.662323,-72.230972c-2.41629,-30.376617 -0.170441,-62.889343 -12.982422,-91.23661c-10.451141,-23.122314 -37.65506,-29.502533 -60.661041,-31.054276c-27.167511,-1.831909 -54.851776,3.86113 -81.733887,7.009323c-33.07692,3.87339 -66.336411,5.958099 -99.51886,8.681557c-31.975662,2.624626 -64.790123,7.485565 -96.757729,2.206474c-5.48867,-0.906418 -10.965191,0.263817 -14.797962,3.636688c-9.171181,-6.029938 -24.962269,-1.880577 -24.947399,12.474937c0.054119,49.070877 2.682831,98.076859 4.905647,147.082733c2.230873,49.172333 3.577122,98.373016 4.525402,147.587341c0.95113,49.303467 1.806141,98.616394 4.345551,147.869843c1.252728,24.28595 3.24157,48.487854 5.277599,72.714172c1.434071,17.066711 2.07666,34.470337 7.401711,50.886475c13.53978,41.742126 56.519913,48.230713 94.917786,49.204773c21.63002,0.549133 43.193787,1.811523 64.792709,3.099487c23.704208,1.414978 47.394699,1.691101 71.055405,3.893433c17.714905,1.652039 34.54071,5.120911 53.278442,8.21228c18.920074,3.121033 38.19339,5.46698 57.16922,1.508362c21.071259,-4.39679 30.643005,-23.40509 34.329651,-42.796082c4.263031,-22.433777 4.497131,-45.407288 3.832733,-68.153442z" id="svg_5"/>
  <path fill="#FFFFFF" d="m406.838257,688.429749c-1.055328,6.584656 -2.599121,15.939819 -6.346375,20.282654c-3.903168,4.522766 -12.207336,4.110168 -17.939636,4.226501c-17.924469,0.366638 -35.754303,-3.68396 -53.278198,-6.906616c-44.040741,-8.099792 -89.246414,-7.80481 -133.827072,-10.418579c-19.853729,-1.162109 -39.822418,-0.938904 -59.639603,-2.557007c-14.36097,-1.171448 -32.673744,-5.065308 -40.393402,-16.736633c-8.160599,-12.341187 -8.753151,-29.091309 -9.836807,-43.717529c-1.684395,-22.737976 -3.832764,-45.420654 -5.176285,-68.187134c-2.904671,-49.235962 -3.832642,-98.563843 -4.772987,-147.868683c-0.97541,-51.194916 -2.233589,-102.376251 -4.488861,-153.533325c-2.038879,-46.267532 -4.566017,-92.525772 -5.061234,-138.839394c47.224243,7.785927 95.810707,-0.395111 143.09713,-4.092484c24.435989,-1.911682 48.857086,-4.023514 73.175293,-7.112244c18.684845,-2.372948 37.420959,-5.126129 56.268188,-5.753853c8.377258,-0.278694 16.834259,-0.024284 25.070557,1.596436c3.467621,0.681854 7.250092,1.55175 10.499969,2.938484c1.922302,0.821205 3.747284,1.846657 5.564331,2.874947c0.504639,0.335411 0.830627,0.539787 1.0065,0.638496c0.397858,0.362556 0.810303,0.710236 1.183868,1.099892c0.272003,0.267921 0.467957,0.449242 0.631714,0.596642c0.117645,0.182693 0.259857,0.396347 0.456024,0.679138c0.852173,1.233902 1.552979,2.566536 2.2565,3.886894c0.562836,1.055298 1.512604,3.535118 2.510956,6.811874c2.252777,7.388077 3.157684,14.116119 3.813934,20.664047c1.356964,13.520828 1.167511,27.126999 2.271576,40.659943c1.961487,24.062546 2.897888,48.118378 4.007172,72.231094c2.243164,48.718994 5.342651,97.348816 6.784607,146.109802c1.447723,48.992371 2.040283,98.007721 2.136383,147.020447c0.044586,22.688049 1.072876,45.272034 2.000885,67.93689c0.891571,21.73175 1.477386,43.919128 -1.975098,65.469299l-0.000031,0z" id="svg_6"/>
  <path fill="#d4aaff" d="m421.078827,337.329315c1.129608,-24.023407 0.484283,-48.503937 -9.276978,-70.794281c-4.931122,-11.260132 -14.731567,-21.731491 -25.846863,-27.046982c-16.363312,-7.825195 -31.500916,-7.340912 -48.941071,-4.940826c-4.308899,0.592529 -8.569244,1.561249 -12.833527,2.406738c-1.797974,0.355865 -3.604126,0.657593 -5.414246,0.942963c-10.09668,1.28801 -20.22049,2.386536 -30.340057,3.494629c-22.586639,2.478439 -45.169144,5.070618 -67.617767,8.616516c-20.017349,3.161697 -39.854858,7.518021 -59.111969,13.878036c-21.86412,7.221741 -44.174751,16.575623 -62.189903,31.142212c-2.740929,2.216003 -5.339767,4.94754 -7.745277,8.003815c-1.60041,1.01059 -3.125153,2.128052 -4.549797,3.364532c-14.262154,5.016632 -24.768814,18.733551 -24.721504,34.534058c0.009541,3.475525 0.065033,6.94574 0.14344,10.41449c-0.10281,1.160828 -0.159657,2.332428 -0.14344,3.51767c0.0555,4.088409 0.334183,8.16333 0.715683,12.230194c0.700809,14.197235 1.864357,28.353851 3.249756,42.494324c-0.024406,2.377045 0.215012,4.705383 0.698074,6.957916c2.371567,23.081818 5.226196,46.128296 7.526176,69.239838c4.73101,47.554199 2.87619,95.484558 7.132431,143.068665c0.951012,10.640503 1.42453,21.421692 3.988335,31.8349c3.831406,15.569153 13.911736,27.565247 26.922623,36.36853c11.312866,7.650574 26.384064,8.504333 39.582993,9.107666c10.698639,0.488403 21.251236,1.263611 31.928223,2.134888c24.126205,1.972534 48.380981,1.877869 72.566681,2.226868c23.53894,0.340881 47.048218,1.260803 70.59549,1.340698c24.010986,0.08252 50.891632,3.959961 69.960846,-14.051208c11.894653,-11.237183 15.76651,-25.496582 17.771606,-41.102295c1.18631,-9.242981 -0.834839,-18.813354 -0.842987,-28.096924c-0.035217,-48.675781 -1.848053,-97.329956 -1.760071,-146.009827c0.043335,-24.272217 0.443665,-48.61618 2.1539,-72.835754c1.708588,-24.188354 5.259918,-48.204987 6.3992,-72.442017l0,-0.000031z" id="svg_7"/>
  <path fill="#FF0000" d="m714.0495,423.376129c-2.598877,-42.144043 -16.955872,-85.400116 -49.812317,-113.687836c-30.092346,-25.909302 -68.615967,-34.427124 -107.387268,-36.183105c-35.438965,-1.604492 -69.894714,-4.093872 -103.225769,10.626953c-3.551361,1.569427 -6.884949,3.468842 -10.031769,5.619934c-29.323914,-17.937988 -66.996857,-24.644348 -99.949158,-25.193634c-23.073639,-0.385559 -46.424713,1.231171 -68.693268,7.646576c-22.161743,6.384308 -42.687927,17.727051 -61.445877,30.944794c-4.749939,3.347076 -8.501587,7.695221 -10.869049,12.56424c-17.90155,16.326752 -21.240494,39.34491 -19.557465,62.372589c1.57341,21.50827 4.277802,42.944916 7.611404,64.247559c6.350479,40.590881 16.445679,80.652863 30.595596,119.234772c14.359756,39.148743 32.744232,77.080994 57.163986,110.977905c8.597595,11.936523 15.489227,24.830994 23.330658,37.260071c9.257751,14.676208 20.938629,31.15448 37.123352,38.783447c22.947754,10.816284 44.515747,1.393433 64.227264,-11.637573c9.864105,-6.518372 19.400665,-12.828247 28.704376,-20.262268c0.345062,-0.274719 0.692657,-0.546692 1.038971,-0.822693c2.267639,2.570618 4.384918,5.291199 6.557678,7.929382c8.44339,10.246765 18.311432,17.084412 30.722839,21.833008c22.862549,8.745117 42.10614,-6.630554 55.890686,-22.835571c25.641479,-30.137085 59.880493,-51.100098 88.697083,-77.842896c7.065063,-6.554565 13.673828,-13.570679 19.823975,-20.987427c2.531555,-3.053467 4.951782,-6.251648 7.348999,-9.398499c-3.802856,4.99353 0.777771,-0.942932 1.306946,-1.611267c3.345703,-4.215637 6.725159,-8.404114 10.087036,-12.607727c13.43573,-16.797424 26.829346,-33.793823 37.560425,-52.489563c5.465759,-9.518921 9.882935,-19.699585 13.652222,-29.99231c1.58551,-4.326538 2.786926,-8.7789 3.819153,-13.265045c0.516785,-2.23645 0.874023,-4.501129 1.229736,-6.76593c1.104065,-8.26886 1.311157,-9.7883 0.619812,-4.563263c0.432739,-3.214447 0.867004,-6.430389 1.297302,-9.644867c2.578552,-19.990387 3.80426,-40.106567 2.562439,-60.249786l0,0.000031z" id="svg_8"/>
  <path fill="#00A637" d="m460.955261,234.907028c-2.190399,-12.941772 -9.531158,-25.323441 -16.898956,-35.986923c-14.774872,-21.385269 -34.188934,-38.807846 -53.674774,-55.762238c-7.358337,-6.403259 -18.074585,-7.25975 -25.332855,0c-6.544098,6.542603 -7.370483,18.920197 0,25.334229c11.774261,10.245438 23.921814,20.612747 34.648956,32.140762c-31.955475,-9.121262 -70.184021,-4.1642 -81.053375,31.040787c-2.187622,7.08374 1.193298,16.984238 8.23233,20.229889c5.384766,2.481201 6.776703,4.441559 9.520477,8.559692c4.107269,6.163818 7.761383,12.446686 12.342285,18.297882c8.044556,10.278015 19.285706,16.742096 32.090759,18.8013c12.475037,2.006317 25.211212,2.850555 37.825745,1.967041c8.268738,-0.579071 17.31012,-1.880585 24.572571,-6.000092c9.277985,0.4505 18.975616,-5.302002 19.078369,-17.28595c0.117706,-13.992981 1.001068,-27.442093 -1.351532,-41.33638z" id="svg_9"/>
  <path fill="#FCEE21" d="m344.361603,319.811981c-5.417206,-9.248352 -18.260132,-13.07428 -27.572021,-7.229767c-20.495087,12.859253 -38.466858,28.044037 -52.884705,47.535248c-14.710022,19.884918 -21.50293,44.074646 -23.774429,68.390137c-1.024094,10.95578 9.94249,20.15274 20.152725,20.15274c11.758026,0 19.131256,-9.218628 20.15274,-20.15274c1.593719,-17.054443 7.168945,-32.485748 18.272156,-48.046661c0.213806,-0.301605 0.389648,-0.546631 0.542511,-0.764343c0.224548,-0.255646 0.579041,-0.675049 1.149902,-1.370544c1.673645,-2.0401 3.463531,-3.985596 5.261536,-5.916107c3.194122,-3.427002 6.641327,-6.610352 10.156097,-9.701691c6.527679,-5.741699 12.387299,-9.720612 21.313477,-15.322876c9.286377,-5.829651 12.9133,-17.871704 7.230042,-27.573395l-0.000031,0z" id="svg_10"/>
  <path fill="#7f3f00" d="m520.182983,251.746094c-17.981506,-33.118912 -61.071106,-41.4216 -93.92334,-51.884918c-11.038269,-3.516159 -15.726166,13.781952 -4.762207,17.273849c27.894073,8.883072 67.886902,15.414902 83.219208,43.653793c5.513092,10.152161 20.979401,1.110809 15.466339,-9.042725z" id="svg_11" transform="rotate(74.423 468.305 232.314)"/>
  <path fill="#F7931E" d="m1041.96814,372.315186c-48.71637,-47.423035 -114.061157,-75.421143 -182.083374,-75.421143c-68.020874,0 -134.009705,27.347351 -182.083557,75.421143s-75.421082,114.062561 -75.421082,182.083313c0,68.02356 27.347534,134.009705 75.421082,182.084839c48.074097,48.072266 114.062683,75.421143 182.083557,75.421143c68.022217,0 134.009583,-27.348877 182.083374,-75.421143c48.073853,-48.075134 75.422363,-114.061157 75.422363,-182.084839c0,-68.020752 -33.5979,-141.367981 -75.422363,-182.083313z" id="svg_12"/>
  <path fill="#009245" d="m876.306091,284.45282c-20.214905,0 -20.214905,31.347931 0,31.347931s20.215149,-31.347931 0,-31.347931z" id="svg_13"/>
  <path fill="#FFFF00" d="m770.815613,330.978821c-11.55249,0 -11.55249,17.913696 0,17.913696c11.550842,-0.001343 11.550842,-17.913696 0,-17.913696z" id="svg_14"/>
  <path fill="#FFFF00" d="m751.906189,353.868408c-11.551025,0 -11.551025,17.913666 0,17.913666c11.552368,-0.001221 11.552368,-17.913666 0,-17.913666z" id="svg_15"/>
  <path fill="#FFFF00" d="m787.733643,354.862885c-11.552612,0 -11.552612,17.913696 0,17.913696c11.550781,0 11.550781,-17.913696 0,-17.913696z" id="svg_16"/>
  <path fill="#FFFF00" d="m736.97821,390.688782c-11.552307,0 -11.552307,17.913696 0,17.913696c11.551086,0.001343 11.551086,-17.913696 0,-17.913696z" id="svg_17"/>
  <path fill="#FFFF00" d="m718.070313,360.83313c-11.551086,0 -11.551086,17.913696 0,17.913696c11.552246,0 11.552246,-17.913696 0,-17.913696z" id="svg_18"/>
  <path fill="#FFFF00" d="m723.54541,478.76358c-11.55249,0 -11.55249,17.913727 0,17.913727c11.551147,0 11.551147,-17.913727 0,-17.913727z" id="svg_19"/>
  <path fill="#FFFF00" d="m720.560852,538.476318c-11.551025,0 -11.551025,17.912354 0,17.912354s11.551086,-17.912354 0,-17.912354z" id="svg_20"/>
  <path fill="#FFFF00" d="m748.425232,440.947479c-11.552307,0 -11.552307,17.913727 0,17.913727c11.550781,0 11.550781,-17.913727 0,-17.913727z" id="svg_21"/>
  <path fill="#FFFF00" d="m737.477417,559.375854c-11.550842,0 -11.550842,17.913757 0,17.913757s11.551025,-17.913757 0,-17.913757z" id="svg_22"/>
  <path fill="#FFFF00" d="m704.636047,585.251404c-11.552307,0 -11.552307,17.913574 0,17.913574c11.550781,0 11.550781,-17.913574 0,-17.913574z" id="svg_23"/>
  <path fill="#FFFF00" d="m669.80304,582.266846c-11.551086,0 -11.551086,17.912292 0,17.912292s11.551025,-17.912292 0,-17.912292z" id="svg_24"/>
  <path fill="#FFFF00" d="m690.702637,552.407043c-11.55127,0 -11.55127,17.912415 0,17.912415c11.552246,0.001343 11.552246,-17.912415 0,-17.912415z" id="svg_25"/>
  <path fill="#FFFF00" d="m748.425232,515.58667c-11.552307,0 -11.552307,17.913696 0,17.913696c11.550781,0 11.550781,-17.913696 0,-17.913696z" id="svg_26"/>
  <path fill="#FFFF00" d="m807.63739,327.992889c-11.551331,0 -11.551331,17.913849 0,17.913849c11.552307,0 11.552307,-17.913849 0,-17.913849z" id="svg_27"/>
  <path fill="#FFFF00" d="m767.333191,464.832916c-11.552368,0 -11.552368,17.912323 0,17.912323c11.551025,0 11.551025,-17.912323 0,-17.912323z" id="svg_28"/>
  <path fill="#FFFF00" d="m650.395691,645.459167c-11.550781,0 -11.550781,17.912292 0,17.912292c11.55249,0 11.55249,-17.912292 0,-17.912292z" id="svg_29"/>
  <path fill="#FFFF00" d="m677.266907,623.565247c-11.551086,0 -11.551086,17.913696 0,17.913696c11.552307,0 11.552307,-17.913696 0,-17.913696z" id="svg_30"/>
  <path fill="#FFFF00" d="m782.259705,417.063568c-11.551086,0 -11.551086,17.913574 0,17.913574c11.552307,0 11.552307,-17.913574 0,-17.913574z" id="svg_31"/>
  <path fill="#FFFF00" d="m717.074402,622.56958c-11.551025,0 -11.551025,17.913635 0,17.913635s11.552612,-17.913635 0,-17.913635z" id="svg_32"/>
  <path fill="#FFFF00" d="m701.151062,654.415405c-11.55127,0 -11.55127,17.913574 0,17.913574c11.552307,0 11.552307,-17.913574 0,-17.913574z" id="svg_33"/>
  <path fill="#FFFF00" d="m692.196167,391.684509c-11.551086,0 -11.551086,17.913696 0,17.913696c11.552307,0 11.552307,-17.913696 0,-17.913696z" id="svg_34"/>
  <path fill="#FFFF00" d="m674.283813,443.434143c-11.552307,0 -11.552307,17.913696 0,17.913696c11.551086,0 11.551086,-17.913696 0,-17.913696z" id="svg_35"/>
  <path fill="#FFFF00" d="m710.108459,428.506256c-11.552551,0 -11.552551,17.913666 0,17.913666c11.551086,0 11.551086,-17.913666 0,-17.913666z" id="svg_36"/>
  <path fill="#FFFF00" d="m667.315125,489.213409c-11.551086,0 -11.551086,17.913696 0,17.913696c11.552307,0 11.552307,-17.913696 0,-17.913696z" id="svg_37"/>
  <path fill="#FFFF00" d="m666.322021,539.967224c-11.551086,0 -11.551086,17.913635 0,17.913635s11.551086,-17.913635 0,-17.913635z" id="svg_38"/>
  <path fill="#FFFF00" d="m630.493408,516.083252c-11.552551,0 -11.552551,17.913696 0,17.913696c11.550781,0 11.550781,-17.913696 0,-17.913696z" id="svg_39"/>
  <path fill="#FFFF00" d="m695.180481,470.303986c-11.551086,0 -11.551086,17.913696 0,17.913696s11.55127,-17.913696 0,-17.913696z" id="svg_40"/>
  <path fill="#FFFF00" d="m623.527161,552.906372c-11.552246,0 -11.552246,17.913635 0,17.913635c11.551086,0 11.551086,-17.913635 0,-17.913635z" id="svg_41"/>
  <path fill="#FFFF00" d="m649.402832,602.664429c0,-2.364929 -0.951294,-4.659302 -2.623413,-6.332886c-1.577515,-1.578735 -4.04657,-2.780212 -6.332764,-2.62323c-1.840088,0.125671 -3.403931,0.352966 -5.005981,1.325928c-1.600281,0.971252 -2.493103,1.911499 -3.509216,3.460632c-0.965942,1.473206 -1.396179,3.43219 -1.438049,5.165283c-0.113708,4.881287 4.160034,8.956116 8.955872,8.956116c2.62738,0 4.943604,-1.147156 6.567139,-2.943787c0.259888,-0.20697 0.51532,-0.428894 0.761536,-0.675171c1.673584,-1.672119 2.624878,-3.966736 2.624878,-6.332886z" id="svg_42"/>
  <path fill="#FFFF00" d="m699.159363,515.090149c-11.551025,0 -11.551025,17.912292 0,17.912292s11.551086,-17.912292 0,-17.912292z" id="svg_43"/>
  <path fill="#FFFF00" d="m635.469177,469.311005c-11.552307,0 -11.552307,17.912201 0,17.912201c11.551025,0 11.551025,-17.912201 0,-17.912201z" id="svg_44"/>
  <path fill="#FFFF00" d="m658.358948,417.559998c-11.551025,0 -11.551025,17.913666 0,17.913666s11.550842,-17.913666 0,-17.913666z" id="svg_45"/>
  <path fill="#d4aaff" d="m558.84137,691.484619c-30.515991,0 -55.978912,25.464294 -55.978912,55.980164c0,30.517029 25.462921,54.627136 55.978912,54.627136c30.515991,0 55.979858,-24.110107 55.979858,-54.627136c-0.001221,-30.514648 -25.465393,-55.980164 -55.979858,-55.980164z" id="svg_46"/>
  <path fill="#d4aaff" d="m694.159058,696.117004c-30.518433,0 -55.978577,25.46283 -55.978577,55.978699c0,30.517273 25.460144,54.627136 55.978577,54.627136c30.514771,0 55.980164,-24.109863 55.980164,-54.627136c0,-30.515869 -25.465393,-55.978699 -55.980164,-55.978699z" id="svg_47"/>
  <path fill="#009245" d="m706.903442,685.461487c-0.669617,-1.228333 -1.270325,-2.5 -1.853455,-3.7677c-1.787048,-3.874634 -3.33905,-8.195923 -4.91925,-12.465637c-3.21051,-8.658447 -6.155701,-17.417175 -9.064209,-26.181213c-3.807251,-11.47113 -8.600403,-22.74353 -12.741577,-34.119934c-5.110046,-14.049866 -10.758362,-27.707275 -20.009338,-39.557251c-4.574219,-5.855408 -14.210876,-3.330994 -17.583618,2.267273c-12.093567,20.060852 -17.737915,43.208923 -31.237061,62.517395c-13.90094,19.886169 -35.654236,34.701721 -53.596313,50.656433c-10.810852,9.61499 5.08429,25.395142 15.834229,15.834167c19.007019,-16.904297 40.224487,-32.399109 55.491821,-53.021301c10.700195,-14.45697 16.612305,-31.26532 23.947632,-47.420288c3.409119,7.665649 5.998596,15.820801 8.7005,23.406555c3.843445,10.769043 7.950928,20.493591 11.444031,30.905396c3.321472,9.911377 6.749451,19.79834 10.610718,29.514954c2.827515,7.122864 6.460144,19.559998 15.253967,21.486572c12.600708,2.758484 18.69989,-14.24469 9.721924,-20.05542z" id="svg_48"/>
  <path fill="#FFFFFF" d="m549.655029,712.093323c-2.240417,-3.824585 -8.36084,-6.179932 -12.254333,-3.213074c-5.627991,4.291382 -10.422913,9.083313 -14.159302,15.155029c-2.559753,4.160278 -0.924255,9.830139 3.212952,12.254578c4.284607,2.509705 9.700317,0.9375 12.254578,-3.211731c0.573486,-0.933655 1.174194,-1.841309 1.807434,-2.734314c0.61676,-0.834595 0.641296,-0.868408 0.073059,-0.096069c0.493713,-0.615417 1.024048,-1.201294 1.552979,-1.78717c0.85907,-0.950989 1.784607,-1.83844 2.72345,-2.708313c0.386902,-0.359924 3.295715,-2.712585 1.575989,-1.403076c3.874939,-2.954651 5.908203,-7.656067 3.213196,-12.255859z" id="svg_49"/>
  <path fill="#FFFFFF" d="m685.995911,713.08905c-2.431396,-4.150696 -8.082214,-5.757935 -12.254639,-3.213074c-6.399109,3.901611 -12.147522,8.750488 -16.149536,15.155029c-2.589417,4.144043 -0.903625,9.842346 3.213257,12.254456c4.306152,2.521973 9.670349,0.920044 12.254333,-3.213135c0.285583,-0.476196 0.585876,-0.940186 0.903931,-1.394775c-0.575195,0.689941 -0.527649,0.630432 0.140747,-0.175842c0.90094,-1.095947 1.923523,-2.083374 2.960022,-3.046753c0.42334,-0.385498 0.853638,-0.760254 1.290649,-1.124268c0.125793,-0.105408 0.224426,-0.19342 0.315308,-0.267944c0.121643,-0.085205 0.311157,-0.217773 0.585632,-0.41803c1.137756,-0.822571 2.331055,-1.570557 3.52832,-2.301208c4.160278,-2.536682 5.713501,-7.983398 3.211975,-12.254456z" id="svg_50"/>
 </g>
</svg>