<svg width="10.990952in" height="7.692331in" xmlns="http://www.w3.org/2000/svg">
 <g>
  <path fill="none" stroke="#000000" stroke-width="10" stroke-miterlimit="4" d="m932.195496,475.997498c-8.136292,31.681122 -26.958069,61.627991 -23.782654,95.14502c15.989807,25.925049 48.423279,2.4599 61.472473,-14.917358c7.255676,-10.88501 14.511292,-21.770081 21.766846,-32.65509m-273.500854,-47.572571c-44.246521,-9.174438 -89.646912,43.891174 -64.847046,84.362671c11.811035,26.196655 50.73114,29.465454 72.458557,12.922607c29.78717,-16.954224 39.058594,-63.396515 12.920654,-87.017639c-20.655457,-21.236938 -39.266113,2.434753 -32.423462,25.411774c6.255066,25.786041 32.027283,39.81778 57.47876,35.679352c18.967041,1.921448 37.299622,-10.069458 49.543213,-23.786194c5.950012,-10.184875 30.349121,-64.91629 19.185913,-33.779877c-6.33136,27.323517 -26.712463,56.404572 -16.61615,83.922455c19.118347,22.255981 54.143127,3.351929 69.735596,-15.420654c14.917175,-12.793396 23.298584,-30.945923 34.716736,-46.615082m-487.544922,-95.14505c-21.718781,-5.662842 -40.906555,-28.076691 -34.048828,-50.823456c6.188629,-25.981659 40.038635,-42.868408 62.192535,-24.301056c28.102844,17.188873 20.138947,56.258392 11.488953,83.073761c-8.915894,41.641907 -33.069946,83.019562 -26.116119,126.126129c6.895905,20.658691 22.097778,39.272095 45.940216,32.428467c46.06546,-19.247864 72.718475,-67.449646 88.985504,-112.385925c6.012146,-18.039276 12.024353,-36.078613 18.036499,-54.11792m23.782715,-83.251923c-38.964478,128.229675 -68.388306,261.055573 -130.804718,380.580109c-19.814819,20.613525 -43.077026,4.470215 -35.674072,-21.808044c14.41803,-70.058777 75.484344,-116.987549 135.068268,-149.632874c10.470215,-6.283081 73.425903,-51.936188 83.896057,-58.219208m170.149963,-281.95639c31.443848,-50.358383 70.36853,-99.313362 83.239441,-158.245396c7.182983,-26.208614 -16.94165,-39.471719 -35.674072,-20.151581c-28.35553,56.123219 -30.82782,121.143742 -40.632385,182.3904c-2.310974,18.490738 -4.621948,36.981461 -6.932983,55.472214c10.762451,-35.654495 26.133789,-73.832565 54.066345,-98.396027c16.524841,-13.703293 56.052063,-14.68071 52.95575,14.155029c3.546753,24.047379 -31.410339,26.318344 -49.22168,24.77536c-3.411682,0 -6.823425,0 -10.235046,0m0,0c24.712402,4.736176 29.939392,26.374542 35.674072,47.572479c15.989807,25.925049 48.42334,2.459854 61.472534,-14.917313c7.255615,-10.885086 14.51123,-21.770157 21.766785,-32.655167m-332.957458,23.78624c15.707703,-28.189926 29.736023,-68.920944 66.724915,-71.358765c26.051758,-7.111404 34.814026,23.099945 26.107361,42.575729c-7.346191,19.842834 -21.456482,55.681305 5.932495,64.462433c34.094177,-1.054199 51.189758,-34.437576 67.713928,-59.465637m-297.283508,-11.893097c-6.255066,-25.786072 -32.027283,-39.817841 -57.478821,-35.679398c-38.640472,7.920395 -65.60498,57.060318 -39.791809,90.864578c20.214294,25.384033 71.460266,21.668762 81.614136,-11.97435c11.341675,-25.402267 18.033569,-52.730865 27.547852,-78.890228c-5.067444,31.932922 -18.226135,66.58783 -9.321655,97.715164c16.337463,22.327209 46.537598,-1.575455 58.902893,-17.487503c7.255615,-10.885025 14.511169,-21.770096 21.766846,-32.655106c12.733093,-19.394653 23.275513,-41.271118 47.565308,-47.572556c25.474426,16.942017 1.848633,48.000412 0,71.358795c-3.963745,11.893143 -7.927551,23.78624 -11.891357,35.679398m-404.305542,-59.465637c31.443848,-50.358414 70.368469,-99.313393 83.23938,-158.245426c7.183044,-26.208614 -16.94162,-39.471718 -35.674011,-20.15155c-28.35556,56.123188 -30.82785,121.143742 -40.632385,182.3904c-2.310974,18.490738 -17.695435,91.126694 -6.932983,55.472214c10.762451,-35.654495 26.133759,-73.832565 54.066284,-98.396057c16.524933,-13.703262 56.052094,-14.68071 52.95578,14.155029c3.027802,27.25267 -28.824585,60.863953 -1.612427,82.628326c28.831451,6.41214 52.266876,-23.283844 65.304657,-46.367523c2.551941,-3.828491 5.103851,-7.656982 7.655792,-11.485413m-285.392151,-118.931343c-25.388916,4.010948 -52.64505,-8.20842 -58.942017,-34.649899c2.603218,-24.378813 24.886581,-31.161079 45.853149,-36.309645c42.027405,-7.477904 81.791519,19.964575 123.36142,9.868418c6.844055,-3.422554 13.688141,-6.845106 20.532196,-10.267659m-59.456711,11.893151c-21.221466,69.238476 -35.673828,142.578999 -73.91777,204.753345c-19.277405,25.130844 -55.500061,46.105087 -85.03067,24.981827c-17.268009,-9.254837 -24.492966,-36.870331 -16.851929,-53.908325c13.458031,-19.37056 40.814293,-6.930908 56.886978,2.570068" id="path6735"/>
 </g>
</svg>