<svg width="10.990937in" height="7.69232in" xmlns="http://www.w3.org/2000/svg">
 <g>
  <path fill="#009444" d="m1089.061279,710.450745c2.549683,-16.201538 3.630371,-32.754883 3.613159,-49.156616c-0.032715,-32.239624 2.309448,-64.628235 -8.802979,-95.089539c-7.526001,-20.629883 -15.094482,-46.608521 -34.786377,-58.43161c-23.759399,-14.265961 -50.319946,-20.906311 -77.514038,-24.489197c-37.457214,-4.935181 -76.916931,1.12439 -112.992615,11.491913c-19.015503,5.46402 -38.793945,12.578796 -56.337036,21.60376c-13.843628,7.123352 -25.979736,17.836548 -38.14856,27.618469c-3.540344,2.631897 -7.151123,5.174133 -10.874573,7.52948c-0.777527,-0.438904 -1.556213,-0.87439 -2.342163,-1.299988c-14.753296,-7.995422 -28.294006,-11.657166 -44.989136,-12.643127c-22.58374,-1.332886 -47.285217,9.826721 -66.90979,19.447144c-20.626038,10.110535 -50.801025,8.613892 -74.183105,6.27301c-18.774048,-1.878723 -36.073181,-7.307617 -55.608978,-7.333008c-24.53418,-0.030334 -58.636566,11.681213 -79.54538,24.464966c-9.802338,5.992737 -16.110626,12.996033 -27.68396,16.936523c-11.928619,4.063232 -24.516998,5.814575 -36.76474,8.619934c-22.26709,5.102539 -38.484406,4.345703 -60.31131,3.345154c-30.376587,-1.392395 -51.525482,23.744446 -79.992935,20.951233c-25.237473,-2.476624 -49.356857,3.40564 -73.70166,9.20459c-37.923027,9.032227 -78.276558,0.907166 -116.084343,-3.770935c-11.755272,-1.452942 -28.565741,-0.57135 -39.219577,-4.431763c-5.157248,18.330139 -1.895823,46.645874 -0.861244,66.647522c0.798172,15.406067 2.459809,28.6651 2.021855,44.057617c-0.354109,12.439392 -14.559301,41.743713 -5.659267,51.697693c3.963768,4.431885 32.106098,0.719299 37.508305,3.638611c8.315405,4.495056 20.353266,4.779907 29.386782,5.524597c21.865658,1.80249 44.015263,1.427734 65.890697,3.091919c50.90078,3.871277 101.710625,-3.008057 152.451286,-6.108276c20.661285,-1.262573 41.4888,-6.000061 61.671173,-6.51062c24.109528,-0.611389 48.928589,5.579102 72.476654,10.004883c18.942688,3.561096 37.618469,3.027527 57.24057,3.97113c29.19986,1.404541 58.768616,5.875244 88.2099,8.755615c37.815247,3.700684 76.040222,4.31665 114.306458,4.31665c51.829956,0 104.885925,4.474426 156.46698,1.338989c61.374084,-3.733276 125.179993,0.571411 184.619324,-17.375732c18.667297,-5.634827 39.003845,-11.296692 54.334412,-23.943298c17.895996,-14.762024 13.457031,-27.522522 18.506104,-47.359131c1.886108,-7.41803 3.409302,-14.96582 4.610107,-22.588562z" id="svg_5"/>
  <path fill="#754C29" d="m1035.245972,504.598755c-1.89209,-11.798767 -14.000427,-21.118469 -24.848022,-23.863251c-6.785034,-1.717499 -13.658325,-1.632507 -20.489136,-0.801788c-0.126221,-2.337128 -0.405334,-4.627014 -0.800598,-6.799408c-1.693115,-9.290619 -6.558167,-15.968597 -13.022583,-20.966949c-0.992065,-15.857147 -3.770996,-31.679138 -6.518372,-47.442902c-0.103943,-0.599091 -0.204651,-1.199463 -0.309021,-1.798676c1.49292,-24.17868 3.329346,-48.339264 4.016968,-72.560394c0.613831,-21.638855 1.511475,-43.111664 2.78125,-64.728699c1.349792,-22.973114 2.202698,-46.174271 -0.39917,-69.092728c-2.739807,-24.126495 -8.294739,-51.251343 -27.475342,-68.101791c-7.778015,-6.832085 -17.426453,-10.16391 -27.731018,-7.329445c-6.837036,1.881157 -13.449524,6.747253 -17.197449,13.076012c-5.65918,-7.798737 -13.738159,-12.881912 -23.740845,-12.881912c-12.809204,0 -23.948242,8.720581 -27.483643,20.92569c-8.130066,28.056259 -6.668518,58.152603 -5.64978,87.000824c0.496094,14.042755 0.989807,28.102478 0.289978,42.147552c-0.812622,16.307098 -3.129395,32.647003 -5.115906,48.84491c-0.470581,3.833984 -0.962952,7.665375 -1.460266,11.495667c-0.071716,0.539673 -0.128784,0.973938 -0.176147,1.324493c-0.220764,1.613037 -0.440125,3.227478 -0.664429,4.839386c-1.161987,8.371246 -2.407654,16.731598 -3.700623,25.084656c-2.630798,17.00827 -5.559631,33.970276 -8.388123,50.946838c-2.518005,15.106476 -4.528931,30.27713 -8.674561,45.035309c-2.599121,9.24704 -4.416016,18.41037 -4.379517,27.481384c-12.238037,-2.326324 -23.624451,-0.719208 -34.836487,5.855896c-2.432861,1.426178 -4.878113,2.346832 -7.47113,3.435883c-1.843811,0.775116 -3.917603,1.358551 -5.860779,1.778198c-1.496582,0.323883 -2.948425,0.827209 -4.440308,1.169189c-1.299011,0.297028 -2.202637,0.249756 -3.462769,0.063019c-3.045532,-0.4487 -6.436707,-0.19873 -9.516174,-0.224274c-15.539429,-0.129852 -28.502502,13.063904 -28.502502,28.502472c0,15.636414 12.966797,28.372864 28.502502,28.502686c10.254822,0.08606 19.751648,-0.078796 29.968933,-1.625366c4.139526,-0.627014 8.153076,-1.928406 12.018494,-3.508606c3.437134,-1.404724 7.735779,-2.796936 10.32019,-5.443542c0.837097,-0.858643 1.568359,-2.040039 2.835754,-2.234131c1.073608,-0.164795 2.378601,0.508301 3.31488,0.927795c1.9599,0.877014 3.67865,2.0401 5.592529,2.975281c2.225708,1.08667 4.490112,2.100708 6.816467,2.952148c4.546875,1.662842 9.42041,2.711914 14.276672,2.14917c3.80127,-0.440125 7.12207,-1.119385 10.364014,-2.167419c0.772583,0.669556 1.541565,1.342834 2.33606,1.987976c9.381592,7.61322 19.268982,13.061401 31.639099,13.620667c6.342041,0.287354 11.605896,-1.350098 16.599487,-3.86554c1.757324,0.8479 3.683533,1.6604 5.953857,2.516785c12.299927,4.642883 24.742676,8.140869 37.782471,9.89093c7.114563,0.955688 15.562439,-1.029785 22.39093,-2.262085c7.643433,-1.381409 15.022583,-4.594299 21.957703,-7.950317c6.850342,-3.314819 12.867554,-7.851013 18.315735,-13.034668c1.104858,0.136963 2.24408,0.218262 3.434692,0.218262c10.251343,0 19.276611,-5.516235 24.611938,-14.116821c6.34314,-10.231689 8.08606,-20.150696 6.194092,-31.948364z" id="svg_6"/>
  <path fill="none" stroke-width="5" stroke-miterlimit="10" d="m884.059753,241.835236c-3.969727,9.403351 -0.8479,26.312073 -1.21283,37.536011c-0.502136,15.438751 -7.757629,27.093353 -6.127563,42.783051c2.829651,27.232697 7.340393,52.60849 7.340393,80.993408" id="svg_7" stroke="#000000"/>
  <path fill="none" stroke-width="5" stroke-miterlimit="10" d="m930.148926,148.443649c4.664917,15.317505 6.064514,27.276428 6.064514,43.600525c0,15.305313 2.631897,26.88945 5.113403,41.030441c2.38324,13.582916 -7.96991,25.292114 -7.539246,40.024872c0.390686,13.367188 4.804382,24.893158 4.85144,39.08252" id="svg_8" stroke="#000000"/>
  <path fill="none" stroke-width="5" stroke-miterlimit="10" d="m869.505188,457.727234c4.388184,23.750549 -29.601318,28.033234 -43.719299,36.956299c-11.895935,7.518707 -17.760193,15.381866 -32.484497,18.929443c-8.720703,2.101868 -19.228943,4.496094 -28.103455,4.758179" id="svg_9" stroke="#000000"/>
  <path fill="none" stroke-width="5" stroke-miterlimit="10" d="m907.104431,458.940063c6.298462,10.197876 3.005432,22.341278 15.735718,26.707581c4.684204,1.607086 11.198608,-1.714996 15.831848,-0.177032c6.950867,2.306732 10.729065,10.927856 17.073608,14.457397c8.861389,4.92926 18.20166,0.171021 27.738586,2.555542c5.426392,1.355957 8.967773,5.154816 14.65271,6.180786c5.382568,0.971527 10.504517,-0.496002 15.700562,1.216583" id="svg_10" stroke="#000000"/>
  <path fill="#009444" d="m1061.598022,39.681419c-0.41333,-6.115318 -1.503906,-12.587193 -3.562012,-18.686749c0.019409,-0.180777 0.037354,-0.361437 0.055786,-0.546993c1.758667,-7.018976 1.471191,-13.960234 -2.662598,-21.019188c-3.779053,-6.451331 -9.780518,-10.856494 -16.565186,-12.834714c-4.380859,-5.545222 -10.404175,-9.711419 -17.872986,-11.38161c-13.501831,-3.018791 -24.941528,1.533049 -37.077576,6.714508c-0.099487,0.042419 -0.199036,0.087284 -0.298279,0.129812c-6.749878,-2.773842 -12.746155,-4.701204 -20.718384,-5.234758c-6.839722,-0.458494 -13.976074,1.46875 -20.793701,3.130394c-4.641724,-3.107409 -9.781799,-5.610748 -15.242004,-6.840651c-11.284851,-2.540977 -21.620911,-0.477818 -31.97406,4.211161c-0.583374,-0.391754 -1.164307,-0.792061 -1.765991,-1.158386c-9.508972,-5.786636 -20.434509,-6.145638 -30.996094,-3.736792c-5.289307,1.206799 -10.474426,3.449411 -15.380493,6.34573c-6.622314,-5.302713 -14.22229,-9.314888 -22.465027,-11.496874c-12.8479,-3.40089 -24.720764,-1.37048 -36.605835,3.762341c-1.688293,0.728989 -3.31488,1.563469 -4.931396,2.423382c-5.556458,-1.83753 -10.60083,-4.008625 -17.309082,-3.873936c-10.815247,0.218315 -21.292175,2.993372 -31.34082,6.73872c-4.178284,1.55736 -8.31897,3.205671 -12.532471,4.669546c-0.90741,0.315359 -1.824158,0.59796 -2.744934,0.866013c-4.575989,-1.064894 -9.234741,-1.700495 -13.910461,-2.224396c-0.629395,-0.0704 -1.258789,-0.14069 -1.888428,-0.211092c6.185791,0.963078 4.879517,0.819942 -3.913757,-0.428062c-1.817017,-0.100716 -3.532043,-0.069181 -5.343994,0.08972c-5.552551,0.48881 -10.893066,1.411791 -16.186035,3.073435c-2.687622,0.844133 -5.328003,1.825415 -8.003662,2.704648c-0.263184,-0.203765 -0.528809,-0.407518 -0.790894,-0.607615c-3.735657,-2.845349 -7.577881,-4.411164 -12.055908,-6.15408c-11.948059,-4.65023 -23.931335,-2.47436 -33.943542,4.181963c-9.221619,-1.747801 -19.460632,-0.145576 -28.639587,0.319031c-1.970947,0.099379 -3.943115,0.168552 -5.916565,0.229191c-0.372192,0.01088 -0.673096,0.027874 -0.925415,0.047298c-3.125305,-0.808947 -6.183105,-1.935802 -9.285828,-2.810263c-5.438416,-1.534266 -11.329346,-2.224396 -16.958313,-2.207401c-8.763,0.026648 -15.320923,2.949726 -23.181641,6.276664c-1.476013,0.624617 -2.918152,1.342607 -4.361572,2.046062c-12.200378,-2.486345 -22.976593,0.538558 -33.086121,6.991005c-5.706451,-0.836816 -11.360962,-1.046683 -17.136658,0.412405c-12.908691,3.260206 -22.122986,12.0039 -29.609924,22.535252c-6.049805,8.508398 -8.180908,18.942709 -9.233582,29.06777c-1.267456,12.194317 2.026703,22.475838 9.534332,32.061226c2.759369,3.522141 9.279785,6.927917 13.772308,8.0438c1.013794,1.275986 2.036316,2.545853 3.067169,3.804733c4.765564,5.8134 10.316711,10.814072 16.635956,14.929298c10.367584,6.750946 22.361664,6.199059 33.32489,2.337234c2.162659,1.89093 4.468384,3.597435 6.86731,5.41674c7.878845,5.973434 19.721558,7.729652 29.781067,6.575035c2.396545,3.234657 5.362061,6.036469 9.244568,8.078987c8.283936,4.357864 16.852905,5.066177 25.991882,4.921844c6.995789,-0.110382 13.948181,-0.526459 20.947693,-0.434296c3.739136,0.049759 7.33429,-0.252289 10.834534,-0.832031c0.365173,0.470596 0.721558,0.944839 1.097778,1.41066c7.892029,9.764862 20.414917,13.570847 32.313293,14.912338c16.817749,1.895706 29.382019,-7.855911 42.327087,-16.504883c3.051514,2.650131 6.373596,5.120712 9.973389,6.843079c12.628601,6.04248 25.639038,5.854492 38.857056,1.571823c1.460144,-0.473038 2.902405,-0.996933 4.341919,-1.529404c0.469238,0.314148 0.938782,0.625854 1.403381,0.912125c9.800171,6.043671 22.281738,4.544617 33.053284,2.782257c3.337708,-0.32135 6.674561,-0.6185 9.945679,-1.439651c0.57605,-0.144363 1.147156,-0.309265 1.716187,-0.488831c0.351624,0.183243 0.703613,0.366348 1.067322,0.527695c5.921265,2.623352 11.159607,4.24501 17.647217,4.194046c3.568237,3.021378 7.749084,4.902527 12.366455,6.402847c-9.01886,-2.930328 -2.084656,-0.63562 0.306885,0.570068c3.615723,1.824081 7.486023,3.633759 11.495728,4.437897c11.905579,2.385635 22.5401,-0.060715 33.046082,-5.901886c3.97467,-2.209854 7.155945,-5.347549 9.479797,-9.00563c3.302612,1.03334 6.728943,1.717484 10.126404,2.082474c9.668823,1.039474 19.018921,-3.136505 27.589294,-6.876953c0.162415,-0.071625 0.317627,-0.154022 0.480286,-0.226868c5.397217,13.752808 19.797852,19.562531 34.055176,16.900314c8.612488,-1.608337 15.925049,-5.76976 22.230774,-11.260376c8.337341,-1.097641 16.103271,-3.813293 22.918518,-8.993515c13.567139,-10.313057 23.720093,-23.007065 33.550659,-36.887238c3.059937,-4.321426 5.974609,-8.74482 8.865845,-13.18026c1.039551,-1.59613 2.087646,-3.187477 3.131714,-4.779953c-5.14624,7.847244 -0.011963,0.779854 1.92981,-1.36203c8.663696,-9.564743 12.703613,-22.67717 11.836304,-35.525215l0,0.000008z" id="svg_11"/>
  <path fill="#ED1C24" d="m483.810333,80.522659c-11.239716,0 -20.618713,9.379189 -20.618713,20.618881s9.378998,20.618889 20.618713,20.618889s20.618988,-9.379196 20.618988,-20.618889s-9.379028,-20.618881 -20.618988,-20.618881z" id="svg_12"/>
  <path fill="#ED1C24" d="m620.865417,107.205902c-11.239502,0 -20.618774,9.379173 -20.618774,20.618866s9.379272,20.618881 20.618774,20.618881s20.618958,-9.379181 20.618958,-20.618881s-9.379028,-20.618866 -20.618958,-20.618866z" id="svg_13"/>
  <path fill="#ED1C24" d="m585.692078,15.63378c-12.231689,0 -22.43811,10.206329 -22.43811,22.4382s10.206421,22.438198 22.43811,22.438198s22.438049,-10.206345 22.438049,-22.438198s-10.206055,-22.4382 -22.438049,-22.4382z" id="svg_14"/>
  <path fill="#ED1C24" d="m780.358765,105.386574c-12.231873,0 -22.43811,10.206352 -22.43811,22.438194s10.206238,22.438202 22.43811,22.438202s22.438293,-10.206329 22.438293,-22.438202s-10.206299,-22.438194 -22.438293,-22.438194z" id="svg_15"/>
  <path fill="#ED1C24" d="m710.618408,16.846575c-12.231995,0 -22.438293,10.206341 -22.438293,22.438208s10.206299,22.43819 22.438293,22.43819s22.438049,-10.206337 22.438049,-22.43819s-10.20636,-22.438208 -22.438049,-22.438208z" id="svg_16"/>
  <path fill="#ED1C24" d="m968.354614,75.222382c-12.231689,0 -22.438293,10.206345 -22.438293,22.43821s10.206604,22.438202 22.438293,22.438202s22.438416,-10.206329 22.438416,-22.438202s-10.206604,-22.43821 -22.438416,-22.43821z" id="svg_17"/>
  <path fill="#ED1C24" d="m861.62146,27.156073c-12.231995,0 -22.438049,10.206339 -22.438049,22.438208s10.206055,22.438198 22.438049,22.438198s22.438293,-10.206345 22.438293,-22.438198s-10.20636,-22.438208 -22.438293,-22.438208z" id="svg_18"/>
  <path id="svg_19" d="m-61.985626,59.899414c0,-77.731354 62.962383,-140.693726 140.693665,-140.693726c77.731277,0 140.693665,62.962379 140.693665,140.693726c0,77.731277 -62.962372,140.693665 -140.693665,140.693665c-77.731277,0 -140.693665,-62.962387 -140.693665,-140.693665z" stroke-width="5" fill="#FFF200"/>
  <line fill="none" stroke-width="5" stroke-miterlimit="10" x1="44.749142" y1="235.770814" x2="54.452154" y2="375.251615" id="svg_20" stroke="#000000"/>
  <line fill="none" stroke-width="5" stroke-miterlimit="10" x1="118.734611" y1="233.34506" x2="157.546661" y2="347.355455" id="svg_21" stroke="#000000"/>
  <line fill="none" stroke-width="5" stroke-miterlimit="10" x1="180.591315" y1="213.939035" x2="265.492673" y2="307.330529" id="svg_22" stroke="#000000"/>
  <line fill="none" stroke-width="5" stroke-miterlimit="10" x1="229.106377" y1="161.785344" x2="345.542525" y2="226.067801" id="svg_23" stroke="#000000"/>
  <path fill="none" stroke-width="5" stroke-dasharray="null" stroke-linejoin="null" stroke-linecap="null" d="m246.690094,92.657372l134.629303,49.727928" id="svg_24" stroke="#000000"/>
  <path fill="none" stroke-width="5" d="m248.973312,38.924099l145.830276,-11.347534" id="svg_25" stroke="#000000"/>
 </g>
</svg>