<svg width="12in" height="9in" xmlns="http://www.w3.org/2000/svg">
 <!-- Created with SVG-edit - http://svg-edit.googlecode.com/ -->
 <g>
  <title>Layer 1</title>
  <path fill="#009444" d="m1190.462402,781.855835c2.807373,-17.839905 3.997437,-36.0672 3.978516,-54.127625c-0.036011,-35.499878 2.542969,-71.163818 -9.693237,-104.705566c-8.287109,-22.716125 -16.62085,-51.321899 -38.304199,-64.340576c-26.161987,-15.708618 -55.408569,-23.020508 -85.352661,-26.965698c-41.245178,-5.434265 -84.695313,1.238098 -124.419189,12.654053c-20.938477,6.016541 -42.717041,13.85083 -62.03418,23.788452c-15.243591,7.843689 -28.606934,19.64032 -42.006409,30.411377c-3.898315,2.898071 -7.874268,5.697388 -11.974304,8.290955c-0.85614,-0.483276 -1.713501,-0.96283 -2.578979,-1.431458c-16.245239,-8.804016 -31.155273,-12.835999 -49.538757,-13.921692c-24.867554,-1.467651 -52.066956,10.820496 -73.676025,21.413818c-22.711914,11.132935 -55.938416,9.484985 -81.684998,6.907349c-20.672668,-2.068726 -39.72113,-8.04657 -61.232544,-8.074524c-27.015198,-0.033447 -64.566254,12.862427 -87.589508,26.938965c-10.79361,6.598755 -17.739838,14.310242 -30.483551,18.649292c-13.134888,4.474121 -26.996277,6.402588 -40.482605,9.491638c-24.51889,5.618469 -42.37616,4.785156 -66.410339,3.683411c-33.448486,-1.533203 -56.736084,26.145569 -88.082352,23.069946c-27.789642,-2.727112 -54.348114,3.750061 -81.154816,10.135376c-41.758057,9.945618 -86.19239,0.998901 -127.823534,-4.152222c-12.94404,-1.599915 -31.45449,-0.62915 -43.18571,-4.880005c-5.678781,20.183838 -2.08754,51.363098 -0.948339,73.38739c0.87889,16.963989 2.70856,31.563843 2.226319,48.513c-0.389919,13.697327 -16.03163,45.965088 -6.231569,56.925659c4.36461,4.880127 35.352869,0.792053 41.30138,4.006592c9.156311,4.949585 22.411518,5.263306 32.358559,6.083313c24.076851,1.98468 48.466362,1.572083 72.553978,3.404541c56.048187,4.262756 111.996246,-3.312195 167.868103,-6.725952c22.750702,-1.390259 45.684418,-6.606812 67.907776,-7.169006c26.547638,-0.673279 53.876526,6.143311 79.805939,11.016602c20.858307,3.921265 41.422668,3.33374 63.029083,4.372742c32.152771,1.546509 64.71167,6.46936 97.130249,9.641052c41.639404,4.07489 83.729919,4.753174 125.865845,4.753174c57.071289,0 115.492615,4.92688 172.289917,1.474426c67.580566,-4.11084 137.838989,0.62915 203.289185,-19.132935c20.555054,-6.204651 42.94812,-12.439087 59.828979,-26.364563c19.705811,-16.254822 14.817871,-30.305786 20.377686,-52.148376c2.076782,-8.168213 3.754028,-16.479248 5.076294,-24.872925z" id="svg_5"/>
  <path fill="#754C29" d="m1131.204834,555.186829c-2.083374,-12.991943 -15.416138,-23.254089 -27.360718,-26.276428c-7.471191,-1.891174 -15.039551,-1.797607 -22.561157,-0.882874c-0.138916,-2.573486 -0.446289,-5.094971 -0.881592,-7.487c-1.864258,-10.230164 -7.221313,-17.583466 -14.339478,-23.08725c-1.092407,-17.460754 -4.152344,-34.882751 -7.17749,-52.240662c-0.114502,-0.659668 -0.225342,-1.32077 -0.340332,-1.98056c1.643921,-26.623779 3.666016,-53.227631 4.423218,-79.898132c0.675903,-23.827148 1.664307,-47.471436 3.0625,-71.274506c1.486328,-25.296295 2.425415,-50.843689 -0.439575,-76.079819c-3.016846,-26.566315 -9.133545,-56.434189 -30.253784,-74.988663c-8.564575,-7.522995 -19.188721,-11.191757 -30.535339,-8.070648c-7.528442,2.071396 -14.809692,7.429581 -18.936584,14.398331c-6.231445,-8.587387 -15.127441,-14.184601 -26.141724,-14.184601c-14.104492,0 -26.369995,9.602463 -30.262939,23.041824c-8.952148,30.893494 -7.342896,64.033371 -6.22113,95.798904c0.546265,15.462845 1.089905,30.944382 0.319336,46.409744c-0.894775,17.956207 -3.445862,35.948486 -5.633301,53.784454c-0.518127,4.22168 -1.060303,8.440521 -1.60791,12.658173c-0.078918,0.594238 -0.141785,1.072449 -0.193909,1.458435c-0.243103,1.776154 -0.48468,3.553833 -0.731628,5.328735c-1.279541,9.217804 -2.651123,18.423645 -4.074829,27.621399c-2.896851,18.728241 -6.121887,37.405579 -9.23645,56.098907c-2.772583,16.634125 -4.986938,33.338928 -9.551758,49.589569c-2.861938,10.182159 -4.862549,20.272125 -4.822449,30.260468c-13.475586,-2.561584 -26.013489,-0.791931 -38.359314,6.448059c-2.678894,1.570435 -5.371399,2.584167 -8.226685,3.783386c-2.030212,0.853455 -4.313721,1.495911 -6.45343,1.958008c-1.647949,0.356628 -3.246582,0.910828 -4.889404,1.287415c-1.430298,0.327087 -2.425354,0.275024 -3.812866,0.069397c-3.353516,-0.49408 -7.087646,-0.218811 -10.478516,-0.246948c-17.110901,-0.143005 -31.384888,14.38501 -31.384888,31.384827c0,17.217712 14.278137,31.242126 31.384888,31.385071c11.291809,0.094727 21.749023,-0.086792 32.999573,-1.789734c4.558167,-0.69043 8.977539,-2.123474 13.233826,-3.863464c3.78479,-1.546753 8.518066,-3.079773 11.363892,-5.994019c0.921692,-0.945496 1.726929,-2.246338 3.122559,-2.460083c1.182129,-0.181458 2.61908,0.559753 3.650085,1.021667c2.15802,0.965698 4.050598,2.246399 6.15802,3.276123c2.450806,1.196533 4.944153,2.313171 7.505798,3.250732c5.006714,1.830994 10.373047,2.986084 15.720459,2.366516c4.185669,-0.48468 7.842285,-1.232666 11.412048,-2.386658c0.850769,0.737244 1.697449,1.478638 2.572327,2.189026c10.330322,8.383179 21.21759,14.382263 34.838684,14.998047c6.983398,0.316467 12.779541,-1.486572 18.278076,-4.256409c1.935059,0.933594 4.05603,1.828308 6.555969,2.771301c13.543762,5.112427 27.244812,8.964111 41.60321,10.891174c7.834106,1.052307 17.13623,-1.133911 24.655273,-2.490845c8.416382,-1.521118 16.541748,-5.058899 24.178223,-8.754333c7.543091,-3.650024 14.168823,-8.644958 20.167969,-14.352783c1.216553,0.150818 2.470947,0.240356 3.781982,0.240356c11.288086,0 21.225952,-6.074097 27.10083,-15.544434c6.984619,-11.266418 8.903809,-22.188477 6.820435,-35.179199z" id="svg_6"/>
  <path fill="none" stroke-width="5" stroke-miterlimit="10" d="m964.729797,265.851013c-4.371216,10.354279 -0.933655,28.972931 -1.335449,41.331909c-0.552917,17.000031 -8.542175,29.83316 -6.747253,47.109528c3.115784,29.986633 8.082703,57.928589 8.082703,89.18399" id="svg_7" stroke="#000000"/>
  <path fill="none" stroke-width="5" stroke-miterlimit="10" d="m1015.479797,163.015091c5.136658,16.866516 6.677795,30.03479 6.677795,48.009689c0,16.853073 2.898071,29.608673 5.630493,45.179688c2.624268,14.956512 -8.775879,27.849823 -8.301636,44.072449c0.430176,14.718933 5.290161,27.410492 5.342041,43.03479" id="svg_8" stroke="#000000"/>
  <path fill="none" stroke-width="5" stroke-miterlimit="10" d="m948.70343,503.575378c4.831909,26.152344 -32.594849,30.868103 -48.140564,40.693542c-13.098877,8.279053 -19.556152,16.937378 -35.76947,20.843689c-9.6026,2.314453 -21.173523,4.950806 -30.945496,5.239319" id="svg_9" stroke="#000000"/>
  <path fill="none" stroke-width="5" stroke-miterlimit="10" d="m990.104858,504.910828c6.935425,11.229187 3.309387,24.600586 17.327087,29.408447c5.157837,1.769592 12.331055,-1.888428 17.4328,-0.194946c7.653809,2.540039 11.814087,12.032959 18.800171,15.919434c9.757568,5.427734 20.042358,0.188293 30.543701,2.813965c5.97522,1.493103 9.874634,5.676086 16.134521,6.805847c5.92688,1.069763 11.566772,-0.546204 17.28833,1.3396" id="svg_10" stroke="#000000"/>
  <path fill="#009444" d="m1160.221924,43.254139c-0.4552,-6.733738 -1.656006,-13.860088 -3.922363,-20.576469c0.021484,-0.199059 0.041138,-0.397989 0.061523,-0.60231c1.936523,-7.72878 1.619873,-15.371979 -2.931885,-23.144779c-4.161255,-7.10373 -10.769653,-11.95437 -18.240356,-14.13264c-4.823853,-6.10599 -11.456299,-10.6935 -19.68042,-12.53259c-14.867188,-3.32407 -27.463745,1.68808 -40.827148,7.39352c-0.109497,0.046709 -0.219116,0.096109 -0.328369,0.142939c-7.432495,-3.05435 -14.035156,-5.176619 -22.813599,-5.76413c-7.531372,-0.50486 -15.389404,1.617281 -22.896484,3.44696c-5.111145,-3.42165 -10.770935,-6.178141 -16.783386,-7.532419c-12.426025,-2.797939 -23.807312,-0.52614 -35.207458,4.637018c-0.642395,-0.43137 -1.282043,-0.87216 -1.94458,-1.27553c-10.470581,-6.371819 -22.500977,-6.76712 -34.130615,-4.114679c-5.824219,1.32884 -11.533691,3.798241 -16.935852,6.98745c-7.292053,-5.838959 -15.660522,-10.256868 -24.736816,-12.65951c-14.147217,-3.744808 -27.220703,-1.509071 -40.307678,4.142811c-1.85907,0.80271 -3.650085,1.721579 -5.430115,2.668449c-6.118286,-2.02335 -11.672791,-4.414001 -19.059448,-4.26569c-11.908997,0.240391 -23.445374,3.29608 -34.510193,7.420179c-4.60083,1.714849 -9.160278,3.52985 -13.799805,5.14176c-0.999207,0.34725 -2.008667,0.65843 -3.022583,0.95359c-5.038757,-1.172581 -10.168579,-1.872459 -15.317139,-2.449341c-0.693054,-0.077518 -1.386108,-0.154919 -2.079407,-0.232439c6.81134,1.060471 5.372925,0.902861 -4.30957,-0.47135c-2.000793,-0.110901 -3.889221,-0.07618 -5.884399,0.098789c-6.114075,0.53824 -11.994629,1.55456 -17.822815,3.384241c-2.959473,0.929499 -5.866821,2.01001 -8.813049,2.978159c-0.289856,-0.224369 -0.582275,-0.44873 -0.870911,-0.66906c-4.113403,-3.133089 -8.344238,-4.85725 -13.275024,-6.776421c-13.156372,-5.120489 -26.35144,-2.724579 -37.37616,4.60487c-10.154175,-1.924549 -21.428589,-0.160299 -31.535828,0.351292c-2.170227,0.109428 -4.341858,0.185598 -6.514893,0.252369c-0.409851,0.01198 -0.74115,0.030691 -1.018982,0.05208c-3.441406,-0.890749 -6.80835,-2.131559 -10.224854,-3.09445c-5.988342,-1.689421 -12.475037,-2.449341 -18.673279,-2.43063c-9.64917,0.029341 -16.8703,3.24802 -25.525879,6.9114c-1.625305,0.68778 -3.213318,1.47838 -4.802612,2.25297c-13.434204,-2.73778 -25.300171,0.59302 -36.432068,7.69798c-6.283508,-0.92144 -12.509827,-1.15253 -18.869629,0.45411c-14.21405,3.5899 -24.360168,13.21781 -32.604218,24.814159c-6.661621,9.36882 -9.00824,20.858311 -10.167358,32.007282c-1.39563,13.42749 2.231659,24.748741 10.498505,35.303459c3.038422,3.878326 10.218201,7.628517 15.165039,8.857239c1.116333,1.405022 2.242249,2.803314 3.37735,4.189499c5.247467,6.401283 11.360016,11.907661 18.318268,16.439049c11.416016,7.433632 24.623047,6.825935 36.694946,2.573586c2.381348,2.082146 4.920227,3.961227 7.561768,5.964516c8.675598,6.577499 21.715942,8.511322 32.792725,7.239944c2.638855,3.561768 5.904236,6.646912 10.179382,8.895981c9.121704,4.798553 18.55719,5.578506 28.620361,5.419571c7.703308,-0.121536 15.358765,-0.579697 23.06604,-0.47821c4.11731,0.054779 8.07605,-0.277802 11.930237,-0.916168c0.4021,0.518173 0.794495,1.04039 1.208801,1.553314c8.690063,10.752335 22.47937,14.943207 35.580994,16.420364c18.518494,2.087402 32.353271,-8.65036 46.607483,-18.173965c3.360107,2.918137 7.018127,5.63855 10.981934,7.535095c13.905701,6.653534 28.231812,6.446533 42.786499,1.730774c1.607849,-0.520874 3.195923,-1.097748 4.781067,-1.684052c0.516724,0.345901 1.033691,0.689117 1.545288,1.004349c10.791199,6.654861 24.534973,5.004211 36.395813,3.063614c3.675293,-0.353851 7.349548,-0.681046 10.951416,-1.585236c0.634338,-0.158966 1.263245,-0.34053 1.889832,-0.538254c0.387146,0.201767 0.774719,0.403381 1.175232,0.581055c6.52002,2.888641 12.288086,4.674301 19.431824,4.618179c3.929077,3.326904 8.532715,5.3983 13.617004,7.050323c-9.930908,-3.226639 -2.295532,-0.69989 0.337891,0.627731c3.981384,2.008545 8.243042,4.001221 12.658325,4.886688c13.109497,2.626892 24.819458,-0.066864 36.387817,-6.498734c4.376587,-2.433319 7.879639,-5.888336 10.438477,-9.916336c3.636658,1.137848 7.409424,1.891174 11.150452,2.293091c10.646667,1.144562 20.942261,-3.45369 30.379333,-7.572403c0.178772,-0.078873 0.349731,-0.169601 0.528809,-0.249817c5.943054,15.143585 21.799988,21.540817 37.499084,18.609375c9.483398,-1.770981 17.535522,-6.353226 24.478882,-12.399078c9.18042,-1.208649 17.731689,-4.198929 25.236206,-9.903015c14.939087,-11.355972 26.118774,-25.333679 36.943481,-40.617508c3.369385,-4.75843 6.578735,-9.629135 9.762451,-14.51313c1.144653,-1.757538 2.298706,-3.509811 3.448486,-5.263321c-5.666748,8.640808 -0.013184,0.858719 2.124878,-1.499771c9.539795,-10.53199 13.988281,-24.970428 13.033325,-39.117741z" id="svg_11"/>
  <path fill="#ED1C24" d="m524.004639,88.225502c-12.376343,0 -22.703827,10.327667 -22.703827,22.703995s10.327484,22.704002 22.703827,22.704002s22.704102,-10.327682 22.704102,-22.704002s-10.327515,-22.703995 -22.704102,-22.703995z" id="svg_12"/>
  <path fill="#ED1C24" d="m674.919556,117.607117c-12.376099,0 -22.703857,10.327652 -22.703857,22.703979s10.327759,22.703995 22.703857,22.703995s22.704102,-10.327667 22.704102,-22.703995s-10.327515,-22.703979 -22.704102,-22.703979z" id="svg_13"/>
  <path fill="#ED1C24" d="m636.18927,16.774651c-13.468628,0 -24.707153,11.238459 -24.707153,24.707291s11.238525,24.707291 24.707153,24.707291s24.707153,-11.238472 24.707153,-24.707291s-11.238159,-24.707291 -24.707153,-24.707291z" id="svg_14"/>
  <path fill="#ED1C24" d="m850.541931,115.603813c-13.468811,0 -24.707214,11.23848 -24.707214,24.707283s11.238403,24.707291 24.707214,24.707291s24.707336,-11.238449 24.707336,-24.707291s-11.238403,-24.707283 -24.707336,-24.707283z" id="svg_15"/>
  <path fill="#ED1C24" d="m773.748962,18.11009c-13.468933,0 -24.707397,11.23847 -24.707397,24.7073s11.238464,24.707283 24.707397,24.707283s24.707153,-11.238464 24.707153,-24.707283s-11.238464,-24.7073 -24.707153,-24.7073z" id="svg_16"/>
  <path fill="#ED1C24" d="m1057.549072,82.389229c-13.468628,0 -24.707397,11.238472 -24.707397,24.707298s11.23877,24.707291 24.707397,24.707291s24.70752,-11.238457 24.70752,-24.707291s-11.23877,-24.707298 -24.70752,-24.707298z" id="svg_17"/>
  <path fill="#ED1C24" d="m940.022339,29.462151c-13.468933,0 -24.707092,11.238468 -24.707092,24.707298s11.238159,24.707291 24.707092,24.707291s24.707458,-11.238472 24.707458,-24.707291s-11.238525,-24.707298 -24.707458,-24.707298z" id="svg_18"/>
  <path id="svg_19" d="m-76.985641,65.516708c0,-85.592039 69.329533,-154.92157 154.921486,-154.92157c85.591957,0 154.921486,69.329531 154.921486,154.92157c0,85.591949 -69.329529,154.921478 -154.921486,154.921478c-85.591953,0 -154.921486,-69.329529 -154.921486,-154.921478z" stroke-width="5" fill="#FFF200"/>
  <line fill="none" stroke-width="5" stroke-miterlimit="10" x1="40.542813" y1="259.173325" x2="51.227055" y2="412.759302" id="svg_20" stroke="#000000"/>
  <line fill="none" stroke-width="5" stroke-miterlimit="10" x1="122.010158" y1="256.502264" x2="164.747126" y2="382.042107" id="svg_21" stroke="#000000"/>
  <line fill="none" stroke-width="5" stroke-miterlimit="10" x1="190.1222" y1="235.13378" x2="283.609317" y2="337.969609" id="svg_22" stroke="#000000"/>
  <line fill="none" stroke-width="5" stroke-miterlimit="10" x1="243.54341" y1="177.70598" x2="371.754313" y2="248.489083" id="svg_23" stroke="#000000"/>
  <path fill="none" stroke="#000000" stroke-width="5" stroke-dasharray="null" stroke-linejoin="null" stroke-linecap="null" d="m262.905304,101.587349l148.243866,54.756737" id="svg_24"/>
  <path fill="none" stroke="#000000" stroke-width="5" d="m265.576355,28.15955l160.263641,16.02636" id="svg_25" transform="rotate(-10.16 345.708 36.1727)"/>
 </g>
</svg>