<svg width="12in" height="9in" xmlns="http://www.w3.org/2000/svg">
 <!-- Created with SVG-edit - http://svg-edit.googlecode.com/ -->
 <g>
  <title>Layer 1</title>
  <metadata id="svg_33">image/svg+xml</metadata>
  <path fill="#000000" id="svg_32" d="m202.104446,663.82428c0.004944,0.12616 -0.103699,0.572144 -0.326157,1.338196c-0.159485,0.763794 -0.407013,1.688416 -0.743042,2.774475c-0.273071,1.083618 -0.605667,2.26416 -0.997009,3.541565c-0.331345,1.212219 -0.663681,2.392761 -0.997009,3.541504c-0.270828,1.146851 -0.546127,2.167419 -0.826614,3.06189c-0.219986,0.829224 -0.355408,1.402344 -0.405777,1.71991c-0.212585,1.017883 -0.360931,2.065308 -0.444855,3.141235c-0.02095,1.073669 -0.136597,2.151123 -0.346436,3.232239c-0.581924,2.862793 -1.132385,5.72406 -1.651321,8.584412c-0.455994,2.857849 -1.037659,5.720642 -1.745529,8.588135c-0.103928,0.572205 -0.302063,1.148071 -0.59491,1.727417c-0.295303,0.516602 -0.527664,1.030457 -0.696793,1.54187c0.017288,0.441284 0.010529,1.07251 -0.020309,1.894043c0.031906,0.819397 -0.00882,1.388794 -0.122421,1.708618c-0.288132,0.70575 -0.544312,1.410034 -0.769241,2.113098c-0.227402,0.639832 -0.485062,1.312622 -0.77272,2.018127c-0.39679,1.151489 -0.722931,2.489685 -0.978455,4.014282c-0.192795,1.522156 -0.383133,3.1073 -0.57074,4.755371c-0.124878,1.645874 -0.28125,3.292969 -0.468857,4.94104c-0.124878,1.645874 -0.350403,3.137512 -0.6763,4.475708l-4.316254,3.387939c-1.197418,0.046936 -2.394577,0.093933 -3.591736,0.140869c-1.131973,0.107483 -2.327896,0.185913 -3.588028,0.235352c-1.827362,0.071716 -3.597931,-0.016724 -5.311447,-0.264832c-1.713791,-0.248352 -3.260651,-1.071106 -4.640854,-2.468506c-0.327438,-0.302734 -0.817917,-1.545776 -1.47142,-3.728943c-0.590759,-2.185669 -1.294525,-4.840088 -2.111038,-7.963623c-0.753784,-3.125732 -1.547714,-6.470886 -2.381775,-10.0354c-0.836533,-3.627563 -1.600204,-7.005371 -2.290787,-10.13385c-0.690811,-3.128174 -1.269623,-5.819336 -1.736679,-8.072876c-0.404083,-2.256042 -0.613419,-3.572937 -0.62825,-3.95105c-0.019791,-0.504211 0.02095,-1.073669 0.122162,-1.708801c0.101227,-0.635132 0.20491,-1.207031 0.311325,-1.716248l-0.378067,0.014832l-0.014832,-0.378052l-0.850586,0.033325c-0.363251,0.392944 -0.721512,0.911987 -1.07486,1.556763c-0.353592,0.64502 -0.583221,1.222168 -0.689651,1.730835c-0.222198,0.766296 -0.379242,1.592773 -0.470551,2.479797c-0.028381,0.884766 -0.121201,1.740356 -0.277954,2.566833c-0.303894,1.905396 -0.671021,3.813049 -1.100876,5.723145c-0.432312,1.847107 -0.896362,3.695496 -1.391647,5.544861c0.23587,1.189941 0.279129,2.292664 0.129776,3.308105c-0.086624,1.013428 -0.267471,2.030334 -0.543015,3.05072c-0.275543,1.02063 -0.582565,2.04248 -0.921097,3.065308c-0.278,0.957642 -0.520828,2.008484 -0.72821,3.152344c-0.25824,1.461914 -0.420792,2.951294 -0.487396,4.468506c-0.006119,1.451782 -0.075455,2.906006 -0.207504,4.362427c-0.134781,1.393738 -0.276703,2.598572 -0.426071,3.614014c-0.149612,1.015686 -0.430084,1.910339 -0.841461,2.683777c-0.348404,0.770935 -0.922379,1.424622 -1.72171,1.960754c-0.799316,0.536133 -1.885956,0.989197 -3.259918,1.358459l-4.212372,1.206604c-0.945297,0.037048 -1.985031,0.07782 -3.119232,0.122314c-1.131699,0.107727 -2.268387,0.088989 -3.409988,-0.05542c-1.141617,-0.144653 -2.225189,-0.41748 -3.250755,-0.819214c-0.962593,-0.403931 -1.77739,-1.066162 -2.444405,-1.986511c-0.065697,-0.06073 -0.202759,-0.339172 -0.411446,-0.835999c-0.211403,-0.55957 -0.422813,-1.119324 -0.633965,-1.678894c-0.213875,-0.622803 -0.426277,-1.214111 -0.637665,-1.773621c-0.211403,-0.55957 -0.351929,-0.932922 -0.422562,-1.119385c-0.42009,-1.056396 -0.87043,-2.080078 -1.351013,-3.07074c-0.480598,-0.991211 -0.899437,-2.015869 -1.256561,-3.074768c-0.434914,-1.434448 -0.71489,-2.938049 -0.839653,-4.511047c-0.127243,-1.635742 -0.470184,-3.136841 -1.028564,-4.503418c-0.415146,-0.93042 -0.863007,-1.890869 -1.34359,-2.881836c-0.480827,-0.990723 -0.898453,-1.984131 -1.253098,-2.980042c-0.356873,-1.058838 -0.590523,-2.185608 -0.700462,-3.380554c-0.046967,-1.197205 -0.249138,-2.325195 -0.606003,-3.384033c-0.221283,-0.811707 -0.538269,-1.651184 -0.950943,-2.518616c-0.412674,-0.867249 -0.792625,-1.704224 -1.139854,-2.510986c-0.344513,-0.743774 -0.504066,-1.589661 -0.47818,-2.53717c0.089111,-0.950256 -0.038712,-1.797119 -0.383476,-2.540894c-0.208946,-0.496826 -0.449356,-0.992188 -0.721001,-1.486267c-0.208939,-0.496826 -0.417633,-0.993713 -0.626564,-1.490295c-0.417618,-0.993408 -0.71521,-2.148926 -0.893318,-3.467346c-0.180321,-1.381409 -0.354713,-2.605103 -0.522667,-3.671387c-0.266724,-0.368408 -0.646675,-1.205383 -1.139862,-2.511414c-0.495415,-1.368774 -0.994537,-2.832275 -1.497368,-4.390198c-0.502823,-1.557922 -0.93898,-3.023865 -1.308464,-4.397827c-0.371956,-1.437134 -0.56794,-2.407471 -0.587723,-2.911743c-0.012344,-0.314819 0.03479,-0.727112 0.140953,-1.236084c0.384193,-1.466309 1.133484,-2.474243 2.247894,-3.022766c1.177383,-0.550964 2.421707,-1.009949 3.732437,-1.376953c0.310158,-0.138306 0.621536,-0.245117 0.934166,-0.320679c0.373123,-0.140747 0.685753,-0.216125 0.937866,-0.226257c1.070984,-0.041748 2.299873,-0.089966 3.686195,-0.144592c1.38607,-0.054138 2.714363,0.019653 3.984383,0.222351c1.330772,0.137207 2.545227,0.531311 3.643646,1.18219c1.09594,0.588135 1.858925,1.536743 2.288879,2.844788c-0.144646,1.141846 -0.135345,2.1828 0.027916,3.122925c0.163017,0.940308 0.389008,1.87793 0.678215,2.813354c0.2892,0.93512 0.578163,1.870544 0.867363,2.805664c0.289223,0.935669 0.484947,1.906006 0.587456,2.91156c0.095367,0.816833 0.157753,1.60321 0.187416,2.359375c0.029671,0.756348 0.092056,1.542725 0.187164,2.359375c0.019775,0.504028 0.168198,1.06604 0.444809,1.68634c0.274368,0.557312 0.4543,1.118347 0.53949,1.682617c0.160568,0.877625 0.259369,1.788696 0.296448,2.733765c0.034622,0.882263 0.162445,1.729187 0.383728,2.540833c0.293915,1.061584 0.651016,2.120239 1.071106,3.176636c0.417618,0.993408 0.773514,2.020752 1.067642,3.081848c0.374435,1.500183 0.623901,3.036499 0.748672,4.609253c0.185516,1.507568 0.496719,3.009949 0.934372,4.507324c-0.050873,0.317322 -0.09407,0.824097 -0.130096,1.51947c0.027206,0.69342 0.087357,1.416809 0.179977,2.170471c0.153381,0.687927 0.367004,1.31073 0.641129,1.867798c0.274384,0.557373 0.600601,0.828613 0.978653,0.813782l0.378067,-0.014832c0.12619,-0.004944 0.277451,-0.168579 0.453979,-0.491089c0.239792,-0.324951 0.38855,-0.551514 0.446823,-0.680176c0.069077,-1.454285 0.169647,-2.909729 0.301956,-4.366455c0.195023,-1.459229 0.390289,-2.918335 0.585556,-4.377502c0.436218,-3.361877 0.873413,-6.692261 1.312088,-9.99115c0.498932,-3.364319 1.029587,-6.729858 1.591751,-10.09668c0.250809,-1.650574 0.531876,-3.334167 0.843216,-5.050354c0.374298,-1.718445 0.65535,-3.401978 0.843216,-5.050293c0.134521,-1.393494 0.239059,-2.754272 0.31308,-4.082825c0.071548,-1.390991 0.302017,-2.756958 0.691132,-4.097595c0.166916,-0.574402 0.490021,-1.186462 0.969299,-1.836426c0.542496,-0.652405 1.16008,-0.992249 1.853241,-1.019409c0.693161,-0.027222 1.858841,-0.072937 3.497284,-0.137207c1.698669,-0.129944 3.432816,-0.166443 5.202148,-0.109253c1.832291,0.05426 3.51062,0.209167 5.035492,0.464844c1.587601,0.25354 2.645874,0.685303 3.174591,1.295471c0.727768,0.855103 1.239822,1.844543 1.536453,2.969177c0.359589,1.121582 0.623245,2.215881 0.791458,3.282166c0.406555,2.319031 0.84436,4.637024 1.314133,6.953552c0.467056,2.25354 0.99707,4.504639 1.590073,6.753174c0.221039,0.811951 0.50528,1.620911 0.852524,2.427612c0.40773,0.741638 0.691986,1.550781 0.852798,2.428162l1.18428,8.472961c0.08992,0.690674 0.279739,1.503845 0.568939,2.438965c0.286728,0.872437 0.575668,1.807617 0.867371,2.805969c0.35463,0.995911 0.677551,1.992798 0.969208,2.99115c0.35466,0.995911 0.61113,1.900757 0.769211,2.714966c0.090424,0.690674 0.279984,1.503845 0.568939,2.439209c0.352173,0.932678 1.0009,1.380737 1.946182,1.34314l0.378067,-0.014832l0.628052,-0.876526c-0.326035,-1.880432 -0.432892,-3.80072 -0.320633,-5.761963c0.109802,-2.023682 0.284058,-4.018494 0.522522,-5.984253c0.238464,-1.965637 0.478149,-3.89978 0.719101,-5.802673c0.30365,-1.905151 0.421143,-3.739746 0.351898,-5.504272l-0.144608,-3.686218c-0.049438,-1.260132 0.152008,-2.561646 0.604111,-3.905029c0.512848,-1.408386 0.775757,-2.744019 0.789551,-4.006592c-0.027191,-0.693176 -0.032791,-1.639709 -0.016785,-2.839355c0.076508,-1.265137 0.152023,-2.561707 0.226028,-3.890198c0.137009,-1.330505 0.276733,-2.598022 0.418915,-3.802917c0.20491,-1.207031 0.453918,-2.10022 0.746765,-2.67981c0.292847,-0.579346 0.873993,-1.044128 1.743942,-1.393799c0.867249,-0.412415 1.802643,-0.70166 2.805969,-0.866882c1.063553,-0.231201 2.066864,-0.396667 3.009674,-0.496948c1.005798,-0.102295 1.79216,-0.164917 2.35939,-0.187195c0.945038,-0.037048 2.018707,-0.016052 3.22084,0.06311c1.199631,0.015991 2.342468,0.1922 3.428787,0.528259c1.148773,0.333557 2.116318,0.863708 2.9021,1.589844c0.78331,0.663757 1.199707,1.625427 1.24913,2.885559"/>
  <path fill="#000000" id="svg_31" d="m260.210724,731.406372c-1.827332,0.071716 -3.383423,-0.182617 -4.668289,-0.763367c-1.222137,-0.583191 -2.23204,-1.395447 -3.030182,-2.437012c-0.735428,-1.044067 -1.288879,-2.284668 -1.660828,-3.721558c-0.371948,-1.436707 -0.589951,-2.974548 -0.654221,-4.612732l-0.472519,0.018555c-0.012329,-0.314819 -0.176208,-0.466309 -0.491058,-0.453979c-0.252121,0.009888 -0.50177,0.082764 -0.748718,0.218567c-0.249634,0.07312 -0.466583,0.176208 -0.650543,0.30957c-0.378067,0.014832 -1.449295,0.056824 -3.213669,0.126099c-1.703888,0.003723 -3.56395,0.045166 -5.580215,0.124268c-1.953552,0.07666 -3.842636,0.182312 -5.667511,0.316956c-1.82489,0.134644 -3.017105,0.307556 -3.57692,0.518982c-1.2453,0.42749 -2.168076,1.031799 -2.7686,1.812622c-0.537567,0.778137 -0.945221,1.646301 -1.223251,2.603699c-0.278015,0.957642 -0.491562,1.944275 -0.641174,2.959717c-0.149612,1.015686 -0.428589,1.941833 -0.837509,2.778198c-0.409149,0.836426 -1.07634,1.525269 -2.001617,2.066345c-0.860077,0.601624 -2.140549,0.936157 -3.841965,1.002869c-0.88205,0.034607 -1.733887,0.036499 -2.55571,0.005432c-0.821579,-0.030823 -1.673386,-0.028931 -2.55545,0.005676c-0.56723,0.022217 -1.131958,0.107422 -1.694,0.255859c-0.562286,0.148193 -1.095276,0.232178 -1.599548,0.251953c-0.88205,0.034607 -1.829819,0.008728 -2.842758,-0.077637c-0.950241,-0.089111 -1.842194,-0.306641 -2.676361,-0.652344c-0.770981,-0.348389 -1.421921,-0.859436 -1.953369,-1.532776c-0.531174,-0.673157 -0.819153,-1.577087 -0.863663,-2.711243c-0.04451,-1.13446 0.071152,-2.211609 0.346695,-3.232239c0.336044,-1.08606 0.736282,-2.143066 1.200745,-3.170837c0.464691,-1.028076 0.930374,-2.024597 1.397293,-2.989685c0.527679,-1.030212 0.960648,-2.057007 1.299149,-3.080139c0.111359,-0.382996 0.15802,-0.794983 0.140961,-1.236023c0.043457,-0.506531 0.11911,-0.982971 0.228012,-1.428955c0.260696,-1.398682 0.5177,-2.891785 0.770752,-4.47937c0.250824,-1.650574 0.633759,-3.148926 1.149063,-4.494263c0.631363,-1.602661 1.232483,-3.172119 1.803345,-4.709351c0.631088,-1.602417 1.262466,-3.204834 1.893829,-4.807495c0.287888,-0.705261 0.414429,-1.499084 0.380066,-2.381409c-0.037323,-0.945251 0.055496,-1.800781 0.27771,-2.566772c0.278015,-0.957397 0.713699,-1.921265 1.306549,-2.891235c0.593124,-0.969788 0.99707,-1.932373 1.212112,-2.887512c0.161728,-0.700317 0.289719,-1.462891 0.38353,-2.286926c0.094055,-0.824097 0.220581,-1.617859 0.379822,-2.381409c0.220001,-0.828979 0.472717,-1.627747 0.758118,-2.396484c0.285461,-0.768188 0.669052,-1.445984 1.150803,-2.032959c0.190308,-1.585083 0.572037,-3.114685 1.14537,-4.588684c0.57309,-1.473999 1.274826,-2.889954 2.105209,-4.247925c0.144424,-1.141357 0.352051,-2.285706 0.62265,-3.432251c0.270599,-1.146545 0.702332,-2.20459 1.295441,-3.174866c0.592865,-0.969727 1.318085,-1.786987 2.17569,-2.451843c0.920563,-0.667236 2.039932,-1.089539 3.358078,-1.267639c1.441879,-0.245789 2.569901,-0.447937 3.384293,-0.606018c0.874664,-0.223511 1.690048,-0.350342 2.446167,-0.380005c1.197174,-0.046997 2.589691,0.056335 4.177521,0.309326c1.648102,0.187866 3.240616,0.567139 4.777863,1.138c1.536957,0.570862 2.892197,1.338013 4.065933,2.301514c1.234253,0.898621 2.067841,2.033142 2.50029,3.404602c0.874771,2.994873 1.840317,5.891541 2.896835,8.690063c1.056274,2.798523 1.868088,5.795898 2.435181,8.992004c0.468231,0.675842 1.041077,1.600342 1.718231,2.772583c0.67691,1.172668 1.356537,2.408081 2.038635,3.706482c0.745087,1.296387 1.392975,2.53302 1.944183,3.710388c0.613953,1.174927 1.029083,2.105408 1.245422,2.790894c0.216125,0.685974 0.40097,1.372742 0.554108,2.060913c0.213623,0.622803 0.428741,1.277039 0.645081,1.96283c0.216095,0.68573 0.625061,1.458496 1.226898,2.318298c0.662079,0.794434 1.16449,1.531982 1.506805,2.212769c0.276581,0.6203 0.49295,1.306091 0.648529,2.057251c0.218567,0.748718 0.405914,1.498657 0.561523,2.249878c0.218811,0.748657 0.437378,1.497681 0.656219,2.246338c0.216095,0.685547 0.49292,1.305847 0.830292,1.860657c0.337311,0.554626 0.845703,1.44989 1.52533,2.685303c0.677155,1.172424 1.357758,2.439575 2.042328,3.801208c0.747559,1.359131 1.367676,2.691467 1.86087,3.997253c0.553436,1.240601 0.843872,2.207458 0.871063,2.900391c0.029663,0.756409 -0.165009,1.426453 -0.583801,2.010986c-0.418793,0.584534 -0.964996,1.142273 -1.638397,1.673462c-0.612854,0.466003 -1.289948,0.902771 -2.031006,1.310486c-0.680817,0.342041 -1.267151,0.680603 -1.758789,1.015686c-0.315094,0.01239 -0.912567,0.067383 -1.792145,0.164917c-0.81665,0.095093 -1.727966,0.194214 -2.733734,0.296692c-0.945038,0.037109 -1.856384,0.135925 -2.73349,0.296692c-0.816895,0.095093 -1.349884,0.179321 -1.599304,0.251953m-24.179016,-51.684265c-0.328629,1.275208 -0.596771,2.484436 -0.804138,3.628784c-0.207642,1.144104 -0.412811,2.351135 -0.615219,3.621399c-0.202698,1.27002 -0.498611,2.5755 -0.887741,3.915894c-0.391602,1.277405 -0.783417,2.555115 -1.175018,3.832581c-0.391602,1.277649 -0.750473,2.585327 -1.076614,3.923523c-0.265656,1.272461 -0.372406,2.570557 -0.32048,3.89386c0.01976,0.503784 0.224731,0.906189 0.615158,1.206177c0.387955,0.237305 0.836411,0.40918 1.345596,0.51532c0.508972,0.106384 1.016663,0.181091 1.523392,0.224243c0.566971,-0.022217 1.039734,-0.040771 1.417801,-0.055603c0.503998,-0.019775 1.134186,-0.044495 1.89032,-0.074158c0.753662,-0.092651 1.537552,-0.218201 2.351715,-0.376282c0.814163,-0.157837 1.564362,-0.345154 2.250122,-0.561523c0.682999,-0.279297 1.20639,-0.615173 1.569626,-1.008301c0.062958,-0.002502 0.093216,-0.035217 0.090744,-0.098206c-0.002472,-0.062927 -0.003708,-0.094421 -0.003708,-0.094421c-0.007431,-0.189148 -0.111771,-0.437561 -0.313034,-0.7453c-0.141022,-0.373108 -0.27684,-0.619995 -0.40773,-0.741272c-0.616653,-1.237854 -1.142319,-2.574158 -1.57724,-4.008606c-0.371948,-1.436707 -0.742645,-2.842163 -1.112137,-4.216125c-0.221313,-0.81189 -0.567032,-1.586914 -1.03775,-2.325989c-0.407959,-0.741272 -0.689499,-1.487549 -0.845383,-2.238708l-1.608597,-7.226013c-0.070374,-0.186462 -0.266953,-0.36792 -0.589493,-0.544983c-0.261978,-0.242004 -0.488556,-0.390747 -0.680191,-0.446289"/>
  <path fill="#000000" id="svg_30" d="m309.186493,671.740601l1.028809,4.503418l-0.650604,5.137329c0.284271,0.809265 0.499786,2.283813 0.64679,4.423828c0.20752,2.07428 0.35849,4.30896 0.452667,6.703247c0.154449,2.328918 0.242188,4.565796 0.263275,6.710693c0.083801,2.142761 0.144379,3.686462 0.181702,4.631531c0.039307,1.00824 -0.014374,2.051697 -0.161255,3.13031c-0.086639,1.012939 -0.173004,2.026184 -0.259399,3.039368c-0.036041,0.695618 -0.003906,1.514709 0.096436,2.45752c0.162964,0.940125 0.327271,1.911926 0.493011,2.915222c0.228424,1.000854 0.425659,2.002686 0.591156,3.005981c0.228455,1.000854 0.359009,1.910706 0.391144,2.729797c0.086517,2.205444 -0.352234,3.895142 -1.315735,5.068848c-0.963745,1.173767 -2.508331,2.023193 -4.633209,2.548523l0.018524,0.472473c-1.638458,0.064331 -3.272949,0.223022 -4.903961,0.47644c-1.630768,0.253418 -3.265533,0.411926 -4.903748,0.476196c-1.701416,0.066711 -3.079712,-0.478821 -4.134674,-1.636414c-0.992249,-1.160095 -1.520386,-2.559387 -1.584686,-4.197815c-0.03952,-1.007996 -0.047638,-2.017517 -0.0242,-3.028198c0.02121,-1.073486 0.010681,-2.146179 -0.031372,-3.217407c-0.090149,-0.69043 -0.213257,-1.411377 -0.368896,-2.162537c-0.095062,-0.81665 -0.15625,-1.571533 -0.183411,-2.264709c-0.039795,-1.00824 0.045563,-2.052917 0.255676,-3.134033c0.273071,-1.083618 0.38974,-2.129272 0.350189,-3.137512c-0.044495,-1.134216 -0.185944,-2.327881 -0.42453,-3.580627c-0.175385,-1.255432 -0.348541,-2.447632 -0.518982,-3.576904c-0.162994,-0.940308 -0.139587,-1.950806 0.070496,-3.032166c0.273102,-1.083374 0.38974,-2.129272 0.350189,-3.137512c-0.034607,-0.88208 -0.164917,-1.791931 -0.3909,-2.729797c-0.165741,-1.003296 -0.328766,-1.94342 -0.489319,-2.820801c-0.153351,-0.687927 -0.195404,-1.759399 -0.126038,-3.213379c0.069061,-1.454224 0.167145,-2.9729 0.294525,-4.555603c0.124634,-1.645569 0.253235,-3.196716 0.385284,-4.653442c0.132294,-1.456726 0.24646,-2.565857 0.342987,-3.326904c-1.00827,0.039795 -1.917114,0.201599 -2.726349,0.485596c-0.746216,0.281799 -1.491241,0.595032 -2.235016,0.939575c-0.746216,0.281799 -1.523956,0.564819 -2.33316,0.84906c-0.748962,0.218567 -1.627319,0.3479 -2.635559,0.387451c-1.008026,0.039551 -2.050232,0.01709 -3.126404,-0.066833c-1.078644,-0.146851 -2.099243,-0.422363 -3.061584,-0.826599c-0.9021,-0.469421 -1.651459,-1.071167 -2.248108,-1.805054c-0.599365,-0.796875 -0.923737,-1.825439 -0.973175,-3.08551l-0.174286,-4.442627c-0.07663,-1.953308 -0.04248,-3.500732 0.101898,-4.642639c0.207642,-1.143799 0.612854,-2.074646 1.21582,-2.792786c0.602783,-0.717651 1.401093,-1.285522 2.394531,-1.703369c1.05368,-0.482849 2.389923,-1.008728 4.008392,-1.577026c0.82428,0.094055 1.870209,0.210693 3.137756,0.350159c1.33075,0.137268 2.661285,0.274475 3.992004,0.411499c1.391296,0.071533 2.71933,0.145569 3.98465,0.222046c1.262604,0.013794 2.302368,-0.026978 3.118988,-0.122314c0.940338,-0.162781 1.911926,-0.327271 2.915222,-0.492798c1.066254,-0.167969 2.072052,-0.270447 3.01709,-0.307983c1.44931,-0.056641 2.936249,0.042969 4.46109,0.298462c1.585114,0.190308 3.102356,0.257141 4.551636,0.200073c2.205414,-0.086304 4.376892,-0.234802 6.514374,-0.445007c2.134796,-0.272949 4.304993,-0.452698 6.510651,-0.539246c1.386108,-0.054382 2.553009,-0.068604 3.500732,-0.042725c0.94751,0.025879 1.713531,0.248352 2.298096,0.667114c0.581787,0.355835 0.984589,0.971191 1.208313,1.845886c0.286743,0.872375 0.460907,2.09613 0.522675,3.671326c0.014832,0.378052 0.029663,0.756104 0.044495,1.134216c0.014832,0.378052 -0.001801,0.757629 -0.049957,1.138123c0.148193,0.562012 0.235901,1.189758 0.263336,1.882935c0.024719,0.629944 0.049438,1.260132 0.074127,1.890076c0.037109,0.945557 -0.305359,1.873901 -1.026642,2.785645c-0.658569,0.909241 -1.322052,1.69281 -1.990479,2.35022c-1.953308,0.076599 -3.915497,-0.067383 -5.886078,-0.431824c-1.970612,-0.364624 -3.9328,-0.508423 -5.886078,-0.431763c-1.575226,0.061829 -3.105621,0.468933 -4.590698,1.221191"/>
  <path fill="#000000" id="svg_29" d="m391.530914,725.970886l-7.656006,0.300293c-1.323334,0.051941 -2.680389,0.04187 -4.071686,-0.029907c-1.330536,-0.13678 -2.689056,-0.178345 -4.075348,-0.123962c-0.693207,0.027222 -1.701172,0.066772 -3.024567,0.118652c-1.325836,-0.011292 -2.680634,0.04187 -4.06424,0.159485c-1.38385,0.11731 -2.703491,0.263672 -3.958679,0.439087c-1.19223,0.173157 -2.034393,0.427124 -2.526031,0.762024c-1.260132,0.049438 -2.616211,0.070862 -4.067993,0.064758c-1.388763,-0.008606 -2.70813,0.137756 -3.958679,0.439087c-1.250183,0.301819 -2.566132,0.542603 -3.94754,0.722961c-1.378906,0.24353 -2.698273,0.389893 -3.958435,0.439331c-3.02475,0.118652 -5.233307,-0.678406 -6.62561,-2.390625c-1.392578,-1.712463 -2.14447,-3.986633 -2.255707,-6.82196c-0.088989,-2.268433 0.043884,-4.514221 0.398407,-6.736694c0.352295,-2.28595 0.484924,-4.531494 0.398407,-6.736633c-0.024719,-0.630188 -0.112396,-1.257935 -0.263306,-1.883179c-0.150909,-0.625 -0.270081,-1.251465 -0.357788,-1.879211c-0.100037,-0.942566 -0.137115,-1.887817 -0.111237,-2.835571c0.023438,-1.010498 -0.014893,-1.987244 -0.11496,-2.930054c-0.019745,-0.504028 -0.102509,-1.005554 -0.248199,-1.504639c-0.145721,-0.499268 -0.228729,-1.000793 -0.248505,-1.505066c-0.06427,-1.638184 -0.032593,-3.248596 0.094513,-4.831482c0.187866,-1.648132 0.249512,-3.291504 0.185242,-4.929688c-0.027191,-0.693176 -0.116119,-1.352356 -0.266785,-1.9776c-0.090393,-0.69043 -0.149078,-1.382385 -0.17627,-2.075806c-0.06427,-1.638184 -0.066559,-3.310364 -0.007111,-5.016724c0.121918,-1.708801 0.151123,-3.382202 0.086853,-5.02063c-0.084076,-2.142456 -0.261322,-4.249451 -0.531799,-6.321533c-0.273468,-2.13501 -0.451965,-4.273743 -0.535767,-6.415955c-0.022491,-0.5672 0.178375,-1.079895 0.602112,-1.538452c0.421509,-0.521362 0.909424,-0.950684 1.464294,-1.288025c0.617584,-0.339783 1.236664,-0.647888 1.856934,-0.924988c0.683289,-0.279053 1.273102,-0.522949 1.769684,-0.731873c0.504211,-0.019775 1.039703,-0.040771 1.606934,-0.062988c0.564514,-0.084961 1.098999,-0.137756 1.603027,-0.157776c1.701416,-0.066711 3.376038,-0.006042 5.024353,0.181824c1.648346,0.187561 3.297638,0.406921 4.948181,0.657471l0.65799,-0.120361l3.115509,-0.216858c4.34021,-0.359436 8.684387,-0.624695 13.032257,-0.795288c0.630188,-0.024719 1.262848,0.013794 1.89798,0.11499c0.632416,0.038269 1.266327,0.108215 1.901459,0.209229c-0.063232,0.002686 0.031494,-0.001038 0.2836,-0.011169c0.24942,-0.072571 0.435852,-0.142944 0.55957,-0.211121l1.224915,-0.142883l4.609222,-0.748962c0.312622,-0.075317 0.626251,-0.118896 0.941589,-0.131287c0.377838,-0.014832 0.724396,-0.028381 1.03949,-0.040771c0.693176,-0.027161 1.420288,0.00708 2.181366,0.103638c0.761078,0.096497 1.495605,0.32019 2.203583,0.670837c0.259308,0.17926 0.536133,0.799561 0.830292,1.860657c0.294159,1.061584 0.530029,2.251343 0.70813,3.569519c0.240814,1.315918 0.416199,2.57135 0.526367,3.765808c0.172668,1.192444 0.266785,1.9776 0.28186,2.355652c0.083801,2.142456 -0.454102,3.709656 -1.614166,4.701904c-1.099579,0.926575 -2.657776,1.429688 -4.674042,1.508545c-1.827332,0.071899 -3.629395,-0.01532 -5.406128,-0.261169c-1.713531,-0.248352 -3.4841,-0.336609 -5.311432,-0.264893c-1.827362,0.071655 -3.688934,0.081665 -5.583954,0.029358c-1.834991,-0.116943 -3.666077,-0.139954 -5.493164,-0.068298c-1.071228,0.041992 -2.199249,0.244202 -3.384308,0.606018c-1.124298,0.296631 -2.014374,0.930908 -2.670441,1.903381c-0.189148,0.00769 -0.279907,0.105835 -0.272491,0.294739c0.002472,0.062988 0.036438,0.124939 0.101868,0.185425c0.087952,0.627747 0.15033,1.414124 0.187408,2.359131c0.037079,0.945313 0.135895,1.856628 0.296692,2.733521c0.223511,0.875122 0.568268,1.618896 1.034271,2.231567c0.465515,0.612854 1.202759,0.899536 2.211029,0.859985c1.386047,-0.054382 2.735962,-0.233459 4.049408,-0.537781c1.373718,-0.369202 2.753845,-0.580994 4.140167,-0.63562c1.386322,-0.054138 2.743378,-0.044312 4.071686,0.029663c1.325806,0.011353 2.680389,-0.041809 4.06424,-0.159424c1.25766,-0.112671 2.482849,-0.255066 3.675079,-0.427979c1.252716,-0.238586 2.509369,-0.382751 3.769745,-0.43219c1.638214,-0.06427 2.94342,0.231934 3.915924,0.888c1.032959,0.590393 1.583923,1.767761 1.653137,3.532166c0.009888,0.252136 -0.011719,0.505249 -0.064789,0.759827c0.007172,0.189148 0.015808,0.409546 0.02597,0.661682c-0.02121,1.073669 -0.005707,2.272339 0.046173,3.595459c0.049438,1.260132 -0.061005,2.46344 -0.331604,3.610229c-0.210083,1.081116 -0.678253,2.014465 -1.404724,2.800232c-0.726715,0.785828 -1.877563,1.209595 -3.452789,1.271423c-2.016266,0.079102 -4.030304,0.221436 -6.041626,0.426453c-2.014008,0.142334 -4.029053,0.25293 -6.045563,0.332031c-0.945038,0.037048 -2.215302,-0.165649 -3.810303,-0.608093c-1.534515,-0.507629 -3.026398,-0.733154 -4.475677,-0.67627c-0.504272,0.019775 -0.975555,0.070007 -1.414093,0.150269c-0.438568,0.080322 -0.906403,0.225037 -1.402985,0.433472c-1.197144,0.04718 -2.072052,0.270752 -2.624207,0.671021c-0.554871,0.337341 -0.945862,0.826172 -1.173035,1.466003c-0.167114,0.574402 -0.23291,1.302734 -0.198303,2.185059c0.095123,0.816895 0.161194,1.697754 0.198303,2.642761c0.032074,0.819092 0.06546,1.669922 0.100098,2.552002c0.034607,0.882324 0.160217,1.666199 0.376312,2.35199c0.279053,0.683228 0.680878,1.266846 1.20462,1.751343c0.584534,0.418762 1.412262,0.607056 2.48349,0.565002c1.32309,-0.05188 2.704498,-0.232239 4.14389,-0.540955c1.439392,-0.309204 2.881287,-0.554993 4.325623,-0.737793c2.326416,-0.217651 4.624054,-0.370605 6.892456,-0.459839c2.26593,-0.151978 4.562042,-0.336853 6.888702,-0.55426c1.068512,-0.10498 2.105774,-0.20874 3.111572,-0.311523c1.066254,-0.168213 2.13504,-0.272949 3.206238,-0.315247c1.638184,-0.06427 3.005402,0.197693 4.101349,0.785828c1.095947,0.587952 1.679657,1.795837 1.751312,3.623169c0.027191,0.693176 -0.041321,1.358276 -0.205505,1.995911c-0.103912,0.572144 -0.142181,1.204834 -0.11499,1.89801c0.034607,0.882019 0.130951,1.730164 0.289276,2.544556c0.157837,0.813904 0.254456,1.662292 0.289307,2.544556c0.049133,1.259888 -0.343689,2.506104 -1.178741,3.738098c-0.7724,1.229065 -1.851624,1.871033 -3.237671,1.925415"/>
  <path fill="#000000" id="svg_28" d="m469.498718,717.989502c0.051666,1.323364 -0.31955,2.316223 -1.113678,2.978271c-0.731659,0.659851 -1.659637,1.138245 -2.783691,1.434631c-1.061584,0.294128 -2.2211,0.497253 -3.47876,0.60968c-1.197174,0.046997 -2.236908,0.087769 -3.118958,0.122375l-2.453827,0.191101c-1.323364,0.051941 -2.902313,0.018982 -4.737061,-0.098206c-1.834778,-0.117493 -3.364319,-0.498901 -4.588684,-1.145386c-0.25708,-0.116028 -0.520325,-0.389771 -0.789764,-0.820923c-0.271637,-0.494324 -0.543549,-0.988464 -0.81546,-1.482544c-0.211395,-0.55957 -0.421326,-1.087891 -0.630005,-1.584473c-0.208923,-0.496582 -0.381195,-0.868774 -0.516998,-1.115662c-0.68457,-1.361633 -1.428406,-2.626282 -2.231506,-3.793762c-0.742615,-1.232971 -1.579651,-2.462463 -2.511169,-3.687988c-0.002716,-0.063171 -0.07309,-0.249634 -0.211151,-0.559814c-0.13855,-0.309875 -0.278076,-0.651489 -0.418854,-1.024658c-0.141022,-0.373108 -0.280792,-0.714966 -0.418854,-1.024902c-0.078033,-0.375854 -0.150909,-0.625244 -0.218811,-0.748718c-0.274353,-0.557312 -0.610474,-1.080688 -1.008331,-1.569885c-0.334869,-0.491638 -0.607971,-1.017212 -0.819122,-1.577271c-0.213898,-0.622498 -0.396057,-1.246277 -0.546692,-1.871521c-0.087921,-0.627747 -0.301544,-1.250488 -0.641388,-1.868347c-0.334869,-0.491638 -0.791962,-0.88385 -1.371552,-1.176697c-0.518829,-0.358337 -1.061981,-0.526184 -1.628937,-0.503967c-0.504242,0.019775 -0.94162,0.131531 -1.312256,0.335266c-1.070984,0.042297 -2.04776,0.080627 -2.930084,0.11499c-0.884491,-0.028381 -1.638153,0.064514 -2.260956,0.278137c-0.622528,0.213867 -1.079224,0.641968 -1.369598,1.284241c-0.292603,0.57959 -0.413177,1.531067 -0.361298,2.854126c0.061829,1.5755 0.279816,3.113098 0.654236,4.612976c0.371948,1.43689 0.587708,2.911499 0.647034,4.423767c0.022247,0.566956 0.014252,1.166931 -0.024261,1.799561c-0.04071,0.569702 -0.049957,1.137939 -0.02771,1.704895c0.034607,0.882324 0.134674,1.825134 0.300415,2.828186c0.225983,0.937866 0.357513,1.879456 0.394592,2.824463c0.024719,0.630188 -0.018494,1.136719 -0.129578,1.519714c-0.050873,0.317566 -0.165924,0.60614 -0.34494,0.865662c-0.179291,0.259277 -0.453979,0.491028 -0.824646,0.694763c-0.307678,0.201294 -0.708557,0.438232 -1.202667,0.7099c-0.925507,0.541321 -1.762512,0.921021 -2.51123,1.139832c-0.68573,0.21637 -1.373962,0.369507 -2.064636,0.459656c-0.688232,0.153137 -1.443115,0.214539 -2.264679,0.183472c-0.756134,0.029663 -1.638214,0.06427 -2.646454,0.103821c-1.701416,0.066711 -3.154419,0.029114 -4.358978,-0.112793c-1.141632,-0.144958 -2.101746,-0.485657 -2.880127,-1.023193c-0.715393,-0.539795 -1.28302,-1.338135 -1.703094,-2.394287c-0.357117,-1.058838 -0.57016,-2.47052 -0.639404,-4.234863c-0.044495,-1.134216 -0.057495,-2.269653 -0.039032,-3.406311c0.081696,-1.13916 0.099915,-2.276062 0.05545,-3.409973c-0.02475,-0.630188 -0.111206,-1.22644 -0.259369,-1.788696c-0.087708,-0.627502 -0.145142,-1.287903 -0.172333,-1.981079c-0.126068,-3.213684 -0.155212,-6.367859 -0.087433,-9.462769c0.131012,-3.097595 0.133331,-6.253235 0.007538,-9.466675c-0.034851,-0.88208 -0.099701,-1.731628 -0.194794,-2.548279c-0.095123,-0.81665 -0.127228,-1.635742 -0.096436,-2.45752c0.035797,-0.695435 0.071808,-1.391296 0.107574,-2.086914c0.096283,-0.761108 0.130798,-1.48822 0.103607,-2.181335c-0.034576,-0.881836 -0.195129,-1.759216 -0.481873,-2.631409c-0.223724,-0.874878 -0.352814,-1.753479 -0.387421,-2.635559c-0.027191,-0.693176 0.041534,-1.358276 0.20575,-1.995911c0.224945,-0.703064 0.3237,-1.401123 0.296509,-2.094299c-0.042023,-1.071228 -0.212463,-2.2005 -0.511597,-3.387756c-0.236084,-1.190002 -0.438019,-2.317749 -0.605713,-3.384277c-0.161041,-0.877136 -0.134949,-1.82489 0.077667,-2.843018c0.275543,-1.020386 0.395874,-1.971619 0.361267,-2.853943c-0.027161,-0.692871 -0.114868,-1.320618 -0.263306,-1.882874c-0.151154,-0.625244 -0.240082,-1.284424 -0.267273,-1.9776c-0.034607,-0.88208 0.092407,-1.675842 0.379822,-2.381348c0.285431,-0.768494 0.963745,-1.173767 2.034973,-1.21582c0.315063,-0.012329 0.56842,0.009277 0.759857,0.065063c0.254578,0.053101 0.54068,0.104919 0.858002,0.155762c0.635132,0.101257 1.363434,0.167297 2.185059,0.19812c0.882294,-0.034363 1.764343,-0.06897 2.646698,-0.103821c0.945038,-0.036865 1.858826,-0.072693 2.740906,-0.107544c0.945282,-0.036865 1.764374,-0.06897 2.45752,-0.096436c1.832306,0.05426 3.667084,0.171753 5.504303,0.351929c1.897766,0.115234 3.760284,0.136536 5.587646,0.064819c0.945038,-0.037048 1.886627,-0.168335 2.824493,-0.394836c0.998352,-0.291443 2.001434,-0.456909 3.009674,-0.49646c1.260132,-0.049438 2.493988,0.02832 3.701019,0.233215c1.20459,0.142456 2.436951,0.188416 3.697327,0.138977c0.693146,-0.027161 1.415344,-0.118347 2.166534,-0.273926c0.811676,-0.221313 1.564087,-0.345398 2.257233,-0.372864c1.134216,-0.04425 2.338806,0.097961 3.613983,0.426331c1.274963,0.328613 2.555115,0.783447 3.839996,1.363953c1.345551,0.51532 2.600189,1.128784 3.764038,1.840149c1.161407,0.648682 2.165344,1.303772 3.011658,1.964783c2.737915,2.227539 4.64502,4.992676 5.721313,8.295227c1.07605,3.302551 1.680817,6.65509 1.814514,10.057678c0.148071,3.78064 -0.512238,7.056702 -1.981171,9.827881c-1.408417,2.706055 -3.648315,5.12915 -6.719666,7.268982c-0.491913,0.334595 -1.047974,0.640747 -1.66803,0.917297c-0.557343,0.274414 -1.113434,0.580261 -1.66806,0.917603c-0.368164,0.266724 -0.54126,0.683655 -0.518768,1.250916c0.046722,1.197144 0.561279,2.249817 1.543884,3.15802c1.573792,1.51593 2.830536,2.981201 3.76947,4.395874c0.936432,1.351501 2.007721,2.918884 3.213623,4.701721c0.405243,0.678345 0.975586,1.539429 1.710785,2.583435c0.735168,1.044006 1.43985,2.120789 2.114532,3.230286c0.737671,1.106995 1.348145,2.187439 1.831207,3.241333c0.546021,1.051453 0.832764,1.923645 0.859955,2.616821m-44.250061,-51.748779c-0.305206,0.264465 -0.791901,0.725281 -1.460327,1.382629c-0.668488,0.657166 -0.992798,1.237976 -0.973022,1.742004c0.042023,1.071228 0.114319,2.10968 0.217072,3.115479c0.100067,0.94281 0.169861,1.918091 0.209412,2.926331c0.017273,0.44104 0.043213,1.102722 0.07785,1.984802c0.032166,0.819336 0.097015,1.668701 0.19458,2.548279c0.160797,0.877136 0.350342,1.690308 0.569122,2.438782c0.281586,0.74646 0.679688,1.235657 1.193542,1.468018c0.32251,0.176758 0.672577,0.257629 1.050873,0.242798c0.37558,-0.078064 0.722168,-0.091675 1.03949,-0.040771c0.189148,-0.007446 0.379547,0.016663 0.570923,0.072205c0.188904,-0.007446 0.409546,-0.016052 0.661682,-0.026001c1.512238,-0.059326 2.981903,-0.400757 4.408936,-1.024841c1.427032,-0.624084 2.861511,-1.058716 4.303375,-1.304993c0.877136,-0.160522 1.755768,-0.289612 2.635315,-0.387207c0.879608,-0.097534 1.760681,-0.163635 2.642761,-0.198242c1.240601,-0.553711 2.178802,-1.568542 2.815094,-3.045288c0.696808,-1.541626 1.020508,-2.94281 0.971313,-4.203186c-0.012604,-0.314819 -0.094116,-0.785156 -0.245026,-1.4104c-0.64856,-2.05719 -1.811829,-3.557678 -3.489563,-4.501465c-1.615051,-0.946411 -3.436859,-1.537659 -5.465485,-1.773621c-2.031342,-0.298706 -4.11676,-0.374817 -6.256744,-0.227844c-2.142426,0.084106 -4.032745,0.158264 -5.671204,0.222534"/>
  <path fill="#000000" id="svg_27" d="m522.219421,721.695801c-1.70636,-0.059143 -3.338623,0.162537 -4.896545,0.665588c-1.557922,0.502625 -2.967102,0.77887 -4.227478,0.828308c-4.851868,0.190369 -9.606232,-0.348877 -14.262817,-1.617737c-4.5961,-1.33429 -8.668732,-3.793518 -12.217163,-7.377686l-4.926178,-4.918579c-0.354401,-0.995911 -0.837708,-2.049866 -1.449158,-3.161804c-0.548492,-1.114441 -1.129974,-2.259094 -1.744141,-3.43396c-0.613953,-1.175171 -1.163696,-2.321106 -1.649506,-3.437988c-0.425018,-1.182312 -0.657196,-2.277649 -0.696747,-3.285889c-0.086517,-2.205383 -0.078583,-4.414551 0.023804,-6.62738c0.100159,-2.275757 0.106873,-4.516418 0.020355,-6.722046c-0.056824,-1.449036 -0.113708,-2.898315 -0.170563,-4.347656c-0.056824,-1.44928 -0.050507,-2.901062 0.018616,-4.355286c0.119934,-1.77179 0.489288,-3.616211 1.108276,-5.533936c0.679504,-1.982971 1.520386,-3.877686 2.522156,-5.684082c0.999542,-1.869324 2.09848,-3.616272 3.297058,-5.24115c1.259064,-1.690369 2.529022,-3.096863 3.810333,-4.220032c1.341583,-1.188538 3.060242,-2.423462 5.155701,-3.704895c2.09552,-1.280945 3.980225,-2.301636 5.654449,-3.061829c0.060486,-0.06543 0.434845,-0.174683 1.123077,-0.32782c0.748718,-0.218567 1.560394,-0.43988 2.435303,-0.663391c0.874634,-0.223755 1.656067,-0.412354 2.344299,-0.565491c0.75119,-0.155579 1.158264,-0.234619 1.221222,-0.237305c2.331604,-0.091248 4.732117,-0.027771 7.202026,0.190918c2.530365,0.153015 5.0065,0.529358 7.428009,1.128357c2.48468,0.596741 4.851929,1.419067 7.101807,2.466492c2.249939,1.047974 4.260071,2.420593 6.030701,4.117981c0.526245,0.547729 1.054016,1.126404 1.582703,1.736816c0.528992,0.610413 1.056458,1.189087 1.582947,1.736267c0.790527,0.852661 1.651855,1.891724 2.583374,3.117249c0.929077,1.162842 1.418518,2.374146 1.467957,3.634277c0.01239,0.315125 -0.159485,0.763855 -0.51532,1.345642c-0.355774,0.581787 -0.773315,1.197815 -1.252869,1.847778c-0.479309,0.649719 -0.959778,1.268188 -1.441833,1.854919c-0.484192,0.524048 -0.815979,0.91571 -0.994995,1.175232c-0.678284,0.405273 -1.322693,0.872253 -1.933105,1.401245c-0.610413,0.528687 -1.222046,1.02594 -1.834717,1.491699c-0.612854,0.466003 -1.291199,0.871033 -2.034973,1.215759c-0.683228,0.279358 -1.465942,0.436401 -2.348022,0.470764c-0.819336,0.03241 -1.582886,-0.127075 -2.290588,-0.477966c-0.71051,-0.414124 -1.361694,-0.924866 -1.953369,-1.532593c-0.591919,-0.60791 -1.153625,-1.248596 -1.684814,-1.921936c-0.531189,-0.673401 -1.027466,-1.25354 -1.488281,-1.740295c-0.526245,-0.54718 -1.145935,-1.059448 -1.858887,-1.536499c-0.712952,-0.476563 -1.48761,-0.919678 -2.324036,-1.328552c-0.773438,-0.411377 -1.574646,-0.727051 -2.403625,-0.947021c-0.829224,-0.220032 -1.621796,-0.315063 -2.377899,-0.2854c-1.260132,0.049438 -2.414978,0.378784 -3.463654,0.987793c-0.988495,0.543823 -1.974487,1.15033 -2.957794,1.820068c-0.67337,0.531433 -1.41098,1.033386 -2.213013,1.506775c-0.741302,0.407776 -1.448639,0.877197 -2.121765,1.40863c-0.918091,0.730286 -1.701599,1.675964 -2.350006,2.837341c-0.585693,1.158936 -1.041504,2.407593 -1.367676,3.745483c-0.326141,1.338196 -0.556641,2.703918 -0.691406,4.097656c-0.074005,1.328308 -0.088776,2.559387 -0.044281,3.693604c0.125824,3.213684 0.912323,6.369934 2.359253,9.468445c1.507202,3.033142 3.255646,5.772949 5.244873,8.219299c2.84433,1.718628 5.936157,2.512512 9.275787,2.381531c2.709412,-0.106323 4.767883,-0.723633 6.175171,-1.851685c1.470215,-1.130554 2.652161,-2.375977 3.545288,-3.736389c0.95636,-1.362915 1.822937,-2.595642 2.600281,-3.699036c0.840027,-1.105774 1.98468,-1.687317 3.43396,-1.744141c0.882324,-0.034607 2.059143,0.203308 3.53064,0.713379c1.468811,0.447449 2.882324,1.086182 4.240295,1.916382c1.418457,0.764709 2.65271,1.662964 3.703003,2.694397c1.049988,1.031982 1.595032,2.051941 1.634583,3.059937c0.061829,1.575195 -0.655334,3.402222 -2.151733,5.480286c-1.496094,2.078064 -3.2771,4.135986 -5.342651,6.17334c-2.068542,1.974365 -4.207214,3.762329 -6.41626,5.363586c-2.209045,1.601257 -3.995605,2.712646 -5.359436,3.334229"/>
  <path fill="#000000" id="svg_26" d="m620.436584,672.214966c0.138428,3.528809 0.093872,7.222412 -0.133362,11.080872c-0.166809,3.792969 -0.624329,7.408447 -1.373169,10.845642c-0.212585,1.017883 -0.640625,2.170898 -1.284058,3.458191c-0.583252,1.221863 -1.291443,2.480469 -2.124023,3.775208c-0.772156,1.229309 -1.577271,2.428345 -2.414856,3.597107c-0.840027,1.106079 -1.559082,2.080811 -2.157104,2.924622c-0.358276,0.519104 -1.025513,1.207947 -2.001648,2.066589c-0.97583,0.858643 -2.013733,1.751282 -3.113281,2.677856c-1.102295,0.863586 -2.17511,1.662964 -3.219177,2.398132c-1.044006,0.735413 -1.846069,1.208618 -2.405579,1.419739c-0.559814,0.211182 -1.243103,0.490784 -2.049805,0.838013c-0.809265,0.283997 -1.618469,0.568237 -2.427673,0.852478c-0.809448,0.284058 -1.619873,0.536804 -2.43158,0.757874c-0.746216,0.281799 -1.400513,0.496887 -1.962524,0.645081c-0.373352,0.140747 -0.842163,0.254028 -1.406921,0.338989c-0.501526,0.083008 -0.941345,0.131775 -1.319397,0.146606l-7.183228,0.281799c-0.5672,0.022217 -1.518677,-0.098328 -2.854126,-0.361267c-1.270264,-0.202698 -2.670227,-0.494873 -4.199768,-0.876831c-1.464111,-0.320984 -2.866272,-0.676392 -4.206909,-1.065247c-1.340637,-0.389404 -2.33075,-0.697388 -2.970886,-0.925049c-1.728577,-0.626404 -3.600403,-1.68866 -5.615479,-3.187256c-1.952148,-1.501343 -3.817261,-3.195251 -5.595276,-5.081848c-1.780273,-1.949524 -3.342651,-3.970886 -4.687073,-6.063904c-1.281189,-2.095459 -2.146667,-4.049377 -2.596436,-5.861877c-0.140991,-0.373352 -0.324402,-1.028625 -0.550598,-1.966492c-0.226013,-0.937622 -0.453247,-1.906982 -0.681946,-2.907776c-0.231201,-1.063599 -0.426941,-2.03418 -0.587463,-2.91156c-0.160767,-0.877075 -0.245728,-1.441589 -0.255676,-1.69397c-0.041992,-1.070984 -0.018555,-2.081726 0.070251,-3.031921c0.149658,-1.015442 0.203064,-2.058899 0.161011,-3.130127c-0.158203,-4.032776 0.015015,-7.668335 0.51886,-10.906738c0.564636,-3.303833 1.59436,-6.815125 3.089417,-10.534119c0.116089,-0.257019 0.383606,-0.67749 0.802429,-1.261963c0.48175,-0.587036 0.962524,-1.205261 1.441772,-1.855469c0.542236,-0.652161 1.054504,-1.271912 1.536499,-1.858643c0.544739,-0.589478 0.907959,-0.982117 1.089722,-1.178955c1.510925,-1.699768 3.055847,-3.338257 4.634949,-4.914795c1.641846,-1.578979 3.385803,-2.972778 5.231873,-4.181152c1.845825,-1.208374 3.796021,-2.168274 5.850769,-2.880066c2.052063,-0.774719 4.27533,-1.209045 6.669922,-1.302979c0.44104,-0.017334 1.261353,-0.017944 2.461243,-0.001953c1.262573,0.013794 2.558228,0.057556 3.88623,0.131592c1.391296,0.071777 2.656311,0.148315 3.79541,0.229736c1.202393,0.079224 1.994934,0.174255 2.37793,0.285339c0.89447,0.280762 1.75769,0.562256 2.589111,0.845215c0.831421,0.282959 1.694458,0.564697 2.58905,0.845154c1.020447,0.275269 2.038513,0.487854 3.054199,0.637207c1.076172,0.084167 2.128235,0.358459 3.156067,0.822693c0.19165,0.055786 0.451172,0.235046 0.778625,0.537537c0.387695,0.237305 0.809875,0.53656 1.265747,0.897095c0.453369,0.297791 0.876526,0.628052 1.269409,0.991272c0.390442,0.300293 0.682678,0.509521 0.876831,0.628296c0.909241,0.658569 1.919373,1.470825 3.029907,2.437073c1.171509,0.900513 2.283264,1.898499 3.336304,2.99292c1.049988,1.031921 2.008057,2.130005 2.87439,3.295288c0.866028,1.165039 1.477539,2.276978 1.8349,3.335815c0.359314,1.121826 0.658447,2.309387 0.897034,3.561829c0.238342,1.252991 0.538635,2.471741 0.900696,3.656555c0.072876,0.249878 0.184631,0.687195 0.335266,1.312195c0.211426,0.559814 0.423828,1.151123 0.637695,1.773621c0.211182,0.559814 0.390808,1.120605 0.539246,1.682922c0.145752,0.499023 0.221069,0.811646 0.226257,0.937805m-22.083801,1.718018c-0.611694,-1.111938 -1.160217,-2.226379 -1.645691,-3.343262c-0.422852,-1.119324 -0.908325,-2.235962 -1.456848,-3.350647c-0.485535,-1.116882 -1.187988,-2.130432 -2.107178,-3.041138c-0.921814,-0.973633 -1.931702,-1.785889 -3.030151,-2.437256c-1.098389,-0.650879 -2.285339,-1.140625 -3.560303,-1.469543c-1.277466,-0.391602 -2.515015,-0.563782 -3.712158,-0.516785c-0.756104,0.029663 -1.60199,0.188965 -2.53717,0.478149c-0.872192,0.286743 -1.649902,0.569519 -2.333191,0.848572c-1.986816,0.83551 -3.680176,1.911743 -5.079773,3.228699c-1.339355,1.251831 -2.450928,2.683594 -3.334167,4.295898c-0.883179,1.612549 -1.508362,3.372437 -1.875488,5.280273c-0.366882,1.90741 -0.510925,3.869629 -0.431824,5.885864c0.093933,2.394592 0.504456,4.807983 1.230835,7.240845c0.787048,2.367371 1.880615,4.50177 3.280334,6.403137c1.462952,1.898926 3.227417,3.438904 5.293091,4.620178c2.063477,1.118286 4.449829,1.624023 7.159241,1.517761c0.945313,-0.037109 1.851685,-0.261841 2.718933,-0.6745c0.930176,-0.415405 1.829163,-0.829285 2.696655,-1.24176c1.29834,-0.682312 2.288086,-1.194153 2.968872,-1.536682c0.743774,-0.344543 1.297119,-0.713562 1.660645,-1.106262c0.423462,-0.458313 0.779297,-1.040344 1.067444,-1.745911c0.350586,-0.707947 0.783813,-1.734497 1.298889,-3.080383c0.232361,-0.513855 0.497437,-0.997498 0.795227,-1.450928c0.297791,-0.453369 0.562622,-0.937256 0.794983,-1.451172c0.055542,-0.191345 0.091309,-0.887207 0.1073,-2.086609c0.01355,-1.262878 0.023376,-2.620178 0.02948,-4.071899c0.003906,-1.514771 -0.020264,-2.933777 -0.072144,-4.256897c0.008545,-1.388794 0.032959,-2.368042 0.074158,-2.937744"/>
  <path fill="#000000" id="svg_25" d="m669.293701,715.357971l0.094482,-0.003723l-0.192871,-0.086975l-1.610413,-0.031433l-6.820251,-0.111328c-0.378052,0.014832 -0.756165,0.029663 -1.134216,0.044495c-0.380554,-0.048157 -0.759827,-0.064819 -1.137878,-0.049988c-0.88208,0.034607 -1.82489,0.134644 -2.827942,0.300171c-0.940369,0.163269 -1.778564,0.511719 -2.515198,1.04541c-1.449036,0.056824 -2.895813,0.176636 -4.340454,0.359436c-1.381104,0.180603 -2.764954,0.297913 -4.151245,0.352295c-2.961548,0.116211 -5.329346,0.082703 -7.103638,-0.099976c-1.77179,-0.119934 -3.146179,-0.570801 -4.123596,-1.353027c-0.916931,-0.847473 -1.56604,-2.115845 -1.947876,-3.804688c-0.318848,-1.691467 -0.536255,-4.017883 -0.652466,-6.979431c-0.034607,-0.88208 0.025513,-1.767883 0.17981,-2.657593c0.217529,-0.892212 0.277344,-1.778015 0.179504,-2.657837c-0.114868,-1.320618 -0.26123,-2.640015 -0.439087,-3.958435c-0.11731,-1.38385 -0.202209,-2.737183 -0.25415,-4.060791c-0.079102,-2.015991 -0.062256,-4.004761 0.050049,-5.965698c0.175476,-1.962952 0.223572,-3.952881 0.14447,-5.969421c-0.054382,-1.386292 -0.296448,-2.733459 -0.72644,-4.041992c-0.430237,-1.308289 -0.672302,-2.655701 -0.726685,-4.041992c-0.044495,-1.134216 0.004272,-2.303589 0.146423,-3.508423c0.202698,-1.269775 0.280457,-2.503601 0.233459,-3.70105l-0.096375,-2.457275c-0.001343,-1.640686 -0.065613,-3.279114 -0.19281,-4.9151c-0.066772,-1.701172 -0.195251,-3.368591 -0.385437,-5.002136c-0.097839,-0.879578 -0.289856,-1.755432 -0.576599,-2.627625c-0.28894,-0.935425 -0.452209,-1.875732 -0.489319,-2.820801c-0.056824,-1.44928 0.311951,-2.504822 1.106323,-3.167175c0.794617,-0.662292 1.722351,-1.140686 2.783691,-1.43457c1.124512,-0.296387 2.220825,-0.497314 3.289551,-0.602539c1.066223,-0.167969 1.843018,-0.482239 2.329712,-0.943298c1.27002,0.202698 2.632202,0.338623 4.086548,0.407776c1.454163,0.069336 2.78717,0.269287 3.999451,0.600403c1.211975,0.331116 2.213501,0.922974 3.004211,1.775391c0.853699,0.850159 1.315186,2.157227 1.384399,3.92157c0.029602,0.756165 -0.03418,1.547485 -0.190979,2.373962c-0.093811,0.824036 -0.12616,1.614136 -0.096497,2.3703c0.034607,0.882263 0.102173,1.794617 0.202271,2.737427c0.100037,0.94281 0.167358,1.855347 0.201965,2.737427c0.03717,0.945068 0.012451,1.924316 -0.074219,2.9375c-0.088867,0.949951 -0.11499,1.897766 -0.077637,2.842773c0.027161,0.69342 0.15155,1.445801 0.372559,2.257507c0.281799,0.745972 0.436157,1.465942 0.463379,2.159119c0.044495,1.134155 -0.132813,2.2453 -0.531921,3.334045c-0.398987,1.088562 -0.576294,2.199646 -0.53186,3.334106c0.041992,1.071228 0.179993,2.170227 0.413391,3.296753c0.29657,1.124268 0.46582,2.222046 0.507813,3.293274c0.022278,0.567261 -0.047485,1.201111 -0.209473,1.901489c-0.098633,0.698303 -0.199951,1.333191 -0.303833,1.905396c0.153137,0.688232 0.339172,1.406677 0.557983,2.155396c0.279114,0.683228 0.495422,1.369019 0.64856,2.056946c-0.217529,0.892212 -0.339111,1.811951 -0.36499,2.759705c-0.026062,0.947754 -0.020203,1.894043 0.016785,2.839294c0.022034,0.567017 0.229492,1.032349 0.62262,1.395569c0.453369,0.297791 0.967285,0.529907 1.541931,0.696594c0.572144,0.103882 1.142822,0.176147 1.712524,0.216858c0.632385,0.038513 1.137878,0.050171 1.515991,0.035339c2.142151,-0.084045 4.244507,-0.387451 6.306641,-0.910095c2.062195,-0.522827 4.132751,-0.824829 6.212219,-0.906372c0.756165,-0.029663 1.671204,-0.034058 2.744873,-0.012878c1.136658,0.018494 2.2453,0.13269 3.32666,0.342773c1.080872,0.209839 2.010742,0.583801 2.789124,1.121094c0.775879,0.474365 1.183655,1.215637 1.223206,2.224182l0.133484,3.402588c0.046936,1.197083 0.251343,2.388123 0.613647,3.572937c0.361816,1.185059 0.567444,2.407532 0.617126,3.667908c0.059082,1.511963 -0.274475,2.661255 -1.000916,3.447083c-0.726257,0.785767 -1.650513,1.358337 -2.772339,1.717896c-1.12207,0.359619 -2.343323,0.596985 -3.66394,0.711853c-1.260376,0.049438 -2.424805,0.126648 -3.493591,0.231628"/>
  <path fill="#000000" id="svg_24" d="m758.705994,666.790649c0.138428,3.528809 0.093872,7.222412 -0.133179,11.080811c-0.166992,3.79303 -0.624573,7.408508 -1.373108,10.845703c-0.212585,1.017883 -0.640869,2.170898 -1.284363,3.458191c-0.583191,1.221863 -1.291138,2.480408 -2.123779,3.775146c-0.772339,1.229309 -1.577209,2.428406 -2.414795,3.597168c-0.840271,1.106079 -1.559326,2.080811 -2.15741,2.924622c-0.358276,0.519104 -1.025452,1.207947 -2.001343,2.066589c-0.976135,0.858643 -2.013977,1.751282 -3.113586,2.677795c-1.102051,0.863586 -2.175049,1.663025 -3.219116,2.398193c-1.044006,0.735413 -1.845825,1.208618 -2.405396,1.419739c-0.559814,0.211182 -1.243042,0.490723 -2.049805,0.837952c-0.809448,0.284058 -1.618652,0.568298 -2.427856,0.852539c-0.809204,0.283997 -1.619934,0.536804 -2.43158,0.757874c-0.746277,0.281738 -1.400513,0.496887 -1.962524,0.645081c-0.373169,0.140747 -0.841919,0.253967 -1.406677,0.338928c-0.501526,0.083008 -0.941589,0.131836 -1.319397,0.146667l-7.183472,0.281799c-0.567261,0.022217 -1.518494,-0.098389 -2.854187,-0.361267c-1.27002,-0.202698 -2.669922,-0.494934 -4.199463,-0.876892c-1.464111,-0.320923 -2.866516,-0.676331 -4.206909,-1.065247c-1.340698,-0.389343 -2.331055,-0.697388 -2.970886,-0.925049c-1.728577,-0.626404 -3.600464,-1.68866 -5.61554,-3.187256c-1.952332,-1.501282 -3.8172,-3.195251 -5.595215,-5.081787c-1.780518,-1.949524 -3.342896,-3.970886 -4.687073,-6.063904c-1.281433,-2.095459 -2.146912,-4.049377 -2.59668,-5.861877c-0.140808,-0.373352 -0.324402,-1.028625 -0.550415,-1.966492c-0.226196,-0.937622 -0.45343,-1.906982 -0.682129,-2.907837c-0.230957,-1.063538 -0.426697,-2.034119 -0.587463,-2.911499c-0.160583,-0.877136 -0.245789,-1.44165 -0.255676,-1.694031c-0.041992,-1.070923 -0.018372,-2.081665 0.070251,-3.031921c0.149353,-1.015381 0.203308,-2.058838 0.161255,-3.130066c-0.158203,-4.032776 0.014771,-7.668335 0.518616,-10.906738c0.56488,-3.303833 1.594604,-6.815125 3.089417,-10.534119c0.116272,-0.25708 0.383606,-0.67749 0.802368,-1.262024c0.481995,-0.586975 0.962524,-1.2052 1.441833,-1.855408c0.54248,-0.652222 1.054749,-1.271912 1.536499,-1.858704c0.544739,-0.589417 0.908203,-0.982117 1.089661,-1.178894c1.510986,-1.699768 3.056152,-3.338257 4.63501,-4.914795c1.64209,-1.579041 3.386047,-2.972839 5.231873,-4.181152c1.845825,-1.208374 3.796021,-2.168274 5.850769,-2.880066c2.052307,-0.774719 4.275574,-1.209045 6.669922,-1.302979c0.441284,-0.017334 1.261597,-0.018005 2.461243,-0.001953c1.262634,0.013733 2.558167,0.057556 3.886475,0.131531c1.390991,0.071838 2.656311,0.148315 3.795471,0.229797c1.202087,0.079224 1.99469,0.174255 2.377686,0.285339c0.894409,0.280762 1.757629,0.562195 2.58905,0.845154c0.831482,0.282959 1.694641,0.564697 2.589111,0.845215c1.020569,0.275269 2.038757,0.487854 3.054138,0.637207c1.076172,0.084167 2.128296,0.358459 3.156311,0.822693c0.191406,0.055786 0.450928,0.235046 0.778381,0.537537c0.387939,0.237305 0.809875,0.53656 1.265747,0.897095c0.453613,0.297791 0.876526,0.628052 1.269653,0.991272c0.390198,0.300293 0.682434,0.509521 0.876526,0.628296c0.909302,0.658569 1.919434,1.470825 3.030212,2.437073c1.171265,0.900513 2.283264,1.898499 3.335999,2.992859c1.050049,1.031982 2.008362,2.130066 2.87439,3.295349c0.866089,1.165039 1.477783,2.276978 1.8349,3.335815c0.359619,1.121826 0.658447,2.309387 0.897034,3.561829c0.238342,1.252991 0.538696,2.471741 0.900757,3.656494c0.07312,0.249939 0.184631,0.687256 0.33551,1.312256c0.211182,0.559814 0.423584,1.151123 0.637695,1.773621c0.211121,0.559814 0.390808,1.120605 0.539246,1.682861c0.145447,0.499084 0.221069,0.811707 0.226257,0.937866m-22.084045,1.718018c-0.61145,-1.111938 -1.160217,-2.226379 -1.645752,-3.343262c-0.422546,-1.119385 -0.908081,-2.236023 -1.456543,-3.350647c-0.485779,-1.116882 -1.188232,-2.130432 -2.107422,-3.041138c-0.921631,-0.973633 -1.931763,-1.785889 -3.030151,-2.437317c-1.09845,-0.650879 -2.285095,-1.140625 -3.56012,-1.469482c-1.277649,-0.391602 -2.514954,-0.563782 -3.712097,-0.516846c-0.756409,0.029663 -1.602051,0.189026 -2.53717,0.47821c-0.872437,0.286743 -1.650146,0.569519 -2.333435,0.848572c-1.986572,0.835449 -3.679932,1.911743 -5.079773,3.228699c-1.339355,1.251831 -2.450684,2.683594 -3.333923,4.295898c-0.883484,1.612549 -1.508667,3.372375 -1.875549,5.280273c-0.367126,1.90741 -0.510864,3.869568 -0.431763,5.885864c0.093933,2.394531 0.504211,4.807983 1.23053,7.240845c0.787109,2.367371 1.880676,4.50177 3.28064,6.403137c1.462708,1.898926 3.227112,3.438843 5.293091,4.620117c2.063232,1.118347 4.449585,1.624084 7.159241,1.517822c0.945007,-0.037109 1.85144,-0.261841 2.718628,-0.6745c0.930481,-0.415405 1.829163,-0.829346 2.696655,-1.24176c1.298401,-0.682312 2.288147,-1.194153 2.968933,-1.536682c0.743774,-0.344543 1.297363,-0.713623 1.660645,-1.106262c0.423706,-0.458313 0.779541,-1.040405 1.067444,-1.745911c0.35083,-0.708008 0.783813,-1.734497 1.299133,-3.080383c0.232361,-0.513916 0.497131,-0.997498 0.794983,-1.450928c0.297791,-0.453369 0.562805,-0.937256 0.795166,-1.451172c0.055603,-0.191406 0.09137,-0.887268 0.107361,-2.08667c0.013489,-1.262817 0.023071,-2.620117 0.029724,-4.071899c0.003601,-1.514709 -0.020508,-2.933777 -0.072449,-4.256836c0.00885,-1.388855 0.033264,-2.368042 0.073975,-2.937744"/>
  <path fill="#000000" id="svg_23" d="m833.540833,703.708069c0.051636,1.323364 -0.31958,2.316223 -1.113953,2.978271c-0.731445,0.659851 -1.659424,1.138245 -2.783691,1.434631c-1.06134,0.294128 -2.220825,0.497314 -3.478516,0.60968c-1.197388,0.046997 -2.237122,0.087769 -3.119202,0.122375l-2.453613,0.191101c-1.323303,0.051941 -2.902283,0.019043 -4.737061,-0.098206c-1.835022,-0.117432 -3.364563,-0.498901 -4.588684,-1.145386c-0.257019,-0.116028 -0.520325,-0.389771 -0.789734,-0.820923c-0.271912,-0.494324 -0.543579,-0.988464 -0.81543,-1.482544c-0.211426,-0.55957 -0.421326,-1.087891 -0.630005,-1.584473c-0.208923,-0.496582 -0.381226,-0.868713 -0.517029,-1.115662c-0.68457,-1.361633 -1.428406,-2.626282 -2.231506,-3.793762c-0.742615,-1.232971 -1.579651,-2.462463 -2.511169,-3.687988c-0.002747,-0.063171 -0.07312,-0.249634 -0.21167,-0.559753c-0.138245,-0.309937 -0.277832,-0.65155 -0.418579,-1.024658c-0.140991,-0.373169 -0.280579,-0.715027 -0.419128,-1.024902c-0.077759,-0.375854 -0.150635,-0.625305 -0.218567,-0.748718c-0.274597,-0.557373 -0.610474,-1.08075 -1.008301,-1.569885c-0.3349,-0.491638 -0.608032,-1.017273 -0.819153,-1.577332c-0.213867,-0.622498 -0.395996,-1.246277 -0.546692,-1.871521c-0.087952,-0.627686 -0.301575,-1.250488 -0.641357,-1.868347c-0.3349,-0.491638 -0.791992,-0.88385 -1.371582,-1.176697c-0.518799,-0.358276 -1.061951,-0.526184 -1.628967,-0.503967c-0.504211,0.019775 -0.941589,0.131531 -1.311951,0.335266c-1.071472,0.042297 -2.047974,0.080627 -2.930298,0.11499c-0.884583,-0.028381 -1.638184,0.064514 -2.260986,0.278137c-0.622803,0.213867 -1.079224,0.641968 -1.369629,1.284241c-0.292847,0.57959 -0.413147,1.531067 -0.361267,2.854187c0.061829,1.575439 0.279785,3.113037 0.654236,4.612915c0.371948,1.436951 0.587463,2.91156 0.647034,4.423767c0.021973,0.567017 0.013977,1.166931 -0.024231,1.799622c-0.040771,0.569641 -0.049988,1.137878 -0.027771,1.704834c0.034668,0.882324 0.134705,1.825134 0.300415,2.828186c0.226013,0.937866 0.357544,1.879456 0.394592,2.824524c0.024719,0.630188 -0.018433,1.136658 -0.129578,1.519653c-0.050842,0.317566 -0.165894,0.60614 -0.34491,0.865662c-0.179016,0.259277 -0.453979,0.491089 -0.824646,0.694824c-0.307678,0.201233 -0.708557,0.438232 -1.202698,0.709839c-0.925476,0.541321 -1.762512,0.921021 -2.51123,1.139893c-0.68573,0.216309 -1.373901,0.369446 -2.064636,0.459595c-0.688171,0.153137 -1.443115,0.214539 -2.264648,0.183472c-0.756165,0.029663 -1.638184,0.06427 -2.646484,0.103821c-1.701416,0.066772 -3.154419,0.029175 -4.358948,-0.112793c-1.141663,-0.144897 -2.101746,-0.485657 -2.880127,-1.023193c-0.715393,-0.539795 -1.28302,-1.338135 -1.703125,-2.394287c-0.357117,-1.058838 -0.570129,-2.470459 -0.639343,-4.234863c-0.044495,-1.134216 -0.057556,-2.269592 -0.039063,-3.406311c0.081726,-1.139099 0.100159,-2.276062 0.055664,-3.409973c-0.024719,-0.630188 -0.111145,-1.22644 -0.259583,-1.788696c-0.087708,-0.627502 -0.145142,-1.287903 -0.172363,-1.981079c-0.126038,-3.213684 -0.155212,-6.367798 -0.087402,-9.462708c0.130981,-3.097656 0.133301,-6.253296 0.007263,-9.466736c-0.034607,-0.882019 -0.099487,-1.731628 -0.19458,-2.548279c-0.095093,-0.816589 -0.127197,-1.635681 -0.096375,-2.45752c0.035767,-0.695374 0.072021,-1.391296 0.107788,-2.086914c0.096069,-0.761047 0.130859,-1.48822 0.103882,-2.181335c-0.034851,-0.881836 -0.195618,-1.759216 -0.481873,-2.631409c-0.223755,-0.874878 -0.352844,-1.753479 -0.387451,-2.635559c-0.027161,-0.693176 0.041321,-1.358276 0.20575,-1.995911c0.224731,-0.703064 0.323425,-1.401123 0.296509,-2.094299c-0.042297,-1.071228 -0.212952,-2.200439 -0.511536,-3.387756c-0.236145,-1.190002 -0.438049,-2.317749 -0.606262,-3.384277c-0.160583,-0.877136 -0.134644,-1.82489 0.077881,-2.843018c0.275574,-1.020386 0.396179,-1.971619 0.361572,-2.853943c-0.027222,-0.692871 -0.115112,-1.320618 -0.263306,-1.882874c-0.15094,-0.625244 -0.239868,-1.284424 -0.267029,-1.9776c-0.034607,-0.88208 0.091614,-1.675842 0.379517,-2.381348c0.285461,-0.768494 0.963806,-1.173767 2.035034,-1.21582c0.315063,-0.012329 0.56842,0.009277 0.759827,0.065063c0.254578,0.053101 0.540405,0.104919 0.857971,0.155762c0.635132,0.101257 1.36377,0.167236 2.185059,0.19812c0.88208,-0.034363 1.764404,-0.06897 2.646484,-0.103821c0.945313,-0.036865 1.858826,-0.072693 2.74115,-0.107544c0.945068,-0.036865 1.764404,-0.06897 2.45752,-0.096436c1.832031,0.05426 3.666809,0.171753 5.504089,0.351929c1.897705,0.115234 3.760254,0.136536 5.587646,0.064819c0.945251,-0.037048 1.886841,-0.168335 2.824463,-0.394836c0.998352,-0.291443 2.001404,-0.456909 3.009949,-0.49646c1.260132,-0.049438 2.493713,0.02832 3.700989,0.233215c1.20459,0.142456 2.436951,0.188416 3.697327,0.138977c0.692932,-0.027161 1.4151,-0.118347 2.166504,-0.273926c0.811707,-0.221313 1.564148,-0.345398 2.257263,-0.372864c1.133972,-0.04425 2.338806,0.097961 3.614014,0.426331c1.274963,0.328613 2.554871,0.783447 3.839966,1.363953c1.345337,0.51532 2.599976,1.128784 3.764038,1.840149c1.161377,0.648682 2.1651,1.303772 3.011658,1.964783c2.737915,2.227539 4.64502,4.992676 5.721069,8.295227c1.076294,3.302551 1.681091,6.65509 1.814575,10.057678c0.148315,3.78064 -0.512024,7.056702 -1.980957,9.827881c-1.408386,2.706055 -3.64856,5.12915 -6.71991,7.268982c-0.491882,0.334656 -1.047729,0.640747 -1.66803,0.917358c-0.557373,0.274353 -1.11322,0.5802 -1.66803,0.917542c-0.368225,0.266724 -0.541016,0.683655 -0.518799,1.250916c0.046997,1.197144 0.561523,2.249817 1.543884,3.15802c1.574036,1.51593 2.830566,2.981201 3.769714,4.395874c0.936462,1.351501 2.007507,2.918884 3.213623,4.701721c0.405273,0.678345 0.975342,1.539429 1.71051,2.583435c0.735229,1.044067 1.440125,2.120789 2.114807,3.230286c0.737427,1.106995 1.3479,2.187439 1.830933,3.241333c0.546326,1.051453 0.832764,1.923645 0.860229,2.616821m-44.250305,-51.748779c-0.305176,0.264465 -0.791931,0.725281 -1.460327,1.38269c-0.668213,0.657104 -0.992554,1.237915 -0.972778,1.741943c0.041992,1.071167 0.114319,2.10968 0.216858,3.115479c0.100037,0.94281 0.170044,1.918091 0.209595,2.926331c0.017273,0.44104 0.043213,1.102722 0.07782,1.984802c0.032227,0.819336 0.096985,1.668701 0.19458,2.548279c0.160828,0.877136 0.350159,1.690308 0.56897,2.438782c0.281799,0.74646 0.679626,1.235657 1.193481,1.468018c0.32251,0.176758 0.672791,0.257629 1.050842,0.242798c0.37561,-0.078064 0.722168,-0.091614 1.039734,-0.040771c0.188904,-0.007446 0.379333,0.016663 0.570923,0.072205c0.188965,-0.007446 0.409302,-0.016052 0.661438,-0.02594c1.512268,-0.059326 2.981934,-0.400818 4.408997,-1.024902c1.427002,-0.624084 2.86145,-1.058716 4.303345,-1.304993c0.87738,-0.160522 1.755737,-0.289612 2.635315,-0.387146c0.879883,-0.097595 1.760681,-0.163696 2.643005,-0.198303c1.240356,-0.553711 2.178833,-1.568542 2.815125,-3.045288c0.696777,-1.541626 1.020203,-2.94281 0.971008,-4.203186c-0.012573,-0.314819 -0.094116,-0.785156 -0.244751,-1.4104c-0.648804,-2.05719 -1.812073,-3.557678 -3.489807,-4.501404c-1.615051,-0.946472 -3.436646,-1.53772 -5.465515,-1.773682c-2.031067,-0.298706 -4.116699,-0.374817 -6.256714,-0.227783c-2.142456,0.084045 -4.032776,0.158203 -5.671204,0.222473"/>
  <path fill="#000000" id="svg_22" d="m906.246948,685.993774c0.051697,1.323364 -0.174866,2.783508 -0.680237,4.381226c-0.505188,1.597473 -1.170532,3.138428 -1.995972,4.62207c-0.825195,1.483887 -1.813049,2.848022 -2.963257,4.092163c-1.087219,1.241882 -2.185547,2.199951 -3.295044,2.87439c-0.37085,0.204224 -0.80426,0.410461 -1.300842,0.619141c-0.43634,0.143494 -0.872681,0.286743 -1.308533,0.429932c-0.867493,0.41272 -1.764954,0.858337 -2.692932,1.336182c-0.867249,0.412964 -1.733521,0.856873 -2.598267,1.332764c-0.945007,0.037048 -1.919312,0.138367 -2.922607,0.304077c-1.003296,0.165771 -1.937256,0.486206 -2.802002,0.961853c-1.641174,0.001282 -3.249146,0.032837 -4.824341,0.094604c-1.514771,-0.003845 -3.091187,0.026428 -4.729431,0.090698c-1.134399,0.044495 -2.267395,0.120483 -3.399109,0.22821c-1.131714,0.107483 -2.264648,0.183472 -3.399109,0.227966c-0.693176,0.027161 -1.355835,0.021667 -1.98822,-0.016602c-0.569702,-0.040955 -1.169617,-0.04895 -1.799561,-0.024292c-0.630493,0.02478 -1.162231,0.140442 -1.595886,0.34668c-0.635132,-0.10144 -1.267761,-0.139709 -1.897705,-0.11499c-0.63269,-0.038269 -1.266357,-0.108276 -1.901489,-0.209473c-1.058838,0.357117 -2.121399,0.619812 -3.187683,0.787781c-1.063843,0.230896 -2.162842,0.368896 -3.296997,0.413391c-3.402588,0.133484 -5.765076,-0.562683 -7.087036,-2.088501c-1.324402,-1.588989 -2.049744,-3.990356 -2.175842,-7.203979c-0.061768,-1.575256 0.00238,-3.155396 0.192688,-4.740784c0.187866,-1.648071 0.250732,-3.259766 0.188965,-4.834961c-0.121155,-3.087708 -0.335754,-6.140259 -0.643311,-9.157349c-0.247314,-3.082581 -0.431396,-6.167603 -0.552551,-9.25531c-0.05188,-1.323364 -0.010559,-2.681641 0.124207,-4.075378c0.195251,-1.459167 0.203857,-2.847961 0.026001,-4.166138c-0.341125,-2.258728 -0.586304,-4.489441 -0.735779,-6.692444c-0.086548,-2.205383 -0.174255,-4.442322 -0.263245,-6.710693c-0.06427,-1.638184 -0.286255,-3.270203 -0.665588,-4.896545c-0.316406,-1.628296 -0.506653,-3.261536 -0.570862,-4.899719c-0.017334,-0.441284 -0.033386,-0.85083 -0.048218,-1.228943c-0.017334,-0.440979 0.02832,-0.884521 0.137207,-1.33075c0.242249,-0.26178 0.392273,-0.456848 0.450562,-0.58551c0.529846,-0.967529 1.448975,-1.666016 2.757446,-2.096252c1.371521,-0.432434 2.810913,-0.741211 4.318237,-0.926453c1.570251,-0.187744 3.112793,-0.279785 4.627747,-0.276367c1.575256,-0.061584 2.867126,-0.112244 3.875122,-0.152039l5.380188,-0.400269c0.879578,-0.097351 1.795593,-0.070435 2.748535,0.08136c0.952454,0.1521 1.869995,0.210693 2.752075,0.176086c0.819092,-0.032104 1.63446,-0.158691 2.446167,-0.380005c0.872375,-0.286743 1.749512,-0.447266 2.631836,-0.481873c1.701172,-0.066772 3.406311,-0.038818 5.114868,0.08313c1.70636,0.059448 3.41272,0.118896 5.118896,0.17804c3.85614,0.164307 7.132202,0.824646 9.828186,1.980957c2.756409,1.091125 5.210938,3.329773 7.363403,6.716187c0.201172,0.307678 0.470459,0.739075 0.8078,1.293701c0.334839,0.491638 0.67218,1.046509 1.011963,1.664368c0.339783,0.617798 0.646912,1.205139 0.921265,1.762451c0.274109,0.557129 0.417358,0.993469 0.429749,1.308289c0.014832,0.378296 -0.022217,1.042236 -0.111023,1.992432c-0.091553,0.887024 -0.257263,1.493164 -0.496826,1.817871c0.017334,0.441284 0.066101,0.881104 0.146362,1.319641c0.140808,0.373108 0.221069,0.811707 0.241089,1.315918c0.074158,1.89032 -0.177917,3.509399 -0.756165,4.857239c-0.578003,1.348328 -1.384033,2.515869 -2.418213,3.50293c-1.034424,0.987061 -2.26239,1.855835 -3.684204,2.605896c-1.359192,0.747253 -2.782471,1.46582 -4.270264,2.155334c-0.123474,0.068176 -0.213013,0.197815 -0.268555,0.38916c-0.055786,0.19165 -0.080872,0.350281 -0.075867,0.476501l0.377808,-0.014832c0.199036,0.244446 0.455811,0.360535 0.771179,0.348145c0.503723,-0.019775 0.975281,-0.069824 1.413818,-0.150085c0.499084,-0.145691 1.000854,-0.228455 1.505127,-0.24823c0.503723,-0.019775 0.916016,0.0271 1.235779,0.140686c2.237854,0.732849 4.011536,1.704346 5.321106,2.915283c1.370056,1.145264 2.401184,2.493286 3.093201,4.043518c0.7547,1.548279 1.263733,3.263916 1.527283,5.14679c0.260315,1.819946 0.432922,3.80127 0.517212,5.943481m-42.286987,-8.943176c-0.36322,0.392883 -0.629578,0.844788 -0.798645,1.356445c-0.108887,0.445984 -0.216309,0.923462 -0.322449,1.432617c-0.123718,0.067932 -0.208313,0.323547 -0.253967,0.767273c0.014832,0.378052 0.032104,0.819092 0.05188,1.32312c0.017334,0.441284 0.034607,0.882324 0.051941,1.323364c0.017273,0.440979 0.028442,0.724609 0.033386,0.85083c0.039551,1.007996 0.106873,1.920288 0.202209,2.737183c0.095093,0.816589 0.311218,1.50238 0.64856,2.056946c0.337341,0.554871 0.827148,0.977356 1.469727,1.267761c0.642517,0.290344 1.530762,0.413452 2.664978,0.368958c0.756104,-0.029663 1.509766,-0.122559 2.26123,-0.278442c0.811401,-0.221008 1.592834,-0.409607 2.344299,-0.565186c1.439148,-0.30896 2.94397,-0.55719 4.514526,-0.744934c1.570496,-0.187988 2.978149,-0.495728 4.223755,-0.923035c1.308228,-0.430176 2.354736,-1.102173 3.139465,-2.016602c0.784485,-0.914246 1.14093,-2.285095 1.069214,-4.112244c-0.066711,-1.701416 -0.524475,-2.914001 -1.37323,-3.638245c-0.788513,-0.789368 -1.785095,-1.255066 -2.98938,-1.397278c-1.144348,-0.207397 -2.438416,-0.219666 -3.882813,-0.036865c-1.383789,0.117554 -2.674194,0.199707 -3.871582,0.246704c-1.512268,0.059326 -3.058472,0.056702 -4.638672,-0.007446c-1.517212,-0.066895 -3.031921,-0.070251 -4.544189,-0.01123m-1.438538,-27.017395c-0.462219,1.091003 -0.890503,2.243774 -1.284607,3.458252c-0.331055,1.211975 -0.473022,2.416809 -0.426025,3.613953c0.06427,1.638428 0.523254,2.882507 1.376953,3.732727c0.916931,0.847412 2.194336,1.239014 3.832581,1.174744c1.134399,-0.044495 2.230713,-0.245178 3.289551,-0.602295c1.056396,-0.420044 2.117981,-0.714233 3.184021,-0.882202c1.005798,-0.102783 2.04303,-0.206238 3.111816,-0.311523c1.129211,-0.17041 2.128601,-0.430603 2.998535,-0.780334c0.867493,-0.412659 1.571106,-0.976807 2.110901,-1.691956c0.537537,-0.778625 0.777649,-1.892212 0.721069,-3.341553c-0.052185,-1.323303 -0.625977,-2.278809 -1.721924,-2.867004c-1.032959,-0.590637 -2.278931,-0.983704 -3.738098,-1.178711c-1.396179,-0.197754 -2.849182,-0.235352 -4.359009,-0.113037c-1.44928,0.057068 -2.584717,0.069824 -3.40625,0.039001c-0.947754,-0.025879 -1.895264,-0.051758 -2.843018,-0.077881c-0.94751,-0.02594 -1.896545,-0.083313 -2.846497,-0.172424"/>
  <path fill="#000000" id="svg_21" d="m986.693848,657.84668c0.138428,3.528748 0.093872,7.222351 -0.133423,11.080811c-0.166748,3.79303 -0.624329,7.408447 -1.372864,10.845642c-0.21283,1.017944 -0.640625,2.170898 -1.284363,3.458191c-0.583435,1.221924 -1.291382,2.480469 -2.123779,3.775208c-0.772339,1.229309 -1.577454,2.428345 -2.415039,3.597168c-0.840027,1.106079 -1.559082,2.08075 -2.157166,2.924561c-0.358276,0.519104 -1.025452,1.207947 -2.001587,2.06665c-0.975891,0.858643 -2.013733,1.751221 -3.113342,2.677795c-1.102295,0.863586 -2.175049,1.662964 -3.219116,2.398132c-1.044006,0.735474 -1.845825,1.208618 -2.40564,1.4198c-0.559814,0.211121 -1.242798,0.490723 -2.049805,0.837952c-0.809204,0.283997 -1.618408,0.568237 -2.427612,0.852539c-0.809448,0.283997 -1.619934,0.536804 -2.43158,0.757813c-0.746277,0.281799 -1.400513,0.496887 -1.962524,0.645081c-0.373169,0.140808 -0.842163,0.254028 -1.406677,0.338989c-0.50177,0.083008 -0.941589,0.131775 -1.319641,0.146606l-7.183472,0.281799c-0.567017,0.022278 -1.518494,-0.098328 -2.853943,-0.361267c-1.27002,-0.202698 -2.669922,-0.494873 -4.199463,-0.876831c-1.464355,-0.320984 -2.86676,-0.676392 -4.207153,-1.065247c-1.340454,-0.389404 -2.330811,-0.697388 -2.970642,-0.925049c-1.728577,-0.626404 -3.600708,-1.68866 -5.61554,-3.187256c-1.952332,-1.501343 -3.817444,-3.195251 -5.595459,-5.081787c-1.780273,-1.949524 -3.342651,-3.970947 -4.687073,-6.063904c-1.281189,-2.09552 -2.146667,-4.049377 -2.596436,-5.861938c-0.140808,-0.373352 -0.324158,-1.028625 -0.550415,-1.966492c-0.226196,-0.937561 -0.45343,-1.906921 -0.681885,-2.907776c-0.231445,-1.063538 -0.427185,-2.03418 -0.587708,-2.911499c-0.160583,-0.877136 -0.246033,-1.44165 -0.25592,-1.694031c-0.041992,-1.070984 -0.018372,-2.081726 0.070496,-3.031921c0.149597,-1.015442 0.203003,-2.058899 0.161011,-3.130066c-0.158203,-4.032776 0.015015,-7.668396 0.519104,-10.906799c0.564392,-3.303833 1.594116,-6.815063 3.089172,-10.534058c0.116272,-0.25708 0.383606,-0.67749 0.802368,-1.262024c0.48175,-0.586975 0.962524,-1.205261 1.442078,-1.855469c0.542236,-0.652161 1.05426,-1.271912 1.536255,-1.858643c0.544739,-0.589478 0.907959,-0.982117 1.089661,-1.178955c1.510986,-1.699707 3.056152,-3.338257 4.63501,-4.914795c1.641846,-1.578979 3.386047,-2.972778 5.231628,-4.181152c1.846069,-1.208313 3.796265,-2.168274 5.851013,-2.880005c2.052307,-0.77478 4.275574,-1.209106 6.669922,-1.30304c0.44104,-0.017273 1.261353,-0.017944 2.461243,-0.001953c1.262634,0.013794 2.557922,0.057556 3.88623,0.131592c1.391235,0.071838 2.656555,0.148315 3.795715,0.229736c1.202087,0.079224 1.99469,0.174255 2.377686,0.2854c0.894653,0.280701 1.757629,0.562195 2.58905,0.845154c0.831482,0.282959 1.694397,0.564697 2.589111,0.845154c1.020569,0.27533 2.038513,0.487915 3.054382,0.637207c1.075928,0.084229 2.128052,0.358521 3.156067,0.822693c0.191406,0.055847 0.450684,0.235107 0.778381,0.537598c0.387695,0.237305 0.809875,0.53656 1.265747,0.897034c0.453369,0.297791 0.876526,0.628052 1.269409,0.991333c0.390686,0.300232 0.682678,0.509521 0.87677,0.628296c0.909302,0.658508 1.919434,1.470825 3.030212,2.437012c1.171021,0.900574 2.28302,1.89856 3.335999,2.99292c1.050049,1.031921 2.008118,2.130005 2.87439,3.295288c0.866089,1.165039 1.477539,2.276978 1.8349,3.335876c0.359375,1.121826 0.658447,2.309326 0.897034,3.561768c0.238342,1.252991 0.538452,2.471741 0.900757,3.656555c0.072876,0.249878 0.184631,0.687256 0.335266,1.312256c0.211182,0.559814 0.424072,1.151062 0.637695,1.773621c0.211121,0.559753 0.391052,1.120544 0.539246,1.682861c0.146057,0.499023 0.221313,0.811646 0.226318,0.937866m-22.083801,1.717957c-0.611694,-1.111938 -1.160217,-2.226318 -1.645752,-3.343201c-0.422791,-1.119385 -0.908325,-2.236023 -1.456848,-3.350708c-0.485474,-1.116882 -1.187927,-2.130432 -2.107178,-3.041077c-0.921875,-0.973633 -1.932007,-1.78595 -3.03009,-2.437317c-1.09845,-0.650879 -2.285339,-1.140625 -3.56012,-1.469543c-1.27771,-0.391541 -2.514954,-0.563782 -3.712341,-0.516785c-0.756165,0.029663 -1.601868,0.188965 -2.53717,0.47821c-0.872192,0.286682 -1.649902,0.569458 -2.333191,0.848572c-1.986572,0.835449 -3.679932,1.911682 -5.079773,3.228699c-1.339355,1.25177 -2.450684,2.683594 -3.334167,4.295898c-0.88324,1.612549 -1.508667,3.372375 -1.875549,5.280273c-0.366882,1.907349 -0.51062,3.869568 -0.431519,5.885803c0.093872,2.394592 0.504211,4.808044 1.23053,7.240845c0.787109,2.367371 1.880676,4.50177 3.28064,6.403137c1.462708,1.898926 3.227112,3.438904 5.292847,4.620178c2.063477,1.118286 4.449829,1.624084 7.159485,1.517761c0.945007,-0.037048 1.85144,-0.261841 2.718628,-0.6745c0.930237,-0.415405 1.829163,-0.829285 2.696655,-1.241699c1.298401,-0.682373 2.288147,-1.194214 2.968933,-1.536743c0.743774,-0.344482 1.297363,-0.713562 1.660339,-1.106201c0.424011,-0.458374 0.779541,-1.040405 1.067749,-1.745911c0.35083,-0.708008 0.783813,-1.734558 1.299133,-3.080383c0.232117,-0.513916 0.497131,-0.997559 0.794922,-1.450928c0.297791,-0.45343 0.562866,-0.937317 0.794922,-1.451172c0.055542,-0.191406 0.091309,-0.887268 0.107361,-2.08667c0.013489,-1.262817 0.023376,-2.620117 0.029724,-4.071899c0.003845,-1.514771 -0.020264,-2.933777 -0.072205,-4.256897c0.008667,-1.388794 0.03302,-2.368042 0.073975,-2.937744"/>
  <path fill="#000000" id="svg_20" d="m1028.963257,643.503662l1.028809,4.503418l-0.650635,5.137329c0.284302,0.809204 0.5,2.283813 0.647095,4.423767c0.207764,2.07428 0.358154,4.309021 0.452148,6.703308c0.154663,2.328857 0.242432,4.565796 0.263184,6.710693c0.084106,2.1427 0.144653,3.686462 0.181763,4.631531c0.039551,1.00824 -0.013916,2.051636 -0.161011,3.13031c-0.08667,1.012939 -0.172974,2.026123 -0.259399,3.039368c-0.036011,0.695618 -0.003906,1.514709 0.096436,2.45752c0.162964,0.940125 0.327271,1.911926 0.493042,2.915222c0.228394,1.000854 0.425659,2.002686 0.591064,3.005981c0.228516,1.000854 0.359009,1.910706 0.391235,2.729797c0.086426,2.205383 -0.352295,3.895142 -1.315796,5.068848c-0.963745,1.173767 -2.508057,2.023132 -4.633179,2.548523l0.018555,0.472473c-1.638306,0.06427 -3.27301,0.223022 -4.903992,0.47644c-1.630798,0.253418 -3.26532,0.411926 -4.903748,0.476196c-1.701416,0.066711 -3.079468,-0.478821 -4.134705,-1.636475c-0.992004,-1.160034 -1.520386,-2.559326 -1.584412,-4.197754c-0.039795,-1.007996 -0.047607,-2.017517 -0.024231,-3.028259c0.020996,-1.073425 0.010437,-2.146118 -0.031616,-3.217346c-0.090149,-0.69043 -0.213013,-1.411377 -0.368835,-2.162598c-0.095154,-0.816589 -0.15625,-1.571472 -0.183472,-2.264648c-0.039551,-1.00824 0.045593,-2.052917 0.255676,-3.134033c0.273071,-1.083618 0.389709,-2.129272 0.350159,-3.137512c-0.044495,-1.134216 -0.185913,-2.327942 -0.424255,-3.580627c-0.175598,-1.255432 -0.348511,-2.447693 -0.518982,-3.576904c-0.163269,-0.940369 -0.139832,-1.950806 0.070007,-3.032166c0.273376,-1.083374 0.389954,-2.129272 0.350403,-3.137512c-0.034607,-0.88208 -0.1651,-1.791931 -0.391113,-2.729797c-0.165771,-1.003296 -0.328735,-1.94342 -0.489319,-2.820801c-0.153137,-0.687927 -0.195129,-1.759399 -0.126038,-3.213379c0.069092,-1.454224 0.167175,-2.9729 0.294739,-4.555603c0.124695,-1.645569 0.253235,-3.196777 0.385315,-4.653442c0.13208,-1.456726 0.246216,-2.565857 0.342712,-3.326904c-1.007996,0.039795 -1.916809,0.201538 -2.726318,0.485596c-0.746216,0.281799 -1.491211,0.595032 -2.234985,0.939575c-0.746033,0.281738 -1.523987,0.564819 -2.333191,0.84906c-0.748718,0.218567 -1.627075,0.3479 -2.635315,0.387451c-1.00824,0.039551 -2.050476,0.01709 -3.126648,-0.066833c-1.078369,-0.146851 -2.099243,-0.422424 -3.061584,-0.826599c-0.901855,-0.469421 -1.651245,-1.071167 -2.248108,-1.805054c-0.599121,-0.796875 -0.923523,-1.8255 -0.972961,-3.085571l-0.174255,-4.442627c-0.076599,-1.953247 -0.04248,-3.500732 0.101929,-4.642578c0.207642,-1.14386 0.612549,-2.074707 1.215576,-2.792786c0.602966,-0.717651 1.401062,-1.285522 2.39447,-1.703369c1.053955,-0.482849 2.390259,-1.008728 4.008667,-1.577026c0.824036,0.094055 1.869934,0.210693 3.137512,0.350159c1.33075,0.137268 2.66156,0.274475 3.99231,0.411499c1.390991,0.071533 2.719055,0.145569 3.984375,0.222046c1.262817,0.013794 2.302612,-0.026978 3.119202,-0.122314c0.940125,-0.162781 1.911926,-0.327271 2.915222,-0.492798c1.066284,-0.167969 2.071838,-0.270447 3.01709,-0.308044c1.449036,-0.05658 2.936035,0.04303 4.460876,0.298462c1.585144,0.190369 3.102356,0.257202 4.551819,0.200134c2.2052,-0.086304 4.376709,-0.234802 6.51416,-0.445007c2.13501,-0.272949 4.305054,-0.452698 6.510742,-0.539246c1.385986,-0.054382 2.552979,-0.068604 3.500977,-0.042725c0.94751,0.025879 1.713501,0.248352 2.297974,0.667114c0.581787,0.355835 0.984619,0.971191 1.20813,1.845825c0.286743,0.872437 0.460938,2.096191 0.522705,3.671387c0.014771,0.378052 0.029663,0.756104 0.044434,1.134216c0.014893,0.378052 -0.001465,0.757568 -0.049683,1.138123c0.147949,0.562012 0.23584,1.189758 0.263062,1.882935c0.024536,0.629944 0.049194,1.260132 0.074219,1.890015c0.036743,0.945557 -0.30542,1.873962 -1.026978,2.785706c-0.658569,0.909241 -1.321777,1.69281 -1.990234,2.350159c-1.953491,0.07666 -3.915405,-0.067322 -5.886108,-0.431763c-1.970825,-0.364624 -3.932739,-0.508423 -5.885986,-0.431763c-1.575317,0.061768 -3.105713,0.468933 -4.590698,1.221191"/>
  <path id="svg_36" d="m303.172485,336c0,-140.026672 122.680481,-253.448273 274.137939,-253.448273c151.457458,0 274.137939,113.4216 274.137939,253.448273c0,140.026672 -122.680481,253.448303 -274.137939,253.448303c-151.457458,0 -274.137939,-113.421631 -274.137939,-253.448303z" stroke-linecap="null" stroke-linejoin="null" stroke-dasharray="null" stroke-width="3" fill="#ffff00" stroke="#000000"/>
  <path d="m434.585144,229.156799c0,0.990112 0.290009,1.28009 0.990112,1.980209c0.700104,0.700104 0.290009,1.28009 0.990112,1.980194c1.400208,1.400208 2.055573,0.611206 2.970276,0.990097c1.29364,0.535843 2.270203,2.270187 2.970306,2.970306c0.700104,0.700104 1.806366,0.096924 2.970306,1.980194c0.520538,0.842224 0.990082,0.990082 1.980194,1.980194c0.990082,0.990097 0.579987,1.570084 1.980194,2.970291c0.700104,0.700119 3.045685,0.611221 3.960388,0.990112c1.29364,0.535843 2.055573,1.601288 2.970306,1.980194c1.29361,0.535843 3.118164,1.459686 3.960388,1.980194c1.883301,1.163925 2.055573,1.601288 2.970306,1.980194c1.29361,0.535843 2.666779,1.444366 3.960388,1.980209c0.914734,0.378906 1.676666,0.454254 2.970306,0.990097c0.914703,0.378891 2.270203,0.289993 2.970306,0.990097c0.700104,0.700089 1.28009,0.289993 1.980194,0.990097c0.700104,0.700089 2.055573,-0.378891 2.970276,0c2.58725,1.071671 3.260315,1.280106 3.960419,1.980209c0.700104,0.700104 1.28009,0.289978 1.980194,0.990082c0.700104,0.700104 1.570068,-0.410095 2.970276,0.990112c0.700104,0.700104 1.280121,0.289978 1.980225,0.990082c0.700104,0.700104 1.28009,0.290009 1.980194,0.990112c0.700104,0.700104 -0.075378,2.5914 -0.990112,2.970306c-1.29361,0.535828 -3.960388,1.980164 -4.9505,2.970276c-0.990112,0.990112 -4.035767,2.5914 -4.9505,2.970306c-1.29361,0.535858 -3.65686,2.434448 -4.95047,2.970306c-0.914734,0.378906 -1.404816,1.404785 -2.970306,2.970276c-1.565491,1.565491 -3.960388,0.990112 -4.9505,1.980225c-0.990082,0.990082 -1.513,1.107239 -1.980194,1.980194c-1.684479,3.147461 -3.814575,2.15155 -4.9505,2.970276c-1.796051,1.294495 -2.666779,1.444366 -3.960388,1.980194c-0.914734,0.378906 -2.006683,0.762634 -2.970306,0.990112c-2.154694,0.508667 -2.665863,1.174286 -3.960388,2.970306c-0.818726,1.135895 -1.834381,1.161469 -2.970306,1.980194c-1.796021,1.294495 -2.970276,0.990082 -3.960388,1.980194c-0.990112,0.990112 -2.363251,1.898621 -4.9505,2.970306c-0.914703,0.378876 -2.270203,0.289978 -2.970306,0.990082c-0.700104,0.700104 -0.686554,1.444366 -1.980194,1.980194c-1.829468,0.757782 -1.980194,0.990112 -2.970276,0.990112l0,0.990112l-0.990112,0l-0.990112,0" id="svg_1" stroke-width="5" stroke="#000000" fill="none"/>
  <path d="m676.169312,245.988495c-0.990112,0 -0.990112,-1.980209 -1.980164,-1.980209c-0.990112,0 -2.970337,0 -3.960388,0c-0.990112,0 -1.980225,0 -2.970337,0c-0.990112,0 -2.970276,0 -3.960388,0c-0.990112,0 -2.055542,0.611221 -2.970276,0.990112c-1.29364,0.535843 -2.666809,1.444351 -3.960388,1.980194c-0.914734,0.378906 -1.887512,1.092468 -2.970337,1.980194c-2.760681,2.263229 -3.656006,3.154449 -4.9505,4.9505c-0.818665,1.135895 -2.665894,3.154465 -3.960388,4.950485c-0.818726,1.135925 -2.08252,3.867645 -2.970276,4.9505c-2.263245,2.760742 -2.434448,3.656891 -2.970276,4.9505c-0.757751,1.829468 -0.990112,3.960388 -0.990112,5.940582c0,1.980194 0,3.960419 0,5.940613c0,2.970276 -0.304382,4.144562 0.990112,5.940582c1.63739,2.27179 1.980164,3.960388 2.970276,4.9505c0.990112,0.990082 2.461609,2.795807 2.970276,4.9505c0.227478,0.963593 2.666809,3.42453 3.960388,3.960388c0.914734,0.378906 1.280151,1.28009 1.980225,1.980194c1.400208,1.400177 2.970276,0.990112 4.9505,0.990112c0.990112,0 1.859924,0.488556 4.9505,0.990082c3.909241,0.634369 5.940552,0 8.910889,0c2.970276,0 4.9505,0 7.920776,0c2.970276,0 9.783691,-1.178467 12.871277,-2.970276c1.914856,-1.111237 4.749512,-3.224274 5.940613,-3.960419c2.66333,-1.646027 3.960327,-1.980225 6.930664,-4.9505c0.990112,-0.990082 1.980225,-1.980194 2.970337,-2.970276c0.990112,-0.990112 3.451721,-2.795807 3.960388,-4.9505c0.227478,-0.963623 1.601257,-5.025879 1.980164,-5.940582c0.535828,-1.29364 0.990112,-3.960419 0.990112,-4.9505c0,-0.990112 1.980225,-3.960419 1.980225,-4.9505c0,-0.990112 0,-3.960388 0,-4.9505c0,-0.990112 -0.488586,-1.859955 -0.990112,-4.9505c-0.158569,-0.977295 -0.611206,-2.055573 -0.990112,-2.970291c-0.535828,-1.293625 -0.096924,-2.796463 -1.980164,-3.960403c-0.842224,-0.520538 -0.686584,-1.444351 -1.980225,-1.980194c-1.829407,-0.757767 -2.055542,-0.611206 -2.970276,-0.990097c-1.29364,-0.535843 -1.676697,-1.444351 -2.970337,-1.980194c-0.914673,-0.378876 -2.077087,-0.816269 -3.960388,-1.980194c-0.842224,-0.520523 -2.270142,0.700119 -2.970276,0c-0.700134,-0.700119 -0.990112,-0.990112 -2.970276,-0.990112c-0.990112,0 -1.980225,0 -2.970337,0c-0.990112,0 -1.980164,0 -3.960388,0c-0.990112,0 -1.980164,0 -2.970276,0c-0.990112,0 -1.980225,0 -3.960388,0c-0.990112,0 -1.980225,0 -2.970337,0l0,1.980209l-0.990112,0l-0.990051,0" id="svg_2" stroke-width="5" stroke="#000000" fill="none"/>
  <path d="m428.644562,422.226135c0,0.990082 0.685699,2.164368 1.980194,3.960388c1.637421,2.27182 2.970306,2.970306 3.960388,4.9505c0.990112,1.980194 2.509857,2.287842 3.960419,3.960388c2.051392,2.365326 3.726654,7.687073 5.940582,9.901001c2.213928,2.213928 5.337616,4.72229 8.910889,6.930695c2.663361,1.646057 5.648987,4.303131 7.920807,5.940582c1.796021,1.294525 5.365204,3.38501 6.930695,4.9505c1.565491,1.56546 5.449738,1.025269 9.90097,3.960388c3.506866,2.312408 4.89447,4.106659 9.901001,5.940582c2.939941,1.076935 6.484314,2.925934 9.901001,3.960419c3.790466,1.147644 9.080811,-0.157562 12.871277,0.990082c3.416656,1.034485 6.930695,1.980194 11.881195,1.980194c3.960388,0 6.930664,0 10.891113,0c3.960388,0 8.910889,0 12.871277,0c4.9505,0 8.81958,-0.491302 12.871277,-0.990082c4.913391,-0.604858 9.043335,0.147278 13.861389,-0.990112c4.309387,-1.017303 8.987,-1.714294 12.871277,-2.970276c5.073242,-1.640442 7.105896,-1.331909 11.881165,-2.970306c4.188232,-1.436981 6.993408,-1.756592 10.891113,-2.970306c8.076843,-2.515076 11.958801,-4.742401 14.851501,-5.940582c4.09082,-1.694458 8.988525,-2.762238 11.881165,-3.960388c4.09082,-1.694489 7.430054,-3.558411 11.881226,-5.940613c2.469055,-1.321411 7.140259,-2.687286 9.90094,-4.9505c3.248535,-2.663147 7.237671,-3.304474 9.901001,-4.9505c3.573303,-2.208405 6.124756,-4.646088 7.920776,-5.940582c3.407776,-2.456177 4.548523,-4.468292 6.930725,-5.940582c2.66333,-1.646027 4.716736,-0.756378 6.930664,-2.970306c2.213928,-2.213928 1.834412,-3.141663 2.970337,-3.960388c1.796021,-1.294495 2.970276,-2.970306 3.960388,-3.960419c1.980164,-1.980194 3.960388,-3.960388 4.9505,-4.95047c0.990112,-0.990112 3.304443,-2.28717 4.9505,-4.9505c0.736145,-1.191101 2.164307,-3.655975 3.960388,-4.9505c1.135925,-0.818726 1.24408,-1.779236 1.980164,-2.970306c1.645996,-2.663361 1.601318,-4.035767 1.980225,-4.9505c0.535828,-1.29361 1.570068,-1.570099 2.970276,-2.970276c0.700134,-0.700104 0.454285,-1.676666 0.990112,-2.970306c0.378906,-0.914734 0.990112,-1.980194 0.990112,-3.960388c0,-0.990112 0.990112,-0.990112 0.990112,-1.980194l0.990051,0" id="svg_3" stroke-width="5" stroke="#000000" fill="none"/>
 </g>
</svg>