<?xml version="1.0" encoding="UTF-8" standalone="no"?><svg xmlns="http://www.w3.org/2000/svg" version="1.1" width="320" height="320" id="svg2"><path d="m 51.304296,158.47934 q 0,-29.63668 14.69169,-54.46057 14.69169,-24.823895 39.262274,-39.515585 24.57059,-14.69169 54.71389,-14.69169 30.1433,0 54.46058,14.69169 24.31728,14.69169 39.51558,39.515585 15.1983,24.82389 14.43838,54.46057 -0.75991,29.63669 -14.43838,54.46058 -13.67847,24.82389 -39.51558,39.51558 -25.83711,14.69169 -54.46058,14.69169 -28.62347,0 -54.71389,-14.69169 -26.090414,-14.69169 -39.262274,-39.51558 -13.17186,-24.82389 -14.69169,-54.46058 z m 43.56846,36.22262 13.425164,0 14.69169,-22.54415 73.71177,0 14.69169,22.54415 13.42516,0 -64.84608,-97.775735 z m 36.475924,-31.66313 28.62347,-43.31515 28.37016,43.31515 -56.99363,0 z" id="path4051" /></svg>