<?xml version="1.0" encoding="UTF-8" standalone="no"?><svg xmlns="http://www.w3.org/2000/svg" version="1.1" width="320" height="320" id="svg2"><path d="m 51.304296,158.47934 q 0,-29.63668 14.69169,-54.46057 14.69169,-24.823895 39.262274,-39.515585 24.57059,-14.69169 54.71389,-14.69169 30.1433,0 54.46058,14.69169 24.31728,14.69169 39.51558,39.515585 15.1983,24.82389 14.43838,54.46057 -0.75991,29.63669 -14.43838,54.46058 -13.67847,24.82389 -39.51558,39.51558 -25.83711,14.69169 -54.46058,14.69169 -28.62347,0 -54.71389,-14.69169 -26.090414,-14.69169 -39.262274,-39.51558 -13.17186,-24.82389 -14.69169,-54.46058 z m 35.4627,13.67847 q 0,3.54627 2.53305,6.33263 l 14.438384,14.43838 q 2.78636,2.53305 6.33263,2.53305 3.54627,0 6.33262,-2.53305 l 43.56847,-43.56846 43.31516,43.56846 q 2.78635,2.53305 6.33262,2.53305 3.54627,0 6.33263,-2.53305 l 14.43838,-14.43838 q 2.78636,-2.78636 2.78636,-6.33263 0,-3.54627 -2.78636,-6.58593 l -64.08617,-64.08616 q -2.78635,-2.533055 -6.33262,-2.533055 -3.54627,0 -6.58593,2.533055 l -64.086174,64.33947 q -2.53305,2.53305 -2.53305,6.33262 z" id="path4009" /></svg>