<?xml version="1.0" encoding="UTF-8" standalone="no"?><svg xmlns="http://www.w3.org/2000/svg" version="1.1" width="320" height="320" id="svg2"><path d="m 59.5548,191.15569 q 2.02644,-7.34585 8.61237,-10.89212 l 37.48914,-21.78423 -37.48914,-21.78423 q -6.58593,-3.54626 -8.61237,-10.89211 -2.02644,-7.34584 1.77314,-13.93177 l 9.11898,-15.451615 q 3.79957,-6.58593 10.89211,-8.35906 7.09254,-1.77314 13.93178,1.77313 l 37.48914,21.530935 0,-43.315165 q 0,-7.34584 5.3194,-12.66525 5.31941,-5.3194 12.91856,-5.57271 l 17.98465,0 q 7.34585,0 12.66526,5.57271 5.3194,5.57271 5.3194,12.66525 l 0,43.315165 37.74245,-21.530935 q 6.58593,-3.79957 13.67847,-1.77313 7.09254,2.02644 11.14542,8.35906 l 8.86567,15.451615 q 3.79958,6.58593 1.77314,13.93177 -2.02644,7.34585 -8.35907,10.89211 l -37.48914,21.78423 37.48914,21.78423 q 6.58593,3.79958 8.35907,10.89212 1.77313,7.09254 -1.77314,13.93177 l -8.86567,15.45161 q -3.79958,6.58593 -11.14542,8.35906 -7.34585,1.77314 -13.67847,-1.77313 l -37.74245,-21.53093 0,43.31516 q 0,7.34584 -5.3194,12.66525 -5.31941,5.3194 -12.66526,5.57271 l -17.98465,0 q -7.34585,0 -12.91856,-5.57271 -5.57271,-5.57271 -5.3194,-12.66525 l 0,-43.31516 -37.48914,21.53093 q -6.58593,3.79957 -13.93178,1.77313 -7.34584,-2.02644 -10.89211,-8.35906 l -9.11898,-15.45161 q -3.54627,-6.58593 -1.77314,-13.93177 z" id="path4077" /></svg>