<?xml version="1.0" encoding="UTF-8" standalone="no"?><svg xmlns="http://www.w3.org/2000/svg" version="1.1" width="320" height="320" id="svg2"><path d="m 102.74906,283.7076 q -25.837112,0 -43.061852,-18.23796 -18.237959,-17.73135 -18.744569,-42.04863 -0.50661,-24.31728 21.277619,-48.12795 L 187.85955,49.653775 q 20.2644,-20.2644 44.07507,-13.67847 11.14542,3.03966 20.01109,11.90534 8.86568,8.86567 11.90534,20.01109 6.58593,24.31728 -13.67847,44.581685 L 130.106,232.53999 q -10.1322,10.1322 -22.29084,11.39873 -12.158642,1.26652 -20.264402,-6.83924 -7.59915,-6.07932 -6.83924,-18.74457 0.75992,-12.66525 11.90534,-23.30406 l 84.097262,-84.60387 q 6.07933,-6.58593 12.66526,0 6.58593,6.58593 0,12.66525 l -84.09727,84.09726 q -11.145422,11.14542 -5.0661,17.73135 3.03966,2.02644 6.07932,1.51983 6.07932,-1.01322 11.65203,-6.58593 L 238.01394,99.808165 q 12.66525,-12.66525 8.61237,-27.61024 -4.05288,-14.945 -19.25118,-18.99788 -13.67847,-3.54627 -27.35694,9.11898 L 74.885508,187.4517 q -16.71813,19.25118 -16.21152,36.22262 0.50661,16.97143 13.17186,29.38338 12.66525,12.41194 29.636692,12.91855 16.97143,0.50661 35.716,-15.70491 L 262.83783,125.13867 q 6.07932,-6.07932 12.66525,-0.2533 6.58593,5.82601 0,12.41194 L 149.86379,262.93659 q -20.77101,20.77101 -47.11473,20.77101 z" id="path4079" /></svg>