<?xml version="1.0" encoding="UTF-8" standalone="no"?><svg xmlns="http://www.w3.org/2000/svg" version="1.1" width="320" height="320" id="svg2"><path d="m 300.82782,264.85593 q 0,9.8789 -6.83924,15.1983 -6.83923,5.31941 -17.22474,5.0661 l -233.80052,0 q -10.1322,0 -16.97143,-5.3194 -6.83924,-5.31941 -7.09254,-14.945 0,-7.59915 4.55949,-15.45161 L 140.23244,45.747095 q 8.35906,-13.93177 19.75779,-13.93177 11.39872,0 19.25118,13.93177 L 296.26833,249.65763 q 4.55949,8.10576 4.55949,15.1983 z m -123.35955,-129.43886 0,-36.982535 -35.20939,0 0,36.982535 q 0,3.54627 0.50661,6.58593 0.50661,3.03966 1.51983,7.09254 1.01322,4.05288 1.26652,6.83923 l 6.58593,41.03542 14.945,0 6.83923,-41.03542 1.51983,-6.58593 q 1.01322,-4.05288 1.51983,-7.34584 0.50661,-3.29297 0.50661,-6.58593 z m 0,98.02904 q 0,-7.34585 -5.0661,-12.41195 -5.0661,-5.0661 -12.41194,-5.0661 -7.34585,0 -12.41195,5.0661 -5.0661,5.0661 -5.3194,12.41195 -0.25331,7.34584 5.3194,12.41194 5.57271,5.0661 12.15864,5.31941 7.34585,0 12.66525,-5.31941 5.31941,-5.3194 5.0661,-12.41194 z" id="path4153" /></svg>