<?xml version="1.0" encoding="UTF-8" standalone="no"?><svg xmlns="http://www.w3.org/2000/svg" version="1.1" width="320" height="320" id="svg2"><path d="m 51.304296,158.47934 q 0,-29.63668 14.69169,-54.46057 14.69169,-24.823895 39.262274,-39.515585 24.57059,-14.69169 54.71389,-14.69169 30.1433,0 54.46058,14.69169 24.31728,14.69169 39.51558,39.515585 15.1983,24.82389 14.43838,54.46057 -0.75991,29.63669 -14.43838,54.46058 -13.67847,24.82389 -39.51558,39.51558 -25.83711,14.69169 -54.46058,14.69169 -28.62347,0 -54.71389,-14.69169 -26.090414,-14.69169 -39.262274,-39.51558 -13.17186,-24.82389 -14.69169,-54.46058 z m 88.150144,-68.645655 2.53305,87.643535 q 0,1.51983 1.26653,2.53305 1.26652,1.01322 3.54627,1.01322 l 26.09041,0 q 2.02644,0 3.29297,-1.01322 1.26652,-1.01322 1.51983,-2.53305 l 2.53305,-87.643535 q 0,-1.77313 -1.51983,-2.53305 -1.26653,-1.26652 -3.29297,-1.26652 l -31.15651,0 q -2.02644,0 -3.29297,1.26652 -1.51983,0.75992 -1.51983,2.53305 z m 2.27975,136.278095 q 0,2.02644 1.51983,3.29296 1.51983,1.26653 3.29296,1.51983 l 27.10364,0 q 1.77313,0 3.03966,-1.51983 1.26652,-1.51983 1.26652,-3.29296 l 0,-26.85033 q 0,-2.02644 -1.26652,-3.29297 -1.26653,-1.26652 -3.03966,-1.26652 l -27.10364,0 q -2.02644,0 -3.29296,1.26652 -1.26653,1.26653 -1.51983,3.29297 l 0,26.85033 z" id="path4121" /></svg>