<?xml version="1.0" encoding="UTF-8" standalone="no"?><svg xmlns="http://www.w3.org/2000/svg" version="1.1" width="320" height="320" id="svg2"><path d="M 35.49083,258.28151 144.15867,59.183785 q 2.27975,-4.30619 6.58593,-6.83924 4.30619,-2.53305 9.11898,-2.53305 4.8128,0 9.11898,2.53305 4.30619,2.53305 6.83924,6.83924 L 284.23634,258.28151 q 5.0661,8.86568 -0.2533,17.73135 -2.53305,4.30619 -6.58593,6.58593 -4.05288,2.27975 -8.86568,2.53305 l -217.33569,0 q -4.55949,0 -8.86568,-2.53305 -4.30618,-2.53305 -6.58593,-6.58593 -5.3194,-8.86567 -0.2533,-17.73135 z m 104.10835,-131.46529 2.27975,64.59277 q 0,1.26653 1.51983,2.27975 1.51983,1.01322 3.29296,0.75991 l 26.09042,0 q 2.02644,0 3.29296,-0.75991 1.26653,-0.75992 1.51983,-2.27975 l 2.53305,-65.09938 q 0,-1.51983 -1.26652,-2.53305 -1.77314,-1.51983 -3.54627,-1.51983 l -30.90321,0 q -1.77314,0 -3.54627,1.51983 -1.26653,1.01322 -1.26653,3.03966 z m 2.27975,117.28021 q 0,2.02644 1.26652,3.29297 1.26653,1.26652 3.03966,1.51983 l 27.35694,0 q 1.77314,0 3.03966,-1.51983 1.26653,-1.51983 1.26653,-3.29297 l 0,-26.85033 q 0,-2.02644 -1.26653,-3.29296 -1.26652,-1.26653 -3.03966,-1.26653 l -27.35694,0 q -1.77313,0 -3.03966,1.26653 -1.26652,1.26652 -1.26652,3.29296 l 0,26.85033 z" id="path4119" /></svg>