<?xml version="1.0" encoding="UTF-8" standalone="no"?><svg xmlns="http://www.w3.org/2000/svg" version="1.1" width="320" height="320" id="svg2"><path d="m 33.225555,185.5753 q 0,-20.2644 7.85245,-38.50236 7.85246,-18.23795 21.27762,-31.91642 13.425169,-13.67847 31.663129,-21.277625 18.237956,-7.59915 38.755656,-7.85246 25.58381,0 48.38126,12.66525 l 9.11898,-9.11898 q 2.78636,-2.53305 6.33263,-2.53305 3.54627,0 6.58593,2.53305 l 9.62559,9.62559 34.19618,-34.44948 6.58593,6.58593 -34.44948,34.196185 9.62559,9.62559 q 2.53305,2.78635 2.53305,6.58593 0,3.79957 -2.53305,6.33262 l -9.11898,9.11898 q 12.66525,22.79745 12.66525,48.38125 0,20.2644 -7.85246,38.75567 -7.85245,18.49126 -21.27762,31.66312 -13.42517,13.17186 -31.91643,21.27762 -18.49127,8.10576 -38.50237,7.85246 -20.01109,-0.25331 -38.755656,-7.85246 -18.74457,-7.59915 -31.663129,-21.27762 -12.91855,-13.67847 -21.27762,-31.66312 -8.35906,-17.98466 -7.85245,-38.75567 z m 24.06397,-23.55736 q 1.26653,3.29296 4.8128,4.81279 2.026439,0.75992 3.546269,0.75992 5.82602,0 8.35906,-5.82602 4.8128,-11.65203 13.93178,-20.77101 9.11898,-9.11897 21.024306,-13.93177 3.54627,-1.77313 5.0661,-5.0661 1.51983,-3.29296 0,-6.83923 -1.51983,-3.54627 -4.81279,-5.0661 -3.29297,-1.51983 -7.09254,0 -15.198296,6.33262 -26.850326,17.98465 -11.652029,11.65203 -17.984659,27.10363 -1.51983,3.54627 0,6.83924 z M 227.7638,40.938145 q 0,-2.02644 1.26652,-3.29297 1.26653,-1.26652 3.29297,-1.26652 2.02644,0 3.29296,1.26652 l 12.66525,12.91856 q 1.26653,1.26652 1.26653,3.03966 0,1.77313 -1.39318,3.16631 -1.39318,1.39318 -3.16631,1.39318 -1.77314,0 -3.03966,-1.26653 l -12.91856,-12.66525 q -1.26652,-1.51983 -1.26652,-3.29296 z m 22.54414,8.86567 0,-13.42516 q 0,-2.02644 1.26653,-3.29297 1.26652,-1.26652 3.29296,-1.26652 2.02644,0 3.29297,1.26652 1.26652,1.26653 1.26652,3.29297 l 0,13.42516 q 0,2.02644 -1.26652,3.29297 -1.26653,1.26652 -3.29297,1.26652 -2.02644,0 -3.29296,-1.26652 -1.26653,-1.26653 -1.26653,-3.29297 z m 9.8789,23.55737 q 0,-2.02644 1.26652,-3.29296 1.26653,-1.26653 3.29297,-1.26653 2.02644,0 3.03966,1.26653 l 12.91855,12.66525 q 1.26653,1.51983 1.26653,3.29296 0,1.77314 -1.39318,3.16631 -1.39318,1.39318 -3.16631,1.39318 -1.77314,0 -3.29297,-1.26652 l -12.66525,-12.91856 q -1.26652,-1.26652 -1.26652,-3.03966 z m 0,-19.75779 q 0,-1.77314 1.26652,-3.03966 l 12.66525,-12.91856 q 1.51983,-1.26652 3.29297,-1.26652 1.77313,0 3.16631,1.26652 1.39318,1.26653 1.39318,3.29297 0,2.02644 -1.26653,3.29296 l -12.91855,12.66525 q -1.26653,1.26653 -3.03966,1.26653 -1.77314,0 -3.16632,-1.26653 -1.39317,-1.26652 -1.39317,-3.29296 z m 3.79957,9.8789 q 0,-2.02644 1.26653,-3.29297 1.26652,-1.26652 3.29296,-1.26652 l 13.42517,0 q 2.02644,0 3.29296,1.26652 1.26653,1.26653 1.26653,3.29297 0,2.02644 -1.26653,3.29296 -1.26652,1.26653 -3.29296,1.26653 l -13.42517,0 q -2.02644,0 -3.29296,-1.26653 -1.26653,-1.26652 -1.26653,-3.29296 z" id="path4053" /></svg>