<?xml version="1.0" encoding="UTF-8" standalone="no"?><svg xmlns="http://www.w3.org/2000/svg" version="1.1" width="320" height="320" id="svg2"><path d="m 68.015421,203.47695 q 9.62559,-8.61237 21.53092,-7.34585 11.905339,1.26653 22.290839,11.39873 10.38551,10.1322 11.90534,22.03754 1.51983,11.90533 -7.59915,21.02431 -21.784229,21.27762 -57.753538,25.83711 -21.27762,3.03966 -20.2644,-3.54627 0,-1.01322 1.51983,-2.53305 13.17186,-15.1983 16.21152,-36.72922 3.03966,-21.53093 12.158639,-30.1433 z M 280.79162,39.841915 q 6.58593,6.58593 -37.48914,62.819645 -44.07507,56.23371 -73.96506,85.61709 -9.62559,9.62559 -31.40982,26.34372 -2.02644,1.51983 -4.05288,-2.02644 -4.55949,-8.61237 -12.15864,-16.21152 -8.10576,-8.10576 -16.71813,-12.15864 -4.05288,-1.51983 -2.02644,-4.05288 16.21152,-21.27762 26.34372,-30.90321 29.88999,-29.38338 87.13692,-72.698535 57.24693,-43.31516 64.33947,-36.72923 z" id="path4091" /></svg>