<?xml version="1.0" encoding="UTF-8" standalone="no"?><svg xmlns="http://www.w3.org/2000/svg" version="1.1" width="320" height="320" id="svg2"><path d="m 159.73693,195.96564 q 0,31.40982 -22.03754,53.70066 -22.03753,22.29084 -53.194051,22.03753 -20.5177,0 -37.742439,-10.1322 17.224739,-9.87889 27.610239,-27.35694 10.38551,-17.47804 10.1322,-38.24905 0,-15.45161 11.14542,-26.59703 11.145421,-11.14542 26.597031,-11.14542 15.4516,0 26.59702,11.14542 11.14542,11.14542 10.89212,26.59703 z M 264.85851,53.608225 q 8.10576,8.10576 8.10576,20.01109 0,11.90534 -8.35907,20.0111 l -80.55099,80.550995 q -5.0661,-13.93178 -15.45161,-24.57059 -10.3855,-10.63881 -24.57058,-15.70491 l 80.55099,-80.550995 q 8.10576,-8.10576 20.0111,-8.10576 11.90533,0 20.2644,8.35907 z" id="path3989" /></svg>