<?xml version="1.0" encoding="UTF-8" standalone="no"?><svg xmlns="http://www.w3.org/2000/svg" version="1.1" width="320" height="320" id="svg2"><path d="m 51.304296,158.47934 q 0,-29.63668 14.69169,-54.46057 14.69169,-24.823895 39.262274,-39.515585 24.57059,-14.69169 54.71389,-14.69169 30.1433,0 54.46058,14.69169 24.31728,14.69169 39.51558,39.515585 15.1983,24.82389 14.43838,54.46057 -0.75991,29.63669 -14.43838,54.46058 -13.67847,24.82389 -39.51558,39.51558 -25.83711,14.69169 -54.46058,14.69169 -28.62347,0 -54.71389,-14.69169 -26.090414,-14.69169 -39.262274,-39.51558 -13.17186,-24.82389 -14.69169,-54.46058 z m 17.98465,0 q 0,18.49127 7.34585,35.2094 7.34584,16.71813 19.25118,28.62346 11.905334,11.90534 28.876774,19.50449 16.97144,7.59915 35.2094,7.09254 18.23796,-0.50661 34.95609,-7.09254 16.71813,-6.58593 28.87677,-19.50449 12.15864,-12.91855 19.25118,-28.62346 7.09254,-15.70491 7.34585,-35.2094 0.2533,-19.50448 -7.34585,-35.20939 -7.59915,-15.70491 -19.25118,-28.876775 -11.65203,-13.17186 -28.87677,-19.25118 -17.22474,-6.07932 -34.95609,-7.09254 -17.73135,-1.01322 -35.2094,7.09254 -17.47805,8.10576 -28.876774,19.25118 -11.39873,11.145425 -19.25118,28.876775 -7.85246,17.73135 -7.34585,35.20939 z m 18.23796,0 q 0,-29.88998 21.277624,-51.1676 21.27763,-21.277625 51.16762,-21.277625 29.88999,0 51.16761,21.277625 21.27762,21.27762 21.02432,51.1676 -0.25331,29.88999 -21.02432,51.16761 -20.77101,21.27762 -51.16761,21.27762 -30.3966,0 -51.16762,-21.27762 -20.771014,-21.27762 -21.277624,-51.16761 z m 17.984664,0 q 0,22.54415 15.95821,38.24906 15.95822,15.70491 38.50237,15.95821 22.54414,0.25331 38.24906,-15.95821 15.70491,-16.21152 15.95821,-38.24906 0.25331,-22.03753 -15.95821,-38.50235 -16.21153,-16.46483 -38.24906,-15.70491 -22.03754,0.75991 -38.50237,15.70491 -16.46482,14.94499 -15.95821,38.50235 z m 18.23796,0 q 0,-14.94499 10.63881,-25.5838 10.63881,-10.63881 25.58381,-10.63881 14.94499,0 25.5838,10.63881 10.63882,10.63881 10.38551,25.5838 -0.2533,14.945 -10.38551,25.58381 -10.1322,10.63881 -25.5838,10.63881 -15.45161,0 -25.58381,-10.63881 -10.1322,-10.63881 -10.63881,-25.58381 z" id="path4061" /></svg>