<?xml version="1.0" encoding="utf-8"?>
<!-- Generator: Adobe Illustrator 18.0.0, SVG Export Plug-In . SVG Version: 6.00 Build 0)  -->
<!DOCTYPE svg PUBLIC "-//W3C//DTD SVG 1.1//EN" "http://www.w3.org/Graphics/SVG/1.1/DTD/svg11.dtd">
<svg version="1.1" id="Layer_1" xmlns="http://www.w3.org/2000/svg" xmlns:xlink="http://www.w3.org/1999/xlink" x="0px" y="0px"
	 viewBox="0 0 220.3 219.6" enable-background="new 0 0 220.3 219.6" xml:space="preserve">
<g>
	<path fill="#010101" d="M213.1,154.1c3.1-6.7,5.5-14.2,7.2-21.6l-19.4-11c0.5-3.8,0.7-7.9,0.7-11.8c0-4.1-0.2-7.9-0.7-12l19.4-11
		c-1.7-7.4-4.1-14.6-7.2-21.6L191,67.2c-3.8-7.2-8.6-13.9-14.4-19.9l8.6-19.4c-5.8-5-12-9.6-18.7-13.2l-15.8,13.4
		c-7.7-3.8-15.8-6.5-24.7-7.9l-4.6-19.7C117.6,0,113.8,0,109.9,0s-7.7,0.2-11.5,0.5l-4.6,19.9c-8.6,1.7-16.8,4.3-24.2,8.2L53.5,14.6
		c-6.7,3.8-13,8.4-18.7,13.4L43.7,48C38.4,53.8,33.6,60.2,30,67.4L7.2,65.3C4.1,72,1.7,79.2,0,86.9l20.2,11.5
		c-0.5,3.6-0.7,7.4-0.7,11.3c0,3.8,0.2,7.7,0.7,11.5L0.2,132.7c1.7,7.4,4.1,14.6,7.2,21.6l22.8-2.2c3.8,7,8.4,13.7,13.7,19.4
		L35,191.8c5.8,5,12,9.6,18.7,13.2L69.8,191c7.4,3.8,15.6,6.5,24.2,8.2l4.6,19.9c3.8,0.5,7.7,0.5,11.5,0.5s7.7-0.2,11.5-0.5
		l4.6-19.9c8.6-1.4,17-4.3,24.5-8.2l15.8,13.7c6.7-3.8,13-8.4,18.7-13.4l-8.6-19.4c5.5-6,10.6-12.7,14.4-19.9L213.1,154.1z
		 M184.3,109.7c0,40.6-33.1,73.7-73.7,73.7S37,150.2,37,109.7S70.1,36,110.6,36S184.3,69.1,184.3,109.7z"/>
</g>
<g>
	<path fill="#010101" d="M97.1,55.5H72.9c-6.9,0-12.7,5.7-12.7,12.7v81c0,6.9,5.7,12.7,12.7,12.7H97c6.9,0,12.7-5.7,12.7-12.7v-81
		C109.8,61.2,104.1,55.5,97.1,55.5z M102.8,89.6H88.6c-1.9,0-3.4,1.5-3.4,3.4s1.5,3.4,3.4,3.4h14.2v9H88.6c-1.9,0-3.4,1.5-3.4,3.4
		s1.5,3.4,3.4,3.4h14.2v8.5H88.6c-1.9,0-3.4,1.5-3.4,3.4s1.5,3.4,3.4,3.4h14.2v8.5H88.6c-1.9,0-3.4,1.5-3.4,3.4s1.5,3.5,3.4,3.5
		h14.2v5.9c0,3.2-2.6,5.7-5.7,5.7H72.9c-3.2,0-5.7-2.6-5.7-5.7V68.1c0-3.2,2.6-5.7,5.7-5.7H97c3.2,0,5.7,2.6,5.7,5.7v6.2h-14
		c-1.9,0-3.4,1.5-3.4,3.4s1.5,3.4,3.4,3.4h14.2V89.6z"/>
	<g>
		<path fill="#010101" d="M156.4,161.8c2,0,3.7-1.7,3.7-3.7c0-2-1.7-3.7-3.7-3.7h-33.8c-2,0-3.7,1.7-3.7,3.7c0,2,1.7,3.7,3.7,3.7
			H156.4z"/>
		<path fill="#010101" d="M144,63c0-2.5-1.9-3.8-4.4-3.8c-2.7-0.1-4.6,1.4-4.6,3.8v72.4l0,0l-8.3-7.8c-0.8-0.8-1.9-1.2-2.9-1.2
			c-1.2,0-2.3,0.4-3.1,1.4c-1.6,1.7-1.6,4.5,0.2,6.2l14.1,15c2.7,2.2,6.7,1.9,9,0l14-14.8c1.7-1.7,1.7-4.5,0-6.2
			c-1.6-2.1-4.3-2.3-6-0.6l-8,7.8V63z"/>
	</g>
</g>
</svg>
