<?xml version="1.0" encoding="UTF-8" standalone="no"?><svg xmlns="http://www.w3.org/2000/svg" version="1.1" width="320" height="320" id="svg2"><path d="m 33.21108,248.90923 0,-180.859775 q 0,-7.59915 5.31941,-12.91855 5.3194,-5.31941 12.66525,-5.31941 l 217.33569,0 q 7.34585,0 12.66525,5.31941 5.31941,5.3194 5.31941,12.91855 l 0,180.859775 q 0,7.59915 -5.31941,12.91855 -5.3194,5.31941 -12.66525,5.31941 l -217.33569,0 q -7.34585,0 -12.66525,-5.31941 -5.31941,-5.3194 -5.31941,-12.91855 z m 17.98466,0 217.33569,0 0,-17.98466 -217.33569,0 0,17.98466 z m 0,-144.63715 217.33569,0 0,-36.222625 -117.02691,0 -9.11898,17.98466 -91.1898,0 0,18.237965 z m 18.237959,-27.103645 54.207271,0 0,-18.23796 -54.207271,0 0,18.23796 z m 36.222611,90.683195 q 0,22.54414 15.95822,38.24905 15.95821,15.70491 38.24905,15.95822 22.29084,0.2533 38.50237,-15.95822 16.21152,-16.21152 15.70491,-38.24905 -0.50661,-22.03754 -15.70491,-38.50236 -15.19831,-16.46482 -38.50237,-15.70491 -23.30406,0.75992 -38.24905,15.70491 -14.945,14.94499 -15.95822,38.50236 z m 17.98466,0 q 0,-14.945 10.63881,-25.58381 10.63881,-10.6388 25.5838,-10.6388 14.945,0 25.58381,10.6388 10.63881,10.63881 10.63881,25.58381 0,14.94499 -10.63881,25.5838 -10.63881,10.63881 -25.58381,10.63881 -14.94499,0 -25.5838,-10.63881 -10.63881,-10.63881 -10.63881,-25.5838 z m 13.67847,-0.25331 q 0,2.02644 1.26652,3.29297 1.26653,1.26652 3.29297,1.26652 2.02644,0 3.03966,-1.26652 1.01322,-1.26653 1.26652,-3.29297 0,-5.82601 4.05288,-9.62559 4.05288,-3.79957 9.62559,-4.05288 2.02644,0 3.29297,-1.26652 1.26652,-1.26653 1.26652,-3.29297 0,-2.02644 -1.26652,-3.29296 -1.26653,-1.26653 -3.29297,-1.26653 -9.37228,0 -15.95821,6.83924 -6.58593,6.83923 -6.58593,15.95821 z" id="path4099" /></svg>