<?xml version="1.0" encoding="UTF-8" standalone="no"?><svg xmlns="http://www.w3.org/2000/svg" version="1.1" width="320" height="320" id="svg2"><path d="m 252.19057,79.448185 q 16.46482,0 28.11685,11.65203 11.65203,11.652035 11.39873,27.863555 l 0,105.62818 q 0,16.46482 -11.39873,27.86355 -11.39872,11.39872 -28.11685,11.65203 l -184.65935,0 q -16.46483,0 -27.86355,-11.65203 -11.39873,-11.65203 -11.65204,-27.86355 l 0,-105.62818 q 0,-16.46483 11.65204,-27.863555 11.65203,-11.39873 27.86355,-11.65203 l 21.024309,0 13.171861,-13.17186 q 5.82602,-5.82602 14.69169,-9.37229 8.86568,-3.54627 16.97144,-3.79957 l 52.94074,0 q 8.35907,0 17.22475,3.79957 8.86567,3.79958 14.69169,9.37229 l 13.17186,13.17186 20.77101,0 z M 159.98754,211.42009 q 18.99788,0 32.42304,-13.42517 13.42517,-13.42516 13.55182,-32.67634 0.12666,-19.25118 -13.29851,-32.67634 -13.42517,-13.42517 -32.67635,-13.67847 -19.25118,-0.25331 -32.67634,13.67847 -13.42517,13.93177 -13.42517,32.80299 0,18.87122 13.42517,32.54969 13.42516,13.67847 32.67634,13.42517 z m 79.28447,-62.05973 q 7.34585,0 12.15864,-4.81279 4.8128,-4.8128 4.8128,-12.15864 0,-7.34584 -5.0661,-12.41194 -5.0661,-5.0661 -12.15864,-5.0661 -7.09254,0 -12.15864,5.0661 -5.0661,5.0661 -5.0661,12.15864 0,7.09253 5.0661,12.15863 5.0661,5.0661 12.41194,5.0661 z" id="path4097" /></svg>