<?xml version="1.0" encoding="UTF-8" standalone="no"?><svg xmlns="http://www.w3.org/2000/svg" version="1.1" width="320" height="320" id="svg2"><path d="m 24.217805,203.82094 q 0,-18.74457 10.1322,-34.19618 10.1322,-15.4516 26.34372,-23.05075 -0.25331,-3.79958 -0.25331,-6.07932 0,-29.88999 21.277619,-51.167615 21.277616,-21.27762 51.167606,-21.27762 22.29084,0 40.2755,12.66525 17.98465,12.66525 26.59703,32.423045 9.87889,-8.86567 23.55736,-8.86567 14.945,0 25.58381,10.63881 10.63881,10.63881 10.63881,25.5838 0,10.63881 -5.82602,19.50448 18.23796,4.30619 30.1433,18.99788 11.90533,14.69169 11.65203,33.94287 0,22.54414 -15.70491,38.24905 -15.70491,15.70491 -38.50236,15.95822 l -153.756136,0 q -26.090419,0 -44.834989,-18.49127 -18.74457,-18.49126 -18.49126,-44.83498 z" id="path4041" /></svg>