<?xml version="1.0" encoding="UTF-8" standalone="no"?><svg xmlns="http://www.w3.org/2000/svg" version="1.1" width="320" height="320" id="svg2"><path d="m 225.72289,122.51004 q 25.3305,0 43.06185,17.22473 17.73135,17.22474 17.73135,42.04863 0,24.82389 -17.73135,42.04863 -17.73135,17.22474 -43.06185,17.22474 l -146.410301,0 q -18.744569,0 -32.423039,-13.17186 -13.67847,-13.17186 -13.67847,-31.66312 0,-18.49127 13.42517,-31.66313 13.42516,-13.17186 32.676339,-13.17186 l 5.0661,0.50661 q -0.50661,-3.03966 -0.50661,-9.62559 0,-27.35693 19.757791,-46.608115 19.75779,-19.25118 47.62134,-19.25118 22.79745,0 40.52881,13.17186 17.73135,13.171865 23.81067,33.942875 7.09254,-1.01322 10.1322,-1.01322 z m -48.63457,54.71387 q 3.54627,-4.05288 3.54627,-7.59915 0,-5.0661 -7.59915,-8.10576 l -1.01322,0 q -6.58593,-3.54627 -9.62559,-4.05288 l 12.66525,-29.38337 q 1.51983,0 1.51983,-5.0661 0,-3.54627 -2.02644,-4.55949 -4.05288,-2.53305 -8.61237,2.02644 l -23.05075,24.82388 q -8.35907,9.11898 -11.39873,13.42517 -3.03966,4.30618 -3.03966,7.34584 0,5.57271 7.59915,7.59915 l 1.01322,0.50661 q 2.02644,1.01322 9.62559,4.05288 l -13.17186,28.87677 -0.50661,2.02644 q -0.50661,2.02644 -0.50661,3.54627 0,2.53305 2.02644,4.55949 4.55949,2.53305 8.61237,-2.53305 25.3305,-25.3305 33.94287,-37.48914 z" id="path3985" /></svg>