<?xml version="1.0" encoding="UTF-8" standalone="no"?><svg xmlns="http://www.w3.org/2000/svg" version="1.1" width="320" height="320" id="svg2"><path d="m 24.218755,171.14459 0,-26.09041 q 0,-1.51983 1.01322,-2.78636 1.01322,-1.26652 2.27974,-1.51983 l 21.78423,-3.54627 q 1.77314,-4.81279 4.55949,-10.6388 -4.81279,-6.83924 -12.66525,-16.21152 -1.01322,-1.51983 -1.01322,-3.03966 0,-1.51983 1.01322,-2.78636 3.03966,-4.05288 11.65203,-12.411945 8.61237,-8.35907 11.14542,-8.35907 1.51983,0 3.03966,1.01322 l 16.211519,12.66525 q 4.8128,-2.53305 10.89212,-4.55949 1.51983,-15.1983 3.29296,-21.78423 0.75992,-3.29296 4.052876,-3.29296 l 26.34372,0 q 1.51983,0 2.78636,1.01322 1.26652,1.01322 1.51983,2.53305 l 3.29296,21.53092 q 4.8128,1.51983 10.38551,4.30619 l 16.71813,-12.41195 q 1.26652,-1.01322 2.913,-1.01322 1.64649,0 2.91301,1.01322 20.51771,18.997885 20.51771,22.797455 0,1.26653 -1.01322,2.53305 l -6.07932,7.59915 q -4.30619,5.31941 -6.33263,8.61237 3.29297,6.83924 4.8128,11.65203 l 21.53093,3.03966 q 1.26652,0.50661 2.27974,1.51983 1.01322,1.01322 1.01322,2.78635 l 0,26.09042 q 0,1.51983 -1.01322,2.78635 -1.01322,1.26653 -2.27974,1.51983 l -21.78424,3.54627 q -1.51983,4.8128 -4.55949,10.63881 4.8128,6.83924 12.66525,16.21152 1.01322,1.51983 1.01322,3.03966 0,1.51983 -1.01322,2.53305 -3.29296,4.30619 -11.65203,12.66525 -8.35906,8.35907 -11.14542,8.35907 -1.51983,0 -2.78635,-1.01322 l -16.21152,-12.66525 q -5.31941,2.78635 -10.89212,4.30618 -1.51983,15.1983 -3.29296,22.03754 -1.01322,3.29296 -4.30619,3.29296 l -26.34372,0 q -1.519826,0 -2.786346,-1.01322 -1.26653,-1.01322 -1.26653,-2.53305 l -3.29296,-21.53092 q -4.8128,-1.51983 -10.63881,-4.55949 l -16.718129,12.66525 q -1.01322,1.01322 -2.65971,1.01322 -1.64648,0 -3.16631,-1.01322 -20.2644,-18.99788 -20.2644,-22.79745 0,-1.26653 1.01322,-2.53305 1.26653,-2.02644 5.82602,-7.59915 4.55949,-5.57271 6.58593,-8.61237 -3.29297,-6.07932 -5.0661,-11.65203 l -21.53093,-3.29297 q -1.26652,-0.2533 -2.27974,-1.26652 -1.01322,-1.01322 -1.01322,-2.78636 z m 54.207269,-12.91855 q 0,14.94499 10.63881,25.5838 10.63881,10.63881 25.583796,10.63881 14.945,0 25.58381,-10.63881 10.63881,-10.63881 10.63881,-25.5838 0,-14.945 -10.63881,-25.5838 -10.63881,-10.63881 -25.58381,-10.63881 -14.944986,0 -25.583796,10.63881 -10.63881,10.6388 -10.63881,25.5838 z m 108.667836,82.32412 0,-19.75779 q 0,-2.27974 21.02432,-4.55949 1.77314,-4.05288 4.30619,-7.34584 -7.34585,-15.95822 -7.34585,-19.50449 0,-0.50661 0.75992,-1.01322 l 13.17186,-7.59915 q 4.05288,-2.27974 4.30618,-2.27974 1.01322,0 6.33263,6.58593 5.3194,6.58593 7.34584,9.62559 l 4.30619,-0.25331 4.30618,0.25331 q 7.09254,-10.1322 12.91856,-15.95822 l 1.01322,-0.2533 q 0.50661,0 17.47804,9.87889 0.50661,0.50661 0.50661,1.01322 0,3.54627 -7.09254,19.50449 2.27975,3.29296 4.05288,7.34584 21.02432,2.27975 21.02432,4.55949 l 0,19.75779 q 0,2.27975 -21.02432,4.30619 -1.51983,3.79957 -4.05288,7.34584 7.09254,15.95822 7.09254,19.50449 0,0.50661 -0.50661,1.01322 -17.22474,10.1322 -17.47804,10.1322 -1.26653,0 -6.58593,-6.83924 l -7.34585,-9.37228 q -2.78635,0.2533 -4.30618,0.2533 -1.51983,0 -4.30619,-0.2533 -1.77313,2.78635 -7.34584,9.37228 -5.57271,6.58593 -6.33263,6.83924 -0.2533,0 -17.47804,-10.1322 -0.75992,-0.50661 -0.75992,-1.01322 0,-3.54627 7.34585,-19.50449 -2.53305,-3.54627 -4.30619,-7.34584 -21.02432,-2.02644 -21.02432,-4.30619 z m 0,-144.890455 0,-19.75779 q 0,-2.27975 21.02432,-4.30619 1.77314,-4.05288 4.30619,-7.34584 -7.34585,-15.95822 -7.34585,-19.50449 0,-0.50661 0.75992,-1.01322 l 13.17186,-7.59915 q 4.05288,-2.27974 4.30618,-2.27974 1.01322,0 6.33263,6.58593 5.3194,6.58593 7.34584,9.62559 3.03966,-0.50661 4.30619,-0.50661 1.26652,0 4.30618,0.50661 7.09254,-10.1322 12.91856,-15.95822 l 1.01322,-0.2533 q 0.50661,0 17.47804,9.87889 0.50661,0.50661 0.50661,1.01322 0,3.54627 -7.09254,19.50449 2.27975,3.29296 4.05288,7.34584 21.02432,2.02644 21.02432,4.30619 l 0,19.75779 q 0,2.27974 -21.02432,4.559495 -1.51983,3.79957 -4.05288,7.34584 7.09254,15.95822 7.09254,19.50449 0,0.50661 -0.50661,1.01322 -17.22474,9.87889 -17.47804,9.87889 -1.26653,0 -6.58593,-6.58593 -5.31941,-6.58593 -7.34585,-9.62559 -2.78635,0.25331 -4.30618,0.25331 -1.51983,0 -4.30619,-0.25331 -1.77313,3.03966 -7.34584,9.62559 -5.57271,6.58593 -6.07932,6.58593 -0.50661,0 -17.73135,-9.87889 -0.75992,-0.50661 -0.75992,-1.01322 0,-3.54627 7.34585,-19.50449 -2.53305,-3.54627 -4.30619,-7.34584 -21.02432,-2.279755 -21.02432,-4.559495 z m 36.22262,135.011565 q 0,7.34584 5.31941,12.66525 5.3194,5.3194 12.66525,5.3194 7.34584,0 12.91855,-5.3194 5.57271,-5.31941 5.44606,-12.66525 -0.12665,-7.34585 -5.69936,-12.91856 -5.57271,-5.57271 -12.66525,-5.3194 -7.09254,0.2533 -12.66525,5.3194 -5.57271,5.0661 -5.31941,12.91856 z m 0,-144.890465 q 0,7.59915 5.31941,12.91856 5.3194,5.319405 12.66525,5.319405 7.34584,0 12.91855,-5.319405 5.57271,-5.31941 5.44606,-12.79191 -0.12665,-7.47249 -5.69936,-12.7919 -5.57271,-5.3194 -12.66525,-5.3194 -7.09254,0 -12.66525,5.3194 -5.57271,5.31941 -5.31941,12.66525 z" id="path4015" /></svg>