<?xml version="1.0" encoding="UTF-8" standalone="no"?><svg xmlns="http://www.w3.org/2000/svg" version="1.1" width="320" height="320" id="svg2"><path d="m 309.18689,149.10706 q 0,31.91643 -20.0111,59.02006 -20.01109,27.10364 -54.46057,43.06185 -34.44949,15.95822 -74.97829,15.70491 -30.90321,0 -59.27337,-9.87889 l 0.50661,0.75991 -90.42989,27.10364 q 11.14543,-14.945 17.98466,-31.91643 6.83924,-16.97144 7.85246,-26.85033 l 1.01322,-9.62559 q -26.85034,-30.3966 -26.85034,-67.37913 0,-31.91643 20.0111,-59.020065 20.0111,-27.10364 54.46058,-42.80855 34.44948,-15.70491 74.72497,-15.70491 40.2755,0 74.97829,15.70491 34.70278,15.70491 54.46057,42.80855 19.75779,27.103635 20.0111,59.020065 z" id="path4151" /></svg>