<?xml version="1.0" encoding="UTF-8" standalone="no"?><svg xmlns="http://www.w3.org/2000/svg" version="1.1" width="320" height="320" id="svg2"><path d="m 7.2201498,177.52788 q 0.50661,-13.67847 5.8260202,-26.09042 5.3194,-12.41194 15.95821,-22.03753 10.63881,-9.62559 24.06398,-15.4516 16.21153,-7.09254 39.008979,-3.79958 9.878891,-20.011095 28.623461,-32.169735 18.74457,-12.15864 41.54202,-12.41195 21.02432,0 38.50236,10.38551 17.47805,10.3855 27.61025,28.116855 10.1322,17.73135 10.1322,37.48914 l 0,7.34584 1.77314,0 q 20.2644,-8.10576 40.27549,1.01322 20.0111,9.11898 28.37017,28.62347 7.85245,20.5177 -1.01322,40.27549 -8.86568,19.75779 -28.62347,28.62347 l -8.35907,2.02644 q -4.05288,1.01322 -3.29296,0.75991 0.75991,-0.2533 -3.79958,0.50661 -4.55949,0.75992 -3.29296,0.25331 l -183.39283,0 q -21.27763,0 -39.00898,-12.41195 Q 20.39201,226.16244 12.28625,204.63151 6.4602398,191.45965 7.2201498,177.52788 z M 120.7008,151.43746 q -1.51983,2.27975 1.01322,5.0661 l 33.18296,55.4738 q 2.02644,2.02644 3.79957,2.02644 0.75992,0 1.77314,-0.50661 1.01322,-0.50661 1.51983,-1.01322 l 35.716,-55.98041 q 1.51983,-3.03966 0,-5.3194 -1.51983,-2.27975 -5.57271,-2.27975 l -13.17186,0 0,-25.8371 -38.75566,0 0,25.8371 -14.945,0 q -3.03966,0 -4.55949,2.53305 z" id="path4013" /></svg>