<?xml version="1.0" encoding="UTF-8" standalone="no"?><svg xmlns="http://www.w3.org/2000/svg" version="1.1" width="320" height="320" id="svg2"><path d="m 51.304296,158.47934 q 0,-29.63668 14.69169,-54.46057 14.69169,-24.823895 39.262274,-39.515585 24.57059,-14.69169 54.71389,-14.69169 30.1433,0 54.46058,14.69169 24.31728,14.69169 39.51558,39.515585 15.1983,24.82389 14.43838,54.46057 -0.75991,29.63669 -14.43838,54.46058 -13.67847,24.82389 -39.51558,39.51558 -25.83711,14.69169 -54.46058,14.69169 -28.62347,0 -54.71389,-14.69169 -26.090414,-14.69169 -39.262274,-39.51558 -13.17186,-24.82389 -14.69169,-54.46058 z m 31.66312,0 q 0,21.02432 10.38551,38.50236 10.385504,17.47805 27.863554,28.11686 17.47805,10.63881 38.75567,10.3855 21.27762,-0.2533 38.50236,-10.3855 17.22474,-10.1322 27.86355,-28.11686 10.63881,-17.98465 10.38551,-38.50236 -0.25331,-20.5177 -10.38551,-38.50235 -10.1322,-17.98466 -27.86355,-28.116865 -17.73135,-10.1322 -38.50236,-10.3855 -20.77101,-0.25331 -38.75567,10.3855 -17.98466,10.638815 -27.863554,28.116865 -9.8789,17.47804 -10.38551,38.50235 z m 27.356944,2.78636 q 1.26653,-2.78636 4.30619,-2.78636 l 27.10364,0 0,-49.64777 q 0,-2.02644 1.26652,-3.29297 1.26653,-1.26652 3.29297,-1.26652 l 27.10363,0 q 2.02644,0 3.29297,1.26652 1.26652,1.26653 1.26652,3.29297 l 0,49.64777 27.10364,0 q 2.02644,0 3.29297,1.26653 1.26652,1.26652 1.26652,3.16631 0,1.89979 -1.51983,3.41962 l -45.08829,45.08829 q -1.51983,1.26652 -3.03966,1.26652 -1.51983,0 -3.29297,-1.26652 l -45.3416,-45.08829 q -2.02644,-2.27975 -1.01322,-5.0661 z" id="path4107" /></svg>