<?xml version="1.0" encoding="UTF-8" standalone="no"?><svg xmlns="http://www.w3.org/2000/svg" version="1.1" width="320" height="320" id="svg2"><path d="m 73.286237,98.068485 0,150.209875 112.467423,0 0,-66.36591 22.79745,-25.58381 0,114.74717 -158.062323,0 0,-192.511805 137.038013,0 -18.99788,19.50448 -95.242683,0 z m 189.725453,-45.5949 q 6.58593,6.83924 6.20597,15.57826 -0.37995,8.73902 -6.96588,15.83156 l -14.43839,14.18508 4.30619,-18.99787 -15.95822,-16.21152 -18.74457,4.30618 14.18508,-14.43838 q 7.09254,-6.58593 15.83156,-6.71259 8.73903,-0.12665 15.57826,6.45928 z m -55.4738,25.0772 q 1.01322,-0.75992 8.61238,-3.03966 l 10.3855,-2.78636 0.25331,-0.2533 16.97143,17.47804 q -1.01322,1.26653 -3.29296,9.37229 l -2.53305,9.625595 -93.97617,97.26912 -40.27549,9.11898 -0.50661,-0.25331 10.3855,-40.02219 z m -62.56634,106.894715 -11.39872,-11.65203 -8.86568,1.51983 -5.82601,5.57271 -2.53305,10.1322 11.65203,11.39872 9.87889,-2.27974 5.82602,-5.82602 z" id="path3991" /></svg>