<?xml version="1.0" encoding="UTF-8" standalone="no"?><svg xmlns="http://www.w3.org/2000/svg" version="1.1" width="320" height="320" id="svg2"><path d="m 33.21108,158.47934 q 0,-25.8371 10.1322,-49.14116 10.1322,-23.304065 26.850329,-40.528805 16.71813,-17.22474 40.528801,-26.85033 23.81067,-9.62559 49.14117,-10.1322 25.3305,-0.50661 49.14118,10.1322 23.81067,10.63881 40.5288,26.85033 16.71813,16.21152 26.85033,40.528805 10.1322,24.31728 10.1322,49.14116 0,24.82389 -10.1322,49.14117 -10.1322,24.31728 -26.85033,40.5288 -16.71813,16.21152 -40.5288,26.85033 -23.81068,10.63881 -49.14118,10.1322 -25.3305,-0.50661 -49.14117,-10.1322 Q 86.911739,265.37405 70.193609,248.14931 53.47548,230.92457 43.34328,207.62051 33.21108,184.31645 33.21108,158.47934 z m 6.33263,0 q 0,24.57059 9.37228,46.86143 9.37229,22.29084 25.837109,38.24905 16.46483,15.95822 38.249061,25.83711 21.78423,9.8789 46.86142,9.37229 25.0772,-0.50661 46.86143,-9.37229 21.78423,-8.86567 38.24906,-25.83711 16.46482,-16.97143 25.83711,-38.24905 9.37228,-21.27762 9.37228,-46.86143 0,-25.5838 -9.37228,-46.86142 -9.37229,-21.277625 -25.83711,-38.249055 -16.46483,-16.97144 -38.24906,-25.83711 -21.78423,-8.86568 -46.86143,-9.37229 -25.07719,-0.50661 -46.86142,9.37229 -21.784231,9.87889 -38.249061,25.83711 -16.464819,15.95821 -25.837109,38.249055 -9.37228,22.29084 -9.37228,46.86142 z m 6.07932,0 q 0,-28.87676 13.67847,-54.46057 l 8.105759,4.8128 q -4.306189,7.85245 -6.839239,15.70491 l 11.398729,4.05288 q -4.8128,14.18507 -4.8128,29.76333 0,15.57826 5.0661,30.01664 l -11.652029,4.05288 q 3.03966,8.35907 6.839239,15.70491 l -8.105759,4.8128 Q 45.62303,187.35611 45.62303,158.47934 z m 16.71813,59.77998 8.105759,-4.81279 q 4.30618,6.83923 10.3855,13.93177 l 9.11898,-8.10576 q 21.024321,23.81067 52.180831,30.1433 l -2.53305,12.15864 q 9.11898,1.77313 17.22474,1.77313 l 0,9.37229 Q 127.44054,271.95998 102.36335,257.26829 77.286149,242.5766 62.34116,218.25932 z m 0.2533,-119.559955 q 14.944999,-24.31728 39.76889,-39.00897 24.82389,-14.69169 54.46057,-15.45161 l 0,9.37229 q -9.37228,0.2533 -17.22474,1.77313 l 2.53305,12.15864 q -31.15651,6.07932 -52.180831,29.88999 l -9.11898,-7.85245 q -5.3194,5.82601 -10.3855,13.678475 z m 29.383379,36.475925 q 4.55949,-13.17186 13.931781,-23.81067 l 26.09041,22.79745 q 8.35907,-9.62559 20.77101,-12.15864 l -6.83923,-33.942875 q 6.33262,-1.26653 13.93177,-1.26653 7.59915,0 13.93178,1.26653 l -6.83924,33.942875 q 12.41195,2.53305 20.77102,12.15864 l 26.09041,-22.79745 q 9.37229,10.63881 13.93178,23.81067 l -32.92965,11.39872 q 2.02644,5.82601 2.02644,11.90533 0,6.07932 -2.02644,12.15864 l 32.92965,11.14542 q -4.30619,12.91856 -13.93178,23.81067 l -26.09041,-22.79745 q -8.10577,9.37229 -20.77102,11.90534 l 6.83924,34.19617 q -7.34585,1.51983 -13.93178,1.51983 -6.58593,0 -13.93177,-1.51983 l 6.83923,-34.19617 q -12.66525,-2.53305 -20.77101,-11.90534 l -26.09041,22.79745 Q 96.284029,194.70196 91.977839,181.7834 l 32.929651,-11.14542 q -2.02644,-6.07932 -2.02644,-12.15864 0,-6.07932 2.02644,-11.90533 z m 70.925401,128.17232 q 8.10576,0 17.22474,-1.77313 l -2.53305,-12.15864 q 31.15652,-6.33263 52.18084,-30.1433 l 9.11898,8.10576 q 6.07932,-7.09254 10.3855,-13.93177 l 8.10576,4.81279 q -14.94499,24.31728 -40.02219,39.00897 -25.07719,14.69169 -54.46058,15.45161 l 0,-9.37229 z m 0,-209.736535 0,-9.37229 q 29.63669,0.75992 54.46058,15.45161 24.82389,14.69169 39.76889,39.00897 l -7.85246,4.559495 q -5.0661,-7.852465 -10.3855,-13.678475 l -9.11898,7.85245 q -21.02432,-23.81067 -52.18084,-29.88999 l 2.53305,-12.15864 q -7.85245,-1.51983 -17.22474,-1.77313 z m 84.60388,134.758255 q 5.0661,-14.43838 5.0661,-30.14329 0,-15.70491 -4.8128,-29.63668 l 11.39873,-4.05288 q -2.53305,-7.85246 -6.83924,-15.70491 l 8.10576,-4.8128 q 13.67847,25.58381 13.67847,54.46057 0,28.87677 -13.67847,54.46058 l -8.10576,-4.8128 q 3.79958,-7.34584 6.83924,-15.70491 z" id="path4059" /></svg>