<?xml version="1.0" encoding="utf-8"?>
<!-- Generator: Adobe Illustrator 18.0.0, SVG Export Plug-In . SVG Version: 6.00 Build 0)  -->
<!DOCTYPE svg PUBLIC "-//W3C//DTD SVG 1.1//EN" "http://www.w3.org/Graphics/SVG/1.1/DTD/svg11.dtd">
<svg version="1.1" id="Layer_1" xmlns="http://www.w3.org/2000/svg" xmlns:xlink="http://www.w3.org/1999/xlink" x="0px" y="0px"
	 viewBox="54.3 218.4 191.3 47.6" enable-background="new 54.3 218.4 191.3 47.6" xml:space="preserve">
<path fill="#0E1352" d="M54.3,218.4C76.2,247.3,110.9,266,150,266c39,0,73.7-18.8,95.6-47.6H54.3z"/>
<path fill="#FFFFFF" d="M146,260.6c-1.9-1.9-1.9-5,0-6.9l7.2-7.1h-19c-2.8,0-5-2.2-5-5v-0.3c0-2.8,2.2-5,5-5h18.9l-7.1-7
	c-1.9-1.9-1.9-5,0-6.9c1.9-1.9,5.1-1.9,7,0l15.8,15.7c1.9,1.9,1.9,5,0,6.9L153,260.6C151.1,262.5,147.9,262.5,146,260.6z"/>
</svg>
