<?xml version="1.0" encoding="utf-8"?>
<!-- Generator: Adobe Illustrator 18.0.0, SVG Export Plug-In . SVG Version: 6.00 Build 0)  -->
<!DOCTYPE svg PUBLIC "-//W3C//DTD SVG 1.1//EN" "http://www.w3.org/Graphics/SVG/1.1/DTD/svg11.dtd">
<svg version="1.1" id="Layer_1" xmlns="http://www.w3.org/2000/svg" xmlns:xlink="http://www.w3.org/1999/xlink" x="0px" y="0px"
	 viewBox="0 0 300 300" enable-background="new 0 0 300 300" xml:space="preserve">
<path stroke="#FFFFFF" stroke-width="38" stroke-miterlimit="10" d="M270,146c0-66.3-53.7-120-120-120S30,79.7,30,146
	s53.7,120,120,120S270,212.3,270,146z"/>
<path fill="#0E1352" d="M270,146c0-66.3-53.7-120-120-120S30,79.7,30,146s53.7,120,120,120S270,212.3,270,146z"/>
<path fill="#FFFFFF" d="M135.7,218.7c-7.3-7.3-7.3-19,0-26.3l27.2-26.9H90.9c-10.4,0-18.9-8.5-18.9-18.9v-1.2
	c0-10.4,8.5-18.9,18.9-18.9h71.8l-27-26.7c-7.3-7.3-7.3-19,0-26.3c7.4-7.2,19.2-7.3,26.6,0l60,59.4c7.3,7.2,7.3,19,0,26.3l-60,59.4
	C155,225.9,143.1,225.9,135.7,218.7z"/>
</svg>
