<?xml version="1.0" encoding="UTF-8" standalone="no"?><svg xmlns="http://www.w3.org/2000/svg" version="1.1" width="320" height="320" id="svg2"><path d="m 60.83188,129.60258 q -1.26653,-3.54627 0.50661,-7.09254 l 2.02644,-3.54627 q 1.26652,-2.27975 5.3194,-7.59915 4.05288,-5.31941 8.61237,-9.8789 4.55949,-4.559495 11.90534,-9.625595 7.34585,-5.0661 15.45161,-7.34584 -3.54627,-5.82602 -3.54627,-12.15864 0,-9.37229 6.58593,-15.95822 6.58593,-6.58593 15.95821,-6.58593 9.37229,0 15.95822,6.58593 6.58593,6.58593 6.58593,15.95822 0,4.81279 -1.77314,9.11898 l 42.55525,0 q 0,-1.51983 1.01322,-2.78636 1.01322,-1.26652 2.53305,-1.51983 l 63.32625,-13.67847 q 0.50661,-0.2533 1.01322,-0.2533 1.77313,0 2.78635,1.01322 1.77314,1.26652 1.77314,3.54627 l 0,45.341595 q 0,2.27975 -1.77314,3.54627 -1.01322,1.01322 -2.78635,1.01322 -0.50661,0 -1.01322,-0.2533 l -63.32625,-13.42517 q -1.51983,-0.50661 -2.53305,-1.77313 -1.01322,-1.26653 -1.01322,-2.786365 l -36.22262,0 0,14.438395 q 15.70491,3.29296 26.09042,15.70491 10.3855,12.41194 10.1322,28.62346 l 0,113.22733 q 0,3.54627 -2.78636,6.33263 -2.78635,2.78635 -6.33262,2.78635 l -72.19193,0 q -3.79958,0 -6.58593,-2.78635 -2.78636,-2.78636 -2.53305,-6.33263 l 0,-113.22733 q 0,-14.945 8.86567,-26.85033 8.86568,-11.90533 22.79745,-16.21152 l 0,-15.704915 -4.55949,0 q -8.35906,0 -16.21152,3.292975 -7.85245,3.29296 -12.91855,7.59915 -5.06611,4.30618 -9.37229,9.37228 -4.30619,5.0661 -5.82602,7.59915 -1.51983,2.53305 -1.77313,3.54627 -2.53305,4.8128 -8.10576,4.8128 -2.27975,0 -4.05288,-1.01322 -3.29297,-1.51983 -4.55949,-5.0661 z m 53.70066,-57.246935 q 0,3.79957 2.78636,6.33262 2.78635,2.53305 6.33262,2.78636 3.54627,0.2533 6.33263,-2.78636 2.78635,-3.03966 2.78635,-6.33262 0,-3.29297 -2.78635,-6.33263 -2.78636,-3.03966 -6.33263,-2.78635 -3.54627,0.2533 -6.33262,2.78635 -2.78636,2.53305 -2.78636,6.33263 z" id="path4063" /></svg>