<?xml version="1.0" encoding="UTF-8" standalone="no"?><svg xmlns="http://www.w3.org/2000/svg" version="1.1" width="320" height="320" id="svg2"><path d="m 33.21108,149.61683 q 0,-4.81279 2.78636,-9.87889 19.75779,-32.42304 53.194049,-51.927525 33.436261,-19.50449 70.672091,-19.75779 37.23584,-0.25331 70.6721,19.75779 33.43626,20.011095 53.19405,51.927525 2.78636,5.0661 2.78636,9.87889 0,4.8128 -2.78636,9.62559 -19.75779,32.67635 -53.19405,52.18083 -33.43626,19.50449 -70.6721,19.50449 -37.23583,0 -70.672091,-19.50449 -33.436259,-19.50448 -53.194049,-52.18083 -2.78636,-4.81279 -2.78636,-9.62559 z m 17.98466,0 q 18.997869,28.87677 47.368029,46.10151 28.370161,17.22474 61.299811,17.22474 32.92966,0 61.29982,-17.22474 28.37016,-17.22474 47.36803,-46.10151 -21.53092,-33.43625 -53.95396,-49.901085 8.61237,14.691695 8.61237,31.663135 0,26.34371 -18.49127,44.83498 -18.49126,18.49126 -44.83499,18.49126 -26.34372,0 -44.83498,-18.49126 -18.491271,-18.49127 -18.491271,-44.83498 0,-16.97144 8.612371,-31.663135 -32.423041,16.464835 -53.95396,49.901085 z m 65.60599,-18.23795 q 0,2.78635 2.02644,4.81279 2.02644,2.02644 4.8128,2.02644 2.78635,0 4.81279,-2.02644 2.02644,-2.02644 2.02644,-4.81279 0,-12.15864 8.61237,-20.77101 8.61237,-8.61237 20.77101,-8.61237 2.78636,0 4.8128,-2.026445 2.02644,-2.02644 2.02644,-4.8128 0,-2.78635 -2.02644,-4.81279 -2.02644,-2.02644 -4.8128,-1.77314 -17.73135,0 -30.3966,12.665255 -12.66525,12.66525 -12.66525,30.1433 z" id="path4123" /></svg>