<?xml version="1.0" encoding="UTF-8" standalone="no"?><svg xmlns="http://www.w3.org/2000/svg" version="1.1" width="320" height="320" id="svg2"><path d="m 24.218755,158.31047 0,-17.98465 27.10363,-3.29297 0,-1.26652 -17.98465,0 0,-4.55949 -4.55949,0 0,-27.10363 4.55949,-4.559495 13.42516,0 27.103629,31.663125 22.79745,0 0,-58.766765 -9.11898,0 0,-4.55949 45.341596,0 q 3.54627,0 6.33263,0.75992 2.78635,0.75991 2.53305,1.51983 -0.25331,0.75991 -2.53305,1.77313 -2.27975,1.01322 -6.33263,0.50661 l -9.87889,0 41.54202,49.901095 8.86567,0 31.66313,8.86567 49.90109,4.55949 q 36.72922,8.35906 40.5288,13.17186 l 0,0.50661 q 0,4.55949 -40.5288,13.42516 l -49.90109,4.55949 -31.66313,9.11898 -8.86567,0 -41.54202,49.64779 9.87889,0 q 3.54627,0 6.33263,0.75991 2.78635,0.75991 2.53305,1.51983 -0.25331,0.75991 -2.53305,1.77313 -2.27975,1.01322 -6.33263,0.50661 l -45.341596,0 0,-4.55948 9.11898,0 0,-58.76677 -22.79745,0 -27.103629,31.66313 -13.42516,0 -4.55949,-4.55949 0,-27.10364 4.55949,0 0,-4.55949 17.98465,0 0,-1.01322 z" id="path4101" /></svg>