<?xml version="1.0" encoding="UTF-8" standalone="no"?><svg xmlns="http://www.w3.org/2000/svg" version="1.1" width="320" height="320" id="svg2"><path d="m 51.32239,271.45337 0,-225.948055 q 0,-5.82602 4.05288,-9.62559 4.05288,-3.79958 9.62559,-4.05288 l 126.6525,0 q 5.57271,0 12.41195,2.78635 6.83923,2.78636 10.63881,6.83924 l 44.07507,44.07507 q 4.05288,4.05288 6.83923,10.63881 2.78636,6.585935 2.78636,12.665255 l 0,162.6218 q 0,5.82602 -3.79958,9.62559 -3.79957,3.79958 -9.62559,4.05288 l -189.97875,0 q -5.82602,0 -9.62559,-4.05288 -3.79958,-4.05288 -4.05288,-9.62559 z m 17.98465,-4.30618 181.11308,0 0,-144.89046 -58.76676,0 q -5.82601,0 -9.62559,-3.79957 -3.79957,-3.79958 -4.05288,-9.62559 l 0,-59.020075 -108.66785,0 0,217.335695 z m 18.23796,-18.23796 0,-27.10364 27.10364,-27.10363 17.98465,17.98465 54.46058,-54.20727 45.08829,45.3416 0,45.08829 -144.63716,0 z m 0,-99.54887 q 0,-11.14542 7.85246,-19.25117 7.85245,-8.10576 19.25118,-7.85246 11.39872,0.25331 19.25118,7.85246 7.85245,7.59914 7.85245,19.25117 0,11.65203 -7.85245,19.25118 -7.85246,7.59915 -19.25118,7.85246 -11.39873,0.2533 -19.25118,-7.85246 Q 87.545,160.50578 87.545,149.36036 z m 108.41455,-45.08828 53.19405,0 q -1.26653,-4.05288 -3.03966,-5.826025 l -44.32838,-44.32837 q -1.51983,-1.77314 -5.82601,-3.03966 l 0,53.194055 z" id="path4117" /></svg>