<?xml version="1.0" encoding="UTF-8" standalone="no"?><svg xmlns="http://www.w3.org/2000/svg" version="1.1" width="320" height="320" id="svg2"><path d="m 60.332808,271.41719 q 0,-1.77314 1.26652,-3.03966 1.26653,-1.26653 3.29297,-1.26653 l 189.978762,0 q 1.77313,0 3.03966,1.26653 1.26652,1.26652 1.51983,3.03966 l 0,9.11898 q 0,1.77313 -1.51983,3.29296 -1.51983,1.51983 -3.03966,1.26653 l -189.978762,0 q -1.77314,0 -3.29297,-1.26653 -1.51983,-1.26652 -1.26652,-3.29296 l 0,-9.11898 z m 36.22261,-112.97403 q 0,-11.14542 3.546272,-20.2644 3.54627,-9.11898 8.86568,-15.95822 5.3194,-6.83923 12.41194,-12.41194 l 13.67847,-10.892125 q 6.58593,-5.3194 12.15864,-10.3855 5.57271,-5.0661 9.11898,-11.39872 3.54628,-6.33263 3.54628,-13.67847 0,-13.17187 -9.37229,-31.66313 l 0.50661,0.2533 -0.25331,-0.2533 q 12.66526,5.82602 22.54415,11.65203 9.8789,5.82601 19.75779,14.18508 9.8789,8.35907 15.95822,17.22474 6.07932,8.86568 10.38551,21.27762 4.30618,12.411945 3.79957,26.090415 0,11.14542 -3.54627,20.2644 -3.54627,9.11898 -9.11898,15.95822 -5.57271,6.83923 -12.15864,12.41194 -6.58593,5.57271 -13.67847,11.14542 -7.09254,5.57271 -12.41195,10.1322 -5.3194,4.55949 -8.86567,11.39873 -3.54627,6.83923 -3.54627,13.67847 0,13.67847 9.37228,31.66312 l -0.50661,0 0.25331,0 q -12.91856,-5.82601 -22.79746,-11.65203 -9.87889,-5.82601 -19.50448,-14.18508 -9.62559,-8.35906 -15.95822,-17.22474 -6.33262,-8.86567 -10.3855,-21.27762 -4.052882,-12.41194 -3.799582,-26.09041 z" id="path4073" /></svg>