<?xml version="1.0" encoding="UTF-8" standalone="no"?><svg xmlns="http://www.w3.org/2000/svg" version="1.1" width="320" height="320" id="svg2"><path d="m 37.77057,68.049455 q 0,-7.59915 5.31941,-12.91855 5.3194,-5.31941 12.66525,-5.31941 7.34584,0 12.918549,5.31941 5.57271,5.3194 5.31941,12.91855 0,4.8128 -2.53305,9.11898 -2.53305,4.30619 -6.585929,6.33263 l 0,179.086635 q 0,2.02644 -1.26653,3.29296 -1.26652,1.26653 -3.29296,1.26653 l -9.11898,0 q -1.77314,0 -3.29297,-1.26653 -1.51983,-1.26652 -1.26652,-3.29296 l 0,-179.086635 q -4.05288,-2.27975 -6.33263,-6.33263 -2.27974,-4.05288 -2.53305,-9.11898 z m 36.222619,135.771485 0,-104.868275 q 0,-5.0661 4.30618,-7.85245 4.8128,-3.03966 11.14542,-6.07932 6.33263,-3.03966 15.958221,-7.34585 9.62559,-4.30618 21.53092,-7.09254 11.90534,-2.78635 22.03754,-2.53305 15.70491,0 29.63668,4.30619 13.93178,4.30618 29.38339,12.15864 5.3194,2.78635 12.66525,2.78635 17.22474,0 43.82176,-15.95821 3.03966,-1.51983 4.30619,-2.27975 4.30618,-2.27974 8.73902,0.37996 4.43284,2.6597 4.43284,7.7258 l 0,107.654625 q 0,5.57271 -5.0661,8.10576 l -2.27975,1.26653 q -30.90321,16.46482 -52.18083,16.46482 -12.41194,0 -22.29084,-5.0661 l -4.05288,-1.77313 q -8.86568,-4.8128 -13.93178,-6.83924 -5.0661,-2.02644 -12.91855,-4.05288 -7.85246,-2.02644 -15.95822,-2.02644 -14.43838,0 -33.43626,6.07932 -18.99787,6.07932 -32.169731,14.43839 -2.27975,1.26652 -4.68615,1.26652 -2.40639,0 -4.68614,-1.01322 -4.30618,-2.78635 -4.30618,-7.85245 z m 17.98465,-15.1983 q 34.702791,-15.95822 61.299811,-15.95822 7.59915,0 14.43839,1.26653 6.83923,1.26652 13.93177,3.54627 7.09254,2.27974 10.89212,4.30618 3.79958,2.02644 11.65203,5.57271 l 4.05288,2.02644 q 6.07932,3.03966 14.18508,3.03966 16.97144,0 41.54202,-12.91855 l 0,-87.136925 q -24.06397,12.918565 -43.31515,12.918565 -11.65203,0 -20.51771,-4.55949 -14.18508,-6.839245 -26.09042,-10.638815 -11.90533,-3.79958 -25.07719,-4.05288 -24.57059,0 -56.993631,17.984655 l 0,84.60387 z" id="path4025" /></svg>