<?xml version="1.0" encoding="UTF-8" standalone="no"?><svg xmlns="http://www.w3.org/2000/svg" version="1.1" width="320" height="320" id="svg2"><path d="M 96.720003,153.15994 125.09016,36.386335 q 0.50661,-2.02644 2.27975,-3.29297 1.77313,-1.26652 3.79957,-1.26652 l 46.35482,0 q 2.78635,0 4.55949,1.77313 1.77313,1.77314 1.77313,4.30619 0,1.01322 -0.50661,2.53305 L 159.03303,105.7919 215.01344,92.113425 q 1.26653,-0.50661 1.77314,-0.50661 2.78635,0 4.81279,2.27975 2.53305,2.78635 1.01322,6.07932 L 146.11448,263.60092 q -1.77314,3.54627 -5.82602,3.54627 l -2.02644,-0.25331 q -2.27974,-0.75991 -3.54627,-2.78635 -1.26652,-2.02644 -0.75991,-4.05288 l 27.86355,-114.24056 -57.24693,14.18508 q -0.50661,0.25331 -1.77314,0.25331 -2.53305,0 -4.306177,-1.77314 -2.53305,-2.02644 -1.77314,-5.3194 z" id="path4039" /></svg>