<?xml version="1.0" encoding="UTF-8" standalone="no"?><svg xmlns="http://www.w3.org/2000/svg" version="1.1" width="320" height="320" id="svg2"><path d="m 100.74502,277.53269 31.40982,-101.322 -45.594903,0 -28.370159,25.3305 -25.33051,0 20.26441,-43.06185 -20.26441,-43.06184 25.33051,0 28.370159,25.33049 45.594903,0 -31.40982,-101.321995 25.3305,0 56.74032,101.321995 69.40557,0 9.11898,1.01322 q 9.11898,1.01322 11.65203,2.78636 2.53305,1.77313 9.11898,5.3194 6.58593,3.54627 4.05288,8.61237 0,8.10576 -9.62559,12.41195 -9.62559,4.30618 -18.74457,4.81279 l -9.62559,0.50661 -65.35269,0 -56.74032,101.322 -25.3305,0 z" id="path4001" /></svg>