<?xml version="1.0" encoding="UTF-8" standalone="no"?><svg xmlns="http://www.w3.org/2000/svg" version="1.1" width="320" height="320" id="svg2"><path d="m 51.32239,253.46872 0,-189.978755 q 0,-5.57271 4.05288,-9.62559 4.05288,-4.05288 9.62559,-4.05288 l 130.95869,0 q 5.82601,0 12.66525,3.03966 6.83923,3.03966 10.63881,6.58593 l 39.51558,39.76889 q 4.05288,3.799575 6.83923,10.638815 2.78636,6.83923 2.78636,12.41194 l 0,131.21199 q 0,5.57271 -3.79958,9.62559 -3.79957,4.05288 -9.62559,4.05288 l -189.97875,0 q -5.82602,0 -9.62559,-4.05288 -3.79958,-4.05288 -4.05288,-9.62559 z m 17.98465,-4.55949 18.23796,0 0,-58.76676 q 0,-5.57271 4.05288,-9.62559 4.05288,-4.05288 9.37229,-4.05288 l 117.78683,0 q 5.57271,0 9.62559,4.05288 4.05288,4.05288 3.79957,9.62559 l 0,58.76676 18.23796,0 0,-126.6525 q 0,-2.02644 -1.51983,-5.3194 -1.51983,-3.29297 -2.78635,-5.0661 L 206.34505,72.355645 q -1.26652,-1.51983 -4.81279,-3.03966 -3.54627,-1.51983 -5.57271,-1.26653 l 0,58.766765 q 0,5.57271 -3.79958,9.62559 -3.79957,4.05288 -9.62559,4.05288 l -81.56421,0 q -5.57271,0 -9.37229,-4.05288 -3.79957,-4.05288 -4.05288,-9.62559 l 0,-58.766765 -18.23796,0 0,180.859775 z m 36.22262,0 108.66785,0 0,-54.20727 -108.66785,0 0,54.20727 z m 36.22261,-131.21199 q 0,2.02644 1.26653,3.29297 1.26652,1.26652 3.29296,1.26652 l 27.10364,0 q 1.77314,0 3.29297,-1.26652 1.51983,-1.26653 1.26652,-3.29297 l 0,-45.088295 q 0,-2.02644 -1.26652,-3.29296 -1.26653,-1.26653 -3.29297,-1.26653 l -27.10364,0 q -1.77313,0 -3.29296,1.26653 -1.51983,1.26652 -1.26653,3.29296 l 0,45.088295 z" id="path4017" /></svg>