<?xml version="1.0" encoding="UTF-8" standalone="no"?><svg xmlns="http://www.w3.org/2000/svg" version="1.1" width="320" height="320" id="svg2"><path d="m 42.20341,267.14719 0.2533,-11.14542 q 3.29297,-1.01322 7.85246,-1.77314 4.55949,-0.75991 8.105759,-1.51983 3.54627,-0.75991 7.09254,-2.02644 3.54627,-1.26652 6.33262,-4.30618 2.78636,-3.03966 4.30619,-7.09254 l 33.436261,-87.13692 39.51558,-102.335225 18.23796,0 1.51983,3.03966 28.87677,67.885745 q 4.8128,11.14542 15.1983,36.47592 l 15.95822,38.75566 q 2.27974,4.8128 8.35906,20.51771 6.07932,15.70491 10.1322,23.81067 2.78636,6.33262 4.8128,7.85245 2.78635,2.27975 12.41194,4.30619 9.62559,2.02644 11.90534,2.78635 1.01322,5.57271 1.01322,8.10576 l -0.25331,1.77314 q -0.2533,1.26652 0,2.02644 -8.86567,0 -26.85033,-1.26653 -17.98465,-1.26652 -27.10363,-1.01322 -10.63881,0 -30.3966,1.01322 -19.7578,1.01322 -25.0772,1.01322 0,-6.07932 0.50661,-10.89211 l 18.49127,-4.05288 1.77313,-0.25331 q 1.51983,-0.2533 2.27975,-0.50661 l 4.30618,-1.77313 q 1.01322,-0.50661 1.51983,-1.01322 l 1.26653,-1.51983 q 0.75991,-1.01322 0.2533,-2.02644 0,-2.27975 -4.30618,-13.67847 -4.30619,-11.39873 -10.1322,-25.0772 l -6.07932,-14.18508 -63.57956,-0.2533 q -3.54627,8.35906 -10.89212,27.61024 -7.345841,19.25118 -7.092541,23.05076 0,3.03966 2.02644,5.3194 2.026441,2.27975 6.079321,3.54627 4.05288,1.26653 6.83924,1.77314 l 8.10576,1.26652 q 5.3194,0.75992 5.82601,0.50661 0.25331,2.78636 0.25331,8.10576 0,1.26653 -0.50661,4.05288 -8.10576,0 -24.57059,-1.51983 -16.464821,-1.51983 -24.570581,-1.51983 -1.26653,0 -3.79958,0.75992 -2.53305,0.75991 -3.03966,0.50661 -11.39872,2.02644 -26.597019,2.02644 z m 78.52455,-92.70963 q 4.55949,0 19.25118,0.2533 14.69169,0.25331 22.54414,0.25331 2.78636,0 8.10576,-0.25331 -12.15864,-35.716 -25.83711,-63.83285 z" id="path4027" /></svg>