<?xml version="1.0" encoding="UTF-8" standalone="no"?><svg xmlns="http://www.w3.org/2000/svg" version="1.1" width="320" height="320" id="svg2"><path d="m 60.314715,131.3952 0,-90.429895 q 0,-3.79958 2.78636,-6.33263 2.78635,-2.53305 6.33262,-2.78635 3.54627,-0.25331 6.33263,2.78635 2.78635,3.03966 2.53305,6.33263 l 0,58.76676 q 0,3.546275 2.78635,6.332635 2.78636,2.78635 6.33263,2.78635 3.54627,0 6.33262,-2.78635 2.78636,-2.78636 2.78636,-6.332635 l 0,-58.76676 q 0,-3.79958 2.78635,-6.33263 2.786355,-2.53305 6.332625,-2.78635 3.54627,-0.25331 6.33262,2.78635 2.78636,3.03966 2.53305,6.33263 l 0,58.76676 q 0,3.546275 2.78636,6.332635 2.78635,2.78635 6.33262,2.78635 3.54627,0 6.33263,-2.78635 2.78635,-2.78636 2.78635,-6.332635 l 0,-58.76676 q 0,-3.79958 2.53305,-6.33263 2.53305,-2.53305 6.33263,-2.78635 3.79957,-0.25331 6.58593,2.78635 2.78635,3.03966 2.53305,6.33263 l 0,90.429895 q 0,8.61236 -5.0661,15.7049 -5.0661,7.09254 -12.91856,9.8789 l 0,110.18767 q 0,7.34585 -5.3194,12.66525 -5.31941,5.31941 -12.91856,5.31941 l -17.984645,0 q -7.34585,0 -12.66525,-5.31941 -5.31941,-5.3194 -5.57271,-12.66525 l 0,-110.18767 q -7.85246,-2.78636 -12.91856,-9.8789 -5.0661,-7.09254 -5.0661,-15.7049 z m 108.667845,58.76675 0,-112.974025 q 0,-18.74457 13.17186,-32.16974 13.17186,-13.42517 31.91643,-13.17186 l 36.22262,0 q 3.79957,0 6.33262,2.78635 2.53305,2.78636 2.78636,6.33263 l 0,226.201365 q 0,7.34585 -5.31941,12.66525 -5.3194,5.31941 -12.91855,5.31941 l -17.98466,0 q -7.34584,0 -12.66525,-5.31941 -5.3194,-5.3194 -5.57271,-12.66525 l 0,-72.44523 -31.66312,0 q -1.77314,0 -3.03966,-1.26652 -1.26653,-1.26653 -1.26653,-3.29297 z" id="path4069" /></svg>