<?xml version="1.0" encoding="UTF-8" standalone="no"?><svg xmlns="http://www.w3.org/2000/svg" version="1.1" width="320" height="320" id="svg2"><path d="m 24.21726,140.24436 q 0,-29.88998 21.27763,-51.167605 21.27762,-21.27762 51.167609,-21.02432 l 126.652501,0 q 29.88999,0 51.16761,21.02432 21.27762,21.024315 21.02432,51.167605 -0.25331,30.1433 -21.02432,51.16761 -20.77101,21.02432 -51.16761,21.27762 -27.10363,0 -47.87465,-17.98465 l -31.15651,0 q -20.51771,17.98465 -47.621341,17.98465 -30.143299,0 -51.167609,-21.27762 -21.02433,-21.27762 -21.27763,-51.16761 z m 27.10364,9.11898 q 0,2.02644 1.26653,3.29297 1.26652,1.26652 3.29296,1.26652 l 27.103639,0 0,27.10364 q 0,2.02644 1.26652,3.29296 1.26653,1.26653 3.29297,1.26653 l 17.984651,0 q 2.02644,0 3.29297,-1.26653 1.26652,-1.26652 1.26652,-3.29296 l 0,-27.10364 27.10364,0 q 2.02644,0 3.29296,-1.26652 1.26653,-1.26653 1.26653,-3.29297 l 0,-17.98465 q 0,-2.02644 -1.26653,-3.29296 -1.26652,-1.26653 -3.29296,-1.26653 l -27.10364,0 0,-27.103635 q 0,-2.02644 -1.26652,-3.29297 -1.26653,-1.26652 -3.29297,-1.26652 l -17.984651,0 q -2.02644,0 -3.29297,1.26652 -1.26652,1.26653 -1.26652,3.29297 l 0,27.103635 -27.103639,0 q -2.02644,0 -3.29296,1.26653 -1.26653,1.26652 -1.26653,3.29296 l 0,17.98465 z m 135.77148,9.11898 q 0,7.34585 5.31941,12.66525 5.31941,5.31941 12.66525,5.31941 7.34585,0 12.91856,-5.31941 5.57271,-5.3194 5.3194,-12.66525 -0.2533,-7.34584 -5.3194,-12.91855 -5.0661,-5.57271 -12.91856,-5.31941 -7.85245,0.25331 -12.66525,5.31941 -4.8128,5.0661 -5.31941,12.91855 z M 223.315,122.25971 q 0,7.59915 5.31941,12.66525 5.3194,5.0661 12.66525,5.3194 7.34584,0.25331 12.91855,-5.3194 5.57271,-5.57271 5.31941,-12.66525 -0.25331,-7.09254 -5.31941,-12.91855 -5.0661,-5.82602 -12.91855,-5.0661 -7.85246,0.75991 -12.66525,5.0661 -4.8128,4.30618 -5.31941,12.91855 z" id="path3999" /></svg>