<?xml version="1.0" encoding="UTF-8" standalone="no"?><svg xmlns="http://www.w3.org/2000/svg" version="1.1" width="320" height="320" id="svg2"><path d="m 33.467637,149.40702 q -0.50661,-3.29296 2.02644,-6.33262 L 126.68388,95.959665 q 7.34584,-2.78635 10.3855,4.052885 2.78636,8.35907 -3.54627,11.39873 l -57.500234,26.34371 166.674704,0 -57.75355,-26.34371 q -6.33263,-4.05288 -3.54627,-11.39873 3.54627,-6.839235 10.89212,-4.052885 l 91.69641,47.114735 q 2.78635,3.03966 2.27974,6.33262 l -6.83923,64.84608 q -2.02644,7.59915 -8.35907,7.59915 l -79.28446,0 q -6.33263,-0.50661 -7.85246,-6.58593 l -12.41195,-56.48701 q -9.87889,-6.33263 -23.30406,-0.25331 l -12.66525,56.74032 q -1.51983,6.58593 -8.10576,6.58593 l -79.031163,0 q -6.83923,-0.50661 -7.85245,-7.59915 z m 16.97143,7.59915 4.8128,47.87465 65.859303,0 10.89211,-47.87465 -81.564213,0 z m 137.544623,0 10.38551,47.87465 65.60599,0 5.0661,-47.87465 -81.0576,0 z" id="path4149" /></svg>