<?xml version="1.0" encoding="UTF-8" standalone="no"?><svg xmlns="http://www.w3.org/2000/svg" version="1.1" width="320" height="320" id="svg2"><path d="m 51.304296,158.47934 q 0,-29.63668 14.69169,-54.46057 14.69169,-24.823895 39.262274,-39.515585 24.57059,-14.69169 54.71389,-14.69169 30.1433,0 54.46058,14.69169 24.31728,14.69169 39.51558,39.515585 15.1983,24.82389 14.43838,54.46057 -0.75991,29.63669 -14.43838,54.46058 -13.67847,24.82389 -39.51558,39.51558 -25.83711,14.69169 -54.46058,14.69169 -28.62347,0 -54.71389,-14.69169 -26.090414,-14.69169 -39.262274,-39.51558 -13.17186,-24.82389 -14.69169,-54.46058 z m 31.91643,-47.87464 q 1.01322,1.01322 1.64648,1.13987 0.63326,0.12666 0.88657,1.13988 0.2533,1.01322 0.2533,1.51983 0,0.50661 1.51983,-0.25331 1.26653,1.01322 0.50661,2.53305 0.25331,0 6.33263,3.79958 2.53305,2.53305 2.78635,3.03966 0.50661,1.51983 -1.26652,2.53305 l -1.26653,-1.26653 q -1.01322,-1.01322 -1.39317,-0.37996 -0.37996,0.63327 0.12665,2.4064 0.50661,1.77314 1.51983,1.77314 -1.01322,0 -1.26653,2.27974 l -0.50661,5.0661 q -0.2533,2.78635 0,3.29296 l 0.25331,0.25331 q -0.50661,1.51983 0.75991,4.81279 1.26653,3.29297 3.03966,2.78636 -1.77313,0.2533 2.78636,6.07932 l 1.013224,1.26652 1.77313,1.01322 2.27975,1.51983 q 1.01322,0.75992 1.39318,1.39318 0.37995,0.63326 1.39317,3.16631 1.01322,2.53305 2.02644,3.29297 -0.50661,0.75991 1.26653,2.78635 1.77313,2.02644 1.51983,3.29297 -0.25331,0 -0.50661,0.2533 -0.25331,0.25331 -0.25331,0 0.50661,1.01322 2.27975,2.02644 1.77313,1.01322 2.02644,1.64649 0.2533,0.63326 0.2533,1.64648 0,1.01322 0.50661,1.51983 0.50661,0.50661 1.01322,0.2533 0.50661,-2.78635 -3.29296,-8.61237 -2.02644,-3.54627 -2.4064,-4.17953 -0.37996,-0.63326 -0.88657,-2.15309 -0.50661,-1.51983 -0.50661,-2.02644 l 0.75992,0 q 0.50661,0 1.26652,0.50661 l 1.26653,1.01322 q -0.25331,1.01322 0.2533,2.53305 0.50661,1.51983 1.77314,2.53305 1.26652,1.01322 2.53305,2.78635 1.26652,1.77314 1.51983,1.77314 1.01322,1.01322 2.02644,2.78635 1.01322,1.77314 0,2.02644 1.26652,0 2.78636,1.26653 1.51983,1.26652 2.40639,2.6597 0.88657,1.39318 1.13988,3.92623 0.2533,2.53305 0.63326,3.41962 0.37996,0.88656 1.39318,1.89978 1.01322,1.01322 1.77313,1.26653 l 2.27975,1.26652 1.77313,0.75992 5.57271,3.29296 q 1.51983,0.50661 2.27975,0.50661 0.75991,0 2.02644,-0.2533 l 2.02644,-0.50661 q 2.02644,-0.25331 4.05288,2.02644 2.02644,2.27974 3.03966,3.03966 5.0661,2.53305 7.59915,1.51983 -0.25331,0 0.2533,1.01322 l 1.01322,2.27974 q 0.50661,1.26653 1.26653,2.02644 0.75991,0.75992 0.75991,1.26653 0.75992,0.75991 2.53305,2.02644 1.77314,1.26652 2.53305,2.02644 1.01322,-0.50661 1.01322,-1.26653 -0.2533,1.26653 1.01322,2.78636 1.26653,1.51983 2.53305,1.51983 2.02644,-0.50661 2.02644,-4.55949 -4.30618,2.27974 -6.83923,-2.53305 l -0.50661,-0.75992 q -0.50661,-0.75991 -0.50661,-1.26652 0,-0.50661 -0.25331,-1.01322 -0.2533,-0.50661 0,-1.26653 0.25331,-0.75991 0.50661,-0.2533 1.26653,0 1.51983,-0.50661 0.25331,-0.50661 -0.2533,-1.77314 -0.50661,-1.26652 -0.63326,-2.15309 -0.12666,-0.88657 -1.39318,-2.6597 -1.26653,-1.77314 -1.77314,-2.02644 -0.75991,1.26652 -2.27974,1.01322 -1.51983,-0.25331 -2.27975,-1.26653 0,0.25331 -0.2533,0.75992 -0.25331,0.50661 -0.25331,1.01322 l -2.02644,0 q 0.25331,-0.50661 0.25331,-2.53305 0,-2.02644 0.50661,-3.29297 l 2.02644,-3.79957 q 0.75991,-1.26653 0.50661,-1.77314 l -0.75992,-1.26652 q -0.50661,-0.75992 -2.27974,-0.25331 -2.78636,0 -3.79958,2.78636 -0.2533,0.50661 -0.50661,1.51983 -0.2533,1.01322 -0.50661,1.51983 -0.2533,0.50661 -1.26652,1.01322 -1.01322,0.50661 -3.54627,0.2533 -2.53305,-0.2533 -3.29297,-0.75991 -2.02644,-1.01322 -3.29296,-4.05288 -1.26653,-3.03966 -1.26653,-4.8128 0,-1.77313 0.25331,-4.05288 l 0.50661,-3.54627 q 0.2533,-1.26652 -0.75992,-3.54627 0.50661,-0.2533 1.26653,-1.26652 l 1.26652,-1.51983 q 0.50661,-0.25331 0.75992,-0.25331 l 0.50661,0 q 0.2533,0 0.75991,-0.2533 0.50661,-0.25331 0.37996,-0.63326 -0.12665,-0.37996 -0.63326,-0.63327 l -0.50661,-0.2533 q 1.01322,0.2533 4.05288,-0.25331 3.03966,-0.50661 3.79957,0.25331 2.27975,1.51983 3.03966,-0.25331 l -0.2533,-1.51983 q -0.25331,-1.26652 0,-1.77313 0.75991,3.79957 4.05288,1.26652 0.50661,0.25331 2.27974,0.75992 1.77314,0.50661 2.27975,0.63326 0.50661,0.12665 1.01322,0.63326 l 0.75991,0.75992 q 0.25331,0.2533 0.75992,0 0.50661,-0.25331 1.26652,-1.01322 1.26653,2.02644 1.77314,3.29296 1.51983,5.82602 2.53305,6.33263 1.01322,0.50661 1.51983,0.2533 0.50661,-0.2533 0.75991,-1.26652 0.25331,-1.01322 0,-2.02644 -0.2533,-1.01322 -0.2533,-1.77314 l -0.25331,-1.01322 0,-3.79957 q -2.02644,-0.50661 -2.53305,-1.77314 -0.50661,-1.26652 0,-2.53305 0.50661,-1.26652 2.27975,-2.53305 0,-0.2533 1.01322,-0.50661 1.01322,-0.2533 2.27974,-1.01322 l 1.77314,-1.01322 q 3.03966,-2.78635 2.02644,-5.0661 1.01322,0 1.51983,-1.26652 l -0.50661,-0.50661 q -0.50661,-0.50661 -1.26653,-0.50661 -0.75991,0 -0.50661,-0.50661 1.26653,-0.50661 0.25331,-2.02644 0.75991,-0.50661 1.01322,-1.77314 0.2533,-1.26652 1.01322,-1.26652 1.26653,1.77313 3.03966,0.2533 1.01322,-1.26652 0.25331,-2.27974 0.50661,-1.01322 2.78635,-1.51983 2.27975,-0.50661 2.53305,-1.26653 1.01322,0.25331 1.26653,-0.2533 0.2533,-0.50661 0,-1.77314 -0.25331,-1.26652 0.37995,-1.77313 0.63327,-0.50661 2.1531,-1.26652 1.51983,-0.75992 2.02644,-0.50661 l 2.27974,-1.77314 q 0.50661,-0.50661 0,-0.50661 2.53305,0.25331 4.55949,-1.51983 1.26653,-1.51983 -1.01322,-2.78635 0.50661,-0.75992 -0.50661,-1.26653 -1.01322,-0.50661 -2.02644,-0.75991 0.50661,-0.25331 1.77314,-0.25331 1.26652,0 1.26652,-0.2533 2.27975,-1.26653 -1.01322,-2.27975 -2.27974,-0.50661 -6.07932,1.77314 l -1.26652,1.26652 q -1.01322,1.01322 -1.77314,1.51983 0.25331,0 0.50661,-0.75991 0.25331,-0.75992 0.75992,-1.51983 0.50661,-0.75992 0.50661,-1.01322 0.75991,-1.01322 2.913,-2.02644 2.1531,-1.01322 7.4725,-1.77314 4.8128,-1.26652 7.34585,1.51983 -0.25331,-0.2533 1.26652,-1.77313 1.51983,-1.51983 2.02644,-1.77314 0.50661,-0.2533 2.02644,-0.50661 1.51983,-0.2533 2.27975,-1.26652 l 0.2533,-3.03966 q -1.77313,0.2533 -2.53305,-1.01322 -0.75991,-1.26653 -0.75991,-3.03966 0,0.50661 -1.01322,1.26652 0,-1.01322 -0.50661,-1.26652 -0.50661,-0.25331 -1.77314,0.2533 -1.26652,0.50661 -1.26652,0.25331 -1.26653,-0.50661 -2.02644,-1.26653 -0.75992,-0.75991 -1.26653,-2.27974 -0.50661,-1.51983 -0.63326,-2.1531 -0.12665,-0.63326 -1.13987,-1.39317 -1.01322,-0.75992 -1.26653,-1.51983 l -1.51983,-2.533055 q -0.2533,-0.25331 -0.75991,-0.25331 -0.50661,0 -1.01322,0.75992 -0.50661,0.75991 -1.01322,1.26652 -0.50661,0.50661 -0.50661,0.759925 -0.50661,-0.253315 -1.01322,-0.253315 -0.50661,0 -0.50661,0.253315 0,0.2533 -0.75992,0.2533 -0.75991,0 -0.88657,0.50661 -0.12665,0.50661 -0.88656,0.50661 -0.75992,0 -1.26653,0.25331 2.02644,-0.75992 -0.2533,-1.51983 -1.26653,-0.506615 -2.27975,-0.506615 1.26653,-0.50661 1.26653,-1.51983 0,-1.01322 -1.26653,-2.02644 l 0.75992,0 q -0.25331,-0.50661 -1.26653,-1.26653 -1.01322,-0.75991 -2.53305,-1.26652 -1.51983,-0.50661 -1.77313,-0.75992 -1.26653,-0.75991 -4.8128,-1.26652 -3.54627,-0.50661 -4.55949,-0.25331 -0.75992,1.01322 -0.75992,1.51983 0,0.50661 0.50661,2.02644 l 0.50661,1.77314 q 0.25331,0.75991 -0.75991,1.77313 -1.01322,1.01322 -0.88657,1.899795 0.12665,0.88657 1.89979,2.15309 1.77313,1.26653 1.51983,3.03966 -0.50661,1.01322 -2.27975,2.27975 l -2.27974,1.51983 q -0.75992,1.26652 -0.25331,2.78635 0.50661,1.51983 1.51983,2.27975 0.25331,0.2533 0.25331,0.50661 0,0.2533 -0.50661,0.75991 -0.50661,0.50661 -0.75992,0.50661 -0.2533,0 -1.01322,0.50661 l -0.2533,0.25331 q -1.77314,0.75991 -3.03966,-0.75992 -1.26653,-1.51983 -1.77314,-3.79957 -1.01322,-3.54627 -2.27974,-4.30619 -3.29297,-1.01322 -4.30619,0.25331 -0.50661,-1.77314 -5.57271,-3.79958 -3.54627,-1.26652 -8.35906,-0.50661 1.01322,0 0,-2.15309 -1.01322,-2.153095 -2.53305,-1.64648 0.2533,-0.759925 0.50661,-2.533055 0.2533,-1.77314 0,-1.77314 0.50661,-1.77313 1.77313,-3.29296 l 2.27975,-3.03966 q 0.50661,-0.75992 0.2533,-1.01322 4.8128,0.75991 7.09254,-1.51983 l 1.51983,-2.27975 q 1.01322,-1.51983 1.51983,-2.53305 1.26653,-0.75991 2.02644,-0.75991 0.75992,0 2.02644,0.75991 1.26653,0.75992 2.02644,0.75992 2.02644,0.2533 2.02644,-1.51983 0,-1.77314 -1.01322,-2.78636 1.77314,0 0.50661,-2.53305 -0.75991,-1.01322 -1.26652,-1.26652 -1.51983,-0.50661 -3.79958,0.75991 -1.01322,0.50661 0.50661,1.01322 -0.2533,0 -1.51983,1.51983 l -2.27974,2.53305 q -1.01322,1.01322 -2.27975,-0.75991 l -0.75991,-1.77314 q -0.75992,-1.77313 -1.26653,-2.02644 -1.26652,0 -2.27974,2.27975 0.2533,-1.26653 -1.51983,-2.27975 -1.77314,-1.01322 -3.54627,-1.01322 2.78635,-1.77313 -1.01322,-3.79957 -1.01322,-0.75992 -3.03966,-0.75992 -2.02644,0 -2.78636,0.50661 l -0.75991,1.77314 q -0.25331,0.75991 0.75991,1.01322 1.01322,0.2533 1.51983,0.75991 0.50661,0.50661 1.51983,0.50661 1.01322,0 1.26653,0.50661 2.02644,1.51983 1.26652,2.02644 -0.2533,0 -1.26652,0.50661 -1.01322,0.50661 -1.51983,0.50661 -0.50661,0 -1.01322,0.63326 -0.50661,0.63327 0,1.89979 0.50661,1.26653 -0.25331,2.02644 -0.75991,-0.75991 -1.26652,-2.53305 -0.50661,-1.77313 -1.01322,-2.27974 1.01322,1.26652 -3.54627,1.01322 l -1.26653,-0.25331 q -0.75991,0 -2.27974,0.25331 -1.51983,0.2533 -3.03966,0.2533 -1.51983,0 -1.77314,-1.26652 -0.75991,-1.01322 0,-2.78636 0,-0.50661 0.50661,-0.2533 l -3.03966,-2.53305 q -6.33262,2.02644 -13.17186,5.82601 0.75991,0 1.51983,-0.2533 l 2.02644,-0.75992 q 1.26652,-0.50661 1.26652,-1.01322 4.8128,-1.77313 6.07933,-0.75991 l 0.75991,-0.75992 2.78636,3.54627 q -1.01322,-0.75991 -4.30619,-0.2533 -2.78635,1.01322 -3.03966,1.77313 1.01322,1.77314 0.50661,2.53305 l -1.51983,-1.51983 q -1.01322,-1.01322 -2.02644,-1.51983 -1.01322,-0.50661 -2.02644,-0.75991 -2.27975,0 -3.29297,0.2533 -20.517704,11.39873 -33.182954,31.409825 z m 91.949724,134.75826 q 0,0.75991 0.50661,2.27974 28.87677,-5.3194 49.39448,-26.85033 -0.25331,-0.50661 -1.77314,-0.50661 -1.51983,0 -1.77313,-0.50661 l -3.29297,-1.26652 q 0.25331,-1.01322 -0.2533,-1.77314 -0.50661,-0.75991 -1.26653,-1.26652 l -5.3194,-3.79958 q -0.25331,-0.2533 -1.01322,-0.50661 l -1.26653,-0.50661 q -0.50661,-0.2533 -1.26652,0.25331 l -0.50661,0.2533 q -0.50661,0 -0.75992,0.25331 l -1.26652,0.75991 0,0.50661 q -3.03966,-2.53305 -5.0661,-3.29296 -0.75992,0 -1.77314,-0.75992 l -1.26652,-1.01322 q -0.25331,-0.2533 -1.51983,0 -1.26653,0.25331 -1.51983,1.01322 -0.75992,0.50661 -1.01322,2.02644 l -0.25331,1.77314 q -1.01322,-0.75992 0,-2.53305 1.01322,-1.77314 0.50661,-2.53305 -0.50661,-0.75992 -1.77313,-0.50661 -1.26653,0.2533 -1.51983,0.50661 l -1.77314,1.26652 q -1.51983,1.01322 -1.26652,0.75992 0.2533,-0.25331 -1.01322,0.75991 -1.26653,1.01322 -1.26653,1.26653 -0.50661,0.50661 -1.01322,1.51983 -0.50661,1.01322 -0.50661,1.77313 -0.25331,-0.75991 -1.77314,-1.01322 -1.51983,-0.2533 -1.26652,-0.75991 0.2533,1.26652 0.50661,4.81279 0.2533,3.54627 0.75991,5.57271 1.01322,4.30619 -1.77313,6.58593 -3.79958,3.54627 -4.05288,5.82602 -0.50661,3.03966 1.77313,3.54627 0,1.01322 -1.26652,3.03966 -1.26653,2.02644 -1.01322,3.03966 z" id="path4043" /></svg>