<?xml version="1.0" encoding="UTF-8" standalone="no"?><svg xmlns="http://www.w3.org/2000/svg" version="1.1" width="320" height="320" id="svg2"><path d="m 37.517265,142.26782 q 0,-1.77313 0.75992,-3.54627 l 1.26652,-3.03965 q 0.50661,-1.26653 2.27975,-3.29297 l 2.27974,-2.53305 2.78636,-2.78635 q 2.27974,-2.27975 2.53305,-2.27975 4.30618,-3.79957 9.62559,-3.79957 l 2.53305,0 q 1.01322,0 2.27974,1.01322 1.26653,1.01322 2.026439,0.75991 0.75992,-0.2533 2.02644,1.26653 1.26653,1.51983 1.51983,1.51983 0.25331,0 1.77314,1.77313 1.51983,1.77314 1.77313,1.77314 -2.02644,-2.02644 -2.02644,-4.8128 0,-2.78635 2.02644,-4.81279 L 122.12113,70.329205 q 2.02644,-2.02644 4.8128,-2.02644 2.78635,0 4.81279,2.02644 l -3.54627,-3.54627 -1.51983,-1.77314 q -1.26652,-1.51983 -1.26652,-1.77313 0,-0.25331 -0.75992,-2.02644 l -1.01322,-2.27975 q -0.2533,-0.50661 0,-2.53305 0,-5.3194 3.79958,-9.62559 0.50661,-0.2533 2.27974,-2.53305 1.77314,-2.27974 2.78636,-2.78635 1.01322,-0.50661 2.53305,-2.27975 1.51983,-1.77313 3.29296,-2.27974 1.77314,-0.50661 3.03966,-1.26653 1.26653,-0.75991 3.54627,-0.75991 5.82602,0 9.62559,4.05288 l 57.75355,57.75354 q 4.05288,3.799575 4.05288,9.625595 0,1.77313 -0.75992,3.54627 l -1.26652,3.03966 q -0.50661,1.26652 -2.27975,3.29296 l -2.27974,2.53305 -2.78636,2.78636 q -2.27974,2.27974 -2.53305,2.27974 -4.30618,3.79958 -9.62559,3.79958 l -2.53305,0 q -1.01322,0 -2.27974,-1.01322 -1.26653,-1.01322 -2.02644,-0.75992 -0.75992,0.25331 -1.77314,-1.26652 -1.01322,-1.51983 -1.77314,-1.51983 -0.75991,0 -1.77313,-1.77314 -1.01322,-1.77313 -1.77314,-1.77313 2.02644,2.02644 2.02644,4.81279 0,2.78636 -2.02644,4.8128 l -17.73135,17.73134 36.22262,36.22262 q 6.07932,-6.07932 13.42517,-6.07932 7.34584,0 12.91855,5.3194 l 51.42092,51.16761 q 5.0661,5.57271 5.0661,13.04521 0,7.4725 -5.0661,12.5386 l -15.1983,15.4516 q -5.57271,5.0661 -12.91856,5.0661 -7.34584,0 -12.66525,-5.0661 l -51.42092,-51.67422 q -5.3194,-5.0661 -5.3194,-12.53859 0,-7.4725 6.07932,-13.55182 l -36.22262,-36.22262 -17.73135,17.73135 q -2.02644,2.02644 -4.81279,2.02644 -2.78636,0 -4.8128,-2.02644 l 3.54627,3.54627 1.51983,1.77314 q 1.26653,1.51983 1.26653,1.77313 0,0.25331 1.01322,2.02644 1.01322,1.77314 0.75991,2.27975 -0.2533,0.50661 0,2.53305 0,5.3194 -3.79957,9.62559 -0.50661,0.2533 -2.27975,2.53305 -1.77313,2.27974 -2.78635,2.78635 -1.01322,0.50661 -2.53305,2.27975 -1.51983,1.77313 -3.29297,2.27974 -1.77313,0.50661 -3.03966,1.26653 -1.26652,0.75991 -3.54627,0.75991 -5.82601,0 -9.625586,-4.05288 L 41.570145,151.89341 q -4.05288,-3.79957 -4.05288,-9.62559 z" id="path4049" /></svg>