<?xml version="1.0" encoding="utf-8"?>
<!-- Generator: Adobe Illustrator 18.0.0, SVG Export Plug-In . SVG Version: 6.00 Build 0)  -->
<!DOCTYPE svg PUBLIC "-//W3C//DTD SVG 1.1//EN" "http://www.w3.org/Graphics/SVG/1.1/DTD/svg11.dtd">
<svg version="1.1" id="Layer_1" xmlns="http://www.w3.org/2000/svg" xmlns:xlink="http://www.w3.org/1999/xlink" x="0px" y="0px"
	 viewBox="0 0 300 300" enable-background="new 0 0 300 300" xml:space="preserve">
<path stroke="#FFFFFF" stroke-width="30" stroke-miterlimit="10" d="M265.6,175c-2.9,2.9-6.8,4.4-10.6,4.4c-3.8,0-7.7-1.5-10.6-4.4
	l-4.4-4.4v93h-60v-95h-60v95H60v-93l-4.4,4.4c-5.9,5.9-15.4,5.9-21.2,0s-5.9-15.4,0-21.2L150,38.2l115.6,115.6
	C271.5,159.7,271.5,169.2,265.6,175z"/>
<path d="M265.6,175c-2.9,2.9-6.8,4.4-10.6,4.4c-3.8,0-7.7-1.5-10.6-4.4l-4.4-4.4v93h-60v-95h-60v95H60v-93l-4.4,4.4
	c-5.9,5.9-15.4,5.9-21.2,0s-5.9-15.4,0-21.2L150,38.2l115.6,115.6C271.5,159.7,271.5,169.2,265.6,175z"/>
</svg>
