<?xml version="1.0" encoding="UTF-8" standalone="no"?><svg xmlns="http://www.w3.org/2000/svg" version="1.1" width="320" height="320" id="svg2"><path d="m 270.81118,162.53222 q 4.05288,4.05288 2.78635,6.83924 -1.26652,2.78635 -6.83923,2.78635 l -21.27762,0 0,78.52455 q 0,3.54627 -0.25331,5.31941 -0.2533,1.77313 -2.02644,3.29296 -1.77313,1.51983 -5.82601,1.51983 l -51.67422,0 0,-78.52455 -51.67423,0 0,78.52455 -49.141171,0 q -7.09254,0 -8.86567,-2.53305 -1.77314,-2.53305 -1.77314,-7.59915 l 0,-78.52455 -21.27762,0 q -5.572709,0 -6.839229,-2.78635 -1.26653,-2.78636 2.78635,-6.83924 l 101.322,-101.828605 q 4.05288,-4.05288 9.62559,-4.05288 5.57271,0 9.62559,4.05288 z" id="path3987" /></svg>