<?xml version="1.0" encoding="UTF-8" standalone="no"?><svg xmlns="http://www.w3.org/2000/svg" version="1.1" width="320" height="320" id="svg2"><path d="m 257.1838,91.447885 q 5.0661,29.383385 -7.09254,54.460575 -12.15864,25.0772 -37.99575,29.63669 -16.71813,3.03966 -32.92965,0.50661 l -29.88999,49.14117 -17.73135,3.03966 -26.34372,42.04863 q -3.54627,7.09254 -11.652044,8.10576 l -19.25118,3.54627 q -3.03966,1.01322 -5.57271,-1.01322 -2.53305,-2.02644 -3.03966,-5.57271 l -4.05288,-24.82389 q -2.02644,-7.59915 3.03966,-14.18508 l 65.352704,-97.77573 q -6.07932,-12.66525 -9.62559,-30.3966 -4.55949,-26.850335 13.42516,-47.368035 17.98466,-20.51771 46.86143,-25.58381 26.85033,-5.0661 49.39448,11.39873 22.54414,16.46482 27.10363,44.83498 z m -31.91643,19.251185 q 7.59915,-11.145425 5.31941,-24.570595 -2.27975,-13.42516 -12.91856,-21.27761 -10.63881,-7.85246 -23.30406,-5.31941 -12.66525,2.53305 -20.2644,13.67847 -2.02644,3.03966 -3.03966,5.82602 -1.01322,2.78635 -0.2533,5.0661 l 1.26652,4.05287 q 0.50661,1.77314 3.29297,4.30619 2.78635,2.53305 4.55949,3.79957 l 16.97143,12.411955 q 4.05288,3.03966 5.82602,4.05288 1.77313,1.01322 4.81279,3.03966 3.03966,2.02644 4.8128,2.02644 1.77313,0 4.30618,-0.2533 2.53305,-0.25331 4.55949,-2.02644 2.02644,-1.77314 4.05288,-4.8128 z" id="path4093" /></svg>