<?xml version="1.0" encoding="UTF-8" standalone="no"?><svg xmlns="http://www.w3.org/2000/svg" version="1.1" width="320" height="320" id="svg2"><path d="m 271.95105,145.30748 q 0,45.5949 -27.61025,81.56421 -27.61024,35.96931 -71.1787,47.62134 l 0,16.21152 q 0,5.31941 -4.05289,9.11898 -4.05288,3.79958 -9.11898,3.79958 -5.0661,0 -9.37228,-3.79958 -4.30619,-3.79957 -4.05288,-9.11898 l 0,-16.21152 Q 102.99661,262.841 75.386359,226.87169 47.77612,190.90238 47.77612,145.30748 q 0,-48.381255 31.156509,-85.617085 31.156521,-37.23584 78.777861,-46.10151 l 2.27974,-0.25331 2.53305,0.25331 q 47.62135,8.86567 78.52456,46.10151 30.90321,37.23583 30.90321,85.617085 z M 173.1621,246.88279 q 32.42304,-10.89212 52.43413,-38.75567 20.0111,-27.86355 20.0111,-62.81964 0,-38.24905 -24.06398,-67.885735 -24.06397,-29.63669 -61.55312,-37.23584 -37.48914,7.59915 -61.806421,37.23584 -24.31728,29.636685 -24.06397,67.885735 0,34.44948 20.2644,62.56634 20.264401,28.11685 52.434131,39.00897 l 0,-39.51558 -57.500231,-57.24693 q -2.78636,-2.78636 -1.51983,-6.33263 1.26652,-3.54627 4.55949,-4.55949 3.29296,-1.01322 6.33262,1.77314 l 48.127951,48.12795 0,-47.62134 -31.15651,-30.90321 q -3.03966,-3.03966 -1.77314,-6.33262 1.26653,-3.29297 4.55949,-4.559495 3.29297,-1.26653 6.58593,1.519835 l 21.53093,21.53092 0,-43.315155 q 0,-5.31941 4.05288,-9.37229 4.05288,-4.05288 9.37228,-3.79957 5.31941,0.2533 9.11898,3.79957 3.79958,3.54627 4.05289,9.37229 l 0,43.315155 21.53092,-21.53092 q 2.78636,-2.786365 6.58593,-1.519835 3.79958,1.266525 4.55949,4.559495 0.75992,3.29296 -1.51983,6.33262 l -31.15651,30.90321 0,47.62134 48.12795,-48.12795 q 4.55949,-4.55949 9.11898,0 4.55949,4.55949 0,9.11898 l -57.24693,57.24693 0,39.51558 z" id="path4095" /></svg>