<?xml version="1.0" encoding="UTF-8" standalone="no"?><svg xmlns="http://www.w3.org/2000/svg" version="1.1" width="320" height="320" id="svg2"><path d="m 240.41457,91.103925 69.91218,67.379135 -69.91218,66.87252 0,-44.83498 -104.61497,0 0,-44.58168 104.61497,0 0,-44.834995 z m -42.04863,129.692165 26.85033,27.10364 q -39.51558,36.98254 -85.61709,36.98254 -54.967185,0 -92.456315,-36.22263 -37.48915,-36.22261 -37.74245,-90.93649 0,-34.19617 17.22474,-63.326255 17.22474,-29.13008 46.60812,-46.10151 29.383375,-16.97144 63.326245,-16.71813 46.60812,0 88.40345,37.48914 l -26.59703,26.85033 q -28.87677,-26.34372 -61.55312,-26.34372 -37.742436,0 -63.579545,26.34372 -25.83711,26.343725 -26.09041,64.339475 0,35.4627 26.85032,61.0465 26.850325,25.58381 62.566335,25.58381 33.18295,0 61.80642,-26.09042 z" id="path4155" /></svg>