<?xml version="1.0" encoding="UTF-8" standalone="no"?><svg xmlns="http://www.w3.org/2000/svg" version="1.1" width="320" height="320" id="svg2"><path d="m 51.311835,167.59354 0,-18.23796 q 0,-3.54627 2.78635,-6.33262 2.78636,-2.78636 6.33263,-2.53305 l 54.207265,0 q 3.79957,0 6.33262,2.53305 2.53305,2.53305 2.78636,6.33262 l 0,18.23796 q 0,7.34585 3.29296,12.66525 3.29297,5.31941 7.59915,8.10576 4.30619,2.78636 9.8789,4.05288 l 9.11898,2.02644 q 3.54627,0.75992 6.33262,0.25331 2.78636,-0.50661 6.07932,-0.25331 3.29297,0.25331 9.11899,-2.02644 5.82601,-2.27974 9.87889,-4.05288 4.05288,-1.77313 7.59915,-8.10576 3.54627,-6.33262 3.29297,-12.66525 l 0,-18.23796 q 0,-3.54627 2.78635,-6.33262 2.78636,-2.78636 6.33263,-2.53305 l 54.20727,0 q 3.79958,0 6.58593,2.53305 2.78636,2.53305 2.53305,6.33262 l 0,18.23796 q 0,28.37016 -13.93177,51.16761 -13.93178,22.79745 -38.75567,35.4627 -24.82389,12.66525 -55.72711,12.91856 -30.90321,0.2533 -55.9804,-12.91856 -25.077195,-13.17186 -38.755665,-35.4627 -13.67847,-22.29084 -13.93177,-51.16761 z m 0,-54.46057 0,-54.207275 q 0,-3.54627 2.78635,-6.33262 2.78636,-2.78636 6.33263,-2.78636 l 54.207265,0 q 3.79957,0 6.33262,2.78636 2.53305,2.78635 2.78636,6.33262 l 0,54.207275 q 0,3.79958 -2.78636,6.58593 -2.78635,2.78636 -6.33262,2.53305 l -54.207265,0 q -3.79958,0 -6.33263,-2.53305 -2.53305,-2.53305 -2.78635,-6.58593 z m 144.637155,0 0,-54.207275 q 0,-3.54627 2.78635,-6.33262 2.78636,-2.78636 6.33263,-2.78636 l 54.20727,0 q 3.79958,0 6.58593,2.78636 2.78636,2.78635 2.53305,6.33262 l 0,54.207275 q 0,3.79958 -2.53305,6.58593 -2.53305,2.78636 -6.58593,2.53305 l -54.20727,0 q -3.54627,0 -6.33263,-2.53305 -2.78635,-2.53305 -2.78635,-6.58593 z" id="path4075" /></svg>