<?xml version="1.0" encoding="UTF-8" standalone="no"?><svg xmlns="http://www.w3.org/2000/svg" version="1.1" width="320" height="320" id="svg2"><path d="m 41.129285,158.23253 q 0,-24.06397 9.37229,-46.1015 9.372279,-22.037545 25.330499,-37.742455 15.95821,-15.70491 37.742446,-25.3305 21.78423,-9.62559 46.35481,-9.37228 24.06398,0 46.10152,9.37228 22.03753,9.37228 37.74244,25.3305 15.70491,15.95822 25.3305,37.742455 9.62559,21.78423 9.49894,45.97485 -0.12665,24.19063 -9.49894,46.22816 -9.37228,22.03754 -25.3305,37.99575 -15.95821,15.95822 -37.74244,25.3305 -21.78424,9.37229 -46.10152,9.37229 -24.31728,0 -46.35481,-9.37229 -22.037536,-9.37228 -37.742446,-25.3305 -15.70491,-15.95821 -25.330499,-37.99575 -9.62559,-22.03753 -9.37229,-46.10151 z m 22.290839,0 q 0,19.50449 7.59915,37.48914 7.59915,17.98466 20.51771,30.64991 12.918556,12.66525 30.903206,20.77101 17.98466,8.10576 37.48914,7.59915 19.50449,-0.50661 37.23584,-7.59915 17.73135,-7.09254 30.90321,-20.77101 13.17186,-13.67847 20.51771,-30.64991 7.34584,-16.97143 7.85245,-37.48914 0.50661,-20.5177 -7.85245,-37.23583 -8.35907,-16.71813 -20.51771,-30.903215 -12.15864,-14.18508 -30.90321,-20.5177 -18.74457,-6.33263 -37.23584,-7.59916 -18.49126,-1.26652 -37.48914,7.59916 -18.99788,8.86567 -30.903206,20.5177 -11.90534,11.652035 -20.51771,30.903215 -8.61237,19.25118 -7.59915,37.23583 z m 29.63669,-7.85245 q 0,-3.79958 3.03966,-6.58593 3.03966,-2.78636 7.345836,-3.03966 l 27.10364,0 20.51771,31.66312 11.65203,-65.85929 38.50236,0 q 4.55949,0 7.59915,2.78635 3.03966,2.78636 3.03966,6.83924 0,4.05288 -3.03966,6.83923 -3.03966,2.78636 -7.59915,3.03966 l -21.27762,0 -17.22474,99.04225 -43.56846,-65.09938 -15.70492,0 q -4.306176,0 -7.345836,-2.78636 -3.03966,-2.78635 -3.03966,-6.83923 z" id="path4143" /></svg>