<?xml version="1.0" encoding="UTF-8" standalone="no"?><svg xmlns="http://www.w3.org/2000/svg" version="1.1" width="320" height="320" id="svg2"><path d="m 208.24484,58.170565 q 3.03966,0 4.93945,2.02644 1.89979,2.02644 1.89979,4.81279 l 0,173.767235 q -0.25331,8.61237 -5.95267,14.31173 -5.69936,5.69936 -14.31173,5.95267 l -69.91218,0 q -8.61237,-0.25331 -14.31174,-5.95267 -5.69936,-5.69936 -5.95267,-14.31173 l 0,-173.767235 q 0,-2.78635 2.02644,-4.81279 2.02644,-2.02644 4.55949,-2.02644 l 97.01582,0 z m -8.61237,32.42304 -79.53777,0 0,61.806415 79.53777,0 0,-61.806415 z m -55.9804,147.423505 0,-13.93177 -23.55737,0 q 0,6.07932 3.79958,10.00555 3.79957,3.92622 9.87889,3.92622 l 9.8789,0 z m 0,-19.75779 0,-13.42516 -23.55737,0 0,13.42516 23.55737,0 z m 0,-19.50448 0,-13.17186 -23.55737,0 0,13.17186 23.55737,0 z m 0,-19.25118 0,-13.17186 -23.55737,0 0,13.17186 23.55737,0 z m 27.61024,58.51345 0,-13.93177 -22.54414,0 0,13.93177 22.54414,0 z m 0,-19.75779 0,-13.42516 -22.54414,0 0,13.42516 22.54414,0 z m 0,-19.50448 0,-13.17186 -22.54414,0 0,13.17186 22.54414,0 z m 0,-19.25118 0,-13.17186 -22.54414,0 0,13.17186 22.54414,0 z m 5.31941,58.51345 9.11898,0 q 6.58593,0 10.25885,-3.92622 3.67292,-3.92623 3.67292,-10.00555 l -23.05075,0 0,13.93177 z m 23.05075,-19.75779 0,-13.42516 -23.05075,0 0,13.42516 23.05075,0 z m 0,-19.50448 0,-13.17186 -23.05075,0 0,13.17186 23.05075,0 z m 0,-19.25118 0,-13.17186 -23.05075,0 0,13.17186 23.05075,0 z M 151.75783,71.849035 q -2.02644,0 -3.03966,1.26652 -1.01322,1.26653 -1.01322,3.03966 0,1.77314 1.01322,3.03966 1.01322,1.26653 3.03966,1.26653 l 16.21152,0 q 1.77313,0 2.78635,-1.26653 1.01322,-1.26652 1.01322,-3.03966 0,-1.77313 -1.01322,-3.03966 -1.01322,-1.26652 -2.78635,-1.26652 l -16.21152,0 z" id="path4139" /></svg>