<?xml version="1.0" encoding="UTF-8" standalone="no"?><svg xmlns="http://www.w3.org/2000/svg" version="1.1" width="320" height="320" id="svg2"><path d="m 24.208201,239.79025 0,-162.621815 q 0,-3.79957 2.78636,-6.58593 2.78636,-2.78636 6.33263,-2.53305 l 253.304989,0 q 3.54627,0 6.33263,2.53305 2.78635,2.53305 2.53305,6.58593 l 0,162.621815 q 0,3.79957 -2.53305,6.58593 -2.53305,2.78635 -6.33263,2.53305 l -253.304989,0 q -3.79958,0 -6.33263,-2.53305 -2.53305,-2.53305 -2.78636,-6.58593 z m 17.98466,-45.08829 q 15.19829,0 25.5838,10.63881 10.385499,10.63881 10.638809,25.5838 l 162.87512,0 q 0,-14.94499 10.63881,-25.5838 10.63881,-10.63881 25.5838,-10.63881 l 0,-72.44523 q -14.94499,0 -25.5838,-10.63881 -10.63881,-10.63881 -10.63881,-25.583805 l -162.87512,0 q 0,14.944995 -10.638809,25.583805 -10.63881,10.63881 -25.5838,10.63881 l 0,72.44523 z m 72.445219,-36.22262 q 0,-9.87889 3.03966,-20.01109 3.03966,-10.1322 8.35907,-18.99787 5.3194,-8.86568 14.43838,-14.18508 9.11898,-5.319415 19.50449,-5.572715 10.3855,-0.25331 19.50448,5.572715 9.11898,5.82601 14.18508,14.18508 5.0661,8.35906 8.61237,18.99787 3.54628,10.63881 2.78636,20.01109 -0.75992,9.37229 -2.78636,20.0111 -2.02644,10.63881 -8.61237,18.99787 -6.58593,8.35907 -14.18508,14.18508 -7.59915,5.82602 -19.50448,5.57271 -11.90534,-0.2533 -19.50449,-5.57271 -7.59915,-5.3194 -14.43838,-14.18508 -6.83924,-8.86567 -8.35907,-18.99787 z m 17.22474,-21.27762 10.89212,11.14542 q 6.07932,-5.0661 7.85245,-7.85245 l 0.25331,0 0,40.5288 -17.98466,0 0,13.67847 54.20727,0 0,-13.67847 -18.23796,0 0,-63.32625 -15.95821,0 z" id="path4071" /></svg>