<?xml version="1.0" encoding="UTF-8" standalone="no"?><svg xmlns="http://www.w3.org/2000/svg" version="1.1" width="320" height="320" id="svg2"><path d="m 55.937431,158.23659 q 0,-21.53092 8.10576,-41.28871 8.10575,-19.757795 22.03753,-34.196175 13.931769,-14.43839 33.436259,-23.30407 19.50448,-8.86567 40.7821,-9.62559 6.33263,-0.2533 8.73903,5.57271 2.4064,5.82602 -2.15309,10.1322 -12.15865,10.89212 -18.49127,25.58381 -6.33263,14.691695 -6.58593,30.903215 0,21.02431 10.3855,38.50236 10.38551,17.47804 28.11686,28.11685 17.73135,10.63881 38.50237,10.38551 16.71813,0 32.16973,-7.34585 5.82602,-2.53305 10.1322,1.77314 2.02644,2.02644 2.53305,4.81279 0.50661,2.78636 -0.50661,5.57271 -13.42516,28.62347 -40.27549,45.84821 -26.85034,17.22474 -58.26016,17.22474 -22.03754,0 -42.30194,-8.86568 -20.2644,-8.86567 -34.449469,-23.05075 -14.18509,-14.18508 -23.30406,-34.70279 -9.11898,-20.5177 -8.61237,-42.04863 z m 17.98465,0 q 0,18.49127 7.34585,35.2094 7.34584,16.71813 19.251169,28.62346 11.90534,11.90534 28.87677,19.50449 16.97144,7.59915 35.2094,7.09254 20.2644,0 38.50236,-8.61237 18.23797,-8.61237 31.15652,-24.31728 -7.59915,1.26652 -15.4516,1.26652 -25.83712,0 -47.62135,-12.66525 -21.78423,-12.66525 -34.70279,-34.70278 -12.91855,-22.03754 -12.66525,-47.62134 0,-27.103635 14.69169,-50.407705 -28.37016,8.35907 -46.354809,32.423055 -17.98465,24.06397 -18.23796,54.20726 z" id="path4037" /></svg>