<?xml version="1.0" encoding="UTF-8" standalone="no"?><svg xmlns="http://www.w3.org/2000/svg" version="1.1" width="320" height="320" id="svg2"><path d="m 33.21108,158.47934 q 0,-3.79957 2.78636,-6.33262 l 36.222609,-36.22261 q 2.53305,-2.78636 6.33263,-2.78636 3.79957,0 6.33262,2.78636 2.53305,2.78635 2.53305,6.33262 l 0,18.23796 54.460581,0 0,-54.460575 -18.23796,0 q -3.54627,0 -6.33263,-2.53305 -2.78635,-2.53305 -2.78635,-6.33263 0,-3.79957 2.78635,-6.58593 l 36.22262,-35.96931 q 2.78635,-2.78635 6.33262,-2.78635 3.54627,0 6.33263,2.78635 l 36.22262,35.96931 q 2.78635,2.78636 2.78635,6.58593 0,3.79958 -2.78635,6.33263 -2.78636,2.53305 -6.33263,2.53305 l -18.23796,0 0,54.460575 54.46058,0 0,-18.23796 q 0,-3.54627 2.53305,-6.33262 2.53305,-2.78636 6.33262,-2.78636 3.79958,0 6.58593,2.78636 l 35.96931,36.22261 q 2.78636,2.53305 2.78636,6.33262 0,3.79958 -2.78636,6.33263 l -35.96931,36.22261 q -2.78635,2.78636 -6.58593,2.78636 -3.79957,0 -6.33262,-2.78636 -2.53305,-2.78635 -2.53305,-6.33262 l 0,-18.23796 -54.46058,0 0,54.46057 18.23796,0 q 3.54627,0 6.33263,2.53305 2.78635,2.53305 2.78635,6.33263 0,3.79957 -2.78635,6.58593 l -36.22262,35.96931 q -2.53305,2.78635 -6.33263,2.78635 -3.79957,0 -6.33262,-2.78635 l -36.22262,-35.96931 q -2.78635,-2.78636 -2.78635,-6.58593 0,-3.79958 2.78635,-6.33263 2.78636,-2.53305 6.33263,-2.53305 l 18.23796,0 0,-54.46057 -54.460581,0 0,18.23796 q 0,3.54627 -2.53305,6.33262 -2.53305,2.78636 -6.33262,2.78636 -3.79958,0 -6.58593,-2.78636 L 35.99744,164.81197 q -2.78636,-2.78636 -2.78636,-6.33263 z" id="path4031" /></svg>