<?xml version="1.0" encoding="UTF-8" standalone="no"?><svg xmlns="http://www.w3.org/2000/svg" version="1.1" width="320" height="320" id="svg2"><path d="m 100.0836,119.47038 q -5.572711,0 -10.638811,2.53305 -12.15864,-13.17186 -23.30406,-32.423045 13.67847,-18.74457 32.42304,-29.88999 23.304061,9.62559 38.502361,20.77101 -1.51983,4.05288 -1.51983,8.10576 0,1.51983 1.01322,5.57271 -15.70491,12.158645 -29.38338,26.343725 -4.05288,-1.01322 -7.09254,-1.01322 z m -24.823891,24.82388 q 0,8.61237 5.0661,15.1983 -15.1983,28.87677 -20.2644,58.76676 -16.718129,-26.85033 -16.718129,-59.77998 0,-27.86354 12.665249,-52.18082 9.62559,15.70491 21.27762,28.37016 -2.02644,6.07931 -2.02644,9.62558 z M 160.37019,63.743275 q -7.09254,0 -12.66525,3.54627 -14.69169,-10.63881 -28.87677,-17.73135 21.27762,-7.59915 41.03541,-7.59915 30.39661,0 58.26016,15.70491 -19.25118,3.54627 -41.03541,12.66525 -6.58594,-6.58593 -16.71814,-6.58593 z m 36.98254,116.520295 q -40.52881,-6.07932 -73.45846,-28.37016 1.01322,-5.0661 1.01322,-7.59915 0,-6.07932 -3.54627,-13.17185 9.62559,-11.14542 24.82389,-22.79745 6.58593,5.0661 14.18508,5.0661 3.54627,0 9.62559,-2.02644 23.81068,27.35693 33.94288,60.79319 -4.05288,3.54627 -6.58593,8.10576 z m 32.42304,33.43626 q 9.62559,-3.54627 13.67847,-15.1983 14.69169,-1.01322 27.35694,-4.55949 -11.65203,36.98253 -42.04863,58.76676 1.51983,-12.15864 1.51983,-24.82389 0,-2.53305 -0.25331,-7.09254 -0.2533,-4.55949 -0.2533,-7.09254 z M 191.78002,196.9817 q -48.12796,24.31728 -77.00473,68.89896 -22.797451,-9.11898 -40.022191,-27.86355 3.03966,-36.47592 20.2644,-69.40557 1.51983,0.50661 5.066101,0.50661 7.59915,0 13.17186,-3.54627 35.96931,24.82389 78.52456,31.40982 z M 238.38814,72.355645 q 37.99575,34.449485 37.99575,86.123695 0,5.57271 -1.01322,16.71813 -16.21152,4.55949 -32.92965,6.07932 -6.07932,-14.18508 -22.29084,-15.1983 -12.15864,-36.98252 -37.48914,-66.872515 2.53305,-5.0661 2.53305,-10.63881 l 0,-2.53305 q 25.3305,-10.63881 53.19405,-13.67847 z M 203.93866,210.15356 q 3.54627,2.53305 8.10576,4.55949 0.50661,4.55949 0.50661,13.17186 0,20.2644 -3.54627,36.47592 -21.78423,10.63881 -49.14118,10.63881 -14.69169,0 -28.37016,-3.03966 27.86355,-40.5288 72.44524,-61.80642 z" id="path4127" /></svg>