<?xml version="1.0" encoding="UTF-8" standalone="no"?><svg xmlns="http://www.w3.org/2000/svg" version="1.1" width="320" height="320" id="svg2"><path d="m 60.835398,278.79922 q 0,-2.78636 1.77313,-4.55949 1.77314,-1.77314 4.55949,-1.77314 24.57059,0 45.594902,-15.1983 21.02432,-15.1983 35.4627,-41.54202 -5.0661,2.02644 -10.1322,3.29297 -5.0661,1.26652 -11.65203,1.77313 -6.58593,0.50661 -12.91855,-0.2533 -6.33263,-0.75992 -13.17186,-4.05288 -6.839242,-3.29297 -12.918562,-8.35907 -6.07932,-5.0661 -11.90533,-14.18508 -5.82602,-9.11898 -10.63881,-20.5177 16.21152,-6.83924 30.3966,-8.10576 14.185082,-1.26653 23.557362,1.01322 9.37229,2.27974 17.73135,7.85245 8.35907,5.57271 12.41195,10.89212 4.05288,5.3194 7.85246,11.65203 7.59915,-18.49127 11.39872,-41.03541 -1.01322,0 -2.53305,0.2533 -1.51983,0.25331 -6.58593,0.50661 -5.0661,0.25331 -9.8789,-0.2533 l -11.65203,-1.26653 q -6.83923,-0.75991 -12.41194,-3.29296 -5.57271,-2.53305 -11.90534,-6.07932 -6.33262,-3.54627 -10.63881,-9.11898 -4.306182,-5.57271 -7.599152,-13.42516 -3.29296,-7.85246 -4.05288,-17.98466 9.878902,-4.05288 18.744572,-5.066105 8.86568,-1.01322 15.95822,0 7.09254,1.013225 13.17186,4.306195 6.07932,3.29296 10.3855,7.09254 4.30619,3.79957 7.85246,8.61237 3.54627,4.81279 5.82602,8.86567 2.27974,4.05288 4.05288,7.85245 1.77313,3.79958 2.02644,5.57271 l 0.75991,2.27975 q 1.51983,-17.22474 1.51983,-27.61024 l -3.03966,-2.02644 q -2.02644,-1.26653 -6.83923,-6.33263 -4.8128,-5.0661 -8.86568,-10.132205 -4.05288,-5.0661 -7.59915,-13.17186 -3.54627,-8.10576 -4.8128,-15.95821 -1.26652,-7.85246 1.77314,-17.98466 3.03966,-10.1322 9.87889,-19.50448 10.38551,3.54627 17.98466,8.61237 7.59915,5.0661 11.90534,10.89211 4.30618,5.82602 6.83923,11.90534 2.53306,6.07932 2.78636,12.66525 0.25331,6.58593 0,12.15864 -0.2533,5.57271 -1.77314,10.89211 -1.51983,5.319415 -2.78635,8.612375 l -2.27975,6.07932 -1.01322,2.02644 0,17.22474 1.26653,-2.53305 q 0.75991,-1.51983 4.30618,-6.07932 3.54628,-4.55949 7.34585,-8.35906 3.79958,-3.79958 9.8789,-7.85246 6.07932,-4.05288 12.91855,-6.07932 6.83924,-2.026445 15.95822,-2.279745 9.11898,-0.25331 18.74457,3.546275 -0.25331,10.89211 -3.03966,20.01109 -2.78636,9.11898 -7.09254,14.69169 -4.30619,5.57271 -9.8789,10.1322 -5.57271,4.55949 -11.39872,6.33262 l -12.15864,3.54627 q -6.33263,1.77314 -11.14542,1.26653 -4.8128,-0.50661 -9.6256,-0.25331 -4.81279,0.25331 -6.58593,-0.50661 l -2.27974,-0.50661 q -3.29297,20.77101 -10.38551,40.02219 0.75992,-1.01322 2.53305,-2.53305 l 7.09254,-5.82601 q 5.31941,-4.30619 10.89212,-7.34585 5.57271,-3.03966 13.93178,-6.07932 8.35906,-3.03966 16.71813,-2.78635 8.35906,0.2533 18.23796,3.29296 9.87889,3.03966 19.25118,10.89212 -4.30619,11.39872 -10.63881,19.50448 -6.33263,8.10576 -12.91856,12.66525 -6.58593,4.55949 -13.93177,6.58593 -7.34585,2.02644 -14.43839,2.02644 -7.09254,0 -13.67847,-1.26652 -6.58593,-1.26653 -12.15864,-3.03966 -5.57271,-1.77314 -9.8789,-3.79958 -4.30618,-2.02644 -6.33262,-3.29296 l -2.53305,-1.51983 q -15.95822,32.42304 -40.78211,50.9143 -24.823892,18.49127 -54.460582,18.74457 -2.53305,0 -4.55949,-1.77313 -2.02644,-1.77314 -1.77313,-4.55949 z" id="path4055" /></svg>