<?xml version="1.0" encoding="UTF-8" standalone="no"?><svg xmlns="http://www.w3.org/2000/svg" version="1.1" width="320" height="320" id="svg2"><path d="m 252.79333,89.694775 q 18.23796,12.158645 25.58381,27.863555 7.34584,15.70491 5.0661,26.34372 -2.27975,10.63881 -8.86568,12.15864 -4.05288,1.01322 -13.67847,-2.53305 -9.62559,-3.54627 -20.2644,-2.53305 -10.63881,1.01322 -20.2644,11.65203 -7.59915,11.65203 -5.3194,18.99787 2.27974,7.34585 8.61237,16.46483 6.33262,9.11898 5.82601,12.66525 -0.50661,6.58593 -9.11898,15.95821 -8.61237,9.37229 -31.91643,18.74457 -23.30406,9.37229 -54.71388,9.37229 -47.114727,0 -73.711756,-25.58381 -26.59702,-25.5838 -24.06397,-62.05972 2.02644,-29.88999 26.343719,-59.52667 24.31728,-29.636695 54.713877,-38.249065 73.45845,-21.27762 135.77148,20.2644 z M 172.24234,207.73491 q 7.59915,0 13.17186,-5.57271 5.57271,-5.57271 5.57271,-13.67847 0,-8.10576 -5.57271,-13.42517 -5.57271,-5.3194 -13.42517,-5.3194 -7.85245,0 -13.42516,5.3194 -5.57271,5.31941 -5.57271,13.42517 0,8.10576 5.57271,13.67847 5.57271,5.57271 13.67847,5.57271 z" id="path4129" /></svg>