<?xml version="1.0" encoding="UTF-8" standalone="no"?><svg xmlns="http://www.w3.org/2000/svg" version="1.1" width="320" height="320" id="svg2"><path d="m 33.270699,177.38781 q -0.50661,-5.57271 4.55949,-8.35906 L 272.89724,33.257265 q 5.0661,-3.03966 9.75224,0.37996 4.68614,3.41961 3.67292,8.99232 L 250.35309,259.71194 q -0.75991,4.05288 -4.55949,6.33263 -2.02644,1.26652 -4.55949,1.26652 -1.51983,0 -3.29296,-0.75991 l -74.47168,-30.39661 -42.04863,46.10152 q -2.53305,3.03966 -6.83924,3.03966 -1.77313,0 -3.03966,-0.50661 -2.78635,-1.01322 -4.30618,-3.29297 -1.51983,-2.27974 -1.51983,-5.3194 l 0,-63.83287 -66.872521,-27.35694 q -5.0661,-1.77313 -5.57271,-7.59915 z m 29.63669,-2.02644 47.368031,19.25118 122.09302,-90.17657 -67.63244,112.46741 69.65888,28.62347 31.15651,-187.192395 z" id="path4103" /></svg>