<?xml version="1.0" encoding="UTF-8" standalone="no"?><svg xmlns="http://www.w3.org/2000/svg" version="1.1" width="320" height="320" id="svg2"><path d="m 33.21108,110.85801 q 0,-19.251185 15.95822,-31.409825 l 0,-23.81067 q 0,-9.8789 6.83923,-16.97144 6.83924,-7.09254 16.718129,-6.83923 9.8789,0.2533 16.97144,6.83923 7.09254,6.58593 6.83923,16.97144 l 0,23.81067 q 15.958221,12.15864 15.958221,31.409825 0,19.25118 -15.958221,31.66312 l 0,118.80004 q 0,9.8789 -6.83923,16.97144 -6.83924,7.09254 -16.97144,6.83923 -10.132199,-0.2533 -16.718129,-6.83923 -6.58593,-6.58593 -6.83923,-16.97144 l 0,-118.80004 Q 33.21108,130.36249 33.21108,110.85801 z m 15.95822,0 q 0,3.03966 0.75991,6.58593 l 0.50661,1.51983 q 1.01322,3.29296 3.03966,6.07932 2.02644,2.78635 5.0661,5.0661 3.03966,2.27974 6.332629,3.03966 4.05288,1.51983 7.85245,1.51983 3.79958,0 8.10576,-1.51983 3.29297,-1.01322 6.33263,-3.16632 3.03966,-2.15309 4.81279,-5.19275 2.02644,-2.53305 3.03966,-5.82601 l 0.50661,-1.51983 q 1.01322,-3.54627 1.01322,-6.58593 0,-3.03966 -1.01322,-6.33263 -0.50661,-1.01322 -0.50661,-1.51983 -1.01322,-3.292965 -3.03966,-5.826015 -1.77313,-3.03966 -4.81279,-5.31941 -3.03966,-2.27974 -6.33263,-3.03966 -4.05288,-1.51983 -8.10576,-1.51983 -4.05288,0 -7.85245,1.51983 -3.546269,1.01322 -6.205979,3.16631 -2.6597,2.1531 -5.19275,5.19276 -2.02644,2.53305 -3.03966,5.826015 l -0.50661,1.51983 q -0.75991,3.54627 -0.75991,6.58593 l 0,-0.2533 z m 15.704909,150.46316 q 0,3.54627 2.27974,5.82602 2.27975,2.27974 5.57271,2.27974 3.29297,0 5.82602,-2.27974 2.53305,-2.27975 2.27974,-5.82602 l 0,-111.7075 q -4.05288,1.01322 -8.10576,1.01322 -4.05288,0 -7.85245,-1.01322 l 0,111.7075 z m 0,-188.965525 q 4.05288,-1.01322 7.85245,-1.01322 3.79958,0 8.10576,1.01322 l 0,-16.71813 q 0,-3.54627 -2.27974,-5.82602 -2.27975,-2.27974 -5.82602,-2.02644 -3.54627,0.25331 -5.57271,2.02644 -2.02644,1.77314 -2.27974,5.82602 l 0,16.71813 z M 120.348,205.84738 q 0,-19.25118 15.70491,-31.66313 l 0,-118.546735 q 0,-9.8789 7.09254,-16.97144 7.09254,-7.09254 16.71813,-6.83923 9.62559,0.2533 16.71813,6.83923 7.09254,6.58593 7.09254,16.97144 l 0,118.546735 q 15.70492,12.41195 15.70492,31.66313 0,19.25118 -15.70492,31.66312 l 0,23.81067 q 0,9.8789 -7.09254,16.97144 -7.09254,7.09254 -16.71813,6.83923 -9.62559,-0.2533 -16.71813,-6.83923 -7.09254,-6.58593 -7.09254,-16.97144 l 0,-23.81067 Q 120.348,225.35186 120.348,205.84738 z m 15.70491,0 q 0,3.03966 1.01322,6.58593 l 0.50661,1.51983 q 1.01322,3.29296 3.03966,6.07932 2.02644,2.78635 4.8128,5.0661 2.78635,2.27974 6.58593,3.03966 3.79957,1.51983 7.85245,1.51983 4.05288,0 7.85246,-1.51983 3.54627,-1.01322 6.45928,-3.16631 2.913,-2.1531 4.93944,-4.93945 2.02644,-2.78636 3.03966,-6.07932 0,-0.50661 0.50661,-1.51983 1.01322,-3.54627 1.01322,-6.58593 0,-3.03966 -1.01322,-6.33263 l -0.50661,-1.51983 q -1.01322,-3.29296 -3.03966,-6.07932 -2.02644,-2.78635 -4.81279,-4.81279 -3.03966,-2.53305 -6.58593,-3.29297 -3.79958,-1.51983 -7.85246,-1.51983 -4.05288,0 -7.85245,1.51983 -3.54627,0.75992 -6.58593,3.29297 -2.27975,2.02644 -4.8128,5.0661 -2.02644,2.53305 -3.03966,5.82601 l -0.50661,1.51983 q -1.01322,3.54627 -1.01322,6.33263 z m 15.95822,55.47379 q 0,3.54627 2.27974,5.82602 2.27975,2.27974 5.57271,2.27974 3.29297,0 5.57271,-2.27974 2.27975,-2.27975 2.27975,-5.82602 l 0,-16.71813 q -3.79958,1.01322 -7.85246,1.01322 -4.05288,0 -7.85245,-1.01322 l 0,16.71813 z m 0,-93.97615 q 3.79957,-1.01322 7.85245,-1.01322 4.05288,0 7.85246,1.01322 l 0,-111.707505 q 0,-3.54627 -2.27975,-5.82602 -2.27974,-2.27974 -5.57271,-2.02644 -3.29296,0.25331 -5.57271,2.02644 -2.27974,1.77314 -2.27974,5.82602 l 0,111.707505 z m 55.4738,-56.48701 q 0,-19.251185 15.70491,-31.409825 l 0,-23.81067 q 0,-9.8789 6.83923,-16.97144 6.83924,-7.09254 16.97144,-6.83923 10.1322,0.2533 16.71813,6.83923 6.58593,6.58593 6.83923,16.97144 l 0,23.81067 q 15.95822,12.15864 15.95822,31.409825 0,19.25118 -15.95822,31.66312 l 0,118.80004 q 0,9.8789 -6.83923,16.97144 -6.83924,7.09254 -16.71813,6.83923 -9.8789,-0.2533 -16.97144,-6.83923 -7.09254,-6.58593 -6.83923,-16.97144 l 0,-118.80004 q -15.70491,-12.15864 -15.70491,-31.66312 z m 15.70491,0 q 0,3.03966 1.01322,6.58593 l 0.50661,1.51983 q 1.01322,3.29296 3.03966,5.82601 1.77313,3.03966 4.81279,5.31941 3.03966,2.27974 6.33263,3.03966 4.05288,1.51983 8.10576,1.51983 4.05288,0 7.85245,-1.51983 3.54627,-1.01322 6.45928,-3.16632 2.91301,-2.15309 4.93945,-4.93944 2.02644,-2.78636 3.03966,-6.07932 0,-0.50661 0.50661,-1.51983 0.75991,-3.54627 0.75991,-6.58593 0,-3.03966 -0.75991,-6.33263 l -0.50661,-1.51983 q -1.01322,-3.292965 -3.03966,-6.079325 -2.02644,-2.78635 -4.93945,-4.93945 -2.91301,-2.15309 -6.45928,-3.16631 -4.05288,-1.51983 -7.85245,-1.51983 -3.79958,0 -8.10576,1.51983 -3.29297,1.01322 -6.33263,3.16631 -3.03966,2.1531 -4.81279,5.19276 -2.02644,2.53305 -3.03966,5.826015 l -0.50661,1.51983 q -1.01322,3.54627 -1.01322,6.58593 l 0,-0.2533 z m 15.70491,150.46316 q 0,3.54627 2.27974,5.82602 2.27975,2.27974 5.82602,2.27974 3.54627,0 5.57271,-2.27974 2.02644,-2.27975 2.27974,-5.82602 l 0,-111.7075 q -4.05288,1.01322 -7.85245,1.01322 -3.79958,0 -8.10576,-1.01322 l 0,111.7075 z m 0,-188.965525 q 4.05288,-1.01322 8.10576,-1.01322 4.05288,0 7.85245,1.01322 l 0,-16.71813 q 0,-3.54627 -2.27974,-5.82602 -2.27975,-2.27974 -5.57271,-2.02644 -3.29297,0.25331 -5.82602,2.02644 -2.53305,1.77314 -2.27974,5.82602 l 0,16.71813 z" id="path3995" /></svg>