<?xml version="1.0" encoding="UTF-8" standalone="no"?><svg xmlns="http://www.w3.org/2000/svg" version="1.1" width="320" height="320" id="svg2"><path d="m 24.223273,244.34974 0,-171.740795 q 0,-9.37228 6.58593,-15.95821 6.58593,-6.58593 15.95822,-6.83924 l 226.201367,0 q 9.37229,0 15.95822,6.83924 6.58593,6.83923 6.58593,15.95821 l 0,171.740795 q 0,9.37228 -6.58593,15.95821 -6.58593,6.58593 -15.95822,6.83924 l -226.201367,0 q -9.11899,0 -15.95822,-6.83924 -6.83924,-6.83923 -6.58593,-15.95821 z m 17.98466,0 q 0,2.02644 1.51983,3.29296 1.51983,1.26653 3.03966,1.26653 l 226.201367,0 q 1.77314,0 3.29297,-1.26653 1.51983,-1.26652 1.26652,-3.29296 l 0,-171.740795 q 0,-2.02644 -1.26652,-3.29296 -1.26653,-1.26653 -3.29297,-1.26653 l -226.201367,0 q -1.77314,0 -3.03966,1.26653 -1.26653,1.26652 -1.51983,3.29296 l 0,171.740795 z m 18.23796,-13.42517 0,-27.10363 45.088287,-45.3416 22.79745,22.54415 72.19193,-72.19192 59.02007,58.76675 0,63.32625 -199.097737,0 z m 0,-117.78682 q 0,-11.14542 7.85245,-18.997875 7.852459,-7.85246 19.251179,-8.10576 11.39873,-0.25331 19.251178,8.10576 7.85246,8.359065 7.85246,18.997875 0,10.63881 -7.85246,19.25118 -7.852448,8.61237 -19.251178,8.10576 -11.39872,-0.50661 -19.251179,-8.10576 -7.85245,-7.59915 -7.85245,-19.25118 z" id="path4019" /></svg>