<?xml version="1.0" encoding="UTF-8" standalone="no"?><svg xmlns="http://www.w3.org/2000/svg" version="1.1" width="320" height="320" id="svg2"><path d="m 250.08841,116.4998 -25.3305,0 -31.40982,-37.995755 -54.20727,37.995755 -45.594904,0 q -13.17186,0 -22.79745,9.8789 -9.625589,9.87889 -9.625589,23.05075 l 0,40.5288 -27.35694,-74.97828 q -2.53304,-9.62559 5.57271,-13.17186 L 211.58605,38.988465 q 9.11898,-2.53305 12.66525,6.07932 z m 26.85034,22.79745 q 4.05288,0 6.83923,3.03966 2.78636,3.03966 2.78636,7.09254 l 0,119.55996 q 0,4.05288 -2.78636,7.09254 -2.78635,3.03966 -6.83923,3.03966 l -183.392834,0 q -4.05288,0 -6.83924,-3.03966 -2.78635,-3.03966 -2.78635,-7.09254 l 0,-119.55996 q 0,-4.05288 2.78635,-7.09254 2.78636,-3.03966 6.83924,-3.03966 l 183.392834,0 z m -14.18508,114.49386 0,-41.03541 -18.23797,-40.5288 -42.04863,15.1983 -32.92965,33.43626 -34.95609,-43.06185 -23.30406,54.20727 0,21.78423 151.4764,0 z" id="path3993" /></svg>