<?xml version="1.0" encoding="UTF-8" standalone="no"?><svg xmlns="http://www.w3.org/2000/svg" version="1.1" width="320" height="320" id="svg2"><path d="m 52.46226,114.40428 q -6.58593,0 -5.57271,-5.57271 1.01322,-2.53305 3.03966,-3.54627 0.50661,0 12.411949,-4.30619 11.90533,-4.306185 23.55736,-8.105765 11.65203,-3.79957 14.691691,-3.79957 l 11.14542,0 0,-37.99575 96.25591,0 0,37.99575 11.65203,0 q 3.03966,0 14.43838,3.79957 11.39873,3.79958 23.30406,8.105765 11.90534,4.30619 12.41195,4.30619 4.55949,2.02644 3.03966,6.58593 -1.01322,2.53305 -5.0661,2.53305 l -215.30926,0 z m 217.84231,14.18508 q 5.0661,0 9.37228,4.81279 4.30619,4.81279 4.30619,10.3855 l 0,44.07507 q 0,5.57271 -4.30619,10.38551 -4.30618,4.81279 -9.37228,4.81279 l -25.3305,0 11.14542,63.32625 -192.511811,0 11.14542,-63.32625 -24.823889,0 q -5.0661,0 -9.62559,-4.81279 -4.55949,-4.8128 -4.55949,-10.38551 l 0,-44.07507 q 0,-5.57271 4.55949,-10.3855 4.55949,-4.81279 9.62559,-4.81279 l 220.37536,0 z m -181.366391,112.46741 141.850811,0 -17.73135,-82.07082 -106.38811,0 z" id="path4081" /></svg>