<?xml version="1.0" encoding="UTF-8" standalone="no"?><svg xmlns="http://www.w3.org/2000/svg" version="1.1" width="320" height="320" id="svg2"><path d="m 260.04571,104.27208 q 7.85246,0.2533 13.29852,5.82601 5.44605,5.57271 5.69936,13.93178 l 0,92.70962 q -0.25331,8.10576 -5.69936,13.67847 -5.44606,5.57271 -13.29852,5.82602 l -19.25118,0 8.61237,38.75566 -175.033761,0 6.83924,-38.75566 -20.77101,0 Q 51.829,235.99067 46.38294,230.41796 40.93688,224.84525 40.68358,216.73949 l 0,-92.70962 q 0.2533,-8.35907 5.69936,-13.93178 5.44606,-5.57271 14.058429,-5.82601 l 24.31728,0 0,-29.636695 8.61237,0 0,-32.67634 133.491741,0 0,32.67634 8.61237,0 0,29.636695 24.57058,0 z m -157.80902,-50.407705 0,73.965065 115.76039,0 0,-73.965065 -115.76039,0 z M 73.613229,152.40002 q 5.82601,-0.2533 9.75224,-4.05288 3.92623,-3.79957 3.92623,-9.49894 0,-5.69935 -3.92623,-9.49893 -3.92623,-3.79957 -9.62559,-3.79957 -5.69936,0 -9.62559,3.79957 -3.92623,3.79958 -3.92623,9.49893 0,5.69937 3.92623,9.49894 3.92623,3.79958 9.49894,4.05288 z m 15.95821,110.94759 143.623941,0 -11.90533,-61.29981 -122.599631,0 z m 63.832861,-28.62346 -35.20939,0 0,-8.86568 35.20939,0 0,8.86568 z m 50.1544,0 -35.2094,0 0,-8.86568 35.2094,0 0,8.86568 z" id="path3997" /></svg>