<?xml version="1.0" encoding="UTF-8" standalone="no"?><svg xmlns="http://www.w3.org/2000/svg" version="1.1" width="320" height="320" id="svg2"><path d="m 42.20341,280.07513 0,-144.63716 2.53305,0.50661 q 2.27974,0.50661 4.81279,0.50661 2.53305,0 3.03966,0.50661 21.024319,3.54627 34.449479,3.54627 11.39873,0 16.718131,-5.0661 6.33263,-6.07932 6.33263,-12.41194 0,-3.29297 -2.02644,-7.34585 -2.02644,-4.05288 -4.8128,-7.34584 -2.78635,-3.29297 -4.559491,-9.118985 -1.77313,-5.82602 -2.27974,-11.65203 0,-11.65203 8.359061,-18.23796 8.35907,-6.58593 20.51771,-6.33263 11.14542,0 18.74457,6.33263 7.59915,6.33262 7.59915,17.47804 0,5.82602 -2.27975,10.89212 -2.27974,5.066105 -5.3194,8.359065 -3.03966,3.29297 -5.57271,7.85246 -2.53305,4.55949 -2.27975,10.1322 0,8.10576 5.82602,11.90533 5.82601,3.79957 14.43838,3.54627 9.11898,0 25.58381,-2.02644 16.46483,-2.02644 23.05076,-2.27974 l 0,0.2533 q -0.25331,0.25331 -0.50661,2.27974 l -1.26653,7.85246 q -3.29296,21.27762 -3.29296,34.70279 0,11.39872 4.81279,16.46482 6.33263,6.58593 12.66525,6.58593 3.03966,0 7.09254,-2.02644 4.05288,-2.02644 7.59915,-4.81279 3.54627,-2.78636 9.11898,-4.8128 5.57271,-2.02644 11.65203,-2.02644 11.65203,0 17.98466,8.35907 6.33262,8.35906 6.58593,20.2644 0,11.39872 -6.33263,18.99787 -6.33262,7.59915 -17.47804,7.59915 -5.82602,0 -10.89212,-2.53305 -5.0661,-2.53305 -8.35906,-5.3194 -3.29297,-2.78636 -8.10576,-5.31941 -4.8128,-2.53305 -9.8789,-2.53305 -15.70491,0 -15.70491,17.47805 0,5.57271 2.27975,16.46482 2.27974,10.89212 2.02644,16.21152 l 0,0.75992 -4.55949,0 q -4.8128,0.50661 -13.67847,1.77313 -8.86568,1.26653 -16.46483,1.77314 -7.59915,0.50661 -13.93178,0.75991 -8.61237,0 -14.43838,-3.79957 -5.82602,-3.79958 -5.82602,-11.90534 0,-5.0661 2.27975,-9.87889 2.27974,-4.8128 5.57271,-8.10576 3.29296,-3.29297 5.3194,-8.35907 2.02644,-5.0661 2.27975,-10.89211 0,-11.14542 -7.59915,-17.47805 -7.59915,-6.33262 -19.25118,-6.33262 -11.65203,0 -20.0111,6.58593 -8.359061,6.58593 -8.359061,17.98465 0,6.07932 2.27974,11.65203 2.279751,5.57271 4.559491,9.11898 l 4.8128,7.59915 q 2.53305,4.05288 2.02644,7.09254 0,6.33263 -6.33263,12.66525 -5.319401,4.8128 -16.718131,4.8128 -13.42516,0 -34.449479,-3.29297 -1.26652,-0.2533 -4.05288,-0.50661 -2.78635,-0.2533 -3.79957,-0.75991 l -2.27975,-0.25331 q -0.2533,0 -0.2533,-0.2533 z" id="path4067" /></svg>