<?xml version="1.0" encoding="UTF-8" standalone="no"?><svg xmlns="http://www.w3.org/2000/svg" version="1.1" width="320" height="320" id="svg2"><path d="m 35.936499,155.43968 q 1.01322,-30.6499 16.21152,-57.500235 15.198299,-26.85034 43.315159,-44.83499 l 0.50661,0 0,0.25331 q -1.26653,1.26652 -4.05288,4.81279 -2.78636,3.54627 -7.34585,10.89211 -4.55949,7.34585 -8.35906,15.70491 -3.79958,8.35907 -6.33263,18.997885 -2.53305,10.63881 -2.02644,21.27762 0.50661,10.63881 5.57271,22.29084 5.0661,11.65203 15.1983,21.78423 7.09254,7.09254 14.438392,9.87889 7.34584,2.78636 12.91855,1.51983 5.57271,-1.26652 9.8789,-3.29296 4.30618,-2.02644 6.58593,-4.55949 l 2.27974,-2.27975 q 5.31941,-7.34584 7.34585,-16.46482 2.02644,-9.11898 1.01322,-17.22474 -1.01322,-8.10576 -3.03966,-15.1983 -2.02644,-7.09254 -3.79958,-11.39872 l -1.77313,-4.05288 q -1.51983,-3.54627 -4.30619,-7.092545 -2.78635,-3.54627 -6.07932,-5.57271 -3.29296,-2.02644 -6.33262,-4.30619 -3.03966,-2.27975 -4.8128,-2.53305 l -1.77313,-1.01322 14.69169,-16.21152 q 5.3194,2.27974 10.89211,7.34584 5.57271,5.0661 8.35907,8.61237 l 2.78635,3.79958 q 0,-6.83924 -2.78635,-14.69169 -2.78636,-7.85246 -5.57271,-12.15864 l -2.78636,-4.55949 22.54415,-25.83711 22.79745,25.5838 q -4.81279,6.58593 -7.59915,14.43839 -2.78636,7.85245 -3.03966,12.91855 l -0.50661,4.5595 q 3.03966,-5.06611 8.61237,-10.13221 5.57271,-5.0661 9.62559,-7.59915 l 3.79958,-2.27974 14.69169,16.21152 q -6.33263,2.02644 -12.15864,7.09254 -5.82602,5.0661 -8.35907,9.118985 l -2.78635,4.30619 q -4.30619,7.85245 -6.83924,18.74457 -2.53305,10.89211 -1.01322,24.06397 1.51983,13.17186 8.10576,22.03753 4.8128,6.33263 10.89212,8.61237 6.07932,2.27975 12.15864,0.75992 6.07932,-1.51983 10.63881,-3.79958 4.55949,-2.27974 8.10576,-4.55949 l 3.03966,-2.27974 q 8.61237,-7.59915 13.67847,-16.46483 5.0661,-8.86567 6.83924,-16.97143 1.77313,-8.10576 1.51983,-17.22474 -0.25331,-9.11898 -2.53305,-16.71813 -2.27975,-7.599155 -5.31941,-15.198305 -3.03966,-7.59915 -6.33262,-13.17186 -3.29297,-5.57271 -6.58593,-10.1322 l -4.8128,-6.83923 -1.77313,-2.27975 q -2.02644,-1.77313 -1.01322,-1.77313 l 1.51983,0.2533 8.61237,6.58593 q 3.03966,2.27974 8.86567,7.09254 5.82602,4.81279 9.11898,8.10576 3.29297,3.29296 8.10576,9.37228 4.8128,6.07933 7.85246,10.89212 3.03966,4.8128 6.58593,12.411955 3.54627,7.59915 5.3194,14.43838 1.77314,6.83924 3.29297,16.46482 1.51983,9.62559 1.51983,19.25118 0.50661,36.72923 -15.1983,65.8593 -15.70491,29.13008 -44.07507,45.3416 -28.37017,16.21153 -64.59279,16.21153 -26.09041,0 -49.64778,-10.38552 -23.557362,-10.3855 -40.022192,-28.11685 -16.464819,-17.73135 -26.090409,-41.28872 -9.62559,-23.55736 -8.35907,-49.90108 z" id="path4057" /></svg>