<?xml version="1.0" encoding="UTF-8" standalone="no"?><svg xmlns="http://www.w3.org/2000/svg" version="1.1" width="320" height="320" id="svg2"><path d="m 245.79798,33.093365 q 16.21152,0 27.86355,11.65203 11.65203,11.65203 11.65203,27.86355 0,16.21152 -11.65203,27.863555 l -11.65203,11.65203 q 10.1322,11.14542 10.1322,26.34372 0,17.98465 -14.43838,30.14329 1.01322,4.05288 1.01322,8.86568 l 0,79.79107 -78.27125,0 q -5.57271,0 -9.62559,-1.26652 -12.15864,14.69169 -30.90321,14.69169 -15.70491,0 -26.85033,-10.63881 l -11.65203,12.15864 q -11.652034,11.65203 -27.483604,11.65203 -15.831559,0 -27.736889,-11.65203 -11.90534,-11.65203 -11.77869,-27.9902 0.12666,-16.33818 11.77869,-28.24351 l 12.41194,-12.15864 q -9.11898,-11.14542 -9.11898,-25.83711 0,-16.71813 12.91856,-28.62347 -1.51983,-8.10576 -1.51983,-9.87889 l 0,-80.044385 80.044383,0 q 2.78635,0 8.61237,1.26653 11.90533,-14.43839 30.14329,-14.43839 15.70492,0 26.59703,9.87889 l 11.39873,-11.39872 q 11.65203,-11.65203 28.11685,-11.65203 z m -158.315634,52.94075 0,52.434135 q 0,5.3194 3.79958,9.37228 3.79957,4.05288 9.118984,4.05288 5.3194,0 9.37228,-4.05288 4.05288,-4.05288 4.05288,-9.37228 l 0,-26.34372 26.09042,0 q 5.57271,0 9.37228,-3.79957 3.79958,-3.79958 4.05288,-9.372295 0.25331,-5.57271 -4.05288,-9.11898 -4.30618,-3.54627 -9.37228,-3.79957 l -52.434144,0 z m 167.434614,-4.30619 q 3.79958,-3.79957 3.79958,-9.11898 0,-5.3194 -3.92623,-9.24563 -3.92623,-3.92623 -9.11898,-3.92623 -5.19275,0 -9.49894,4.05288 l -43.31515,43.315165 0,-20.771015 q 0,-5.57271 -4.05288,-9.37229 -4.05288,-3.79957 -9.11899,-4.05288 -5.0661,-0.2533 -9.37228,4.05288 -4.30619,4.30619 -3.79958,9.37229 l 0,65.859295 65.85931,0 q 5.57271,0 9.37228,-4.05288 3.79958,-4.05288 4.05288,-9.37228 0.25331,-5.3194 -4.05288,-9.11898 -4.30618,-3.79957 -9.37228,-3.79957 l -20.77101,0 z m -101.57531,149.196645 0,-65.8593 -64.339474,0 q -5.3194,0 -9.37228,3.79958 -4.05288,3.79957 -3.79958,9.11898 0.25331,5.3194 3.79958,9.37228 3.54627,4.05288 9.37228,4.05288 l 19.251184,0 -43.315154,43.31516 q -3.799579,3.79957 -3.799579,9.37228 0,5.57271 3.799579,9.37229 3.79957,3.79957 8.86567,3.79957 5.0661,0 8.86568,-3.79957 l 44.328374,-45.08829 0,22.54414 q 0,5.31941 3.79958,9.37229 3.79957,4.05288 9.11898,4.05288 5.3194,0 9.37228,-4.05288 4.05288,-4.05288 4.05288,-9.37229 z m 0,-79.03116 0,-29.88998 q -7.09254,3.54627 -12.41194,3.54627 l -13.93178,0 0,12.91855 q 0,6.58593 -3.79957,13.42516 l 30.14329,0 z m 13.17186,13.17186 0,30.3966 q 6.83924,-4.05288 13.93178,-4.05288 l 12.41195,0 0,-13.93177 q 0,-10.1322 9.62559,-12.41195 l -35.96932,0 z m 0.75992,52.68744 q 0,5.31941 3.79957,9.37229 3.79958,4.05288 9.37229,3.79957 l 51.92753,0 0,-52.94074 q 0,-5.31941 -3.79958,-9.11898 -3.79957,-3.79958 -9.37228,-3.79958 -5.57271,0 -9.11898,3.79958 -3.54627,3.79957 -3.79958,9.11898 l 0,26.59702 -25.83711,0 q -5.31941,0 -9.37229,3.79958 -4.05288,3.79957 -3.79957,9.37228 z" id="path4131" /></svg>