<?xml version="1.0" encoding="UTF-8" standalone="no"?><svg xmlns="http://www.w3.org/2000/svg" version="1.1" width="320" height="320" id="svg2"><path d="m 51.311836,258.02821 0,-63.32625 q 0,-6.07932 5.57271,-8.48572 5.57271,-2.4064 9.87889,2.15309 l 20.2644,20.2644 50.154394,-50.15439 -50.154394,-50.15438 -20.2644,20.2644 q -2.78635,2.78635 -6.33262,2.78635 -1.77314,0 -3.54627,-0.75991 -5.57271,-2.27975 -5.57271,-8.35907 l 0,-63.326255 q 0,-3.54627 2.78635,-6.33263 2.78636,-2.78635 6.33263,-2.78635 l 63.326254,0 q 5.82601,0 8.23241,5.69936 2.4064,5.69936 -1.89979,9.75225 l -20.2644,20.5177 50.15439,50.154395 50.1544,-50.154395 -20.51771,-20.5177 q -4.30618,-4.05289 -1.89979,-9.75225 2.4064,-5.69936 8.23242,-5.69936 l 63.32625,0 q 3.79957,0 6.58593,2.78635 2.78635,2.78636 2.53305,6.33263 l 0,63.326255 q 0,6.07932 -5.57271,8.35907 -1.77314,0.75991 -3.54627,0.75991 -3.54627,0 -6.33263,-2.78635 l -20.2644,-20.2644 -50.15439,50.15438 50.15439,50.15439 20.2644,-20.2644 q 4.05288,-4.30618 9.75225,-2.02644 5.69936,2.27975 5.69936,8.35907 l 0,63.32625 q 0,3.54627 -2.53305,6.33262 -2.53305,2.78636 -6.58593,2.78636 l -63.32625,0 q -5.82602,0 -8.10576,-5.82602 -2.53305,-5.3194 1.77313,-9.62559 l 20.51771,-20.5177 -50.1544,-50.15439 -50.15439,50.15439 20.2644,20.5177 q 4.30619,4.30619 2.02644,9.62559 -2.53305,5.82602 -8.35906,5.82602 l -63.326254,0 q -3.79958,0 -6.33263,-2.78636 -2.53305,-2.78635 -2.78635,-6.33262 z" id="path4033" /></svg>