<?xml version="1.0" encoding="UTF-8" standalone="no"?><svg xmlns="http://www.w3.org/2000/svg" version="1.1" width="320" height="320" id="svg2"><path d="m 82.21815,171.90451 64.59277,0 0,65.8593 q 0,5.82601 -3.03966,9.62559 -3.03966,3.79957 -8.61237,3.79957 -5.57271,0 -9.37228,-4.05288 -3.79958,-4.05288 -4.05288,-9.37228 l 0,-22.54415 -44.83499,45.08829 q -3.79957,3.79958 -9.37228,3.79958 -5.57271,0 -9.37229,-3.79958 -3.79957,-3.79957 -3.79957,-9.37228 0,-5.57271 3.79957,-9.37229 l 43.31516,-43.31515 -19.25118,0 q -5.31941,0 -9.11898,-4.05288 -3.79958,-4.05288 -3.79958,-9.37229 0,-5.3194 3.79958,-9.11898 3.79957,-3.79957 9.11898,-3.79957 z m 11.65203,-26.59703 q -5.31941,0 -9.37229,-3.79957 -4.05288,-3.79958 -3.79957,-9.11898 l 0,-52.940745 52.94074,0 q 5.31941,0 9.11898,4.05288 3.79958,4.05288 4.05288,9.37228 0.25331,5.31941 -4.05288,9.118985 -4.30618,3.79958 -9.11898,3.79958 l -26.34372,0 0,26.59702 q 0,5.3194 -4.05288,9.11898 -4.05288,3.79957 -9.37228,3.79957 z m 132.22521,26.59703 q 5.31941,0 9.11898,3.79957 3.79958,3.79958 3.79958,9.11898 l 0,52.94075 -52.68744,0 q -5.31941,0 -9.37229,-3.79958 -4.05288,-3.79957 -3.79957,-9.37228 0.2533,-5.57271 3.79957,-9.37229 3.54627,-3.79957 9.37229,-3.79957 l 26.34372,0 0,-26.59703 q 0,-5.3194 4.05288,-9.11898 4.05288,-3.79957 9.37228,-3.79957 z M 243.06683,56.904035 q 3.79957,-3.79957 9.11898,-3.79957 5.3194,0 9.37228,3.79957 4.05288,3.79958 3.79958,9.37229 -0.25331,5.57271 -3.79958,9.37228 l -43.56846,43.315165 21.02432,0 q 5.3194,0 9.37228,4.05288 4.05288,4.05288 3.79958,9.37228 -0.25331,5.3194 -3.79958,9.11898 -3.54627,3.79957 -9.37228,3.79957 l -65.8593,0 0,-65.859295 q 0,-5.31941 3.79957,-9.37229 3.79958,-4.05288 9.37229,-3.79957 5.57271,0.2533 9.37228,3.79957 3.79958,3.54627 3.79958,9.37229 l 0,21.024315 z" id="path4133" /></svg>