<?xml version="1.0" encoding="UTF-8" standalone="no"?><svg xmlns="http://www.w3.org/2000/svg" version="1.1" width="320" height="320" id="svg2"><path d="m 188.57593,195.00744 q 1.51983,12.66525 2.02644,20.5177 0.50661,7.85246 -2.02644,14.945 -2.53305,7.09254 -3.29297,10.1322 -0.75991,3.03966 -8.86567,8.10576 -8.10576,5.0661 -11.39873,6.58593 l -39.26227,17.22474 q -8.10576,3.03966 -11.39873,-1.01322 -3.29296,-4.05288 -0.75991,-11.14542 l 10.1322,-27.86355 -32.929657,-33.43626 -26.85033,10.1322 q -7.09254,3.03966 -10.89211,-0.50661 -3.79958,-3.54627 -0.75992,-11.65203 l 7.85246,-20.0111 q 4.81279,-12.41194 6.83923,-16.46482 l 5.57271,-11.39873 q 3.54627,-7.34584 6.33263,-9.11898 2.78635,-1.77313 7.34584,-5.06609 4.55949,-3.29297 10.38551,-3.29297 l 13.171857,0 17.98466,1.51983 q 2.53305,-3.54627 7.34584,-9.87889 4.8128,-6.33263 19.50449,-21.53093 14.69169,-15.198305 29.88999,-26.343725 15.1983,-11.14542 36.72923,-18.99787 21.53092,-7.85246 41.79532,-4.8128 2.02644,0 3.54627,1.51983 1.01322,1.01322 1.51983,3.54627 2.53305,20.77101 -4.55949,42.55524 -7.09254,21.784235 -19.25118,38.249055 -12.15864,16.46483 -24.82389,29.88999 -12.66525,13.42517 -21.78423,20.51771 z m 12.66525,-74.97828 q 5.57271,5.57271 13.67847,5.57271 8.10576,0 13.67847,-5.82601 5.57271,-5.82602 5.57271,-13.93178 0,-8.105765 -5.57271,-13.931775 -5.57271,-5.82602 -13.67847,-5.82602 -8.10576,0 -13.67847,5.82602 -5.57271,5.82601 -5.57271,13.931775 0,8.10576 5.57271,14.18508 z" id="path4087" /></svg>