<?xml version="1.0" encoding="UTF-8" standalone="no"?><svg xmlns="http://www.w3.org/2000/svg" version="1.1" width="320" height="320" id="svg2"><path d="m 69.423141,167.59832 0,-108.667845 q 0,-3.54627 2.78636,-6.33263 2.78635,-2.78635 6.33262,-2.78635 l 162.875119,0 q 3.54627,0 6.33263,2.78635 2.78635,2.78636 2.53305,6.33263 l 0,108.667845 q 0,12.15864 -4.55949,24.06398 -4.55949,11.90533 -11.90534,21.27762 -7.34584,9.37228 -16.71813,17.98465 -9.37228,8.61237 -17.73135,14.43839 -8.35906,5.82601 -17.22474,10.89211 -8.86567,5.0661 -12.66525,7.09254 -3.79957,2.02644 -5.69936,2.91301 -1.89979,0.88657 -3.92623,0.88657 -2.02644,0 -3.54627,-1.01322 l -6.07932,-2.78636 q -3.79958,-1.77313 -12.66525,-7.09254 -8.86568,-5.3194 -17.22474,-10.89211 -8.35907,-5.57271 -17.73135,-14.43839 -9.372289,-8.86567 -16.718129,-17.98465 -7.34585,-9.11898 -11.65203,-21.27762 -4.30619,-12.15864 -4.8128,-24.06398 z m 90.429889,70.16549 q 16.97144,-8.86568 30.1433,-19.25118 33.18295,-26.09042 33.18295,-50.91431 l 0,-90.429885 -63.32625,0 0,160.595375 z" id="path4065" /></svg>