<?xml version="1.0" encoding="UTF-8" standalone="no"?><svg xmlns="http://www.w3.org/2000/svg" version="1.1" width="320" height="320" id="svg2"><path d="m 224.20306,116.93733 q -13.67847,0 -26.59703,8.10576 -12.91856,8.10576 -20.2644,16.71812 -7.34585,8.61237 -21.02432,26.34372 -12.15864,15.70491 -18.99787,23.81067 -6.83924,8.10576 -19.75779,19.50449 -12.91856,11.39872 -27.103641,16.71813 -14.18508,5.3194 -30.903209,5.3194 l -26.34372,0 0,-35.4627 26.34372,0 q 13.678469,0 26.850329,-8.10576 13.17186,-8.10576 20.517711,-16.71813 7.34584,-8.61237 21.02431,-26.34372 15.70491,-20.771 25.58381,-31.91642 9.87889,-11.14542 29.38338,-22.290845 19.50449,-11.14542 41.28872,-11.14542 l 9.11898,0 0,-30.3966 53.19405,45.5949 -53.19405,45.594895 0,-25.33049 -9.11898,0 z M 101.60343,139.22816 Q 82.858859,119.47038 59.5548,119.47038 l -26.34372,0 0,-35.462705 26.34372,0 q 35.462699,0 64.33947,27.356945 -3.54627,4.05288 -9.37228,11.39872 -5.82602,7.34585 -6.83924,8.35907 -2.02644,3.03966 -6.07932,8.10575 z m 131.71861,61.29981 0,-25.3305 53.19405,45.5949 -53.19405,45.5949 0,-30.3966 -9.11898,0 q -35.4627,0 -65.85931,-29.38338 11.65203,-14.69169 18.23796,-23.30406 0,-0.50661 1.51983,-2.27974 1.51983,-1.77314 2.02644,-2.78636 21.27763,22.29084 44.07508,22.29084 l 9.11898,0 z" id="path4003" /></svg>