<?xml version="1.0" encoding="UTF-8" standalone="no"?><svg xmlns="http://www.w3.org/2000/svg" version="1.1" width="320" height="320" id="svg2"><path d="m 159.10366,84.260975 q -6.07932,-0.2533 -10.25885,-4.30618 -4.17953,-4.05288 -4.17953,-10.38551 0,-6.33262 4.17953,-10.25885 4.17953,-3.92623 10.38551,-3.92623 6.20597,0 10.1322,4.05288 3.92623,4.05288 3.92623,10.1322 0,6.07932 -3.92623,10.25885 -3.92623,4.17954 -10.25886,4.43284 z M 241.9344,272.7199 q 1.77314,4.81279 -0.12665,8.99233 -1.89979,4.17953 -6.45928,5.95266 -1.77313,0.50661 -4.05288,0.50661 -3.54627,0 -6.33262,-1.89978 -2.78636,-1.89979 -4.05288,-5.44606 l -3.54627,-8.86568 -116.52031,0 -3.546265,8.86568 q -1.26652,3.54627 -4.17953,5.44606 -2.91301,1.89978 -6.20597,1.89978 -2.27975,0 -4.05288,-0.50661 -4.55949,-1.77313 -6.45928,-5.95266 -1.89979,-4.17954 -0.37996,-8.99233 l 70.418785,-180.859775 10.63881,-7.34584 4.30619,0 10.38551,7.34584 z m -45.08829,-53.70066 -11.14542,-28.11686 -17.98465,17.98466 19.50448,19.50448 z m -37.74245,-96.76251 -17.73135,45.8482 35.46271,0 z m 22.03754,57.24693 -43.06185,0 21.53092,21.27762 z m -48.38126,10.3855 -11.14542,28.37016 10.63881,10.1322 19.50449,-19.50448 z m -27.61024,70.6721 43.06185,0 -30.90321,-30.64991 z m 54.46057,-4.30619 19.7578,-19.75779 -19.7578,-19.50448 -19.50448,19.50448 z m 11.39873,4.30619 41.79533,0 -11.65203,-30.1433 z m 41.79533,-147.42351 -9.37229,-9.37228 q 5.0661,-4.812805 7.59915,-11.145425 2.53305,-6.33263 2.53305,-12.91856 0,-5.82601 -2.40639,-11.65203 -2.4064,-5.82601 -6.71259,-10.63881 l 8.86568,-8.86567 q 6.07932,6.83923 10.00555,15.1983 3.92622,8.35906 3.92622,17.22474 0,8.35906 -3.54627,16.59147 -3.54627,8.232425 -10.89211,15.578265 z m 33.94287,18.23796 -9.8789,-9.87889 q 8.35907,-8.10576 12.5386,-18.61792 4.17953,-10.512165 3.92623,-22.164195 0.2533,-11.39872 -3.92623,-22.03753 -4.17953,-10.63881 -12.5386,-18.99788 l 9.62559,-9.37228 q 10.63881,10.63881 15.95822,23.93732 5.3194,13.29851 5.57271,27.48359 0,13.17186 -5.0661,25.963765 -5.0661,12.79191 -16.21152,23.68402 z m -139.57106,-83.843955 9.11898,9.37228 q -5.0661,4.8128 -7.59915,11.14542 -2.53305,6.33263 -2.53305,12.5386 0,6.20597 2.40639,12.15864 2.4064,5.95267 6.71259,10.512165 l -8.86568,8.86567 q -6.33262,-6.58593 -10.132195,-14.944995 -3.79957,-8.35907 -3.79957,-17.47805 0,-8.35906 3.54627,-16.59148 3.54627,-8.23241 11.145415,-15.57825 z m -34.196175,-18.49127 9.8789,10.1322 q -8.35907,8.35907 -12.66525,18.74457 -4.30619,10.38551 -4.30619,22.03754 0,11.65203 4.30619,22.164185 4.30618,10.51216 12.66525,18.87123 l -9.62559,9.87889 q -10.63881,-10.89211 -15.95822,-24.19063 -5.3194,-13.298515 -5.57271,-27.483595 0,-13.17186 5.0661,-26.09041 5.0661,-12.91856 16.21152,-24.06398 z" id="path4141" /></svg>