<?xml version="1.0" encoding="UTF-8" standalone="no"?><svg xmlns="http://www.w3.org/2000/svg" version="1.1" width="320" height="320" id="svg2"><path d="m 42.20341,143.02774 q 0,-5.31941 7.85245,-6.58593 l 70.9254,-10.1322 31.91643,-64.339475 q 2.78636,-5.82601 6.83924,-5.82601 4.05288,0 7.09254,5.82601 l 31.66313,64.339475 70.9254,10.1322 q 8.10576,1.26652 8.10576,6.58593 0,3.03966 -3.79958,6.83923 l -51.42091,49.90109 12.15864,70.67209 q 0.2533,1.01322 0.2533,3.03966 0,2.78636 -1.51983,4.8128 -1.51983,2.02644 -4.17953,2.15309 -2.6597,0.12665 -5.69936,-1.64648 l -63.57956,-33.43626 -63.326251,33.43626 q -3.29297,1.77313 -5.95267,1.77313 -2.6597,0 -4.17953,-2.27974 -1.51983,-2.27975 -1.51983,-4.8128 0,-1.01322 0.2533,-3.03966 L 97.170589,199.76806 45.74968,149.86697 q -3.54627,-3.79957 -3.54627,-6.83923 z" id="path4023" /></svg>