<?xml version="1.0" encoding="UTF-8" standalone="no"?><svg xmlns="http://www.w3.org/2000/svg" version="1.1" width="320" height="320" id="svg2"><path d="m 193.04654,76.155215 q -1.51983,0 -3.54627,0.75992 -2.02644,0.75991 -3.54627,1.26652 l -50.66101,24.570595 q -5.0661,2.53305 -6.45928,8.35906 -1.39317,5.82602 1.64649,10.63881 l 15.4516,20.77101 -56.487005,44.07507 26.090405,8.35906 33.94287,-11.14542 q 2.02644,-0.75991 3.92623,-0.75991 1.89979,0 4.17953,0.75991 l 33.94288,11.14542 17.73135,-6.07932 -48.63457,-70.41878 38.50237,-19.251185 q 5.57271,-3.03966 6.33262,-7.09254 0.75992,-4.05288 0.12666,-7.09254 -0.63327,-3.03966 -3.92623,-5.82602 -3.29297,-2.78635 -8.61237,-3.03966 z m 23.81067,37.995755 q -10.63881,0.25331 -17.858,7.4725 -7.2192,7.21919 -7.2192,17.858 0,10.63881 7.2192,17.858 7.21919,7.21919 17.858,7.21919 10.63881,0 17.858,-7.21919 7.21919,-7.21919 7.21919,-17.858 0,-10.63881 -7.21919,-17.858 -7.21919,-7.21919 -17.858,-7.4725 z M 77.539455,202.80772 q -2.27974,0.2533 -4.05288,0.75991 l -21.27762,7.09254 0,26.09042 25.3305,-8.61237 33.942865,11.90533 q 2.27975,0.75992 4.17953,0.63327 1.89979,-0.12666 3.92623,-0.63327 l 33.94287,-11.90533 33.94288,11.90533 q 2.27974,0.75992 4.17953,0.63327 1.89979,-0.12666 3.92623,-0.63327 l 33.94287,-11.90533 37.99575,12.66525 0,-26.09042 -33.94287,-11.14542 q -2.02644,-0.75991 -3.92623,-0.75991 -1.89979,0 -4.17953,0.75991 l -33.94287,11.14542 -33.94288,-11.14542 q -2.27974,-0.75991 -4.17953,-0.63326 -1.89979,0.12665 -3.92623,0.63326 L 115.5352,214.71305 81.592335,203.56763 q -2.27974,-0.75991 -4.05288,-0.75991 z" id="path4147" /></svg>