<?xml version="1.0" encoding="UTF-8" standalone="no"?><svg xmlns="http://www.w3.org/2000/svg" version="1.1" width="320" height="320" id="svg2"><path d="m 228.25594,100.2192 q 24.31728,0 41.28871,16.97143 16.97144,16.97144 16.97144,41.03541 0,24.06397 -16.97144,41.28871 -16.97143,17.22474 -41.28871,17.22474 l -136.784711,0 q -23.81067,0 -41.035409,-17.22474 -17.22474,-17.22474 -17.22474,-41.28871 0,-24.06397 17.22474,-41.03541 17.224739,-16.97143 41.288719,-16.97143 24.063971,0 41.035411,16.97143 16.97143,16.97144 16.97143,41.28871 0,18.23796 -10.1322,32.92965 l 40.5288,0 q -10.1322,-16.21152 -10.1322,-32.92965 0,-24.31727 17.22475,-41.28871 17.22474,-16.97143 41.03541,-16.97143 z M 58.54158,158.47934 q 0,13.17186 9.625589,23.05076 9.62559,9.87889 23.30406,9.87889 13.678471,0 23.304061,-9.87889 9.62559,-9.8789 9.62559,-23.30406 0,-13.42517 -9.62559,-23.05075 -9.62559,-9.62559 -23.304061,-9.62559 -13.67847,0 -23.30406,9.62559 -9.625589,9.62558 -9.625589,23.30405 z m 169.71436,32.92965 q 13.67847,0 23.30406,-9.87889 9.62559,-9.8789 9.62559,-23.30406 0,-13.42517 -9.62559,-23.05075 -9.62559,-9.62559 -23.30406,-9.62559 -13.67847,0 -23.30406,9.62559 -9.62559,9.62558 -9.62559,23.05075 0,13.42516 9.62559,23.30406 9.62559,9.87889 23.30406,9.87889 z" id="path4089" /></svg>