<?xml version="1.0" encoding="UTF-8" standalone="no"?><svg xmlns="http://www.w3.org/2000/svg" version="1.1" width="320" height="320" id="svg2"><path d="m 51.311836,167.59832 0,-18.23796 q 0,-3.54627 2.78635,-6.33262 2.78636,-2.78636 6.33263,-2.53305 l 20.2644,0 q 5.0661,-22.79745 21.784234,-39.51558 16.71813,-16.718135 39.26227,-21.784235 l 0,-20.2644 q 0,-3.54627 2.78636,-6.33263 2.78635,-2.78635 6.33262,-2.78635 l 17.98466,0 q 3.79957,0 6.33262,2.78635 2.53305,2.78636 2.78636,6.33263 l 0,20.2644 q 22.79745,5.31941 39.26228,21.784235 16.46482,16.46483 22.03753,39.51558 l 20.0111,0 q 3.79957,0 6.58593,2.53305 2.78635,2.53305 2.53305,6.33262 l 0,18.23796 q 0,3.54627 -2.53305,6.33263 -2.53305,2.78635 -6.58593,2.78635 l -20.0111,0 q -5.3194,22.54415 -22.03753,39.26228 -16.71813,16.71813 -39.26228,21.78423 l 0,20.2644 q 0,3.54627 -2.78636,6.33262 -2.78635,2.78636 -6.33262,2.78636 l -17.98466,0 q -3.79957,0 -6.33262,-2.78636 -2.53305,-2.78635 -2.78636,-6.33262 l 0,-20.2644 Q 118.94427,232.4444 102.47945,215.97958 86.014616,199.51475 80.695216,176.7173 l -20.2644,0 q -3.79958,0 -6.33263,-2.78635 -2.53305,-2.78636 -2.78635,-6.33263 z m 47.87464,8.86568 q 4.559494,15.4516 15.958224,26.85033 11.39872,11.39872 26.59702,15.70491 l 0,-15.1983 q 0,-3.79958 2.78636,-6.58593 2.78635,-2.78636 6.33262,-2.53305 l 17.98466,0 q 3.79957,0 6.33262,2.53305 2.53305,2.53305 2.78636,6.58593 l 0,15.1983 q 15.1983,-4.30619 26.59703,-15.70491 11.39872,-11.39873 15.95821,-26.85033 l -15.4516,0 q -3.54627,0 -6.33263,-2.53305 -2.78635,-2.53305 -2.78635,-6.33263 l 0,-18.23796 q 0,-3.54627 2.78635,-6.33262 2.78636,-2.78636 6.33263,-2.53305 l 15.4516,0 q -4.55949,-15.4516 -15.95821,-26.85033 -11.39873,-11.39872 -26.59703,-15.704915 l 0,15.198305 q 0,3.79958 -2.78636,6.58593 -2.78635,2.78636 -6.33262,2.53305 l -17.98466,0 q -3.79957,0 -6.33262,-2.53305 -2.53305,-2.53305 -2.78636,-6.58593 l 0,-15.198305 q -15.1983,4.306195 -26.59702,15.704915 -11.39873,11.39873 -15.958224,26.85033 l 15.451614,0 q 3.79957,0 6.33262,2.53305 2.53305,2.53305 2.78636,6.33262 l 0,18.23796 q 0,3.54627 -2.78636,6.33263 -2.78635,2.78635 -6.33262,2.78635 l -15.451614,0 0,-0.2533 z" id="path4105" /></svg>