<?xml version="1.0" encoding="UTF-8" standalone="no"?><svg xmlns="http://www.w3.org/2000/svg" version="1.1" width="320" height="320" id="svg2"><path d="m 19.655932,244.34973 0,-54.20727 q 0,-13.17186 9.37229,-22.29084 9.37228,-9.11898 22.29083,-9.37228 l 4.05288,0 14.69169,-59.273375 q 3.29297,-13.17186 14.691689,-22.29084 11.39873,-9.11898 25.330499,-8.86567 l 18.23796,0 0,-31.66313 q 0,-2.02644 1.26652,-3.29296 1.26653,-1.26653 3.03966,-1.26653 l 63.32626,0 q 2.02644,0 3.29296,1.26653 1.26653,1.26652 1.26653,3.29296 l 0,31.66313 9.11898,0 q 13.93178,0 25.3305,8.86567 11.39873,8.86568 14.69169,22.29084 l 14.945,59.273375 3.79957,0 q 13.17186,0 22.54415,9.37228 9.37228,9.37229 9.11898,22.29084 l 0,54.20727 q 0,2.02644 -1.26653,3.29297 -1.26652,1.26652 -3.29296,1.26652 l -17.98466,0 0,9.11898 q 0,11.39873 -7.85245,19.25119 -7.85246,7.85246 -19.25118,7.85246 -11.39873,0 -19.25118,-7.85246 -7.85246,-7.85246 -7.85246,-19.25119 l 0,-9.11898 -131.211989,0 0,9.11898 q 0,11.39873 -8.10576,19.25119 -8.105759,7.85246 -18.997879,7.85246 -10.89211,0 -19.25117,-7.85246 -8.35907,-7.85246 -8.10576,-19.25119 l 0,-9.11898 -13.42517,0 q -2.02644,0 -3.29296,-1.26652 -1.26653,-1.26653 -1.26653,-3.29297 z m 22.54415,-40.5288 q 0,9.11898 6.83923,15.95822 6.83923,6.83923 15.95821,6.58593 9.11898,-0.25331 15.958219,-6.58593 6.83923,-6.33263 6.58593,-15.95822 -0.25331,-9.62559 -6.58593,-16.21152 -6.332629,-6.58593 -15.958219,-6.58593 -9.62559,0 -15.95821,6.58593 -6.33262,6.58593 -6.83923,16.21152 z m 50.407689,-45.34159 134.504959,0 -12.41195,-50.40769 q -0.50661,-1.26653 -2.02644,-2.53305 -1.51983,-1.26653 -3.03966,-1.26653 l -99.54887,0 q -1.26653,0 -3.03966,1.26653 -1.77314,1.26652 -1.77314,2.53305 z m 135.011569,45.34159 q 0,9.11898 6.83923,15.95822 6.83924,6.83923 15.95822,6.58593 9.11898,-0.25331 15.95821,-6.58593 6.83924,-6.33263 6.58593,-15.95822 -0.2533,-9.62559 -6.58593,-16.21152 -6.33262,-6.58593 -15.95821,-6.58593 -9.62559,0 -15.95822,6.58593 -6.33262,6.58593 -6.83923,16.21152 z" id="path4047" /></svg>