<?xml version="1.0" encoding="UTF-8" standalone="no"?><svg xmlns="http://www.w3.org/2000/svg" version="1.1" width="320" height="320" id="svg2"><path d="m 64.874205,44.492095 q -4.81279,0.2533 -8.61237,3.92622 -3.79957,3.67293 -4.05288,8.73903 l 0,88.656745 q -0.75991,22.29084 12.66525,42.17529 13.42517,19.88444 50.660995,21.15096 6.83924,0 12.66525,-0.75991 l 0,-37.23584 -50.660995,0 q -0.50661,-1.51983 7.21919,-12.66525 7.72581,-11.14542 30.776555,-12.66525 4.55949,0 7.21919,0.63326 2.65971,0.63327 5.44606,1.64649 l 0,-27.61024 q 0,-8.86568 3.29297,-15.57826 3.29296,-6.712585 9.37228,-9.752245 9.11898,-4.55949 14.56504,-3.79958 5.44606,0.75992 10.76546,3.79958 l 11.14543,5.572715 q 2.02644,1.01322 1.51983,0.75991 l 0,-44.328375 q -0.25331,-5.0661 -4.05288,-8.73903 -3.79958,-3.67292 -8.61238,-3.92622 -9.11898,0.75991 -20.64436,6.33262 -11.52537,5.57271 -30.01664,6.33263 -18.491255,-0.75992 -30.016635,-6.33263 -11.52538,-5.57271 -20.64436,-6.33262 z m 22.29084,44.32837 q 6.58593,0.25331 11.01877,4.68614 4.432835,4.43284 4.432835,11.145425 0,6.71259 -4.432835,11.14542 -4.43284,4.43284 -11.14542,4.43284 -6.71258,0 -11.14542,-4.43284 -4.43284,-4.43283 -4.43284,-11.14542 0,-6.712585 4.43284,-11.145425 4.43284,-4.43283 11.27207,-4.68614 z m 66.365905,18.997885 q -4.81279,0.2533 -8.61237,3.92622 -3.79957,3.67293 -4.05288,8.73903 l 0,88.65674 q -0.75991,22.29084 12.66525,42.17529 13.42517,19.88444 50.66101,21.15096 37.23583,-1.26652 50.661,-21.15096 13.42516,-19.88445 12.66525,-42.17529 l 0,-88.65674 q -0.25331,-5.0661 -4.05288,-8.73903 -3.79958,-3.67292 -8.61237,-3.92622 -9.11898,0.75991 -20.64436,6.33262 -11.52538,5.57271 -30.01664,6.33263 -18.49127,-0.75992 -30.01665,-6.33263 -11.52538,-5.57271 -20.64436,-6.33262 z m 22.29085,44.32837 q 6.58593,0.2533 11.01877,4.68614 4.43283,4.43284 4.43283,11.14542 0,6.71258 -4.43283,11.14542 -4.43284,4.43284 -11.14543,4.43284 -6.71258,0 -11.14542,-4.43284 -4.43284,-4.43284 -4.43284,-11.14542 0,-6.71258 4.43284,-11.14542 4.43284,-4.43284 11.27208,-4.68614 z m 56.99362,0 q 6.58593,0.2533 11.01877,4.68614 4.43284,4.43284 4.43284,11.14542 0,6.71258 -4.43284,11.14542 -4.43284,4.43284 -11.14542,4.43284 -6.71258,0 -11.14542,-4.43284 -4.43284,-4.43284 -4.43284,-11.14542 0,-6.71258 4.43284,-11.14542 4.43284,-4.43284 11.27207,-4.68614 z m -66.61922,69.65887 75.99151,0 q 0.50661,1.51983 -7.21919,12.66525 -7.72581,11.14542 -30.77656,12.66525 -23.05076,-1.51983 -30.77656,-12.66525 -7.72581,-11.14542 -7.2192,-12.66525 z" id="path4145" /></svg>