<?xml version="1.0" encoding="UTF-8" standalone="no"?><svg xmlns="http://www.w3.org/2000/svg" version="1.1" width="320" height="320" id="svg2"><path d="m 159.74635,184.31645 q -22.79745,0 -39.51558,-6.83923 -16.71813,-6.83924 -17.73135,-16.46483 l 14.18508,-40.02218 q 2.53305,7.09254 14.945,11.65203 12.41194,4.55948 28.37016,4.55948 15.95821,0 28.11686,-4.55948 12.15864,-4.55949 14.69169,-11.65203 l 14.18508,40.02218 q -1.01322,9.62559 -17.73135,16.46483 -16.71813,6.83923 -39.51559,6.83923 z m 0,-84.603865 q -24.31728,0 -31.40982,-11.14542 l 13.17186,-35.96931 q 2.53305,-8.61237 18.23796,-8.61237 15.70491,0 18.74457,8.61237 3.03967,9.62559 12.66526,35.96931 -7.09254,11.14542 -31.40983,11.14542 z M 271.20056,196.9817 q 10.1322,4.05288 10.3855,10.38551 0.25331,6.33262 -9.37228,11.90533 l -89.16336,47.62134 q -9.6256,5.57271 -23.05076,5.57271 -13.42517,0 -23.05076,-5.57271 L 47.278928,219.27254 q -9.62559,-5.0661 -9.11898,-11.65203 0.50661,-6.58593 10.63881,-10.63881 l 47.621339,-19.25118 -5.57271,15.1983 q 0,12.15864 20.264403,20.77101 20.2644,8.61237 48.63456,8.61237 28.37017,0 48.63457,-8.61237 20.2644,-8.61237 20.77101,-20.77101 l -5.57271,-15.1983 z" id="path4085" /></svg>