<?xml version="1.0" encoding="UTF-8" standalone="no"?><svg xmlns="http://www.w3.org/2000/svg" version="1.1" width="320" height="320" id="svg2"><path d="m 37.855003,203.58874 q 0,-3.79957 2.53305,-6.33262 2.53305,-2.53305 6.33263,-2.78636 l 0,-55.47379 q 0,-1.51983 0.50661,-4.8128 l 0.75991,-5.3194 q 0.25331,-2.02644 2.02644,-4.30619 l 3.29297,-4.30618 27.863549,-27.863555 q 2.78635,-2.78636 7.09254,-4.55949 4.30618,-1.77314 8.35906,-1.77314 l 22.544148,0 0,-27.10363 q 0,-3.79958 2.78635,-6.58593 2.78636,-2.78636 6.33263,-2.53305 l 144.63716,0 q 3.79957,0 6.33262,2.53305 2.53305,2.53305 2.78636,6.58593 l 0,144.637155 q 0,2.02644 -0.50661,3.79958 -0.50661,1.77313 -2.02644,2.53305 -1.51983,0.75991 -2.27975,1.51983 -0.75991,0.75991 -3.29296,1.01322 l -3.29297,0.2533 -6.58593,0 q 0,14.945 -10.63881,25.58381 -10.63881,10.63881 -25.5838,10.63881 -14.945,0 -25.58381,-10.63881 -10.63881,-10.63881 -10.63881,-25.58381 l -54.20727,0 q 0,14.945 -10.63881,25.58381 -10.63881,10.63881 -25.58381,10.63881 -14.944988,0 -25.583798,-10.63881 -10.638809,-10.63881 -10.638809,-25.58381 l -15.95822,0 q -1.01322,0 -3.03966,-0.2533 -2.02644,-0.25331 -3.29296,-1.01322 l -2.27975,-1.51983 q -1.01322,-0.75992 -2.02644,-2.53305 -1.01321,-1.77314 -0.50661,-3.79958 z m 27.10364,-63.32625 54.207267,0 0,-36.22261 -22.290838,0 q -1.77314,0 -3.03966,1.26652 l -27.610249,27.61025 q -1.26652,1.26652 -1.26652,3.03966 l 0,4.30618 z m 17.984649,72.44523 q 0,7.34585 5.57271,12.66525 5.57271,5.31941 12.665248,5.31941 7.09254,0 12.66525,-5.31941 5.57271,-5.3194 5.31941,-12.66525 -0.25331,-7.34584 -5.31941,-12.91855 -5.0661,-5.57271 -12.66525,-5.31941 -7.599148,0.25331 -12.665248,5.31941 -5.0661,5.0661 -5.57271,12.91855 z m 126.652508,0 q 0,7.34585 5.3194,12.66525 5.31941,5.31941 12.91856,5.31941 7.59915,0 12.66525,-5.31941 5.0661,-5.3194 5.3194,-12.66525 0.25331,-7.34584 -5.3194,-12.91855 -5.57271,-5.57271 -12.66525,-5.31941 -7.09254,0.25331 -12.91856,5.31941 -5.82601,5.0661 -5.3194,12.91855 z" id="path4045" /></svg>