<?xml version="1.0" encoding="UTF-8" standalone="no"?><svg xmlns="http://www.w3.org/2000/svg" version="1.1" width="320" height="320" id="svg2"><path d="m 42.221503,161.53448 q 0,-0.75991 0.25331,-1.01322 6.33262,-25.8371 24.317279,-45.08828 17.98465,-19.251185 42.048628,-28.876775 24.06397,-9.62559 50.9143,-9.62559 19.75779,0 38.75567,5.57271 18.99788,5.57271 34.95609,16.21152 15.95822,10.638815 27.61025,26.343725 11.65203,15.7049 16.21152,35.46269 0.2533,0.25331 0.2533,1.01322 0,1.77314 -1.51983,3.29297 -1.51983,1.51983 -3.03966,1.39317 -1.51983,-0.12665 -3.29296,-1.64648 -6.83924,-6.33262 -13.17186,-9.62559 -6.33263,-3.29296 -14.43839,-3.29296 -9.62559,0 -17.98465,5.3194 -8.35907,5.31941 -14.69169,13.67847 -1.01322,1.26653 -2.53305,3.79958 l -2.02644,3.54627 q -1.51983,2.27974 -3.92623,2.27974 -2.4064,0 -3.92623,-2.27974 -0.75991,-1.01322 -2.27974,-3.54627 l -2.27975,-3.79958 q -6.07932,-8.61237 -14.69169,-13.67847 -8.61237,-5.0661 -17.98466,-5.3194 -9.37228,-0.25331 -17.98465,5.3194 -8.61237,5.57271 -14.43839,13.67847 -1.01322,1.26653 -2.53305,3.79958 l -2.02644,3.54627 q -1.51983,2.27974 -4.05288,2.27974 -2.53305,0 -4.05288,-2.27974 l -2.02644,-3.54627 q -1.51983,-2.53305 -2.53305,-3.79958 -6.07932,-8.61237 -14.438378,-13.67847 -8.35907,-5.0661 -17.98466,-5.3194 -8.35906,0 -14.43838,3.29296 -6.07932,3.29297 -13.171859,9.62559 -1.77314,1.51983 -3.41962,1.51983 -1.64648,0 -3.16631,-1.26652 -1.51983,-1.26653 -1.26653,-3.29297 z m 54.207269,78.27125 q 0,-3.79958 2.78636,-6.33263 2.786348,-2.53305 6.332618,-2.78635 3.54627,-0.25331 6.33263,2.78635 2.78635,3.03966 2.78635,6.33263 0,7.09254 5.57271,12.41194 5.57271,5.31941 12.41195,5.57271 6.83923,0.25331 12.66525,-5.57271 5.82601,-5.82601 5.57271,-12.41194 l 0,-82.07082 q 4.55949,-1.51983 8.86567,-1.51983 4.30619,0 9.11898,1.51983 l 0,82.07082 q 0,14.69169 -10.63881,25.3305 -10.63881,10.63881 -25.5838,10.89211 -14.945,0.25331 -25.3305,-10.89211 -10.385508,-11.14542 -10.892118,-25.3305 z m 54.460578,-167.181305 0,-13.93178 q 0,-3.54627 2.53305,-6.33262 2.53305,-2.78636 6.33262,-2.53305 3.79958,0.2533 6.33263,2.53305 2.53305,2.27974 2.78635,6.33262 l 0,13.93178 q -5.82601,-0.2533 -9.11898,-0.2533 -3.29296,0 -8.86567,0.2533 z" id="path4035" /></svg>