<?xml version="1.0" encoding="UTF-8" standalone="no"?><svg xmlns="http://www.w3.org/2000/svg" version="1.1" width="320" height="320" id="svg2"><path d="m 24.222588,154.17316 q 0,-49.90108 17.47805,-49.90108 1.01322,0 6.33263,2.78636 5.3194,2.78635 13.67847,6.07932 8.35906,3.29296 16.718129,3.03966 9.62559,0 18.99787,-3.29297 -0.75991,5.31941 -0.75991,9.37229 0,19.75778 11.398723,36.22261 -22.797453,0.75991 -37.489142,18.23796 l -18.99787,0 q -11.39873,0 -19.50449,-5.82602 -8.10576,-5.82601 -7.85246,-16.71813 z m 17.98466,-86.123695 q 0,-14.945 10.63881,-25.58381 10.63881,-10.63881 25.583809,-10.63881 14.94499,0 25.583803,10.63881 10.63881,10.63881 10.63881,25.58381 0,14.94499 -10.63881,25.5838 -10.638813,10.638815 -25.583803,10.638815 -14.944999,0 -25.583809,-10.638815 -10.63881,-10.63881 -10.63881,-25.5838 z m 18.23796,180.606465 q 0,-7.59915 0.50661,-14.69169 0.50661,-7.09254 2.02644,-15.45161 1.51983,-8.35906 3.54627,-15.4516 2.02644,-7.09254 6.07932,-13.67847 4.052879,-6.58593 8.865679,-11.39873 4.81279,-4.81279 12.15864,-7.59915 7.345843,-2.78635 15.704913,-2.78635 1.51983,0 6.07932,3.03966 4.55949,3.03966 10.3855,6.58593 5.82602,3.54627 14.945,6.83923 9.11898,3.29297 19.25118,3.03966 10.1322,-0.2533 18.99788,-3.03966 8.86567,-2.78635 15.1983,-6.83923 l 10.3855,-6.58593 q 4.05288,-2.53305 5.82602,-3.03966 8.86568,0 15.95822,2.78635 7.09254,2.78636 11.90533,7.59915 4.8128,4.8128 8.86568,11.39873 4.05288,6.58593 6.07932,13.67847 2.02644,7.09254 3.79957,15.4516 1.77314,8.35907 2.02644,15.45161 l 0.50661,14.69169 q 0,16.71813 -10.3855,26.59702 -10.38551,9.87889 -27.35694,9.87889 l -123.612853,0 q -17.22474,0 -27.356939,-9.87889 -10.1322,-9.87889 -10.38551,-26.59702 z M 105.5335,122.25674 q 0,-22.544155 15.95822,-38.249065 15.95821,-15.70491 38.50236,-15.95821 22.54415,-0.25331 38.24906,15.95821 15.70491,16.211525 15.95822,38.249065 0.2533,22.03753 -15.95822,38.50235 -16.21152,16.46483 -38.24906,15.95822 -22.03754,-0.50661 -38.50236,-15.95822 -16.46483,-15.4516 -15.95822,-38.50235 z m 99.54887,-54.207275 q 0,-14.945 10.63882,-25.58381 10.63881,-10.63881 25.5838,-10.63881 14.945,0 25.58381,10.63881 10.63881,10.63881 10.63881,25.58381 0,14.94499 -10.63881,25.5838 -10.63881,10.638815 -25.58381,10.638815 -14.94499,0 -25.5838,-10.638815 -10.63882,-10.63881 -10.63882,-25.5838 z m 6.83924,90.429885 q 11.39873,-16.46483 11.39873,-36.22261 0,-4.05288 -0.75992,-9.37229 9.37229,3.29297 18.74457,3.29297 8.35907,0 16.97144,-3.03966 8.61237,-3.03966 13.67847,-6.07932 5.0661,-3.03966 6.07932,-2.78636 17.47804,0 17.47804,49.90108 0,10.89212 -7.85245,16.71813 -7.85246,5.82602 -19.50449,5.57271 l -18.99787,0 q -14.43839,-17.22474 -37.23584,-17.98465 z" id="path4125" /></svg>