<?xml version="1.0" encoding="UTF-8" standalone="no"?><svg xmlns="http://www.w3.org/2000/svg" version="1.1" width="320" height="320" id="svg2"><path d="m 83.365469,32.840065 q 2.53305,21.78423 12.66525,39.26227 10.132201,17.47805 18.491271,31.156525 8.35906,13.67847 8.35906,28.37016 0,16.71812 -12.15864,28.62346 -12.158641,11.90533 -28.876771,11.90533 -16.71813,0 -28.876769,-11.90533 -12.15864,-11.90534 -12.15864,-28.62346 0,-14.69169 8.35907,-28.37016 8.359059,-13.678475 18.491259,-31.156525 10.1322,-17.47804 12.66525,-39.26227 0.50661,-1.01322 1.77314,-1.01322 1.26652,0 1.26652,1.01322 z m 156.035891,0 q 2.53305,21.78423 12.66525,39.26227 10.1322,17.47805 18.49126,31.156525 8.35907,13.67847 8.35907,28.37016 0,16.71812 -12.15864,28.62346 -12.15864,11.90533 -28.87677,11.90533 -16.71813,0 -28.87677,-11.90533 -12.15864,-11.90534 -12.15864,-28.62346 0,-12.15864 5.3194,-23.55737 5.31941,-11.398725 12.15864,-19.757795 6.83924,-8.35906 13.42517,-23.30406 6.58593,-14.94499 8.61237,-32.16973 0.50661,-1.01322 1.77313,-1.01322 1.26653,0 1.26653,1.01322 z M 158.34375,145.30748 q 0.50661,-1.01322 1.77314,-1.01322 1.26652,0 1.26652,1.01322 2.53305,21.78423 12.66525,39.26228 10.13221,17.47804 18.49127,31.15651 8.35907,13.67847 8.35907,28.37016 0,16.71813 -12.15864,28.62347 -12.15865,11.90533 -28.87678,11.90533 -16.71813,0 -28.87677,-11.90533 -12.15864,-11.90534 -12.15864,-28.62347 0,-14.69169 8.35907,-28.37016 8.35906,-13.67847 18.49126,-31.15651 10.1322,-17.47805 12.66525,-39.26228 z" id="path4083" /></svg>