<?xml version="1.0" encoding="UTF-8" standalone="no"?><svg xmlns="http://www.w3.org/2000/svg" version="1.1" width="320" height="320" id="svg2"><path d="m 233.31299,124.53648 q 0,26.85032 -17.22474,47.36803 -17.22474,20.5177 -43.31516,24.82389 0,0.2533 0.25331,0.50661 0.2533,0.2533 0.2533,0.75991 l 0,52.94075 12.91856,0 q 5.3194,0 9.37228,3.79957 4.05288,3.79958 3.79958,9.11898 -0.25331,5.31941 -3.79958,9.37229 -3.54627,4.05288 -9.37228,4.05288 l -52.68745,0 q -5.3194,0 -9.37228,-4.05288 -4.05288,-4.05288 -3.79958,-9.37229 0.25331,-5.3194 3.79958,-9.11898 3.54627,-3.79957 9.37228,-3.79957 l 13.17186,0 0,-53.70066 q 0,-0.50661 0.25331,-0.50661 -26.09042,-4.55949 -43.31516,-24.82389 -17.224737,-20.2644 -17.224737,-47.36803 0,-14.945 3.29296,-33.689575 3.29297,-18.74457 5.57271,-29.13007 2.27975,-10.38551 3.54628,-12.66525 1.266517,-4.05288 4.812787,-6.58593 3.54627,-2.53305 7.85246,-2.78636 l 96.76251,0 q 4.55949,0 8.10576,2.78636 3.54627,2.78635 4.55949,6.58593 1.01322,2.27974 3.54627,12.66525 2.53305,10.3855 5.82602,29.13007 3.29296,18.744575 3.03966,33.689575 z m -73.45845,47.11472 q 17.47804,0 30.6499,-11.14542 13.17186,-11.14542 15.70491,-28.37015 l -92.45633,0 q 2.53305,16.97143 15.45161,28.37015 12.91855,11.39873 30.64991,11.14542 z m -46.86143,-52.94074 93.72285,0 q -1.26652,-24.823895 -8.61237,-52.687445 l -76.49811,0 q -7.34585,27.86355 -8.61237,52.687445 z" id="path4135" /></svg>