<?xml version="1.0" encoding="UTF-8" standalone="no"?><svg xmlns="http://www.w3.org/2000/svg" version="1.1" width="320" height="320" id="svg2"><path d="m 43.955436,233.96423 q 0,-7.34584 5.31941,-12.91855 l 96.255894,-96.2559 q 5.57271,13.93177 16.21152,24.57058 10.63881,10.63881 24.57058,16.21152 l -96.509205,96.50921 q -5.3194,5.0661 -12.66525,5.0661 -7.34584,0 -12.91855,-5.0661 L 49.274846,246.62948 q -5.31941,-5.0661 -5.31941,-12.66525 z m 33.182949,-9.11898 q 0,3.79958 2.53305,6.58593 2.53305,2.78636 6.58593,2.53305 4.05288,-0.2533 6.33263,-2.53305 2.27974,-2.27974 2.53305,-6.58593 0.2533,-4.30618 -2.53305,-6.33262 -2.78636,-2.02644 -6.33263,-2.53305 -3.54627,-0.50661 -6.58593,2.53305 -3.03966,3.03966 -2.53305,6.33262 z M 149.58362,98.192755 q 0,-26.09042 18.49126,-44.58168 18.49127,-18.49127 44.83499,-18.74457 8.10576,0 16.97144,2.53305 8.86567,2.53305 15.1983,6.58593 2.27974,1.51983 2.27974,3.79957 0,2.27975 -2.27974,4.05288 l -41.28872,23.81067 0,31.663135 27.35694,15.1983 q 0.50661,-0.50661 11.14542,-6.83924 l 18.99788,-11.39872 q 8.35906,-5.066105 10.25885,-5.066105 1.89979,0 3.16631,1.266525 1.26653,1.26653 1.01322,3.54627 0,5.57271 -3.03966,15.1983 -6.83923,18.74457 -23.30406,30.6499 -16.46482,11.90534 -36.47592,11.90534 -26.34372,0 -44.83499,-18.74457 -18.49126,-18.74457 -18.49126,-44.581685 l 0,-0.2533 z" id="path4029" /></svg>