<?xml version="1.0" encoding="UTF-8" standalone="no"?><svg xmlns="http://www.w3.org/2000/svg" version="1.1" width="320" height="320" id="svg2"><path d="m 42.207248,131.5071 q 0,-20.2644 7.85246,-38.502375 7.852449,-18.23796 21.277619,-31.91643 13.42516,-13.67847 31.663123,-21.27762 18.23796,-7.59915 38.75567,-7.85245 20.5177,-0.25331 38.50236,7.85245 17.98466,8.10576 31.91643,21.27762 13.93178,13.17186 21.27762,31.91643 7.34585,18.744585 7.85246,38.502375 0,31.15651 -17.47805,56.48701 l 48.38126,48.38125 q 5.3194,5.31941 5.3194,12.91856 0,7.59915 -5.3194,12.66525 -5.31941,5.0661 -12.91856,5.19275 -7.59915,0.12665 -12.66525,-5.19275 l -48.38125,-48.38126 q -25.33051,17.47805 -56.48702,17.47805 -20.2644,0 -38.75567,-7.85246 -18.491263,-7.85245 -31.663123,-21.02431 -13.17186,-13.17186 -21.277619,-31.91643 -8.10576,-18.74457 -7.85246,-38.75566 z m 36.222619,0 q 0,26.09041 18.49126,44.83498 18.491273,18.74457 44.834993,18.49126 26.34372,-0.2533 44.58168,-18.49126 18.23796,-18.23796 18.74457,-44.83498 0.50661,-26.59703 -18.74457,-44.581695 -19.25118,-17.98465 -44.58168,-18.74457 -25.3305,-0.75991 -44.834993,18.74457 -19.50448,19.504495 -18.49126,44.581695 z m 17.98465,4.55949 0,-9.11898 q 0,-1.77314 1.51983,-3.03966 1.51983,-1.26653 3.039663,-1.26653 l 81.56422,0 q 1.77313,0 3.03966,1.26653 1.26652,1.26652 1.26652,3.03966 l 0,9.11898 q 0,1.77313 -1.26652,3.29296 -1.26653,1.51983 -3.03966,1.26652 l -81.56422,0 q -1.773133,0 -3.039663,-1.26652 -1.26652,-1.26653 -1.51983,-3.29296 z" id="path4115" /></svg>